<svg width="500" height="500" fill="none" xmlns="http://www.w3.org/2000/svg"><path d="M232.034 455.607V53.761a207.868 207.868 0 0 1 40.568-3.98c13.97 0 27.629 1.388 40.822 4.028v22.623c-17.932.947-32.105 5.333-42.62 13.156-11.948 8.888-17.918 21.3-17.918 37.173 0 15.589 5.78 27.656 17.349 36.143 10.439 7.697 24.841 11.884 43.189 12.625v23.445h-15.595l-51.916 100.209h33.63l8.084-18.09h25.797v38.291h-15.595l-51.916 100.203h33.63l8.084-18.083h25.797v54.054a207.953 207.953 0 0 1-40.822 4.031 208.533 208.533 0 0 1-40.568-3.982Zm-12.126 30.662c-12.726 0-25.937-2.221-39.267-6.594-13.366-4.388-23.47-6.734-32.407-7.454V23.898c5.055 6.968 15.277 22.426 24.95 45.143a262.78 262.78 0 0 1 2.058 4.972c10.869 26.984 20.5 63.239 20.5 107.084 0 55.893-9.823 96.701-17.724 129.493-6.579 27.348-12.265 50.963-10.389 74.826 1.752 22.083 5.412 38.83 11.4 51.9a83.302 83.302 0 0 0 2.762 5.475c.161.29.328.575.492.863.321.559.646 1.113.977 1.658a68.436 68.436 0 0 0 5.006 7.177c12.083 15.141 29.749 23.713 54.417 31.16-5.32 1.304-13.047 2.62-22.775 2.62Zm9.754-432.02v400.873a205.732 205.732 0 0 1-42.474-13.888c-7.752-13.376-12.25-31.369-14.211-56.241-1.84-23.007 3.76-46.239 10.247-73.144 7.962-33.076 17.866-74.223 17.866-130.752 0-46.075-10.506-83.6-20.984-109.59a205.73 205.73 0 0 1 49.556-17.258Zm83.762 99.328c-4.032-1.066-7.349-3.073-9.936-6.041-4.039-4.648-6.047-11.319-6.047-20.016 0-9.844 2.087-17.319 6.265-22.5 2.557-3.171 5.801-5.364 9.718-6.599v55.156Zm17.227 105.64h-33.025l16.965-36.412 16.06 36.412Zm-33.025 120.411 16.965-36.417 16.06 36.417h-33.025Zm18.157-204.014c1.207.029 2.425.045 3.663.045 21.305 0 37.271-3.333 47.962-10.027 10.679-6.689 16.023-16.713 16.023-30.007v-.383l-40.987.001c0 5.873-1.936 10.559-5.875 14.048-3.424 3.023-7.886 4.729-13.348 5.107-.78.055-1.582.08-2.402.08-1.78 0-3.454-.14-5.037-.399l.001-56.262a29.446 29.446 0 0 1 5.957-.59c5.905 0 10.631 1.663 14.242 4.96 3.577 3.327 5.745 8.045 6.462 14.175l40.987-.001c-.66-13.014-6.349-22.947-16.959-29.826-10.67-6.878-25.815-10.302-45.454-10.302-1.784 0-3.52.042-5.236.103V54.303a206.379 206.379 0 0 1 81.4 37.047v326.682a206.653 206.653 0 0 1-81.399 37.039v-53.567h23.889l7.559 18.083h37.351l-49.523-100.203-19.277-.002.001-38.289h23.889l7.559 18.09h37.351l-49.523-100.209-19.277-.001.001-23.359Zm83.769-82.468c48.461 37.535 79.64 95.978 79.64 161.534 0 65.545-31.179 123.997-79.64 161.537V93.146Zm-253.713-.164.001 323.397-.001 6.711v48.978a67.802 67.802 0 0 0-3.586-.1c-11.689 0-21.969 2.749-37.539 6.929-3.232.865-6.695 1.791-10.43 2.766-7.074 1.831-14.724 2.768-22.716 2.768-8.078 0-15.184-.963-20.212-1.917 8.225-3.642 21.858-10.459 35.82-20.774 20.767-15.324 34.937-33.167 41.897-52.493a85.443 85.443 0 0 0 1.813-5.621 82.733 82.733 0 0 0 3.043-18.279c1.746-33.098-6.726-61.026-15.659-90.561-4.25-14.031-8.744-28.909-12.415-45.32l.138.178-2.15-9.746a315.776 315.776 0 0 1-3.328-20.783c-1.797-15.957-3.318-41.362-.142-71.014.371-2.801.798-5.565 1.249-8.308a279.196 279.196 0 0 1 2.305-12.286c10.719-50.799 33.377-89.612 41.912-102.969v68.444ZM65.983 254.68c0-6.524.322-12.973.927-19.343 6.626-.706 12.494-1.18 16.318-1.18 1.002 0 1.823.03 2.462.099 8.26.874 11.681 3.72 12.502 4.532 4.017 21.37 9.694 40.106 14.964 57.545 8.813 29.09 17.123 56.564 15.431 88.73a77.507 77.507 0 0 1-2.106 14.314c-37.347-37.092-60.498-88.262-60.498-144.697Zm-41.67-19.024c9.323-44.371 28.693-67.236 43.51-78.665 9.747-7.523 18.79-11.176 24.597-12.924a58.151 58.151 0 0 1 3.128-.852c-.173 1.432-.32 2.833-.475 4.239a268.435 268.435 0 0 0-.406 3.211 252.887 252.887 0 0 0-1.867 30.524c0 14.029.925 26.997 2.49 39.14.512 4.581 1.062 8.4 1.511 11.279-2.49-1.134-5.924-2.175-10.566-2.679a32.782 32.782 0 0 0-3.007-.121c-3.789 0-9.403.433-15.735 1.089-1.768.183-3.59.382-5.448.596-14.284 1.641-30.487 4.048-37.731 5.163Zm468.6 19.025c0-120.554-98.833-218.632-220.311-218.632-31.5 0-61.896 6.476-90.39 19.252-13.265-28.57-26.194-43.862-26.739-44.499L146.341 0l-8.342 11.553c-3.684 5.253-36.148 52.953-48.697 119.099-7.309 2.069-17.988 6.361-29.522 15.21-17.228 13.144-39.829 39.585-49.704 90.909l-2.99 15.452 15.63-2.432c.137-.018 14.496-2.272 29.728-4.269a221.04 221.04 0 0 0-.193 9.159c0 57.454 22.307 111.633 62.853 152.733-17.655 43.449-73.83 64.494-76.224 65.376L7.9 483.848l31.535 9.954c2.418.725 15.348 4.355 32.134 4.355 9.16 0 17.963-1.081 26.157-3.215a869.329 869.329 0 0 0 7.042-1.849l3.642-.962c14.431-3.867 23.966-6.424 33.845-6.424 8.899 0 19.098 2.095 34.092 7.011 14.679 4.833 29.337 7.282 43.562 7.282 21.729 0 35.078-5.783 36.551-6.458l27.391-12.631-29.09-8.078c-.393-.103-.778-.216-1.161-.32 6.293.536 12.643.804 19.003.804 121.478 0 220.311-98.078 220.311-218.636Z" fill="#fff"/><path d="M132.102 75.247c3.094 0 5.612-2.522 5.612-5.627 0-3.1-2.518-5.607-5.612-5.607-3.101 0-5.624 2.508-5.624 5.607a5.63 5.63 0 0 0 5.624 5.627Z" fill="#fff"/></svg>