<svg width="500" height="500" fill="none" xmlns="http://www.w3.org/2000/svg"><path d="M315.783 54.305v22.032c1.715-.06 3.452-.103 5.235-.103 19.638 0 34.783 3.423 45.454 10.3 10.609 6.88 16.298 16.814 16.96 29.828h-40.988c-.716-6.13-2.884-10.847-6.463-14.176-3.61-3.296-8.336-4.959-14.242-4.959-2.123 0-4.101.209-5.956.59v56.263c1.583.259 3.258.4 5.036.4.82 0 1.622-.028 2.402-.081 5.461-.38 9.924-2.083 13.348-5.107 3.939-3.488 5.875-8.175 5.875-14.048h40.988v.382c0 13.295-5.344 23.319-16.023 30.008-10.691 6.694-26.658 10.026-47.962 10.026-1.238 0-2.458-.017-3.664-.045v49.892l14.868 33.709h-14.868V345.914l14.868 33.714h-14.868V455.07c30.075-6.372 57.734-19.241 81.399-37.039V91.349a206.374 206.374 0 0 0-81.399-37.044ZM175.242 74.013c10.868 26.985 20.5 63.239 20.5 107.083 0 55.895-9.823 96.701-17.723 129.494-6.58 27.348-12.264 50.964-10.39 74.827 1.753 22.082 5.413 38.829 11.4 51.898a205.125 205.125 0 0 0 8.159 3.918 205.572 205.572 0 0 0 42.474 13.888V54.249a205.74 205.74 0 0 0-49.555 17.257 206.1 206.1 0 0 0-4.865 2.507ZM132.103 64.014a5.611 5.611 0 0 1 5.611 5.606c0 3.105-2.518 5.627-5.611 5.627a5.63 5.63 0 0 1-5.625-5.627c0-3.099 2.523-5.606 5.625-5.606Zm-30.48 75.78a272.1 272.1 0 0 0-1.25 8.307c-3.175 29.652-1.654 55.057.142 71.014a317.146 317.146 0 0 0 3.328 20.784l2.151 9.745-.138-.177c3.671 16.411 8.165 31.289 12.414 45.32 8.934 29.534 17.406 57.462 15.659 90.561a82.654 82.654 0 0 1-3.042 18.279 85.636 85.636 0 0 1-1.813 5.621c-6.96 19.326-21.131 37.169-41.897 52.492-13.963 10.315-27.595 17.133-35.82 20.775 5.028.954 12.134 1.917 20.212 1.917 7.991 0 15.642-.938 22.715-2.768 3.735-.977 7.2-1.901 10.43-2.767 15.57-4.18 25.851-6.928 37.54-6.928 1.184 0 2.376.035 3.586.1V24.539c-8.535 13.356-31.194 52.17-41.913 102.969a280.122 280.122 0 0 0-2.304 12.286Z" fill="#00903B"/><path d="M67.494 229.898c6.331-.656 11.946-1.089 15.734-1.089 1.21 0 2.203.046 3.007.121 4.643.504 8.077 1.545 10.567 2.679-.45-2.88-1-6.698-1.512-11.28-1.565-12.142-2.49-25.11-2.49-39.139 0-10.449.666-20.653 1.867-30.524.131-1.073.263-2.146.406-3.212.156-1.406.302-2.806.475-4.238-.89.214-1.948.497-3.128.852-5.806 1.747-14.849 5.401-24.597 12.923-14.816 11.43-34.187 34.294-43.509 78.665 7.245-1.115 23.447-3.521 37.731-5.163 1.86-.214 3.68-.412 5.449-.595Z" fill="#00903B"/><path d="M399.552 93.147v323.071c48.462-37.54 79.641-95.992 79.641-161.537 0-65.556-31.179-123.999-79.641-161.534ZM297.441 127.52c0 8.697 2.008 15.368 6.047 20.016 2.587 2.969 5.904 4.976 9.936 6.041V98.421c-3.916 1.237-7.161 3.427-9.718 6.599-4.178 5.181-6.265 12.657-6.265 22.5Z" fill="#FCCB00"/><path d="M313.424 281.093v-21.876l2.359-.001h14.868l-14.868-33.709-1.192-2.702-1.167 2.505v-49.782c-18.348-.74-32.75-4.926-43.19-12.625-11.568-8.486-17.348-20.553-17.348-36.141 0-15.874 5.969-28.284 17.919-37.172 10.513-7.823 24.688-12.211 42.619-13.157V53.808a207.97 207.97 0 0 0-40.823-4.026c-13.892 0-27.447 1.37-40.567 3.978v401.846a208.46 208.46 0 0 0 40.567 3.983c13.971 0 27.63-1.392 40.823-4.032v-75.928l2.359-.001h14.868l-14.868-33.714-1.192-2.703-1.167 2.506v-64.624ZM145.84 416.382l.043.034V92.949c-.015.01-.029.022-.043.033v323.4ZM105.856 249.467l.138.177-2.151-9.745a317.146 317.146 0 0 1-3.328-20.784c-1.796-15.957-3.317-41.362-.142-71.014.372-2.8.798-5.564 1.25-8.307-.234.342-.465.689-.698 1.033-.195.29-.392.577-.586.868a202.533 202.533 0 0 0-5.672 8.971 252.65 252.65 0 0 0-1.866 30.524c0 14.029.924 26.997 2.489 39.139.512 4.582 1.063 8.4 1.512 11.28-2.49-1.134-5.924-2.175-10.567-2.679a32.78 32.78 0 0 0-3.007-.121c-3.788 0-9.403.433-15.734 1.089-.22 1.805-.411 3.62-.584 5.44a204.572 204.572 0 0 0-.927 19.343c0 56.435 23.151 107.605 60.498 144.697a205.418 205.418 0 0 0 4.406 4.249 82.741 82.741 0 0 0 3.042-18.279c1.747-33.099-6.725-61.027-15.659-90.561-4.251-14.03-8.743-28.909-12.414-45.32Z" fill="#FCCB00"/><path d="M188.267 452.491a68.38 68.38 0 0 1-5.007-7.18 63.74 63.74 0 0 1-.976-1.656c-.165-.287-.331-.572-.492-.862a76.09 76.09 0 0 1-1.531-2.913 82.33 82.33 0 0 1-1.232-2.565c-5.987-13.069-9.647-29.816-11.4-51.898-1.874-23.863 3.81-47.479 10.39-74.827 7.9-32.793 17.723-73.599 17.723-129.494 0-43.844-9.632-80.098-20.5-107.083a272.792 272.792 0 0 0-2.058-4.972c-9.673-22.716-19.895-38.174-24.951-45.144V472.22c8.938.721 19.042 3.067 32.407 7.456 13.331 4.372 26.541 6.592 39.268 6.592 9.728 0 17.456-1.313 22.775-2.618-24.668-7.446-42.334-16.018-54.416-31.159Z" fill="#FCCB00"/><path d="M232.034 455.606V53.76a207.873 207.873 0 0 1 40.567-3.978 207.97 207.97 0 0 1 40.823 4.026v22.625c-17.933.947-32.105 5.334-42.619 13.157-11.95 8.888-17.919 21.298-17.919 37.172 0 15.588 5.78 27.655 17.348 36.141 10.44 7.698 24.841 11.884 43.19 12.625v23.447l-15.595-.001-51.916 100.209h33.63l8.084-18.09h25.797v38.291h-15.595l-51.916 100.203h33.63l8.084-18.083 25.797.001v54.052a207.955 207.955 0 0 1-40.823 4.032 208.46 208.46 0 0 1-40.567-3.983Zm-12.126 30.662c-12.726 0-25.938-2.219-39.268-6.592-13.366-4.389-23.47-6.736-32.407-7.456V23.897c5.055 6.969 15.278 22.427 24.951 45.144.69 1.62 1.376 3.278 2.058 4.972 10.869 26.984 20.5 63.238 20.5 107.083 0 55.895-9.823 96.701-17.723 129.494-6.579 27.347-12.265 50.964-10.39 74.827 1.752 22.083 5.413 38.828 11.4 51.898.4.871.811 1.726 1.232 2.565a77.46 77.46 0 0 0 1.531 2.913c.161.29.327.575.492.862.32.56.645 1.111.976 1.656a68.38 68.38 0 0 0 5.007 7.18c12.082 15.141 29.748 23.713 54.416 31.159-5.319 1.305-13.047 2.618-22.775 2.618Zm9.754-432.02v400.873a205.572 205.572 0 0 1-42.474-13.888c-7.751-13.375-12.25-31.368-14.211-56.24-1.84-23.007 3.76-46.239 10.247-73.144 7.962-33.076 17.866-74.223 17.866-130.752 0-46.075-10.505-83.6-20.983-109.59a205.74 205.74 0 0 1 49.555-17.258Zm83.762 99.329c-4.032-1.065-7.349-3.072-9.936-6.041-4.039-4.648-6.047-11.319-6.047-20.016 0-9.843 2.087-17.319 6.265-22.5 2.557-3.171 5.801-5.364 9.718-6.599v55.156Zm2.359 71.93 14.868 33.709h-14.868l-2.359.001h-15.798l15.798-33.907 1.167-2.505 1.192 2.702Zm-2.359 154.122-15.798-.001 15.798-33.911 1.167-2.506 1.192 2.703 14.868 33.714h-14.868l-2.359.001Zm2.359-204.014c1.206.028 2.426.045 3.664.045 21.304 0 37.271-3.332 47.962-10.026 10.679-6.689 16.023-16.713 16.023-30.008v-.382h-40.988c0 5.873-1.936 10.56-5.875 14.048-3.424 3.024-7.887 4.727-13.348 5.107-.78.053-1.582.081-2.402.081a30.99 30.99 0 0 1-5.036-.4V97.816a29.438 29.438 0 0 1 5.956-.589c5.906 0 10.632 1.663 14.242 4.959 3.578 3.328 5.746 8.047 6.463 14.176h40.988c-.661-13.013-6.35-22.949-16.96-29.827-10.67-6.879-25.815-10.3-45.454-10.3-1.783 0-3.52.041-5.235.102V54.305a206.38 206.38 0 0 1 81.399 37.044v326.682c-23.665 17.798-51.325 30.666-81.399 37.039v-53.566h23.889l7.559 18.083h37.351l-49.523-100.203h-19.276v-38.292l23.889.001 7.559 18.09h37.351l-49.523-100.209h-19.276v-23.359Zm83.769-82.468c48.462 37.535 79.641 95.978 79.641 161.534 0 65.545-31.179 123.997-79.641 161.537V93.147Zm-253.712-.165V472.07c-1.21-.065-2.402-.1-3.586-.1-11.689 0-21.97 2.748-37.54 6.928-3.231.866-6.694 1.791-10.43 2.767-7.073 1.83-14.724 2.768-22.715 2.768-8.078 0-15.184-.963-20.213-1.917 8.226-3.642 21.858-10.46 35.82-20.775 20.767-15.323 34.938-33.166 41.898-52.492a85.636 85.636 0 0 0 1.813-5.621 82.741 82.741 0 0 0 3.042-18.279c1.747-33.099-6.725-61.027-15.659-90.561-4.249-14.031-8.743-28.909-12.414-45.32l.138.177-2.151-9.745a317.146 317.146 0 0 1-3.328-20.784c-1.796-15.957-3.317-41.362-.142-71.014.372-2.8.798-5.564 1.25-8.307a280.122 280.122 0 0 1 2.304-12.286c10.719-50.8 33.378-89.613 41.913-102.969v68.443ZM65.983 254.681c0-6.524.322-12.973.927-19.343 6.626-.706 12.494-1.181 16.318-1.181 1.002 0 1.823.03 2.462.099 8.26.874 11.681 3.72 12.502 4.532 4.017 21.37 9.694 40.106 14.964 57.545 8.813 29.09 17.123 56.564 15.431 88.73a77.518 77.518 0 0 1-2.106 14.315c-37.347-37.092-60.498-88.262-60.498-144.697Zm-41.669-19.025c9.322-44.371 28.693-67.235 43.51-78.665 9.746-7.523 18.79-11.176 24.596-12.923a58.151 58.151 0 0 1 3.128-.852c-.173 1.432-.32 2.832-.475 4.238a269.147 269.147 0 0 0-.406 3.212 252.887 252.887 0 0 0-1.866 30.524c0 14.029.924 26.997 2.489 39.139.512 4.582 1.063 8.4 1.512 11.28-2.49-1.134-5.924-2.175-10.567-2.679a32.78 32.78 0 0 0-3.007-.121c-3.788 0-9.403.433-15.734 1.089-1.769.183-3.59.381-5.449.595-14.284 1.642-30.486 4.048-37.73 5.163Zm468.599 19.025c0-120.554-98.833-218.632-220.311-218.632-31.5 0-61.896 6.476-90.39 19.252-13.265-28.57-26.194-43.862-26.739-44.499L146.341 0l-8.342 11.553c-3.684 5.253-36.148 52.953-48.697 119.099-7.309 2.069-17.988 6.361-29.522 15.21-17.228 13.144-39.829 39.585-49.704 90.909l-2.99 15.452 15.63-2.432c.137-.018 14.496-2.272 29.728-4.269a221.04 221.04 0 0 0-.193 9.159c0 57.454 22.307 111.633 62.853 152.733-17.655 43.449-73.83 64.494-76.224 65.376L7.9 483.848l31.535 9.954c2.418.725 15.348 4.355 32.134 4.355 9.16 0 17.963-1.081 26.157-3.215a869.329 869.329 0 0 0 7.042-1.849l3.642-.962c14.431-3.867 23.966-6.424 33.845-6.424 8.899 0 19.098 2.095 34.092 7.011 14.679 4.833 29.337 7.282 43.562 7.282 21.729 0 35.078-5.783 36.551-6.458l27.391-12.631-29.09-8.078c-.393-.103-.778-.216-1.161-.32 6.293.536 12.643.804 19.003.804 121.478 0 220.311-98.078 220.311-218.636Z" fill="#231F20"/><path d="M132.103 75.247c3.093 0 5.611-2.522 5.611-5.627 0-3.099-2.518-5.606-5.611-5.606-3.102 0-5.625 2.507-5.625 5.606a5.63 5.63 0 0 0 5.625 5.627Z" fill="#231F20"/></svg>