<svg xmlns="http://www.w3.org/2000/svg" width="500" height="500" fill="none"><path fill="#fff" fill-rule="evenodd" d="M349.68 218.53H153.555v135.601H349.68V218.53Zm-165.017 8.127h156.903v100.752L184.663 226.657Zm-22.995 19.669v99.766h154.517l-154.517-99.766ZM189.005 207.929v-13.692h4.145l2.469 9.364 2.381-9.364h4.145v13.692h-2.557v-10.777l-2.734 10.777h-2.646l-2.645-10.777v10.777h-2.558ZM206.466 207.929v-13.692h10.142v2.296h-7.32v3.092h6.791v2.297h-6.791v3.71h7.584v2.297h-10.406ZM220.84 207.929v-13.692h2.646l5.644 9.187v-9.187h2.557v13.692h-2.822l-5.467-9.01v9.01h-2.558ZM235.479 203.512l2.734-.265c.088.795.441 1.414.97 1.944.529.442 1.235.707 1.94.618.706.089 1.411-.176 2.029-.53.441-.353.705-.795.705-1.325 0-.265-.088-.618-.264-.795-.265-.265-.618-.53-.97-.618-.353-.089-1.059-.354-2.205-.619-1.147-.176-2.205-.706-3.087-1.325a3.626 3.626 0 0 1-1.234-2.738c0-.707.176-1.414.617-1.944.441-.618.97-1.06 1.676-1.413.881-.354 1.763-.53 2.733-.442 1.411-.088 2.734.265 3.881 1.149.881.795 1.322 1.855 1.322 3.003l-2.733.088c-.089-.618-.353-1.148-.794-1.501-.529-.354-1.147-.53-1.764-.442-.705-.088-1.323.088-1.852.53-.264.177-.441.53-.441.883 0 .354.177.619.441.795.794.442 1.676.795 2.558.884 1.058.176 2.028.53 2.998.972.617.353 1.146.795 1.499 1.413.794 1.413.706 3.003-.088 4.417-.441.707-1.058 1.237-1.852 1.502a8.58 8.58 0 0 1-2.998.53 5.917 5.917 0 0 1-3.969-1.237c-1.146-.972-1.763-2.209-1.852-3.534ZM256.644 203.512l2.734-.265c.088.795.441 1.414.97 1.944a2.667 2.667 0 0 0 2.028.618c.706.089 1.411-.176 2.028-.53.441-.353.706-.795.706-1.325 0-.265-.088-.618-.265-.795-.264-.265-.617-.53-.97-.618-.352-.089-1.058-.354-2.204-.619-1.147-.176-2.205-.706-3.087-1.325a3.623 3.623 0 0 1-1.234-2.738c0-.707.176-1.414.617-1.944.441-.618.97-1.06 1.675-1.413.882-.354 1.764-.53 2.734-.442 1.411-.088 2.734.265 3.88 1.149.882.795 1.323 1.855 1.323 3.003l-2.734.088c-.088-.618-.352-1.148-.793-1.501-.529-.354-1.147-.53-1.764-.442-.617 0-1.323.088-1.852.53-.265.177-.441.53-.441.883 0 .354.176.619.441.795.794.442 1.676.795 2.557.884 1.059.176 2.029.53 2.999.972.617.353 1.146.795 1.499 1.413.794 1.413.705 3.003-.088 4.417-.441.707-1.059 1.237-1.852 1.502-.97.353-1.94.53-2.999.53a5.916 5.916 0 0 1-3.968-1.237c-1.234-.972-1.852-2.209-1.94-3.534ZM283.981 207.929h-2.998l-1.146-3.18h-5.468l-1.146 3.092h-2.911l5.292-13.693h2.91l5.467 13.781Zm-5.114-5.388-1.852-5.036-1.852 5.036h3.704ZM286.979 207.929v-13.692h2.734l5.556 9.187v-9.187h2.557v13.692h-2.733l-5.556-9.01v9.01h-2.558ZM314.67 207.929h-2.999l-1.146-3.18h-5.468l-1.146 3.092h-2.91l5.291-13.693h2.91l5.468 13.781Zm-5.027-5.388-1.94-5.036-1.852 5.036h3.792Z" clip-rule="evenodd"/><path fill="#fff" d="M246.591 364.555h-2.734v13.692h2.734v-13.692Z"/><path fill="#fff" fill-rule="evenodd" d="M249.236 378.247v-13.692h2.646l5.644 9.187v-9.187h2.557v13.692h-2.734l-5.555-9.01v9.01h-2.558ZM190.946 401.127l1.94 2.032a6.406 6.406 0 0 1-3.44 1.943c-2.998.265-5.908-1.59-6.702-4.505-.441-1.855-.088-3.71.882-5.3.794-1.767 2.293-3.092 4.057-3.799 1.675-.53 3.439-.353 4.938.53 1.323.707 2.381 1.855 2.822 3.269a5.444 5.444 0 0 1 0 2.915l-2.734-.707c.441-1.325-.176-2.738-1.411-3.357-.793-.441-1.852-.53-2.733-.176-1.147.53-2.029 1.501-2.558 2.738-.705 1.06-1.058 2.385-.882 3.71.177.884.794 1.679 1.588 2.12a2.697 2.697 0 0 0 2.028.266c1.058-.442 1.764-.972 2.205-1.679ZM195.266 401.215a8.395 8.395 0 0 1 1.94-3.003 5.612 5.612 0 0 1 1.941-1.237c.705-.265 1.411-.442 2.116-.442.97 0 2.028.265 2.91.619 1.676.618 2.998 1.943 3.704 3.622 1.058 3.798-.706 7.774-4.057 9.629-3.527 1.236-7.319-.442-8.906-3.799-.618-1.767-.529-3.71.352-5.389Zm2.734 1.06a4.757 4.757 0 0 0-.353 3.622 3.69 3.69 0 0 0 4.762 2.209c.089 0 .177-.088.265-.088 1.146-.619 1.94-1.679 2.381-2.916.529-1.06.705-2.385.441-3.622-.353-.971-1.058-1.766-2.028-2.12a3.564 3.564 0 0 0-2.999 0c-1.234.707-2.116 1.679-2.469 2.915ZM206.907 413.318l3.528-13.251 5.644 1.502c1.058.265 2.028.618 2.998 1.148.617.442.97.972 1.234 1.679a4.657 4.657 0 0 1 0 2.208c-.176.884-.793 1.679-1.499 2.209-.882.53-1.94.706-2.91.53.441.441.794.971 1.147 1.502.352.795.705 1.678.881 2.561l.882 3.004-3.174-.883-1.147-3.357c-.264-.795-.529-1.59-.882-2.297-.176-.265-.352-.53-.617-.795a4.147 4.147 0 0 0-1.323-.53l-.529-.177-1.411 5.477-2.734-.707-.088.177Zm4.674-6.979 1.94.53c.794.265 1.587.442 2.469.442.353 0 .618-.177.882-.353.265-.265.441-.53.529-.884.088-.353.089-.795-.088-1.148-.176-.354-.529-.619-.882-.795-.176-.089-.882-.265-1.94-.53l-2.116-.53-.794 3.268ZM220.223 416.94l2.205-13.516 4.321.707c1.058.088 2.116.353 3.175.706.705.354 1.322.884 1.675 1.679.441.883.529 1.855.353 2.738a4.46 4.46 0 0 1-.794 2.032c-.353.442-.794.883-1.323 1.148-.441.265-.97.354-1.499.442-.97 0-1.94-.088-2.822-.265l-1.763-.265-.794 5.124-2.734-.53Zm4.586-10.778-.618 3.887 1.5.265c.705.177 1.411.177 2.204.089.353-.089.706-.265.97-.53.265-.265.441-.619.529-.972.089-.442 0-.884-.264-1.325a2.745 2.745 0 0 0-.97-.795c-.617-.177-1.323-.354-1.94-.442l-1.411-.177ZM232.569 412.523c.089-1.237.353-2.385.882-3.445.353-.707.794-1.325 1.411-1.767.529-.53 1.147-.883 1.852-1.148.97-.354 1.94-.442 2.998-.354 1.852 0 3.528.884 4.674 2.209 2.205 3.18 1.94 7.509-.705 10.424-2.91 2.297-7.055 2.032-9.612-.619-1.147-1.59-1.676-3.445-1.5-5.3Zm2.91.088c-.176 1.237.089 2.562.882 3.622 1.235 1.59 3.616 1.855 5.203.53.088-.088.177-.088.177-.176.882-.972 1.322-2.209 1.322-3.534.177-1.237-.088-2.562-.793-3.622-1.411-1.59-3.792-1.767-5.38-.442l-.088.089c-.97.971-1.411 2.208-1.323 3.533ZM247.561 420.385l-.441-13.693 5.82-.176a9.66 9.66 0 0 1 3.175.265c.705.176 1.234.707 1.587 1.237.441.618.617 1.325.705 2.12.089.883-.264 1.855-.793 2.562-.706.795-1.676 1.236-2.734 1.325a5.788 5.788 0 0 1 1.499 1.06c.617.706 1.147 1.413 1.587 2.208l1.764 2.65-3.263.089-2.028-2.915c-.441-.707-.97-1.326-1.499-1.944-.265-.265-.529-.442-.882-.53-.441-.088-.97-.177-1.411-.088h-.529l.176 5.742-2.733.088Zm2.469-7.95 2.028-.089c.794 0 1.676-.088 2.469-.265.353-.088.618-.353.794-.618.176-.354.264-.707.264-1.06 0-.442-.088-.795-.352-1.06-.265-.265-.618-.442-1.059-.53h-2.028l-2.116.088v3.534ZM261.317 420.032l-1.763-13.516 10.053-1.325.264 2.296-7.319.972.441 3.004 6.79-.884.265 2.297-6.79.884.529 3.621 7.495-.971.353 2.297-10.318 1.325ZM277.456 413.318l2.557-.883a3.319 3.319 0 0 0 1.411 1.678c.617.353 1.411.353 2.117.177a2.726 2.726 0 0 0 1.763-.972c.353-.442.441-.883.353-1.413-.088-.265-.265-.531-.441-.796-.353-.176-.705-.353-1.058-.353-.353 0-1.058-.088-2.293-.088-1.146.088-2.293-.177-3.351-.619-.97-.53-1.587-1.325-1.852-2.385-.176-.706-.088-1.413.088-2.032.265-.706.706-1.325 1.323-1.766.794-.53 1.587-.884 2.469-1.06a5.154 5.154 0 0 1 3.969.265c1.058.53 1.763 1.501 2.028 2.65l-2.734.707c-.176-.531-.529-1.061-1.058-1.326-.529-.265-1.235-.265-1.764-.088-.617.088-1.234.442-1.675.883-.177.265-.353.619-.265.884.088.265.265.618.617.707.882.265 1.764.353 2.734.353 1.058 0 2.117.088 3.087.265.705.177 1.322.53 1.763.972.529.53.882 1.236 1.059 2.031.176.796.088 1.591-.089 2.297-.264.795-.793 1.414-1.411 1.855-.881.53-1.763.972-2.733 1.149-1.323.442-2.822.353-4.145-.265a4.367 4.367 0 0 1-2.469-2.827ZM303.118 410.403l-2.822.971-2.117-2.561-5.203 1.766-.088 3.357-2.734.972.618-14.664 2.733-.972 9.613 11.131Zm-6.526-3.534-3.439-4.152-.089 5.389 3.528-1.237ZM304.44 409.784l-5.644-12.455 2.381-1.061 8.907 5.919-3.792-8.304 2.381-1.06 5.644 12.456-2.469 1.148-8.819-5.83 3.792 8.127-2.381 1.06ZM313.083 398.477a8.515 8.515 0 0 1-1.235-3.357c-.088-.795 0-1.502.176-2.297.177-.707.441-1.413.882-1.943.618-.795 1.411-1.502 2.293-1.944 1.499-.971 3.351-1.325 5.115-.795a8.446 8.446 0 0 1 5.291 9.011c-1.058 3.533-4.674 5.654-8.289 4.858-1.94-.618-3.44-1.855-4.233-3.533Zm2.381-1.59c.529 1.148 1.499 2.032 2.733 2.473.97.354 2.117.177 2.999-.353.882-.53 1.587-1.413 1.763-2.385.177-1.237-.176-2.562-.881-3.622-.53-1.149-1.5-2.032-2.734-2.474-.97-.353-2.117-.176-2.91.354-.882.53-1.588 1.413-1.764 2.385-.265 1.325 0 2.65.794 3.622Z" clip-rule="evenodd"/><path fill="#fff" fill-rule="evenodd" d="M250.824 481.781c105.199 0 190.481-85.43 190.481-190.813 0-105.383-85.282-190.813-190.481-190.813-105.2 0-190.481 85.43-190.481 190.813 0 105.383 85.281 190.813 190.481 190.813Zm.352-50.177c77.78 0 140.833-63.162 140.833-141.078 0-77.915-63.053-141.077-140.833-141.077-77.779 0-140.832 63.162-140.832 141.077 0 77.916 63.053 141.078 140.832 141.078ZM91.913 293.883c0 3.357-2.733 6.096-6.084 6.096-3.352 0-6.085-2.739-6.085-6.096s2.733-6.095 6.085-6.095c3.35 0 6.084 2.738 6.084 6.095Zm-6.085-6.36a6.328 6.328 0 0 1 6.35 6.36 6.329 6.329 0 0 1-6.35 6.361 6.329 6.329 0 0 1-6.349-6.361c0-1.678.706-3.268 1.852-4.505 1.234-1.237 2.822-1.855 4.497-1.855Zm4.145 2.208c-2.293-2.296-5.996-2.296-8.201 0-2.205 2.297-2.293 6.008 0 8.216 2.293 2.297 5.996 2.297 8.201 0 1.058-1.06 1.676-2.562 1.676-4.152a5.833 5.833 0 0 0-1.676-4.064Zm334.664 3.976c0 3.357-2.733 6.095-6.084 6.095-3.351-.088-6.085-2.738-6.085-6.095 0-3.357 2.734-6.096 6.085-6.096s6.084 2.739 6.084 6.096Zm-6.085-6.361a6.329 6.329 0 0 1 6.35 6.361 6.329 6.329 0 0 1-6.35 6.36 6.328 6.328 0 0 1-6.349-6.36c0-1.679.706-3.269 1.852-4.506a6.265 6.265 0 0 1 4.497-1.855Zm4.145 2.209c-2.293-2.297-5.908-2.297-8.201 0s-2.293 5.918 0 8.215c2.293 2.297 5.908 2.297 8.201 0a5.832 5.832 0 0 0 1.676-4.063c0-1.591-.618-3.092-1.676-4.152ZM86.534 356.781l1.763 4.77 18.431-16.873-1.763-4.682-24.869-.353 1.764 4.682h5.644l3.263 8.746-4.233 3.71Zm14.286-12.544-6.879 6.007-2.293-6.007h9.172Zm-8.995 24.911 20.282-11.307 4.762 8.657a17.993 17.993 0 0 1 2.117 5.035c.176 1.149-.088 2.386-.617 3.446a6.811 6.811 0 0 1-2.734 2.738c-1.323.795-2.91 1.06-4.498.795a7.106 7.106 0 0 1-4.144-3.003c0 1.06-.177 2.12-.529 3.092-.53 1.413-1.235 2.826-2.029 4.152l-2.557 4.681-2.558-4.858 2.822-5.389c.601-1.053 1.074-2.169 1.527-3.241l.002-.004.006-.014.142-.334.087-.205c.177-.531.265-1.149.177-1.679-.177-.795-.53-1.502-.882-2.208l-.441-.884-8.554 4.682-2.381-4.152Zm14.021-2.385 1.676 3.004a18.649 18.649 0 0 0 2.293 3.533c.441.354.97.619 1.499.707.617.088 1.234-.088 1.763-.442.618-.353 1.059-.795 1.323-1.413.177-.619.177-1.325-.088-1.944-.088-.176-.264-.506-.527-1.002l-.002-.002v-.001c-.265-.497-.617-1.159-1.058-1.998l-1.764-3.18-5.115 2.738Zm17.549 28.357-3.086 2.385 3.263 4.594-2.293 1.767c-.97-.265-1.94-.619-2.734-1.149-.882-.53-1.675-1.148-2.293-1.943-1.146-1.502-1.675-3.357-1.323-5.124.353-1.855 1.588-3.622 3.792-5.3 1.94-1.59 3.881-2.297 5.644-2.121 1.852.177 3.44 1.149 4.498 2.651.793.883 1.234 2.031 1.323 3.268.088 1.149-.265 2.209-.971 3.092l3.616 3.18a8.648 8.648 0 0 0 2.028-5.565c0-2.032-.97-4.152-2.733-6.449-1.147-1.59-2.646-2.827-4.321-3.71-1.941-.972-4.057-1.237-6.173-.883-2.205.353-4.233 1.325-5.997 2.738a13.608 13.608 0 0 0-4.057 4.859c-.97 1.855-1.234 3.887-.97 5.918.441 2.121 1.323 4.241 2.734 5.919a14.905 14.905 0 0 0 4.321 3.799c1.411.883 2.91 1.502 4.586 1.767l7.319-5.743-6.173-7.95Zm3.616 22.88 15.079-17.668 13.052 11.219-2.557 2.915-9.436-8.039-3.351 3.887 8.818 7.509-2.557 3.004-8.819-7.509-4.056 4.77 9.788 8.392-2.557 3.004L127.011 418Zm33.334-2.12-12.258 19.788 3.704 2.297 8.025-12.986v17.933l3.968 2.473 12.258-19.699-3.704-2.297-8.201 13.251.088-18.287-3.88-2.473Zm17.814 36.66 7.584-17.756-6.262-2.738 1.5-3.534 16.931 7.244-1.499 3.622-6.349-2.739-7.584 17.757-4.321-1.856Zm18.952 7.208 7.278-22.06 4.438 1.469-7.278 22.06-4.438-1.469Zm14.382 4.188 3.968-22.88 4.497.795 6.791 16.962 2.645-15.371 4.233.795-3.968 22.879-4.586-.795-6.702-16.696-2.557 15.106-4.321-.795Zm28.837-13.074c-.706 1.944-1.059 3.975-.97 6.007 0 3.71 1.058 6.626 3.262 8.657 4.762 4.152 11.817 4.064 16.403-.265 2.028-2.12 2.998-5.035 2.91-8.834-.088-3.798-1.146-6.713-3.263-8.834-2.204-2.208-5.203-3.268-8.289-3.091-1.676 0-3.351.265-4.939.971-1.146.442-2.204 1.237-2.998 2.12a11.561 11.561 0 0 0-2.116 3.269Zm5.732 11.749c-1.235-1.413-1.94-3.357-1.94-6.007 0-2.65.529-4.682 1.675-5.919a6.338 6.338 0 0 1 4.674-2.031c1.764-.089 3.439.53 4.674 1.855 1.234 1.236 1.763 3.18 1.852 5.918.088 2.651-.441 4.682-1.676 6.096l-.353.353c-2.557 2.385-6.525 2.297-8.906-.265Zm27.425-3.887c.353 1.237 1.147 2.297 2.205 3.092 1.058.619 2.293.795 3.527.53 1.235-.088 2.293-.618 3.175-1.502.617-.618.882-1.501.794-2.385a2.438 2.438 0 0 0-.706-1.325c-.529-.353-1.146-.618-1.764-.707-.529-.088-1.851-.265-3.88-.353-1.94 0-3.88-.53-5.555-1.413-1.588-.972-2.558-2.474-2.822-4.329-.177-1.148 0-2.385.441-3.445.529-1.149 1.411-2.12 2.469-2.827 1.323-.795 2.822-1.325 4.409-1.59 2.822-.442 5.115-.177 6.79.883a7.005 7.005 0 0 1 3.175 4.682l-4.586.884a4.04 4.04 0 0 0-1.675-2.297 4.418 4.418 0 0 0-2.998-.265c-1.147.088-2.205.618-2.999 1.325a1.783 1.783 0 0 0-.529 1.59c.088.53.441.972.882 1.325.705.442 2.116.707 4.497.795 1.764.088 3.528.353 5.292.795 1.146.353 2.116 1.06 2.91 1.944 1.675 2.12 2.028 4.858 1.058 7.332-.529 1.325-1.499 2.385-2.734 3.092-1.499.883-3.174 1.413-4.85 1.678-2.91.442-5.203.177-6.967-.883-2.116-1.325-3.439-3.269-3.968-5.477l4.409-1.149Zm33.246-24.028-4.497 1.413 4.497 14.488c.529 1.767.706 3.004.529 3.71-.088.089-.176.265-.264.442-.97 1.237-2.734 1.502-4.057.53-.617-.707-1.146-1.59-1.411-2.473l-4.056 1.855c.793 2.297 1.94 3.975 3.527 4.77a7.353 7.353 0 0 0 5.644.177c1.675-.442 3.086-1.414 4.145-2.65a6.28 6.28 0 0 0 1.322-3.887c-.088-1.502-.352-3.004-.881-4.417l-4.498-13.958Zm6.79-3.092 4.233-2.12 5.556 11.396a32.829 32.829 0 0 0 1.852 3.445c.529.707 1.411 1.237 2.293 1.413 1.058.177 2.204 0 3.174-.618a5.137 5.137 0 0 0 2.293-2.032c.353-.707.441-1.59.177-2.297a26.496 26.496 0 0 0-1.588-3.622l-5.732-11.484 4.233-2.12 5.379 10.954c.971 1.767 1.676 3.534 2.293 5.477a6.82 6.82 0 0 1 0 3.269c-.264 1.06-.882 2.12-1.587 2.915-1.058 1.06-2.293 2.032-3.704 2.65-1.499.795-3.175 1.325-4.85 1.59-1.146.089-2.293-.088-3.351-.618-.882-.353-1.676-.972-2.293-1.767-1.146-1.59-2.205-3.268-2.998-5.124l-5.38-11.307Zm21.783-11.484 14.198 18.375 3.439-2.739-9.348-12.014 16.755 6.272 3.704-2.915-14.198-18.375-3.439 2.739 9.524 12.279-17.108-6.449-3.527 2.827Zm24.166-20.252-3.392 3.22 15.952 16.865 3.392-3.22-15.952-16.865Zm9.697-1.214c1.058 1.766 2.381 3.268 4.056 4.505 2.91 2.297 5.821 3.269 8.731 3.004 3.086-.354 5.82-2.032 7.584-4.506 2.028-2.297 2.91-5.388 2.557-8.392-.353-2.915-2.028-5.477-5.027-7.862-2.998-2.385-5.996-3.357-8.906-3.092-3.087.353-5.82 2.032-7.584 4.505-1.058 1.325-1.94 2.827-2.381 4.506a9.932 9.932 0 0 0-.177 3.621c.177 1.326.53 2.562 1.147 3.711Zm12.699 2.827c-1.852.088-3.792-.707-5.821-2.297-2.116-1.59-3.263-3.357-3.703-5.212v-.177c-.353-3.534 2.204-6.802 5.82-7.155 1.763-.089 3.615.618 5.732 2.296 2.116 1.679 3.263 3.446 3.615 5.212.089.177.089.354.089.53.352 3.534-2.293 6.538-5.732 6.803Zm19.4-17.05-20.283-11.396 4.851-8.657c.793-1.678 1.851-3.092 3.174-4.417.882-.795 2.029-1.237 3.263-1.325 1.323-.088 2.558.265 3.704.883 1.411.707 2.469 1.944 2.998 3.446.441 1.678.353 3.445-.353 5.035.882-.53 1.852-.972 2.911-1.237 1.499-.265 3.086-.441 4.585-.441l5.291-.266-2.733 4.859-6.085.442a34.573 34.573 0 0 0-4.233.53 2.774 2.774 0 0 0-1.499.795 7.864 7.864 0 0 0-1.411 1.943l-.441.884 8.466 4.77-2.205 4.152Zm-9.348-10.601 1.676-3.003c.794-1.237 1.323-2.474 1.764-3.799.088-.53 0-1.148-.177-1.59a2.591 2.591 0 0 0-1.323-1.237c-.617-.353-1.322-.53-1.94-.353a3.062 3.062 0 0 0-1.675 1.06c-.15.2-.384.597-.735 1.193l-.001.003c-.27.457-.607 1.03-1.028 1.719l-1.764 3.18 5.203 2.827Zm16.315-21.466L407 356.781c2.117.706 4.498.441 6.614-.619 1.852-1.06 3.263-2.915 4.321-5.653.618-1.59.97-3.269.97-5.036 0-1.413-.529-2.738-1.322-3.887-1.588-2.12-4.233-3.18-6.879-2.827a6.908 6.908 0 0 0-3.086 1.591 25.491 25.491 0 0 0-3.351 4.152c-1.323 1.943-2.293 3.091-2.999 3.445-.529.353-1.058.353-1.587.176-.529-.265-.97-.706-1.058-1.236-.265-1.06-.088-2.209.352-3.269a4.477 4.477 0 0 1 1.764-2.473c.97-.442 1.94-.53 2.91-.265l1.499-4.417c-1.851-.707-3.88-.53-5.643.353-1.764.972-3.087 2.739-4.145 5.477-.617 1.414-.882 2.915-.882 4.505 0 1.237.441 2.474 1.146 3.534a6.042 6.042 0 0 0 7.849 1.767 11.194 11.194 0 0 0 4.056-4.064c1.147-1.59 1.941-2.65 2.293-3.092.353-.53.882-.971 1.499-1.236.53-.089 1.059-.089 1.5.088.793.265 1.411.972 1.675 1.855.265 1.237.177 2.473-.353 3.534a4.745 4.745 0 0 1-2.204 2.826c-1.147.53-2.469.707-3.704.354Zm-305.828-103.71-1.058 4.947-5.556.883-2.028 9.099 4.762 3.003-1.058 4.859-20.635-13.869 1.058-4.859 24.515-4.063Zm-10.758 6.448-9.083 1.237 7.76 4.947 1.323-6.184Zm6.701-19.611-1.146 4.417c2.205.707 4.497.53 6.79-.442 1.764-1.06 3.175-2.915 4.233-5.653.617-1.591.97-3.269.97-5.036 0-1.413-.529-2.827-1.323-3.887-1.587-2.12-4.232-3.18-6.878-2.827a6.897 6.897 0 0 0-3.087 1.591c-1.234 1.325-2.38 2.738-3.35 4.24-1.323 1.943-2.293 3.092-2.999 3.445-.529.265-1.058.353-1.587.177a2.088 2.088 0 0 1-1.058-1.237c-.265-1.06-.089-2.208.352-3.269a4.478 4.478 0 0 1 1.764-2.473c.882-.442 1.852-.53 2.822-.265l1.41-4.505c-1.763-.707-3.791-.53-5.555.353-1.763.883-3.086 2.739-4.144 5.477-.618 1.502-.882 3.004-.882 4.594 0 1.236.44 2.473 1.146 3.533a6.04 6.04 0 0 0 7.849 1.767c1.587-1.06 2.998-2.473 3.968-4.152 1.146-1.678 1.94-2.738 2.293-3.18.352-.53.882-.972 1.499-1.237.529-.177 1.058-.177 1.499 0 .794.353 1.411.972 1.676 1.855.352 1.149.264 2.474-.265 3.534-.353 1.148-1.146 2.208-2.205 2.827-1.234.53-2.557.706-3.792.353Zm6.438-23.586c-1.764-.972-3.263-2.386-4.497-3.976-.706-1.06-1.235-2.297-1.588-3.533-.353-1.237-.44-2.474-.176-3.622a12.961 12.961 0 0 1 1.764-4.77c1.499-2.739 3.968-4.682 6.966-5.389 2.91-.619 5.909 0 9.172 1.943 3.262 1.944 5.203 4.329 5.908 7.156.705 3.003.176 6.095-1.499 8.657-1.499 2.739-3.969 4.682-6.967 5.389-2.91.706-5.908 0-9.083-1.855Zm2.381-4.241c2.293 1.325 4.233 1.855 6.085 1.502 1.764-.353 3.263-1.413 4.145-2.915a5.809 5.809 0 0 0 .617-4.947c-.529-1.679-1.94-3.269-4.233-4.682-2.293-1.414-4.321-1.944-5.997-1.59-1.763.353-3.263 1.413-4.056 3.003-.97 1.502-1.235 3.357-.706 5.036.441 1.678 1.852 3.18 4.145 4.593Zm32.541-34.894-4.145 2.385c.882 1.149 1.411 2.474 1.499 3.887-.088 1.149-.529 2.297-1.323 3.18-.97 1.149-2.557 1.856-4.144 1.767-1.676 0-3.704-1.148-5.733-3.003-2.028-1.855-3.174-3.622-3.351-5.212-.264-1.59.265-3.181 1.411-4.329.794-.883 1.764-1.502 2.91-1.678 1.147-.177 2.293 0 3.263.618l2.293-4.152c-1.411-.795-3.086-1.237-4.762-1.148-2.557.265-4.85 1.501-6.526 3.445a10.073 10.073 0 0 0-2.91 8.039c.265 2.915 1.852 5.742 4.674 8.304 2.646 2.473 5.468 3.71 8.378 3.622 2.822-.089 5.555-1.326 7.407-3.534a9.846 9.846 0 0 0 2.822-5.83 9.725 9.725 0 0 0-1.763-6.361Zm1.249-21.677-3.627 2.952 14.623 18.034 3.627-2.952-14.623-18.034Zm35.612 4.009 4.41-2.562-19.666-15.459-4.321 2.474 3.792 24.646 4.321-2.562-.97-5.477 8.025-4.682 4.409 3.622Zm-14.727-11.926 7.055 5.831-5.467 3.18-1.588-9.011Zm36.509-7.243 4.762-.354c.353 2.209 0 4.506-1.146 6.537-2.911 4.329-8.466 5.919-13.228 3.887-2.646-1.236-4.586-3.533-5.997-6.89-1.411-3.622-1.675-6.714-.529-9.452 1.058-2.739 3.351-4.947 6.085-5.919a9.553 9.553 0 0 1 7.319-.265c1.499.707 2.822 1.767 3.792 3.092l-3.88 2.738c-1.323-2.032-3.792-2.738-5.997-1.767-1.499.53-2.645 1.767-3.174 3.269-.529 1.59-.265 3.622.793 6.184 1.059 2.738 2.381 4.505 3.792 5.212 1.411.795 2.999.795 4.498.176 1.058-.441 2.028-1.236 2.557-2.296.441-1.325.618-2.739.353-4.152ZM209.2 117.76l4.553-1.058 5.242 22.632-4.553 1.058-5.242-22.632Zm17.196 8.102c-.176-2.032 0-4.063.618-6.007.441-1.237 1.058-2.297 1.94-3.357.793-.972 1.763-1.767 2.822-2.297 1.499-.795 3.174-1.148 4.938-1.236 2.998-.354 6.085.618 8.378 2.561 2.204 1.944 3.439 4.859 3.704 8.658.264 3.798-.53 6.802-2.381 9.01-4.322 4.594-11.376 5.036-16.315 1.149-2.204-1.944-3.439-4.771-3.704-8.481Zm4.851-.442c.176 2.651.881 4.594 2.204 5.831 1.235 1.237 2.999 1.855 4.762 1.678 1.764-.088 3.351-.971 4.41-2.385 1.058-1.413 1.587-3.445 1.41-6.184-.176-2.65-.881-4.593-2.204-5.83-2.646-2.385-6.79-2.12-9.171.53-.089.088-.089.088-.089.177-1.058 1.501-1.499 3.533-1.322 6.183Zm29.894-12.721-2.733 23.057 4.321.53 1.764-15.018 7.495 16.166 4.674.53 2.734-23.056-4.321-.53-1.852 15.459-7.584-16.607-4.498-.531Zm47.973 34.099-4.85-1.501-.353-5.654-8.818-2.827-3.439 4.505-4.762-1.501 15.608-19.435 4.762 1.502 1.852 24.911Zm-5.467-11.395-.441-9.188-5.556 7.244 5.997 1.944Zm23.193-1.414-8.466 17.315 4.145 2.12 8.554-17.315 6.085 3.004 1.763-3.534-16.579-8.127-1.675 3.534 6.173 3.003Zm8.818 26.767 13.845-18.463 3.704 2.827-11.464 15.283 9.348 6.979-2.381 3.18-13.052-9.806Zm36.068-.972-16.667 16.078 12.258 12.721 2.822-2.739-8.995-9.275 4.497-4.417 8.113 8.392 2.822-2.738-8.113-8.393 3.704-3.622 8.73 9.099 2.822-2.738-11.993-12.368Zm4.409 39.93 15.521-11.396-3.968-5.565 3.086-2.297 10.935 14.929-3.175 2.297-4.056-5.565-15.609 11.395-2.734-3.798Zm10.295 16.407 20.505-10.857 2.184 4.139-20.505 10.857-2.184-4.139Zm19.6 23.787.089 4.77c-2.293.265-4.498-.265-6.438-1.501a10.96 10.96 0 0 1-3.175-13.516c1.323-2.562 3.792-4.417 7.143-5.654 3.616-1.237 6.791-1.237 9.436-.088a10.1 10.1 0 0 1 5.556 6.448c.882 2.386.882 5.036-.176 7.333-.794 1.501-1.852 2.738-3.263 3.622l-2.558-4.064c2.029-1.149 2.91-3.71 2.117-5.919-.441-1.502-1.588-2.738-3.087-3.357-1.499-.618-3.615-.441-6.173.442-2.822.972-4.585 2.12-5.379 3.534a5.37 5.37 0 0 0-.441 4.505c.353 1.148 1.146 2.032 2.117 2.65 1.322.795 2.733 1.06 4.232.795Zm-1.587 31.361.882 5.035 21.341-13.251-.882-4.859-24.428-4.858.882 4.858 5.468.972 1.587 9.187-4.85 2.916Zm16.402-9.806-7.936 4.682-1.058-6.272 8.994 1.59ZM250.383 18.972l7.054 24.116h23.105L261.847 57.93l7.143 24.028-18.607-14.929-18.696 14.93 7.231-24.029-18.695-14.84h23.017l7.143-24.117ZM339.009 57.4l-1.234 14.399 12.346 4.858-13.14 3.975-1.235 14.4-6.79-11.926-13.14 4.064 8.907-11.396-6.878-11.926 12.346 4.947 8.818-11.396ZM412.203 98.742l-4.762 13.604 10.759 7.774-13.669.618-4.762 13.605-3.704-13.251-13.669.706 11.465-8.833-3.792-13.163 10.758 7.774 11.376-8.834ZM162.638 57.4l1.234 14.399-12.346 4.858 13.14 3.975 1.235 14.4 6.878-11.926 13.052 4.064-8.907-11.396 6.878-11.926-12.346 4.947-8.818-11.396ZM89.444 98.742l4.762 13.604-10.759 7.774 13.669.618 4.762 13.605 3.704-13.251 13.669.706-11.376-8.833 3.703-13.163-10.758 7.774-11.376-8.834Z" clip-rule="evenodd"/></svg>