<svg width="500" height="500" viewBox="0 0 500 500" fill="none" xmlns="http://www.w3.org/2000/svg">
<path d="M217.178 48.1675L145.395 79.2586L217.178 110.181V48.1675Z" fill="#13B5EA"/>
<path d="M89.4517 216.868V219.44C89.4517 219.44 120.155 241.966 103.71 296.906C103.71 296.906 92.6356 326.99 100.556 362.295L324.683 216.868H89.4517Z" fill="#13B5EA"/>
<path d="M172.253 148.993V126.843H112.281L89.5605 166.78H410.439L387.72 126.843H327.749V148.993H277.319V126.843H222.683V148.993H172.253Z" fill="#13B5EA"/>
<path d="M406.029 223.793L122.741 407.606C133.226 420.318 147.802 432.356 167.879 442.559C167.879 442.559 180.558 451.15 230.014 453.619C230.075 453.623 230.139 453.628 230.203 453.63H238.075V453.636C244.32 453.636 249.431 457.996 249.95 463.548H250.054C250.573 457.996 255.687 453.636 261.93 453.636V453.63H269.798C319.41 451.17 332.123 442.559 332.123 442.559C431.349 392.128 396.292 296.904 396.292 296.904C383.942 255.661 398.169 232.686 406.029 223.793Z" fill="#13B5EA"/>
<path d="M222.806 46.8072V121.384H277.191V49.2632L277.199 49.255V46.919L277.191 46.9163V46.8072L264.952 41.6949L249.998 35.45L234.548 41.9021L222.806 46.8072Z" fill="#13B5EA"/>
<path d="M282.749 48.1675L354.532 79.2586L282.749 110.181V48.1675Z" fill="#E73129"/>
<path d="M410.551 219.438L410.545 166.966L410.439 166.779H89.5607L89.4544 166.966L89.4517 216.867H324.683L100.554 362.294C103.875 377.091 110.532 392.806 122.74 407.606L406.03 223.793C408.641 220.841 410.551 219.438 410.551 219.438Z" fill="#E73028"/>
<path d="M416 166.966C416 166.017 415.752 165.085 415.282 164.262L415.181 164.089C415.181 164.087 415.181 164.086 415.181 164.084L392.46 124.147C391.491 122.443 389.684 121.391 387.721 121.391H327.75C324.739 121.391 322.298 123.832 322.298 126.842C322.298 126.842 322.298 137.345 322.298 143.542H282.771C282.771 137.345 282.771 126.844 282.771 126.844C282.771 126.086 282.593 125.38 282.311 124.729C282.59 124.088 282.761 123.393 282.761 122.65V115.622C283.487 115.622 284.219 115.485 284.906 115.188L356.689 84.266C358.688 83.4046 359.982 81.4393 359.984 79.264C359.987 77.0888 358.696 75.1207 356.699 74.2566L284.917 43.1655C283.705 42.6394 282.367 42.5972 281.137 42.9829C280.643 42.4882 280.051 42.0779 279.375 41.7958L252.182 30.4385C250.782 29.8538 249.199 29.8538 247.797 30.4385L220.605 41.7958C219.92 42.0807 219.322 42.495 218.823 42.9965C217.586 42.5999 216.236 42.6367 215.014 43.1669L143.228 74.258C141.232 75.1221 139.941 77.0915 139.943 79.2654C139.946 81.4406 141.242 83.406 143.239 84.2674L215.022 115.189C215.728 115.493 216.472 115.635 217.218 115.627V122.65C217.218 123.405 217.393 124.11 217.684 124.759C217.41 125.402 217.231 126.098 217.231 126.844C217.231 126.844 217.231 137.345 217.231 143.542H177.705C177.705 137.345 177.705 126.842 177.705 126.842C177.705 123.832 175.264 121.391 172.253 121.391H112.282C110.322 121.391 108.512 122.443 107.543 124.147L84.8219 164.084C84.8219 164.086 84.8219 164.087 84.8192 164.089L84.721 164.262C84.2494 165.085 84.0027 166.017 84.0027 166.966L84 216.867V219.438C84 221.15 84.8328 222.784 86.2012 223.813C87.0749 224.472 103.132 236.996 103.132 266.185C103.132 274.49 101.828 284.145 98.5103 295.257C97.7484 297.387 92.2338 313.614 92.2338 335.835C92.2338 344.334 93.0434 353.703 95.2364 363.486C99.189 381.113 107.029 397.123 118.538 411.073C130.28 425.311 145.962 437.486 165.14 447.274C167.673 448.849 182.534 456.706 229.742 459.066L229.921 459.074C230.016 459.079 230.107 459.082 230.203 459.082H238.077C241.431 459.087 244.26 461.268 244.522 464.054C244.782 466.857 247.19 469 250.003 469C252.816 469 255.223 466.857 255.483 464.054C255.741 461.268 258.575 459.086 261.929 459.086L269.797 459.081C269.887 459.081 269.979 459.078 270.069 459.074C317.666 456.715 332.467 448.773 334.896 447.252C388.041 420.115 403.356 380.205 406.83 351.473C407.487 346.034 407.759 340.799 407.759 335.858C407.759 313.599 402.241 297.36 401.492 295.257C398.224 284.307 396.943 274.751 396.943 266.507C396.943 245.244 405.434 232.697 410.115 227.402C412.24 224.999 413.788 223.823 413.804 223.811C415.17 222.78 416 221.148 416 219.436V166.966ZM282.75 48.1675L354.532 79.26L282.761 110.178V49.3382C282.761 49.3669 282.752 49.3941 282.75 49.4227V48.1675ZM217.181 110.181L145.395 79.2586L217.181 48.1661V110.181ZM222.795 49.3805L244.102 71.0211L231.746 83.9402C228.026 87.8314 225.596 91.3164 224.451 94.3925C223.309 97.47 223.178 100.59 224.057 103.752C224.938 106.914 226.69 109.87 229.32 112.618C233.222 116.7 237.332 118.65 241.65 118.47C244.419 118.356 247.19 117.297 249.971 115.318C252.787 117.347 255.599 118.436 258.4 118.553C262.718 118.733 266.829 116.781 270.731 112.699C273.361 109.95 275.116 106.996 275.996 103.834C276.875 100.672 276.742 97.5518 275.599 94.4743C274.457 91.3982 272.024 87.9132 268.305 84.022L255.87 71.0197L277.181 49.4432V121.381H222.795V49.3805ZM249.985 77.176L262.752 90.5273C265.299 93.1932 266.953 95.3452 267.715 96.9835C268.471 98.6231 268.654 100.357 268.26 102.186C267.866 104.015 266.928 105.702 265.453 107.245C263.449 109.34 261.258 110.322 258.87 110.196C256.586 110.074 253.765 108.432 250.421 105.304L250.067 104.818C246.528 108.222 243.565 109.989 241.179 110.115C238.794 110.242 236.601 109.259 234.598 107.165C233.124 105.622 232.186 103.934 231.789 102.105C231.395 100.276 231.579 98.5427 232.334 96.9031C233.094 95.2648 234.747 93.1128 237.297 90.4469L249.985 77.176ZM249.988 35.45L264.941 41.6949L270.555 44.0405L249.985 64.8661L229.392 44.0514L234.54 41.9021L249.988 35.45ZM112.282 126.842H172.253V148.994H222.683V126.844H277.32V148.994H327.75V126.842H387.721L407.341 161.329H92.6617L112.282 126.842ZM103.71 296.906C116.823 253.108 99.9782 229.928 92.6045 222.32H306.268C304.743 223.309 302.721 224.62 300.299 226.193C299.911 226.445 299.522 226.697 299.112 226.962C297.925 227.733 296.649 228.559 295.289 229.442C294.365 230.041 293.415 230.659 292.417 231.307C290.636 232.463 288.739 233.692 286.739 234.991C286.649 235.048 286.555 235.108 286.468 235.167C281.767 238.217 276.499 241.635 270.791 245.34C269.537 246.152 268.264 246.978 266.97 247.816C265.125 249.014 263.247 250.232 261.324 251.48C259.737 252.51 258.123 253.557 256.489 254.617C252.791 257.016 248.974 259.494 245.08 262.02C243.027 263.352 240.962 264.692 238.864 266.053C238.111 266.543 237.356 267.033 236.596 267.527C230.764 271.31 224.796 275.182 218.769 279.092C217.956 279.62 217.143 280.149 216.328 280.678C208.586 285.7 200.779 290.767 193.07 295.771C190.123 297.681 187.19 299.585 184.272 301.479C183.303 302.107 182.339 302.734 181.375 303.358C180.135 304.162 178.897 304.966 177.667 305.765C175.715 307.03 173.779 308.286 171.863 309.529C161.068 316.533 150.761 323.223 141.441 329.27C141.042 329.528 140.643 329.787 140.249 330.041C121.31 342.331 107.607 351.221 104.452 353.268C102.287 354.672 100.589 355.775 99.4276 356.529C93.8284 323.777 103.71 296.906 103.71 296.906ZM396.293 296.906C396.293 296.906 431.35 392.13 332.124 442.561C332.124 442.561 319.412 451.172 269.799 453.632H261.93V453.637C255.688 453.637 250.574 457.997 250.057 463.55H249.951C249.434 457.997 244.32 453.637 238.078 453.637V453.632H230.204C230.14 453.629 230.079 453.625 230.015 453.621C180.559 451.15 167.879 442.561 167.879 442.561C150.006 433.475 136.502 422.937 126.353 411.762L398.353 235.274C392.137 247.644 387.545 267.685 396.293 296.906ZM409.89 219.971C409.118 220.621 407.728 221.874 406.033 223.793L122.744 407.606C121.576 406.19 120.473 404.764 119.406 403.333C110.627 391.572 105.134 379.358 101.882 367.575C101.393 365.805 100.95 364.042 100.556 362.294L324.686 216.868H89.4519V211.416L89.4546 172.225V166.967L89.561 166.78H410.442L410.548 166.967V172.225L410.551 219.44C410.551 219.438 410.305 219.621 409.89 219.971Z" fill="#968668"/>
<path d="M139.645 261.351L157.084 248.681C157.17 248.618 157.268 248.593 157.369 248.582V234.749C156.115 233.839 149.571 229.085 149.105 228.746C141.137 230.61 133.855 235.06 128.538 241.325C128.54 241.797 128.63 252.05 128.655 254.667L139.645 261.351Z" fill="#968668" stroke="#968668" stroke-width="1.01668"/>
<path d="M185.906 254.733C185.93 252.113 186.034 240.649 186.039 239.98C185.908 239.841 185.779 239.705 185.648 239.567C185.252 239.154 184.847 238.752 184.434 238.36C184.235 238.169 184.04 237.975 183.835 237.789C183.293 237.291 182.73 236.811 182.16 236.347C181.923 236.153 181.678 235.966 181.437 235.778C180.989 235.429 180.532 235.091 180.071 234.766C179.869 234.624 179.669 234.474 179.464 234.336C178.82 233.897 178.16 233.482 177.489 233.085C177.308 232.979 177.124 232.875 176.944 232.772C176.241 232.372 175.531 231.984 174.804 231.63C174.796 231.627 174.791 231.621 174.782 231.619C172.264 230.391 169.605 229.437 166.839 228.778C166.389 229.105 160.245 233.568 158.733 234.666V248.924L175.469 261.085L185.906 254.733Z" fill="#968668" stroke="#968668" stroke-width="1.01668"/>
<path d="M196.113 261.636C196.073 261.314 196.035 260.994 195.99 260.676C195.929 260.267 195.859 259.86 195.788 259.455C195.764 259.319 195.741 259.183 195.713 259.046C195.015 258.813 187.58 256.323 186.508 255.963L176.554 262.02C176.61 262.162 176.626 262.319 176.576 262.47L169.755 283.458L178.258 289.483L178.221 289.538C180.88 289.014 189.594 287.303 190.15 287.193C190.211 287.101 190.272 287.004 190.334 286.911C190.728 286.294 191.105 285.668 191.465 285.032C191.524 284.926 191.588 284.821 191.646 284.713C192.04 284.003 192.403 283.278 192.749 282.546C192.839 282.351 192.927 282.156 193.015 281.96C193.275 281.378 193.52 280.792 193.755 280.198C193.832 279.996 193.917 279.796 193.995 279.594C194.258 278.884 194.498 278.167 194.718 277.444C194.806 277.158 194.883 276.868 194.966 276.578C195.1 276.098 195.224 275.617 195.341 275.132C195.422 274.795 195.503 274.461 195.573 274.122C195.716 273.444 195.841 272.763 195.948 272.076C196.012 271.67 196.054 271.258 196.104 270.851C196.149 270.484 196.19 270.117 196.224 269.749C196.267 269.3 196.302 268.848 196.328 268.395C196.347 268.076 196.353 267.755 196.362 267.437C196.376 267.029 196.393 266.621 196.393 266.211C196.393 264.922 196.327 263.645 196.201 262.387C196.177 262.139 196.141 261.885 196.113 261.636Z" fill="#968668" stroke="#968668" stroke-width="1.01668"/>
<path d="M138.913 262.501L128.129 255.941C127.444 256.17 120.831 258.384 120.158 258.61C119.655 261.115 119.384 263.671 119.384 266.212C119.384 273.819 121.612 281.158 125.799 287.471C126.289 287.567 134.158 289.111 136.474 289.566L136.418 289.486L145.571 282.997L138.913 262.501Z" fill="#968668" stroke="#968668" stroke-width="1.01668"/>
<path d="M146.481 284.023L137.669 290.268C137.669 290.274 137.675 290.276 137.675 290.282C137.675 290.282 138.724 298.957 138.803 299.63C143.127 302.102 147.884 303.716 152.799 304.379C152.879 304.389 152.958 304.399 153.038 304.407C153.72 304.494 154.404 304.56 155.091 304.612C155.242 304.622 155.395 304.635 155.546 304.646C156.326 304.693 157.107 304.723 157.889 304.723C157.914 304.723 157.937 304.721 157.961 304.721C158.67 304.719 159.375 304.697 160.081 304.655C160.254 304.646 160.422 304.628 160.592 304.617C161.178 304.575 161.766 304.524 162.349 304.455C162.482 304.441 162.612 304.424 162.743 304.406C163.405 304.32 164.066 304.222 164.723 304.103C164.765 304.095 164.809 304.087 164.851 304.079C168.597 303.384 172.233 302.135 175.613 300.381C175.635 300.37 175.653 300.359 175.675 300.35C175.761 299.64 176.889 290.279 176.889 290.279C176.895 290.25 176.918 290.234 176.923 290.207L168.195 284.021H146.481V284.023Z" fill="#968668" stroke="#968668" stroke-width="1.01668"/>
<path d="M197.001 258.403C196.996 258.382 196.98 258.367 196.973 258.348C195.52 251.113 192.104 244.581 187.301 239.331C187.276 239.289 187.259 239.244 187.223 239.207C186.891 238.845 186.534 238.512 186.19 238.165C186.115 238.09 186.042 238.016 185.969 237.941C184.657 236.637 183.265 235.433 181.803 234.335C181.741 234.29 181.68 234.245 181.619 234.199C180.17 233.123 178.661 232.149 177.085 231.283C176.856 231.157 176.625 231.037 176.393 230.915C175.751 230.577 175.102 230.256 174.439 229.954C173.986 229.747 173.528 229.543 173.065 229.352C172.74 229.217 172.412 229.09 172.082 228.964C171.373 228.694 170.658 228.438 169.931 228.206C169.864 228.184 169.8 228.16 169.732 228.139C168.867 227.868 167.983 227.638 167.091 227.425C167.013 227.406 166.939 227.381 166.862 227.364C166.848 227.359 166.834 227.365 166.822 227.362C163.945 226.701 160.955 226.339 157.88 226.339C154.858 226.339 151.917 226.688 149.087 227.328C149.084 227.329 149.079 227.327 149.076 227.328C149.057 227.332 149.039 227.339 149.02 227.343C143.677 228.56 138.742 230.849 134.451 233.976C134.443 233.982 134.438 233.986 134.43 233.99C133.606 234.591 132.809 235.222 132.036 235.885C131.933 235.972 131.832 236.06 131.73 236.149C130.998 236.787 130.281 237.445 129.598 238.135C129.508 238.225 129.422 238.321 129.332 238.414C128.717 239.045 128.126 239.697 127.553 240.366C127.481 240.452 127.399 240.528 127.327 240.614C127.319 240.625 127.314 240.64 127.305 240.651C121.505 247.577 118.004 256.493 118.004 266.214C118.004 269.222 118.351 272.151 118.984 274.969C118.993 275.005 119.001 275.041 119.009 275.076C119.433 276.925 119.981 278.728 120.649 280.47C120.696 280.594 120.747 280.715 120.796 280.837C121.109 281.635 121.447 282.424 121.813 283.197C121.84 283.253 121.86 283.309 121.888 283.364C122.262 284.147 122.67 284.915 123.094 285.67C123.203 285.867 123.317 286.061 123.432 286.256C123.817 286.918 124.22 287.57 124.643 288.207C124.697 288.291 124.744 288.378 124.797 288.461C124.803 288.466 124.808 288.469 124.814 288.474C128.171 293.444 132.621 297.613 137.813 300.648C137.818 300.654 137.821 300.66 137.829 300.665C137.879 300.693 137.935 300.72 137.986 300.75C138.667 301.144 139.36 301.518 140.061 301.871C140.104 301.893 140.145 301.913 140.187 301.935C141.718 302.697 143.304 303.359 144.941 303.923C144.975 303.934 145.01 303.948 145.047 303.957C147.427 304.77 149.905 305.363 152.463 305.711C152.605 305.731 152.745 305.747 152.887 305.765C153.552 305.848 154.223 305.916 154.903 305.965C155.084 305.98 155.268 305.995 155.451 306.006C156.255 306.055 157.065 306.089 157.881 306.089C157.884 306.089 157.887 306.089 157.887 306.089C157.889 306.089 157.892 306.089 157.895 306.089C157.914 306.089 157.934 306.086 157.956 306.086C158.699 306.085 159.436 306.059 160.168 306.017C160.378 306.006 160.587 305.985 160.796 305.97C161.363 305.93 161.93 305.879 162.492 305.812C162.699 305.788 162.905 305.762 163.112 305.735C163.701 305.656 164.286 305.566 164.866 305.463C165.034 305.435 165.199 305.405 165.367 305.373C166.048 305.243 166.727 305.097 167.397 304.932C167.461 304.916 167.528 304.902 167.592 304.887C168.354 304.696 169.107 304.485 169.852 304.25C169.95 304.219 170.047 304.184 170.145 304.152C170.731 303.961 171.309 303.761 171.883 303.546C172.184 303.431 172.484 303.31 172.783 303.189C173.131 303.047 173.475 302.905 173.818 302.755C174.196 302.59 174.575 302.423 174.947 302.244C175.162 302.143 175.374 302.037 175.586 301.931C175.93 301.76 176.281 301.601 176.622 301.42C176.644 301.407 176.653 301.386 176.675 301.372C182.487 298.252 187.44 293.734 191.082 288.267C191.111 288.239 191.146 288.217 191.168 288.181C191.375 287.868 191.556 287.537 191.757 287.218C191.89 287.003 192.022 286.787 192.153 286.57C193.008 285.133 193.77 283.652 194.432 282.13C194.547 281.867 194.661 281.603 194.77 281.337C194.962 280.871 195.15 280.405 195.323 279.934C195.407 279.711 195.475 279.482 195.555 279.257C195.846 278.42 196.109 277.577 196.34 276.722C196.43 276.395 196.519 276.065 196.598 275.734C196.71 275.279 196.821 274.821 196.917 274.36C196.997 273.972 197.063 273.578 197.132 273.184C197.26 272.46 197.369 271.731 197.457 270.998C197.502 270.637 197.542 270.278 197.576 269.913C197.619 269.443 197.657 268.972 197.683 268.499C197.705 268.142 197.711 267.783 197.722 267.421C197.736 267.019 197.767 266.62 197.767 266.215C197.771 263.602 197.51 260.976 197.001 258.403ZM166.837 228.778C169.603 229.437 172.262 230.391 174.781 231.619C174.789 231.621 174.794 231.627 174.802 231.63C175.529 231.984 176.24 232.372 176.942 232.772C177.124 232.875 177.308 232.979 177.488 233.085C178.158 233.482 178.819 233.897 179.463 234.336C179.667 234.475 179.867 234.624 180.069 234.766C180.53 235.091 180.988 235.429 181.435 235.778C181.677 235.966 181.921 236.153 182.158 236.347C182.728 236.811 183.29 237.29 183.834 237.789C184.038 237.975 184.233 238.169 184.432 238.36C184.845 238.752 185.25 239.154 185.646 239.567C185.777 239.705 185.907 239.841 186.038 239.98C186.032 240.649 185.928 252.113 185.904 254.733L175.466 261.085L158.73 248.924V234.667C160.243 233.568 166.387 229.107 166.837 228.778ZM149.105 228.746C149.571 229.085 156.115 233.839 157.369 234.749V248.58C157.268 248.591 157.17 248.617 157.084 248.68L139.644 261.35L128.655 254.666C128.63 252.049 128.54 241.796 128.537 241.324C133.854 235.06 141.138 230.61 149.105 228.746ZM119.384 266.211C119.384 263.669 119.655 261.114 120.158 258.609C120.831 258.382 127.444 256.169 128.129 255.94L138.912 262.5L145.571 282.996L136.418 289.484L136.474 289.565C134.158 289.11 126.289 287.565 125.799 287.47C121.612 281.157 119.384 273.818 119.384 266.211ZM176.886 290.28C176.886 290.28 175.758 299.64 175.672 300.351C175.65 300.362 175.633 300.373 175.611 300.382C172.231 302.136 168.594 303.385 164.849 304.08C164.806 304.088 164.763 304.096 164.721 304.105C164.064 304.223 163.403 304.321 162.74 304.407C162.609 304.425 162.48 304.443 162.346 304.456C161.763 304.526 161.175 304.576 160.589 304.618C160.419 304.631 160.251 304.647 160.078 304.657C159.372 304.697 158.668 304.721 157.959 304.722C157.934 304.722 157.911 304.725 157.887 304.725C157.104 304.725 156.325 304.695 155.544 304.647C155.392 304.636 155.24 304.622 155.088 304.613C154.401 304.561 153.717 304.496 153.036 304.408C152.955 304.399 152.876 304.389 152.796 304.38C147.882 303.717 143.124 302.104 138.801 299.631C138.72 298.958 137.672 290.283 137.672 290.283C137.672 290.278 137.667 290.275 137.667 290.269L146.478 284.025H168.191L176.919 290.211C176.916 290.235 176.892 290.253 176.886 290.28ZM196.362 267.439C196.351 267.758 196.346 268.078 196.328 268.397C196.301 268.851 196.267 269.302 196.224 269.752C196.19 270.12 196.149 270.487 196.104 270.853C196.054 271.262 196.012 271.674 195.948 272.078C195.841 272.765 195.716 273.447 195.573 274.124C195.503 274.464 195.422 274.798 195.341 275.134C195.224 275.618 195.099 276.1 194.966 276.58C194.883 276.871 194.807 277.161 194.718 277.447C194.498 278.169 194.258 278.888 193.995 279.596C193.917 279.798 193.832 279.998 193.755 280.2C193.52 280.794 193.275 281.38 193.015 281.962C192.927 282.159 192.839 282.354 192.749 282.548C192.403 283.28 192.04 284.004 191.646 284.716C191.588 284.823 191.524 284.928 191.465 285.034C191.105 285.671 190.728 286.297 190.334 286.914C190.272 287.007 190.211 287.103 190.15 287.196C189.594 287.305 180.88 289.017 178.221 289.54L178.258 289.486L169.755 283.46L176.576 262.473C176.626 262.321 176.61 262.163 176.554 262.023L186.508 255.966C187.58 256.326 195.015 258.816 195.713 259.049C195.741 259.185 195.764 259.321 195.788 259.458C195.861 259.863 195.93 260.27 195.99 260.679C196.035 260.997 196.073 261.317 196.113 261.638C196.141 261.889 196.177 262.141 196.203 262.394C196.328 263.652 196.395 264.927 196.395 266.218C196.395 266.624 196.376 267.032 196.362 267.439Z" fill="#81705E"/>
<path d="M350.401 392.283L340.245 375.135V354.314L345.564 348.995V322.854H331.16V340.421H318.613V322.88H297.857V340.421H285.308V322.854H270.904V348.995L276.222 354.314V375.135L266.066 392.283V422.396H350.401V392.283Z" fill="#968668"/>
<path d="M340.927 374.95V354.596C341.297 354.225 346.245 349.278 346.245 349.278V322.173H330.478C330.478 322.173 330.478 338.481 330.478 339.74H319.295C319.295 338.481 319.295 322.2 319.295 322.2H297.175C297.175 322.2 297.175 338.481 297.175 339.74H285.989C285.989 338.481 285.989 322.173 285.989 322.173H270.222V349.278C270.222 349.278 275.171 354.226 275.54 354.596V374.95C275.354 375.263 265.385 392.098 265.385 392.098V423.077H351.082V392.098C351.082 392.098 341.113 375.263 340.927 374.95ZM347.393 388.544H329.383V373.881H339.564V375.322C339.564 375.322 344.395 383.48 347.393 388.544ZM308.995 372.518V357.859H339.564V372.518H308.995ZM328.02 373.881V388.544H317.647C315.65 385.469 312.195 383.427 308.263 383.427C304.331 383.427 300.873 385.469 298.876 388.544H286.407V373.881H328.02ZM331.841 323.536H344.882V339.766H331.841V323.536ZM329.383 341.129H344.882V348.713C344.513 349.083 339.564 354.032 339.564 354.032V356.497H329.383V341.129ZM308.995 323.562H317.932V339.766H308.995V323.562ZM298.538 323.562H307.632V339.766H298.538V323.562ZM286.407 341.129H328.02V356.496H286.407V341.129ZM307.632 357.859V372.518H276.903V357.859H307.632ZM271.585 323.536H284.626V339.766H271.585V323.536ZM271.585 348.713V341.129H285.044V356.496H276.903V354.03C276.903 354.032 271.954 349.083 271.585 348.713ZM276.903 375.322V373.881H285.044V388.544H269.074C272.072 383.48 276.903 375.322 276.903 375.322ZM266.748 392.47C266.793 392.395 267.39 391.389 268.267 389.907H298.125C297.454 391.34 297.071 392.932 297.071 394.615V404.569H266.748V392.47ZM285.044 421.715H266.748V405.932H285.044V421.715ZM286.407 405.932H297.071V421.715H286.407V405.932ZM298.434 394.615C298.434 392.909 298.87 391.305 299.641 389.907C299.904 389.424 300.213 388.972 300.551 388.544C302.35 386.262 305.135 384.79 308.263 384.79C311.388 384.79 314.173 386.262 315.972 388.544C316.31 388.972 316.619 389.424 316.882 389.907C317.651 391.305 318.088 392.909 318.088 394.615V421.715H298.434V394.615ZM328.02 421.715H319.451V405.932H328.02V421.715ZM349.719 421.715H329.383V405.932H349.719V421.715ZM349.719 404.569H319.451V394.615C319.451 392.932 319.068 391.34 318.399 389.907H348.198C349.077 391.389 349.673 392.395 349.718 392.47V404.569H349.719Z" fill="#83715E"/>
<path d="M347.122 210.207V203.138H353V210.207H347.122Z" fill="white"/>
<path d="M389.946 210.207V203.138H395.825V210.207H389.946Z" fill="white"/>
<path d="M115.697 195.556L119.815 181.926L124.16 195.556H115.697ZM123.146 173.323H116.465L104.611 210.207H111.274L113.796 201.859H126.172L128.834 210.207H135.534L123.146 173.323Z" fill="white"/>
<path d="M144.905 179.627H149.709C152.211 179.627 153.713 179.668 154.214 179.751C155.214 179.95 155.987 180.423 156.529 181.174C157.069 181.925 157.342 182.909 157.342 184.129C157.342 185.218 157.135 186.124 156.716 186.849C156.298 187.574 155.723 188.085 154.988 188.383C154.253 188.68 152.41 188.827 149.458 188.827H144.903L144.905 179.627ZM144.905 210.207V194.79H146.175C147.615 194.79 148.664 194.927 149.325 195.203C149.984 195.478 150.61 195.986 151.204 196.728C151.796 197.469 152.897 199.264 154.505 202.114L158.896 210.207H166.202L162.471 202.997C161.022 200.126 159.873 198.125 159.018 196.999C158.164 195.873 157.08 194.84 155.765 193.898C158.403 193.429 160.392 192.296 161.728 190.495C163.064 188.696 163.733 186.413 163.733 183.649C163.733 181.473 163.286 179.539 162.389 177.847C161.495 176.156 160.305 174.978 158.822 174.317C157.339 173.656 154.967 173.325 151.7 173.325H138.688V210.208H144.905V210.207Z" fill="white"/>
<path d="M167.996 198.111L174.045 197.43C174.41 199.863 175.139 201.649 176.235 202.79C177.333 203.931 178.81 204.501 180.67 204.501C182.648 204.501 184.139 203.995 185.142 202.981C186.148 201.968 186.651 200.784 186.651 199.428C186.651 198.557 186.439 197.815 186.012 197.205C185.585 196.594 184.848 196.061 183.797 195.609C183.079 195.31 181.434 194.779 178.864 194.012C175.561 193.03 173.239 191.819 171.906 190.374C170.038 188.343 169.103 185.865 169.103 182.943C169.103 181.064 169.544 179.304 170.434 177.667C171.32 176.03 172.596 174.785 174.255 173.927C175.914 173.072 177.923 172.644 180.285 172.644C184.12 172.644 187.01 173.674 188.952 175.732C190.896 177.79 191.918 180.536 192.019 183.974L185.799 184.23C185.534 182.323 184.969 180.953 184.107 180.116C183.241 179.281 181.948 178.863 180.219 178.863C178.443 178.863 177.049 179.308 176.038 180.2C175.388 180.772 175.066 181.535 175.066 182.495C175.066 183.371 175.373 184.118 175.99 184.741C176.757 185.531 178.636 186.352 181.629 187.201C184.62 188.05 186.835 188.932 188.268 189.846C189.703 190.762 190.826 192.013 191.644 193.6C192.462 195.186 192.87 197.146 192.87 199.481C192.87 201.598 192.381 203.578 191.401 205.425C190.421 207.271 189.045 208.645 187.273 209.543C185.499 210.44 183.282 210.89 180.62 210.89C176.755 210.89 173.783 209.802 171.71 207.626C169.636 205.449 168.398 202.278 167.996 198.111Z" fill="white"/>
<path d="M198.178 210.207V173.323H220.837V179.627H204.396V187.719H219.729V194.022H204.396V203.903H221.433V210.207H198.178Z" fill="white"/>
<path d="M226.742 210.207V173.323H232.808L245.312 197.852V173.323H251.105V210.207H244.86L232.534 186.211V210.207H226.742Z" fill="white"/>
<path d="M265.606 195.556L269.722 181.926L274.069 195.556H265.606ZM273.052 173.323H266.373L254.517 210.207H261.18L263.702 201.859H276.08L278.742 210.207H285.44L273.052 173.323Z" fill="white"/>
<path d="M288.595 210.207V173.578H294.814V203.904H310.318V210.207H288.595Z" fill="white"/>
<path d="M325.878 210.207V173.323H346.92V179.627H332.098V188.23H344.876V194.533H332.098V210.207H325.878Z" fill="white"/>
<path d="M378.781 196.578L384.83 198.793C383.922 202.855 382.392 205.873 380.241 207.847C378.09 209.819 375.367 210.804 372.074 210.804C368.007 210.804 364.658 209.13 362.027 205.782C359.397 202.434 358.082 197.858 358.082 192.05C358.082 185.909 359.4 181.139 362.037 177.739C364.674 174.342 368.143 172.642 372.446 172.642C376.211 172.642 379.258 173.978 381.596 176.65C383.006 178.231 384.056 180.501 384.746 183.46L378.612 185.249C378.243 183.329 377.481 181.812 376.33 180.7C375.177 179.588 373.78 179.03 372.135 179.03C369.848 179.03 368.001 180.011 366.591 181.971C365.177 183.931 364.471 187.107 364.471 191.495C364.471 196.154 365.166 199.473 366.558 201.449C367.951 203.427 369.761 204.415 371.991 204.415C373.633 204.415 375.047 203.785 376.228 202.524C377.41 201.265 378.259 199.282 378.781 196.578Z" fill="white"/>
</svg>
