<svg width="500" height="500" viewBox="0 0 500 500" fill="none" xmlns="http://www.w3.org/2000/svg">
<path d="M258.774 205.022C256.86 205.95 254.876 206.723 252.84 207.335L256.137 216.835L296.109 201.636L292.565 192.219C287.455 193.293 285.065 197.505 278.719 189.658C277.648 188.419 276.659 187.18 275.67 185.858L264.378 170.824C262.236 168.346 260.505 165.868 258.444 163.39L242.95 144.639C242.208 143.648 240.395 141.583 239.9 140.674C239.406 139.766 219.131 148.191 218.225 148.935C218.225 151.413 220.697 204.609 220.862 209.731C221.433 212.887 221.031 216.144 219.708 219.065C217.728 220.883 215.316 222.162 212.703 222.782L216.247 232.282C219.626 230.96 247.153 220.717 247.977 220.056L244.433 210.805C241.961 211.383 236.192 215.183 234.214 212.209C233.306 208.005 232.918 203.705 233.06 199.405L253.994 191.145C254.653 192.467 259.433 198.166 260.999 200.314C262.565 202.462 260.999 204.031 258.774 204.94M232.483 188.419L231.411 163.308C232.153 163.968 246.659 181.811 247.318 183.05L232.483 188.419Z" fill="white"/>
<path d="M311.109 177.763C309.901 177.952 308.745 178.387 307.71 179.041C306.676 179.694 305.785 180.552 305.093 181.563C303.751 183.392 303.087 185.633 303.218 187.899C303.348 190.166 304.264 192.316 305.807 193.978C307.35 195.641 309.424 196.711 311.671 197.004C313.917 197.297 316.195 196.795 318.112 195.585C320.028 194.374 321.463 192.531 322.169 190.374C322.874 188.216 322.806 185.88 321.976 183.767C321.146 181.654 319.606 179.898 317.622 178.802C315.638 177.706 313.335 177.338 311.109 177.763Z" fill="white"/>
<path d="M192.098 223.195C190.776 223.423 189.514 223.922 188.394 224.662C187.273 225.402 186.317 226.366 185.587 227.494C184.856 228.622 184.366 229.889 184.148 231.216C183.929 232.543 183.987 233.901 184.318 235.205C184.649 236.508 185.245 237.729 186.07 238.79C186.894 239.851 187.929 240.73 189.109 241.371C190.288 242.012 191.588 242.401 192.925 242.514C194.262 242.628 195.608 242.462 196.878 242.029C199.194 241.238 201.128 239.602 202.293 237.447C203.459 235.291 203.772 232.775 203.168 230.399C202.565 228.023 201.091 225.962 199.039 224.627C196.988 223.291 194.509 222.78 192.098 223.195Z" fill="white"/>
<path d="M416.11 137.865C413.564 138.194 411.252 139.523 409.683 141.56C408.114 143.597 407.417 146.175 407.745 148.728C408.073 151.28 409.399 153.597 411.431 155.17C413.464 156.742 416.036 157.441 418.583 157.112C419.844 156.949 421.06 156.539 422.163 155.905C423.266 155.271 424.233 154.426 425.01 153.417C425.787 152.409 426.358 151.256 426.69 150.027C427.023 148.797 427.11 147.513 426.948 146.25C426.786 144.986 426.377 143.767 425.744 142.661C425.112 141.556 424.268 140.586 423.262 139.808C422.255 139.029 421.106 138.457 419.879 138.124C418.652 137.79 417.371 137.703 416.11 137.865Z" fill="white"/>
<path d="M356.192 167.602C354.132 168.759 349.352 170.741 348.775 171.072L352.236 180.158L373.83 171.898C376.302 170.989 394.599 164.216 395.176 163.637C394.198 160.681 392.986 157.808 391.549 155.047C388.862 156.061 386.108 156.889 383.308 157.525C379.681 158.186 379.269 156.699 377.539 152.569L365.588 121.675C364.517 118.784 360.148 108.045 359.654 106.145C361.289 105.214 363.096 104.623 364.965 104.411C366.834 104.198 368.727 104.367 370.529 104.907C372.331 105.447 374.006 106.348 375.451 107.555C376.897 108.761 378.083 110.249 378.94 111.928C380.258 113.993 380.918 116.306 382.154 118.205L391.879 114.653L381.33 86.4856C378.33 87.4177 375.385 88.5208 372.511 89.7897C363.28 93.3417 311.357 112.919 310.78 113.745L321.412 141.417L331.055 137.782C328.897 132.843 328.405 127.333 329.654 122.088C330.584 120.029 331.975 118.213 333.719 116.78C335.462 115.348 337.512 114.337 339.709 113.827C340.451 114.901 342.099 119.857 342.758 121.427L357.841 160.581C359.407 164.629 359.819 165.868 356.192 167.933" fill="white"/>
<path d="M133.664 197.505C137.065 199.515 139.901 202.357 141.906 205.766C142.648 207.005 143.225 208.409 143.884 209.565C147.459 208.417 150.955 207.038 154.351 205.435L143.472 176.524L133.5 179.828V186.354C128.656 185.124 123.639 184.733 118.664 185.197C112.532 185.971 106.651 188.117 101.458 191.477C96.2646 194.838 91.8922 199.326 88.6645 204.609C83.9422 212.585 82.3002 222.018 84.0491 231.125C85.1112 239.323 88.5516 247.027 93.9433 253.283C99.335 259.538 106.441 264.07 114.379 266.314C123.814 268.202 133.604 267.016 142.318 262.927C148.351 261.172 153.659 257.518 157.459 252.504C161.259 247.491 163.348 241.385 163.417 235.09C163.276 230.453 162.357 225.873 160.697 221.543C158.884 222.121 156.906 222.947 155.011 223.691C153.115 224.434 150.972 225.095 149.324 225.838C150.559 228.789 151.168 231.966 151.112 235.166C151.055 238.366 150.334 241.519 148.994 244.424C143.884 253.841 122.621 262.432 110.752 231.373C108.108 225.318 106.922 218.725 107.291 212.126C107.512 209.092 108.489 206.162 110.134 203.604C111.778 201.047 114.037 198.944 116.702 197.489C119.368 196.034 122.356 195.273 125.392 195.276C128.427 195.278 131.413 196.045 134.077 197.505" fill="white"/>
<path d="M459.708 5.3689H40.9443C40.9443 7.43399 40.9443 107.054 40.9443 170.576L459.708 5.3689Z" fill="white"/>
<path d="M382.154 218.074V429.291L384.544 427.226L395.341 416.075C397.648 413.266 400.615 410.375 403.088 407.236C413.163 395.006 421.92 381.743 429.214 367.669C445.714 335.826 455.849 301.06 459.049 265.323C460.286 251.198 460.45 236.907 460.533 222.699V187.593L382.154 218.074Z" fill="white"/>
<path d="M293.802 267.636C293.802 262.679 293.802 257.475 293.802 252.437L206.687 286.221V482.405L216.082 485.792C219.791 487.031 246.494 495.291 250.368 495.456C261.971 492.76 273.417 489.423 284.654 485.461L293.884 482.075C293.884 480.918 293.884 479.018 293.884 475.962L293.802 267.636Z" fill="white"/>
<path d="M60.5601 342.474C69.5043 365.94 82.0755 387.85 97.8128 407.401L102.84 413.266C103.252 413.844 103.664 414.092 104.077 414.67C107.373 418.635 110.505 421.361 113.472 424.582L114.708 425.987L118.5 429.373V320.254L60.5601 342.474Z" fill="white"/>
<path d="M250.368 500H249.626C244.681 499.257 220.203 491.74 215.505 490.253C179.974 478.919 147.131 460.422 118.995 435.9L110.753 428.135L106.879 424.17C104.793 422.182 102.812 420.087 100.945 417.892C100.6 417.419 100.213 416.976 99.7912 416.57L94.2692 410.045C76.9662 388.591 63.3714 364.383 54.0494 338.427C38.967 298.282 36.0824 266.232 36 221.13C36 154.221 36 32.7111 36 5.20403V0H464.571V5.20403C464.571 31.9676 464.571 150.173 464.571 221.543C464.571 236.494 464.571 250.95 463.17 265.158C459.827 301.687 449.472 337.225 432.676 369.817C425.269 384.215 416.315 397.76 405.973 410.21C404.654 411.944 403.088 413.597 401.687 415.166C400.286 416.736 399.214 417.892 398.225 419.048L387.181 430.2L372.429 443.169C359.573 453.383 345.774 462.345 331.22 469.932C316.211 477.962 300.55 484.705 284.407 490.088C279.132 491.905 255.725 499.174 250.698 499.835L250.368 500ZM46.3846 10.5733C46.3846 45.6798 46.3846 157.938 46.3846 221.213C46.3846 264.993 49.1868 296.052 63.6099 334.71C72.5748 359.52 85.5502 382.683 102.016 403.271L107.209 409.384C107.889 410.002 108.497 410.694 109.022 411.449C110.553 413.24 112.176 414.949 113.885 416.57L117.841 420.535L118.5 421.361L125.835 428.135C152.982 451.621 184.613 469.327 218.802 480.175C224.654 482.158 245.176 488.435 250.368 489.344C255.313 488.353 274.434 482.488 281.44 480.175C297.038 474.952 312.173 468.431 326.687 460.681C340.472 453.377 353.551 444.804 365.753 435.074L379.764 422.6L390.231 411.862C390.973 410.871 392.209 409.549 393.363 408.227C394.814 406.728 396.19 405.157 397.484 403.519C407.449 391.514 416.098 378.471 423.28 364.613C439.38 333.384 449.314 299.334 452.538 264.332C453.775 250.537 453.94 236.246 454.022 221.626C454.022 154.138 454.022 44.9364 454.022 10.5733H46.3846Z" fill="white"/>
<path d="M458.759 4.76405L39.7935 169.579L41.6905 174.424L460.656 9.60829L458.759 4.76405Z" fill="white"/>
<path d="M458.729 184.098L60.9375 340.583L62.8346 345.428L460.626 188.942L458.729 184.098Z" fill="white"/>
</svg>
