<svg width="500" height="500" viewBox="0 0 500 500" fill="none" xmlns="http://www.w3.org/2000/svg">
<path d="M179.999 20.4586L199.761 18.2136L208.019 0L216.239 18.2136L235.995 20.3652L221.32 33.8187L225.228 53.4473L208.019 43.4189L190.191 53.1273L194.668 33.8187L179.999 20.4586Z" fill="white"/>
<path d="M267.628 20.4586L287.378 18.2136L295.662 0L303.878 18.2136L323.629 20.3652L308.928 33.8187L312.862 53.4473L295.662 43.4189L277.828 53.1273L282.278 33.8187L267.628 20.4586Z" fill="white"/>
<path d="M402.462 92.0707L396.002 99.7241C386.682 110.744 378.087 116.069 369.647 116.069C360.322 116.069 350.067 109.644 338.27 96.419L335.76 93.5757L332.99 96.2257C319.3 109.367 306.473 115.766 293.785 115.766C281.126 115.766 268.129 109.367 253.999 96.1824L251.496 93.864L248.993 96.194C234.884 109.367 221.701 115.766 208.767 115.766C195.791 115.766 182.809 109.367 169.077 96.2257L166.349 93.5757L163.82 96.419C152.029 109.642 141.51 116.069 131.669 116.069C122.753 116.069 113.892 110.744 104.552 99.7241L98.1183 92.0707V102.089L98 363.274V364.936L99.2417 366.024L249.078 497.853L251.511 500L253.939 497.853L401.324 365.996L402.554 364.918V363.276L402.459 102.091V92.0773L402.462 92.0707ZM335.528 98.8657C348.182 113.069 359.21 119.761 369.633 119.761C379.602 119.761 389.022 113.631 398.765 102.091L398.884 363.276L251.483 495.107L101.668 363.273L101.775 102.087C111.532 113.627 121.33 119.758 131.669 119.758C142.524 119.758 153.932 113.066 166.554 98.8624C181.242 112.937 195.181 119.446 208.767 119.446C223.218 119.446 237.299 112.116 251.494 98.8624C265.719 112.114 279.558 119.446 293.783 119.446C307.15 119.446 320.833 112.939 335.533 98.8641" fill="white"/>
<path d="M177.557 272.085V277.352C175.642 278.375 173.676 279.134 171.702 279.659C169.712 280.189 167.739 280.445 165.779 280.445C163.906 280.445 162.157 280.19 160.449 279.714C158.756 279.19 157.157 278.47 155.617 277.5C153.184 275.915 151.317 273.877 149.962 271.422C148.619 268.944 147.92 266.285 147.92 263.383C147.92 261.17 148.4 259.035 149.255 256.983C150.16 254.907 151.435 253.112 153.075 251.543C154.792 249.922 156.772 248.655 158.919 247.862C161.092 247.032 163.481 246.622 166.134 246.622C167.957 246.622 169.767 246.828 171.614 247.248C173.399 247.67 175.284 248.335 177.282 249.248V254.33C175.197 253.198 173.224 252.353 171.426 251.817C169.591 251.282 167.844 251.018 166.132 251.018C162.281 251.018 159.149 252.208 156.657 254.598C154.134 256.982 152.93 259.94 152.93 263.515C152.93 267.05 154.135 270.029 156.582 272.375C159.047 274.79 162.137 275.952 165.846 275.952C167.737 275.952 169.672 275.64 171.612 275.019C173.564 274.335 175.561 273.369 177.557 272.069" fill="white"/>
<path d="M177.557 272.085V277.352C175.642 278.375 173.676 279.134 171.702 279.659C169.712 280.189 167.739 280.445 165.779 280.445C163.906 280.445 162.157 280.19 160.449 279.714C158.756 279.19 157.157 278.47 155.617 277.5C153.184 275.915 151.317 273.877 149.962 271.422C148.619 268.944 147.92 266.285 147.92 263.383C147.92 261.17 148.4 259.035 149.255 256.983C150.16 254.907 151.435 253.112 153.075 251.543C154.792 249.922 156.772 248.655 158.919 247.862C161.092 247.032 163.481 246.622 166.134 246.622C167.957 246.622 169.767 246.828 171.614 247.248C173.399 247.67 175.284 248.335 177.282 249.248V254.33C175.197 253.198 173.224 252.353 171.426 251.817C169.591 251.282 167.844 251.018 166.132 251.018C162.281 251.018 159.149 252.208 156.657 254.598C154.134 256.982 152.93 259.94 152.93 263.515C152.93 267.05 154.135 270.029 156.582 272.375C159.047 274.79 162.137 275.952 165.846 275.952C167.737 275.952 169.672 275.64 171.612 275.019C173.564 274.335 175.561 273.369 177.557 272.069" stroke="white" stroke-width="1.87483"/>
<path d="M246.213 266.002H256.425L251.263 254.192L246.213 266.009V266.002ZM235.463 279.835L249.613 247.125H253.01L267.358 279.835H262.528L258.346 270.199H244.388L240.231 279.835H235.459H235.463Z" fill="white" stroke="white" stroke-width="1.87483"/>
<path d="M333.312 265.469V275.602H339.51C341.807 275.602 343.474 275.185 344.536 274.385C345.591 273.587 346.102 272.312 346.102 270.622C346.102 268.84 345.491 267.524 344.311 266.68C343.157 265.86 341.307 265.469 338.755 265.469H333.322H333.312ZM333.312 261.169H336.459C338.849 261.169 340.615 260.735 341.77 259.885C342.937 259.032 343.499 257.71 343.499 255.953C343.499 254.342 343.049 253.185 342.134 252.445C341.254 251.71 339.754 251.352 337.777 251.352H333.314V261.183L333.312 261.169ZM328.695 279.835V247.125H338.25C341.54 247.125 344.005 247.877 345.774 249.35C347.541 250.84 348.446 252.933 348.446 255.652C348.446 257.347 348.047 258.743 347.234 259.877C346.466 260.994 345.217 261.87 343.625 262.459C345.992 263.039 347.846 264.044 349.126 265.52C350.406 267.02 351.106 268.819 351.106 270.954C351.106 273.63 350.089 275.815 348.116 277.42C346.124 279.025 343.452 279.835 340.03 279.835H328.705H328.695Z" fill="white" stroke="white" stroke-width="1.87483"/>
<path d="M140.282 117.801V397.583L141.879 399.022V117.251C141.331 117.463 140.824 117.636 140.282 117.821" fill="white"/>
<path d="M101.77 101.919L101.664 363.402L140.276 397.403V118.217C126.674 122.527 114.179 116.649 101.77 101.916" fill="white"/>
<path d="M185.106 112.237V437.373L230.341 477.345V113.376C215.621 120.711 200.709 120.818 185.106 112.244" fill="white"/>
<path d="M185.106 112.605C184.556 112.286 183.994 112.011 183.482 111.687V435.288L185.106 436.716V112.598V112.605Z" fill="white"/>
<path d="M230.339 114.029V476.974L231.999 478.418V113.186C231.438 113.461 230.871 113.768 230.339 114.012" fill="white"/>
<path d="M271.928 113.672C271.385 113.367 270.848 113.085 270.323 112.792V478.29L271.928 476.858V113.677V113.672Z" fill="white"/>
<path d="M317.162 112.343V436.658L318.817 435.246V111.449C318.3 111.756 317.7 112.062 317.167 112.358" fill="white"/>
<path d="M271.928 113.287V477.357L317.173 436.718V112.332C301.506 121.108 286.74 120.857 271.923 113.282" fill="white"/>
<path d="M360.829 117.86C360.254 117.695 359.724 117.478 359.174 117.247V399.138L360.829 397.665V117.86Z" fill="white"/>
<path d="M398.896 363.502L398.762 101.584C386.204 116.513 374.164 122.391 360.812 117.718V397.636L398.896 363.506V363.502Z" fill="white"/>
</svg>
