<svg width="500" height="500" viewBox="0 0 500 500" fill="none" xmlns="http://www.w3.org/2000/svg">
<path fill-rule="evenodd" clip-rule="evenodd" d="M79 170.121V170.721C80.092 171.363 82.1048 173.675 83.2182 174.746C84.4816 175.988 85.7449 177.68 86.9226 179.243C100.477 197.143 102.853 224.53 98.6993 246.135C97.8 250.76 96.5153 254.892 95.4661 259.325C94.3955 263.821 93.3677 268.318 92.3399 272.879C83.7107 310.415 80.7986 348.785 99.5344 383.73C103.389 390.903 107.521 398.012 112.146 403.922L123.259 417.412C124.523 418.996 126 420.088 127.263 421.63C129.769 424.714 131.375 425.656 133.452 427.733C136.728 430.987 140.667 434.542 144.243 437.454C151.095 443.042 155.314 446.468 162.915 451.886C182.25 465.654 203.406 477.666 225.161 488.394C232.248 491.884 240.064 495.781 247.665 498.993C251.219 500.492 249.828 500.256 253.403 498.693C255.352 497.837 257.151 496.98 259.013 496.081C278.734 486.659 293.701 478.566 312.223 467.26C323.764 460.215 342.243 447.111 352.692 437.711C357.275 433.6 358.645 432.486 363.313 427.818C376.61 414.543 386.417 402.809 395.517 385.636C414.146 350.541 413.182 315.468 405.324 274.249C401.384 253.586 397.294 237.698 400.056 215.28C401.919 200.034 406.78 185.666 417.015 174.81C417.657 174.125 420.762 171.149 421.49 170.828V170.164C420.826 169.607 401.405 138.324 400.442 136.761C396.973 131.129 393.526 125.498 389.971 119.995C386.417 114.492 383.119 108.625 379.479 103.143L366.332 103.122L356.161 103.186L354.919 103.122L353.142 103.165L352.478 103.143L345.284 103.079L332.822 103.143L326.762 103.207C319.225 103.593 310.767 103.25 303.123 103.25H267.964C265.351 103.229 264.966 102.865 263.596 104.599C262.161 106.419 251.134 119.502 250.127 120.316C249.442 119.331 248.414 118.26 247.451 117.19L239.4 107.661C234.967 102.801 237.066 103.229 232.227 103.25C213.127 103.293 192.378 103.636 173.664 103.229L167.647 103.25L154.564 103.079C152.894 103.443 149.147 103.379 147.412 103.143L146.749 103.165L144.929 103.143L143.687 103.165L133.516 103.143H121.461C120.304 103.379 111.14 118.946 110.605 119.781C101.826 133.527 93.0251 148.409 84.2246 161.963C83.2611 163.462 80.0064 169.222 79 170.121ZM231.627 484.839C233.768 485.889 249.164 493.383 250.363 493.297C251.476 493.212 266.829 485.589 268.863 484.518L268.842 109.246C266.722 109.246 266.037 111.258 263.746 113.785C262.803 114.813 262.546 115.198 261.583 116.29C259.891 118.217 251.155 128.474 250.534 129.566C249.228 128.924 238.864 116.119 236.916 113.914C236.017 112.886 235.396 112.286 234.582 111.258C233.704 110.166 233.597 109.246 231.649 109.246L231.627 484.839ZM157.262 440.002C159.468 442.186 163.279 444.648 166.063 446.683C169.082 448.867 172.08 450.901 175.249 453.021C178.289 455.055 181.415 457.11 184.691 459.123C186.768 460.386 192.785 464.198 194.477 464.904L194.455 109.246H157.262V440.002ZM306.035 463.812C307.598 463.106 309.654 461.693 311.024 460.793C312.673 459.723 314.257 458.759 315.842 457.71C319.953 455.055 341.387 440.259 343.185 437.604L343.207 109.246H306.035V463.812ZM120.026 403.986L120.005 116.483C118.977 117.532 104.674 140.85 103.303 142.949L90.8197 162.969C89.5992 164.939 87.6079 167.659 86.7514 169.564C87.8434 171.234 90.9054 173.74 94.7382 179.949C108.271 202.004 109.556 232.709 102.318 257.076C100.434 263.457 96.7938 280.544 95.4662 287.46C87.2225 330.692 91.0981 363.967 115.915 398.719C117.093 400.346 118.699 402.723 120.026 403.986ZM380.464 398.398C383.848 394.908 391.299 381.011 393.462 375.958C406.887 344.653 406.78 317.63 400.935 283.927C397.145 262.065 391.727 244.336 393.44 220.568C394.19 209.926 396.181 200.419 399.757 191.212C402.241 184.746 405.324 179.435 409.435 174.254C410.463 172.947 413.075 170.378 413.632 169.307L380.464 116.505V398.398Z" fill="white"/>
<path fill-rule="evenodd" clip-rule="evenodd" d="M353.164 103.186L354.941 103.143L356.055 94.0643C356.333 92.694 355.583 94.2785 358.517 92.5655C361.215 91.0024 363.442 88.9682 364.919 85.7778C366.44 82.4803 367.574 74.4507 365.84 70.8962C362.842 71.924 358.988 75.9923 357.404 78.8616C356.783 79.975 356.29 81.4525 355.755 82.4803L354.17 72.0525C365.626 62.9522 358.431 48.3062 356.59 47.2998C354.192 51.3039 350.894 53.8948 350.787 61.1964C349.288 58.2844 348.003 55.1367 346.398 52.1604C348.56 48.6702 351.194 46.4433 350.509 39.677C350.016 34.8807 347.768 30.7695 345.691 27.836C344.064 29.1636 342.501 32.6538 341.858 34.6023C340.702 38.0711 340.788 40.1695 341.237 43.9167L334.321 35.7372C337.169 28.9709 338.282 24.5599 333.229 16.7659C332.394 15.4811 330.424 12.8902 329.525 12.3549C328.347 14.0679 327.084 17.9007 326.784 20.4488C326.249 24.8169 327.105 26.2515 328.026 29.9773C326.334 28.7568 324.964 27.6433 323.251 26.4442C321.581 25.2665 319.889 24.3458 318.262 23.1253C319.996 18.1148 321.088 14.8816 318.797 9.52849C317.962 7.55855 316.87 5.7385 315.778 4.3467C314.857 3.21185 312.566 1.19909 311.688 0H311.324C309.997 3.81139 308.99 6.98042 309.59 11.3914C310.211 16.0164 311.838 17.708 313.658 20.6843C309.269 18.8643 311.046 19.5066 309.226 17.3226C308.69 16.6802 308.498 16.4661 308.027 15.9094C302.16 8.95035 287.899 9.40001 284.323 11.9909C286.679 16.252 292.974 21.5622 300.19 22.2902C306.656 22.9326 308.926 20.5987 311.003 21.3909C313.401 22.3331 317.619 24.7098 319.311 26.0802C314.515 25.9517 308.519 26.4228 305.115 28.9923C306.378 31.4547 312.159 34.5381 315.542 35.3303C321.923 36.8078 324.771 34.6666 328.925 33.2105C329.632 34.0028 330.381 34.4738 331.152 35.2447C332.458 36.5294 336.933 41.0046 337.383 42.2037C334.492 40.8119 332.458 39.8912 328.625 39.7841C325.949 39.6985 321.495 40.2552 319.332 41.3258C319.825 42.5677 322.244 45.0515 323.229 45.801C330.852 51.5609 334 50.8114 342.458 48.97C343.935 51.4966 346.697 55.7149 347.704 58.9267C347.061 58.5841 346.355 57.9632 345.755 57.5777C345.049 57.0853 344.685 56.8283 343.935 56.4643C339.888 54.473 331.302 53.7449 329.032 55.3723C330.103 58.4342 333.871 62.0101 336.891 63.8087C341.773 66.7422 344.642 66.0999 350.316 65.7358C351.665 67.77 353.442 77.4698 353.763 80.339C351.815 76.3564 350.445 74.3008 347.019 72.1381C344.192 70.3609 339.717 68.7122 335.734 68.6907C335.349 72.2452 339.952 78.6475 341.494 79.9965C344.321 82.5231 348.86 84.7072 354.149 84.75C354.963 90.8525 353.935 97.2976 353.164 103.186Z" fill="white"/>
<path fill-rule="evenodd" clip-rule="evenodd" d="M144.929 103.165L146.749 103.186C145.957 98.4111 144.865 89.632 145.764 84.75C151.46 84.7072 155.228 82.6302 158.397 79.975C159.982 78.6475 164.479 72.3094 164.179 68.6907C155.528 68.755 148.291 73.9796 146.171 80.4675C146.192 77.6411 148.269 67.663 149.597 65.7144C154.822 66.314 158.826 66.421 163.065 63.8301C165.956 62.0743 169.575 58.6055 170.881 55.3723C169.061 54.0661 162.444 54.5586 160.132 55.0511C155.571 56.0361 154.886 57.2351 152.059 59.1194C152.83 56.8497 156.064 50.7044 157.52 49.0128C160.153 49.4625 161.202 50.2547 164.543 50.2761C170.196 50.2976 172.808 48.6488 176.812 45.6297C177.947 44.7946 179.81 42.6534 180.559 41.3258C175.656 38.7563 166.363 39.5486 162.337 42.3108C163.686 39.6985 169.189 35.0948 171.009 33.2105C175.313 35.159 179.039 36.6579 184.606 35.2661C187.604 34.5167 193.813 31.1978 194.713 28.9923C190.901 26.4442 185.741 25.9089 180.581 26.0802C181.801 24.9239 188.225 21.5408 189.103 21.2839C191.008 20.7271 193.557 22.9754 200.002 22.2474C206.04 21.5836 213.277 16.6588 215.568 11.9909C211.95 9.48566 201.993 10.0852 197.775 11.7982C195.184 12.8474 192.936 14.6246 191.587 16.1877C189.702 18.329 189.574 19.7422 186.062 20.7057C187.647 19.2283 189.831 14.8602 190.28 11.6055C190.923 6.91618 189.831 3.87563 188.567 0H188.225C186.341 2.69795 183.814 3.23326 181.116 9.52849C178.397 15.8879 180.559 19.3567 181.587 23.1253C180.773 23.9176 177.797 25.6734 176.662 26.4442C174.864 27.6647 173.579 28.821 171.802 29.9558C174.2 22.2046 173.579 19.1426 170.388 12.3549C169.275 12.9759 167.498 15.4597 166.534 16.8943C161.566 24.303 162.787 29.3349 165.571 35.7372L158.74 43.8524C158.826 39.9982 159.318 38.5208 158.033 34.6237C157.22 32.1613 155.828 29.2921 154.308 27.9217C152.166 29.7845 149.704 35.9513 149.361 39.6128C149.019 43.4456 149.833 46.6789 151.717 49.7194C152.295 50.6187 152.98 51.2183 153.43 52.1604C152.274 54.9654 150.239 58.1345 149.169 61.175C148.569 55.5007 147.52 52.8884 144.094 48.5632C143.409 47.7067 143.537 47.7495 142.852 47.3855C140.647 50.2333 138.976 56.8926 139.469 61.175C139.747 63.616 140.497 65.8643 141.674 67.6844C143.238 70.104 143.73 70.468 145.764 72.0739C145.55 73.7869 144.394 81.1741 144.03 82.309C143.345 81.1955 142.916 79.6967 142.274 78.519C140.775 75.821 136.707 71.7313 133.88 70.8534C132.81 75.9281 132.895 81.0028 134.887 85.6065C136.236 88.7327 140.133 92.9081 143.794 93.5719L144.929 103.165Z" fill="white"/>
<path fill-rule="evenodd" clip-rule="evenodd" d="M147.434 103.165C149.147 103.4 152.916 103.464 154.586 103.1C159.661 99.0749 162.573 95.4348 163.044 86.356C159.404 86.3988 154.158 90.2744 152.423 91.8589C149.918 94.1715 147.541 98.0685 147.434 103.165Z" fill="white"/>
<path fill-rule="evenodd" clip-rule="evenodd" d="M345.263 103.1L352.457 103.165C351.922 98.047 350.23 94.2999 347.447 91.8803C345.584 90.2529 340.573 86.5486 336.848 86.3345C336.955 98.1755 343.293 100.873 345.263 103.1Z" fill="white"/>
<path fill-rule="evenodd" clip-rule="evenodd" d="M133.537 103.186L143.73 103.207C143.087 101.516 140.582 99.4603 139.062 98.4539C137.756 97.576 134.629 95.499 132.724 95.5847C132.681 98.4753 133.109 100.488 133.537 103.186Z" fill="white"/>
<path fill-rule="evenodd" clip-rule="evenodd" d="M356.14 103.207L366.332 103.143C366.825 100.188 367.125 98.7109 367.06 95.4562C363.035 96.2698 357.168 100.638 356.14 103.207Z" fill="white"/>
<path fill-rule="evenodd" clip-rule="evenodd" d="M167.647 103.272H173.664C173.129 90.7241 174.885 79.6111 179.21 69.1833C183.449 58.9696 187.903 52.8671 194.841 45.2657C215.311 22.847 251.005 14.3035 282.803 28.821C287.492 30.9623 291.625 33.5317 295.329 36.2083C299.975 39.5486 301.988 41.8397 305.735 45.4584C311.559 51.1113 317.426 59.9331 321.302 69.4188C325.67 80.0821 327.212 90.5099 326.784 103.25L332.822 103.186C332.822 95.9701 332.929 90.4029 331.623 83.4225C328.475 66.5281 320.981 52.5031 310.039 41.1331C285.479 15.5882 247.836 8.20097 215.29 23.211C206.917 27.0866 196.682 34.0885 190.558 40.9832C189.745 41.904 188.631 42.7819 187.839 43.8097C184.948 47.5782 184.327 48.0279 181.03 52.8457C172.037 66.0142 165.977 86.6985 167.647 103.272Z" fill="white"/>
<path fill-rule="evenodd" clip-rule="evenodd" d="M248.201 68.0912L201.458 68.134V72.1167L248.179 72.1595L248.201 101.751L252.205 101.794L252.226 72.2238L301.282 72.1381L301.303 68.2197L252.333 68.134L252.205 38.3495H248.222L248.201 68.0912Z" fill="white"/>
<path fill-rule="evenodd" clip-rule="evenodd" d="M283.467 92.7797L278.82 91.3236C278.049 92.6512 276.936 97.7259 271.561 96.2699C265.63 94.6854 265.609 82.0949 270.855 79.9323C274.559 78.4334 277.814 80.4033 278.435 83.5724L283.338 82.4375C281.411 72.1168 261.776 71.5172 261.99 88.4758C262.183 103.85 280.983 104.492 283.467 92.7797Z" fill="white"/>
<path fill-rule="evenodd" clip-rule="evenodd" d="M237.923 58.6484C236.702 57.8775 234.946 57.4921 233.383 57.1067L233.169 57.5135C232.463 58.9909 232.591 59.6119 231.049 61.0037C228.694 63.1235 221.928 63.5732 221.671 54.2588C221.414 45.5654 226.917 44.0237 230.407 45.7795C232.206 46.7003 232.141 47.4497 233.105 49.2055L237.901 48.2206C235.846 37.6643 216.253 37.4502 216.51 54.2588C216.767 69.7828 235.803 69.9541 237.923 58.6484Z" fill="white"/>
<path fill-rule="evenodd" clip-rule="evenodd" d="M218.887 99.4817C226.917 99.4817 240.364 101.751 239.593 91.7091C239.357 88.6685 237.58 87.2553 235.161 86.4202C236.617 85.0712 238.308 84.1719 238.394 81.1528C238.651 72.8448 226.703 74.7505 218.951 74.7505L218.887 99.4817ZM223.876 95.3063H228.416C231.499 95.3063 234.732 95.2849 234.411 91.6877C234.133 88.4116 230.493 88.6899 227.538 88.6899H223.876V95.3063ZM223.897 84.4931C226.981 85.0498 233.447 85.264 233.512 81.7523C233.533 79.5683 232.205 78.9901 230.128 78.8831C228.565 78.8188 225.289 78.7332 223.919 78.9901L223.897 84.4931Z" fill="white"/>
<path fill-rule="evenodd" clip-rule="evenodd" d="M260.427 65.2006L265.544 65.3077L267.75 59.6976L277.471 59.6762L279.784 65.2648L285.094 65.2862C284.687 63.2092 275.694 41.3901 275.223 40.5764H270.062L260.427 65.2006ZM268.157 56.8926L274.795 56.9355L271.583 48.0922L268.157 56.8926Z" fill="white"/>
</svg>
