<svg width="500" height="500" viewBox="0 0 500 500" fill="none" xmlns="http://www.w3.org/2000/svg">
<path d="M133.488 103.142C132.987 100.676 132.651 98.1794 132.484 95.6686C134.795 96.1585 136.991 97.0859 138.953 98.4008C140.927 99.531 142.564 101.168 143.694 103.142H133.488ZM147.431 103.142C149.803 103.483 152.211 103.483 154.583 103.142C157.322 101.338 159.545 98.852 161.032 95.9282C162.518 93.0043 163.218 89.7437 163.061 86.4674C159.124 87.286 155.485 89.1612 152.534 91.8917C150.914 93.2811 149.618 95.0081 148.736 96.9517C147.855 98.8952 147.409 101.008 147.431 103.142ZM143.413 93.6194L144.779 103.464H146.346C145.163 97.3642 144.839 91.1296 145.382 84.9405C150.034 85.073 154.551 83.3699 157.958 80.1993C161.059 77.1947 163.091 73.2574 163.744 68.9891C159.862 68.873 156.04 69.9722 152.813 72.1332C149.586 74.2943 147.114 77.4092 145.743 81.0431C146.115 76.0201 147.268 71.0858 149.159 66.4175C153.719 67.4427 158.493 66.8902 162.699 64.8505C166.117 62.8628 168.829 59.8565 170.454 56.252C168.766 54.8859 161.976 55.5689 159.565 55.9306C156.546 56.4384 153.747 57.8377 151.529 59.9486C152.925 56.3429 154.746 52.9168 156.954 49.7428C159.288 50.4255 161.683 50.883 164.106 51.109C168.588 51.16 172.913 49.4587 176.16 46.3677C177.662 45.1327 178.928 43.6352 179.896 41.9479C176.951 40.7495 173.777 40.2181 170.603 40.3917C167.428 40.5654 164.331 41.4399 161.534 42.9524C164.151 39.571 167.144 36.4976 170.454 33.7914C174.552 36.1856 179.412 36.9189 184.035 35.8406C188.032 34.8098 191.603 32.5464 194.241 29.3716C189.858 27.0584 184.922 26.0016 179.977 26.3179C182.722 24.5502 185.581 22.9664 188.535 21.5766C190.584 20.8936 192.955 23.2642 199.424 22.5811C202.613 22.113 205.662 20.9579 208.36 19.1958C211.059 17.4338 213.343 15.1067 215.054 12.3754C209.375 10.2293 203.128 10.1157 197.375 12.054C194.96 12.9976 192.849 14.5811 191.267 16.6345C189.218 18.6837 189.218 20.3712 185.843 21.0543C188.099 18.4909 189.504 15.2896 189.861 11.8933C190.428 7.90531 189.857 3.83822 188.214 0.160706H187.892C184.908 2.8362 182.478 6.07161 180.74 9.68337C179.833 11.8416 179.392 14.1675 179.447 16.5082C179.503 18.8488 180.053 21.1513 181.062 23.2642C180.378 23.9473 177.325 25.6348 175.959 26.6795C174.461 27.9287 172.877 29.07 171.217 30.0948C172.358 27.2399 172.827 24.1614 172.59 21.0963C172.354 18.0313 171.416 15.0615 169.851 12.4156C168.367 13.5908 167.102 15.0191 166.115 16.6345C161.012 24.108 162.378 29.2109 165.11 35.6798L158.32 43.7158C158.769 40.6491 158.536 37.521 157.637 34.5548C157.019 31.9986 155.729 29.6541 153.9 27.7644C151.175 31.2674 149.415 35.4235 148.797 39.8184C148.359 43.3934 149.198 47.0083 151.168 50.0241C151.851 51.0286 152.534 51.3902 152.855 52.3947C151.851 55.127 149.802 58.5021 148.435 61.5558C148.187 56.9112 146.391 52.4836 143.333 48.9794L141.966 47.6133C139.566 51.8577 138.384 56.6825 138.551 61.5558C138.819 63.8223 139.514 66.0174 140.6 68.0247C141.67 69.7226 143.03 71.2188 144.618 72.4445L142.931 82.6503C142.248 81.6458 141.926 79.918 141.243 78.9135C139.3 75.4843 136.337 72.7457 132.765 71.0784C131.544 75.937 131.895 81.058 133.77 85.7039C136.096 89.2026 139.411 91.9299 143.292 93.539L143.413 93.6194ZM300.396 21.7374C306.865 22.4204 309.236 20.0498 311.285 20.7329C314.257 22.0363 317.096 23.6241 319.763 25.4741C314.793 25.0796 309.82 26.2003 305.499 28.6885C308.36 31.7559 311.997 33.9913 316.026 35.1575C320.55 36.0141 325.231 35.2906 329.286 33.1083C330.001 33.8734 330.796 34.5603 331.656 35.1575C333.98 37.2801 336.031 39.6824 337.764 42.3095C335.054 40.8111 332.02 39.9973 328.924 39.9389C325.78 39.7759 322.642 40.354 319.763 41.6265C320.084 42.9926 322.817 45.3632 323.5 46.0463C330.973 51.8322 334.388 51.1491 342.866 49.1C344.837 52.2345 346.544 55.5271 347.969 58.9441C347.286 58.6226 346.603 57.9396 345.92 57.5779C345.237 57.2163 344.916 56.8949 344.233 56.5734C340.215 54.5243 331.656 53.8412 329.286 55.5689C330.944 59.1465 333.685 62.1123 337.121 64.0469C341.862 67.1006 344.956 66.4175 350.702 66.0961C352.396 70.8245 353.542 75.7318 354.117 80.7216C352.798 77.3697 350.411 74.5455 347.326 72.6856C343.976 70.4492 340.096 69.1329 336.076 68.8685C336.729 73.1369 338.761 77.0742 341.862 80.0787C345.369 83.0997 349.811 84.8171 354.438 84.9405C354.792 91.0796 354.455 97.239 353.434 103.303H355.282L356.287 94.1417C356.608 92.7756 355.965 94.4632 358.657 92.7756C361.459 91.2298 363.718 88.859 365.126 85.9852C367.152 81.2623 367.506 75.9897 366.131 71.0382C362.554 72.7934 359.597 75.5964 357.653 79.0742C356.97 80.0787 356.648 81.8065 355.965 82.811L354.278 72.2838C365.849 63.1228 358.296 48.4973 356.648 47.4526C354.278 51.4706 350.862 53.9216 350.862 61.395L346.442 52.234C347.945 50.5295 349.078 48.5317 349.77 46.3671C350.462 44.2024 350.697 41.9178 350.46 39.6577C349.961 35.2942 348.327 31.1379 345.719 27.6036C343.958 29.5422 342.677 31.8685 341.982 34.3941C341.071 37.358 340.838 40.4888 341.299 43.5551L334.509 35.5191C337.563 28.7287 338.527 24.3089 333.505 16.4738C332.431 14.8629 331.178 13.38 329.768 12.054C328.272 14.4965 327.338 17.2417 327.036 20.09C326.6 23.3295 327.073 26.6263 328.402 29.6126C326.904 28.3635 325.32 27.2222 323.66 26.1973C321.973 24.8312 320.245 24.1482 318.558 22.782C319.527 20.72 320.076 18.4855 320.173 16.2089C320.269 13.9324 319.911 11.6594 319.12 9.52265C318.234 7.78871 317.199 6.1351 316.026 4.58051L312.008 0.160706H311.687C310.084 3.79312 309.5 7.79359 309.999 11.7325C310.506 15.0875 311.892 18.2484 314.017 20.8936C309.597 19.206 311.285 19.5275 309.597 17.4783C308.914 16.7952 308.914 16.4738 308.231 16.1122C302.445 9.32175 288.141 9.64319 284.445 12.3754C288.355 17.5239 294.123 20.941 300.517 21.8981L300.396 21.7374ZM352.63 102.62C352.357 98.3848 350.541 94.3968 347.527 91.4095C344.664 88.5553 340.986 86.66 337 85.9852C337 98.0392 343.469 100.611 345.478 102.981L352.63 102.62ZM366.573 102.62C367.009 100.043 367.265 97.4378 367.336 94.8248C362.829 95.9282 358.926 98.7369 356.447 102.66L366.573 102.62Z" fill="#DE1D22"/>
<path d="M401.007 135.567C420.735 167.711 414.588 155.296 390.48 118.571L379.953 101.575H268.092C265.359 101.575 265.038 101.254 263.672 102.941L250.091 118.571C249.77 118.25 249.77 117.888 249.408 117.888C248.747 117.292 248.179 116.602 247.72 115.839L247.399 115.518L239.363 105.995L238.158 105.031C235.104 101.615 236.47 101.977 232.05 101.977H154.382C152.01 102.318 149.602 102.318 147.23 101.977H121.234C119.868 102.298 110.707 118.049 110.345 118.652L83.8262 160.8C82.8217 162.167 79.4064 167.952 78.4019 168.836V169.519C79.8224 170.775 81.1643 172.117 82.4199 173.537C83.786 174.904 84.7905 176.591 86.1566 177.957C99.7374 195.958 102.229 223.521 98.2106 244.937C97.2061 249.679 96.1614 253.777 94.7953 258.197L91.7416 271.778C82.902 309.507 80.1698 348.12 98.8937 382.916C102.527 389.946 106.733 396.666 111.47 403.006L122.68 416.586C123.936 418.007 125.278 419.349 126.698 420.604C128.56 422.807 130.603 424.85 132.806 426.712C136.261 430.167 139.891 433.449 143.694 436.556C150.485 441.98 154.905 445.717 162.378 451.181C182.101 465.059 202.9 477.339 224.577 487.906C231.729 491.321 239.524 495.379 246.997 498.433C250.412 499.799 249.046 499.799 252.783 498.112C254.832 497.107 256.52 496.424 258.207 495.379C277.936 485.857 292.883 477.7 311.566 466.49C325.702 457.551 339.219 447.672 352.028 436.917C355.704 433.819 359.217 430.534 362.555 427.073C375.389 414.774 386.233 400.555 394.699 384.925C413.383 349.928 412.378 314.569 404.543 273.425C400.525 252.692 396.507 236.7 399.119 214.28C401.168 198.971 405.909 184.708 416.115 173.819C417.504 172.389 418.98 171.047 420.535 169.801V169.319C421.218 168.314 399.802 133.96 400.806 135.648L401.007 135.567ZM157.275 439.489C155.909 438.806 144.016 428.962 141.967 426.913L137.225 422.453C130.795 416.509 124.88 410.03 119.546 403.086C118.022 401.422 116.675 399.604 115.528 397.662C90.6969 362.665 86.6388 329.356 95.1167 286.162C96.4829 279.372 100.22 262.054 101.907 255.906C109.059 231.437 107.693 200.86 94.4337 178.761C92.1122 174.993 89.4202 171.466 86.3977 168.234C87.4022 166.185 89.4514 163.492 90.4157 161.443L102.992 141.353C104.358 139.304 118.622 115.879 119.667 114.834C120.843 112.206 122.445 109.79 124.408 107.682H157.034V439.449L157.275 439.489ZM409.847 172.975C405.778 178.146 402.463 183.869 400.003 189.971C396.542 199.497 394.367 209.442 393.534 219.544C391.846 243.33 397.27 261.009 401.007 283.108C406.793 316.779 406.793 343.941 393.534 375.241C390.126 383.193 385.797 390.718 380.636 397.662C378.139 401.636 375.302 405.387 372.158 408.872C369.104 412.287 366.051 415.662 363.318 419.078C356.947 425.431 350.241 431.44 343.228 437.078V107.602H376.176C377.18 109.651 379.913 113.026 380.596 114.754L413.905 167.43C413.583 169.118 410.851 171.448 409.887 172.854L409.847 172.975ZM167.802 101.937C166.758 84.071 171.4 66.3338 181.062 51.2697C184.477 46.5285 184.799 45.8454 187.852 42.1087C188.675 41.1139 189.59 40.1991 190.584 39.3764C197.662 31.9584 206.09 25.9581 215.416 21.6972C226.925 16.4178 239.487 13.8345 252.145 14.1441C264.803 14.4536 277.224 17.6478 288.461 23.4834C299.698 29.319 309.456 37.642 316.99 47.8187C324.524 57.9953 329.636 69.7571 331.938 82.2083C333.108 88.5938 333.579 95.0876 333.344 101.575H327.156C327.828 90.318 325.946 79.0548 321.652 68.6275C320.969 66.9399 319.964 64.8907 319.281 63.2032C315.957 56.2656 311.473 49.9469 306.022 44.5195C302.825 41.1247 299.298 38.0559 295.494 35.3584C291.532 32.5098 287.339 29.9965 282.958 27.8448C268.436 20.9479 252.107 18.8118 236.299 21.741C220.491 24.6703 206.011 32.5154 194.924 44.1579C188.004 50.9464 182.667 59.178 179.294 68.2659C174.888 78.9138 173.03 90.4438 173.87 101.937" fill="#383838"/>
<path d="M167.802 101.937C166.758 84.071 171.4 66.3338 181.062 51.2697C184.477 46.5285 184.799 45.8454 187.852 42.1087C188.675 41.1139 189.59 40.1991 190.584 39.3764C197.662 31.9584 206.09 25.9581 215.416 21.6972C226.925 16.4178 239.487 13.8345 252.145 14.1441C264.803 14.4536 277.224 17.6478 288.461 23.4834C299.698 29.319 309.456 37.642 316.99 47.8187C324.524 57.9953 329.636 69.7571 331.938 82.2083C333.108 88.5938 333.579 95.0876 333.344 101.575H327.156C327.828 90.318 325.946 79.0548 321.652 68.6275C320.969 66.9399 319.964 64.8907 319.281 63.2032C315.957 56.2656 311.473 49.9469 306.022 44.5195C302.825 41.1247 299.298 38.0559 295.494 35.3584C291.532 32.5098 287.339 29.9965 282.958 27.8448C268.436 20.9479 252.107 18.8118 236.299 21.741C220.491 24.6703 206.011 32.5154 194.924 44.1579C188.004 50.9464 182.667 59.178 179.294 68.2659C174.888 78.9138 173.03 90.4438 173.87 101.937M401.007 135.567C420.735 167.711 414.588 155.296 390.48 118.571L379.953 101.575H268.092C265.359 101.575 265.038 101.254 263.672 102.941L250.091 118.571C249.77 118.25 249.77 117.888 249.408 117.888C248.747 117.292 248.179 116.602 247.72 115.839L247.399 115.518L239.363 105.995L238.158 105.031C235.104 101.615 236.47 101.977 232.05 101.977H154.382C152.01 102.318 149.602 102.318 147.23 101.977H121.234C119.868 102.298 110.707 118.049 110.345 118.652L83.8262 160.8C82.8217 162.167 79.4064 167.952 78.4019 168.836V169.519C79.8224 170.775 81.1643 172.117 82.4199 173.537C83.786 174.904 84.7905 176.591 86.1566 177.957C99.7374 195.958 102.229 223.521 98.2106 244.937C97.2061 249.679 96.1614 253.777 94.7953 258.197L91.7416 271.778C82.902 309.507 80.1698 348.12 98.8937 382.916C102.527 389.946 106.733 396.666 111.47 403.006L122.68 416.586C123.936 418.007 125.278 419.349 126.698 420.604C128.56 422.807 130.603 424.85 132.806 426.712C136.261 430.167 139.891 433.449 143.694 436.556C150.485 441.98 154.905 445.717 162.378 451.181C182.101 465.059 202.9 477.339 224.577 487.906C231.729 491.321 239.524 495.379 246.997 498.433C250.412 499.799 249.046 499.799 252.783 498.112C254.832 497.107 256.52 496.424 258.207 495.379C277.936 485.857 292.883 477.7 311.566 466.49C325.702 457.551 339.219 447.672 352.028 436.917C355.704 433.819 359.217 430.534 362.555 427.073C375.389 414.774 386.233 400.555 394.699 384.925C413.383 349.928 412.378 314.569 404.543 273.425C400.525 252.692 396.507 236.7 399.119 214.28C401.168 198.971 405.909 184.708 416.115 173.819C417.504 172.389 418.98 171.047 420.535 169.801V169.319C421.218 168.314 399.802 133.96 400.806 135.648L401.007 135.567ZM157.275 439.489C155.909 438.806 144.016 428.962 141.967 426.913L137.225 422.453C130.795 416.509 124.88 410.03 119.546 403.086C118.022 401.422 116.675 399.604 115.528 397.662C90.6969 362.665 86.6388 329.356 95.1167 286.162C96.4829 279.372 100.22 262.054 101.907 255.906C109.059 231.437 107.693 200.86 94.4337 178.761C92.1122 174.993 89.4202 171.466 86.3977 168.234C87.4022 166.185 89.4514 163.492 90.4157 161.443L102.992 141.353C104.358 139.304 118.622 115.879 119.667 114.834C120.843 112.206 122.445 109.79 124.408 107.682H157.034V439.449L157.275 439.489ZM409.847 172.975C405.778 178.146 402.463 183.869 400.003 189.971C396.542 199.497 394.367 209.442 393.534 219.544C391.846 243.33 397.27 261.009 401.007 283.108C406.793 316.779 406.793 343.941 393.534 375.241C390.126 383.193 385.797 390.718 380.636 397.662C378.139 401.636 375.302 405.387 372.158 408.872C369.104 412.287 366.051 415.662 363.318 419.078C356.947 425.431 350.241 431.44 343.228 437.078V107.602H376.176C377.18 109.651 379.913 113.026 380.596 114.754L413.905 167.43C413.583 169.118 410.851 171.448 409.887 172.854L409.847 172.975Z" stroke="#383838" stroke-width="0.2" stroke-miterlimit="10"/>
<path d="M231.729 107.723V484.008L212.683 474.486L203.522 469.383C200.452 467.906 197.497 466.2 194.683 464.28V107.723H231.729ZM268.775 107.723V483.687L287.82 473.481L296.981 468.378L306.142 462.954V108.044H268.775V107.723ZM119.868 115.196V403.447C125.289 410.318 131.197 416.79 137.547 422.814L142.288 427.234C147.121 431.745 152.234 435.945 157.597 439.81V107.723H124.649C122.743 110 121.136 112.511 119.868 115.196ZM381.038 115.196C379.691 112.632 378.216 110.138 376.618 107.723H343.55V436.757C350.562 431.119 357.269 425.11 363.64 418.756C366.848 415.59 369.803 412.177 372.479 408.55L380.957 397.34L381.038 115.196Z" fill="#DE1D22"/>
<path d="M268.775 108.767V484.732L250.091 493.571C248.725 493.571 233.416 486.098 231.407 485.093V108.767C233.456 108.767 233.456 109.772 234.461 110.816C235.152 111.809 235.947 112.725 236.832 113.549C238.881 115.598 248.886 128.496 250.412 129.179C251.096 128.174 259.574 117.968 261.301 115.919C262.306 114.915 262.667 114.232 263.35 113.549C266.042 111.138 266.886 109.049 268.775 108.767ZM194.562 108.767H157.275V440.172C160.093 442.598 163.044 444.865 166.115 446.962L175.276 453.431L184.798 459.539C187.899 461.727 191.164 463.675 194.562 465.365V108.767ZM306.062 112.504V464.32C307.877 463.506 309.589 462.481 311.165 461.266L315.906 458.213C319.924 455.481 341.38 440.534 343.429 438.123V108.647H306.142L306.062 112.504ZM233.738 81.244C233.738 79.1948 232.372 78.5117 230.322 78.5117C228.29 78.3422 226.247 78.3422 224.215 78.5117V83.936C226.947 84.6593 233.416 84.9405 233.778 81.244H233.738ZM272.471 46.2472L269.056 55.0868H275.525L272.471 46.2472ZM250.412 119.978C250.091 119.656 250.091 119.294 249.729 119.294C249.046 118.611 248.725 117.928 248.042 117.245V117.085L240.006 107.562C239.684 107.24 239.323 106.557 239.001 106.196C235.948 102.459 237.314 102.78 232.894 102.78H173.95V102.459C173.447 90.9832 175.293 79.5256 179.374 68.7882C183.041 59.8509 188.342 51.6754 195.004 44.6802C206.087 33.0599 220.542 25.2172 236.325 22.261C252.108 19.3048 268.422 21.3846 282.958 28.2064C287.419 30.2143 291.638 32.7214 295.535 35.6798C299.284 38.4484 302.829 41.4831 306.142 44.7605C311.594 50.1879 316.078 56.5067 319.402 63.4442C320.085 65.1318 321.089 66.8595 321.772 68.5471C326.07 79.3793 327.909 91.0306 327.156 102.66C319.683 102.981 311.084 102.66 303.37 102.66H268.092C265.359 102.66 265.038 102.338 263.672 104.026C262.306 105.714 251.618 118.973 250.412 120.098V119.978ZM283.722 92.4542L278.94 91.0881C278.257 92.4542 276.891 97.5571 271.788 96.1909C266.002 94.5034 266.002 81.927 271.105 79.8779C271.829 79.5067 272.63 79.3112 273.444 79.307C274.257 79.3029 275.06 79.4904 275.788 79.8542C276.516 80.218 277.147 80.748 277.632 81.4013C278.117 82.0545 278.441 82.8128 278.579 83.6146L283.682 82.6101C281.632 72.0829 261.944 71.7213 262.266 88.7175C262.306 103.343 281.351 104.026 283.722 92.4542ZM260.618 64.5693H265.721L267.77 59.145H277.614L279.985 64.5693H285.409C285.088 62.5201 275.887 40.4613 275.565 39.738H270.462L260.618 64.5693ZM216.42 53.6805C216.742 69.3105 235.787 69.3105 237.836 58.1003C236.47 57.4172 234.782 57.0958 233.416 56.4127V57.0958C232.996 58.3724 232.296 59.5392 231.367 60.5111C228.996 62.5603 222.206 62.8817 221.844 53.7207C221.483 44.5596 227.269 43.515 230.684 45.2427C232.372 46.2472 232.372 46.9303 233.416 48.658L238.158 47.6535C235.787 37.4076 216.42 37.046 216.42 53.7207V53.6805ZM239.524 91.4095C239.415 90.1667 238.936 88.9852 238.148 88.018C237.359 87.0509 236.299 86.3427 235.104 85.9852C236.015 85.3638 236.788 84.5615 237.376 83.6283C237.963 82.6951 238.353 81.651 238.519 80.5609C238.841 72.0829 226.947 74.0919 219.152 74.0919V98.9232C226.947 99.2446 240.568 101.294 239.524 91.4497V91.4095ZM248.363 71.6811V101.254H252.381V71.7213H301.722V67.9846H252.783V38.0907H248.765V67.9846H201.795V71.7213L248.363 71.6811ZM227.63 88.3558H223.894V94.8248H228.313C231.367 94.8248 234.782 94.8248 234.421 91.4095C234.059 87.9942 230.724 88.396 227.63 88.396V88.3558ZM103.072 142.76L90.496 162.85C89.0335 165.038 87.6921 167.305 86.478 169.64C89.3698 172.981 92.0536 176.497 94.514 180.167C108.095 202.266 109.461 233.205 101.988 257.313C99.9383 263.782 96.5632 280.778 95.1971 287.568C87.1611 331.083 90.7773 364.392 115.609 399.068C116.975 400.755 118.341 403.086 119.627 404.492V116.241C118.863 117.085 104.599 140.389 103.233 142.76H103.072ZM380.797 395.894V398.626C385.958 391.683 390.287 384.158 393.694 376.205C407.516 345.026 407.114 317.985 401.329 284.153C397.592 262.416 392.168 244.375 393.855 220.588C394.395 210.445 396.58 200.458 400.324 191.016C402.519 184.787 405.857 179.023 410.168 174.02C411.173 172.653 413.905 170.283 414.186 168.917L380.957 116.241V396.014L380.797 395.894Z" fill="#F3F3F9"/>
<path d="M248.363 101.294V71.7213H201.473V67.7033H248.363V37.729H252.381V67.6631H301.401V71.3998H252.1V101.013L248.363 101.294ZM271.828 95.8695C266.042 94.1819 266.042 81.6056 271.145 79.5564C271.869 79.1852 272.67 78.9897 273.484 78.9856C274.297 78.9815 275.1 79.1689 275.828 79.5327C276.556 79.8965 277.187 80.4265 277.672 81.0798C278.157 81.7331 278.481 82.4913 278.619 83.2931L283.722 82.2886C281.672 71.7615 261.984 71.3999 262.306 88.396C262.627 103.705 281.351 104.468 283.722 92.8158L278.94 91.4497C278.297 92.1327 277.253 97.2356 271.828 95.8695ZM237.836 58.1404C236.47 57.4574 234.782 57.1359 233.416 56.4529V57.1359C232.996 58.4126 232.296 59.5793 231.367 60.5512C228.996 62.6004 222.206 62.9219 221.844 53.7608C221.483 44.5998 227.269 43.5551 230.684 45.2828C232.372 46.2873 232.372 46.9704 233.416 48.6981L238.157 47.6936C236.108 37.1665 216.42 36.8049 216.742 53.801C216.782 69.3507 235.787 69.3507 237.836 58.1404ZM239.524 91.4497C240.207 101.655 226.947 99.2848 218.791 99.2848V74.4535C226.626 74.4535 238.519 72.4043 238.157 80.9225C238.157 83.9762 236.47 84.9405 234.742 86.3468C237.836 87.0299 239.524 88.396 239.524 91.4497ZM223.894 83.9762C226.947 84.6593 233.416 84.6593 233.416 81.244C233.416 79.1948 232.05 78.5117 230.001 78.5117C227.969 78.3421 225.926 78.3421 223.894 78.5117V83.9762ZM234.421 91.4497C234.099 88.0344 230.684 88.396 227.63 88.396H223.894V94.865H228.313C231.729 94.8248 234.742 94.8248 234.421 91.4497ZM265.721 64.8505H260.618L270.141 40.0193H275.244C275.565 41.0238 284.766 62.8013 285.088 64.8505H279.663L277.293 59.4262H267.409L265.721 64.8505ZM269.136 55.0064H275.605L272.552 46.1668L269.136 55.0064Z" fill="#383838"/>
</svg>
