<svg width="500" height="500" viewBox="0 0 500 500" fill="none" xmlns="http://www.w3.org/2000/svg">
<g clip-path="url(#clip0_1130_9275)">
<path fill-rule="evenodd" clip-rule="evenodd" d="M249.979 0C388.054 0 499.958 111.946 499.958 249.979C499.958 388.054 388.012 499.958 249.979 499.958C111.904 499.958 0 388.012 0 249.979C0 111.904 111.946 0 249.979 0ZM249.979 15.6107C379.414 15.6107 484.348 120.544 484.348 249.979C484.348 379.414 379.414 484.348 249.979 484.348C120.544 484.348 15.6107 379.414 15.6107 249.979C15.6107 120.544 120.544 15.6107 249.979 15.6107Z" fill="white"/>
<path fill-rule="evenodd" clip-rule="evenodd" d="M249.979 81.8933C343.267 81.8933 418.858 157.484 418.858 250.772C418.858 344.06 343.267 419.651 249.979 419.651C156.691 419.651 81.1001 344.06 81.1001 250.772C81.1001 157.484 156.691 81.8933 249.979 81.8933ZM173.011 316.512C157.901 298.815 148.76 275.858 148.76 250.772C148.76 196.97 190.75 152.976 243.718 149.762C243.718 204.733 243.718 259.663 243.718 314.634H212.413V263.294H181.192C183.446 275.691 188.956 286.961 196.844 296.185L173.053 316.512H173.011ZM212.413 238.25V191.794C196.302 202.062 184.698 218.758 181.192 238.25H212.413ZM360.631 291.594C361.299 289.507 361.674 287.253 361.674 284.957C361.674 272.978 351.991 263.294 340.053 263.294H287.586V362.551C321.396 351.198 348.359 324.944 360.673 291.594H360.631ZM256.24 101.678C311.086 103.932 358.294 135.821 382.294 181.693C385.967 188.705 391.017 199.85 392.27 207.78C395.776 230.32 379.998 250.73 361.8 250.73C380.499 250.73 395.692 271.141 392.27 293.681C391.31 299.733 387.887 308.164 385.257 313.799C362.342 362.885 313.423 397.446 256.24 399.825C256.24 300.442 256.24 201.06 256.24 101.678ZM287.545 138.951V238.209H339.97C351.949 238.209 361.633 228.525 361.633 216.546C361.633 214.25 361.257 211.996 360.589 209.909C348.276 176.559 321.312 150.305 287.503 138.951H287.545ZM243.718 399.825C164.204 396.527 100.76 331.079 100.76 250.73C100.76 170.423 164.204 104.934 243.718 101.636V132.983C181.526 136.238 132.064 187.703 132.064 250.73C132.064 313.757 181.526 365.222 243.718 368.478V399.825Z" fill="white"/>
<path d="M142.791 433.676L138.993 436.848C135.654 436.347 132.19 434.803 128.683 432.215C127.014 431.004 125.219 429.376 123.216 427.289C122.047 425.995 120.92 424.034 119.918 421.488C119.292 419.735 119 417.898 118.958 415.936C118.916 412.013 120.127 408.34 122.631 404.917C124.635 402.162 126.763 400.033 129.059 398.531C131.355 397.028 134.068 396.11 137.157 395.859C142.291 395.442 147.55 397.153 152.892 401.035C156.315 403.498 158.819 406.461 160.489 409.884C159.988 410.301 159.32 410.886 158.486 411.637C157.651 412.388 156.858 413.098 156.148 413.724L155.522 413.265C155.564 411.428 155.146 409.675 154.312 407.964C153.477 406.253 152.35 404.875 150.889 403.832C148.51 402.12 146.089 401.327 143.543 401.453C140.997 401.619 138.617 402.454 136.364 403.957C134.11 405.46 132.148 407.38 130.478 409.675C127.765 413.39 126.429 417.105 126.471 420.778C126.555 422.698 127.056 424.535 128.057 426.246C129.017 427.957 130.27 429.376 131.814 430.503C133.191 431.505 134.861 432.215 136.823 432.716C138.784 433.175 140.621 433.3 142.374 433.091L142.791 433.717V433.676ZM181.609 453.544C176.475 455.172 171.049 454.754 165.414 452.333C159.529 449.829 155.564 446.114 153.602 441.272C151.599 436.597 151.807 431.463 154.145 425.954C156.566 420.277 160.531 416.562 166.082 414.767C171.258 413.223 176.642 413.641 182.235 416.02C186.952 418.023 190.458 420.861 192.712 424.576C194.59 427.665 195.509 430.629 195.425 433.55C195.425 436.472 194.799 439.436 193.547 442.357C192.42 444.987 190.834 447.283 188.789 449.244C186.702 451.206 184.322 452.625 181.651 453.544H181.609ZM178.688 447.45C181.317 445.321 183.571 442.107 185.408 437.808C186.409 435.47 186.994 433.008 187.161 430.503C187.328 427.999 186.91 425.662 185.867 423.575C184.823 421.488 183.07 419.901 180.649 418.9C178.395 417.94 176.225 417.689 174.138 418.19C172.051 418.649 170.256 419.568 168.67 420.903C166.207 423.032 163.995 426.413 162.033 431.088C161.032 433.467 160.447 435.846 160.322 438.225C160.197 440.646 160.656 442.817 161.7 444.82C162.785 446.824 164.496 448.326 166.959 449.37C170.882 451.039 174.764 450.371 178.688 447.45ZM209.575 450.079C209.032 448.41 208.657 447.366 208.531 446.991C208.448 446.74 208.323 446.615 208.156 446.573C207.989 446.531 207.864 446.657 207.822 446.865C207.613 447.951 207.321 449.537 206.945 451.749C206.57 453.919 206.278 455.547 206.069 456.632L205.777 458.135C205.526 459.638 205.318 461.558 205.109 463.979C204.608 463.853 203.857 463.645 202.897 463.394C201.937 463.144 201.185 462.935 200.684 462.852C200.225 462.768 199.432 462.643 198.43 462.518C197.387 462.392 196.636 462.309 196.177 462.226L196.469 461.224C196.552 460.806 196.677 460.347 196.803 459.888C196.928 459.429 197.011 459.053 197.095 458.803C197.178 458.552 197.262 458.177 197.429 457.634C198.055 455.338 198.848 451.707 199.766 446.907C199.975 445.822 200.267 444.152 200.684 441.94C201.102 439.686 201.394 438.058 201.603 436.931C202.104 434.343 202.771 430.295 203.648 424.743L207.405 425.662C208.281 425.829 209.575 426.037 211.328 426.329C213.081 426.622 214.375 426.83 215.293 426.997C219.676 427.832 222.556 428.792 223.933 429.836C226.772 432.298 227.857 435.303 227.189 438.768C226.688 441.356 225.52 443.359 223.641 444.778C221.763 446.197 219.467 446.907 216.754 446.949C217.672 449.745 219.885 455.505 223.474 464.229L224.81 467.735C224.267 467.61 223.474 467.401 222.347 467.109C221.22 466.817 220.427 466.608 219.885 466.525C218.257 466.191 216.587 465.982 214.876 465.815L210.744 453.377L209.617 450.079H209.575ZM210.118 435.93L209.283 440.229C208.949 441.982 208.657 443.276 208.406 444.194C211.37 444.778 213.665 444.528 215.293 443.526C216.879 442.483 217.965 440.646 218.466 438.017C218.674 436.931 218.758 436.013 218.758 435.22C218.758 434.093 218.507 433.216 218.132 432.507C217.714 431.839 217.213 431.296 216.504 430.963C215.836 430.587 215.043 430.295 214.125 430.086C213.206 429.877 212.246 429.669 211.37 429.46L210.118 435.971V435.93ZM239.711 430.712C240.337 430.67 241.255 430.629 242.549 430.545C243.843 430.462 244.845 430.378 245.513 430.336C248.184 430.253 250.229 430.211 251.607 430.295C254.863 430.462 257.45 430.879 259.412 431.589C261.583 432.382 263.377 433.55 264.755 435.095C267.927 438.35 269.597 442.566 269.764 447.658C269.889 450.831 269.43 453.627 268.47 456.132C267.51 458.594 265.882 460.973 263.586 463.144C261.666 465.022 259.537 466.316 257.325 467.109C255.113 467.902 252.483 468.32 249.436 468.445C245.429 468.57 242.424 468.653 240.421 468.653C240.128 468.612 239.669 468.612 239.043 468.612C237.958 468.653 236.33 468.779 234.16 468.946C234.285 462.434 234.201 455.923 233.993 449.453L233.784 443.777C233.742 442.858 233.659 441.523 233.534 439.728C233.408 437.933 233.325 436.556 233.241 435.637C233.158 434.803 233.116 434.009 233.033 433.175C232.949 432.34 232.907 431.547 232.824 430.754C235.913 430.754 238.208 430.754 239.711 430.67V430.712ZM246.849 465.273C249.603 465.189 251.816 464.772 253.569 464.02C255.28 463.269 256.783 461.892 258.118 459.846C260.038 456.758 260.957 452.751 260.79 447.867C260.706 445.864 260.33 443.86 259.663 441.857C258.995 439.853 258.035 438.183 256.783 436.931C255.405 435.47 253.861 434.51 252.191 434.093C250.48 433.634 248.435 433.467 246.014 433.55C245.596 433.55 244.97 433.634 244.094 433.717C243.217 433.801 242.549 433.884 242.09 433.926C242.09 440.187 242.299 449.495 242.716 461.85L242.842 465.356C243.76 465.398 245.095 465.356 246.89 465.314L246.849 465.273ZM313.841 454.754C310.627 459.095 305.994 461.933 300.025 463.311C293.764 464.772 288.421 464.062 283.955 461.307C279.572 458.678 276.734 454.42 275.357 448.577C273.979 442.566 274.981 437.223 278.446 432.507C281.743 428.208 286.334 425.411 292.261 424.034C297.27 422.865 301.736 423.115 305.743 424.827C309.082 426.204 311.545 428.082 313.215 430.503C314.926 432.883 316.178 435.637 316.888 438.726C317.514 441.523 317.597 444.277 317.055 447.116C316.512 449.912 315.427 452.458 313.799 454.754H313.841ZM307.872 451.54C308.749 448.243 308.665 444.319 307.622 439.77C307.037 437.307 306.077 434.97 304.742 432.841C303.406 430.712 301.695 429.084 299.608 427.999C297.521 426.914 295.225 426.663 292.637 427.289C290.258 427.832 288.338 428.917 286.96 430.545C285.541 432.131 284.623 433.926 284.164 435.971C283.454 439.143 283.621 443.192 284.79 448.118C285.374 450.622 286.293 452.876 287.628 454.921C288.922 456.925 290.592 458.469 292.637 459.471C294.682 460.472 296.978 460.639 299.566 460.055C303.698 459.095 306.495 456.299 307.914 451.582L307.872 451.54ZM337.006 428.333C339.427 427.206 341.89 426.997 344.394 427.707C347.024 428.5 348.902 430.086 350.029 432.465C351.198 435.011 351.365 437.683 350.447 440.479C349.862 442.357 348.276 444.277 345.646 446.239C344.853 446.782 343.726 447.408 342.307 448.076C341.514 448.451 340.304 448.994 338.592 449.704C336.923 450.413 335.671 450.956 334.836 451.373C333.876 451.832 332.415 452.584 330.495 453.585C329.952 451.958 329.034 449.537 327.698 446.364C324.944 440.187 322.857 435.554 321.396 432.423C320.686 430.921 318.432 426.371 314.592 418.816C317.222 417.689 319.142 416.896 320.352 416.312C321.187 415.936 322.397 415.31 324.025 414.517C325.611 413.724 326.822 413.14 327.615 412.764C329.451 411.887 331.246 411.387 332.999 411.178C334.752 410.969 336.338 411.261 337.799 412.013C339.26 412.764 340.429 414.058 341.306 415.978C342.349 418.19 342.391 420.402 341.472 422.531C340.554 424.66 339.01 426.455 336.798 427.916L336.965 428.291L337.006 428.333ZM334.418 426.413C335.295 424.493 335.212 422.448 334.126 420.194C333.792 419.484 333.25 418.691 332.498 417.898C331.747 417.105 331.079 416.604 330.453 416.521C328.951 416.145 327.49 416.312 326.029 416.98C324.985 417.439 324.234 417.898 323.691 418.274C324.985 421.321 325.987 423.658 326.738 425.202L329.159 430.42C330.578 429.752 331.664 429.168 332.457 428.625C333.25 428.082 333.918 427.331 334.418 426.455V426.413ZM339.427 445.947C341.514 444.987 342.683 443.526 342.892 441.606C343.142 439.686 342.933 438.017 342.224 436.514C340.012 431.756 336.672 430.378 332.206 432.465C331.497 432.799 330.912 433.091 330.537 433.342C331.246 434.97 332.331 437.432 333.876 440.688C334.21 441.356 334.711 442.441 335.378 443.818C336.046 445.237 336.589 446.281 336.923 447.032C337.215 446.907 337.632 446.698 338.217 446.448C338.801 446.197 339.177 446.031 339.469 445.905L339.427 445.947ZM362.008 438.35L359.713 428.208C357.167 416.562 354.704 406.628 352.325 398.322C352.492 398.197 352.7 398.113 352.951 397.988C353.201 397.863 353.41 397.738 353.66 397.612C353.911 397.487 354.12 397.362 354.245 397.279C354.495 397.112 354.746 396.861 354.996 396.611C355.247 396.36 355.497 396.11 355.747 395.859L356.666 396.36C367.518 403.456 378.579 410.427 389.891 417.23L390.517 417.522L390.809 417.94C390.35 418.232 389.682 418.691 388.805 419.234C387.929 419.776 387.261 420.235 386.76 420.569C385.508 421.488 384.297 422.448 383.17 423.491C378.871 420.319 375.574 417.981 373.32 416.521C372.777 416.938 371.901 417.522 370.774 418.274C369.647 419.025 368.77 419.609 368.228 420.027C367.059 420.861 365.264 422.239 362.843 424.159L363.094 424.952C363.636 426.747 364.137 428.583 364.721 430.462C365.306 432.382 365.89 434.093 366.516 435.637C365.723 436.013 364.972 436.43 364.221 437.015C363.553 437.516 362.885 438.1 362.301 438.726L362.05 438.392L362.008 438.35ZM362.008 420.569L370.273 414.559C367.268 412.514 363.386 409.967 358.586 406.962C359.671 411.804 360.756 416.187 361.883 420.068L362.008 420.569Z" fill="white"/>
<path d="M71.8339 303.197L76.7592 302.613C79.3053 304.867 81.3505 308.039 82.9366 312.13C83.6462 314.05 84.3141 316.429 84.8149 319.225C85.0654 320.978 84.9401 323.191 84.3975 325.945C83.9384 327.698 83.2288 329.41 82.1436 331.079C80.0566 334.377 77.0096 336.798 73.0443 338.3C69.8721 339.511 66.9086 340.137 64.1538 340.179C61.399 340.179 58.6441 339.469 55.8893 338.008C51.3397 335.546 47.8753 331.246 45.4961 325.069C43.9935 321.145 43.4926 317.305 43.9935 313.507C44.6196 313.423 45.5379 313.34 46.6231 313.131C47.7083 312.964 48.7518 312.797 49.7118 312.63L50.004 313.34C49.0023 314.843 48.3762 316.512 48.1257 318.432C47.917 320.311 48.084 322.105 48.7518 323.775C49.7953 326.53 51.4232 328.533 53.6354 329.785C55.8476 331.038 58.2685 331.664 60.9816 331.622C63.6946 331.58 66.366 331.038 69.0373 330.036C73.3365 328.408 76.467 326.029 78.4288 322.94C79.4305 321.271 79.9731 319.476 80.0566 317.472C80.1818 315.51 79.8896 313.632 79.1801 311.837C78.5957 310.251 77.594 308.749 76.1748 307.288C74.7974 305.827 73.2948 304.7 71.7504 303.949V303.197H71.8339Z" fill="white"/>
<path d="M38.5256 301.528C38.4003 299.357 38.2334 297.813 38.0664 296.978C37.8995 296.143 37.5238 294.641 36.9395 292.512C38.0247 292.345 39.6525 292.136 41.7813 291.928C43.8682 291.677 45.6213 291.468 46.9152 291.218C48.3344 291.009 50.4631 290.675 53.3432 290.174L63.7363 288.338C64.4877 288.213 65.6146 288.004 67.159 287.712C68.7034 287.42 69.8721 287.211 70.6234 287.044L69.9138 284.039C69.6634 282.578 68.9121 279.406 67.6599 274.606C68.1608 274.647 68.9956 274.564 70.039 274.397C71.1243 274.23 71.8756 274.021 72.3765 273.812L73.7121 283.204C73.8374 284.039 74.1295 285.249 74.4635 286.919C74.7974 288.588 75.0478 289.799 75.173 290.592C75.34 291.594 75.6739 293.138 76.133 295.141C71.3747 295.642 65.4059 296.519 58.2267 297.771C57.5171 297.896 56.3902 298.063 54.9293 298.314C53.4684 298.522 52.3831 298.731 51.6318 298.856C50.2962 299.107 48.2509 299.482 45.5796 300.067C42.9082 300.651 40.9465 301.069 39.6108 301.319L38.5256 301.611V301.528Z" fill="white"/>
<path d="M41.6978 231.906C42.2822 231.948 43.2005 231.989 44.4527 232.031C45.7049 232.115 46.6231 232.156 47.2075 232.156C47.8753 232.198 48.9188 232.24 50.2962 232.365C51.6736 232.448 52.7171 232.532 53.385 232.532C57.6841 232.782 60.9816 233.283 63.319 233.993C65.6564 234.702 67.6599 236.372 69.3295 239.043C71.1661 241.84 72.0426 245.388 71.8756 249.687C71.7922 252.108 71.4165 254.362 70.7487 256.532C70.1226 258.661 69.0373 260.539 67.6182 262.125C66.1573 263.711 64.279 264.797 61.9416 265.381C61.3155 265.59 60.3137 265.715 58.9363 265.757C58.1433 265.84 56.8494 265.84 55.0545 265.798C53.9276 265.757 52.6754 265.715 51.3397 265.715C50.004 265.715 48.9605 265.673 48.1675 265.673L41.1135 265.423C40.4456 265.381 39.3604 265.381 37.9413 265.339C36.5221 265.339 35.4369 265.298 34.769 265.256C34.5186 265.256 34.143 265.256 33.6003 265.256C33.0577 265.256 32.6403 265.256 32.3481 265.256C32.7238 263.085 32.8908 261.541 32.9325 260.623C32.9742 259.704 32.8908 258.202 32.6403 256.157C32.9325 256.157 33.3499 256.198 33.976 256.324C34.6021 256.407 35.0612 256.449 35.3951 256.491C40.2369 256.95 44.6196 257.242 48.4179 257.367C53.5102 257.534 57.0163 257.534 58.9781 257.409C60.6477 257.117 61.8999 256.824 62.8181 256.491C63.6947 256.157 64.5712 255.531 65.4477 254.654C67.1173 253.026 67.9939 250.897 68.0773 248.351C68.1608 245.805 67.7017 243.718 66.6999 242.132C65.6982 240.546 64.0286 239.21 61.6912 238.167C60.0633 237.499 56.2233 237.04 50.1293 236.831C42.6579 236.581 37.023 236.497 33.2664 236.706C33.6003 235.37 33.7673 234.41 33.809 233.868C33.8508 233.325 33.7256 232.365 33.4751 230.988C33.8925 231.029 34.4351 231.113 35.1447 231.196C35.8543 231.28 36.6056 231.363 37.3986 231.447C38.1917 231.53 38.8595 231.572 39.4022 231.614C39.9448 231.655 40.6961 231.739 41.6144 231.822L41.6978 231.906Z" fill="white"/>
<path d="M56.766 202.855C57.3504 200.267 58.7278 198.18 60.8565 196.594C63.1105 195.008 65.4896 194.507 68.1192 195.091C70.8741 195.718 73.0445 197.262 74.7141 199.725C75.8411 201.352 76.342 203.815 76.3002 207.112C76.2585 208.072 76.0498 209.325 75.7159 210.869C75.5072 211.746 75.1732 213.039 74.7141 214.793C74.255 216.546 73.9211 217.881 73.7124 218.8C73.4619 219.843 73.1697 221.429 72.7941 223.6C71.1662 223.015 68.7036 222.264 65.3644 221.387C58.8113 219.76 53.886 218.549 50.5051 217.798C48.8772 217.422 43.9102 216.42 35.604 214.793C36.3553 212.038 36.8979 209.992 37.1901 208.699C37.3988 207.78 37.691 206.486 38.0249 204.692C38.4006 202.938 38.651 201.603 38.8597 200.768C39.3188 198.806 39.9867 197.053 40.9049 195.551C41.8232 194.048 43.0337 192.963 44.4946 192.253C45.9972 191.544 47.7503 191.418 49.7955 191.919C52.2164 192.462 53.9695 193.797 55.0964 195.843C56.1817 197.888 56.6408 200.225 56.4321 202.855L56.8495 202.938L56.766 202.855ZM53.6773 203.732C52.7173 201.853 51.0477 200.685 48.6268 200.1C47.8337 199.933 46.9155 199.891 45.8302 199.975C44.745 200.058 43.9519 200.309 43.4511 200.768C42.2406 201.728 41.4476 202.98 41.1136 204.525C40.8632 205.61 40.6962 206.486 40.6545 207.154C43.8685 208.031 46.2894 208.615 47.959 209.032L53.5521 210.326C53.9277 208.824 54.0947 207.572 54.1782 206.653C54.2199 205.693 54.053 204.733 53.6773 203.773V203.732ZM72.2097 211.787C72.7106 209.533 72.2932 207.739 70.9158 206.361C69.5801 204.984 68.0775 204.107 66.4914 203.773C61.3574 202.605 58.2269 204.358 57.1 209.158C56.933 209.951 56.8078 210.535 56.766 210.994C58.4774 211.453 61.107 212.079 64.6131 212.914C65.3644 213.081 66.4914 213.332 68.0358 213.666C69.5801 213.999 70.7071 214.25 71.5002 214.417C71.5836 214.083 71.7089 213.624 71.8758 213.039C72.0428 212.455 72.168 212.038 72.2097 211.746V211.787Z" fill="white"/>
<path d="M86.1507 176.142L79.9315 167.794C72.8775 158.235 66.5748 150.096 61.0234 143.501C61.1487 143.334 61.2739 143.167 61.4408 142.959C61.6078 142.75 61.7748 142.541 61.9417 142.332C62.1087 142.124 62.2339 141.915 62.3591 141.79C62.4843 141.498 62.6513 141.205 62.7765 140.872C62.9017 140.538 63.0269 140.204 63.1522 139.87L64.1957 139.953C77.0097 142.04 89.9491 143.877 103.055 145.505H103.723L104.182 145.755C103.89 146.214 103.473 146.882 102.847 147.759C102.262 148.635 101.845 149.303 101.553 149.804C100.76 151.14 100.092 152.517 99.4657 153.936C94.2065 152.767 90.283 151.974 87.6116 151.599C87.2777 152.183 86.7351 153.06 85.9838 154.228C85.2325 155.397 84.6899 156.273 84.3559 156.858C83.6464 158.11 82.5611 160.072 81.1002 162.827L81.6429 163.411C82.8533 164.83 84.1055 166.291 85.3577 167.794C86.6516 169.296 87.9038 170.632 89.1143 171.801C88.5716 172.427 88.029 173.178 87.5699 173.971C87.1525 174.722 86.7768 175.515 86.4847 176.35L86.109 176.142H86.1507ZM78.9298 159.905L84.022 151.056C80.4741 150.388 75.8828 149.679 70.2479 148.844C73.1697 152.851 75.9663 156.399 78.5959 159.487L78.9298 159.905Z" fill="white"/>
<path d="M95.7092 109.859C96.8779 110.861 98.631 112.405 100.885 114.492C103.181 116.537 104.892 118.082 106.061 119.083C106.645 119.584 107.522 120.336 108.732 121.379C109.942 122.381 110.861 123.174 111.487 123.717C112.196 124.343 113.365 125.303 114.951 126.555C116.537 127.807 117.664 128.767 118.416 129.393C118.123 129.685 117.581 130.228 116.871 130.937C116.162 131.689 115.577 132.273 115.243 132.649C114.909 133.024 114.45 133.609 113.824 134.444C113.24 135.237 112.739 135.863 112.405 136.28C111.737 135.696 110.777 134.778 109.525 133.525C108.231 132.273 107.313 131.397 106.645 130.854C100.76 125.428 96.0848 121.212 92.5787 118.123C91.3265 117.038 89.49 115.536 87.0691 113.574C86.3595 114.409 85.3577 115.661 83.9803 117.372C82.7699 119.083 81.7264 120.544 80.9333 121.838C80.6411 121.379 80.0985 120.795 79.3055 120.127C78.6376 119.543 78.095 119.125 77.7611 118.875C77.6776 118.875 77.5941 118.791 77.4272 118.708C77.302 118.624 77.1767 118.583 77.0933 118.541C78.4289 117.247 79.3889 116.245 80.015 115.494C82.7699 112.572 85.0655 110.068 86.8186 108.022L90.6169 103.681C91.243 102.972 92.1196 101.845 93.163 100.384C94.2483 98.9231 95.1666 97.7544 95.9179 96.8361C96.377 97.4622 96.9196 98.0048 97.4622 98.5057C98.1301 99.0901 98.8814 99.6327 99.7162 100.134C97.1701 102.262 94.7909 104.6 92.6622 107.021L95.584 109.817L95.7092 109.859Z" fill="white"/>
<path d="M104.934 88.4465C106.812 87.3612 108.106 86.5264 108.815 85.9838C109.483 85.4412 110.61 84.3977 112.155 82.8116C112.822 83.7299 113.741 85.0655 114.993 86.7769C116.203 88.5299 117.205 89.9491 118.04 90.9926C118.875 92.1613 120.21 93.8726 122.005 96.1683L128.517 104.516C128.976 105.101 129.727 106.019 130.687 107.229C131.689 108.44 132.398 109.358 132.899 109.984L135.237 107.939C136.405 107.021 138.826 104.892 142.499 101.511C142.708 101.97 143.125 102.638 143.835 103.514C144.503 104.391 145.045 104.975 145.463 105.309L137.824 110.861C137.157 111.362 136.197 112.196 134.903 113.282C133.609 114.367 132.649 115.16 131.981 115.661C131.146 116.287 129.977 117.289 128.433 118.666C125.762 114.701 122.172 109.817 117.664 104.057C117.205 103.473 116.537 102.554 115.619 101.386C114.742 100.217 114.075 99.2988 113.574 98.7144C112.739 97.6292 111.445 96.0431 109.65 93.9561C107.897 91.8691 106.603 90.3247 105.727 89.2812L104.975 88.4465H104.934Z" fill="white"/>
<path d="M132.189 67.7018C133.108 67.2427 134.36 66.6166 136.03 65.8235C137.699 65.0305 139.035 64.3626 140.12 63.7365C141.748 62.8183 143.71 61.6913 145.922 60.3556C148.176 59.02 149.845 58.0182 151.056 57.3504C151.431 58.1852 152.099 59.3956 152.976 60.9817C153.101 61.1069 153.268 61.2739 153.393 61.5243C148.384 63.7783 144.586 65.6148 141.915 67.1175C142.499 68.2862 143.417 69.9975 144.67 72.2514C145.004 72.8358 145.504 73.7541 146.131 74.9645C146.757 76.175 147.257 77.0932 147.591 77.6776L158.527 71.1245C158.903 72.2514 159.195 73.0445 159.487 73.5454C159.738 74.0045 160.155 74.5471 160.823 75.2567C157.442 76.8011 154.478 78.3037 151.891 79.7228C151.64 79.8481 151.264 80.0568 150.68 80.3072C150.138 80.5994 149.72 80.8081 149.428 80.975L152.892 87.1943L156.315 93.33C159.32 91.6604 162.952 89.3647 167.251 86.4012C167.626 87.236 168.294 88.4464 169.171 90.0326C169.296 90.1578 169.463 90.3665 169.588 90.5752C168.586 91.1178 167.084 91.8691 165.08 92.8709C163.077 93.8726 161.574 94.6657 160.614 95.1665C159.988 95.5422 158.986 96.0848 157.734 96.8779C156.44 97.6292 155.522 98.2135 154.896 98.5475C153.978 99.0483 152.558 99.9249 150.597 101.094C150.471 100.76 150.221 100.301 149.929 99.6327C149.595 99.0066 149.386 98.5475 149.261 98.2135C148.76 97.2535 147.967 95.7509 146.882 93.6639C145.797 91.5769 144.962 89.9908 144.377 88.9473C143.96 88.1543 143.292 86.9438 142.374 85.2742C141.497 83.6046 140.83 82.3942 140.37 81.5594L137.198 75.8411C136.739 75.0063 135.988 73.7541 134.944 72.0427C133.901 70.3732 133.108 69.0792 132.607 68.2444L132.231 67.5766L132.189 67.7018Z" fill="white"/>
<path d="M179.272 54.3451C179.815 55.806 180.65 57.9765 181.693 60.8982C182.737 63.82 183.571 65.9487 184.114 67.4096C184.406 68.1192 184.824 69.2044 185.408 70.6653C185.992 72.1262 186.452 73.2532 186.744 74.0045C187.078 74.9228 187.662 76.3002 188.455 78.1367C189.248 79.9733 189.832 81.3507 190.166 82.269C189.749 82.3942 189.081 82.6029 188.079 82.9368C187.078 83.229 186.326 83.4794 185.825 83.6881C185.366 83.8551 184.698 84.1473 183.78 84.6064C182.862 85.0238 182.152 85.3577 181.693 85.5664C181.401 84.7316 180.984 83.4794 180.441 81.7681C179.898 80.0985 179.481 78.8463 179.147 78.0533C176.517 70.4984 174.347 64.5713 172.677 60.2304C172.093 58.686 171.175 56.4738 169.964 53.6355C168.963 54.0112 167.46 54.679 165.456 55.5556C163.578 56.5156 161.95 57.3504 160.615 58.0599C160.573 57.5173 160.406 56.766 160.03 55.806C159.696 54.9712 159.446 54.3451 159.237 54.0112C159.195 53.9695 159.112 53.886 159.029 53.719C158.945 53.5521 158.862 53.4686 158.82 53.4268C160.573 52.8842 161.909 52.4251 162.827 52.0912C166.625 50.7555 169.797 49.6285 172.343 48.6268L177.728 46.5815C178.646 46.2476 179.898 45.6632 181.568 44.9119C183.238 44.1189 184.615 43.5345 185.7 43.1171C185.825 43.9102 186.034 44.6198 186.285 45.2876C186.618 46.1224 186.994 46.9154 187.495 47.7502C184.198 48.4598 181.067 49.3781 178.02 50.5468L179.314 54.3868L179.272 54.3451Z" fill="white"/>
<path d="M207.446 45.4128C207.655 46.5815 207.989 48.2929 208.364 50.5468C208.74 52.8007 209.074 54.6373 209.366 56.1399C209.7 57.726 210.159 59.6461 210.785 61.9835C211.37 64.3209 211.829 66.1157 212.121 67.4096C212.33 68.3279 212.705 69.6636 213.165 71.4167C213.665 73.2115 213.999 74.5054 214.208 75.3819C213.749 75.4654 212.998 75.5489 212.038 75.7158C211.036 75.8411 210.326 75.9663 209.867 76.0915C208.198 76.4672 206.611 76.8846 205.025 77.3854C204.316 71.4167 203.105 64.6966 201.519 57.1417L200.893 54.2199C200.643 53.0512 200.35 51.7572 200.017 50.4216C199.683 49.0859 199.432 48.0007 199.265 47.2911C198.472 44.1189 197.804 41.698 197.262 39.9866C199.474 39.7779 200.977 39.5693 201.811 39.4023C202.646 39.2353 204.107 38.7762 206.194 38.1084C206.653 41.4058 207.071 43.8684 207.321 45.538L207.446 45.4128Z" fill="white"/>
<path d="M252.776 64.1957L251.899 69.0792C249.019 70.8323 245.388 71.8758 241.005 72.168C238.96 72.2932 236.539 72.2097 233.659 71.8758C231.906 71.6253 229.819 70.8323 227.398 69.5384C225.812 68.6201 224.393 67.3679 223.099 65.8653C220.553 62.9017 219.092 59.3121 218.8 55.0547C218.549 51.6738 218.841 48.6685 219.634 46.0389C220.427 43.4093 221.93 40.9884 224.101 38.7762C227.774 35.1448 232.908 33.0996 239.503 32.6405C243.676 32.3483 247.517 32.9744 250.981 34.5187C250.856 35.1448 250.73 36.0214 250.564 37.1483C250.397 38.2336 250.23 39.2771 250.104 40.2371L249.311 40.2788C248.184 38.8597 246.723 37.7744 245.012 37.0231C243.259 36.2301 241.506 35.9379 239.711 36.0214C236.789 36.2301 234.41 37.1901 232.574 38.9432C230.737 40.6962 229.443 42.8667 228.692 45.4545C227.941 48.0424 227.69 50.7972 227.857 53.6355C228.191 58.2269 229.527 61.9417 231.906 64.6966C233.2 66.1157 234.786 67.1592 236.622 67.8688C238.459 68.5366 240.337 68.8288 242.216 68.7036C243.885 68.5783 245.638 68.0775 247.475 67.1592C249.27 66.2409 250.772 65.1557 251.941 63.9035L252.651 64.1122L252.776 64.1957Z" fill="white"/>
<path d="M294.181 72.0845C289.548 74.7976 284.164 75.6324 278.112 74.5889C271.809 73.4619 267.134 70.7488 264.087 66.4496C261.082 62.3591 260.122 57.3086 261.165 51.3816C262.25 45.3293 265.256 40.7797 270.306 37.8162C274.981 35.1448 280.365 34.3518 286.334 35.3953C291.385 36.3136 295.433 38.2753 298.439 41.4058C300.943 43.9937 302.529 46.7067 303.114 49.545C303.781 52.4251 303.823 55.4303 303.281 58.5608C302.78 61.3574 301.736 63.9452 300.192 66.3244C298.606 68.7036 296.602 70.6236 294.181 72.1262V72.0845ZM289.924 66.7418C292.011 64.0705 293.472 60.4391 294.307 55.8477C294.766 53.3434 294.766 50.839 294.348 48.3763C293.931 45.8719 293.013 43.7432 291.51 41.9484C290.049 40.1536 288.004 39.0266 285.416 38.5675C282.995 38.1501 280.866 38.4005 278.946 39.3606C277.026 40.2788 275.482 41.531 274.271 43.2423C272.351 45.8719 270.974 49.6703 270.097 54.5955C269.638 57.1417 269.638 59.5626 270.056 61.9417C270.473 64.3209 271.391 66.3244 272.894 68.0357C274.355 69.7471 276.4 70.8323 278.988 71.2914C283.162 72.001 286.835 70.5401 289.966 66.7835L289.924 66.7418Z" fill="white"/>
<path d="M347.233 76.4672C349.612 77.6776 351.282 79.5142 352.283 81.9351C353.285 84.4812 353.202 86.9438 351.991 89.323C350.739 91.8274 348.694 93.5804 345.939 94.6239C344.102 95.2918 341.598 95.25 338.426 94.3735C337.507 94.0813 336.339 93.5804 334.92 92.8709C334.127 92.4535 332.958 91.8274 331.372 90.9508C329.786 90.0743 328.575 89.4482 327.74 88.9891C326.78 88.4882 325.319 87.8204 323.316 86.9438C324.276 85.5247 325.612 83.2707 327.281 80.2655C330.453 74.2967 332.791 69.7888 334.377 66.7001C335.17 65.1974 337.34 60.6061 340.93 52.9677C343.393 54.3868 345.271 55.3886 346.44 55.973C347.275 56.3904 348.485 56.9747 350.113 57.726C351.741 58.4773 352.951 59.0617 353.702 59.4791C355.497 60.3974 357.042 61.4826 358.252 62.7348C359.504 63.987 360.256 65.4061 360.589 67.034C360.923 68.6618 360.589 70.3732 359.629 72.2097C358.502 74.4219 356.833 75.7993 354.579 76.3837C352.325 76.968 349.946 76.8428 347.483 76.008L347.316 76.3837L347.233 76.4672ZM347.149 73.2532C349.195 72.7523 350.739 71.4166 351.866 69.2044C352.242 68.4949 352.492 67.6183 352.659 66.5331C352.826 65.4479 352.784 64.6131 352.492 64.0287C351.866 62.6096 350.822 61.5661 349.403 60.8565C348.401 60.3556 347.567 59.98 346.982 59.813C345.396 62.7348 344.186 64.947 343.393 66.4496L340.763 71.5836C342.141 72.2932 343.309 72.7523 344.228 73.0445C345.146 73.3367 346.106 73.4202 347.149 73.2532ZM334.836 89.2812C336.881 90.3247 338.76 90.3247 340.387 89.323C342.015 88.363 343.226 87.1525 343.977 85.6499C346.356 80.9333 345.396 77.4689 341.014 75.2567C340.304 74.881 339.72 74.6306 339.302 74.4636C338.426 76.008 337.215 78.4289 335.546 81.6429C335.212 82.3107 334.669 83.3959 334.001 84.7734C333.333 86.1925 332.791 87.236 332.415 87.9456C332.707 88.0708 333.083 88.3212 333.626 88.6134C334.168 88.9056 334.544 89.1143 334.794 89.2395L334.836 89.2812Z" fill="white"/>
<path d="M376.116 72.9193C376.909 73.5454 377.953 74.5054 379.33 75.7158C380.708 76.968 381.876 77.928 382.836 78.6794C384.339 79.8481 386.134 81.1837 388.221 82.6864C390.308 84.2307 391.894 85.3995 393.021 86.1925C392.395 86.8603 391.518 87.9456 390.391 89.4065C390.35 89.5734 390.224 89.7821 390.016 89.9908C386.009 86.2342 382.753 83.4377 380.374 81.5594C379.539 82.5612 378.287 84.0638 376.701 86.109C376.283 86.6516 375.615 87.4447 374.781 88.5299C373.904 89.5734 373.278 90.4082 372.861 90.9508L383.17 98.464C382.294 99.2153 381.668 99.8414 381.292 100.301C381 100.718 380.624 101.344 380.249 102.221C377.494 99.7162 374.948 97.5457 372.61 95.7092C372.402 95.5422 372.068 95.25 371.567 94.8326C371.108 94.4152 370.732 94.1231 370.481 93.9144L366.099 99.5075L361.758 105.059C364.471 107.188 368.061 109.65 372.443 112.447C371.817 113.115 370.982 114.158 369.855 115.619C369.772 115.786 369.688 115.995 369.48 116.203C368.603 115.494 367.351 114.409 365.64 112.948C363.928 111.487 362.634 110.402 361.758 109.734C361.174 109.275 360.297 108.607 359.087 107.73C357.876 106.854 357 106.228 356.457 105.768C355.622 105.142 354.286 104.141 352.408 102.805C352.659 102.554 352.993 102.179 353.493 101.594C353.953 101.052 354.286 100.634 354.537 100.426C355.205 99.591 356.332 98.297 357.834 96.4605C359.337 94.6239 360.464 93.2883 361.215 92.3282C361.758 91.6187 362.634 90.5334 363.845 89.0308C365.014 87.5699 365.89 86.4429 366.474 85.6916L370.481 80.5576C371.066 79.8063 371.942 78.5959 373.069 76.968C374.196 75.3402 375.073 74.1297 375.657 73.3784L376.116 72.7941V72.9193Z" fill="white"/>
<path d="M401.578 94.9578C402.913 96.6692 403.873 97.8379 404.499 98.464C405.084 99.0483 406.211 100.092 407.922 101.469C407.087 102.221 405.877 103.306 404.249 104.683C402.621 106.061 401.327 107.229 400.367 108.148C399.282 109.108 397.737 110.61 395.609 112.614L388.012 119.96C387.469 120.503 386.635 121.296 385.549 122.423C384.422 123.508 383.588 124.343 383.045 124.927L385.341 127.056C386.384 128.141 388.805 130.353 392.562 133.651C392.103 133.901 391.518 134.444 390.725 135.153C389.932 135.904 389.39 136.531 389.139 136.99L382.795 129.936C382.21 129.31 381.292 128.433 380.082 127.264C378.871 126.096 377.995 125.177 377.41 124.593C376.701 123.842 375.574 122.756 374.029 121.337C377.702 118.249 382.169 114.2 387.428 109.108C387.97 108.607 388.805 107.814 389.89 106.812C390.976 105.81 391.81 105.017 392.311 104.516C393.313 103.556 394.732 102.095 396.652 100.134C398.531 98.1718 399.95 96.7109 400.91 95.7509L401.661 94.9161L401.578 94.9578Z" fill="white"/>
<path d="M436.305 152.642C437.975 148.51 437.515 144.461 434.928 140.454C432.465 136.614 428.792 134.611 423.992 134.485C420.319 134.444 416.52 135.654 412.639 138.2C410.677 139.494 408.966 141.08 407.505 143.042C406.044 145.004 405.209 147.007 404.959 149.094C404.833 150.388 404.833 151.39 404.917 152.141C405.042 152.893 405.334 153.936 405.793 155.272C406.294 156.44 406.712 157.317 407.087 157.86C407.63 158.694 408.423 159.696 409.508 160.781C409.633 160.948 409.926 161.282 410.385 161.658C410.844 162.075 411.094 162.284 411.261 162.284C411.303 162.284 411.386 162.284 411.553 162.201C411.72 162.159 411.762 162.117 411.804 162.159L415.393 159.821C417.147 158.653 419.526 156.983 422.447 154.813C423.074 156.065 423.783 157.275 424.534 158.486C425.369 159.78 426.246 160.948 427.164 162.075C424.827 163.244 422.239 164.788 419.275 166.667C418.065 167.46 416.353 168.628 414.1 170.215C409.592 166.208 406.252 162.576 404.165 159.32C402.538 156.816 401.327 154.228 400.492 151.557C399.658 148.886 399.365 146.256 399.532 143.668C399.699 141.08 400.492 138.659 401.828 136.364C403.205 134.068 405.167 132.106 407.797 130.395C410.593 128.558 413.432 127.431 416.228 127.014C419.067 126.555 421.78 126.722 424.367 127.557C426.997 128.391 429.418 129.685 431.672 131.564C433.926 133.442 435.929 135.738 437.682 138.409C440.396 142.583 441.898 146.924 442.19 151.39C439.728 152.058 437.891 152.642 436.681 153.143L436.263 152.517L436.305 152.642Z" fill="white"/>
<path d="M432.757 184.615C433.926 183.279 434.636 182.486 434.886 182.152C435.053 181.943 435.136 181.776 435.095 181.609C435.053 181.443 434.886 181.401 434.677 181.484C433.676 181.818 432.131 182.403 430.044 183.154C427.999 183.947 426.413 184.49 425.411 184.823L423.95 185.324C422.573 185.867 420.778 186.66 418.566 187.662C418.441 187.161 418.232 186.41 417.981 185.45C417.689 184.49 417.522 183.738 417.355 183.279C417.188 182.82 416.896 182.11 416.521 181.15C416.103 180.19 415.853 179.522 415.644 179.063L416.646 178.813C417.063 178.688 417.481 178.562 417.981 178.437C418.441 178.312 418.816 178.187 419.067 178.145C419.317 178.062 419.693 177.978 420.235 177.853C422.573 177.227 426.079 176.1 430.712 174.514C431.756 174.138 433.342 173.595 435.47 172.844C437.599 172.093 439.227 171.508 440.27 171.175C442.733 170.298 446.615 168.879 451.874 166.834L452.959 170.548C453.252 171.383 453.711 172.594 454.337 174.263C454.963 175.933 455.422 177.185 455.714 178.02C457.175 182.236 457.801 185.199 457.592 186.91C456.883 190.625 454.838 193.088 451.498 194.257C448.994 195.133 446.657 195.091 444.528 194.173C442.399 193.255 440.604 191.627 439.185 189.248C437.223 191.418 433.342 196.26 427.54 203.732L425.161 206.653C424.994 206.111 424.785 205.318 424.493 204.191C424.159 203.064 423.95 202.271 423.783 201.728C423.241 200.184 422.615 198.598 421.905 197.011L430.629 187.244L432.924 184.656L432.757 184.615ZM445.279 178.02L441.147 179.439C439.477 180.023 438.183 180.441 437.307 180.691C438.267 183.53 439.644 185.408 441.314 186.243C442.984 187.119 445.112 187.119 447.658 186.243C448.702 185.867 449.578 185.491 450.246 185.074C451.206 184.49 451.874 183.863 452.25 183.154C452.625 182.486 452.834 181.735 452.792 181.025C452.792 180.274 452.625 179.439 452.333 178.521C452.041 177.602 451.791 176.726 451.498 175.849L445.237 177.978L445.279 178.02Z" fill="white"/>
<path d="M425.703 208.49L435.721 211.245C447.199 214.417 457.133 216.921 465.606 218.758C465.606 218.967 465.648 219.175 465.606 219.426C465.606 219.718 465.606 219.968 465.606 220.26C465.606 220.553 465.606 220.761 465.648 220.928C465.69 221.262 465.773 221.554 465.898 221.93C466.024 222.306 466.107 222.598 466.191 222.932L465.314 223.516C453.961 229.777 442.608 236.288 431.254 243.05L430.712 243.468L430.211 243.551C430.169 243.009 430.086 242.216 430.044 241.172C429.961 240.129 429.877 239.335 429.835 238.751C429.627 237.207 429.334 235.704 428.917 234.201C433.759 231.906 437.348 230.111 439.686 228.775C439.602 228.108 439.477 227.064 439.352 225.728C439.227 224.351 439.102 223.307 438.976 222.64C438.768 221.22 438.392 219.008 437.891 215.961L437.098 215.836C435.261 215.46 433.383 215.043 431.463 214.667C429.501 214.292 427.707 213.999 426.079 213.833C426.12 212.956 426.079 212.079 425.953 211.161C425.828 210.326 425.62 209.492 425.369 208.657L425.787 208.615L425.703 208.49ZM441.397 216.838L442.816 226.981C446.03 225.311 450.121 223.057 455.046 220.219C450.246 218.883 445.905 217.798 441.94 216.963L441.439 216.838H441.397Z" fill="white"/>
<path d="M429.293 253.944C429.46 253.151 429.585 252.442 429.627 251.732C429.668 250.897 429.668 250.021 429.543 249.144C433.508 249.812 437.641 250.397 441.94 250.814C446.239 251.273 450.914 251.649 455.964 251.983C456.966 252.066 458.427 252.15 460.431 252.275C462.434 252.4 463.937 252.483 464.938 252.567C466.065 252.65 466.984 252.692 467.61 252.65C467.276 253.861 467.109 254.654 467.109 255.113C467.067 255.614 467.109 256.491 467.276 257.701C464.688 259.746 462.309 261.624 460.097 263.419C457.884 265.214 455.464 267.176 452.751 269.388C450.037 271.559 447.742 273.437 445.78 274.981C443.818 276.526 441.648 278.237 439.269 280.032L451.54 280.908L457.801 281.326C458.719 281.409 459.888 281.409 461.307 281.409C462.726 281.409 463.812 281.409 464.479 281.451H465.606C465.272 282.661 465.105 283.454 465.105 283.913C465.064 284.289 465.064 284.748 465.105 285.249C465.147 285.75 465.147 286.167 465.147 286.501C463.77 286.293 462.726 286.167 462.058 286.126C459.387 285.708 457.05 285.416 455.046 285.207C453.877 285.082 452.917 284.999 452.208 284.915C451.457 284.832 450.622 284.707 449.578 284.581C448.535 284.456 447.575 284.373 446.698 284.289C445.822 284.206 445.112 284.122 444.528 284.08L438.893 283.663L427.164 282.828C427.206 282.703 427.248 282.494 427.289 282.244C427.373 281.91 427.415 281.367 427.456 280.7C427.54 279.698 427.54 278.863 427.456 278.279C435.888 272.018 443.15 266.425 449.203 261.416L455.964 255.864C452.542 255.489 450.079 255.28 448.535 255.197L443.401 254.821C437.056 254.362 432.34 254.153 429.168 254.195L429.251 253.861L429.293 253.944Z" fill="white"/>
<path d="M418.316 326.238C416.27 321.229 416.187 315.803 418.107 309.959C420.069 303.865 423.408 299.608 428.124 297.228C432.632 294.849 437.724 294.557 443.443 296.435C449.286 298.355 453.335 301.987 455.589 307.371C457.593 312.38 457.634 317.806 455.756 323.608C454.17 328.492 451.624 332.206 448.159 334.794C445.279 336.923 442.358 338.092 439.436 338.3C436.514 338.551 433.509 338.217 430.504 337.215C427.79 336.339 425.37 334.919 423.241 333.041C421.112 331.163 419.484 328.909 418.357 326.321L418.316 326.238ZM424.117 322.773C426.496 325.236 429.877 327.198 434.344 328.617C436.764 329.41 439.227 329.744 441.773 329.702C444.319 329.66 446.573 329.034 448.535 327.824C450.539 326.613 451.916 324.735 452.751 322.272C453.502 319.935 453.544 317.764 452.876 315.761C452.25 313.757 451.165 312.004 449.704 310.627C447.366 308.373 443.777 306.453 438.977 304.909C436.514 304.116 434.093 303.74 431.672 303.823C429.251 303.907 427.123 304.533 425.244 305.743C423.324 306.954 421.989 308.832 421.154 311.337C419.86 315.344 420.82 319.184 424.117 322.815V322.773Z" fill="white"/>
<path d="M92.7458 379.915C98.2092 379.915 102.638 375.486 102.638 370.023C102.638 364.559 98.2092 360.13 92.7458 360.13C87.2825 360.13 82.8535 364.559 82.8535 370.023C82.8535 375.486 87.2825 379.915 92.7458 379.915Z" fill="white"/>
<path d="M415.352 379.915C420.815 379.915 425.244 375.486 425.244 370.023C425.244 364.559 420.815 360.13 415.352 360.13C409.888 360.13 405.459 364.559 405.459 370.023C405.459 375.486 409.888 379.915 415.352 379.915Z" fill="white"/>
</g>
<defs>
<clipPath id="clip0_1130_9275">
<rect width="500" height="500" fill="white"/>
</clipPath>
</defs>
</svg>
