<svg width="500" height="500" viewBox="0 0 500 500" fill="none" xmlns="http://www.w3.org/2000/svg">
<path fill-rule="evenodd" clip-rule="evenodd" d="M349.563 14.3077L453.508 90.3297C457.283 244.308 391.157 410.209 250.25 487.555C109.305 410.192 43.272 244.324 46.9973 90.3297L150.942 14.3077C203.766 63.4011 296.734 63.4011 349.563 14.3077Z" fill="#023F86"/>
<path fill-rule="evenodd" clip-rule="evenodd" d="M348.327 0C348.327 0 316.371 40.1648 250.25 40.1648C184.129 40.1648 152.173 0 152.173 0L36.2936 84.7527C36.2936 84.7527 18.9804 377.615 250.25 499.824C481.519 377.615 464.206 84.7527 464.206 84.7527L348.327 0ZM350.107 27.2527L443.382 95.4725C444.607 242.489 383.794 399.879 250.25 475.967C116.717 399.879 55.8705 242.451 57.1178 95.4725L150.393 27.2527C178.233 49.8571 214.239 61.1538 250.25 61.1538C313.436 61.1538 350.107 27.2527 350.107 27.2527Z" fill="#F7A600"/>
<path fill-rule="evenodd" clip-rule="evenodd" d="M250.36 385.06L253.321 393.511L262.283 393.769L255.113 399.137L257.695 407.764L250.332 402.621L242.926 407.709L245.536 399.137L238.404 393.703L247.387 393.527L250.36 385.06ZM295.668 390.038L298.629 398.494L307.618 398.698L300.42 404.126L303.047 412.714L295.64 407.593L288.277 412.687L290.849 404.093L283.706 398.643L292.695 398.494L295.668 390.038ZM205.069 390.033L207.981 398.511L216.97 398.747L209.832 404.115L212.42 412.725L205.008 407.593L197.58 412.665L200.212 404.115L193.074 398.659L202.085 398.473L205.069 390.033ZM229.865 409.978L232.777 418.456L241.766 418.692L234.629 424.06L237.212 432.67L229.805 427.538L222.376 432.61L225.003 424.06L217.871 418.604L226.876 418.412L229.865 409.978ZM270.926 409.978L273.838 418.456L282.827 418.692L275.69 424.06L278.277 432.67L270.865 427.538L263.437 432.61L266.069 424.06L258.931 418.604L267.942 418.412L270.926 409.978ZM250.398 431.297L253.299 439.78L262.288 440.016L255.151 445.385L257.739 453.994L250.332 448.863L242.904 453.94L245.536 445.385L238.404 439.94L247.404 439.742L250.398 431.297ZM250.382 340.368L253.283 348.89L262.316 349.049L255.074 354.467L257.646 363.071L250.354 357.951L242.942 363.044L245.547 354.456L238.36 348.983L247.371 348.852L250.382 340.368ZM207.547 342.665L210.448 351.181L219.481 351.341L212.239 356.764L214.81 365.363L207.519 360.247L200.107 365.341L202.712 356.753L195.525 351.28L204.541 351.143L207.547 342.665ZM293.239 342.665L296.107 351.181L305.157 351.341L297.931 356.764L300.459 365.363L293.19 360.247L285.766 365.341L288.382 356.753L281.19 351.28L290.195 351.143L293.239 342.665ZM164.69 344.967L167.657 353.445L176.618 353.582L169.47 359.071L172.058 367.648L164.651 362.511L157.299 367.61L159.882 359.016L152.717 353.582L161.728 353.467L164.69 344.967ZM336.058 344.962L338.997 353.44L347.975 353.648L340.761 359.038L343.398 367.654L336.019 362.544L328.607 367.599L331.223 359.06L324.041 353.582L333.096 353.44L336.058 344.962ZM182.629 370.071L185.596 378.516L194.618 378.72L187.42 384.187L190.008 392.769L182.629 387.637L175.234 392.703L177.816 384.17L170.657 378.692L179.684 378.555L182.629 370.071ZM318.107 370.077L321.047 378.555L330.041 378.791L322.849 384.165L325.453 392.769L318.047 387.637L310.629 392.714L313.277 384.165L306.14 378.714L315.129 378.516L318.107 370.077ZM272.975 364.324L275.893 372.808L284.887 373.038L277.75 378.412L280.338 387.016L272.915 381.885L265.492 386.962L268.118 378.412L260.992 372.962L269.997 372.764L272.975 364.324ZM227.843 364.319L230.755 372.797L239.739 372.989L232.547 378.478L235.157 387.027L227.816 381.885L220.393 387L223.008 378.429L215.832 372.972L224.849 372.797L227.843 364.319ZM188.453 320.082L191.453 328.522L200.442 328.703L193.261 334.187L195.86 342.764L188.453 337.665L181.08 342.709L183.673 334.154L176.492 328.676L185.508 328.533L188.453 320.082ZM312.277 320.088L315.201 328.549L324.195 328.786L317.014 334.176L319.618 342.753L312.195 337.643L304.794 342.714L307.437 334.176L300.288 328.725L309.277 328.5L312.277 320.088ZM147.212 322.368L150.195 330.863L159.162 331.099L152.014 336.511L154.591 345.066L147.195 339.967L139.766 345.066L142.426 336.462L135.255 331.016L144.239 330.863L147.212 322.368ZM353.563 322.401L356.459 330.819L365.442 331.044L358.266 336.494L360.871 345.038L353.525 339.923L346.118 345.016L348.723 336.467L341.558 330.973L350.525 330.819L353.563 322.401ZM229.805 315.467L232.695 323.989L241.69 324.203L234.492 329.654L237.096 338.209L229.734 333.038L222.36 338.187L224.926 329.61L217.761 324.121L226.777 323.978L229.805 315.467ZM271.052 315.489L273.953 323.989L282.926 324.181L275.761 329.626L278.393 338.181L270.97 333.033L263.569 338.181L266.173 329.588L259.041 324.154L268.014 323.962L271.052 315.489ZM370.679 294.83L373.635 303.308L382.679 303.527L375.475 308.978L378.025 317.555L370.679 312.418L363.294 317.533L365.843 308.945L358.728 303.445L367.712 303.308L370.679 294.83ZM129.97 294.83L132.926 303.308L141.97 303.527L134.766 308.978L137.316 317.555L129.97 312.418L122.585 317.533L125.135 308.945L118.019 303.445L127.003 303.308L129.97 294.83ZM330.64 294.846L333.53 303.352L342.525 303.544L335.354 308.984L337.981 317.538L330.558 312.39L323.173 317.538L325.761 308.945L318.646 303.511L327.635 303.319L330.64 294.846ZM170.074 294.824L173.047 303.352L182.085 303.533L174.909 308.967L177.431 317.56L170.074 312.39L162.657 317.516L165.294 308.967L158.14 303.484L167.129 303.319L170.074 294.824ZM210.19 292.533L213.168 301.055L222.206 301.242L215.03 306.67L217.552 315.269L210.19 310.099L202.772 315.225L205.409 306.67L198.255 301.187L207.25 301.027L210.19 292.533ZM290.486 292.555L293.442 301.066L302.393 301.269L295.234 306.698L297.821 315.242L290.442 310.126L283.058 315.236L285.651 306.698L278.541 301.203L287.508 301.016L290.486 292.555ZM250.404 290.258L253.299 298.764L262.288 298.956L255.118 304.396L257.739 312.951L250.321 307.802L242.937 312.951L245.519 304.357L238.409 298.923L247.404 298.736L250.404 290.258ZM344.036 264.363L346.997 272.841L356.036 273.06L348.832 278.505L351.387 287.088L344.036 281.951L336.651 287.066L339.201 278.473L332.085 272.978L341.069 272.841L344.036 264.363ZM381.519 264.363L384.481 272.841L393.525 273.06L386.316 278.505L388.871 287.088L381.519 281.951L374.135 287.066L376.684 278.473L369.574 272.978L378.558 272.841L381.519 264.363ZM119.129 264.363L122.085 272.841L131.129 273.06L123.926 278.505L126.47 287.088L119.129 281.951L111.744 287.066L114.288 278.473L107.173 272.978L116.157 272.841L119.129 264.363ZM306.635 264.379L309.525 272.885L318.514 273.077L311.343 278.516L313.975 287.071L306.552 281.929L299.162 287.071L301.75 278.478L294.64 273.044L303.629 272.857L306.635 264.379ZM156.596 264.357L159.574 272.885L168.613 273.071L161.437 278.5L163.953 287.093L156.596 281.929L149.179 287.049L151.816 278.5L144.662 273.016L153.657 272.857L156.596 264.357ZM194.107 264.368L196.992 272.868L206.063 273.104L198.843 278.527L201.437 287.082L194.08 281.956L186.701 287.082L189.283 278.483L182.179 273.027L191.118 272.868L194.107 264.368ZM269.113 264.385L272.069 272.89L281.019 273.093L273.86 278.522L276.448 287.071L269.063 281.956L261.684 287.066L264.272 278.522L257.162 273.027L266.135 272.841L269.113 264.385ZM231.662 264.379L234.558 272.885L243.547 273.077L236.376 278.516L238.997 287.071L231.58 281.929L224.19 287.071L226.777 278.478L219.668 273.044L228.662 272.857L231.662 264.379ZM160.448 201.478L137.008 201.44V190.632L134.448 187.868L121.986 187.824L119.124 190.549V231.835L121.871 234.478L134.316 234.522L137.008 231.896V221.67L160.448 221.736V240.181L146.712 254.192H109.299L95.75 240.044V182.335L109.519 168.769H146.909L160.448 182.335V201.478ZM207.547 214.632H218.338L212.964 201.198L207.547 214.632ZM236.008 168.769V188.099L231.662 188.077L250.283 234.538H255.283V254.192H222.646V234.538H225.464L224.266 230.802H201.723L200.365 234.538H203.063V254.192H170.53L170.569 234.538H175.651L194.442 188.027L190.777 188.016V168.769H236.008ZM308.931 190.967L306.162 188.253L294.459 188.225V200.555H306.113L308.931 197.808V190.967ZM308.931 222.346L306.074 219.588H294.459V234.863L306.08 234.879L308.937 232.258L308.931 222.346ZM332.267 215.681V240.582L318.591 254.192H265.953V234.78H271.162V188.165H266.135L266.129 168.769H318.766L332.267 182.819V204.473L326.618 210.077L332.267 215.676V215.681ZM401.069 188.511V240.709L387.338 254.192H356.212L342.695 240.582V219.978L366.063 220.038L366.052 232.39L368.832 235.016L374.838 235.038L377.706 232.407V188.39H370.448V168.769H406.234V188.484L401.069 188.511ZM216.854 106.225L219.827 114.731L228.838 114.929L221.651 120.363L224.206 128.962L216.827 123.786L209.47 128.879L212.096 120.313L204.904 114.863L213.931 114.681L216.854 106.225ZM183.624 103.94L186.558 112.418L195.563 112.676L188.321 118.049L190.964 126.659L183.503 121.516L176.162 126.593L178.75 118.027L171.629 112.571L180.64 112.418L183.624 103.94ZM117.052 103.934L119.992 112.385L129.025 112.626L121.86 118.044L124.365 126.676L117.036 121.484L109.651 126.604L112.244 118.027L105.069 112.56L114.058 112.385L117.052 103.934ZM83.7775 103.934L86.717 112.385L95.75 112.626L88.5852 118.044L91.0961 126.676L83.761 121.484L76.3764 126.604L78.9698 118.027L71.7939 112.56L80.783 112.385L83.7775 103.934ZM150.327 103.962L153.338 112.412L162.283 112.654L155.118 118.088L157.673 126.637L150.305 121.516L142.898 126.637L145.541 118.071L138.36 112.604L147.376 112.412L150.327 103.962ZM250.129 106.225L253.102 114.731L262.113 114.929L254.926 120.363L257.481 128.962L250.102 123.786L242.745 128.879L245.371 120.313L238.179 114.863L247.206 114.681L250.129 106.225ZM283.404 106.225L286.376 114.731L295.387 114.929L288.201 120.363L290.756 128.962L283.376 123.786L276.019 128.879L278.646 120.313L271.453 114.863L280.481 114.681L283.404 106.225ZM316.706 106.176L313.739 114.681L304.728 114.874L311.915 120.313L309.354 128.912L316.734 123.736L324.096 128.83L321.47 120.264L328.662 114.813L319.629 114.632L316.706 106.176ZM349.937 103.89L347.003 112.363L338.003 112.626L345.245 118L342.596 126.61L350.063 121.462L357.398 126.544L354.81 117.973L361.931 112.516L352.926 112.363L349.937 103.89ZM416.508 103.879L413.569 112.335L404.541 112.577L411.706 117.989L409.195 126.626L416.53 121.429L423.915 126.549L421.321 117.973L428.492 112.511L419.503 112.335L416.508 103.879ZM383.234 103.912L380.228 112.363L371.283 112.604L378.448 118.033L375.893 126.588L383.261 121.462L390.662 126.582L388.019 118.016L395.206 112.555L386.184 112.363L383.234 103.912ZM151.475 47.967L154.437 56.4505L163.47 56.6648L156.277 62.1209L158.827 70.6978L151.475 65.5549L144.091 70.6703L146.635 62.0824L139.525 56.5879L148.508 56.4505L151.475 47.967ZM349.217 47.9176L346.261 56.3956L337.223 56.6099L344.42 62.0659L341.871 70.6428L349.217 65.5055L356.602 70.6154L354.063 62.0275L361.168 56.5385L352.19 56.3956L349.217 47.9176ZM112.799 74.1923L115.739 82.6648L124.745 82.9286L117.53 88.3077L120.14 96.9121L112.695 91.7692L105.338 96.8516L107.937 88.2857L100.816 82.8242L109.827 82.6648L112.799 74.1923ZM215.953 78.8571L218.909 87.2912L227.893 87.533L220.739 92.9945L223.332 101.533L215.882 96.3956L208.547 101.511L211.173 92.9011L204.014 87.4615L213.008 87.2802L215.953 78.8571ZM250.343 78.8571L253.299 87.2912L262.288 87.533L255.135 92.9945L257.728 101.533L250.277 96.3956L242.937 101.511L245.563 92.9011L238.409 87.4615L247.404 87.2802L250.343 78.8571ZM284.739 78.8571L287.695 87.2912L296.679 87.533L289.525 92.9945L292.118 101.533L284.668 96.3956L277.327 101.511L279.953 92.9011L272.799 87.4615L281.794 87.2802L284.739 78.8571ZM147.184 76.5659L150.184 85.011L159.135 85.2472L151.97 90.6868L154.525 99.2418L147.151 94.1154L139.75 99.2363L142.393 90.6703L135.206 85.2033L144.234 85.011L147.184 76.5659ZM181.574 76.5659L184.58 85.011L193.525 85.2472L186.36 90.6868L188.915 99.2418L181.541 94.1154L174.14 99.2363L176.783 90.6703L169.602 85.2033L178.624 85.011L181.574 76.5659ZM387.893 74.1923L384.959 82.6648L375.953 82.9286L383.168 88.3077L380.558 96.9121L388.003 91.7692L395.36 96.8516L392.761 88.2857L399.882 82.8242L390.871 82.6648L387.893 74.1923ZM319.135 76.5659L316.179 84.9945L307.195 85.2417L314.349 90.7033L311.756 99.2418L319.206 94.1044L326.541 99.2198L323.92 90.6044L331.074 85.1703L322.08 84.9835L319.135 76.5659ZM353.514 76.5659L350.514 85.011L341.563 85.2472L348.728 90.6868L346.173 99.2418L353.547 94.1154L360.948 99.2363L358.305 90.6703L365.486 85.2033L356.464 85.011L353.514 76.5659ZM197.195 133.665L200.168 142.099L209.146 142.346L201.997 147.808L204.585 156.346L197.14 151.209L189.788 156.319L192.415 147.709L185.266 142.275L194.261 142.088L197.195 133.665ZM161.799 133.665L164.788 142.121L173.745 142.352L166.574 147.797L169.129 156.346L161.75 151.22L154.382 156.341L156.986 147.775L149.816 142.308L158.827 142.121L161.799 133.665ZM126.371 133.665L129.36 142.121L138.316 142.352L131.146 147.797L133.701 156.346L126.321 151.22L118.953 156.341L121.563 147.775L114.387 142.308L123.404 142.121L126.371 133.665ZM90.9753 133.665L93.9203 142.154L102.904 142.39L95.739 147.797L98.261 156.346L90.9148 151.247L83.5247 156.313L86.1621 147.764L78.9478 142.297L87.9643 142.154L90.9753 133.665ZM232.651 133.665L235.646 142.121L244.596 142.352L237.431 147.797L239.981 156.346L232.602 151.22L225.239 156.341L227.854 147.775L220.673 142.308L229.69 142.121L232.651 133.665ZM268.08 133.665L271.069 142.121L280.025 142.352L272.86 147.797L275.404 156.346L268.03 151.22L260.668 156.341L263.283 147.775L256.102 142.308L265.118 142.121L268.08 133.665ZM338.926 133.615L335.953 142.049L326.975 142.291L334.129 147.753L331.536 156.291L338.986 151.159L346.332 156.269L343.712 147.659L350.854 142.22L341.865 142.038L338.926 133.615ZM374.321 133.615L371.338 142.066L362.382 142.302L369.547 147.742L366.997 156.291L374.376 151.165L381.739 156.291L379.135 147.72L386.305 142.258L377.294 142.066L374.321 133.615ZM409.723 133.615L406.778 142.104L397.794 142.341L404.959 147.742L402.431 156.291L409.783 151.192L417.168 156.258L414.536 147.714L421.75 142.247L412.728 142.104L409.723 133.615ZM303.47 133.615L300.481 142.066L291.53 142.297L298.69 147.742L296.146 156.291L303.525 151.165L310.882 156.291L308.272 147.72L315.448 142.258L306.437 142.066L303.47 133.615Z" fill="#F7A600"/>
</svg>
