<svg width="500" height="500" viewBox="0 0 500 500" fill="none" xmlns="http://www.w3.org/2000/svg">
<path fill-rule="evenodd" clip-rule="evenodd" d="M174.503 7.06135C174.362 12.2976 174.339 21.4369 173.489 26.6767C173.277 27.98 172.531 31.7483 172.137 33.1025L171.799 34.117L171.123 36.8227L170.785 37.8372L170.446 39.1893L169.77 40.5422L169.432 41.895L168.418 43.9247L168.08 44.9391L167.742 45.6159L167.404 46.6304L165.714 50.0121L165.376 50.3505L164.362 52.3802L164.024 52.7178L163.01 54.7475L162.672 55.0859L161.996 56.438L161.659 56.7764L161.32 57.4525L160.982 57.7902L160.644 58.4669L160.306 58.8053L159.968 59.4814L159.292 60.1582L158.954 60.8343L158.616 61.1727L158.278 61.8487L157.941 62.1871L157.602 62.8632L156.25 64.2153L155.912 64.8921L155.236 65.5689L154.898 66.245L152.531 68.613L152.194 69.2891L150.504 70.9803L150.165 71.6564L147.799 74.0244L147.123 74.3621L144.419 77.0678L143.743 77.4062L141.377 79.7728L140.701 80.1112L140.363 80.4496L139.686 80.7873L138.334 82.1394L137.658 82.4785L137.32 82.8162L136.644 83.1539L135.629 84.1684L134.277 84.8444L133.601 85.5212L132.925 85.8596L132.587 86.1973L131.911 86.5357L131.235 87.2117L129.882 87.8885L129.545 88.2269L128.192 88.9037L127.855 89.2414L126.503 89.9175L126.164 90.2558L123.46 91.6087C123.033 91.9164 123.2 91.9722 122.446 92.2848L121.432 92.6232L121.094 92.9608L119.066 93.976L118.051 94.3137L117.714 94.6514L116.699 94.9898L114.671 96.0042L111.628 97.0194C110.708 97.4011 110.346 97.7185 109.262 98.0339L107.909 98.3723L103.853 99.7244L98.4443 101.077L96.4161 101.416C93.7578 101.903 92.4601 102.147 89.6553 102.43L85.9372 102.768H78.4997L72.0773 102.092C70.3951 101.831 67.6497 101.222 65.9926 100.74L62.9492 99.7244L61.5971 99.3867L59.5688 98.3723L58.5544 98.0339L55.174 96.3433L54.4979 95.6665L52.4697 94.6514L52.132 94.3137L51.4559 93.976L50.7798 93.2999L50.1037 92.9615L49.7661 92.6239L49.09 92.2855L47.735 90.9333L47.0583 90.5949L45.7061 89.2428C45.4842 89.0823 44.8584 88.9281 44.3539 88.2283L44.0163 87.5515L42.3264 85.861L41.9887 85.1842L39.9605 83.1553L38.946 81.1257L38.2699 80.788L35.9033 78.4206L33.8751 74.3621H19V124.415L19.3384 134.561C19.5721 140.653 19.8233 146.749 20.3529 152.823L20.6905 156.543C20.9326 159.699 21.0596 162.861 21.3666 166.012L21.7043 169.056L22.3804 176.497L23.3942 184.951C23.7298 187.939 23.9293 191.127 24.4086 194.082L24.747 195.773C25.1503 198.261 25.3575 201.064 25.7615 203.551L26.0992 205.242L26.4369 207.609L27.1129 211.668L27.4506 214.035L27.7883 215.726C28.126 217.698 28.29 219.883 28.8028 221.813L29.1412 222.828L29.4788 225.195L29.8172 226.886L30.1549 228.915L30.4926 230.268C31.0989 232.965 31.5448 235.694 32.1825 238.384C32.5362 239.958 32.7455 241.569 33.1969 243.12L33.5346 244.135L34.2107 247.517L34.8868 250.222L35.5635 252.59L35.9005 254.619L36.2389 255.633L36.5773 256.985L36.915 258L37.2534 259.691L37.9288 261.721L38.9432 265.779L39.2809 266.455L39.6186 267.807L39.957 268.823L40.2947 270.513L40.9708 272.543L41.3085 273.896L41.6461 274.572L41.9845 275.924L42.3222 276.6C42.662 277.519 42.8713 279.198 43.336 280.321C43.6186 281.002 43.7686 281.175 44.0121 282.011C44.3407 283.14 44.5744 284.302 45.0258 285.393L45.3642 286.071L46.3787 289.113L46.7164 289.791L47.0541 291.143L48.0685 294.186C48.3678 294.671 48.3351 294.134 48.7446 295.538L49.0823 296.891L49.4207 297.568L49.7584 298.583L50.0961 299.259L50.7721 301.288L51.1105 301.965L51.4482 302.979L51.7866 303.656L52.1243 304.67L52.8004 306.023L53.4765 308.051L54.1525 309.404L54.4902 310.418L54.8279 311.095L55.1663 312.11L55.504 312.786L55.8417 313.8L57.1938 316.506L57.5315 317.521L58.5453 319.55L58.8837 320.564L59.2214 321.241L59.5591 322.256L59.8967 322.593L60.5728 323.946L60.9105 324.96L66.9959 337.136L67.3336 337.473L70.0379 342.884L70.3763 343.222C70.5877 343.564 70.7105 344.439 71.0524 344.913C71.3601 345.34 71.4159 345.173 71.7285 345.928L72.0661 346.943L72.7422 347.619L73.4183 348.972L73.756 349.309L75.1081 352.014L75.4458 352.353L75.7842 353.029L76.1219 353.368L77.1364 355.396L77.4741 355.734L77.8118 356.411L78.1494 356.749L78.4871 357.763L79.1639 358.439L79.5023 359.116L79.84 359.454L80.1777 360.469L80.5154 360.807L80.853 361.484L81.1907 361.821L81.5284 362.498L81.8668 362.836L82.5429 364.189L82.8806 364.526L83.2183 365.203L83.556 365.541L83.8944 366.217L84.5704 366.894L85.2465 368.246L85.9226 368.923L86.2603 369.599L86.598 369.937L86.9357 370.614L87.2733 370.951L87.6117 371.629C87.9194 372.055 87.9752 371.888 88.2878 372.643L88.6255 373.657L89.6393 374.672C91.094 376.287 92.1943 377.792 93.3587 379.406L93.6957 380.083L94.0341 380.421L94.3725 381.097L95.0486 381.774L95.3863 382.451L96.4 383.465L96.7377 384.142L97.4138 384.818L97.7522 385.495L98.4283 386.172L98.766 386.848L100.118 388.2L100.456 388.878L101.133 389.554L101.47 390.23L102.822 391.583L103.161 392.259L104.513 393.611L104.851 394.289L106.54 395.98L106.879 396.656L108.231 398.009L108.569 398.685L111.273 401.391L111.611 402.067L113.64 404.097L113.977 404.773L118.034 408.831L118.372 409.507C118.588 409.724 119.076 409.754 119.386 410.185L119.724 410.861C119.941 411.077 120.429 411.108 120.739 411.538C121.061 411.985 120.873 412.01 121.415 412.551L122.091 413.228L126.486 417.625L127.162 418.301L127.838 418.64L129.866 420.668L130.205 421.345C130.421 421.562 130.909 421.592 131.219 422.021L131.556 422.698L132.233 423.036L134.599 425.403L135.275 425.742L137.303 427.771L137.979 428.108L140.683 430.814H141.36C141.36 432.048 141.611 431.617 142.374 432.167L143.726 433.52L144.402 433.857L146.43 435.886L147.107 436.225L149.135 438.253H150.149C150.149 439.487 150.4 439.056 151.164 439.606L151.84 440.282C152.288 440.604 152.314 440.416 152.854 440.959H153.53C153.53 442.193 153.781 441.762 154.545 442.311L154.882 442.648L155.559 442.987L156.573 444.001L157.249 444.34L158.264 445.354L158.94 445.692L159.616 446.368L160.292 446.706L160.968 447.382L161.645 447.721L161.982 448.058L162.658 448.397L163.672 449.411L164.348 449.75L164.686 450.087L165.363 450.425L166.377 451.44L167.729 452.116L168.405 452.792L169.081 453.131L169.758 453.807L171.11 454.484L171.786 455.16L172.462 455.498L172.8 455.836L173.476 456.175L174.152 456.851L175.505 457.527L176.181 458.204L176.857 458.542L177.195 458.88L177.871 459.218L178.21 459.556L178.886 459.894L179.223 460.231L179.899 460.57L180.237 460.908L181.589 461.584L181.928 461.922L182.604 462.26L182.942 462.597L183.618 462.936L184.632 463.95L185.646 464.288L185.985 464.626L186.661 464.964L186.999 465.302L188.351 465.979L189.028 466.655L191.056 467.67L191.393 468.008L192.07 468.346L192.408 468.683L193.76 469.36L194.098 469.697L194.774 470.035L195.112 470.374L197.14 471.388L197.477 471.726L198.83 472.402L199.168 472.74L200.52 473.418L200.858 473.756L202.886 474.77L203.224 475.107L204.577 475.785L204.914 476.122L208.295 477.813L208.632 478.152L209.309 478.49L209.647 478.827L210.999 479.504L212.013 479.841L212.35 480.179L215.055 481.532L215.393 481.87L219.45 483.899L219.787 484.237L222.492 485.589L223.505 485.927L223.844 486.265L240.069 494.382L241.084 494.72C241.392 494.911 241.314 495.071 242.098 495.397L243.112 495.735L245.14 496.749L246.154 497.087L246.83 497.425H252.915C253.277 497.366 255.243 496.682 255.619 496.41L255.957 496.072L256.971 495.735L260.352 494.044L261.365 493.705L269.479 489.648L271.506 488.971L272.183 488.294L278.268 485.251C278.818 485.022 279.463 484.931 279.959 484.574C280.548 484.15 280.396 483.939 281.311 483.559C281.955 483.319 283.138 482.934 283.677 482.545L284.015 482.208L286.044 481.193L286.382 480.854L287.734 480.178L288.072 479.84L290.776 478.487L291.112 478.15C291.454 477.937 292.329 477.815 292.803 477.472L293.141 477.135L294.493 476.458L294.832 476.12L295.509 475.782L295.845 475.444C296.187 475.232 297.062 475.11 297.535 474.768L297.874 474.43L298.549 474.092L298.888 473.754L300.916 472.739L301.254 472.401L302.606 471.725L302.944 471.387L304.296 470.711L304.635 470.372L305.31 470.034L305.648 469.696L308.352 468.344L309.03 467.667L310.382 466.99L310.719 466.652L312.071 465.976L312.747 465.299L314.775 464.284L315.453 463.608L316.805 462.931L317.141 462.593L317.818 462.255L318.156 461.918L318.832 461.58L319.17 461.242L319.847 460.905L320.184 460.566L320.861 460.228L321.537 459.552L322.889 458.875L323.226 458.537L323.902 458.199L324.241 457.861L324.916 457.523L325.594 456.847L326.268 456.508L326.607 456.171L327.959 455.494L328.636 454.817L329.311 454.479L329.649 454.142L330.326 453.803L331.002 453.127L331.678 452.789L332.017 452.452L332.692 452.114L333.705 451.099L334.383 450.761L334.72 450.423L335.396 450.085L336.073 449.408L336.749 449.07L337.086 448.733L337.764 448.395L339.116 447.042L340.468 446.365L341.482 445.351L342.159 445.014L342.497 444.675L343.172 444.338L343.51 443.999L344.186 443.661C344.776 443.236 344.624 443.026 345.539 442.646C347.023 442.032 348.765 439.675 350.272 438.589L350.948 437.912L351.624 437.574L351.961 436.898L352.638 436.56L353.315 435.883L353.99 435.545L355.004 434.531L355.681 434.193L358.385 431.487L359.062 431.149L360.753 429.458L361.427 429.12C367.933 423.262 374.171 417.048 380.359 410.858C380.581 410.697 381.206 410.543 381.712 409.844L382.386 408.491L384.754 406.123L385.092 405.447L389.487 401.05L389.823 400.374L391.177 399.021L391.513 398.344C393.723 396.134 395.452 393.727 397.598 391.581L397.936 390.904L398.614 390.228L398.95 389.551L399.965 388.536L400.303 387.86L401.316 386.845L401.655 386.169L402.669 385.155L403.006 384.477L403.343 384.14L403.681 383.463L404.696 382.449L405.032 381.771L405.71 381.095L406.048 380.419L406.386 380.081L406.723 379.404C407.05 378.953 407.904 378.434 408.075 377.714V377.037H408.752L409.429 375.685L409.766 375.347L410.103 374.669L410.781 373.993L411.117 373.317L411.795 372.641L412.469 371.288L413.147 370.612L413.485 369.934L413.823 369.596L414.16 368.92L414.498 368.582L414.836 367.906L415.174 367.568L415.512 366.891L416.187 366.214L416.865 364.862L417.54 364.186L418.555 362.156L419.231 361.48L419.908 360.128L420.244 359.79L420.582 359.113L420.921 358.775L421.258 358.098L421.595 357.761L421.933 356.746L422.271 356.408L422.609 355.731L422.947 355.393L423.284 354.717C423.656 354.202 423.474 354.675 423.961 353.702C424.176 353.272 424.356 352.739 424.638 352.35L424.974 352.012L425.652 350.659L425.99 350.321L426.326 349.644L426.665 349.306L428.693 345.249L429.368 344.571L429.706 343.557L431.058 340.852L431.397 340.514L433.764 335.779L434.1 335.441L434.439 334.427L434.777 334.089C435.3 333.362 435.795 331.508 436.129 331.045C436.438 330.618 436.493 330.787 436.806 330.03L437.143 329.016L439.51 324.282L439.847 323.267L441.2 320.562L441.536 319.547L442.889 316.842L443.227 315.827L444.579 313.121L444.917 312.107L445.255 311.43L445.932 309.401L446.946 307.372L447.621 305.343L448.298 303.99L448.973 301.962L449.651 300.609L449.988 299.257L450.327 298.58L450.663 297.566L451.34 296.214L451.678 294.861L452.354 292.831C452.736 291.911 453.052 291.548 453.369 290.464L453.705 289.111L454.044 288.435L455.059 285.391C455.339 284.711 455.491 284.537 455.734 283.701L456.072 282.348L457.763 277.275L458.099 275.922L458.777 273.894C459.005 273.107 459.137 272.287 459.451 271.526L459.79 270.849L460.805 266.791C461.012 266.231 461.256 265.947 461.48 265.1L461.819 263.409L462.156 262.395L462.495 260.703L463.17 258.675L463.848 255.969L464.522 253.601C464.853 252.134 465.116 250.652 465.538 249.204L466.551 245.147L466.89 243.117L467.226 242.103L467.903 239.397L468.241 237.367L468.577 236.015L469.255 232.633L469.593 231.28L469.931 229.251L470.606 226.208C470.838 224.86 470.932 223.477 471.283 222.15L471.622 221.135C471.949 219.816 472.326 216.399 472.635 214.709L472.973 213.019L473.309 210.651L473.648 208.96L474.325 204.225L474.661 202.534C475.082 199.955 475.234 197.333 475.677 194.756L476.015 193.065C476.553 189.743 476.943 184.476 477.367 180.89L478.043 175.479L478.719 167.362L479.058 164.995L479.394 160.259L480.071 151.129L480.409 147.408C480.736 142.841 480.913 137.472 481.085 132.866L481.423 122.72V74.3579H468.268L464.548 78.0781L464.211 78.7548L461.506 81.7982L459.816 83.4895L459.477 84.1656L458.464 85.18L458.126 85.8568L456.437 87.5473C454.681 89.0111 453.153 90.7917 451.365 92.282L450.688 92.6204L450.352 92.958L449.675 93.2964L448.998 93.9725L448.322 94.3102L447.984 94.6479L445.957 95.6631L445.28 96.3398L441.899 98.0304L440.886 98.3688L438.857 99.3832L437.505 99.7209C435.39 100.338 434.223 100.899 431.759 101.412L429.73 101.75L428.378 102.088C427.243 102.292 422.779 102.711 421.616 102.764H414.518C411.167 102.625 405.29 101.811 402.009 101.073L400.657 100.735L398.967 100.397L397.953 100.059L395.249 99.3825L389.164 97.3529L387.812 96.6768L385.783 96L385.107 95.6624L384.092 95.3247L380.036 93.2957L379.023 92.9574L378.685 92.6197L376.656 91.6052L376.318 91.2668C375.977 91.0554 375.103 90.9319 374.627 90.59L374.291 90.2523L373.614 89.914L373.276 89.5756L371.249 88.5611L370.91 88.2234L370.234 87.885L369.897 87.5466L369.22 87.2083L368.882 86.8706L367.53 86.1945L366.855 85.5184L366.178 85.18L365.84 84.8416L365.164 84.5032L364.149 83.4895L362.797 82.8127L361.783 81.7975L361.106 81.4599L360.431 80.7831C359.984 80.4607 359.957 80.6484 359.417 80.1063H358.74C358.74 78.8735 358.489 79.3039 357.727 78.7541L356.036 77.0629L355.359 76.7245L347.583 68.9465L345.893 66.5785L344.202 64.8879L343.866 64.2112L343.189 63.5351L342.851 62.8583L341.838 61.8438L341.162 60.491L340.147 59.4765L339.472 58.1244L338.794 57.4476L338.456 56.7715L338.12 56.4331L337.782 55.4187L337.444 55.081L337.105 54.4042L336.767 54.0665L336.092 52.7137L335.754 52.376L334.74 50.3463L334.402 50.008L333.05 47.303L332.712 46.2878L332.373 45.6117C332.147 45.0612 332.053 44.4151 331.698 43.9212L331.36 43.5828L330.347 40.5394L330.008 39.8626C329.456 38.5293 328.809 36.0301 328.318 34.4519C327.144 30.4164 326.303 24.811 325.952 20.5857C325.545 14.7326 325.447 8.86213 325.275 3H174.841L174.503 7.06135Z" fill="white"/>
<path fill-rule="evenodd" clip-rule="evenodd" d="M183.292 15.8546C183.292 30.2266 178.59 46.6234 173.083 55.3545C169.672 60.7624 167.421 65.3952 163.265 70.2212C161.268 72.5404 159.473 74.644 157.513 76.9806C156.281 78.4493 151.658 81.7808 151.516 83.4937C150.547 83.5739 139.759 92.3427 137.723 93.7067C133.17 96.7585 127.66 100.084 122.334 102.324C111.265 106.979 99.444 111.902 83.9054 111.902H82.5532C69.9826 111.902 56.8023 108.446 49.4247 103.447C44.7815 100.301 41.6711 98.2035 37.674 94.2342C35.0527 91.6304 30.1764 84.7545 27.7896 83.1553C27.7896 109.975 28.0365 134.941 29.8157 159.59C31.5146 183.135 35.2048 207.087 39.368 228.494C47.6086 270.859 62.2723 311.583 80.9736 343.79C89.9342 359.223 101.689 377.268 113.229 389.983C116.455 393.539 119.126 396.894 122.528 400.296C125.214 402.985 129.345 408.291 132.109 410.325C134.737 412.258 139.495 417.405 142.127 419.918C145.397 423.042 149.183 425.968 152.621 429.035C159.524 435.191 167.528 440.309 174.778 446.098C178.016 448.684 182.846 451.6 186.47 454.018C190.494 456.7 194.365 459.179 198.495 461.602C204.465 465.103 245.32 488.649 249.888 488.649H250.227C254.862 488.649 292.673 466.552 299.134 463.176C306.541 459.304 314.692 453.205 321.691 448.539C329.401 443.396 335.967 437.847 343.193 432.51C346.717 429.907 349.835 426.699 353.27 423.993C355.174 422.494 356.217 421.212 358.126 419.72C359.063 418.988 359.693 418 360.453 417.314C361.265 416.58 361.978 416.254 363.051 415.177C366.225 411.99 369.166 409.057 372.345 405.876C375.611 402.609 378.33 399.183 381.47 396.065C387.276 390.298 393.225 382.291 398.235 375.636C400.688 372.378 403.999 368.205 406.061 364.865C408.155 361.474 411.123 356.506 413.442 353.309C416.889 348.554 424.514 335.195 426.895 329.569C430.579 320.862 434.902 312.976 438.622 303.76C440.467 299.192 442.124 295.054 443.715 290.255C445.112 286.032 446.867 280.67 448.523 276.465C452.102 267.38 453.506 256.218 456.782 247.186C458.193 243.289 459.058 236.37 460.155 231.961C461.318 227.283 462.445 221.422 463.234 216.441C463.577 214.278 463.984 210.516 464.473 208.551C465.182 205.712 465.052 203.032 465.685 200.293C466.952 194.812 467.121 189.543 468.002 183.672C468.798 178.378 469.074 172.211 469.886 166.956C470.562 162.581 471.158 154.012 471.322 149.793C471.787 137.872 472.662 125.935 472.662 113.594V83.1567C471.532 83.5663 464.469 92.2813 463.111 93.8944C460.346 97.1841 455.322 100.551 451.636 103.043C444.39 107.943 431.408 111.904 419.251 111.904H417.899C390.96 111.904 363.438 96.9566 349.69 83.7567C340.079 74.5289 335.324 69.1154 328.116 57.3165C323.441 49.6675 316.822 32.2416 316.822 20.2529V11.796H183.292V15.8546Z" fill="black"/>
<path fill-rule="evenodd" clip-rule="evenodd" d="M218.788 164.659C211.762 166.297 201.862 173.286 196.273 176.969C191.63 180.03 181.685 189.897 178.625 194.485C169.358 208.381 160.644 223.857 160.644 246.84V250.898C160.644 261.908 163.601 271.784 166.347 280.026C169.456 289.358 173.955 295.305 178.83 302.71C182.034 307.579 191.63 316.92 196.546 320.159C200.1 322.5 203.243 324.932 207.179 327.108C209.004 328.116 211.238 329.225 213.04 330.037C214.116 330.522 218.789 331.925 218.789 333.079V464.297C222.046 465.057 230.503 470.511 234.113 472.301C236.014 473.243 248.969 479.854 249.889 479.854C251.593 479.854 263.898 473.489 265.708 472.345C267.415 471.267 279.992 464.608 281.327 464.297V333.079C281.327 331.95 290.978 328.006 292.485 327.333C296.236 325.658 299.56 323.158 302.821 320.764C309.18 316.096 315.443 310.179 320.263 304.055C325.562 297.325 329.191 290.908 332.82 282.461C335.174 276.982 339.472 262.293 339.472 254.957V245.826C339.472 226.957 329.985 204.415 321.299 194.339C315.39 187.486 311.194 182.549 303.841 176.97C300.22 174.223 297.658 172.324 293.383 170.186C290.763 168.875 283.86 165.25 281.327 164.661V19.5747H218.789L218.788 164.659Z" fill="white"/>
<path fill-rule="evenodd" clip-rule="evenodd" d="M165.376 241.767V254.619C165.376 264.328 170.259 278.934 173.601 285.621C177.986 294.389 183.401 301.904 189.969 308.476C200.777 319.288 222.578 333.08 243.804 333.08H258.339C266.975 333.08 282.097 327.456 288.202 324.401C296.889 320.054 303.98 314.644 310.483 308.138C316.801 301.816 322.294 294.061 326.514 285.621C329.68 279.289 334.739 264.412 334.739 255.296V243.459C334.739 221.105 321.309 199.755 309.978 188.417C302.745 181.181 296.282 176.709 286.622 171.876C279.515 168.321 265.322 163.646 254.959 163.646H246.847C224.138 163.646 202.421 176.132 190.985 187.574C183.99 194.571 178.745 201.195 174.05 210.538C170.541 217.515 165.376 231.667 165.376 241.767Z" fill="black"/>
<path fill-rule="evenodd" clip-rule="evenodd" d="M169.771 247.516C169.771 291.165 205.222 328.682 247.86 328.682H249.212C273.847 328.682 293.15 318.782 305.413 306.446C317.171 294.618 330.006 275.595 330.006 252.251V241.767C330.006 231.785 325.113 219.461 321.669 212.569C317.285 203.797 312.139 197.344 305.583 190.784C294.45 179.648 274.49 168.38 252.254 168.38H246.169C223.914 168.38 204.059 181.431 192.497 192.468C181.206 203.247 169.771 225.372 169.771 247.516Z" fill="white"/>
<path fill-rule="evenodd" clip-rule="evenodd" d="M93.709 119.341V348.297C93.709 351.096 104.91 365.767 106.96 368.861C111.639 375.923 117.116 381.266 121.903 387.732C125.092 392.039 152.758 420.076 156.249 421.009V89.5804C153.968 91.1077 152.227 93.1353 149.966 94.7944C147.667 96.4815 145.588 97.9738 143.345 99.6679C139.158 102.832 133.724 105.753 128.867 108.181C123.764 110.731 118.604 113.295 112.631 114.936C109.765 115.723 106.874 116.822 103.717 117.515C100.352 118.253 96.8877 118.6 93.709 119.341Z" fill="white"/>
<path fill-rule="evenodd" clip-rule="evenodd" d="M343.866 421.348C346.758 419.411 349.926 416.071 352.737 413.651C355.886 410.941 358.598 408.465 361.528 405.536C366.461 400.607 373.782 393.474 377.812 388.006C382.6 381.506 388.052 376.417 392.744 369.464C394.771 366.46 406.068 351.611 406.068 348.974V119.003C396.011 119.003 378.339 111.741 371.249 108.181C366.297 105.695 361.531 102.701 357.05 99.7259C354.819 98.2453 345.194 90.2733 343.866 89.9182V421.348Z" fill="white"/>
<path fill-rule="evenodd" clip-rule="evenodd" d="M198.843 245.825V251.575C198.843 255.746 200.876 262.436 202.336 265.328C203.157 266.951 208.634 276.557 208.646 276.6C211.217 276.386 214.317 272.09 216.421 271.528C215.552 268.269 209.46 262.822 209.322 256.646H229.605V285.732L239.137 285.731L238.394 208.962V200.846C234.186 200.846 226.199 204.764 222.958 206.37C218.203 208.725 214.651 212.274 211.094 215.808C205.34 221.522 198.843 234.299 198.843 245.825Z" fill="black"/>
<path fill-rule="evenodd" clip-rule="evenodd" d="M242.793 180.96L242.789 316.168H255.635C264.262 316.168 271.819 311.927 278.528 310.31L274.904 301.966C268.307 303.503 261.704 307.039 253.607 307.039H251.917V189.685H253.607C255.492 189.685 262.682 190.869 264.135 191.328C266.442 192.057 271.487 194.374 273.369 194.339L276.933 185.965C274.9 185.796 269.879 183.216 266.765 182.609C262.914 181.859 259.695 180.554 254.959 180.554L251.236 180.472L242.793 180.96Z" fill="black"/>
<path fill-rule="evenodd" clip-rule="evenodd" d="M182.278 245.149V247.855C182.278 269.805 189.281 280.409 198.64 293.037C201.703 297.17 210.7 304.395 215.515 306.93C220.091 309.337 232.162 315.154 238.394 315.154V305.685C228.743 305.685 210.125 293.207 205.739 287.288C198.652 277.724 191.406 266.646 191.406 250.222V247.178C191.406 230.406 198.511 219.821 205.739 210.113C210.648 203.519 228.24 191.884 238.394 191.039V181.57C233.254 181.684 220.801 187.494 216.643 189.569C211.984 191.896 202.788 198.99 199.794 202.812C195.055 208.863 191.407 213.301 188.023 220.797C185.563 226.245 182.278 237.335 182.278 245.149Z" fill="black"/>
<path fill-rule="evenodd" clip-rule="evenodd" d="M284.031 307.376C286.669 306.762 298.246 296.729 300.17 294.437C302.17 292.056 311.751 279.431 311.751 276.601C311.751 275.23 304.993 272.923 303.638 272.204C302.966 275.09 295.416 287.159 293.158 287.762V208.963C295.694 209.64 302.894 222.002 303.692 225.327L312.09 221.815C311.708 217.231 303.479 206.208 300.682 203.127C296.83 198.882 289.118 192.041 284.031 189.348V307.376Z" fill="black"/>
<path fill-rule="evenodd" clip-rule="evenodd" d="M207.97 244.135V247.517H229.267V213.698C220.528 215.734 207.97 232.917 207.97 244.135Z" fill="white"/>
</svg>
