<svg width="500" height="500" viewBox="0 0 500 500" fill="none" xmlns="http://www.w3.org/2000/svg">
<path d="M25 101.222V130.186C25.0754 130.336 26.5839 161.261 27.2628 164.957C27.7153 167.371 27.7908 171.067 28.0925 173.405C28.3942 176.196 28.6959 178.911 29.073 181.702C29.7518 187.057 31.0341 192.865 31.4866 198.069C31.9392 203.123 33.7494 208.629 34.3528 213.682C34.8054 217.529 36.6156 224.921 37.6716 228.843C38.9538 233.519 40.3869 238.799 41.4429 243.551C42.4989 248.227 44.4599 253.281 45.7422 257.957C46.949 262.332 48.7592 267.687 50.4186 271.76C52.1534 276.06 53.5111 280.962 55.4722 285.186C56.4527 287.223 57.207 289.636 58.1121 291.824C59.0172 294.011 60.1486 296.123 60.9783 298.235C62.4114 301.855 64.9759 307.89 66.8615 311.057C68.9735 314.603 71.2362 319.581 73.1219 323.352C75.0075 327.123 77.572 331.875 79.8348 335.42C84.7375 343.264 89.1122 350.656 94.1658 358.35C99.1439 365.817 104.273 372.756 109.628 379.922C115.059 387.162 120.791 393.423 126.524 400.211C132.03 406.773 138.215 413.335 144.324 419.445C150.66 425.781 157.071 431.287 163.558 437.472C169.592 443.204 176.908 449.389 183.47 454.518C190.108 459.798 197.65 465.907 204.665 470.584C208.361 472.997 211.831 475.788 215.526 478.202C219.298 480.691 222.918 483.105 226.765 485.669C230.536 488.158 234.383 490.421 238.079 492.91C241.247 495.022 247.205 497.813 249.695 500H250.147C251.58 498.718 259.5 494.041 261.612 492.985C265.308 491.1 269.381 488.083 273.001 485.82C280.016 481.37 288.388 475.788 294.95 470.735C302.04 465.304 308.979 460.175 316.07 454.82C323.084 449.54 329.345 443.204 336.133 437.849C339.075 435.586 343.072 431.664 345.787 428.949C348.88 425.856 352.199 423.065 355.291 419.973C357.554 417.71 362.758 412.732 364.342 410.545C365.097 409.564 367.736 406.773 368.792 405.717C370.376 404.133 371.583 402.474 373.167 400.89C379.126 394.856 384.406 387.238 389.987 380.751C392.778 377.583 395.342 373.586 397.907 370.192C400.547 366.722 403.187 362.951 405.6 359.33C415.632 344.245 424.532 329.386 432.905 312.641C434.941 308.493 436.751 304.269 438.788 300.045C440.598 296.349 442.936 291.07 444.369 287.147C445.953 282.622 447.839 278.247 449.498 273.797C451.233 269.347 452.515 264.444 454.175 259.994C457.343 251.395 459.983 240.534 462.321 231.106C464.81 221.15 466.696 211.118 468.581 200.332C469.335 196.108 470.919 188.339 471.07 184.342C471.146 181.702 471.674 178.685 472.051 176.045C472.428 173.48 472.579 170.237 472.956 167.672C473.484 164.203 475.068 133.203 475.143 133.127V106.351L474.464 89.7571H474.766L474.238 89.0783V86.4384L388.026 0H387.8C384.707 2.71534 377.693 7.61804 374.072 9.72997C369.396 12.4453 364.719 15.8395 359.817 18.7811C350.388 24.3626 339.527 30.3213 328.817 34.5452C323.009 36.808 317.955 38.9199 311.77 41.0318C306.49 42.8421 299.476 45.1803 293.668 46.1608C290.953 46.6134 287.106 47.5939 284.089 48.1973C280.77 48.8762 277.527 49.1779 273.982 49.7058C267.948 50.6864 259.047 51.2898 252.259 51.2898H248.714C241.926 51.2898 232.799 50.7618 226.765 49.7813C220.203 48.6499 212.811 47.8956 206.852 46.2362C200.366 44.426 194.784 42.9929 188.599 40.9564C183.018 39.0708 176.531 37.0342 171.478 34.6206C165.971 31.9807 160.767 29.7933 155.487 27.1534C150.283 24.5889 145.229 21.7982 140.327 18.8565C136.103 16.3675 113.852 2.56449 112.117 0.0754261H111.665L25.6788 86.2875L25 101.222Z" fill="black"/>
<path d="M31.1094 106.502L31.1848 125.735C31.1848 128.752 31.4111 131.92 31.4111 134.485C31.4111 137.879 31.8636 140.594 31.8636 143.234C31.8636 147.76 32.1653 156.283 32.9196 160.431C33.2213 162.091 33.5984 167.144 33.7493 168.653C33.9001 171.293 34.2018 174.536 34.579 177.025C34.9561 179.062 35.6349 183.135 35.6349 185.02C35.6349 187.434 36.5401 190.602 36.8418 193.091C37.5206 198.522 38.652 203.424 39.4817 208.704C40.2359 213.456 42.0462 219.113 42.725 223.714C43.4793 228.692 45.2141 233.746 46.3455 238.347C47.326 242.269 48.9854 249.057 50.4185 252.753C52.1533 257.203 53.1338 262.03 54.944 266.481C56.6788 270.931 58.2628 275.381 59.8467 279.831C63.0901 288.656 67.2385 297.104 70.9344 305.476C78.1753 321.617 87.9053 338.135 97.3335 352.316C102.312 359.783 107.139 366.647 112.494 373.661C117.397 380.072 123.431 388.143 128.862 393.8C134.896 400.06 140.251 406.547 146.436 412.732C149.453 415.749 152.47 419.068 155.563 421.859C158.73 424.725 162.2 427.742 165.142 430.759C171.1 436.793 178.568 441.922 184.828 447.579C191.013 453.16 198.857 458.44 205.57 463.569C212.358 468.774 219.901 473.676 227.142 478.579C234.006 483.18 242.529 488.912 249.77 492.684V157.49H246.677C229.405 157.49 210.925 156.208 195.991 153.643C192.22 152.964 188.071 152.587 184.3 151.833C180.679 151.154 176.154 150.098 172.684 149.645C170.346 149.344 151.565 144.818 150.584 144.215C147.19 144.215 122.073 135.767 118.076 134.259C107.592 130.186 97.7861 126.565 87.6036 122.266C77.6473 118.042 68.2945 113.29 58.7908 108.614C54.1144 106.275 49.4379 103.711 44.8369 101.146C42.6496 99.9397 32.5425 93.7547 31.1848 93.453L31.1094 106.502Z" fill="#E1171D"/>
<path d="M31.8638 88.6257C33.4477 90.813 71.3117 110.424 76.6669 112.687C84.7375 116.081 92.2047 119.777 100.577 123.171C108.949 126.49 116.869 129.507 125.694 132.448C143.494 138.407 160.164 142.782 180.152 146.855C197.952 150.475 221.183 153.417 242.378 153.417H251.882C297.741 153.417 337.566 144.667 372.111 133.203C381.238 130.185 389.308 127.168 397.832 123.85C401.98 122.19 406.053 120.456 410.201 118.645C414.199 116.91 418.423 114.648 422.27 113.139C427.549 111.103 466.545 90.7376 468.053 88.6257L387.347 8.07054C385.386 9.12651 382.822 11.2384 380.785 12.5961C378.447 14.1801 376.486 15.6132 373.921 17.1217C369.17 19.9879 364.795 23.2312 359.817 25.7957C354.989 28.2848 350.238 31.1509 345.184 33.7154C339.98 36.3554 334.775 38.241 329.495 40.8055C326.403 42.314 316.371 46.2362 313.053 46.915C310.639 47.3676 307.094 48.8007 304.379 49.6304C301.361 50.46 298.42 51.2897 295.327 51.9686C283.033 54.5331 270.21 57.0975 255.201 57.0975H246.677C217.412 57.0975 192.371 49.1778 171.251 40.9564C149.302 32.3578 130.898 20.2896 112.57 7.99512L31.8638 88.6257Z" fill="white"/>
<path d="M261.084 103.409V105.295C261.084 111.404 263.12 117.288 265.76 120.757C268.174 123.925 273.605 128.074 278.885 128.074H281.751C293.894 128.074 302.87 120.229 302.87 108.387V105.069C302.87 94.0564 294.573 83.723 283.636 83.723H281.977C270.211 83.723 261.084 91.9445 261.084 103.409Z" fill="black"/>
<path d="M336.284 85.3824V88.2486C336.284 93.3776 339.452 100.392 341.564 103.636C343.6 106.728 349.559 111.782 354.311 111.782H359.289C363.663 111.782 370.527 108.312 372.79 106.049C375.807 102.957 379.05 99.0346 379.05 93.0759V90.436C379.05 85.2316 375.581 77.9907 373.243 74.8982C370.753 71.5794 365.021 67.2047 359.59 67.2047H358.157C352.349 67.2047 346.768 69.8446 343.374 72.3337C340.281 74.4456 336.284 80.4043 336.284 85.3824Z" fill="black"/>
<path d="M396.323 50.5356L407.938 76.4067L380.182 58.0782L372.563 61.6232L390.666 100.543L398.058 97.2244L386.442 71.9566L413.595 89.8326L421.59 86.2876L403.413 47.2922L396.323 50.5356Z" fill="black"/>
<path d="M142.062 113.064L150.962 115.251C151.414 114.421 156.317 106.728 156.619 106.728C158.58 106.728 162.728 108.086 164.765 108.538C167.329 109.066 170.799 110.122 173.213 110.273L174.721 120.984L174.947 120.833L183.923 122.869L176.833 77.2364L167.857 75.2753L142.062 113.064Z" fill="black"/>
<path d="M82.3994 76.5576V78.8958C82.3994 83.0442 85.9444 89.2291 88.5089 91.1148C91.9785 93.6793 95.7498 96.4701 101.633 96.4701H103.971C108.195 96.4701 113.852 92.0199 115.587 89.38L109.251 83.6476C106.687 85.3824 105.706 88.6257 100.502 88.6257C95.599 88.6257 90.998 84.1002 90.998 79.122C90.998 72.4091 97.3338 60.1147 103.368 60.1147H106.234C110.533 60.1147 114.757 64.3385 114.757 69.0904V71.2777L123.28 73.088L123.582 69.9955V69.4675C123.582 60.1147 114.229 52.6475 105.103 52.6475H103.67C96.5795 52.6475 92.1294 56.4188 88.8861 60.4164C86.397 63.4334 82.3994 71.3532 82.3994 76.5576Z" fill="black"/>
<path d="M220.278 105.069V109.594C220.278 120.531 228.273 129.507 239.286 129.507C244.415 129.507 248.563 128.3 251.354 125.886C253.24 124.227 257.313 119.249 257.313 116.232V115.553L249.016 113.139C248.94 115.025 247.055 118.268 245.999 119.4C244.415 120.984 242.604 122.19 239.512 122.19H239.059C232.422 122.19 229.103 115.327 229.103 108.463V106.125C229.103 99.1854 232.573 92.6233 239.286 92.6233H240.719C244.264 92.6233 248.488 96.3946 248.789 99.7134C249.921 99.7134 257.313 98.054 257.313 97.6014C257.313 94.6598 253.315 89.9834 251.354 88.5503C248.261 86.3629 244.943 85.2316 239.738 85.2316C228.5 85.1561 220.278 94.0564 220.278 105.069Z" fill="black"/>
<path d="M270.135 102.202V106.502C270.135 113.516 274.811 120.757 281.75 120.757C289.595 120.757 293.819 115.553 293.819 107.709V106.502C293.819 99.1854 290.274 91.3411 283.41 91.3411H280.544C275.113 91.2657 270.135 96.8472 270.135 102.202Z" fill="white"/>
<path d="M345.108 85.6087V85.835C345.108 94.1319 350.237 104.088 358.383 104.088C364.342 104.088 369.999 99.638 369.999 93.9056V91.2657C369.999 85.0807 364.568 74.8982 358.836 74.8982H355.065C353.104 74.8982 349.332 77.161 348.276 78.2924C346.692 79.8009 345.108 82.6671 345.108 85.6087Z" fill="white"/>
<path d="M303.096 81.8374V82.7425C303.096 83.9493 304.68 91.1902 305.057 92.8496C305.887 96.2438 306.264 99.638 306.943 103.032C307.622 106.426 308.301 109.896 308.904 113.139C309.357 115.553 310.865 121.361 310.865 123.699L340.583 118.042L339.225 110.726L318.031 114.723L311.242 80.3289L303.096 81.8374Z" fill="black"/>
<path d="M160.842 100.015L172.156 102.655L170.195 87.2681L170.044 85.9858L160.842 100.015Z" fill="white"/>
<path d="M188.298 123.548L195.388 124.529L196.444 124.453L197.726 116.458L196.746 116.533L189.58 115.251L188.298 123.548Z" fill="black"/>
<path d="M117.397 103.334L125.09 106.2L128.032 98.582L120.188 95.7913L117.397 103.334Z" fill="black"/>
</svg>
