<svg width="500" height="500" viewBox="0 0 500 500" fill="none" xmlns="http://www.w3.org/2000/svg">
<path fill-rule="evenodd" clip-rule="evenodd" d="M25 130.186V101.222L25.6788 86.2875L111.665 0.0754261H112.117C113.852 2.56449 136.103 16.3675 140.327 18.8565C145.229 21.7982 150.283 24.5889 155.487 27.1534C158.498 28.6586 161.483 30.0166 164.514 31.3952C166.8 32.4347 169.111 33.4858 171.478 34.6206C175.772 36.6716 181.101 38.4503 186.03 40.0956C186.902 40.3864 187.761 40.6731 188.599 40.9564C193.38 42.5304 197.8 43.744 202.556 45.0498C203.953 45.4335 205.379 45.8251 206.852 46.2362C210.969 47.3825 215.769 48.0969 220.507 48.802C222.628 49.1176 224.736 49.4314 226.765 49.7813C232.799 50.7618 241.926 51.2898 248.714 51.2898H252.259C259.047 51.2898 267.948 50.6864 273.982 49.7058C275.177 49.5279 276.337 49.3756 277.478 49.226C279.722 48.9316 281.889 48.6474 284.089 48.1973C285.327 47.9496 286.706 47.6383 288.089 47.3261C290.074 46.8778 292.067 46.4276 293.668 46.1608C299.476 45.1803 306.49 42.8421 311.77 41.0318C316.421 39.4438 320.432 37.8557 324.605 36.2035C325.982 35.6585 327.376 35.1065 328.817 34.5452C339.527 30.3213 350.388 24.3626 359.817 18.7811C362.12 17.3993 364.373 15.9176 366.599 14.4534C369.113 12.8005 371.593 11.1698 374.072 9.72997C377.693 7.61804 384.707 2.71534 387.8 0H388.026L474.238 86.4384V89.0783L474.766 89.7571H474.464L475.143 106.351V133.127C475.119 133.151 474.945 136.264 474.701 140.621C474.172 150.048 473.317 165.299 472.956 167.672C472.767 168.955 472.635 170.407 472.503 171.859C472.371 173.31 472.239 174.762 472.051 176.045C471.978 176.553 471.9 177.075 471.821 177.606C471.487 179.832 471.131 182.21 471.07 184.342C470.948 187.586 469.882 193.314 469.081 197.615C468.895 198.614 468.723 199.536 468.581 200.332C466.696 211.118 464.81 221.15 462.321 231.106C462.212 231.546 462.102 231.99 461.991 232.436C459.735 241.544 457.195 251.797 454.175 259.994C453.401 262.069 452.709 264.242 452.016 266.422C451.221 268.918 450.424 271.422 449.498 273.797C448.81 275.643 448.083 277.475 447.355 279.311C446.327 281.902 445.296 284.499 444.369 287.147C442.936 291.07 440.598 296.349 438.788 300.045C437.842 302.008 436.944 303.97 436.051 305.925C435.021 308.178 433.995 310.42 432.905 312.641C424.532 329.386 415.632 344.245 405.6 359.33C403.187 362.951 400.547 366.722 397.907 370.192C397.023 371.361 396.139 372.603 395.246 373.857C393.548 376.243 391.816 378.675 389.987 380.751C387.852 383.232 385.762 385.879 383.66 388.539C380.268 392.834 376.847 397.164 373.167 400.89C372.375 401.682 371.677 402.493 370.98 403.304C370.282 404.114 369.584 404.925 368.792 405.717C367.736 406.773 365.097 409.564 364.342 410.545C363.059 412.317 359.399 415.921 356.853 418.429C356.256 419.016 355.721 419.543 355.291 419.973C353.745 421.519 352.142 422.99 350.539 424.461C348.936 425.932 347.334 427.402 345.787 428.949C343.072 431.664 339.075 435.586 336.133 437.849C333.034 440.294 330.045 442.943 327.044 445.602C323.471 448.769 319.882 451.95 316.07 454.82C313.41 456.829 310.772 458.805 308.139 460.778C303.752 464.065 299.381 467.341 294.95 470.735C288.388 475.788 280.016 481.37 273.001 485.82C271.772 486.588 270.49 487.443 269.189 488.312C266.658 490.001 264.053 491.74 261.612 492.985C259.5 494.041 251.58 498.718 250.147 500H249.695C248.194 498.681 245.432 497.143 242.782 495.667C241.035 494.695 239.337 493.749 238.079 492.91C236.084 491.566 234.045 490.289 231.998 489.006C230.252 487.912 228.501 486.815 226.765 485.669C222.918 483.105 219.298 480.691 215.526 478.202C213.679 476.995 211.887 475.694 210.096 474.393C208.304 473.092 206.513 471.791 204.665 470.584C198.328 466.359 191.56 460.965 185.418 456.069C184.761 455.546 184.112 455.028 183.47 454.518C176.908 449.389 169.592 443.204 163.558 437.472C160.936 434.972 158.326 432.583 155.729 430.205C151.9 426.7 148.099 423.22 144.324 419.445C138.215 413.335 132.03 406.773 126.524 400.211C124.895 398.282 123.265 396.395 121.643 394.517C117.557 389.785 113.516 385.105 109.628 379.922C104.273 372.756 99.1439 365.817 94.1658 358.35C90.8114 353.243 87.7561 348.269 84.6469 343.208C83.072 340.644 81.4833 338.058 79.8348 335.42C77.572 331.875 75.0075 327.123 73.1219 323.352C72.6004 322.309 72.0501 321.174 71.4822 320.002C69.9963 316.937 68.3894 313.622 66.8615 311.057C64.9759 307.89 62.4114 301.855 60.9783 298.235C60.534 297.104 60.0031 295.973 59.4668 294.83C59.0017 293.839 58.5325 292.84 58.1121 291.824C57.7585 290.969 57.4279 290.08 57.0978 289.193C56.5831 287.808 56.0696 286.427 55.4722 285.186C54.318 282.7 53.3729 279.979 52.4368 277.285C51.7824 275.401 51.1324 273.53 50.4186 271.76C48.7592 267.687 46.949 262.332 45.7422 257.957C45.2094 256.014 44.5593 254.006 43.9056 251.986C42.9864 249.146 42.0601 246.284 41.4429 243.551C40.3869 238.799 38.9538 233.519 37.6716 228.843C36.6156 224.921 34.8054 217.529 34.3528 213.682C34.0704 211.317 33.5235 208.852 32.9752 206.381C32.3522 203.573 31.7274 200.757 31.4866 198.069C31.2242 195.05 30.6826 191.829 30.1415 188.61C29.7497 186.28 29.3581 183.951 29.073 181.702C28.6959 178.911 28.3942 176.196 28.0925 173.405C27.9692 172.45 27.8837 171.268 27.7949 170.04C27.6662 168.261 27.5305 166.385 27.2628 164.957C26.7692 162.27 25.8369 145.186 25.3359 136.005C25.1479 132.559 25.0206 130.227 25 130.186ZM31.1848 125.735L31.1094 106.502L31.1848 93.453C32.1438 93.6661 37.4679 96.8144 41.283 99.0704C42.8692 100.008 44.1946 100.792 44.8369 101.146C49.4379 103.711 54.1144 106.275 58.7908 108.614C60.2511 109.332 61.7078 110.053 63.1637 110.772C71.183 114.738 79.1771 118.691 87.6036 122.266C95.0923 125.428 102.377 128.222 109.878 131.1C112.576 132.135 115.302 133.181 118.076 134.259C122.073 135.767 147.19 144.215 150.584 144.215C151.565 144.818 170.346 149.344 172.684 149.645C175.005 149.948 177.798 150.521 180.477 151.07C181.803 151.342 183.101 151.608 184.3 151.833C186.367 152.246 188.548 152.546 190.718 152.845C192.506 153.091 194.287 153.336 195.991 153.643C210.925 156.208 229.405 157.49 246.677 157.49H249.77V492.684C242.652 488.976 234.294 483.374 227.492 478.814L227.142 478.579C225.691 477.596 224.227 476.614 222.76 475.628C216.908 471.699 210.998 467.73 205.57 463.569C203.497 461.985 201.315 460.387 199.108 458.769C194.17 455.15 189.103 451.436 184.828 447.579C182.234 445.235 179.433 442.982 176.618 440.717C172.639 437.516 168.632 434.293 165.142 430.759C162.794 428.351 160.11 425.943 157.512 423.612C156.854 423.022 156.202 422.437 155.563 421.859C153.498 419.995 151.467 417.897 149.447 415.81C148.442 414.771 147.439 413.735 146.436 412.732C143.002 409.298 139.825 405.772 136.644 402.243C134.096 399.415 131.546 396.585 128.862 393.8C123.962 388.696 118.572 381.628 113.964 375.586C113.464 374.931 112.974 374.288 112.494 373.661C107.139 366.647 102.312 359.783 97.3335 352.316C87.9053 338.135 78.1753 321.617 70.9344 305.476C69.9005 303.134 68.8313 300.786 67.7563 298.426C64.9885 292.348 62.1828 286.187 59.8467 279.831C58.2628 275.381 56.6788 270.931 54.944 266.481C54.0012 264.163 53.2834 261.742 52.5669 259.327C51.9077 257.104 51.2497 254.885 50.4185 252.753C49.0743 249.287 47.5311 243.1 46.5357 239.109C46.4698 238.845 46.4063 238.59 46.3455 238.347C45.97 236.82 45.528 235.243 45.0775 233.635C44.1706 230.4 43.2289 227.04 42.725 223.714C42.3779 221.362 41.7351 218.733 41.0889 216.091C40.4711 213.565 39.8503 211.027 39.4817 208.704C39.1473 206.576 38.7639 204.51 38.3809 202.445C37.8135 199.387 37.247 196.333 36.8418 193.091C36.7261 192.137 36.5218 191.083 36.3137 190.01C35.9791 188.284 35.6349 186.509 35.6349 185.02C35.6349 183.135 34.9561 179.062 34.579 177.025C34.2018 174.536 33.9001 171.293 33.7493 168.653C33.7091 168.251 33.6527 167.596 33.586 166.821C33.4026 164.69 33.1408 161.648 32.9196 160.431C32.1653 156.283 31.8636 147.76 31.8636 143.234C31.8636 141.997 31.7642 140.743 31.6586 139.411C31.5389 137.9 31.4111 136.288 31.4111 134.485C31.4111 133.255 31.359 131.886 31.3048 130.461C31.2461 128.916 31.1848 127.305 31.1848 125.735ZM76.6669 112.687C71.3117 110.424 33.4477 90.813 31.8638 88.6257L112.57 7.99512C130.898 20.2896 149.302 32.3578 171.251 40.9563C192.371 49.1778 217.412 57.0975 246.677 57.0975H255.201C270.21 57.0975 283.033 54.5331 295.327 51.9686C298.118 51.356 300.786 50.6205 303.498 49.873C303.791 49.7922 304.084 49.7113 304.379 49.6304C305.327 49.3405 306.377 48.977 307.444 48.6074C309.433 47.9191 311.482 47.2095 313.053 46.915C316.371 46.2362 326.403 42.314 329.495 40.8055C331.932 39.6219 334.353 38.583 336.765 37.5477C339.579 36.3398 342.382 35.137 345.184 33.7154C347.854 32.3605 350.44 30.9214 352.997 29.4981L352.998 29.4975C355.281 28.2271 357.54 26.9695 359.817 25.7957C362.965 24.1737 365.872 22.2802 368.786 20.3823L368.787 20.3821L368.787 20.3818L368.787 20.3817C370.48 19.279 372.175 18.1749 373.921 17.1217C375.864 15.9789 377.461 14.8794 379.137 13.7249L379.139 13.7233L379.15 13.7162L379.152 13.7145C379.684 13.3483 380.224 12.9766 380.785 12.5961C381.547 12.088 382.383 11.4743 383.234 10.8498L383.235 10.8495L383.235 10.8494C384.657 9.80529 386.12 8.73123 387.347 8.07054L468.053 88.6257C466.545 90.7376 427.549 111.103 422.27 113.139C420.048 114.01 417.7 115.133 415.343 116.261L415.343 116.261L415.343 116.261L415.342 116.261L415.342 116.261L415.342 116.261L415.342 116.261L415.341 116.262L415.341 116.262C413.618 117.086 411.889 117.913 410.201 118.645C406.053 120.456 401.98 122.19 397.832 123.85C389.308 127.168 381.238 130.186 372.111 133.203C337.566 144.667 297.741 153.417 251.882 153.417H242.378C221.183 153.417 197.952 150.475 180.152 146.855C160.164 142.782 143.494 138.407 125.694 132.448C116.869 129.507 108.949 126.49 100.577 123.171C95.9466 121.294 91.593 119.324 87.2611 117.364L87.2611 117.364L87.261 117.364L87.2609 117.364L87.2609 117.364L87.2608 117.364C83.7603 115.781 80.2738 114.204 76.6669 112.687ZM407.938 76.4067L396.323 50.5356L403.413 47.2922L421.59 86.2876L413.595 89.8326L386.442 71.9566L398.057 97.2244L390.666 100.543L372.563 61.6232L380.182 58.0782L407.938 76.4067ZM82.3994 76.5576V78.8958C82.3994 83.0442 85.9444 89.2291 88.5089 91.1148L88.5168 91.1206C91.9842 93.6835 95.7543 96.4701 101.633 96.4701H103.971C108.195 96.4701 113.852 92.0199 115.587 89.38L109.251 83.6476C108.501 84.155 107.887 84.7914 107.262 85.4379L107.262 85.438C105.752 87.0021 104.184 88.6257 100.502 88.6257C95.599 88.6257 90.998 84.1002 90.998 79.122C90.998 72.4091 97.3338 60.1147 103.368 60.1147H106.234C110.533 60.1147 114.757 64.3385 114.757 69.0904V71.2777L123.28 73.088L123.582 69.9955V69.4675C123.582 60.1147 114.229 52.6475 105.103 52.6475H103.67C96.5795 52.6475 92.1294 56.4188 88.8861 60.4164C86.397 63.4334 82.3994 71.3531 82.3994 76.5576ZM220.278 109.594V105.069C220.278 94.0564 228.5 85.1561 239.738 85.2316C244.943 85.2316 248.261 86.3629 251.354 88.5503C253.315 89.9834 257.313 94.6598 257.313 97.6014C257.313 98.054 249.921 99.7134 248.789 99.7134C248.488 96.3946 244.264 92.6233 240.719 92.6233H239.286C232.573 92.6233 229.103 99.1854 229.103 106.125V108.463C229.103 115.327 232.422 122.19 239.059 122.19H239.512C242.604 122.19 244.415 120.984 245.999 119.4C247.055 118.268 248.94 115.025 249.016 113.139L257.313 115.553V116.232C257.313 119.249 253.24 124.227 251.354 125.886C248.563 128.3 244.415 129.507 239.286 129.507C228.273 129.507 220.278 120.531 220.278 109.594ZM261.084 105.295V103.409C261.084 91.9445 270.211 83.723 281.977 83.723H283.636C294.573 83.723 302.87 94.0564 302.87 105.069V108.387C302.87 120.229 293.894 128.074 281.751 128.074H278.885C273.605 128.074 268.174 123.925 265.76 120.757C263.12 117.288 261.084 111.404 261.084 105.295ZM270.135 106.502V102.202C270.135 96.8472 275.113 91.2657 280.544 91.3411H283.41C290.274 91.3411 293.819 99.1854 293.819 106.502V107.709C293.819 115.553 289.595 120.757 281.75 120.757C274.811 120.757 270.135 113.516 270.135 106.502ZM336.284 85.3824V88.2486C336.284 93.3776 339.452 100.392 341.564 103.636C343.6 106.728 349.559 111.782 354.311 111.782H359.289C363.663 111.782 370.527 108.312 372.79 106.049C375.807 102.957 379.05 99.0346 379.05 93.0759V90.436C379.05 85.2316 375.581 77.9907 373.243 74.8982C370.753 71.5794 365.021 67.2047 359.59 67.2047H358.157C352.349 67.2047 346.768 69.8446 343.374 72.3337C340.281 74.4456 336.284 80.4043 336.284 85.3824ZM345.108 85.6087V85.835C345.108 94.1319 350.237 104.088 358.383 104.088C364.342 104.088 369.999 99.638 369.999 93.9056V91.2657C369.999 85.0807 364.568 74.8982 358.836 74.8982H355.065C353.104 74.8982 349.332 77.161 348.276 78.2924C346.692 79.8009 345.108 82.6671 345.108 85.6087ZM303.096 81.8374V82.7425C303.096 83.9493 304.68 91.1902 305.057 92.8496C305.555 94.8861 305.89 96.9226 306.225 98.9591C306.448 100.317 306.671 101.674 306.943 103.032C307.622 106.426 308.301 109.896 308.904 113.139C309.035 113.837 309.254 114.818 309.499 115.917C310.102 118.62 310.865 122.036 310.865 123.699L340.583 118.042L339.225 110.726L318.031 114.723L311.242 80.3289L303.096 81.8374ZM142.062 113.064L150.962 115.251C151.414 114.421 156.317 106.728 156.619 106.728C157.986 106.728 160.417 107.388 162.453 107.941C163.338 108.181 164.148 108.401 164.765 108.538C165.59 108.708 166.508 108.932 167.455 109.164L167.455 109.164L167.455 109.164C169.452 109.652 171.575 110.171 173.213 110.273L174.721 120.984L174.947 120.833L183.923 122.869L176.833 77.2364L167.857 75.2753L142.062 113.064ZM160.842 100.015L172.156 102.655L170.195 87.2681L170.044 85.9858L160.842 100.015ZM188.298 123.548L195.388 124.529L196.444 124.453L197.726 116.458L196.746 116.533L189.58 115.251L188.298 123.548ZM125.09 106.2L117.397 103.334L120.188 95.7913L128.032 98.582L125.09 106.2Z" fill="white"/>
</svg>
