<svg width="500" height="500" viewBox="0 0 500 500" fill="none" xmlns="http://www.w3.org/2000/svg">
<g clip-path="url(#clip0_1131_4363)">
<path d="M248.933 499.286C247.148 497.87 241.788 495.575 218.729 488.859C183.525 478.605 140.065 461.551 120.825 450.44C87.201 431.023 68.0063 405.025 61.2408 369.736C58.6987 356.476 58.2902 350.453 58.3251 326.748C58.3432 314.425 58.6298 300.24 58.962 295.224C59.2941 290.209 59.8488 277.869 60.1945 267.801C61.6723 224.77 57.8404 195.647 47.177 168.868C38.3772 146.768 26.4936 129.041 7.93341 110.326L0 102.326L5.10884 97.3994C15.6115 87.2711 22.7012 74.3601 25.9044 59.5288C27.1231 53.8857 27.146 40.2023 25.9453 34.9561C25.4863 32.95 25.1444 31.2767 25.1858 31.2376C25.227 31.1985 27.5826 31.319 30.4201 31.5056C54.1626 33.0662 82.2559 22.9796 98.4515 7.07953C100.933 4.64359 103.502 1.94711 104.161 1.08737C104.974 0.0271473 105.44 -0.250902 105.61 0.223196C105.748 0.607638 106.865 2.41019 108.092 4.22886C118.921 20.2775 140.534 34.3434 169.627 44.2761C207.077 57.0622 248.965 60.536 289.547 54.2213C331.551 47.6854 368.927 30.9603 386.643 10.7732C389.757 7.22545 393.687 1.74547 394.265 0.147447C394.397 -0.216789 394.988 0.173825 395.689 1.08737C398.355 4.56551 406.189 11.6967 410.626 14.6846C416.903 18.9113 421.116 21.1903 427.788 23.9685C441.539 29.6939 456.312 32.3678 469.43 31.5056C472.267 31.319 474.623 31.1984 474.664 31.2376C474.705 31.2767 474.364 32.95 473.904 34.9561C472.694 40.2473 472.727 53.8837 473.964 59.6209C477.403 75.5604 485.826 90.0533 497.518 100.146L500 102.288L493.66 108.483C463.214 138.233 446.719 171.637 441.328 214.46C438.841 234.213 438.719 251.755 440.769 294.964C442.383 329.001 442.112 346.265 439.701 362.962C437.693 376.863 434.262 388.336 428.695 399.765C416.554 424.692 395.982 443.176 363.437 458.4C341.934 468.458 308.027 480.979 280.335 489.088C257.532 495.764 252.695 497.902 250.917 499.286C250.503 499.608 249.925 500 249.925 500C249.925 500 249.339 499.608 248.933 499.286Z" fill="#007A3F"/>
<path d="M248.876 487.543C247.445 486.735 240.378 484.488 228.428 481.043C207.34 474.963 187.819 468.398 169.573 461.251C130.908 446.106 115.451 437.314 99.4358 421.355C90.8688 412.818 86.3715 406.869 81.6817 397.873C71.876 379.062 68.3369 360.516 68.4076 328.312C68.4278 319.141 68.8285 304.721 69.2981 296.266C70.4984 274.662 70.9174 240.405 70.1243 228.737C66.7263 178.754 51.6634 142.163 20.6591 108.575C15.5258 103.014 15.0144 102.286 15.6452 101.441C16.0315 100.924 17.7247 98.6926 19.4078 96.4833C30.3396 82.1336 37.5819 62.9592 37.5819 48.3663V42.661L42.1696 42.313C54.236 41.3976 70.575 36.2853 84.2449 29.1479C90.034 26.1253 98.2884 20.8046 101.781 17.8443L103.849 16.0907L108.955 21.1647C129.823 41.9038 166.023 57.5797 208.767 64.3873C223.358 66.7112 231.128 67.2519 249.925 67.2519C268.722 67.2519 276.491 66.7112 291.083 64.3873C325.638 58.8838 356.49 47.38 378.117 31.9348C383.337 28.2069 390.452 22.0264 393.306 18.741L395.746 15.9326L398.636 18.2727C413.707 30.4734 439.375 40.9244 457.68 42.313L462.268 42.661V48.3663C462.268 62.8646 469.549 82.2348 480.284 96.294C482.054 98.612 483.83 100.948 484.23 101.484C484.892 102.37 484.65 102.782 481.6 105.964C460.393 128.087 445.805 152.887 437.903 180.249C429.509 209.316 427.647 236.175 430.277 290.274C431.518 315.823 431.748 339.941 430.846 350.196C429.264 368.194 425.86 381.877 419.826 394.486C414.479 405.66 408.753 413.506 399.282 422.639C386.291 435.168 371.152 444.4 347.183 454.412C321.629 465.087 296.896 473.753 269.848 481.51C261.278 483.968 254.259 486.201 250.449 487.682C250.017 487.85 249.309 487.788 248.876 487.543ZM258.465 468.796C263.14 467.396 270.268 465.275 274.305 464.084C302.145 455.871 337.98 442.439 356.578 433.246C389.685 416.881 406.731 396.577 412.99 366.053C416.138 350.703 416.712 327.074 414.794 291.837C414.09 278.896 413.772 266.089 413.771 250.538C413.77 235.707 413.59 228.074 413.245 228.222C412.957 228.347 377.684 244.78 334.862 264.74C242.65 307.722 237.121 310.297 188.551 332.899C167.916 342.501 145.031 353.155 137.694 356.575C130.357 359.995 116.644 366.386 107.221 370.776L90.0873 378.759L90.9064 380.891C99.476 403.195 115.649 419.495 142.429 432.815C161.332 442.217 195.679 455.193 223.71 463.521C228.756 465.021 236.542 467.368 241.012 468.737C245.481 470.107 249.325 471.253 249.552 471.285C249.78 471.316 253.791 470.196 258.465 468.796ZM147.948 315.296C173.735 303.232 180.571 299.412 190.204 291.689C201.616 282.539 211.03 269.459 214.686 257.675C217.093 249.915 217.656 245.824 217.619 236.345C217.59 228.675 217.403 226.566 216.443 223.067C211.805 206.166 198.062 202.941 172.909 212.85C170.065 213.97 159.334 218.809 149.061 223.603L130.384 232.32V277.848V323.375L132.088 322.647C133.025 322.247 140.162 318.939 147.948 315.296ZM154.628 266.292L154.764 238.923L161.513 235.794C172.54 230.683 179.757 229.375 184.678 231.596C187.559 232.896 190.524 236.479 191.615 239.978C192.922 244.167 192.762 254.521 191.308 259.867C188.632 269.71 182.062 278.587 172.853 284.803C169.479 287.08 156.376 293.661 155.217 293.661C154.608 293.661 154.514 289.298 154.628 266.292ZM249.4 280.258C256.334 277.74 260.423 275.365 264.654 271.399C268.818 267.495 272.137 262.439 274.557 256.318C276.107 252.394 290.404 201.889 290.061 201.548C289.978 201.465 285.554 203.414 280.231 205.88L270.552 210.363L268.837 220.097C266.183 235.166 265.545 238.494 265.348 238.299C265.248 238.2 264.065 233.206 262.718 227.201C261.372 221.197 260.112 216.107 259.919 215.891C259.643 215.583 239.806 224.38 238.968 225.183C238.794 225.349 244.239 237.934 252.363 256.145C253.322 258.294 254.109 260.592 254.113 261.251C254.132 264.833 250.061 268.369 243.764 270.238L241.536 270.9V276.819V282.739L242.978 282.403C243.771 282.218 246.661 281.253 249.4 280.258ZM319.601 236.073C329.922 233.325 340.671 226.968 348.012 219.272C352.882 214.166 355.582 209.995 357.931 203.952C360.933 196.229 361.077 194.124 361.077 158.083C361.077 126.374 361.045 125.3 360.104 125.596C359.569 125.765 354.201 128.216 348.176 131.043L337.221 136.182L336.915 166.072C336.582 198.624 336.536 199.144 333.424 205.46C330.531 211.332 324.405 215.576 316.642 217.085L313.366 217.722V227.555C313.366 235.074 313.52 237.387 314.021 237.386C314.381 237.385 316.893 236.794 319.601 236.073ZM266.13 140.769C364.87 94.7515 445.855 57.1011 446.098 57.1011C446.34 57.1011 446.539 56.8984 446.539 56.6508C446.539 56.4032 445.536 56.0635 444.31 55.8959C440.982 55.4409 430.108 52.2329 424.486 50.0475C417.506 47.3342 407.478 42.5324 402.3 39.4239C399.877 37.9696 397.725 36.7798 397.516 36.7798C397.308 36.7798 395.099 38.395 392.608 40.3692C364.771 62.4293 322.54 77.3586 275.009 81.9424C263.74 83.0292 238.275 83.1653 227.38 82.197C178.856 77.8845 135.559 62.8099 107.241 40.3692C104.75 38.395 102.542 36.7798 102.333 36.7798C102.125 36.7798 99.9726 37.9696 97.55 39.4239C86.0038 46.355 68.4252 53.3027 56.1947 55.769C53.1188 56.3893 53.0389 56.4488 52.602 58.4456C49.1792 74.0875 44.7429 85.64 37.7838 97.0329C36.5193 99.1032 35.485 100.989 35.4854 101.224C35.4859 101.459 37.2526 103.762 39.4116 106.341C58.7153 129.402 71.7386 154.916 78.9234 183.749C81.9725 195.985 85.2905 216.558 85.2929 223.244C85.2933 224.444 85.4992 224.906 85.9489 224.715C86.3094 224.562 167.391 186.786 266.13 140.769Z" fill="#FFDD00"/>
</g>
<defs>
<clipPath id="clip0_1131_4363">
<rect width="500" height="500" fill="white"/>
</clipPath>
</defs>
</svg>
