<svg width="500" height="500" viewBox="0 0 500 500" fill="none" xmlns="http://www.w3.org/2000/svg">
<g clip-path="url(#clip0_1131_4362)">
<path fill-rule="evenodd" clip-rule="evenodd" d="M218.729 488.859C241.788 495.575 247.148 497.87 248.933 499.286C249.339 499.608 249.925 500 249.925 500C249.925 500 250.503 499.608 250.917 499.286C252.695 497.902 257.532 495.764 280.335 489.088C308.027 480.979 341.934 468.458 363.437 458.4C395.982 443.176 416.554 424.692 428.695 399.765C434.262 388.336 437.693 376.863 439.701 362.962C442.112 346.265 442.383 329.001 440.769 294.964C438.719 251.755 438.841 234.213 441.328 214.46C446.719 171.637 463.214 138.233 493.66 108.483L500 102.288L497.518 100.146C485.826 90.0533 477.403 75.5604 473.964 59.6209C472.727 53.8837 472.694 40.2473 473.904 34.9561C474.364 32.95 474.705 31.2767 474.664 31.2376C474.623 31.1984 472.267 31.319 469.43 31.5056C456.312 32.3678 441.539 29.6939 427.788 23.9685C421.116 21.1903 416.903 18.9113 410.626 14.6846C406.189 11.6967 398.355 4.56551 395.689 1.08737C394.988 0.173825 394.397 -0.216789 394.265 0.147447C393.687 1.74547 389.757 7.22545 386.643 10.7732C368.927 30.9603 331.551 47.6854 289.547 54.2213C248.965 60.536 207.077 57.0622 169.627 44.2761C140.534 34.3434 118.921 20.2775 108.092 4.22886C106.865 2.41019 105.748 0.607638 105.61 0.223196C105.44 -0.250902 104.974 0.0271473 104.161 1.08737C103.502 1.94711 100.933 4.64359 98.4515 7.07953C82.2559 22.9796 54.1626 33.0662 30.4201 31.5056C27.5826 31.319 25.227 31.1985 25.1858 31.2376C25.1444 31.2767 25.4863 32.95 25.9453 34.9561C27.146 40.2023 27.1231 53.8857 25.9044 59.5288C22.7012 74.3601 15.6115 87.2711 5.10884 97.3994L0 102.326L7.93341 110.326C26.4936 129.041 38.3772 146.768 47.177 168.868C57.8404 195.647 61.6723 224.77 60.1945 267.801C59.8488 277.869 59.2941 290.209 58.962 295.224C58.6298 300.24 58.3432 314.425 58.3251 326.748C58.2902 350.453 58.6987 356.476 61.2408 369.736C68.0063 405.025 87.201 431.023 120.825 450.44C140.065 461.551 183.525 478.605 218.729 488.859ZM228.428 481.043C240.378 484.488 247.445 486.735 248.876 487.543C249.309 487.788 250.017 487.85 250.449 487.682C254.259 486.201 261.278 483.968 269.848 481.51C296.896 473.753 321.629 465.087 347.183 454.412C371.152 444.4 386.291 435.168 399.282 422.639C408.753 413.506 414.479 405.66 419.826 394.486C425.86 381.877 429.264 368.194 430.846 350.196C431.748 339.941 431.518 315.823 430.277 290.274C427.647 236.175 429.509 209.316 437.903 180.249C445.805 152.887 460.393 128.087 481.6 105.964C484.65 102.782 484.892 102.37 484.23 101.484C483.83 100.948 482.054 98.612 480.284 96.294C469.549 82.2348 462.268 62.8646 462.268 48.3663V42.661L457.68 42.313C439.375 40.9244 413.707 30.4734 398.636 18.2727L395.746 15.9326L393.306 18.741C390.452 22.0264 383.337 28.2069 378.117 31.9348C356.49 47.38 325.638 58.8838 291.083 64.3873C276.491 66.7112 268.722 67.2519 249.925 67.2519C231.128 67.2519 223.358 66.7112 208.767 64.3873C166.023 57.5797 129.823 41.9038 108.955 21.1647L103.849 16.0907L101.781 17.8443C98.2884 20.8046 90.034 26.1253 84.2449 29.1479C70.575 36.2853 54.236 41.3976 42.1696 42.313L37.5819 42.661V48.3663C37.5819 62.9592 30.3396 82.1336 19.4078 96.4833C17.7247 98.6926 16.0315 100.924 15.6452 101.441C15.0144 102.286 15.5258 103.014 20.6591 108.575C51.6634 142.163 66.7263 178.754 70.1243 228.737C70.9174 240.405 70.4984 274.662 69.2981 296.266C68.8285 304.721 68.4278 319.141 68.4076 328.312C68.3369 360.516 71.876 379.062 81.6817 397.873C86.3715 406.869 90.8689 412.818 99.4358 421.355C115.451 437.314 130.908 446.106 169.573 461.251C187.819 468.398 207.34 474.963 228.428 481.043ZM274.305 464.084C270.268 465.275 263.14 467.396 258.465 468.796C253.791 470.196 249.78 471.316 249.552 471.285C249.325 471.253 245.481 470.107 241.012 468.737C236.542 467.368 228.756 465.021 223.71 463.521C195.679 455.193 161.332 442.217 142.429 432.815C115.649 419.495 99.476 403.195 90.9064 380.891L90.0873 378.759L107.221 370.776C116.644 366.386 130.357 359.995 137.694 356.575C145.031 353.155 167.916 342.501 188.551 332.899C237.121 310.297 242.65 307.722 334.862 264.74C377.684 244.78 412.957 228.347 413.245 228.222C413.59 228.074 413.77 235.707 413.771 250.538C413.772 266.089 414.09 278.896 414.794 291.837C416.712 327.074 416.138 350.703 412.99 366.053C406.731 396.577 389.685 416.881 356.578 433.246C337.98 442.439 302.145 455.871 274.305 464.084ZM190.204 291.689C180.571 299.412 173.735 303.232 147.948 315.296C140.162 318.939 133.025 322.247 132.088 322.647L130.384 323.375V277.848V232.32L149.061 223.603C159.334 218.809 170.065 213.97 172.909 212.85C198.062 202.941 211.805 206.166 216.443 223.067C217.403 226.566 217.59 228.675 217.619 236.345C217.656 245.824 217.093 249.915 214.686 257.675C211.03 269.459 201.616 282.539 190.204 291.689ZM154.764 238.923L154.628 266.292C154.514 289.298 154.608 293.661 155.217 293.661C156.376 293.661 169.479 287.08 172.853 284.803C182.062 278.587 188.632 269.71 191.308 259.867C192.762 254.521 192.922 244.167 191.615 239.978C190.524 236.479 187.559 232.896 184.678 231.596C179.757 229.375 172.54 230.683 161.513 235.794L154.764 238.923ZM264.654 271.399C260.423 275.365 256.334 277.74 249.4 280.258C246.661 281.253 243.771 282.218 242.978 282.403L241.536 282.739V276.819V270.9L243.764 270.238C250.061 268.369 254.132 264.833 254.113 261.251C254.109 260.592 253.322 258.294 252.363 256.145C244.239 237.934 238.794 225.349 238.968 225.183C239.806 224.38 259.643 215.583 259.919 215.891C260.112 216.107 261.372 221.197 262.718 227.201C264.065 233.206 265.248 238.2 265.348 238.299C265.545 238.494 266.183 235.166 268.837 220.097L270.552 210.363L280.231 205.88C285.554 203.414 289.978 201.465 290.061 201.548C290.404 201.889 276.107 252.394 274.557 256.318C272.137 262.439 268.818 267.495 264.654 271.399ZM348.012 219.272C340.671 226.968 329.922 233.325 319.601 236.073C316.893 236.794 314.381 237.385 314.021 237.386C313.52 237.387 313.366 235.074 313.366 227.555V217.722L316.642 217.085C324.405 215.576 330.531 211.332 333.424 205.46C336.536 199.144 336.582 198.624 336.915 166.072L337.221 136.182L348.176 131.043C354.201 128.216 359.569 125.765 360.104 125.596C361.045 125.3 361.077 126.374 361.077 158.083C361.077 194.124 360.933 196.229 357.931 203.952C355.582 209.995 352.882 214.166 348.012 219.272ZM446.098 57.1011C445.855 57.1011 364.87 94.7515 266.13 140.769C167.391 186.786 86.3094 224.562 85.9489 224.715C85.4992 224.906 85.2933 224.444 85.2929 223.244C85.2905 216.558 81.9725 195.985 78.9234 183.749C71.7386 154.916 58.7153 129.402 39.4116 106.341C37.2526 103.762 35.4859 101.459 35.4854 101.224C35.485 100.989 36.5193 99.1032 37.7838 97.0329C44.7429 85.64 49.1792 74.0875 52.602 58.4456C53.0389 56.4488 53.1188 56.3893 56.1947 55.769C68.4252 53.3027 86.0038 46.355 97.55 39.4239C99.9726 37.9696 102.125 36.7798 102.333 36.7798C102.542 36.7798 104.75 38.395 107.241 40.3692C135.559 62.8099 178.856 77.8845 227.38 82.197C238.275 83.1653 263.74 83.0292 275.009 81.9424C322.54 77.3586 364.771 62.4293 392.608 40.3692C395.099 38.395 397.308 36.7798 397.516 36.7798C397.724 36.7798 399.877 37.9696 402.3 39.4239C407.478 42.5324 417.506 47.3342 424.486 50.0475C430.108 52.2329 440.982 55.4409 444.31 55.8959C445.536 56.0635 446.539 56.4032 446.539 56.6508C446.539 56.8984 446.34 57.1011 446.098 57.1011Z" fill="white"/>
</g>
<defs>
<clipPath id="clip0_1131_4362">
<rect width="500" height="500" fill="white"/>
</clipPath>
</defs>
</svg>
