<svg width="500" height="500" viewBox="0 0 500 500" fill="none" xmlns="http://www.w3.org/2000/svg">
<path d="M403.762 103.938H96V383.502C96 394.417 98.7289 404.727 104.49 413.823C109.948 422.616 117.528 429.59 127.231 435.048C144.514 444.448 161.191 445.964 176.049 447.177C186.964 448.086 196.364 448.996 205.763 452.634C216.073 456.576 225.169 463.853 234.569 475.376L241.543 483.866L249.73 493.872L257.916 483.866L264.89 475.376C274.29 463.853 283.386 456.576 293.696 452.634C303.095 448.996 312.495 448.086 323.411 447.177C338.268 445.964 354.945 444.448 372.228 435.048C381.931 429.893 389.511 422.616 394.969 413.823C400.427 404.727 403.459 394.721 403.459 383.502L403.762 103.938Z" fill="white"/>
<path d="M383.75 123.344H115.406V383.198C115.406 398.056 122.986 410.184 136.328 417.461C172.713 437.474 208.796 412.307 249.73 462.64C290.664 412.61 326.443 437.474 363.132 417.461C376.473 410.184 384.053 398.359 384.053 383.198L383.75 123.344Z" fill="#E41815" stroke="#E41815" stroke-miterlimit="10"/>
<path d="M233.053 53.3014L226.079 81.5003L250.033 67.5525L273.683 81.5003L267.316 53.3014L287.631 34.5021H259.129L250.033 6L241.239 34.5021H212.131L233.053 53.3014Z" fill="#ADA072"/>
<path d="M384.053 123.344V383.198C384.053 398.056 376.473 410.184 363.131 417.461C326.746 437.474 290.966 412.307 250.033 462.64C209.099 412.61 173.016 437.474 136.327 417.461C122.986 410.184 115.406 398.359 115.406 383.198V123.344H384.053ZM393.15 114.551H106.612V383.501C106.612 392.598 109.038 400.785 113.283 408.062C117.831 415.036 123.896 421.1 132.082 425.345C147.546 433.835 162.404 435.048 176.655 436.261C187.874 437.17 198.486 438.08 209.402 442.325C221.53 447.176 232.143 455.363 242.755 468.401L249.729 476.891L256.703 468.401C267.316 455.363 277.928 447.176 290.057 442.325C300.669 438.08 311.282 437.17 322.804 436.261C337.358 435.048 352.216 433.835 367.376 425.345C375.26 421.1 381.627 415.036 386.176 408.062C390.724 400.785 392.846 392.598 392.846 383.501L393.15 114.551Z" fill="#ADA072"/>
<path d="M154.217 414.733C162.101 416.855 170.288 417.462 178.778 418.371C183.326 418.674 187.874 419.281 192.725 419.887V207.334H154.217V414.733ZM307.34 207.334V419.887C312.192 419.281 316.74 418.978 321.288 418.371C329.778 417.765 337.965 416.855 345.849 414.733V207.334H307.34ZM230.93 432.926C237.298 436.867 243.665 442.022 250.033 448.996C256.4 442.325 262.768 436.867 269.135 432.926V207.334H230.93V432.926Z" fill="white"/>
<path d="M163.314 182.471H185.752V190.657H154.217V144.569H185.752V152.756H163.314V163.368H183.932V171.555H163.314V182.471Z" fill="white"/>
<path d="M271.864 144.569H280.961V182.471H301.579V190.354H271.864V144.569Z" fill="white"/>
<path d="M314.92 144.569H331.9C342.513 144.569 348.274 146.691 348.88 157.607C348.88 158.213 348.88 161.549 348.88 162.458C348.88 172.465 342.513 176.406 334.326 176.406H324.017V190.657H315.224L314.92 144.569ZM324.017 168.523H331.294C337.661 168.523 339.784 166.703 340.087 162.155C340.087 161.549 340.087 158.82 340.087 158.517C340.087 153.059 337.055 152.149 330.991 152.149H324.32V168.523H324.017Z" fill="white"/>
<path d="M258.826 176.71V169.432C258.826 160.942 254.884 156.091 245.788 156.091C236.994 156.091 232.75 161.246 232.446 170.039V179.439C232.446 186.412 236.994 191.264 246.091 191.264C251.246 191.264 254.581 189.748 258.219 187.625L255.794 182.167C252.458 183.987 250.639 184.896 246.697 184.896C242.149 184.896 240.633 182.471 240.633 179.742V177.013L258.826 176.71ZM245.788 162.459C250.336 162.459 251.246 165.491 251.246 170.949H240.027C240.027 164.884 241.239 162.459 245.788 162.459Z" fill="white"/>
<path d="M226.382 190.354V144.266H218.802V158.82C216.982 157.001 213.95 156.394 210.615 156.394C203.035 156.394 199.396 161.549 199.396 169.736V177.316C199.396 185.806 203.338 190.657 210.918 190.657C214.253 190.657 216.982 189.445 218.802 187.625C218.802 187.928 218.802 190.051 218.802 190.051L226.382 190.354ZM212.737 183.683C208.796 183.683 206.976 181.258 206.976 176.406V171.252C206.976 166.4 208.796 163.975 212.737 163.975C215.163 163.975 216.982 165.187 218.802 167.007V180.955C216.982 182.471 215.163 183.683 212.737 183.683Z" fill="white"/>
</svg>
