<svg width="500" height="500" viewBox="0 0 500 500" fill="none" xmlns="http://www.w3.org/2000/svg">
<path d="M233.053 53.3014L226.079 81.5003L250.033 67.5525L273.683 81.5003L267.316 53.3014L287.631 34.5021H259.129L250.033 6L241.239 34.5021H212.131L233.053 53.3014Z" fill="white"/>
<path fill-rule="evenodd" clip-rule="evenodd" d="M96 103.938H403.762L403.459 383.502C403.459 394.721 400.427 404.727 394.969 413.823C389.511 422.616 381.931 429.893 372.228 435.048C354.945 444.448 338.268 445.964 323.411 447.177C312.495 448.086 303.095 448.996 293.696 452.634C283.386 456.576 274.29 463.853 264.89 475.375L257.916 483.866L249.73 493.872L241.543 483.866L234.569 475.375C225.169 463.853 216.073 456.576 205.763 452.634C196.364 448.996 186.964 448.086 176.049 447.177C161.191 445.964 144.514 444.448 127.231 435.048C117.528 429.59 109.948 422.616 104.49 413.823C98.7289 404.727 96 394.417 96 383.502V103.938ZM115.406 123.344H384.05L384.053 383.198C384.053 398.359 376.473 410.184 363.132 417.461C349.349 424.979 335.694 426.164 321.846 427.366C298.833 429.362 275.286 431.405 249.73 462.64C224.167 431.207 200.496 429.219 177.462 427.284C163.611 426.12 149.991 424.976 136.328 417.461C122.986 410.184 115.406 398.056 115.406 383.198V123.344Z" fill="white"/>
<path d="M154.217 414.733C162.101 416.855 170.288 417.462 178.778 418.371C183.326 418.674 187.874 419.281 192.725 419.887V207.334H154.217V414.733ZM307.34 207.334V419.887C312.192 419.281 316.74 418.978 321.288 418.371C329.778 417.765 337.965 416.855 345.849 414.733V207.334H307.34ZM230.93 432.926C237.298 436.867 243.665 442.022 250.033 448.996C256.4 442.325 262.768 436.867 269.135 432.926V207.334H230.93V432.926Z" fill="white"/>
<path d="M163.314 182.471H185.752V190.657H154.217V144.569H185.752V152.756H163.314V163.368H183.932V171.555H163.314V182.471Z" fill="white"/>
<path d="M271.864 144.569H280.961V182.471H301.579V190.354H271.864V144.569Z" fill="white"/>
<path d="M314.92 144.569H331.9C342.513 144.569 348.274 146.691 348.88 157.607C348.88 158.213 348.88 161.549 348.88 162.458C348.88 172.465 342.513 176.406 334.326 176.406H324.017V190.657H315.224L314.92 144.569ZM331.294 168.523C337.661 168.523 339.784 166.703 340.087 162.155C340.087 161.549 340.087 158.82 340.087 158.517C340.087 153.059 337.055 152.149 330.991 152.149H324.32V168.523H331.294Z" fill="white"/>
<path d="M258.826 176.71V169.432C258.826 160.942 254.884 156.091 245.788 156.091C236.994 156.091 232.75 161.246 232.446 170.039V179.439C232.446 186.412 236.994 191.264 246.091 191.264C251.246 191.264 254.581 189.748 258.219 187.625L255.794 182.167C252.458 183.987 250.639 184.896 246.697 184.896C242.149 184.896 240.633 182.471 240.633 179.742V177.013L258.826 176.71ZM245.788 162.459C250.336 162.459 251.246 165.491 251.246 170.949H240.027C240.027 164.884 241.239 162.459 245.788 162.459Z" fill="white"/>
<path d="M226.382 190.354V144.266H218.802V158.82C216.982 157.001 213.95 156.394 210.615 156.394C203.035 156.394 199.396 161.549 199.396 169.736V177.316C199.396 185.806 203.338 190.657 210.918 190.657C214.253 190.657 216.982 189.445 218.802 187.625C218.802 187.928 218.802 190.051 218.802 190.051L226.382 190.354ZM212.737 183.683C208.796 183.683 206.976 181.258 206.976 176.406V171.252C206.976 166.4 208.796 163.975 212.737 163.975C215.163 163.975 216.982 165.187 218.802 167.007V180.955C216.982 182.471 215.163 183.683 212.737 183.683Z" fill="white"/>
</svg>
