<svg width="500" height="500" viewBox="0 0 500 500" fill="none" xmlns="http://www.w3.org/2000/svg">
<path fill-rule="evenodd" clip-rule="evenodd" d="M292.893 146.893V144.855H292.796L293.573 142.136V138.738L290.854 144.855H292.213C292.213 147.573 289.495 154.369 286.097 154.369H285.417L281.34 153.69L265.709 166.602C263.67 167.961 250.077 176.796 248.039 176.796L231.048 165.243C229.009 164.563 215.417 153.01 215.417 153.01L212.699 153.69C206.582 153.69 205.223 142.136 205.223 138.738V136.699H205.903V135.34L210.66 136.699C213.987 135.22 217.516 132.334 221.027 129.462C223.97 127.054 226.9 124.657 229.689 123.107L249.398 110.874C251.828 110.874 261.888 117.615 271.146 124.21V124.466C271.262 124.466 271.377 124.463 271.492 124.457C280.218 130.682 288.136 136.699 288.136 136.699L292.213 136.02C292.616 136.02 292.9 136.02 293.099 136.055C293.415 136.669 293.573 137.364 293.573 138.058V137.379C293.573 136.423 293.573 136.139 293.099 136.055C292.489 134.867 291.287 133.981 289.495 133.981H288.815C288.815 130.476 287.254 125.856 285.92 121.911L285.92 121.91C284.926 118.969 284.058 116.403 284.058 114.952C284.058 113.561 286.589 111.853 288.629 110.477C289.579 109.836 290.422 109.267 290.854 108.835C291.529 108.329 292.121 107.78 292.701 107.242L292.701 107.242C294.458 105.613 296.114 104.078 299.689 104.078H300.369L305.806 106.117C308.524 106.117 311.242 106.117 311.242 108.835L309.98 113.592L310.66 119.029H309.301C307.262 119.029 304.543 121.068 303.184 123.107H297.068L295.029 123.787V125.825C295.029 128.544 305.223 138.058 308.621 138.058L314.058 137.379C315.417 137.379 316.607 137.889 317.796 138.398C318.985 138.908 320.175 139.418 321.534 139.418C322.213 139.418 323.233 138.398 324.337 137.294C325.442 136.19 326.631 135 327.65 134.66C330.369 133.981 331.728 132.622 333.087 129.903C335.806 129.903 337.844 128.544 338.524 125.825C339.204 123.447 339.713 123.447 340.393 123.447C341.073 123.447 341.922 123.447 343.281 121.068L343.961 113.592C343.961 111.014 344.36 110.033 344.726 109.134C345.035 108.374 345.32 107.673 345.32 106.117V105.437C345.32 104.674 344.892 104.339 344.395 103.952C344.008 103.649 343.579 103.315 343.281 102.719L343.961 100C343.961 99.4372 343.495 98.8742 342.948 98.2146C342.175 97.2818 341.242 96.1558 341.242 94.5633L337.165 90.4857C336.485 89.5795 336.183 88.8244 335.931 88.1951C335.428 86.9366 335.126 86.1815 332.408 85.7284C329.588 85.3256 329.394 84.9228 328.997 84.0955C328.724 83.5269 328.355 82.7579 326.971 81.6507L324.932 80.9711L322.213 79.6119L315.913 79.2413L314.058 78.9322C314.058 78.9171 313.977 78.9883 313.839 79.1193L310.66 78.9323V79.6119H305.126L296.971 83.6896C296.345 84.6286 295.719 84.991 294.827 85.5071C293.783 86.1116 292.374 86.9269 290.175 89.1265C289.106 90.7288 288.458 91.2817 287.858 91.6924L286.194 92.5244L286.114 93.0871C285.585 93.6609 284.934 94.5206 284.058 95.9226C283.82 96.161 283.519 96.4412 283.18 96.7559C281.59 98.2354 279.182 100.477 278.621 102.719C276.097 100.097 274.058 97.0876 272.505 93.8837V93.2041L277.942 80.2915V74.7575L284.058 67.2818C290.854 67.2818 290.854 67.2818 292.893 63.2041C295.138 63.2041 295.735 62.7922 296.272 62.4219C296.71 62.1195 297.108 61.8449 298.33 61.8449H305.126L309.883 65.9226C311.404 66.9365 313.303 66.8159 315.298 66.6892C315.978 66.646 316.668 66.6022 317.359 66.6022L320.077 69.3206L324.155 71.3595C324.887 71.8473 325.356 72.6853 325.845 73.5592C326.719 75.1204 327.657 76.7964 330.272 76.7964H330.951C332.99 76.7964 339.107 70.6798 339.107 68.641L337.747 62.5245V61.1653C339.107 60.4857 339.107 59.8061 339.107 58.4468C339.107 56.9177 337.96 55.0063 337.1 53.5727L337.099 53.5717L337.098 53.5708L337.098 53.57L337.097 53.5692C336.812 53.0928 336.558 52.6693 336.388 52.3303V48.9323L332.31 46.2138L329.592 40.7769L326.874 38.7381L324.155 36.0197H322.116C320.796 35.3593 320.117 34.8415 319.594 34.4432C318.504 33.6119 318.096 33.3012 313.961 33.3012C313.597 33.1191 313.33 32.937 313.083 32.768C312.407 32.3062 311.873 31.942 309.883 31.942L305.126 32.6216L296.971 33.3012L291.534 38.0585C286.106 38.0585 285.495 39.1288 284.001 41.7444C283.812 42.0764 283.608 42.4331 283.378 42.8158C283.27 42.8973 283.16 42.9735 283.049 43.0448C282.497 43.1809 281.748 43.3138 280.66 43.495C279.173 43.9909 277.685 44.8486 276.989 46.3323C276.626 46.864 276.306 47.5376 276.046 48.407C275.015 48.7221 274.298 49.0518 273.794 49.3888C272.23 50.1212 271.19 51.6706 271.147 53.5657C271.035 53.6229 270.914 53.6791 270.781 53.7341C270.12 53.8306 269.586 53.9982 269.156 54.2223C268.929 54.2727 268.687 54.3215 268.427 54.3687V54.7389C267.392 55.7323 267.347 57.2654 267.304 58.7681C267.275 59.7646 267.246 60.7478 266.929 61.5513C266.763 61.6504 266.583 61.7474 266.389 61.8445V62.4226C266.068 62.7633 265.63 63.0325 265.029 63.2041L264.349 74.7575L265.029 86.3109C264.058 86.0681 262.48 84.8714 260.542 83.4023C257.056 80.7587 252.407 77.2332 248.039 76.7964V74.7575C248.039 70.8959 248.934 68.8254 249.998 66.3652C250.245 65.7946 250.501 65.2031 250.757 64.5633C251.564 62.4122 252.37 61.6441 253.051 60.9963C254.09 60.0067 254.835 59.2978 254.835 54.3692C254.988 54.3179 255.146 54.2667 255.306 54.2145L255.308 54.2141C257.273 53.5751 259.643 52.8044 260.272 50.2915C261.446 47.1607 262.169 46.9595 263.09 46.7033C263.769 46.5145 264.555 46.2959 265.709 44.8546L274.99 37.4295C276.583 36.9529 278.412 36.7095 281.158 36.6993H281.34L281.34 36.6989L282.019 36.0197L286.097 36.6993C288.136 36.6993 288.815 33.9808 288.815 31.2624V29.2235C288.815 24.4663 284.058 21.0682 282.019 19.709C281.605 19.6054 281.222 19.5176 280.866 19.4359L280.865 19.4357L280.864 19.4355L280.863 19.4353L280.863 19.4352C278.885 18.9817 277.734 18.7177 276.582 16.9905C276.262 16.6702 275.904 16.2745 275.526 15.8566L275.526 15.856L275.525 15.8559L275.525 15.8558L275.525 15.8557L275.525 15.8556L275.524 15.8548L275.524 15.8543C274.298 14.4993 272.863 12.9129 271.825 12.9129L269.786 13.5925L268.427 11.5536H263.67L261.631 10.874C257.553 10.874 253.475 12.9129 251.437 14.9517C244.309 14.9517 243.907 16.7622 243.527 18.4685C243.292 19.5281 243.065 20.5475 241.242 21.0682C237.778 22.6079 237.802 22.8395 237.857 23.3683C237.899 23.7731 237.959 24.3521 236.485 25.8255C234.446 26.5051 234.446 26.5051 234.446 31.2624C234.264 31.4444 234.095 31.602 233.937 31.7483L233.937 31.7486C232.917 32.6948 232.408 33.1679 232.408 36.6993C232.181 37.6054 232.181 38.5116 232.181 39.317C232.181 40.928 232.181 42.1362 230.369 42.1362L231.048 40.7769V27.1847H231.728V25.8255C231.728 24.0456 231.21 24.0785 230.626 24.1156C229.873 24.1634 229.009 24.2183 229.009 20.3886L226.971 18.3498H222.893C222.158 18.1047 221.688 17.7713 221.228 17.4451C220.412 16.8666 219.629 16.3109 217.456 16.3109C215.464 16.3109 214.406 17.0116 213.324 17.7284C212.56 18.2343 211.785 18.7482 210.66 19.0294C209.191 19.449 208.176 19.5447 207.414 19.6166C205.708 19.7775 205.273 19.8185 203.864 23.107L200.466 23.7866L188.912 31.2624V38.7381C188.912 39.2647 188.708 39.4853 188.458 39.7555C188.063 40.1828 187.553 40.7342 187.553 42.8158V47.5731C185.514 48.2527 185.514 48.9323 185.514 50.2915V52.3303L186.194 54.3692L184.835 59.1264L187.553 71.3595C188.912 74.0779 190.272 79.5148 190.272 83.5925C191.291 84.9517 192.48 85.6313 193.67 86.3109C194.859 86.9905 196.048 87.6701 197.068 89.0294C197.65 89.8061 198.066 90.4718 198.443 91.0741C199.384 92.58 200.077 93.6896 202.505 95.1459C202.699 95.2756 202.974 95.461 203.314 95.6903C206.538 97.8638 215.612 103.981 217.456 103.981L215.417 110.097C213.857 109.317 210.731 106.076 207.707 102.941L207.707 102.94C205.462 100.612 203.273 98.3431 201.825 97.1847C199.786 94.4663 197.068 93.107 193.67 91.7478C192.739 91.5152 191.808 91.1232 190.823 90.7083C188.931 89.9112 186.837 89.0294 184.155 89.0294H182.116L172.602 90.3886L169.883 92.4274L165.126 94.4663L162.408 97.1847C162.068 98.2041 161.558 98.374 161.048 98.5439C160.539 98.7138 160.029 98.8837 159.689 99.9032C157.65 101.942 154.932 104.66 154.932 107.379C152.893 108.058 152.893 108.738 152.893 110.777V111.457L153.573 118.253C153.573 118.75 153.299 119.248 152.953 119.879C152.353 120.971 151.534 122.464 151.534 125.049L155.611 129.806C155.711 130.004 155.795 130.203 155.878 130.397C156.363 131.533 156.787 132.525 159.689 132.525C159.689 136.602 160.369 137.961 163.767 138.641C165.262 139.389 165.935 140.754 166.577 142.057C167.102 143.122 167.607 144.146 168.524 144.758C171.242 146.117 180.077 149.515 184.155 149.515H186.194C188.233 149.515 191.631 147.476 191.631 144.078L189.592 137.961C189.182 135.499 188.275 134.276 187.622 133.393C187.193 132.815 186.874 132.383 186.874 131.845V130.486L188.912 125.728C188.912 123.01 191.631 118.253 194.349 117.573C194.995 116.282 199.32 111.924 200.917 111.491L209.301 112.136L212.019 114.855L207.262 134.563H205.903C203.184 134.563 201.825 136.602 201.825 139.321C201.825 144.078 203.864 156.311 209.98 156.311L214.058 155.631L219.495 164.466C220.128 165.944 220.959 167.488 221.802 169.057C223.674 172.537 225.611 176.139 225.611 179.418V180.777C225.611 184.855 221.534 190.292 218.136 192.33L218.134 192.325C218.062 190.374 215.961 186.835 213.332 183.278C209.465 176.972 204.413 170.086 201.825 169.224L199.107 186.893H198.427L188.912 177.379C186.874 182.816 186.874 195.049 186.874 203.884L178.039 189.612L158.33 199.126C157.979 197.02 154.724 192.372 151.661 187.998C148.795 183.906 146.097 180.052 146.097 178.738C146.097 177.651 147.837 176.563 149.576 175.476C150.011 175.204 150.446 174.932 150.854 174.66C151.534 175.34 152.213 176.02 154.932 176.02H156.291C158.33 176.02 160.369 174.66 160.369 173.301V168.544C160.369 165.825 158.33 163.107 154.932 163.107C151.895 163.107 149.495 164.379 147.375 165.502C145.699 166.39 144.199 167.185 142.699 167.185C142.2 162.195 139.136 156.106 136.467 150.801C135.501 148.88 134.586 147.063 133.864 145.437C131.858 140.422 128.372 136.147 125.044 132.067L125.043 132.066L125.043 132.066L125.043 132.065L125.042 132.065C123.861 130.616 122.699 129.192 121.631 127.767L122.31 125.728V123.69C122.31 120.971 118.233 116.893 116.194 116.893H114.155V115.534C114.155 112.816 111.437 109.418 108.718 109.418H107.359C105.32 109.418 101.922 112.136 101.922 114.175V116.214C101.922 118.932 103.961 120.971 106.679 121.651L106 124.369L106.679 129.806C101.922 131.845 99.2036 137.961 97.8444 143.398L96.4852 151.554V156.991L95.126 161.748V163.787C95.126 166.505 97.8444 169.903 101.242 170.583C102.381 170.962 103.732 172.613 105.057 174.234C106.106 175.516 107.138 176.779 108.039 177.379C112.116 182.136 117.553 185.534 125.709 185.534H126.388C129.302 185.534 131.825 184.754 134.167 184.029C136.195 183.401 138.088 182.816 139.98 182.816L151.534 204.563L132.505 214.078L144.738 237.185C145.15 238.421 146.187 240.845 147.432 243.755C150.293 250.441 154.252 259.695 154.252 263.01L146.097 250.777L137.165 240.097C131.437 232.816 124.252 226.796 116.097 222.427C116.097 244.855 131.728 272.719 156.874 272.719C158.912 277.476 162.31 299.903 162.31 307.379L152.796 291.068L143.281 277.476C137.844 271.359 122.893 257.767 115.417 256.408V260.486C115.417 273.592 120.854 286.214 130.369 295.146C134.446 299.903 138.524 302.622 144.641 305.34L152.796 308.058C153.197 308.192 153.782 308.352 154.463 308.538C157.245 309.299 161.631 310.498 161.631 312.136V312.816L160.272 335.923L150.757 320.389L139.204 305.437C132.408 297.961 119.495 286.408 105.223 286.408C105.223 289.749 107.904 296.106 109.972 301.008C110.848 303.086 111.615 304.903 112.019 306.117C113.944 310.928 116.209 314.037 118.815 317.613C119.89 319.087 121.023 320.641 122.213 322.427C129.009 330.583 143.281 338.738 158.912 338.738L154.155 359.806L147.359 348.253L139.883 339.418C134.446 333.981 126.291 327.864 116.097 327.864H107.262C107.262 333.301 114.058 344.855 116.776 348.253C124.543 360.292 138.718 366.408 152.796 363.884L148.039 382.913L140.563 399.224L144.641 399.903L159.592 404.66L173.864 410.777L186.776 417.573L199.689 425.728L164.349 489.709L207.165 431.845C220.077 442.039 231.631 453.592 240.466 467.864C240.806 468.374 241.443 469.478 242.239 470.858L242.239 470.858L242.239 470.859C244.628 475 248.451 481.626 249.98 482.136C259.495 462.233 273.767 444.952 291.437 431.845L332.213 486.893L298.912 426.311L316.582 414.758L336.971 405.923L338.33 405.243L356 399.806C356 397.767 350.563 386.214 349.204 383.495L343.087 365.146L350.563 365.825C359.398 366.505 371.631 358.35 375.029 353.592C375.573 352.83 376.292 351.876 377.116 350.783C381.432 345.055 388.621 335.513 388.621 329.806L383.864 329.126C372.31 329.126 360.757 331.845 353.961 342.039L347.165 350.874C346.995 351.129 346.793 351.437 346.566 351.783L346.566 351.784L346.566 351.784L346.565 351.785L346.565 351.785L346.564 351.786C344.975 354.211 342.152 358.52 340.369 359.709L336.291 339.321H339.009C355.223 338.156 369.883 329.321 378.427 315.534L382.505 308.738C385.647 303.501 387.175 297.859 388.644 292.437L388.644 292.436L388.644 292.435L388.645 292.434L388.645 292.433L388.645 292.432L388.646 292.431L388.646 292.43L388.647 292.427C389.083 290.816 389.514 289.225 389.98 287.67V286.991C375.029 286.991 363.475 298.544 356 306.02L344.641 320.389C343.854 321.437 342.562 324.003 341.154 326.799L341.153 326.8L341.153 326.801C338.912 331.251 336.378 336.282 335.126 336.699L333.767 313.592V312.233C353.145 307.674 372.045 295.467 377.64 275.211C379.592 269.614 379.981 264.613 379.981 258.447C379.753 258.563 379.527 258.68 379.301 258.798V256.505C376.582 257.185 367.747 263.301 365.029 265.34L352.116 276.893L342.602 290.486C341.47 292.184 340.22 294.707 338.95 297.269C337.171 300.861 335.353 304.53 333.767 306.117L336.485 287.767L340.563 272.136H342.602C354.835 272.136 362.31 265.34 367.068 258.544C373.184 250.389 376.582 239.515 378.621 230.68L380.66 221.165C374.244 224.908 368.248 231.175 363.004 236.656C361.583 238.142 360.217 239.57 358.912 240.874C356.029 243.757 350.651 251.881 346.709 257.835C344.146 261.706 342.19 264.66 341.922 264.66C343.281 258.544 348.718 244.272 351.437 238.835L358.233 226.602L365.029 215.049C365.029 214.029 360.102 211.481 355.175 208.932L355.174 208.932C350.247 206.384 345.32 203.835 345.32 202.816L352.116 191.262L360.272 192.622H365.029C371.145 192.622 380.66 188.544 384.738 186.505L388.445 187.432C390.697 188.383 393.108 189.029 395.612 189.029C398.294 189.029 400.683 188.147 402.003 186.575C403.722 185.245 405.126 183.535 405.126 182.427V180.389C405.126 178.35 401.048 175.631 398.33 175.631C395.941 175.631 394.485 177.031 393.279 178.19C392.427 179.009 391.699 179.709 390.854 179.709C385.417 179.709 371.825 166.117 369.786 162.039C370.45 160.712 371.546 159.456 372.722 158.108C375.159 155.317 377.941 152.129 377.941 147.088C380.66 145.728 386.097 138.932 386.097 133.495C388.136 131.457 393.573 124.66 393.573 119.903V118.544C393.573 117.185 390.854 113.787 388.136 113.787C382.019 113.787 378.621 121.262 376.582 126.02C376.279 128.753 374.754 130.536 373.16 132.4C371.186 134.708 369.107 137.14 369.107 141.651C368.3 142.861 367.254 144.011 366.182 145.189C363.641 147.984 360.951 150.941 360.951 155.243L348.718 148.447C346.821 148.21 345.089 147.89 343.378 147.574C340.186 146.984 337.069 146.408 333.087 146.408H330.369C327.65 146.408 322.213 148.447 322.213 152.525V154.563C322.213 155.923 324.932 156.602 326.971 156.602L329.689 158.641L333.767 157.961V163.398C333.767 168.835 334.446 175.631 335.806 178.35L343.961 187.864L337.844 200.097L318.815 189.903L310.66 204.175L309.204 189.978V189.806L309.151 189.462L307.942 177.67C305.009 178.159 302.076 182.163 299.902 185.132C299.053 186.291 298.32 187.292 297.747 187.864L293.67 168.835C290.313 169.794 283.571 180.568 279.655 186.827L279.654 186.827C278.021 189.438 276.879 191.262 276.679 191.262C275.32 191.262 270.563 184.466 270.563 181.748V180.389C270.563 178.748 272.047 175.376 273.374 172.362C274.247 170.381 275.051 168.554 275.32 167.476L282.116 155.243L284.155 155.923H286.874C289.495 156.408 292.893 150.292 292.893 146.893ZM309.151 189.462L307.845 180.971C302.408 180.874 290.854 200.68 290.854 206.796V208.835H290.175L289.495 216.311V227.864L292.214 228.544L293.573 221.748C293.573 221.274 293.325 220.966 293.003 220.564C292.4 219.811 291.534 218.731 291.534 215.631L294.252 217.67L295.45 216.472C295.395 217.297 295.432 217.99 295.612 218.35L299.689 216.311C299.01 218.35 297.65 221.748 294.252 221.748L292.893 229.223H294.932V229.903H296.291C297.246 229.903 298.647 226.179 300.217 222.009L300.217 222.009C301.999 217.271 303.999 211.958 305.806 210.874L306.485 204.757H309.204V189.978L309.151 189.462ZM402.003 186.575C402.69 185.758 403.087 184.755 403.087 183.592C403.087 181.553 401.048 178.835 399.01 178.835C396.135 178.835 394.749 179.828 393.652 180.613C392.934 181.128 392.341 181.553 391.534 181.553H389.495C384.807 181.553 377.532 174.115 372.8 169.278L372.8 169.278C370.673 167.103 369.059 165.453 368.427 165.243L367.068 168.641L378.621 181.553C379.069 181.852 379.542 182.175 380.037 182.514C382.39 184.123 385.257 186.084 388.445 187.432L392.893 188.544H397.65C398.892 188.544 400.559 187.693 402.003 186.575ZM379.301 258.798C370.259 263.517 362.24 269.804 355.515 277.476L346.68 290.389L337.845 305.34V307.379L344.641 301.942L350.078 296.505L352.117 289.029H352.796V293.787L359.592 285.631L360.272 280.194L360.952 284.272L371.146 272.719L360.952 285.631L363.67 286.311L359.592 287.67L356.874 291.748L354.835 295.825H358.913L354.155 297.864H351.437C351.043 300.625 348.13 302.699 345.623 304.485C343.809 305.777 342.208 306.918 341.922 308.058L355.515 302.622L363.67 296.505L370.466 289.709L372.505 285.631L375.223 280.874C376.218 278.885 377.01 277.017 377.64 275.211C378.717 271.314 379.301 267.118 379.301 262.622V258.798ZM213.332 183.278C210.351 179.245 206.692 175.189 204.543 173.398C201.825 177.476 200.466 184.951 200.466 190.388C200.466 191.366 201.56 192.969 202.773 194.747C204.091 196.677 205.549 198.814 205.903 200.582L211.34 198.544L209.98 191.068V191.747L205.903 189.029L206.582 188.349H210.66V186.99H212.019V188.349L211.34 190.388L212.019 197.184C214.058 197.184 218.136 195.146 218.136 193.107V192.427C218.136 192.394 218.135 192.36 218.134 192.325C217.388 190.338 215.556 186.904 213.332 183.278ZM281.34 36.6989C281.279 36.6989 281.218 36.699 281.158 36.6993H275.903L274.99 37.4295C273.898 37.7561 272.916 38.1922 271.825 38.7378L267.748 41.4562C266.599 42.0307 265.814 42.241 265.239 42.3949C264.455 42.6052 264.062 42.7103 263.67 43.495C261.99 45.1751 261.608 45.2977 261.079 45.4671C260.753 45.5718 260.371 45.6943 259.592 46.2135L257.553 50.2912C256.515 51.8487 255.477 52.2164 254.59 52.5304C253.155 53.0385 252.116 53.4062 252.116 58.4465L250.078 61.165L248.718 65.2426L246 73.398V76.796L241.922 77.4756L239.204 63.8834V59.1261C239.204 58.2454 240.599 57.111 242.238 55.7777C244.394 54.0246 246.973 51.9277 247.359 49.6116L239.883 57.0873C239.44 49.1014 241.892 48.3562 244.783 47.4778C246.321 47.0107 247.982 46.5059 249.398 44.8543L241.922 46.8931C241.922 43.495 247.359 35.3397 249.398 35.3397H258.233V34.6601L250.757 33.9805C250.757 33.1883 251.161 32.3961 251.767 31.6712L251.437 31.9417L252.796 25.1455C250.775 25.9541 249.956 28.4462 249.195 30.7618C248.676 32.3389 248.185 33.8341 247.359 34.6601C246.775 36.1201 245.689 37.3291 244.587 38.5568C243.123 40.1865 241.63 41.849 241.243 44.1747L239.204 37.3785L239.883 46.2135L239.204 55.0484C236.863 54.5803 236.135 52.5002 235.464 50.5846C235.161 49.7189 234.87 48.8869 234.447 48.2523C234.447 51.5694 235.418 53.4294 236.413 55.3337C237.456 57.3309 238.524 59.3769 238.524 63.2038C238.524 65.0367 238.936 67.1441 239.39 69.4645C239.945 72.3064 240.563 75.4677 240.563 78.8349L235.806 73.398L231.048 67.2815C230.063 66.2964 230.149 64.5973 230.271 62.1844C230.317 61.2679 230.369 60.2485 230.369 59.1261C229.533 56.2012 230.239 55.0746 230.907 54.0088C231.325 53.3412 231.728 52.6974 231.728 51.6504V50.2912L231.048 44.8543V44.1747C231.048 42.1358 231.728 42.1358 233.087 42.1358V33.9805L235.126 31.9417L235.806 27.1844C238.015 25.9217 238.172 25.2456 238.32 24.6111C238.49 23.8795 238.647 23.2033 241.922 21.7475C243.723 21.2974 244.629 19.6549 245.43 18.202C245.839 17.4612 246.221 16.7696 246.68 16.3106H252.116C253.38 15.5527 253.798 14.9826 254.103 14.5655C254.62 13.8604 254.817 13.5921 258.233 13.5921L261.631 12.2329L264.349 13.5921L266.388 12.9125L267.748 13.5921V15.631H271.825L275.903 19.029L280.66 21.0679C284.058 22.4271 287.456 25.8251 286.777 30.5824L286.097 34.6601L281.34 33.9805V36.6989ZM266.389 62.4226C266.628 62.1684 266.802 61.8744 266.929 61.5513C267.928 60.9569 268.427 60.2912 268.427 59.126V54.7389C268.63 54.5446 268.87 54.371 269.156 54.2223C269.829 54.0725 270.36 53.9091 270.781 53.7341C270.898 53.717 271.02 53.7021 271.145 53.6896C271.145 53.6481 271.146 53.6068 271.147 53.5657C272.287 52.9813 272.394 52.2858 272.507 51.5533C272.616 50.844 272.731 50.1 273.794 49.3888C274.423 49.0946 275.136 48.9323 275.903 48.9323C275.948 48.7496 275.996 48.5747 276.046 48.407C276.217 48.355 276.395 48.3034 276.583 48.2522C276.583 47.5174 276.732 46.8819 276.989 46.3323C277.962 44.9114 279.253 44.5038 280.59 44.0819C281.414 43.8218 282.255 43.5563 283.049 43.0448C284.227 42.7546 284.512 42.4498 285.277 41.6308C285.499 41.3933 285.761 41.1126 286.097 40.7765C287.225 39.2731 287.729 39.2247 288.644 39.1369C289.383 39.066 290.391 38.9693 292.214 38.0581L296.971 35.3396C300.849 35.3396 302.541 34.5202 303.78 33.9203C304.496 33.5739 305.06 33.3008 305.806 33.3008H311.243V34.66L318.719 35.3396V38.7377L323.476 39.4173L326.194 42.1357C329.592 42.1357 330.952 45.5338 330.952 48.2522L335.029 49.6115C334.247 53.1328 335.266 54.1764 336.272 55.2061C337.014 55.965 337.748 56.7163 337.748 58.4464L336.389 61.1649V68.6406C336.389 69.3202 331.631 75.4367 330.272 75.4367H328.913C327.792 75.4367 327.082 73.9989 326.331 72.4784C325.716 71.233 325.074 69.9322 324.156 69.3202L321.437 67.961L318.719 65.9221C317.611 64.8144 316.102 64.9104 314.519 65.0111C313.188 65.0957 311.805 65.1837 310.563 64.5629C310.214 64.2132 309.884 63.8635 309.564 63.5241L309.564 63.5238C308.018 61.8845 306.699 60.4852 304.447 60.4852H296.292L295.612 61.8445H293.573L288.816 65.9221C283.379 65.9221 283.379 65.9221 281.34 68.6406C280.932 69.0484 280.497 69.4561 280.062 69.8639C278.323 71.495 276.583 73.126 276.583 74.7571L275.224 84.2717C273.185 86.3105 271.826 88.3493 271.146 91.0678L268.427 89.0289L269.107 84.9513L273.864 71.359C275.934 65.565 278.003 65.0635 279.765 64.6364C280.897 64.3622 281.902 64.1186 282.699 62.5241H278.622C278.622 61.1649 282.699 57.0872 283.379 57.0872C284.738 56.4076 286.437 56.4076 288.051 56.4076C289.665 56.4076 291.194 56.4076 292.214 55.728H285.418C287.457 53.6891 293.573 49.6115 297.651 49.6115C297.861 49.6115 298.59 50.1306 299.598 50.8481C301.851 52.4525 305.497 55.0484 307.845 55.0484C307.363 54.3257 306.454 53.6884 305.452 52.9852C303.626 51.7045 301.488 50.205 301.049 47.5726H305.806C311.264 47.5726 313.35 50.6848 315.589 54.0253C316.975 56.0924 318.419 58.2469 320.758 59.8056L315.321 50.9707V50.2911L325.515 57.0872L326.194 56.4076L316.68 49.6115V48.2522L322.796 47.5726V46.893L313.282 48.2522L305.806 46.893H299.69L302.408 42.8153V42.1357L296.971 47.5726C293.605 47.5726 291.281 49.1359 289.031 50.6492C287.647 51.58 286.291 52.4919 284.738 53.0095L286.097 47.5726C284.375 48.4337 283.744 50.6585 283.167 52.6919C282.833 53.8683 282.518 54.9807 282.02 55.728L275.903 61.8445V59.8056L276.583 55.0484L274.544 60.4852C274.16 65.0977 272.471 68.1885 271.076 70.7411C270.005 72.7017 269.107 74.3449 269.107 76.1163V77.4755H268.427L267.068 84.2717C265.709 82.9124 265.709 73.3979 265.709 70.6794L266.389 65.9221V62.4226ZM286.114 93.0871C286.696 92.4554 287.132 92.1702 287.561 91.8895L287.562 91.8891C287.661 91.8247 287.759 91.7605 287.858 91.6924L290.272 90.4856C290.951 89.1263 291.631 87.7671 292.99 87.7671L297.068 85.7283L301.146 83.6894C303.444 83.6894 304.285 82.7182 304.9 82.0072L304.901 82.007L304.901 82.0065L304.902 82.0055C305.014 81.876 305.119 81.7553 305.223 81.6506L310.66 82.3302C310.66 82.3302 313.087 79.834 313.839 79.1193L315.913 79.2413L322.214 80.2914L324.252 81.6506C327.65 81.6506 329.01 83.6894 329.689 85.7283H331.049C333.767 85.7283 336.485 90.4856 336.485 92.5244C338.014 95.9637 338.468 96.3947 338.935 96.838C339.299 97.1831 339.671 97.5357 340.563 99.3205V104.757C340.745 104.94 340.927 105.073 341.096 105.197C341.558 105.535 341.922 105.801 341.922 106.796V107.476L340.563 116.311C340.931 119.623 341.1 121.142 340.422 121.946C339.847 122.627 338.666 122.795 336.485 123.107C336.485 125.825 334.447 128.544 332.408 128.544H330.369L328.33 132.621H325.612C324.932 134.66 322.214 137.379 319.495 137.379L314.058 136.02L305.903 136.699C305.615 135.836 303.865 134.363 301.942 132.745L301.942 132.745C299.325 130.543 296.388 128.072 296.388 126.505L297.068 125.146H303.864C304.276 124.94 304.749 124.61 305.267 124.249C306.458 123.418 307.879 122.427 309.301 122.427L311.34 123.107C311.522 122.925 311.704 122.792 311.873 122.668C312.335 122.33 312.699 122.063 312.699 121.068V119.029H312.019V114.272C312.019 113.592 312.359 113.422 312.699 113.253C313.039 113.083 313.379 112.913 313.379 112.233V110.194C313.379 107.476 309.981 106.117 307.262 106.117C305.023 105.743 303.809 104.96 302.831 104.33C302.028 103.813 301.385 103.398 300.466 103.398H299.786C296.356 103.398 291.573 107.186 287.827 110.152C285.636 111.887 283.799 113.342 282.796 113.592L282.116 108.835C284.569 105.157 293.658 98.7128 298.906 94.9918L298.907 94.991C299.477 94.5875 300.001 94.2161 300.466 93.8836L305.223 101.359L302.505 93.204H312.019L314.738 93.8836L314.058 100V102.039L314.738 106.117L315.417 94.5632C318.816 95.2428 324.252 101.359 325.612 103.398L316.777 117.67C317.472 116.975 318.246 115.647 319.154 114.091L319.154 114.091C320.907 111.085 323.156 107.228 326.291 105.437L327.65 111.554V115.631C327.65 116.348 325.569 118.012 323.303 119.822C321.275 121.443 319.099 123.182 318.136 124.466L326.971 119.029L327.65 119.709L322.893 128.544L323.573 131.262L329.01 121.748L331.728 124.466C331.728 121.865 331.33 121.255 330.838 120.502C330.688 120.271 330.528 120.028 330.369 119.709C329.481 117.489 329.753 116.719 330.049 115.884C330.206 115.441 330.369 114.979 330.369 114.272L329.01 106.796L334.447 108.835V108.155L328.33 104.078V104.757C325.806 99.8059 321.728 95.8254 316.777 93.204L322.116 89.1263L315.32 91.1652L308.524 90.4856L302.408 91.8448L304.447 88.4467C302.733 88.4467 302.229 89.3107 301.628 90.3416C301.037 91.3552 300.352 92.5301 298.33 93.204L292.311 97.9613C290.476 98.6952 287.65 101.212 285.225 103.373C283.159 105.214 281.383 106.796 280.757 106.796L280.078 104.757C280.078 102.719 284.155 98.6409 285.515 97.2817L286.114 93.0871ZM271.492 124.457C276.726 124.175 279.98 117.553 279.98 112.233H277.942C275.223 112.233 271.146 118.349 271.146 121.747V124.21C271.261 124.292 271.377 124.374 271.492 124.457ZM295.612 215.06C295.926 213.025 296.568 210.874 296.971 210.874L302.408 208.156V206.117L297.65 207.476C297.65 206.862 297.678 206.303 297.73 205.793C297.466 206.234 297.185 206.582 296.971 206.796L294.252 202.719C294.216 202.976 294.181 203.217 294.148 203.444L294.145 203.465L294.145 203.467C293.807 205.812 293.696 206.586 293.931 207.233C294.047 207.551 294.247 207.839 294.545 208.269L294.545 208.269L294.547 208.272L294.548 208.274C294.662 208.437 294.789 208.621 294.932 208.835C295.912 209.815 295.832 210.794 295.711 212.283C295.665 212.86 295.612 213.513 295.612 214.272V215.06ZM298.492 202.779C299.082 201.505 299.901 200.747 300.676 200.028C301.343 199.41 301.977 198.822 302.408 197.961H300.369C299.167 197.961 298.91 197.017 298.623 195.963C298.423 195.229 298.208 194.442 297.65 193.884L298.33 202.039C298.413 202.286 298.465 202.534 298.492 202.779ZM256.874 28.5436C256.377 28.5436 255.428 28.9059 254.423 29.4983L258.913 25.8251C259.549 24.8697 260.783 23.6158 262.125 22.483C261.819 23.017 261.631 23.6662 261.631 24.4659L266.163 23.7105C263.845 24.3541 261.369 25.512 260.951 27.1844L269.107 27.864V28.5436H256.874ZM266.388 19.7086C266.179 19.8133 265.921 19.9179 265.635 20.0324C265.907 19.8944 266.161 19.7845 266.388 19.7086ZM225.611 48.2527L228.33 43.4954L229.689 51.6507C229.689 52.2137 229.339 52.7767 228.929 53.4363C228.35 54.3692 227.65 55.4952 227.65 57.0876V57.7672L228.33 61.8449V65.9226C228.33 67.4491 228.758 68.1184 229.255 68.8933C229.642 69.4983 230.071 70.1676 230.369 71.3595L234.446 76.1167L238.524 80.874C238.064 81.3342 236.981 82.1837 235.67 83.2118C233.109 85.2205 229.678 87.9108 228.33 89.709L220.175 101.262V96.5051L218.815 95.1459V86.9905L219.495 85.6313V83.5925C219.495 82.5731 219.155 82.4032 218.815 82.2332C218.475 82.0633 218.136 81.8934 218.136 80.874L220.175 74.7575C220.175 71.7211 220.598 70.3805 220.973 69.1967C221.269 68.2608 221.534 67.4229 221.534 65.9226C221.534 60.8599 222.123 60.5114 224.948 58.8413L224.949 58.8403C225.158 58.7171 225.378 58.5868 225.611 58.4468V55.0488L226.971 52.3303L225.611 48.2527ZM104.543 149.612C104.543 144.175 108.621 133.981 112.699 133.301C112.699 138.539 115.929 146.2 118.343 151.926C119.061 153.63 119.707 155.162 120.175 156.408L126.291 165.923L132.408 174.758L126.291 175.437C120.854 175.437 113.378 168.641 111.34 166.602L112.019 162.525V160.486C112.019 157.767 107.942 154.369 104.543 153.69V149.612ZM205.092 21.6067C205.72 21.0677 206.81 21.0677 209.981 21.0677C209.981 21.0677 216.777 16.9901 216.777 17.0872H217.456C218.816 17.0872 219.495 19.126 219.495 21.1648L224.253 20.4852C225.866 20.4852 225.777 21.7618 225.67 23.3048C225.641 23.7118 225.612 24.1374 225.612 24.5629C226.252 24.7762 226.892 24.8556 227.469 24.9272C228.73 25.0837 229.689 25.2028 229.689 26.6017V27.2813L229.01 35.4367V38.1551C229.01 39.6119 227.448 42.2398 225.999 44.679C224.744 46.7914 223.573 48.7623 223.573 49.7085L224.253 51.7473L222.893 57.1842C220.175 58.5435 218.816 60.5823 218.816 64.66L217.456 73.4949C217.456 74.1904 217.615 74.5696 217.742 74.8752C217.988 75.4655 218.12 75.7815 216.777 77.5726L215.418 81.6503L216.777 83.6891L217.456 99.9027C215.418 99.2231 208.622 87.6697 208.622 86.3105C208.622 84.418 209.207 82.8183 209.835 81.1038C210.559 79.124 211.34 76.9911 211.34 74.0774C210.928 74.6948 210.517 75.6236 210.068 76.6375C209.033 78.9725 207.798 81.7589 205.903 82.2328L203.864 73.3978C203.864 73.3978 210.66 64.5629 210.66 61.8444C209.477 62.4362 208.68 63.9297 207.82 65.5397C206.706 67.6278 205.487 69.9119 203.185 70.6794L202.505 62.524V61.1648C202.505 59.7761 204.456 57.5006 206.546 55.0631C208.547 52.7292 210.675 50.2468 211.34 48.2522L203.185 57.0872L202.516 55.7508L202.505 55.825L198.427 50.3881C198.427 53.9479 199.463 55.9538 200.631 58.2146C200.801 58.5435 200.973 58.8778 201.146 59.2231L201.825 70.7765L192.99 63.3007C193.444 65.5661 195.709 67.8315 197.773 69.8955C198.805 70.9275 199.787 71.9092 200.466 72.8153C203.213 74.4634 203.739 76.5556 204.558 79.8097L204.558 79.81C204.752 80.5814 204.963 81.4182 205.223 82.3299V83.0095L197.068 77.5726C197.545 79.4788 201.697 82.3876 204.605 84.4242C205.843 85.292 206.856 86.0014 207.262 86.4075L213.379 99.2231L201.825 91.7473C199.619 89.9825 198.845 88.7905 198.202 87.7995C197.854 87.264 197.545 86.7872 197.068 86.3105C195.709 85.6308 191.631 83.592 191.631 81.5532V77.4755H190.952L189.592 72.0386L187.554 65.9221V61.1648L186.194 59.126C186.194 57.2112 186.842 56.1595 187.407 55.2415C187.845 54.5304 188.233 53.8994 188.233 53.0095C188.233 52.728 188 52.6797 187.727 52.6231C187.34 52.5431 186.874 52.4465 186.874 51.6503V49.6114C186.874 48.2522 187.554 48.2522 188.913 48.2522V42.8153C188.913 40.9005 189.56 40.2805 190.125 39.7392C190.563 39.32 190.952 38.948 190.952 38.058V31.2619L195.029 29.9027C195.029 28.4571 197.421 26.67 199.297 25.2678C200.067 24.6923 200.75 24.1817 201.146 23.7862H203.864C204.014 23.486 204.14 23.219 204.251 22.9815L204.251 22.9804L204.252 22.9789L204.253 22.9776L204.253 22.977L204.253 22.9768C204.561 22.3201 204.763 21.8894 205.092 21.6067ZM203.541 48.4911C203.864 45.4155 203.864 42.8523 203.864 36.1165V36.1163H204.544V40.194H205.903L211.34 29.3202H212.02L207.262 40.7765V41.4561L214.058 36.6988C212.663 39.0247 210.869 40.3954 209.114 41.7372C206.908 43.4224 204.763 45.0619 203.541 48.4911ZM173.864 91.165C171.825 91.8447 165.709 95.2427 165.029 97.2815C164.2 99.7702 163.37 99.9806 162.386 100.23C161.758 100.389 161.066 100.565 160.272 101.359C159.878 101.95 159.655 102.426 159.455 102.855C158.964 103.906 158.608 104.668 156.194 106.116V108.835L154.835 110.874V112.913L156.194 118.35C156.194 119.709 155.514 122.427 154.155 123.107V124.466C154.155 125.462 154.642 125.809 155.219 126.221C155.823 126.652 156.526 127.153 156.874 128.544C157.45 129.696 157.293 129.994 157.232 130.109C157.22 130.133 157.212 130.149 157.214 130.163C157.219 130.193 157.274 130.214 157.445 130.282C157.731 130.396 158.343 130.637 159.592 131.262C160.422 132.092 160.492 132.921 160.575 133.905C160.628 134.534 160.687 135.225 160.951 136.019L165.029 138.738C166.075 139.522 166.618 140.306 167.16 141.09C168.029 142.345 168.898 143.6 171.825 144.854L181.34 148.932H182.019C184.058 148.932 188.815 147.573 188.815 146.214C188.815 144.401 188.211 143.193 187.607 141.985C187.305 141.381 187.003 140.777 186.777 140.097C186.777 137.379 186.777 135.34 184.058 134.66V130.583C184.058 129.456 184.525 128.797 185.071 128.024C185.844 126.931 186.777 125.612 186.777 122.427C188.136 120.388 196.291 109.515 200.369 109.515L207.845 110.874C210.57 110.874 211.065 111.32 211.629 111.829C212.05 112.208 212.51 112.622 213.961 112.913L214.641 110.874C211.922 106.796 206.485 101.359 201.048 100.68L195.612 106.796L194.932 106.116L197.65 100.68V100H192.214L190.175 100.68V103.398C190.175 106.57 189.571 107.929 188.966 109.288C188.664 109.968 188.362 110.647 188.136 111.553H187.456L188.136 100L186.731 100.562C186.05 99.0396 182.5 99.1621 179.404 99.269L179.403 99.2691C178.646 99.2952 177.916 99.3204 177.262 99.3204L181.34 98.6408H185.417L194.932 99.3204H196.971L202.408 100C201.048 97.9612 188.815 91.165 185.417 91.165H173.864ZM164.349 108.835C166.388 106.796 177.262 102.718 181.34 102.718V110.874C182.019 112.913 181.34 115.631 180.66 116.99V104.757C178.621 105.437 172.505 112.233 172.505 113.592C172.505 113.789 172.676 114.272 172.919 114.957L172.919 114.957C173.516 116.636 174.544 119.532 174.544 122.427L171.825 114.951L169.786 119.029V127.184L171.146 133.301C169.786 131.942 168.427 126.505 168.427 124.466V122.427L169.786 115.631L169.107 114.951L163.67 119.029C164.777 116.815 167.237 115.051 169.581 113.371C170.114 112.989 170.642 112.611 171.146 112.233L177.942 104.757V104.078L164.349 108.835ZM335.806 166.602V157.087L339.883 156.408H341.922C345.32 165.922 362.99 180.874 376.582 180.874C376.743 181.034 376.941 181.195 377.151 181.364C377.828 181.912 378.621 182.554 378.621 183.592L377.262 184.272L370.466 182.233H368.427V184.951C368.427 186.99 363.67 191.068 360.951 191.068H356.874C348.039 191.068 335.806 176.796 335.806 166.602ZM100.466 139.417C100.466 140.639 100.054 141.999 99.6004 143.495C99.0449 145.328 98.427 147.367 98.427 149.612V156.408C98.427 158 97.7274 159.126 97.1478 160.059C96.738 160.719 96.3882 161.282 96.3882 161.845V163.204C96.3882 167.281 100.466 168.641 102.505 169.32L108.621 176.116C110.66 178.835 118.815 184.272 124.932 183.592L136.485 182.233L132.408 176.796L125.611 177.476H124.932C120.197 177.476 115.463 173.188 112.337 170.356C110.975 169.124 109.919 168.167 109.301 167.961L109.98 163.883V161.845C109.98 159.126 107.262 155.728 103.864 155.728V150.291L105.223 138.738C106.087 136.148 107.498 134.929 108.936 133.687C109.762 132.974 110.596 132.254 111.34 131.262L108.621 129.903C105.927 130.352 103.827 134.063 102.319 136.727C101.545 138.095 100.927 139.187 100.466 139.417ZM114.738 137.378V133.301V132.621C117.359 132.621 119.786 130.971 120.854 128.543C125.612 129.903 141.243 159.806 141.922 167.961L137.845 168.641H137.165C136.485 168.641 136.146 168.641 135.976 168.471C135.806 168.301 135.806 167.961 135.806 167.281H135.126C135.126 168.641 134.447 168.641 133.087 168.641L131.728 165.922C131.728 163.546 132.393 161.502 133.025 159.558C133.297 158.722 133.563 157.905 133.767 157.087C132.867 157.687 132.231 158.818 131.627 159.893C130.863 161.252 130.148 162.524 129.01 162.524H128.33L126.971 161.165V155.728L128.33 149.611C126.922 149.963 126.243 151.227 125.633 152.363C125.065 153.421 124.556 154.369 123.573 154.369C122.214 154.369 121.534 153.009 121.534 151.65L122.893 143.495C121.783 144.05 121.466 144.605 121.202 145.068C120.82 145.738 120.548 146.213 118.136 146.213L117.456 144.175C117.456 141.798 118.121 139.755 118.753 137.811C119.025 136.975 119.291 136.157 119.495 135.34L115.417 138.058L114.738 137.378ZM324.252 154.369V152.33C324.252 150.291 329.01 148.932 331.049 148.932H333.767C337.165 148.932 346.68 150.291 348.718 151.651L360.272 157.087L358.913 161.165C358.138 161.165 356.58 160.087 354.647 158.749L354.646 158.749C351.489 156.565 347.333 153.689 343.961 153.689H339.204C337.704 153.689 336.203 154.219 334.527 154.811C332.408 155.56 330.007 156.408 326.971 156.408C326.291 156.408 324.252 155.728 324.252 154.369ZM379.301 126.505V129.223L385.417 133.301C388.136 131.262 392.213 125.825 392.213 120.388C392.213 119.709 391.534 116.311 390.175 116.311H388.136C385.194 116.731 383.292 120.269 381.786 123.069C380.857 124.798 380.079 126.245 379.301 126.505ZM368.427 160.486L362.99 157.767C362.99 154.369 368.427 144.854 369.786 144.854L375.903 147.573C375.903 151.651 371.146 160.486 368.427 160.486ZM370.466 143.495L376.582 146.214C379.301 146.214 384.058 137.379 384.058 133.301C382.019 133.301 377.942 130.583 377.942 130.583C375.903 130.583 370.466 140.097 370.466 143.495ZM144.641 168.641L150.078 165.922L154.835 165.243C156.194 165.243 157.553 168.641 157.553 170V172.718C157.553 174.078 156.874 175.437 155.514 175.437H154.835L152.796 174.757V172.718H153.476V171.359C151.394 171.359 150.078 172.379 149.057 173.17C148.412 173.67 147.886 174.078 147.359 174.078L144.641 168.641ZM107.942 123.107V124.466C107.942 125.825 109.301 127.184 110.66 127.184C114.738 127.184 118.816 126.505 118.816 122.427C118.816 119.709 116.777 117.67 114.058 117.67C111.34 118.35 107.942 120.388 107.942 123.107ZM138.524 180.874C136.486 180.194 134.447 177.476 134.447 176.117C134.447 173.398 139.884 170.68 143.282 170.68L146 174.757V176.796C146 178.835 139.884 180.874 138.524 180.874ZM103.864 114.952V115.631C103.864 116.991 105.903 119.709 106.583 119.709C107.156 119.709 107.609 119.346 108.196 118.875C108.999 118.23 110.055 117.383 112.02 116.991V114.952C112.02 113.592 110.66 110.874 107.942 110.874C105.223 110.874 103.864 112.913 103.864 114.952ZM360.952 174.757C359.592 174.078 355.515 172.039 355.515 170L358.913 165.243L363.67 168.641L360.952 174.757ZM107.942 291.068C107.942 292.229 109.704 296.254 111.348 300.007C112.591 302.845 113.766 305.529 114.058 306.699C118.136 316.214 125.029 324.369 133.767 329.806L136.486 331.845L140.563 333.204L148.719 335.922H150.078V336.602H154.155C154.155 334.922 153.377 334.799 152.3 334.63C151.635 334.525 150.857 334.403 150.078 333.884L146 331.165H141.922V330.486H140.563V329.126H141.922L137.165 323.689C134.447 323.689 127.651 321.651 126.971 318.932L131.728 320.291V321.651L133.767 320.971L126.291 312.816C123.573 312.816 118.136 310.097 117.456 307.379L123.573 309.418V308.738H124.252V303.301L126.971 310.777H126.291C127.379 311.592 128.466 312.843 129.553 314.093C131.185 315.969 132.816 317.845 134.447 318.253V316.893L133.767 312.816L135.126 313.495L136.486 317.573C136.486 322.33 139.204 326.408 143.282 326.408L142.602 322.33C143.961 323.01 145.32 324.369 145.32 327.088V328.447L150.757 332.524L156.874 336.602C152.796 324.369 137.165 306.02 128.33 298.544L126.291 296.505L122.214 294.466C120.855 294.013 119.344 293.258 117.734 292.453L117.733 292.453C114.511 290.842 110.887 289.029 107.262 289.029V291.068H107.942ZM346 323.786L354.156 311.553C360.952 299.903 375.903 292.427 388.816 288.35V289.126C388.816 306.796 359.592 339.418 342.602 338.058V337.379L350.078 331.942C351.243 331.359 352.782 331.151 354.322 330.943C356.375 330.666 358.427 330.388 359.592 329.223H354.156V328.544H355.515L354.835 327.864L359.592 323.786H360.272C362.311 323.786 367.068 322.427 367.748 321.068H362.991L369.107 313.592C369.724 313.181 370.529 312.894 371.406 312.581C373.428 311.859 375.841 310.998 377.262 308.155L373.185 308.835L377.942 302.719L372.505 308.835L373.185 302.719C370.466 304.078 369.107 307.476 369.107 311.553L367.748 312.233L368.427 312.913L361.631 319.709H360.952L362.311 313.592H360.952L358.913 321.748C358.233 323.786 354.156 326.505 352.796 326.505V323.786C351.244 324.718 350.968 325.792 350.673 326.942C350.322 328.31 349.943 329.786 347.359 331.262L339.204 336.699L346 323.786ZM122.893 280.874C120.175 276.796 118.136 269.32 118.136 263.204H118.815V259.806C138.524 270.194 153.573 287.67 160.951 308.738C158.912 307.378 147.359 298.544 147.359 297.184V293.107L145.32 289.029V293.786H144.641L139.204 288.349V280.194H138.524V284.272C137.402 284.272 136.545 283.969 135.863 283.498C136.166 284.04 136.381 284.535 136.485 284.951H131.048C131.654 286.465 133.474 286.9 135.306 287.338C137.586 287.882 139.883 288.43 139.883 291.068L140.563 290.388L143.281 294.466L142.602 295.145H139.883V295.825C143.767 296.602 147.262 298.544 150.077 301.262L157.553 308.058C154.404 307.664 151.938 306.359 149.497 305.065C147.723 304.126 145.963 303.193 143.961 302.621L137.844 298.544C131.728 294.466 125.611 288.349 122.893 280.874ZM133.444 280.243C132.926 279.25 132.457 278.398 131.728 278.155V272.718L130.369 274.757L129.01 274.077V275.437H126.971V276.116C128.886 276.116 131.45 278.06 133.444 280.243ZM343.282 361.845L349.398 357.767C353.287 357.767 354.283 355.32 355.187 353.099C355.864 351.437 356.488 349.902 358.233 349.612L356.874 353.689C358.134 353.689 358.875 353.17 359.899 352.453C360.219 352.228 360.566 351.985 360.966 351.732C360.564 352.085 360.211 352.471 359.862 352.853C359.356 353.408 358.858 353.952 358.233 354.369L364.35 355.048L354.156 357.087L344.641 362.524V363.204H346.68C361.631 362.524 375.903 357.767 386.097 329.903H379.981C374.544 329.903 369.787 331.262 366.389 333.98L360.952 336.699L357.554 342.136L349.398 350.291L347.359 356.408C346.798 356.969 346.289 357.376 345.83 357.741C344.624 358.704 343.774 359.382 343.282 361.845ZM365.029 350.291C364.221 350.291 363.546 350.398 362.968 350.58C363.819 349.962 363.876 349.318 363.947 348.523C364.019 347.722 364.104 346.768 365.029 345.534V347.573C366.171 347.573 367.072 347.213 367.885 346.646C367.13 347.482 366.598 348.304 366.389 348.932H368.427L367.748 350.291H365.029ZM375.224 342.815C373.293 342.815 371.362 343.73 369.792 344.909C369.909 344.786 370.027 344.661 370.146 344.534C370.466 344.195 370.796 343.845 371.146 343.495L371.825 339.417V341.456H373.185V342.815H375.224ZM122.893 353.01C118.136 348.932 109.98 337.379 109.98 331.942L112.019 330.583H118.136C129.01 330.583 139.883 338.738 146 347.573L153.476 361.165C151.829 361.165 150.682 360.168 149.429 359.08C148.613 358.371 147.752 357.624 146.68 357.087C143.961 356.408 141.922 353.689 141.922 350.971L139.204 348.932L140.563 354.369L135.126 351.65C134.162 350.366 133.958 349.536 133.795 348.875C133.613 348.138 133.483 347.61 132.408 346.893V348.252C131.048 348.252 126.291 344.175 125.612 342.816V340.777H124.932V342.816L120.854 340.097L123.573 344.175H122.213C124.721 344.593 126.2 346.038 127.6 347.406C128.476 348.262 129.322 349.088 130.369 349.612V350.291L127.65 349.612V350.971L134.446 352.33L139.204 355.049V355.728H133.767C135.126 357.087 138.524 357.767 142.602 357.087L152.116 362.524V363.204H141.922C135.126 363.204 128.33 357.767 122.893 353.01ZM188.136 186.311L187.457 194.466V195.825C187.457 203.98 188.136 208.738 191.534 213.495C192.038 215.005 193.007 217.075 194.029 219.256C195.765 222.962 197.651 226.987 197.651 229.126L203.088 228.446C203.088 223.101 201.372 221.831 199.627 220.54C198.266 219.533 196.887 218.512 196.291 215.534L198.33 216.893H199.69V214.175H199.01V211.456C199.01 209.417 196.291 208.738 194.253 208.738L192.214 206.019L197.651 206.699C197.163 201.82 195.974 200.794 194.588 199.597C194.044 199.127 193.469 198.631 192.893 197.864L194.253 198.544C195.356 198.544 195.863 197.946 196.418 197.29C196.889 196.734 197.395 196.137 198.33 195.825L197.651 201.942L199.01 208.058L203.088 203.98L202.408 208.058C201.049 208.738 200.369 209.417 200.369 212.136V212.815H201.728V218.252H203.088V216.893H205.126V218.252L203.767 222.33L205.126 229.126H206.486L207.165 221.65C207.845 212.136 205.126 203.98 202.408 197.864C199.495 191.456 195.029 185.922 189.495 181.553L188.136 186.311ZM152.796 270.68L146.68 264.563C145.073 264.027 143.783 263.808 142.643 263.615C140.89 263.317 139.492 263.08 137.845 261.845H142.602C142.602 260.485 137.845 255.049 137.165 255.049H135.126V253.689H133.767L131.048 252.33V251.65L133.767 252.33H135.126C134.759 250.863 134.046 249.644 133.174 248.605L136.485 252.33V247.573C138.524 248.932 138.524 252.33 138.524 255.049L143.961 259.806V257.087L148.039 263.883L154.155 269.32C154.155 267.759 149.771 260.218 147.412 256.162L147.412 256.161L147.411 256.161L147.411 256.16C146.69 254.921 146.159 254.007 146 253.689C143.658 251.088 141.616 248.287 139.567 245.477C136.263 240.948 132.944 236.396 128.33 232.621L118.815 225.825C119.495 243.495 133.087 267.961 152.796 270.68ZM131.048 246.214L132.726 248.1C131.515 246.811 130.083 245.814 128.854 244.959L128.853 244.959L128.853 244.959C127.709 244.163 126.74 243.489 126.291 242.815L128.33 243.495L129.689 242.815V240.777H130.369L131.048 246.214ZM346 265.243L343.282 267.961C343.282 264.61 351.084 253.456 355.374 247.324C356.304 245.995 357.069 244.901 357.554 244.175L362.311 238.738L367.068 233.98C367.413 233.636 367.855 233.174 368.365 232.642L368.366 232.64L368.367 232.64C370.871 230.025 375.004 225.71 377.262 225.146C376.097 237.767 371.34 249.709 363.67 259.806C361.631 262.524 352.796 269.32 347.359 269.32H345.321C345.321 267.961 349.398 264.563 350.757 263.883C351.645 263.292 352.79 263.086 353.968 262.875C355.497 262.601 357.082 262.316 358.233 261.165H354.156C354.156 259.806 358.233 255.728 359.592 255.048C360.431 254.21 361.614 253.716 362.764 253.237C364.411 252.55 365.988 251.892 366.389 250.291L361.631 251.65C363.536 246.889 366.775 244.796 368.777 243.502C369.633 242.95 370.263 242.543 370.466 242.136H366.389V239.417L365.709 240.777L365.029 245.534L360.272 251.65H359.592V247.573C358.142 248.661 358.239 249.942 358.336 251.211C358.421 252.32 358.504 253.418 357.554 254.369L352.796 259.126V257.087H351.437C350.757 259.806 349.398 265.243 345.321 265.243H346ZM279.98 195.146L279.301 192.427C279.301 190.388 290.854 173.398 292.893 173.398C294.932 173.398 295.611 186.311 295.611 190.388L290.854 199.223C288.136 199.223 285.417 198.544 285.417 196.505C285.417 191.881 287.165 190.971 288.679 190.183C289.835 189.581 290.854 189.05 290.854 186.99L288.815 187.67H287.456C286.437 187.67 286.437 187.5 286.437 187.245C286.437 186.99 286.437 186.65 285.417 186.311V187.67L286.097 190.388L285.417 195.146V196.505L279.98 195.146ZM137.845 216.99L147.359 233.981L154.835 253.01C160.66 266.893 164.058 281.553 165.029 296.505V312.816C165.029 322.621 164.35 332.33 162.99 342.039C160.272 361.068 153.476 378.058 146.68 395.048C148.039 396.408 160.272 400.485 162.99 401.165L178.621 407.961C184.907 410.862 192.225 415.828 198.617 420.165L198.618 420.165L198.618 420.165L198.619 420.166C201.21 421.924 203.649 423.579 205.806 424.951C211.922 429.029 225.515 440.583 228.913 446.699L238.427 458.932L247.262 472.524L255.418 459.612L265.612 446.699C279.204 431.068 296.194 417.476 315.223 408.641L330.175 401.845L346.486 395.728H349.884C348.403 390.546 346.206 384.916 343.91 379.033C339.882 368.714 335.551 357.617 334.253 346.796C332.602 336.893 331.728 326.893 331.534 316.893V297.864C332.893 275.437 339.01 253.689 349.204 233.204L358.719 215.534L339.689 206.019C338.958 205.654 337.389 204.746 335.434 203.615L335.434 203.615C330.125 200.544 321.967 195.825 319.981 195.825C319.657 197.12 317.79 200.421 315.704 204.11C313.412 208.164 310.854 212.687 309.786 215.534L301.631 235.922C266.486 228.155 229.981 228.155 194.835 235.922C189.398 221.65 183.282 208.738 175.806 196.505L156.777 206.019C156.075 206.546 153.404 207.949 150.281 209.589L150.281 209.59C144.768 212.486 137.845 216.123 137.845 216.99ZM208.622 200.68L214.738 210.874L220.175 221.068L220.855 225.146L248.719 223.107H251.437L275.903 225.146L281.34 212.233L288.816 200C282.699 200 269.787 189.806 269.107 183.01C267.379 183.257 265.831 184.31 264.005 185.552C260.806 187.73 256.755 190.485 249.398 190.485H246.68C243.088 190.485 239.592 189.515 236.486 187.767L227.651 183.01C227.651 190.388 214.738 199.32 208.622 200.68ZM216.097 204.078L224.253 219.709L246 218.35H255.515L271.825 219.709L279.981 203.398L272.505 197.961L265.709 191.165C265.289 191.165 264.22 191.619 262.744 192.246L262.744 192.247L262.743 192.247L262.743 192.247L262.742 192.247C259.439 193.651 254.094 195.922 249.398 195.922H246.68C241.984 195.922 236.639 193.651 233.335 192.247L233.335 192.247C231.858 191.619 230.789 191.165 230.369 191.165L223.573 197.961C223.115 198.419 222.118 199.03 220.997 199.718C218.789 201.074 216.097 202.725 216.097 204.078ZM243.961 97.9609V89.8056C243.961 89.126 246 83.6891 248.039 84.3687H248.718C251.437 84.3687 253.476 91.1648 253.476 93.8833V95.9221C253.476 98.6406 251.437 104.757 248.718 104.757C246 104.757 243.961 99.9998 243.961 97.9609ZM231.728 95.9222C231.728 100.679 235.806 109.514 239.204 109.514H241.243L242.602 108.155C243.281 100.679 231.728 85.728 231.728 95.9222ZM256.194 109.515C255.515 109.515 254.835 108.835 254.835 107.476V104.757C254.835 100.68 258.913 91.8447 261.631 91.165H263.67L264.35 95.2427C264.35 100 260.272 109.515 256.194 109.515ZM263.67 112.913V113.592L264.35 115.631H265.709C268.427 115.631 273.184 107.476 273.184 102.719C273.184 101.359 272.505 100.68 271.825 100.68C268.427 100.68 263.67 108.835 263.67 112.913ZM222.893 104.757V103.398C222.893 101.359 223.573 101.359 224.252 102.039H224.932C228.33 102.039 233.087 109.515 233.087 114.272L232.408 116.311H230.369C230.142 115.631 229.236 114.725 228.129 113.617C225.914 111.402 222.893 108.382 222.893 104.757ZM216.777 112.913C216.777 116.99 221.534 124.466 224.253 124.466L226.291 123.107C226.291 119.029 221.534 112.913 218.136 112.913H216.777Z" fill="#FDFDFD"/>
<path fill-rule="evenodd" clip-rule="evenodd" d="M176.583 321.747V324.466C176.583 361.845 208.524 395.243 246 395.243H257.553C291.825 391.359 318.427 363.592 320.854 329.223V323.786C321.534 285.728 292.311 254.369 254.155 251.65H245.32C207.262 253.689 177.262 284.272 176.583 321.747ZM184.738 306.699V308.058H192.893C194.537 308.058 196.181 304.082 197.112 301.829C197.336 301.288 197.519 300.846 197.65 300.582C197.956 299.971 198.228 299.359 198.496 298.755C199.419 296.675 200.301 294.687 202.408 293.107C212.311 277.087 229.786 267.281 248.621 267.281C258.136 267.281 271.048 271.359 277.165 274.757C281.243 277.476 296.194 289.029 296.194 293.786C296.194 294.466 288.718 299.223 287.359 299.223C287.276 299.223 286.998 298.896 286.528 298.321L292.311 294.466C292.311 290.388 278.719 279.514 275.32 277.475C267.845 273.398 259.689 270.679 248.136 270.679C229.884 270.485 212.796 279.417 202.602 294.466L198.524 302.621C195.029 308.835 194.35 314.272 194.35 321.747C194.35 336.699 201.146 355.728 212.02 365.242C229.495 380.194 254.35 382.912 274.641 372.039C281.34 368.058 287.165 362.718 291.631 356.408L284.835 353.689L279.398 359.806L271.922 365.242C250.078 379.126 221.049 372.718 207.165 350.776C202.408 343.301 199.884 334.66 199.884 325.728C199.107 300.388 218.233 278.932 243.379 276.796H248.816C256.291 276.796 265.806 280.874 271.243 283.592C272.069 284.418 273.229 285.244 274.454 286.115C276.251 287.394 278.185 288.771 279.398 290.388L280.175 291.321C273.67 285.101 262.831 277.476 247.942 277.476H247.262C237.068 277.476 226.874 282.233 220.757 286.99C216 289.709 206.485 300.582 206.485 308.058H216C216.68 306.699 224.835 291.068 239.786 289.029V297.864C237.068 298.544 230.272 303.301 228.233 307.379H252.019V286.99C258.136 286.99 274.447 293.107 281.243 303.981L279.044 304.86C275.781 298.224 262.061 291.146 253.476 290.485V358.447C263.573 356.699 272.796 351.456 279.301 343.495L273.864 340.777L267.747 346.893C267.341 346.893 266.45 347.378 265.4 347.95C262.934 349.292 259.592 351.112 259.592 348.252V330.583L260.951 329.223H274.544V323.786H260.951C260.272 323.786 259.592 323.786 259.592 322.427V298.641C265.126 300 270.175 303.107 273.864 307.476L275.935 306.699H311.825C311.825 295.146 298.233 277.476 291.437 272.039C286.291 267.864 280.563 264.466 274.447 261.845L273.98 261.67C268.514 259.617 259.965 256.408 252.699 256.408H244.544C216.097 258.932 192.116 279.029 184.738 306.699ZM275.935 306.699L279.301 305.437C279.224 305.245 279.138 305.053 279.044 304.86L274.447 306.699H275.935ZM280.175 291.321L286.194 298.543L286.528 298.321L286.404 298.169L286.303 298.045C285.156 296.639 283.105 294.122 280.175 291.321ZM214.058 327.184V323.107C214.349 308.252 223.864 295.243 237.845 290.485V295.922L231.728 300.68L226.291 306.116C224.252 308.835 220.175 315.631 220.175 320.388V326.505C220.175 333.301 228.33 346.214 234.446 346.893V329.903L233.087 328.544H230.369V323.107H240.563V357.087C228.33 355.728 214.058 340.097 214.058 327.184ZM261.631 308.155H270.466C269.786 305.437 264.349 301.359 261.631 300.68V308.155ZM288.136 376.796C273.184 387.67 259.592 389.709 241.922 389.709C223.573 389.709 188.815 367.961 187.553 349.612H199.107C208.718 368.447 228.233 380.291 249.398 380.194H252.116L269.107 376.117L278.621 370.68C281.34 368.641 293.573 359.126 293.573 356.408C293.573 354.369 286.097 350.291 284.738 350.291L277.942 357.767L269.786 363.884C256.194 372.039 238.524 372.039 224.932 363.884C224.232 363.184 222.947 362.169 221.425 360.966C217.031 357.497 210.66 352.465 210.66 348.932H223.573L231.728 355.049C231.805 355.087 231.906 355.139 232.027 355.201C234.058 356.238 241.922 360.255 241.922 356.408V348.932H252.116V357.767C252.116 361.165 264.349 356.408 265.709 355.728L275.903 348.932H309.204C307.844 357.087 294.932 372.039 288.136 376.796Z" fill="#FDFDFD"/>
<path d="M213.378 146.214C216.097 151.65 236.485 163.204 246.679 163.204H251.437C260.951 163.204 280.66 150.971 284.738 145.534C271.825 127.864 224.932 127.864 213.378 146.214Z" fill="white"/>
</svg>
