<svg width="500" height="500" viewBox="0 0 500 500" fill="none" xmlns="http://www.w3.org/2000/svg">
<path d="M211.34 155.049L214.058 154.369L229.689 167.282C231.049 167.961 243.961 176.796 246.68 177.476C248.718 177.476 262.311 168.641 264.35 167.282L279.981 154.369L284.738 155.049C287.456 155.049 290.854 148.252 290.854 145.534V138.738C290.854 137.379 290.854 137.379 289.495 137.379L285.418 138.058C285.418 138.058 250.757 111.553 247.359 111.553L226.971 124.466C220.854 127.185 214.058 134.66 207.942 138.058L203.184 136.699L202.505 138.058C203.184 142.136 205.903 155.049 211.34 155.049Z" fill="white"/>
<path d="M292.893 146.893V144.854H292.213C292.213 147.573 289.495 154.369 286.097 154.369H285.417L281.34 153.689L265.709 166.602C263.67 167.961 250.077 176.796 248.039 176.796L231.048 165.243C229.009 164.563 215.417 153.01 215.417 153.01L212.699 153.689C206.582 153.689 205.223 142.136 205.223 138.738V136.699H205.903V135.34L210.66 136.699C216.776 133.981 223.573 126.505 229.689 123.107L249.398 110.874C254.155 110.874 288.136 136.699 288.136 136.699L292.213 136.019C293.573 136.019 293.573 136.019 293.573 137.379V138.738L290.854 144.854H292.213V146.893L293.573 142.136V138.058C293.573 136.019 292.213 133.981 289.495 133.981H288.815C288.815 127.864 284.058 118.35 284.058 114.951C284.058 112.913 289.495 110.194 290.854 108.835C293.573 106.796 294.932 104.078 299.689 104.078H300.369L305.806 106.117C308.524 106.117 311.242 106.116 311.242 108.835L309.98 113.592L310.66 119.029H309.301C307.262 119.029 304.543 121.068 303.184 123.107H297.068L295.029 123.786V125.825C295.029 128.544 305.223 138.058 308.621 138.058L314.058 137.379C316.776 137.379 318.815 139.417 321.534 139.417C322.893 139.417 325.611 135.34 327.65 134.66C330.369 133.981 331.728 132.621 333.087 129.903C335.806 129.903 337.844 128.544 338.524 125.825C339.883 121.068 340.563 125.825 343.281 121.068L343.961 113.592C343.961 108.835 345.32 109.515 345.32 106.117V105.437C345.32 104.078 343.961 104.078 343.281 102.718L343.961 100C343.961 98.6408 341.243 97.2815 341.243 94.5631L337.165 90.4854C335.126 87.767 336.485 86.4078 332.408 85.7282C327.65 85.0485 330.369 84.3689 326.971 81.6505L324.932 80.9709L322.213 79.6116L310.66 78.932V79.6116H305.126L296.971 83.6893C295.611 85.7281 294.252 85.0485 290.175 89.1262C287.456 93.2039 287.456 90.4854 284.058 95.9223C282.699 97.2816 279.301 100 278.621 102.718C276.097 100.097 274.058 97.0874 272.505 93.8835V93.2039L277.942 80.2913V74.7573L284.058 67.2815C290.854 67.2815 290.854 67.2815 292.893 63.2039C296.971 63.2039 295.611 61.8447 298.33 61.8447H305.126L309.883 65.9223C311.922 67.2815 314.641 66.6019 317.359 66.6019L320.077 69.3204L324.155 71.3592C326.194 72.7184 326.194 76.7961 330.272 76.7961H330.951C332.99 76.7961 339.107 70.6796 339.107 68.6408L337.747 62.5243V61.165C339.107 60.4854 339.107 59.8058 339.107 58.4466C339.107 56.4078 337.068 53.6893 336.388 52.3301V48.932L332.31 46.2136L329.592 40.7767L326.874 38.7379L324.155 36.0194H322.116C318.039 33.9806 320.077 33.301 313.961 33.301C312.602 32.6214 312.602 31.9417 309.883 31.9417L305.126 32.6213L296.971 33.301L291.534 38.0582C285.417 38.0582 285.417 39.4175 283.378 42.8155C280.66 44.8544 277.262 43.4951 275.903 48.932C273.184 48.932 271.145 50.9709 271.145 53.6893C264.349 54.3689 269.786 61.8447 265.029 63.2039L264.349 74.7573L265.029 86.3107C262.31 85.6311 254.835 77.4757 248.039 76.7961V74.7573C248.039 70 249.398 67.9612 250.757 64.5631C252.796 59.1262 254.835 62.5243 254.835 54.3689C256.874 53.6893 259.592 53.0097 260.272 50.2913C262.31 44.8544 262.99 48.2524 265.709 44.8544L275.903 36.699H281.34L282.019 36.0194L286.097 36.699C288.136 36.699 288.815 33.9806 288.815 31.2621V29.2233C288.815 24.466 284.058 21.068 282.019 19.7087C279.301 19.0291 277.942 19.0291 276.582 16.9903C275.223 15.6311 273.184 12.9126 271.825 12.9126L269.786 13.5922L268.427 11.5534H263.67L261.631 10.8738C257.553 10.8738 253.475 12.9126 251.437 14.9514C239.883 14.9514 246 19.7087 241.242 21.068C235.126 23.7864 239.883 22.4272 236.485 25.8252C234.446 26.5048 234.446 26.5048 234.446 31.2621C233.087 32.6214 232.408 32.6214 232.408 36.699C231.728 39.4175 233.087 42.1359 230.369 42.1359L231.048 40.7767V27.1845H231.728V25.8252C231.728 21.7476 229.009 27.1845 229.009 20.3883L226.971 18.3495H222.893C220.854 17.6699 220.854 16.3107 217.456 16.3107C214.058 16.3107 213.378 18.3495 210.66 19.0291C205.903 20.3883 205.903 18.3495 203.864 23.1068L200.466 23.7864L188.912 31.2621V38.7379C188.912 40.0971 187.553 39.4175 187.553 42.8155V47.5728C185.514 48.2524 185.514 48.932 185.514 50.2913V52.3301L186.194 54.3689L184.835 59.1262L187.553 71.3592C188.912 74.0777 190.272 79.5146 190.272 83.5922C192.31 86.3107 195.029 86.3107 197.068 89.0291C199.107 91.7476 199.107 93.1068 202.505 95.1456C204.543 96.5048 215.417 103.981 217.456 103.981L215.417 110.097C212.699 108.738 205.223 99.9029 201.825 97.1845C199.786 94.466 197.068 93.1068 193.67 91.7476C190.951 91.068 188.233 89.0291 184.155 89.0291H182.116L172.602 90.3883L169.883 92.4272L165.126 94.466L162.408 97.1845C161.728 99.2233 160.369 97.8641 159.689 99.9029C157.65 101.942 154.932 104.66 154.932 107.379C152.893 108.058 152.893 108.738 152.893 110.777V111.456L153.573 118.252C153.573 119.612 151.534 120.971 151.534 125.049L155.611 129.806C156.291 131.165 156.291 132.524 159.689 132.524C159.689 136.602 160.369 137.961 163.767 138.641C166.485 140 166.485 143.398 168.524 144.757C171.242 146.117 180.077 149.515 184.155 149.515H186.194C188.233 149.515 191.631 147.476 191.631 144.078L189.592 137.961C188.912 133.883 186.874 133.204 186.874 131.845V130.485L188.912 125.728C188.912 123.01 191.631 118.252 194.349 117.573C195.029 116.214 199.786 111.456 201.145 111.456H200.466L209.301 112.136L212.019 114.854L207.262 134.563H205.903C203.184 134.563 201.825 136.602 201.825 139.32C201.825 144.078 203.864 156.311 209.98 156.311L214.058 155.631L219.495 164.466C221.534 169.223 225.611 174.66 225.611 179.417V180.777C225.611 184.854 221.534 190.291 218.136 192.33C216.097 186.893 205.903 170.583 201.825 169.223L199.107 186.893H198.427L188.912 177.379C186.874 182.816 186.874 195.049 186.874 203.883L178.039 189.612L158.33 199.126C157.65 195.049 146.097 181.456 146.097 178.738C146.097 177.379 148.815 176.019 150.854 174.66C151.534 175.34 152.213 176.019 154.932 176.019H156.291C158.33 176.019 160.369 174.66 160.369 173.301V168.544C160.369 165.825 158.33 163.107 154.932 163.107C149.495 163.107 146.097 167.184 142.699 167.184C142.019 160.388 136.582 151.553 133.864 145.437C131.145 138.641 125.709 133.204 121.631 127.767L122.31 125.728V123.689C122.31 120.971 118.233 116.893 116.194 116.893H114.155V115.534C114.155 112.816 111.437 109.417 108.718 109.417H107.359C105.32 109.417 101.922 112.136 101.922 114.175V116.214C101.922 118.932 103.961 120.971 106.679 121.65L106 124.369L106.679 129.806C101.922 131.845 99.2036 137.961 97.8444 143.398L96.4852 151.553V156.99L95.126 161.748V163.786C95.126 166.505 97.8444 169.903 101.242 170.583C103.281 171.262 106 176.019 108.039 177.379C112.116 182.136 117.553 185.534 125.709 185.534H126.388C131.825 185.534 135.903 182.816 139.98 182.816L151.534 204.563L132.505 214.078L144.738 237.184C146.097 241.262 154.252 258.252 154.252 263.01L146.097 250.777L137.165 240.097C131.437 232.816 124.252 226.796 116.097 222.427C116.097 244.854 131.728 272.718 156.874 272.718C158.912 277.476 162.31 299.903 162.31 307.379L152.796 291.068L143.281 277.476C137.844 271.359 122.893 257.767 115.417 256.408V260.485C115.417 273.592 120.854 286.214 130.369 295.146C134.446 299.903 138.524 302.621 144.641 305.34L152.796 308.058C154.835 308.738 161.631 310.097 161.631 312.136V312.816L160.272 335.922L150.757 320.388L139.204 305.437C132.408 297.961 119.495 286.408 105.223 286.408C105.223 291.165 110.66 302.039 112.019 306.116C114.738 312.913 118.136 316.311 122.213 322.427C129.009 330.583 143.281 338.738 158.912 338.738L154.155 359.806L147.359 348.252L139.883 339.417C134.446 333.981 126.291 327.864 116.097 327.864H107.262C107.262 333.301 114.058 344.854 116.776 348.252C124.543 360.291 138.718 366.408 152.796 363.883L148.039 382.913L140.563 399.223L144.641 399.903L159.592 404.66L173.864 410.777L186.776 417.573L199.689 425.728L164.349 489.709L207.165 431.845C220.077 442.039 231.631 453.592 240.466 467.864C241.825 469.903 247.942 481.456 249.98 482.136C259.495 462.233 273.767 444.951 291.437 431.845L332.213 486.893L298.912 426.311L316.582 414.757L336.971 405.922L338.33 405.243L356 399.806C356 397.767 350.563 386.214 349.204 383.495L343.087 365.146L350.563 365.825C359.398 366.505 371.631 358.35 375.029 353.592C378.427 348.835 388.621 336.602 388.621 329.806L383.864 329.126C372.31 329.126 360.757 331.845 353.961 342.039L347.165 350.874C345.806 352.913 342.408 358.349 340.369 359.709L336.291 339.32H339.009C355.223 338.155 369.883 329.32 378.427 315.534L382.505 308.738C386.582 301.942 387.942 294.466 389.98 287.67V286.99C375.029 286.99 363.475 298.544 356 306.019L344.641 320.388C342.602 323.107 337.165 336.019 335.126 336.699L333.767 313.592V312.233C356.874 306.796 379.301 290.485 379.301 262.621V256.505C376.582 257.184 367.747 263.301 365.029 265.34L352.116 276.893L342.602 290.485C339.883 294.563 336.485 303.398 333.767 306.116L336.485 287.767L340.563 272.136H342.602C354.835 272.136 362.31 265.34 367.068 258.544C373.184 250.388 376.582 239.515 378.621 230.68L380.66 221.165C372.505 225.922 365.029 234.757 358.912 240.874C354.155 245.631 342.602 264.66 341.922 264.66C343.281 258.544 348.718 244.272 351.437 238.835L358.233 226.602L365.029 215.049C365.029 213.01 345.32 204.854 345.32 202.816L352.116 191.262L360.272 192.621H365.029C371.145 192.621 380.66 188.544 384.738 186.505L392.893 188.544H397.65C400.369 188.544 405.126 184.466 405.126 182.427V180.388C405.126 178.35 401.048 175.631 398.33 175.631C394.252 175.631 392.893 179.709 390.854 179.709C385.417 179.709 371.825 166.116 369.786 162.039C371.825 157.961 377.942 154.563 377.942 147.087C380.66 145.728 386.097 138.932 386.097 133.495C388.136 131.456 393.573 124.66 393.573 119.903V118.544C393.573 117.184 390.854 113.786 388.136 113.786C382.019 113.786 378.621 121.262 376.582 126.019C375.903 132.136 369.107 133.495 369.107 141.65C366.388 145.728 360.951 149.126 360.951 155.243L348.718 148.447C343.281 147.767 339.204 146.408 333.087 146.408H330.369C327.65 146.408 322.213 148.447 322.213 152.524V154.563C322.213 155.922 324.932 156.602 326.971 156.602L329.689 158.641L333.767 157.961V163.398C333.767 168.835 334.446 175.631 335.806 178.35L343.961 187.864L337.844 200.097L318.815 189.903L310.66 204.175L307.942 177.67C303.864 178.35 299.786 185.825 297.747 187.864L293.67 168.835C288.912 170.194 277.359 191.262 276.679 191.262C275.32 191.262 270.563 184.466 270.563 181.748V180.388C270.563 177.67 274.641 170.194 275.32 167.476L282.116 155.243L284.155 155.922H286.874C289.495 156.408 292.893 150.291 292.893 146.893ZM225.611 48.2524L228.33 43.4951L229.689 51.6505C229.689 53.0097 227.65 54.3689 227.65 57.0874V57.767L228.33 61.8447V65.9223C228.33 68.6408 229.689 68.6408 230.369 71.3592L234.446 76.1165L238.524 80.8738C237.165 82.233 230.369 86.9903 228.33 89.7087L220.175 101.262V96.5049L218.815 95.1456V86.9903L219.495 85.6311V83.5922C219.495 81.5534 218.136 82.9126 218.136 80.8738L220.175 74.7573C220.175 69.3204 221.534 69.3204 221.534 65.9223C221.534 60.4854 222.213 60.4854 225.611 58.4466V55.0485L226.971 52.3301C226.971 52.3301 225.611 48.2524 225.611 48.2524ZM104.543 149.612C104.543 144.175 108.621 133.981 112.699 133.301C112.699 140.097 118.136 150.971 120.175 156.408L126.291 165.922L132.408 174.757L126.291 175.437C120.854 175.437 113.378 168.641 111.34 166.602L112.019 162.524V160.485C112.019 157.767 107.942 154.369 104.543 153.689C104.543 153.689 104.543 149.612 104.543 149.612Z" fill="#121A61"/>
<path d="M137.845 216.99L147.359 233.981L154.835 253.01C160.66 266.893 164.058 281.553 165.029 296.505V312.816C165.029 322.621 164.35 332.33 162.99 342.039C160.272 361.068 153.476 378.058 146.68 395.049C148.039 396.408 160.272 400.485 162.99 401.165L178.621 407.961C187.456 412.039 198.33 420.194 205.806 424.951C211.922 429.029 225.515 440.583 228.913 446.699L238.427 458.932L247.262 472.524L255.418 459.612L265.612 446.699C279.204 431.068 296.194 417.476 315.223 408.641L330.175 401.845L346.486 395.728H349.884C345.806 381.456 336.291 363.786 334.253 346.796C332.602 336.893 331.728 326.893 331.534 316.893V297.864C332.893 275.437 339.01 253.689 349.204 233.204L358.719 215.534L339.689 206.019C336.971 204.66 322.699 195.825 319.981 195.825C319.301 198.544 311.825 210.097 309.786 215.534L301.631 235.922C266.486 228.155 229.981 228.155 194.835 235.922C189.398 221.65 183.282 208.738 175.806 196.505L156.777 206.019C154.835 207.476 137.845 215.631 137.845 216.99Z" fill="#FDFDFD"/>
<path d="M176.583 321.747V324.466C176.583 361.845 208.524 395.243 246 395.243H257.553C291.825 391.359 318.427 363.592 320.854 329.223V323.786C321.534 285.728 292.311 254.369 254.155 251.65H245.32C207.262 253.689 177.262 284.272 176.583 321.747Z" fill="#121A61"/>
<path d="M184.738 306.699V308.058H192.893C194.932 308.058 196.971 301.942 197.65 300.582C199.01 297.864 199.689 295.146 202.408 293.107C212.311 277.087 229.786 267.281 248.621 267.281C258.136 267.281 271.048 271.359 277.165 274.757C281.243 277.476 296.194 289.029 296.194 293.786C296.194 294.466 288.718 299.223 287.359 299.223C286.68 299.223 273.087 277.476 247.942 277.476H247.262C237.068 277.476 226.874 282.233 220.757 286.99C216 289.709 206.485 300.582 206.485 308.058H216C216.68 306.699 224.835 291.068 239.786 289.029V297.864C237.068 298.544 230.272 303.301 228.233 307.379H252.019V286.99C258.136 286.99 274.447 293.107 281.243 303.981L274.447 306.699H311.825C311.825 295.146 298.233 277.476 291.437 272.039C286.291 267.864 280.563 264.466 274.447 261.845C269.01 259.806 260.175 256.408 252.699 256.408H244.544C216.097 258.932 192.116 279.029 184.738 306.699Z" fill="#FDFDFD"/>
<path d="M208.622 200.68L214.738 210.874L220.175 221.068L220.855 225.146L248.719 223.107H251.437L275.903 225.146L281.34 212.233L288.816 200C282.699 200 269.787 189.806 269.107 183.01C264.35 183.689 260.952 190.485 249.398 190.485H246.68C243.088 190.485 239.592 189.515 236.486 187.767L227.651 183.01C227.651 190.388 214.738 199.32 208.622 200.68Z" fill="#FDFDFD"/>
<path d="M241.922 389.709C259.592 389.709 273.184 387.67 288.136 376.796C294.932 372.039 307.844 357.087 309.204 348.932H275.903L265.709 355.728C264.349 356.408 252.116 361.165 252.116 357.767V348.932H241.922V356.408C241.922 360.486 233.087 355.728 231.728 355.049L223.573 348.932H210.66C210.66 353.689 222.213 361.165 224.932 363.884C238.524 372.039 256.194 372.039 269.786 363.884L277.942 357.767L284.738 350.291C286.097 350.291 293.573 354.369 293.573 356.408C293.573 359.126 281.34 368.641 278.621 370.68L269.107 376.117L252.116 380.194H249.398C228.233 380.291 208.718 368.447 199.107 349.612H187.553C188.815 367.961 223.573 389.709 241.922 389.709Z" fill="#FDFDFD"/>
<path d="M310.66 82.3302L305.223 81.6506C304.544 82.3302 303.864 83.6894 301.146 83.6894L297.068 85.7283L292.99 87.7671C291.631 87.7671 290.951 89.1263 290.272 90.4856L286.194 92.5244L285.515 97.2817C284.155 98.6409 280.078 102.719 280.078 104.757L280.757 106.796C282.116 106.796 288.913 99.3205 292.311 97.9613L298.33 93.204C302.408 91.8448 301.049 88.4467 304.447 88.4467L302.408 91.8448L308.524 90.4856L315.32 91.1652L322.116 89.1263L316.777 93.204C321.728 95.8254 325.806 99.8059 328.33 104.757V104.078L334.447 108.155V108.835L329.01 106.796L330.369 114.272C330.369 116.311 329.01 116.311 330.369 119.709C331.049 121.068 331.728 121.068 331.728 124.466L329.01 121.748L323.573 131.262L322.893 128.544L327.65 119.709L326.971 119.029L318.136 124.466C320.175 121.748 327.65 116.99 327.65 115.631V111.554L326.291 105.437C321.534 108.155 318.816 115.631 316.777 117.67L325.612 103.398C324.252 101.359 318.816 95.2428 315.417 94.5632L314.738 106.117L314.058 102.039V100L314.738 93.8836L312.019 93.204H302.505L305.223 101.359L300.466 93.8836C295.709 97.2817 284.835 104.757 282.116 108.835L282.796 113.592C285.515 112.913 294.349 103.398 299.786 103.398H300.466C302.505 103.398 303.184 105.437 307.262 106.117C309.981 106.117 313.379 107.476 313.379 110.194V112.233C313.379 113.592 312.019 112.913 312.019 114.272V119.029H312.699V121.068C312.699 122.427 312.019 122.427 311.34 123.107L309.301 122.427C307.262 122.427 305.223 124.466 303.864 125.146H297.068L296.388 126.505C296.388 129.223 305.223 134.66 305.903 136.699L314.058 136.02L319.495 137.379C322.214 137.379 324.932 134.66 325.612 132.621H328.33L330.369 128.544H332.408C334.447 128.544 336.485 125.825 336.485 123.107C341.243 122.427 341.243 122.427 340.563 116.311L341.922 107.476V106.796C341.922 105.437 341.243 105.437 340.563 104.757V99.3205C338.524 95.2428 339.204 98.6409 336.485 92.5244C336.485 90.4856 333.767 85.7283 331.049 85.7283H329.689C329.01 83.6894 327.65 81.6506 324.252 81.6506L322.214 80.2914L314.058 78.9322C314.058 78.8351 310.66 82.3302 310.66 82.3302Z" fill="#C4C26A"/>
<path d="M296.971 35.3399L292.214 38.0583C288.136 40.0971 288.136 38.0583 286.097 40.7768C284.058 42.8156 284.738 42.8156 280.66 43.4952C278.622 44.1748 276.583 45.534 276.583 48.2525C269.107 50.2913 275.903 53.0098 268.427 54.369V59.1263C268.427 60.4855 267.748 61.1651 266.389 61.8447V65.9224L265.709 70.6797C265.709 73.3981 265.709 82.9127 267.068 84.2719L268.427 77.4758H269.107V76.1166C269.107 72.0389 273.864 68.6408 274.544 60.4855L276.583 55.0486L275.903 59.8059V61.8447L282.02 55.7282C283.379 53.6894 283.379 48.9321 286.097 47.5729L284.738 53.0098C288.816 51.6505 291.534 47.5729 296.971 47.5729L302.408 42.136V42.8156L299.69 46.8933H305.806L313.282 48.2525L322.796 46.8933V47.5729L316.68 48.2525V49.6117L326.194 56.4078L325.515 57.0874L315.321 50.2913V50.9709L320.758 59.8059C314.641 55.7282 314.641 47.5729 305.806 47.5729H301.049C301.728 51.6505 306.486 53.0098 307.845 55.0486C304.447 55.0486 298.33 49.6117 297.651 49.6117C293.573 49.6117 287.457 53.6894 285.418 55.7282H292.214C290.175 57.0874 286.097 55.7282 283.379 57.0874C282.699 57.0874 278.622 61.1651 278.622 62.5243H282.699C280.66 66.602 277.262 61.8447 273.864 71.3593L269.107 84.9515L268.427 89.0292L271.146 91.068C271.825 88.3496 273.185 86.3107 275.224 84.2719L276.583 74.7573C276.583 72.7185 279.301 70.6797 281.34 68.6408C283.379 65.9224 283.379 65.9224 288.816 65.9224L293.573 61.8447H295.612L296.292 60.4855H304.447C307.165 60.4855 308.525 62.5243 310.563 64.5632C313.282 65.9224 316.68 63.8836 318.719 65.9224L321.437 67.9612L324.156 69.3204C326.194 70.6797 326.874 75.4369 328.913 75.4369H330.272C331.631 75.4369 336.389 69.3204 336.389 68.6408V61.1651L337.748 58.4467C337.748 54.369 333.67 55.7282 335.029 49.6117L330.952 48.2525C330.952 45.534 329.593 42.136 326.194 42.136L323.476 39.4175L318.719 38.7379V35.3399L311.243 34.6603V33.301H305.806C303.767 33.301 303.088 35.3399 296.971 35.3399Z" fill="#C4C26A"/>
<path d="M258.233 13.5921C252.796 13.5921 255.514 14.2717 252.116 16.3106H246.68C245.32 17.6698 244.641 21.0679 241.922 21.7475C235.806 24.4659 240.563 24.4659 235.806 27.1844L235.126 31.9417L233.087 33.9805V42.1358C231.728 42.1358 231.048 42.1358 231.048 44.1747V44.8543L231.728 50.2912V51.6504C231.728 54.3688 229.01 54.3688 230.369 59.1261C230.369 63.2038 229.689 65.9222 231.048 67.2815L235.806 73.398L240.563 78.8349C240.563 72.7183 238.524 67.2815 238.524 63.2038C238.524 55.7281 234.447 55.0484 234.447 48.2523C235.806 50.2912 235.806 54.3688 239.204 55.0484L239.883 46.2135L239.204 37.3785L241.243 44.1747C241.922 40.097 246 38.0582 247.359 34.6601C249.398 32.6213 249.398 26.5048 252.796 25.1455L251.437 31.9417L258.913 25.8251C260.272 23.7863 264.349 20.3882 266.388 19.7086C265.029 20.3882 261.631 21.0679 261.631 24.4659L269.786 23.1067C267.748 23.1067 261.631 24.4659 260.951 27.1844L269.107 27.864V28.5436H256.874C255.514 28.5436 250.757 31.262 250.757 33.9805L258.233 34.6601V35.3397H249.398C247.359 35.3397 241.922 43.495 241.922 46.8931L249.398 44.8543C245.32 49.6116 239.204 44.8543 239.883 57.0873L247.359 49.6116C246.68 53.6892 239.204 57.0873 239.204 59.1261V63.8834L241.922 77.4756L246 76.796V73.398L248.718 65.2426L250.078 61.165L252.116 58.4465C252.116 50.2912 254.835 54.3688 257.553 50.2912L259.592 46.2135C261.631 44.8543 260.951 46.2135 263.67 43.495C264.349 42.1358 265.029 42.8154 267.748 41.4562L271.825 38.7378C274.544 37.3785 276.582 36.6989 281.34 36.6989V33.9805L286.097 34.6601L286.777 30.5824C287.456 25.8251 284.058 22.4271 280.66 21.0679L275.903 19.029L271.825 15.631H267.748V13.5921L266.388 12.9125L264.349 13.5921L261.631 12.2329L258.233 13.5921Z" fill="#C4C26A"/>
<path d="M209.981 21.068C204.544 21.068 205.223 21.068 203.864 23.7864H201.146C199.787 25.1457 195.029 27.8641 195.029 29.9029L190.952 31.2622V38.0583C190.952 40.0971 188.913 39.4175 188.913 42.8156V48.2524C187.554 48.2524 186.874 48.2524 186.874 49.6117V51.6505C186.874 53.0097 188.233 52.3301 188.233 53.0097C188.233 55.0486 186.194 55.7282 186.194 59.1262L187.554 61.1651V65.9224L189.592 72.0389L190.952 77.4758H191.631V81.5534C191.631 83.5923 195.709 85.6311 197.068 86.3107C198.427 87.6699 198.427 89.0291 201.825 91.7476L213.379 99.2233L207.262 86.4078C205.903 85.0486 197.748 80.2913 197.068 77.5728L205.223 83.0097V82.3301C203.864 77.5728 203.864 74.8544 200.466 72.8156C198.427 70.0971 193.67 66.699 192.99 63.301L201.825 70.7767L201.146 59.2233C199.787 56.5049 198.427 54.466 198.427 50.3884L202.505 55.8253C203.864 46.9903 203.864 46.9903 203.864 36.1165H204.544V40.1942H205.903L211.34 29.3204H212.02L207.262 40.7767V41.4563L214.058 36.699C209.981 43.4952 202.505 42.1359 202.505 55.7282L203.185 57.0874L211.34 48.2524C209.981 52.3301 202.505 58.4466 202.505 61.1651V62.5243L203.185 70.6796C207.262 69.3204 207.942 63.2039 210.66 61.8447C210.66 64.5631 203.864 73.3981 203.864 73.3981L205.903 82.233C208.622 81.5534 209.981 76.1165 211.34 74.0777C211.34 79.5146 208.622 82.233 208.622 86.3107C208.622 87.6699 215.418 99.2233 217.456 99.9029L216.777 83.6893L215.418 81.6505L216.777 77.5728C218.816 74.8544 217.456 75.534 217.456 73.4952L218.816 64.6602C218.816 60.5825 220.175 58.5437 222.893 57.1845L224.253 51.7476L223.573 49.7088C223.573 47.6699 229.01 40.8738 229.01 38.1554V35.4369L229.689 27.2816V26.602C229.689 24.5631 227.651 25.2427 225.612 24.5631C225.612 22.5243 226.291 20.4855 224.253 20.4855L219.495 21.1651C219.495 19.1262 218.816 17.0874 217.456 17.0874H216.777C216.777 16.9903 209.981 21.068 209.981 21.068Z" fill="#C4C26A"/>
<path d="M194.35 321.747C194.35 336.699 201.146 355.728 212.02 365.243C229.495 380.194 254.35 382.912 274.641 372.039C281.34 368.058 287.165 362.718 291.631 356.408L284.835 353.689L279.398 359.806L271.922 365.243C250.078 379.126 221.049 372.718 207.165 350.776C202.408 343.301 199.884 334.66 199.884 325.728C199.107 300.388 218.233 278.932 243.379 276.796H248.816C256.291 276.796 265.806 280.874 271.243 283.592C273.282 285.631 277.359 287.67 279.398 290.388L286.194 298.543L292.311 294.466C292.311 290.388 278.719 279.514 275.32 277.475C267.845 273.398 259.689 270.679 248.136 270.679C229.884 270.485 212.796 279.417 202.602 294.466L198.524 302.621C195.029 308.835 194.35 314.272 194.35 321.747Z" fill="#FDFDFD"/>
<path d="M173.864 91.165C171.825 91.8447 165.709 95.2427 165.029 97.2815C163.67 101.359 162.311 99.3204 160.272 101.359C158.913 103.398 159.592 104.078 156.194 106.116V108.835L154.835 110.874V112.913L156.194 118.35C156.194 119.709 155.514 122.427 154.155 123.107V124.466C154.155 126.505 156.194 125.825 156.874 128.544C158.233 131.262 155.514 129.223 159.592 131.262C160.951 132.621 160.272 133.981 160.951 136.019L165.029 138.738C167.748 140.777 167.068 142.816 171.825 144.854L181.34 148.932H182.019C184.058 148.932 188.815 147.573 188.815 146.214C188.815 143.495 187.456 142.136 186.777 140.097C186.777 137.379 186.777 135.34 184.058 134.66V130.583C184.058 127.864 186.777 127.864 186.777 122.427C188.136 120.388 196.291 109.515 200.369 109.515L207.845 110.874C212.602 110.874 210.563 112.233 213.961 112.913L214.641 110.874C211.922 106.796 206.485 101.359 201.048 100.68L195.612 106.796L194.932 106.116L197.65 100.68V100H192.214L190.175 100.68V103.398C190.175 108.155 188.815 108.835 188.136 111.553H187.456L188.136 100L181.34 102.718V110.874C182.019 112.913 181.34 115.631 180.66 116.99V104.757C178.621 105.437 172.505 112.233 172.505 113.592C172.505 114.272 174.544 118.35 174.544 122.427L171.825 114.951L169.786 119.029V127.184L171.146 133.301C169.786 131.942 168.427 126.505 168.427 124.466V122.427L169.786 115.631L169.107 114.951L163.67 119.029C165.029 116.311 168.427 114.272 171.146 112.233L177.942 104.757V104.078L164.349 108.835C166.388 106.796 177.262 102.718 181.34 102.718L186.777 100.68C186.097 98.6408 180.66 99.3204 177.262 99.3204L181.34 98.6408H185.417L194.932 99.3204H196.971L202.408 100C201.048 97.9612 188.815 91.165 185.417 91.165C185.417 91.165 173.864 91.165 173.864 91.165Z" fill="#C4C26A"/>
<path d="M213.378 146.214C216.097 151.65 236.485 163.204 246.679 163.204H251.437C260.951 163.204 280.66 150.971 284.738 145.534C271.825 127.864 224.932 127.864 213.378 146.214Z" fill="#121A61"/>
<path d="M216.097 204.078L224.253 219.709L246 218.35H255.515L271.825 219.709L279.981 203.398L272.505 197.961L265.709 191.165C264.35 191.165 256.194 195.922 249.398 195.922H246.68C239.884 195.922 231.728 191.165 230.369 191.165L223.573 197.961C222.214 199.32 216.097 202.039 216.097 204.078Z" fill="#121A61"/>
<path d="M107.942 291.068C107.942 293.107 113.379 303.981 114.058 306.699C118.136 316.214 125.029 324.369 133.767 329.806L136.486 331.845L140.563 333.204L148.719 335.922H150.078V336.602H154.155C154.155 333.884 152.117 335.243 150.078 333.884L146 331.165H141.922V330.486H140.563V329.126H141.922L137.165 323.689C134.447 323.689 127.651 321.651 126.971 318.932L131.728 320.291V321.651L133.767 320.971L126.291 312.816C123.573 312.816 118.136 310.097 117.456 307.379L123.573 309.418V308.738H124.252V303.301L126.971 310.777H126.291C129.01 312.816 131.728 317.573 134.447 318.253V316.893L133.767 312.816L135.126 313.495L136.486 317.573C136.486 322.33 139.204 326.408 143.282 326.408L142.602 322.33C143.961 323.01 145.32 324.369 145.32 327.088V328.447L150.757 332.524L156.874 336.602C152.796 324.369 137.165 306.02 128.33 298.544L126.291 296.505L122.214 294.466C118.136 293.107 112.699 289.029 107.262 289.029V291.068H107.942Z" fill="#039D53"/>
<path d="M354.156 311.553L346 323.787L339.204 336.699L347.359 331.262C352.117 328.544 349.398 325.825 352.796 323.787V326.505C354.156 326.505 358.233 323.786 358.913 321.748L360.952 313.592H362.311L360.952 319.709H361.631L368.427 312.913L367.748 312.233L369.107 311.553C369.107 307.476 370.466 304.078 373.185 302.719L372.505 308.835L377.942 302.719L373.185 308.835L377.262 308.155C375.224 312.233 371.146 312.233 369.107 313.592L362.991 321.068H367.748C367.068 322.427 362.311 323.787 360.272 323.787H359.592L354.835 327.864L355.515 328.544H354.156V329.223H359.592C357.554 331.262 352.796 330.583 350.078 331.942L342.602 337.379V338.058C359.592 339.418 388.816 306.796 388.816 289.126V288.35C375.903 292.427 360.952 299.903 354.156 311.553Z" fill="#039D53"/>
<path d="M337.845 305.34V307.379L344.641 301.942L350.078 296.505L352.117 289.029H352.796V293.787L359.592 285.631L360.272 280.194L360.952 284.272L371.146 272.719L360.952 285.631L363.67 286.311L359.592 287.67L356.874 291.748L354.835 295.825H358.913L354.155 297.864H351.437C350.757 302.622 342.602 305.34 341.922 308.058L355.515 302.622L363.67 296.505L370.466 289.709L372.505 285.631L375.223 280.874C379.301 272.719 379.981 266.602 379.981 258.447C370.66 263.204 362.408 269.612 355.515 277.476L346.68 290.389L337.845 305.34Z" fill="#039D53"/>
<path d="M253.476 358.447C263.573 356.699 272.796 351.456 279.301 343.495L273.864 340.777L267.747 346.893C266.388 346.893 259.592 352.33 259.592 348.252V330.583L260.951 329.223H274.544V323.786H260.951C260.272 323.786 259.592 323.786 259.592 322.427V298.641C265.126 300 270.175 303.107 273.864 307.476L279.301 305.437C276.582 298.641 262.311 291.165 253.476 290.485C253.476 290.388 253.476 358.447 253.476 358.447Z" fill="#FDFDFD"/>
<path d="M118.136 263.204C118.136 269.32 120.175 276.796 122.893 280.874C125.611 288.349 131.728 294.466 137.844 298.544L143.961 302.621C148.718 303.98 152.116 307.378 157.553 308.058L150.077 301.262C147.262 298.544 143.767 296.602 139.883 295.825V295.145H142.602L143.281 294.466L140.563 290.388L139.883 291.068C139.883 286.311 132.408 288.349 131.048 284.951H136.485C135.806 282.233 130.369 276.116 126.971 276.116V275.437H129.01V274.077L130.369 274.757L131.728 272.718V278.155C133.767 278.835 133.767 284.272 138.524 284.272V280.194H139.204V288.349L144.641 293.786H145.32V289.029L147.359 293.107V297.184C147.359 298.544 158.912 307.378 160.951 308.738C153.573 287.67 138.524 270.194 118.815 259.806V263.204H118.136Z" fill="#039D53"/>
<path d="M214.058 323.107V327.184C214.058 340.097 228.33 355.728 240.563 357.087V323.107H230.369V328.544H233.087L234.446 329.903V346.893C228.33 346.213 220.175 333.301 220.175 326.505V320.388C220.175 315.631 224.252 308.835 226.291 306.116L231.728 300.68L237.845 295.922V290.485C223.864 295.243 214.349 308.252 214.058 323.107Z" fill="#FDFDFD"/>
<path d="M343.282 361.845L349.398 357.767C356.194 357.767 354.156 350.291 358.233 349.612L356.874 353.689C358.913 353.689 359.592 352.33 362.311 350.971C365.029 349.612 362.99 348.252 365.029 345.534V347.573C367.748 347.573 369.107 345.534 371.146 343.495L371.825 339.417V341.456H373.185V342.815H375.224C371.146 342.815 367.068 346.893 366.389 348.932H368.427L367.748 350.291H365.029C360.952 350.291 360.272 353.01 358.233 354.369L364.35 355.048L354.156 357.087L344.641 362.524V363.204H346.68C361.631 362.524 375.903 357.767 386.097 329.903H379.981C374.544 329.903 369.787 331.262 366.389 333.981L360.952 336.699L357.554 342.136L349.398 350.291L347.359 356.408C345.321 358.447 343.961 358.447 343.282 361.845Z" fill="#039D53"/>
<path d="M109.98 331.942C109.98 337.379 118.136 348.932 122.893 353.01C128.33 357.767 135.126 363.204 141.922 363.204H152.116V362.524L142.602 357.087C138.524 357.767 135.126 357.087 133.767 355.728H139.204V355.049L134.446 352.33L127.65 350.971V349.612L130.369 350.291V349.612C127.65 348.252 126.291 344.854 122.213 344.175H123.573L120.854 340.097L124.932 342.816V340.777H125.612V342.816C126.291 344.175 131.048 348.252 132.408 348.252V346.893C134.446 348.252 133.087 348.932 135.126 351.65L140.563 354.369L139.204 348.932L141.922 350.971C141.922 353.689 143.961 356.408 146.68 357.087C149.398 358.447 150.757 361.165 153.476 361.165L146 347.573C139.883 338.738 129.01 330.583 118.136 330.583H112.019L109.98 331.942Z" fill="#039D53"/>
<path d="M335.806 157.087V166.602C335.806 176.796 348.039 191.068 356.874 191.068H360.951C363.67 191.068 368.427 186.99 368.427 184.951V182.233H370.466L377.262 184.272L378.621 183.592C378.621 182.233 377.262 181.553 376.582 180.874C362.99 180.874 345.32 165.922 341.922 156.408H339.883L335.806 157.087Z" fill="white"/>
<path d="M188.136 186.31L187.457 194.466V195.825C187.457 203.98 188.136 208.738 191.534 213.495C192.893 217.573 197.651 225.728 197.651 229.126L203.088 228.446C203.088 218.932 197.651 222.33 196.291 215.534L198.33 216.893H199.69V214.175H199.01V211.456C199.01 209.417 196.291 208.738 194.253 208.738L192.214 206.019L197.651 206.699C196.971 199.903 194.932 200.582 192.893 197.864L194.253 198.544C196.291 198.544 196.291 196.505 198.33 195.825L197.651 201.942L199.01 208.058L203.088 203.98L202.408 208.058C201.049 208.738 200.369 209.417 200.369 212.136V212.815H201.728V218.252H203.088V216.893H205.126V218.252L203.767 222.33L205.126 229.126H206.486L207.165 221.65C207.845 212.136 205.126 203.98 202.408 197.864C199.495 191.456 195.029 185.922 189.495 181.553L188.136 186.31Z" fill="#039D53"/>
<path d="M290.854 206.796V208.835H290.175L289.495 216.311V227.864L292.214 228.544L293.573 221.748C293.573 220.389 291.534 220.389 291.534 215.631L294.252 217.67L295.612 216.311V214.272C295.612 211.554 296.291 210.194 294.932 208.835C293.573 206.796 293.573 207.476 294.252 202.719L296.971 206.796C297.65 206.117 299.01 204.078 298.33 202.039L297.65 193.884C299.01 195.243 298.33 197.961 300.369 197.961H302.408C301.049 200.68 297.65 200.68 297.65 207.476L302.408 206.117V208.156L296.971 210.874C296.291 210.874 294.932 216.99 295.612 218.35L299.689 216.311C299.01 218.35 297.65 221.748 294.252 221.748L292.893 229.223H294.932V229.903H296.291C298.33 229.903 302.408 212.913 305.806 210.874L306.485 204.757H309.204V189.806L307.845 180.971C302.408 180.874 290.854 200.68 290.854 206.796Z" fill="#039D53"/>
<path d="M100.466 139.417C100.466 142.136 98.427 145.534 98.427 149.612V156.408C98.427 159.126 96.3882 160.485 96.3882 161.845V163.204C96.3882 167.281 100.466 168.641 102.505 169.32L108.621 176.116C110.66 178.835 118.815 184.272 124.932 183.592L136.485 182.233L132.408 176.796L125.611 177.476H124.932C118.136 177.476 111.34 168.641 109.301 167.961L109.98 163.883V161.845C109.98 159.126 107.262 155.728 103.864 155.728V150.291L105.223 138.738C106.582 134.66 109.301 133.98 111.34 131.262L108.621 129.903C104.544 130.582 101.825 138.738 100.466 139.417Z" fill="#FDFDFD"/>
<path d="M152.796 270.68L146.68 264.563C142.602 263.204 140.563 263.883 137.845 261.845H142.602C142.602 260.485 137.845 255.049 137.165 255.049H135.126V253.689H133.767L131.048 252.33V251.65L133.767 252.33H135.126C133.767 246.893 127.65 244.854 126.291 242.815L128.33 243.495L129.689 242.815V240.777H130.369L131.048 246.214L136.485 252.33V247.573C138.524 248.932 138.524 252.33 138.524 255.049L143.961 259.806V257.087L148.039 263.883L154.155 269.32C154.155 267.281 146.68 255.048 146 253.689C139.883 246.893 135.806 238.738 128.33 232.621L118.815 225.825C119.495 243.495 133.087 267.961 152.796 270.68Z" fill="#039D53"/>
<path d="M343.282 267.961L346 265.243H345.321C349.398 265.243 350.757 259.806 351.437 257.087H352.796V259.126L357.554 254.369C359.592 252.33 356.874 249.612 359.592 247.573V251.65H360.272L365.029 245.534L365.709 240.777L366.389 239.417V242.136H370.466C369.787 243.495 364.35 244.854 361.631 251.65L366.389 250.291C365.709 253.01 361.631 253.01 359.592 255.048C358.233 255.728 354.156 259.806 354.156 261.165H358.233C356.194 263.204 352.796 262.524 350.757 263.883C349.398 264.563 345.321 267.961 345.321 269.32H347.359C352.796 269.32 361.631 262.524 363.67 259.806C371.34 249.709 376.097 237.767 377.262 225.146C374.544 225.825 369.107 231.942 367.068 233.98L362.311 238.738L357.554 244.175C354.835 248.252 343.282 263.883 343.282 267.961Z" fill="#039D53"/>
<path d="M114.738 133.301V137.379L115.417 138.058L119.495 135.34C118.815 138.058 117.456 140.777 117.456 144.175L118.136 146.214C122.214 146.214 120.175 144.854 122.893 143.495L121.534 151.651C121.534 153.01 122.214 154.369 123.573 154.369C125.612 154.369 125.612 150.291 128.33 149.612L126.971 155.728V161.165L128.33 162.524H129.01C131.048 162.524 131.728 158.447 133.767 157.087C133.087 159.806 131.728 162.524 131.728 165.922L133.087 168.641C134.447 168.641 135.126 168.641 135.126 167.282H135.806C135.806 168.641 135.806 168.641 137.165 168.641H137.845L141.922 167.961C141.243 159.806 125.612 129.903 120.854 128.544C119.786 130.971 117.359 132.621 114.738 132.621V133.301Z" fill="#FDFDFD"/>
<path d="M200.466 190.388C200.466 192.427 205.223 197.184 205.903 200.582L211.34 198.544L209.98 191.068V191.747L205.903 189.029L206.582 188.349H210.66V186.99H212.019V188.349L211.34 190.388L212.019 197.184C214.058 197.184 218.136 195.146 218.136 193.107V192.427C218.136 188.349 208.621 176.796 204.543 173.398C201.825 177.476 200.466 184.951 200.466 190.388Z" fill="#039D53"/>
<path d="M279.301 192.427L279.98 195.146L285.417 196.505V195.146L286.097 190.388L285.417 187.67V186.311C287.456 186.99 285.417 187.67 287.456 187.67H288.815L290.854 186.99C290.854 191.747 285.417 188.349 285.417 196.505C285.417 198.544 288.136 199.223 290.854 199.223L295.611 190.388C295.611 186.311 294.932 173.398 292.893 173.398C290.854 173.398 279.301 190.388 279.301 192.427Z" fill="#039D53"/>
<path d="M367.068 168.641L378.621 181.553C382.699 184.272 388.815 189.029 395.612 189.029C399.689 189.029 403.087 186.99 403.087 183.592C403.087 181.553 401.048 178.835 399.01 178.835C394.252 178.835 393.573 181.553 391.534 181.553H389.495C382.699 181.553 370.466 165.922 368.427 165.243L367.068 168.641Z" fill="#FDFDFD"/>
<path d="M324.252 152.33V154.369C324.252 155.728 326.291 156.408 326.971 156.408C332.408 156.408 335.806 153.689 339.204 153.689H343.961C349.398 153.689 356.874 161.165 358.913 161.165L360.272 157.087L348.718 151.651C346.68 150.291 337.165 148.932 333.767 148.932H331.049C329.01 148.932 324.252 150.291 324.252 152.33Z" fill="#FDFDFD"/>
<path d="M243.961 89.8058V97.9612C243.961 100 246 104.757 248.718 104.757C251.437 104.757 253.476 98.6408 253.476 95.9224V93.8835C253.476 91.1651 251.437 84.369 248.718 84.369H248.039C246 83.6893 243.961 89.1262 243.961 89.8058Z" fill="#FDFDFD"/>
<path d="M379.301 126.505V129.223L385.417 133.301C388.136 131.262 392.213 125.825 392.213 120.388C392.213 119.709 391.534 116.311 390.175 116.311H388.136C383.378 116.99 381.34 125.825 379.301 126.505Z" fill="#FDFDFD"/>
<path d="M362.99 157.767L368.427 160.486C371.146 160.486 375.903 151.651 375.903 147.573L369.786 144.854C368.427 144.854 362.99 154.369 362.99 157.767Z" fill="#FDFDFD"/>
<path d="M370.466 143.495L376.582 146.214C379.301 146.214 384.058 137.379 384.058 133.301C382.019 133.301 377.942 130.583 377.942 130.583C375.903 130.583 370.466 140.097 370.466 143.495Z" fill="#FDFDFD"/>
<path d="M231.728 95.9224C231.728 100.68 235.806 109.515 239.204 109.515H241.243L242.602 108.155C243.281 100.68 231.728 85.7282 231.728 95.9224Z" fill="#FDFDFD"/>
<path d="M254.835 104.757V107.476C254.835 108.835 255.515 109.515 256.194 109.515C260.272 109.515 264.35 100 264.35 95.2427L263.67 91.165H261.631C258.913 91.8447 254.835 100.68 254.835 104.757Z" fill="#FDFDFD"/>
<path d="M150.078 165.922L144.641 168.641L147.359 174.078C148.718 174.078 150.078 171.359 153.476 171.359V172.718H152.796V174.757L154.835 175.437H155.514C156.874 175.437 157.553 174.078 157.553 172.718V170C157.553 168.641 156.194 165.243 154.835 165.243L150.078 165.922Z" fill="#FDFDFD"/>
<path d="M107.942 123.107V124.466C107.942 125.825 109.301 127.184 110.66 127.184C114.738 127.184 118.816 126.505 118.816 122.427C118.816 119.709 116.777 117.67 114.058 117.67C111.34 118.35 107.942 120.388 107.942 123.107Z" fill="#FDFDFD"/>
<path d="M263.67 112.913V113.592L264.35 115.631H265.709C268.427 115.631 273.184 107.476 273.184 102.719C273.184 101.359 272.505 100.68 271.825 100.68C268.427 100.68 263.67 108.835 263.67 112.913Z" fill="#FDFDFD"/>
<path d="M222.893 103.398V104.757C222.893 110.194 229.689 114.272 230.369 116.311H232.408L233.087 114.272C233.087 109.515 228.33 102.039 224.932 102.039H224.252C223.573 101.359 222.893 101.359 222.893 103.398Z" fill="#FDFDFD"/>
<path d="M134.447 176.117C134.447 177.476 136.486 180.194 138.524 180.874C139.884 180.874 146 178.835 146 176.796V174.757L143.282 170.68C139.884 170.68 134.447 173.398 134.447 176.117Z" fill="#FDFDFD"/>
<path d="M216.777 112.913C216.777 116.99 221.534 124.466 224.253 124.466L226.291 123.107C226.291 119.029 221.534 112.913 218.136 112.913H216.777Z" fill="#FDFDFD"/>
<path d="M271.146 121.747V124.466C276.582 124.466 279.98 117.67 279.98 112.233H277.942C275.223 112.233 271.146 118.349 271.146 121.747Z" fill="#FDFDFD"/>
<path d="M103.864 114.951V115.631C103.864 116.99 105.903 119.709 106.583 119.709C107.942 119.709 108.622 117.67 112.02 116.99V114.951C112.02 113.592 110.66 110.874 107.942 110.874C105.223 110.874 103.864 112.913 103.864 114.951Z" fill="#FDFDFD"/>
<path d="M355.515 170C355.515 172.039 359.592 174.078 360.952 174.757L363.67 168.641L358.913 165.243L355.515 170Z" fill="#FDFDFD"/>
<path d="M261.631 308.155H270.466C269.786 305.437 264.349 301.359 261.631 300.68V308.155Z" fill="#FDFDFD"/>
</svg>
