<svg width="500" height="500" viewBox="0 0 500 500" fill="none" xmlns="http://www.w3.org/2000/svg">
<path fill-rule="evenodd" clip-rule="evenodd" d="M64.3037 242.487V259.036C64.3037 265.691 65.3821 273.54 66.3952 279.578C66.6536 281.117 66.9542 282.659 67.2484 284.168L67.2484 284.169L67.2485 284.169L67.2486 284.17L67.2486 284.17L67.2487 284.17L67.2488 284.171C67.5906 285.925 67.9237 287.633 68.1714 289.24C68.4277 290.9 68.9017 292.642 69.3615 294.331L69.3616 294.332C69.7562 295.781 70.1403 297.193 70.3674 298.481C71.1051 302.66 72.9898 307.851 74.6046 312.298L74.6047 312.299C75.0359 313.486 75.4478 314.62 75.8135 315.668C77.6387 320.899 80.2277 326.951 82.637 331.722C93.6722 353.577 104.658 368.143 121.069 384.553C148.984 412.469 195.242 436.695 251.211 436.695H251.454C280.423 436.695 307.122 428.919 327.144 419.904C348.271 410.389 366.34 397.131 381.718 381.753C410.282 353.19 435.929 307.842 435.929 250.762C435.929 197.466 413.512 154.26 387.281 125.58V134.792C413.814 166.141 429.843 206.639 429.843 250.762C429.843 347.928 352.109 427.518 255.649 430.523L255.649 433.463C255.649 433.854 252.738 435.772 252.68 435.772C252.125 435.772 248.721 433.382 248.721 432.968L248.721 430.607C150.245 429.919 70.1436 349.395 70.1436 250.762C70.1436 204.259 87.9485 161.782 117.09 129.799V121.018C102.828 135.829 92.7206 149.831 82.6362 169.802C80.3732 174.284 77.4957 180.749 75.8781 185.677C75.3682 187.229 74.7666 188.887 74.1464 190.596C72.6586 194.696 71.0631 199.093 70.3666 203.042C70.1549 204.242 69.7747 205.619 69.3824 207.039C68.9164 208.727 68.4333 210.476 68.1951 212.066C67.9372 213.786 67.549 215.647 67.1602 217.512L67.1601 217.512L67.1601 217.512L67.16 217.513C66.8688 218.909 66.5772 220.307 66.3397 221.649C65.3225 227.418 64.3037 236.204 64.3037 242.487ZM133.77 113.689C130.47 116.492 127.272 119.411 124.183 122.441V118.636H119.412C119.878 118.163 120.349 117.689 120.825 117.213C122.005 116.033 123.221 114.858 124.47 113.689H133.77ZM380.189 126.892V118.636H380.577C378.838 116.923 377.111 115.277 375.386 113.689H366.217C371.105 117.841 375.769 122.249 380.189 126.892ZM327.471 81.778C337.393 86.6628 345.94 91.4404 353.837 96.7026H342.621C315.539 80.3397 283.832 70.9119 249.993 70.9119C216.155 70.9119 184.448 80.3397 157.365 96.7026H145.914C173.074 78.4502 209.154 64.8286 249.993 64.8286H251.94C279.005 64.8286 309.273 72.8188 327.471 81.778Z" fill="white"/>
<path fill-rule="evenodd" clip-rule="evenodd" d="M6.625 242.244V259.279C6.81046 259.571 7.54984 271.596 7.60212 272.905C7.76062 276.903 8.54167 282.118 9.20833 285.901C10.777 294.796 11.8554 302.359 13.9788 310.578C17.6895 324.943 23.268 341.624 29.4199 353.788C35.8121 366.428 42.7337 380.188 50.9853 390.876C53.1462 393.675 55.027 396.456 57.1805 399.283C59.317 402.088 61.8595 404.8 63.8178 407.491C67.1846 412.117 73.6822 418.693 77.8725 422.885C82.1111 427.123 88.393 433.321 93.1193 436.842C95.9142 438.923 98.3423 441.249 101.197 443.367C104.077 445.503 106.934 447.487 109.749 449.659C120.48 457.944 134.188 464.882 146.807 471.254C152.825 474.292 160.792 477.449 167.458 479.806C174.887 482.434 182.039 484.324 189.987 486.726C197.327 488.943 206.42 490.259 214.651 491.509C218.226 492.051 223.686 493.043 227.605 493.157C228.941 493.196 241.176 493.94 241.477 494.13H258.513C258.804 493.945 270.83 493.206 272.139 493.154C276.137 492.995 281.351 492.215 285.133 491.547C294.029 489.979 301.592 488.901 309.811 486.777C324.203 483.06 340.837 477.499 353.023 471.336C365.662 464.945 379.422 458.023 390.109 449.771C392.908 447.61 395.69 445.73 398.518 443.576C401.323 441.44 404.034 438.898 406.725 436.939C411.351 433.573 417.927 427.074 422.118 422.885C426.357 418.646 432.556 412.363 436.076 407.637C438.158 404.843 440.484 402.416 442.6 399.56C444.739 396.68 446.722 393.823 448.893 391.008C457.178 380.278 464.117 366.569 470.489 353.95C473.504 347.976 476.701 339.911 479.041 333.299C480.24 329.909 481.343 325.643 482.654 322.309C484.051 318.752 484.67 314.533 485.96 310.77C487.078 307.508 487.788 302.456 488.64 298.848C489.592 294.814 490.096 290.368 490.742 286.105C491.286 282.531 492.278 277.071 492.391 273.152C492.431 271.816 493.175 259.581 493.364 259.28V242.245C493.175 241.943 492.43 229.708 492.391 228.373C492.278 224.453 491.286 218.994 490.742 215.42C490.096 211.157 489.592 206.71 488.64 202.676C487.788 199.069 487.078 194.017 485.96 190.755C484.663 186.972 484.033 182.838 482.65 179.22C481.34 175.791 480.26 171.673 479.041 168.226C476.702 161.613 473.505 153.548 470.489 147.574C464.117 134.955 457.178 121.246 448.893 110.516C446.722 107.702 444.739 104.845 442.6 101.964C440.483 99.1084 438.158 96.682 436.076 93.887C432.556 89.1599 426.357 82.8788 422.118 78.6403C417.927 74.4499 411.351 67.9516 406.725 64.5847C404.034 62.6264 401.323 60.0839 398.518 57.9475C395.69 55.7939 392.908 53.914 390.109 51.753C379.422 43.5014 365.662 36.579 353.023 30.1877C340.837 24.0251 324.203 18.463 309.811 14.7465C301.592 12.6231 294.029 11.5455 285.133 9.97689C281.351 9.31022 276.136 8.52918 272.139 8.37068C270.83 8.31839 258.805 7.5782 258.513 7.39355H241.477C241.176 7.58391 228.941 8.3282 227.605 8.36659C223.686 8.48097 218.226 9.4728 214.651 10.0153C206.502 11.2522 197.266 12.6003 189.987 14.7988C182.029 17.2024 174.895 19.088 167.458 21.7179C160.792 24.0749 152.824 27.2318 146.807 30.2702C134.187 36.6411 120.48 43.5798 109.749 51.8641C106.935 54.0365 104.077 56.0202 101.197 58.1574C98.3423 60.2759 95.9142 62.6011 93.1193 64.6828C88.393 68.2024 82.1111 74.4017 77.8725 78.6403C73.6822 82.8306 67.1846 89.4074 63.8178 94.0333C61.8595 96.7244 59.317 99.4369 57.1805 102.241C55.027 105.068 53.1462 107.849 50.9853 110.648C42.7345 121.336 35.8121 135.097 29.4199 147.736C26.4828 153.543 22.9641 162.154 20.8309 168.594C19.6944 172.024 18.5074 176.24 17.1895 179.555C15.875 182.863 15.0376 187.51 13.9706 190.939C11.6789 198.301 10.665 207.367 9.20752 215.624C8.54085 219.407 7.76062 224.622 7.60131 228.62C7.54984 229.927 6.80964 241.952 6.625 242.244ZM248.533 46.088C248.533 43.1182 241.96 32.1885 241.719 29.2955H247.803C248.748 29.2955 249.766 33.6207 250.089 34.5545C250.48 35.6787 251.674 39.4859 251.697 40.4908H252.184L255.699 29.5733L262.405 29.539L254.566 45.2106L254.375 55.8233H248.534V46.088H248.533ZM271.41 46.5749C271.41 39.0815 275.864 31.9728 283.092 31.9728H286.498C287.736 31.9728 290.261 32.9769 291.123 33.4336L289.635 38.048C288.236 37.9385 287.036 36.8405 284.797 36.8405C280.238 36.8405 277.739 41.4058 277.739 46.088V47.0619C277.739 50.9671 280.855 53.8756 284.797 53.8756H286.498C287.156 53.8756 287.169 53.7596 287.716 53.6329V58.0128C287.716 58.5733 287.546 58.7432 286.986 58.7432H283.334C276.311 58.7432 271.41 53.6199 271.41 46.5749ZM289.676 451.612L306.214 448.144C306.21 451.974 307.332 449.872 306.162 454.166C305.685 455.914 304.823 457.967 304.227 459.776C303.526 461.901 300.762 469.226 300.614 471.009L310.569 468.952L311.64 473.913L294.05 477.608C294.045 476.093 293.556 475.72 293.556 474.416C293.556 473.478 296.262 465.939 296.752 464.469C297.324 462.751 299.767 456.099 299.885 454.703L290.425 456.56L289.676 451.612ZM342.474 55.5798C342.542 54.7792 344.15 50.9556 344.664 50.9556C345.957 50.9556 357.058 57.4418 359.51 58.0137C359.171 62.0962 353.995 64.2873 351.139 66.1909C349.569 67.2367 341.819 71.9107 341.501 73.1019C342.457 73.3241 350.262 77.0741 350.262 77.4826C350.262 77.6419 348.54 81.396 348.316 81.8633L332.243 74.0962C333.154 70.2007 337.899 68.2024 340.917 66.1909C342.399 65.2032 350.223 60.1909 350.748 59.4736L342.474 55.5798ZM204.895 477.568L209.443 451.556L223.69 454.082L222.82 458.858L214.465 457.603C214.462 459.934 212.454 462.639 215.083 463.088C217.467 463.497 219.198 463.712 221.276 464.197L220.646 468.835L219.816 468.819C218.065 468.819 214.71 467.604 212.516 467.604L211.704 473.676L220.299 475.171L219.657 480.028L204.895 477.568ZM314.73 61.1771C314.73 54.7767 319.978 46.8993 321.301 41.2212L326.876 43.2269C326.109 46.5488 320.569 58.3715 320.569 60.4483V62.8821C320.569 63.811 322.161 65.0725 323.246 65.0725H323.977C327.07 65.0725 328.678 58.8682 329.721 56.2138C331.028 52.887 332.261 48.8699 333.711 45.847L339.312 48.0292C336.457 53.4271 333.11 70.1836 326.167 70.1836H323.246C320.01 70.1836 314.729 66.2963 314.729 63.1256V61.1771H314.73ZM143.885 63.3674C143.885 60.2016 146.207 56.1624 148.021 54.8486C149.593 53.7097 153.809 50.7122 156.297 50.7122H158L158.957 55.5831C154.859 55.5798 149.969 58.6811 149.969 62.6378V63.1239C149.969 66.7457 153.735 72.8592 157.027 72.8592H158.73C160.115 72.8592 161.813 71.9311 162.381 71.1558L159.953 66.2849C159.524 66.512 157.693 67.5047 157.27 67.5047C156.83 67.5047 155.227 64.0038 155.079 63.3674L163.043 59.5741C163.663 62.0872 168.952 70.7122 168.952 72.3723C168.952 73.0104 164.209 76.0823 163.36 76.5145C161.25 77.5888 158.994 78.4556 155.81 78.4556H155.324C152.579 78.4556 148.912 75.4842 147.629 73.7392C146.475 72.1681 143.886 67.4393 143.886 65.0708L143.885 63.3674ZM311.096 446.239L318.122 443.95L332.695 466.99L326.672 468.869L323.442 463.496L317.662 465.446L318.197 471.734L312.343 473.586L311.023 448.379L311.096 446.239ZM223.373 479.764L225.268 454.468L231.494 454.778L238.542 472.961L239.001 457.866L239.042 455.434H241.476L244.636 455.715L244.64 456.651L242.85 481.956L236.856 481.653C236.35 479.563 234.29 475.184 233.345 472.814C232.86 471.601 230.038 464.482 230.038 463.709V462.736H229.551V468.09L228.808 479.284L228.822 480.988L226.152 480.69L223.467 480.745L223.373 479.764ZM296.721 40.2473C296.721 39.1338 297.433 35.137 298.425 35.137H299.154C303.718 35.137 313.27 38.4303 313.27 42.6811V44.3846C313.27 48.021 310.565 51.3666 307.186 51.4418C310.146 55.8625 308.891 56.3674 308.891 62.637V64.5831C307.456 64.5831 305.864 63.8584 304.359 63.5161C302.328 63.0553 303.048 61.7367 303.048 59.2293C303.048 54.0831 304.037 52.7089 299.641 51.6844L297.088 61.387L291.39 60.115L296.321 40.9998L296.721 40.2473ZM175.271 470.034L183.884 444.998C184.916 445.229 189.34 446.673 190.126 446.673H190.856V455.434L190.391 465.171L199.167 449.126L206.163 450.908L200.845 476.854L199.6 476.402L196.718 475.787L195.532 475.282L199.708 456.616L190.137 473.449L185.763 472.398L185.746 468.818L186.162 453.728L180.538 471.221L179.904 471.252C178.689 471.253 176.79 470.07 175.271 470.034ZM216.895 42.4377C216.895 36.2114 221.065 30.2694 226.873 30.2694H227.605L230.522 30.5365C233.582 32.5594 233.961 31.5986 236.323 35.1803C237.302 36.6664 238.8 40.8078 238.8 43.1681V46.3323C238.8 52.2432 234.659 57.2841 228.822 57.2841H226.632C221.191 57.2841 216.897 49.9148 216.897 44.1427V42.4377H216.895ZM268.734 463.952C268.734 458.72 273.558 453.001 278.712 453.001H279.685C287.285 453.001 290.636 460.45 290.636 468.333V469.307C290.636 472.483 289.118 475.435 287.541 477.163C286.429 478.38 282.368 480.563 279.927 480.259L277.255 479.98C274.605 478.243 273.289 478.637 271.264 475.294C270.06 473.309 268.733 470.145 268.733 467.116V463.952H268.734ZM166.518 52.6591C166.518 49.2506 167.75 47.1664 169.498 45.4181C170.747 44.1697 173.996 42.1942 176.252 42.1942H177.226C183.978 42.1942 189.395 51.2416 189.395 58.2563C189.395 64.5488 184.838 69.2073 178.686 69.2073C172.27 69.2073 166.518 61.1746 166.518 55.0921V52.6591ZM247.314 455.633L255.585 455.095L256.565 455.191C263.095 455.191 267.76 460.276 267.76 466.872V470.037C267.76 473.643 265.53 477.782 263.332 479.238C260.289 481.252 257.62 481.962 252.67 481.962H251.697L247.563 481.675L247.56 476.364L247.314 455.633ZM190.368 38.0578C192.94 36.6967 198.064 35.3805 202.05 35.3805H202.292C210.258 35.3805 213.488 42.8535 213.488 50.9556V51.1991C213.488 58.8911 203.875 63.1239 195.966 63.1239L190.368 38.0578ZM64.3039 242.487C64.3039 236.204 65.3235 227.417 66.3423 221.648C66.8962 218.514 67.7467 215.075 68.1977 212.065C68.6364 209.138 69.906 205.668 70.3693 203.041C71.3562 197.447 74.1479 190.952 75.8807 185.676C77.4984 180.749 80.3758 174.283 82.6389 169.801C93.5817 148.13 104.551 133.488 120.828 117.213C148.368 89.6721 194.843 64.8282 249.996 64.8282H251.943C279.007 64.8282 309.275 72.8192 327.472 81.7784C349.807 92.7743 365.18 103.229 381.841 119.89C410.336 148.385 435.93 193.814 435.93 250.762C435.93 307.843 410.283 353.191 381.719 381.754C366.341 397.131 348.273 410.39 327.145 419.904C307.123 428.92 280.424 436.695 251.455 436.695H251.212C195.243 436.695 148.985 412.47 121.07 384.554C104.66 368.144 93.674 353.577 82.6381 331.722C80.2288 326.951 77.6397 320.898 75.8145 315.669C74.0792 310.696 71.3031 303.778 70.3685 298.482C69.8758 295.69 68.6479 292.326 68.1724 289.24C67.7116 286.251 66.9542 282.907 66.3962 279.578C65.3832 273.541 64.3047 265.691 64.3047 259.037L64.3039 242.487ZM20.741 189.919C19.4828 191.796 15.5408 213.12 14.9518 217.228C13.5817 226.78 12.71 237.389 12.71 248.084V254.412C12.71 259.836 13.4624 265.09 13.4436 269.984C13.4305 273.237 14.4412 281.357 15.0408 284.693C15.8913 289.424 19.2622 309.394 20.7418 311.604C20.7418 314.564 25.4812 327.618 26.5449 330.867C28.3154 336.273 31.339 343.733 33.7982 348.68C39.7402 360.637 44.6536 370.375 51.6944 381.162C54.6389 385.673 58.7418 391.774 62.1732 395.749C64.1307 398.016 65.817 400.487 67.7737 402.804C69.7206 405.108 71.8268 407.229 73.7328 409.5C80.0229 416.995 91.6078 428.282 99.4469 434.163C104.351 437.842 108.629 441.4 113.711 444.967C118.691 448.461 123.725 451.792 129.047 454.94C139.533 461.144 150.852 466.8 162.834 471.532C185.447 480.461 215.574 488.046 247.074 488.046H252.915C283.915 488.046 314.693 480.534 336.978 471.598C349.347 466.639 359.861 461.365 370.785 455.028C375.81 452.113 381.488 448.578 385.995 445.172C388.406 443.35 390.932 441.633 393.339 439.86C395.746 438.086 398.054 435.983 400.397 434.262C407.12 429.322 421.047 416.164 426.149 409.635C427.546 407.848 430.354 404.736 431.979 403.055C433.866 401.101 435.846 398.202 437.588 396.009C441.313 391.323 444.824 386.382 448.195 381.306C451.644 376.115 454.331 370.92 457.636 365.681C460.803 360.662 463.373 354.278 466.106 348.84C468.712 343.657 471.346 336.7 473.381 331.046C474.45 328.068 479.248 314.268 479.248 311.604C481.013 308.969 484.235 287.941 485.189 282.5C486.862 272.934 487.279 260.292 487.279 249.302C487.279 177.422 454.071 119.354 418.103 83.3854C408.08 73.3633 398.012 64.7906 386.278 56.5569C376.037 49.3715 361.181 39.9752 348.9 35.0406C341.997 32.2669 335.509 28.9818 328.121 26.6166C320.888 24.3012 313.239 21.6248 305.394 19.8952C289.6 16.4132 271.988 13.4785 252.917 13.4785H250.969C242.583 13.4785 234.345 13.8364 226.859 14.6787C219.265 15.5316 211.574 16.1452 204.629 17.7587C201.408 18.5071 197.108 19.1141 194.225 20.0096C191.498 20.8568 186.893 22.1501 184.277 22.7163C179.723 23.7024 169.11 27.2612 165.145 29.1378C162.253 30.5055 159.099 31.4034 156.139 32.7865C153.109 34.2032 150.409 35.2841 147.457 36.7604C141.603 39.6885 136.169 42.3764 130.739 45.5962C120.526 51.6534 109.455 58.8552 100.632 66.3535C81.4101 82.6901 66.4518 98.3078 52.1855 119.635C45.1699 130.122 39.7386 140.496 34.0506 152.364C31.2426 158.224 29.1136 164.05 26.6814 170.305C25.6078 173.059 20.741 187.433 20.741 189.919ZM248.533 46.088C248.533 43.1182 241.96 32.1885 241.719 29.2955H247.803C248.748 29.2955 249.766 33.6207 250.089 34.5545C250.48 35.6787 251.674 39.4859 251.697 40.4908H252.184L255.699 29.5733L262.405 29.539L254.566 45.2105L254.375 55.8233H248.534V46.088H248.533ZM271.41 46.5749C271.41 39.0815 275.864 31.9728 283.092 31.9728H286.498C287.736 31.9728 290.261 32.9769 291.123 33.4336L289.635 38.048C288.236 37.9385 287.036 36.8404 284.797 36.8404C280.238 36.8404 277.739 41.4058 277.739 46.088V47.0619C277.739 50.9671 280.855 53.8756 284.797 53.8756H286.498C287.156 53.8756 287.169 53.7596 287.716 53.6329V58.0128C287.716 58.5733 287.546 58.7432 286.986 58.7432H283.334C276.311 58.7432 271.41 53.6199 271.41 46.5749ZM289.676 451.612L306.214 448.144C306.21 451.974 307.333 449.872 306.162 454.166C305.685 455.914 304.824 457.967 304.227 459.776C303.526 461.901 300.762 469.226 300.614 471.009L310.569 468.952L311.64 473.913L294.05 477.608C294.045 476.093 293.556 475.72 293.556 474.416C293.556 473.478 296.262 465.939 296.752 464.469C297.324 462.751 299.767 456.099 299.885 454.703L290.425 456.56L289.676 451.612ZM342.474 55.5798C342.542 54.7792 344.15 50.9556 344.664 50.9556C345.957 50.9556 357.058 57.4418 359.51 58.0136C359.171 62.0962 353.995 64.2873 351.139 66.1909C349.569 67.2367 341.819 71.9107 341.501 73.1019C342.457 73.3241 350.262 77.0741 350.262 77.4826C350.262 77.6419 348.54 81.396 348.316 81.8633L332.243 74.0962C333.154 70.2007 337.899 68.2024 340.917 66.1909C342.399 65.2032 350.223 60.1909 350.748 59.4736L342.474 55.5798ZM204.895 477.568L209.443 451.556L223.69 454.081L222.82 458.858L214.465 457.603C214.462 459.934 212.454 462.639 215.082 463.088C217.467 463.497 219.198 463.712 221.276 464.197L220.646 468.835L219.816 468.819C218.065 468.819 214.71 467.604 212.516 467.604L211.704 473.676L220.299 475.171L219.657 480.028L204.895 477.568ZM314.73 61.177C314.73 54.7767 319.978 46.8993 321.301 41.2212L326.876 43.2269C326.109 46.5488 320.569 58.3715 320.569 60.4483V62.8821C320.569 63.811 322.161 65.0725 323.246 65.0725H323.977C327.07 65.0725 328.678 58.8682 329.721 56.2138C331.028 52.887 332.261 48.8699 333.711 45.847L339.312 48.0292C336.458 53.427 333.11 70.1836 326.167 70.1836H323.246C320.01 70.1836 314.729 66.2963 314.729 63.1256V61.177H314.73ZM143.885 63.3674C143.885 60.2016 146.207 56.1623 148.021 54.8486C149.593 53.7097 153.809 50.7122 156.297 50.7122H158L158.957 55.5831C154.859 55.5798 149.969 58.6811 149.969 62.6378V63.1239C149.969 66.7457 153.735 72.8592 157.027 72.8592H158.73C160.115 72.8592 161.813 71.9311 162.381 71.1558L159.953 66.2849C159.524 66.512 157.693 67.5047 157.27 67.5047C156.83 67.5047 155.227 64.0038 155.079 63.3674L163.043 59.5741C163.663 62.0872 168.952 70.7122 168.952 72.3723C168.952 73.0104 164.209 76.0823 163.36 76.5145C161.25 77.5888 158.994 78.4556 155.81 78.4556H155.324C152.579 78.4556 148.912 75.4842 147.629 73.7391C146.475 72.1681 143.886 67.4393 143.886 65.0708L143.885 63.3674ZM311.096 446.239L318.122 443.95L332.695 466.99L326.672 468.869L323.442 463.496L317.662 465.446L318.197 471.734L312.343 473.586L311.023 448.379L311.096 446.239ZM223.373 479.764L225.268 454.468L231.494 454.778L238.542 472.961L239.001 457.866L239.042 455.434H241.476L244.636 455.715L244.64 456.651L242.85 481.956L236.856 481.653C236.35 479.563 234.29 475.184 233.345 472.814C232.86 471.601 230.038 464.482 230.038 463.709V462.736H229.551V468.09L228.808 479.284L228.822 480.988L226.152 480.69L223.467 480.745L223.373 479.764ZM296.721 40.2473C296.721 39.1337 297.433 35.137 298.425 35.137H299.154C303.718 35.137 313.27 38.4303 313.27 42.6811V44.3846C313.27 48.021 310.565 51.3666 307.186 51.4418C310.146 55.8625 308.891 56.3674 308.891 62.637V64.5831C307.456 64.5831 305.864 63.8584 304.359 63.5161C302.328 63.0553 303.048 61.7367 303.048 59.2293C303.048 54.0831 304.037 52.7089 299.641 51.6844L297.088 61.387L291.39 60.115L296.321 40.9998L296.721 40.2473ZM175.271 470.034L183.884 444.998C184.916 445.229 189.34 446.673 190.126 446.673H190.856V455.434L190.391 465.171L199.167 449.126L206.163 450.908L200.845 476.854L199.6 476.402L196.718 475.787L195.532 475.282L199.708 456.616L190.137 473.449L185.763 472.398L185.746 468.818L186.162 453.728L180.538 471.221L179.904 471.252C178.689 471.253 176.79 470.07 175.271 470.034ZM216.895 42.4377C216.895 36.2114 221.065 30.2694 226.873 30.2694H227.605L230.522 30.5365C233.582 32.5594 233.961 31.5986 236.323 35.1803C237.302 36.6664 238.8 40.8078 238.8 43.1681V46.3323C238.8 52.2432 234.659 57.2841 228.822 57.2841H226.632C221.191 57.2841 216.897 49.9148 216.897 44.1427V42.4377H216.895ZM268.734 463.952C268.734 458.72 273.558 453.001 278.712 453.001H279.685C287.285 453.001 290.636 460.45 290.636 468.333V469.307C290.636 472.483 289.118 475.435 287.541 477.163C286.429 478.38 282.368 480.563 279.927 480.259L277.255 479.98C274.605 478.243 273.289 478.637 271.264 475.294C270.06 473.309 268.733 470.145 268.733 467.116V463.952H268.734ZM166.518 52.6591C166.518 49.2506 167.75 47.1664 169.498 45.4181C170.747 44.1697 173.996 42.1942 176.252 42.1942H177.226C183.978 42.1942 189.395 51.2416 189.395 58.2563C189.395 64.5488 184.838 69.2073 178.686 69.2073C172.27 69.2073 166.518 61.1746 166.518 55.0921V52.6591ZM247.314 455.633L255.585 455.095L256.565 455.191C263.095 455.191 267.76 460.276 267.76 466.872V470.037C267.76 473.643 265.53 477.782 263.333 479.237C260.289 481.252 257.62 481.962 252.67 481.962H251.697L247.563 481.675L247.56 476.364L247.314 455.633ZM190.368 38.0578C192.94 36.6967 198.064 35.3805 202.05 35.3805H202.292C210.258 35.3805 213.488 42.8535 213.488 50.9556V51.1991C213.488 58.8911 203.875 63.1239 195.966 63.1239L190.368 38.0578ZM64.3039 242.487C64.3039 236.204 65.3235 227.417 66.3423 221.648C66.8962 218.514 67.7467 215.075 68.1977 212.065C68.6364 209.138 69.906 205.668 70.3693 203.041C71.3562 197.447 74.1479 190.952 75.8807 185.676C77.4984 180.749 80.3758 174.283 82.6389 169.801C93.5817 148.13 104.551 133.488 120.828 117.213C148.368 89.6721 194.843 64.8282 249.996 64.8282H251.943C279.007 64.8282 309.275 72.8192 327.472 81.7784C349.807 92.7743 365.18 103.229 381.841 119.89C410.336 148.385 435.93 193.814 435.93 250.762C435.93 307.843 410.283 353.191 381.719 381.754C366.341 397.131 348.273 410.39 327.145 419.904C307.123 428.92 280.424 436.695 251.455 436.695H251.212C195.243 436.695 148.985 412.47 121.07 384.554C104.66 368.144 93.674 353.577 82.6381 331.722C80.2288 326.951 77.6397 320.898 75.8145 315.669C74.0792 310.696 71.3031 303.778 70.3685 298.482C69.8758 295.69 68.6479 292.326 68.1724 289.24C67.7116 286.251 66.9542 282.907 66.3962 279.578C65.3832 273.541 64.3047 265.691 64.3047 259.037L64.3039 242.487Z" fill="white"/>
<path fill-rule="evenodd" clip-rule="evenodd" d="M190.368 38.0581L195.966 63.1251C203.876 63.1251 213.488 58.8923 213.488 51.2003V50.956C213.488 42.8539 210.259 35.3809 202.293 35.3809H202.05C198.065 35.3809 192.94 36.697 190.368 38.0581ZM197.183 40.7346C198.102 40.5206 198.705 40.2477 199.86 40.2477H201.077C204.761 40.2477 207.162 45.447 207.162 49.2518V51.9291C207.162 53.3147 206.156 55.0965 205.401 55.7665C204.869 56.2387 202.261 57.5263 201.564 57.5263H200.833L197.183 40.7346Z" fill="white"/>
<path fill-rule="evenodd" clip-rule="evenodd" d="M247.314 455.633L247.561 476.365L247.564 481.675L251.698 481.963H252.671C257.621 481.963 260.29 481.253 263.334 479.238C265.531 477.783 267.761 473.643 267.761 470.037V466.873C267.761 460.276 263.096 455.191 256.566 455.191L255.586 455.096L247.314 455.633ZM253.401 460.058C253.695 459.945 254.235 459.815 254.617 459.815H255.834C259.71 459.815 261.432 463.774 261.432 467.847V469.793C261.432 473.27 259.176 477.095 256.078 477.095H253.401V460.058Z" fill="white"/>
<path fill-rule="evenodd" clip-rule="evenodd" d="M166.518 52.6594V55.0932C166.518 61.1757 172.27 69.2084 178.686 69.2084C184.838 69.2084 189.395 64.5499 189.395 58.2574C189.395 51.2427 183.978 42.1953 177.226 42.1953H176.253C173.996 42.1953 170.747 44.1708 169.498 45.4192C167.75 47.1667 166.518 49.2509 166.518 52.6594ZM172.36 51.4429C172.36 49.7223 173.775 47.5491 175.523 47.5491H176.496C180.212 47.5491 183.311 55.6283 183.311 60.2035V60.4469C183.311 62.2885 181.488 64.0973 179.417 64.0973C175.62 64.0981 172.36 56.1782 172.36 51.4429Z" fill="white"/>
<path fill-rule="evenodd" clip-rule="evenodd" d="M268.733 463.953V467.116C268.733 470.146 270.061 473.309 271.264 475.294C273.29 478.638 274.606 478.244 277.255 479.981L279.928 480.259C282.369 480.563 286.429 478.381 287.541 477.164C289.118 475.436 290.637 472.483 290.637 469.307V468.333C290.637 460.451 287.285 453.001 279.685 453.001H278.713C273.558 453.001 268.733 458.721 268.733 463.953ZM274.818 464.44C274.818 461.685 276.139 458.112 278.712 458.112H279.441C282.296 458.112 284.309 463.359 284.309 466.387V470.524C284.309 472.527 282.639 475.147 280.658 475.147H279.927C276.672 475.147 274.818 469.025 274.818 465.413V464.44Z" fill="white"/>
<path fill-rule="evenodd" clip-rule="evenodd" d="M216.896 42.438V44.1414C216.896 49.9135 221.19 57.2828 226.63 57.2828H228.82C234.659 57.2828 238.798 52.2419 238.798 46.331V43.1668C238.798 40.8056 237.301 36.6651 236.321 35.179C233.96 31.5981 233.58 32.5581 230.521 30.5352L227.603 30.2681H226.872C221.065 30.2697 216.896 36.2125 216.896 42.438ZM222.98 41.465C222.98 38.6888 224.346 35.3808 227.117 35.3808H227.604C230.562 35.3808 232.471 40.6986 232.471 43.8988V46.8195C232.471 49.4364 231.246 52.4168 228.82 52.4168H228.09C224.519 52.4159 222.98 45.5369 222.98 41.465Z" fill="white"/>
<path fill-rule="evenodd" clip-rule="evenodd" d="M175.271 470.034C176.79 470.07 178.69 471.253 179.904 471.253L180.537 471.222L186.161 453.729L185.745 468.819L185.762 472.399L190.137 473.45L199.708 456.617L195.531 475.282L196.718 475.788L199.6 476.403L200.844 476.854L206.162 450.909L199.166 449.126L190.391 465.171L190.856 455.435V446.674H190.125C189.34 446.674 184.915 445.23 183.883 444.999L175.271 470.034Z" fill="white"/>
<path fill-rule="evenodd" clip-rule="evenodd" d="M296.721 40.2477L296.321 41.0009L291.39 60.1161L297.088 61.3882L299.641 51.6856C304.037 52.7093 303.048 54.0843 303.048 59.2305C303.048 61.7379 302.328 63.0565 304.359 63.5173C305.864 63.8596 307.456 64.5843 308.89 64.5843V62.6382C308.89 56.3686 310.146 55.8637 307.186 51.4429C310.565 51.3678 313.27 48.0222 313.27 44.3857V42.6823C313.27 38.4307 303.718 35.1382 299.154 35.1382H298.425C297.433 35.1374 296.721 39.1341 296.721 40.2477ZM300.779 47.5279L302.647 40.5148C304.476 40.4911 307.185 41.5181 307.185 43.4119V44.8718C307.185 46.6243 305.416 48.0361 303.533 48.0361C302.484 48.0352 302.361 47.5491 300.779 47.5279Z" fill="white"/>
<path fill-rule="evenodd" clip-rule="evenodd" d="M223.374 479.764L223.467 480.744L226.151 480.69L228.821 480.988L228.807 479.283L229.551 468.089V462.735H230.038V463.708C230.038 464.48 232.86 471.6 233.344 472.814C234.289 475.184 236.35 479.563 236.856 481.652L242.85 481.956L244.639 456.65L244.635 455.714L241.476 455.433H239.042L239 457.865L238.542 472.961L231.494 454.778L225.267 454.467L223.374 479.764Z" fill="white"/>
<path fill-rule="evenodd" clip-rule="evenodd" d="M311.096 446.239L311.022 448.379L312.342 473.586L318.196 471.735L317.661 465.446L323.441 463.496L326.671 468.869L332.694 466.99L318.121 443.95L311.096 446.239ZM316.923 460.788L315.876 450.331L321.394 459.518L316.923 460.788Z" fill="white"/>
<path fill-rule="evenodd" clip-rule="evenodd" d="M143.885 63.3676V65.0711C143.885 67.4395 146.474 72.1683 147.628 73.7394C148.911 75.4845 152.578 78.4559 155.323 78.4559H155.81C158.993 78.4559 161.25 77.589 163.359 76.5147C164.208 76.0825 168.951 73.0098 168.951 72.3725C168.951 70.7124 163.662 62.0874 163.042 59.5743L155.078 63.3676C155.227 64.0041 156.83 67.5049 157.269 67.5049C157.692 67.5049 159.523 66.5122 159.953 66.2851L162.38 71.156C161.812 71.9314 160.114 72.8595 158.73 72.8595H157.026C153.734 72.8595 149.968 66.7467 149.968 63.1242V62.6381C149.968 58.6822 154.859 55.58 158.956 55.5833L157.999 50.7124H156.296C153.808 50.7124 149.592 53.71 148.02 54.8488C146.207 56.1626 143.885 60.2018 143.885 63.3676Z" fill="white"/>
<path fill-rule="evenodd" clip-rule="evenodd" d="M314.729 61.1772V63.1241C314.729 66.2949 320.011 70.1821 323.247 70.1821H326.167C333.111 70.1821 336.458 53.4256 339.313 48.0277L333.712 45.8455C332.263 48.8684 331.029 52.8864 329.721 56.2124C328.679 58.8668 327.071 65.071 323.978 65.071H323.247C322.162 65.071 320.57 63.8096 320.57 62.8807V60.4469C320.57 58.3701 326.11 46.5482 326.877 43.2254L321.301 41.2197C319.978 46.8995 314.729 54.7769 314.729 61.1772Z" fill="white"/>
<path fill-rule="evenodd" clip-rule="evenodd" d="M204.896 477.568L219.656 480.029L220.298 475.171L211.704 473.677L212.515 467.604C214.709 467.604 218.065 468.82 219.815 468.82L220.646 468.835L221.275 464.197C219.198 463.712 217.467 463.498 215.082 463.088C212.454 462.639 214.461 459.935 214.464 457.603L222.82 458.859L223.689 454.082L209.442 451.557L204.896 477.568Z" fill="white"/>
<path fill-rule="evenodd" clip-rule="evenodd" d="M342.474 55.5799L350.748 59.4745C350.222 60.1918 342.399 65.2033 340.917 66.1918C337.899 68.2033 333.154 70.2025 332.243 74.0971L348.316 81.8642C348.539 81.3969 350.262 77.6428 350.262 77.4835C350.262 77.075 342.457 73.3258 341.501 73.1028C341.819 71.9116 349.569 67.2376 351.139 66.1918C353.995 64.2874 359.171 62.0963 359.51 58.0146C357.058 57.4435 345.958 50.9565 344.664 50.9565C344.15 50.9557 342.542 54.7784 342.474 55.5799Z" fill="white"/>
<path fill-rule="evenodd" clip-rule="evenodd" d="M289.676 451.612L290.424 456.562L299.884 454.705C299.766 456.101 297.323 462.754 296.751 464.471C296.26 465.94 293.555 473.479 293.555 474.418C293.555 475.722 294.044 476.095 294.049 477.61L311.639 473.915L310.568 468.954L300.613 471.011C300.761 469.228 303.524 461.903 304.226 459.778C304.823 457.969 305.684 455.915 306.161 454.168C307.332 449.874 306.21 451.976 306.213 448.146L289.676 451.612Z" fill="white"/>
<path fill-rule="evenodd" clip-rule="evenodd" d="M271.41 46.5753C271.41 53.6202 276.311 58.7436 283.335 58.7436H286.987C287.547 58.7436 287.717 58.5736 287.717 58.0132V53.6333C287.17 53.7599 287.156 53.8759 286.499 53.8759H284.797C280.857 53.8759 277.739 50.9674 277.739 47.0622V46.0883C277.739 41.407 280.239 36.8408 284.797 36.8408C287.037 36.8408 288.237 37.9388 289.636 38.0483L291.123 33.4339C290.262 32.9772 287.736 31.9731 286.499 31.9731H283.093C275.864 31.9731 271.41 39.0818 271.41 46.5753Z" fill="white"/>
<path fill-rule="evenodd" clip-rule="evenodd" d="M248.534 46.0884V55.8237H254.374L254.565 45.2109L262.405 29.5394L255.698 29.5737L252.183 40.4912H251.696C251.674 39.4863 250.479 35.6791 250.088 34.5549C249.765 33.6211 248.747 29.2959 247.802 29.2959H241.718C241.96 32.1889 248.534 43.1186 248.534 46.0884Z" fill="white"/>
<path fill-rule="evenodd" clip-rule="evenodd" d="M102.244 139.086C102.281 139.146 102.741 164.988 102.738 167.287C102.73 176.858 103.423 186.013 103.557 195.328C103.585 197.238 103.737 200.014 103.892 202.086C104.055 204.278 104.052 206.747 104.222 209.011C104.524 213.042 104.635 218.591 105.247 222.498C105.805 226.055 106.332 231.876 106.533 235.562C106.761 239.766 107.693 244.291 108.187 248.42C108.69 252.624 109.725 256.954 110.146 260.809C110.605 265.006 112.046 269.133 112.475 272.993C112.639 274.473 113.435 277.187 113.824 278.736C114.292 280.599 114.766 282.689 115.241 284.576C116.196 288.378 117.47 292.11 118.508 295.822C119.47 299.262 120.841 303.315 122.134 306.545C123.531 310.036 124.679 313.619 126.238 316.953C127.805 320.304 129.102 323.527 130.723 326.818C132.337 330.098 134.14 333.162 135.732 336.323C137.261 339.362 139.295 342.462 141.013 345.391C142.567 348.041 144.911 351.728 146.753 354.165C148.834 356.917 150.653 359.731 152.765 362.501C154.845 365.233 157.209 367.959 159.153 370.627C160.913 373.046 163.72 376.041 165.795 378.336C168.132 380.921 170.314 383.412 172.717 385.928C175.06 388.382 177.486 390.688 179.896 393.098C182.357 395.559 184.917 397.763 187.318 400.189C189.582 402.475 192.412 404.859 194.905 406.952C197.527 409.153 199.974 411.574 202.67 413.702C208.077 417.968 213.223 422.294 218.746 426.489C224.225 430.653 229.732 434.808 235.363 438.736C237.245 440.049 251.969 450.09 252.35 450.613H252.68C254.302 449.202 257.692 447.1 259.608 445.83C261.76 444.402 264.428 442.593 266.492 441.002C270.904 437.597 275.617 434.403 280.13 431.055C284.482 427.827 289.423 424.279 293.463 420.803C295.592 418.97 297.745 417.355 299.899 415.528C301.909 413.822 304.3 411.631 306.354 410.108C308.02 408.873 311.108 406.121 312.6 404.644C314.584 402.68 316.72 401.016 318.7 399.035C322.664 395.072 326.593 391.309 330.577 387.326C332.569 385.334 334.329 383.346 336.272 381.31C338.189 379.303 339.89 376.923 341.792 374.955C345.604 371.007 348.837 366.189 352.281 361.858C355.39 357.948 359.332 352.365 361.872 348.03C363.334 345.539 364.822 343.353 366.274 340.722C367.613 338.298 369.082 335.439 370.52 333.093C371.69 331.188 373.583 327.425 374.466 325.33C375.577 322.698 377.242 319.781 378.147 317.135C379.083 314.399 380.684 311.55 381.509 308.787C381.949 307.306 382.641 305.988 383.087 304.43C383.452 303.159 384.094 301.207 384.59 299.993C385.7 297.272 386.465 294.019 387.35 291.044C388.121 288.448 389.535 284.35 389.92 281.739C390.359 278.759 391.558 275.423 392.168 272.278C392.53 270.403 392.794 269.098 393.151 267.323C393.444 265.863 393.677 263.562 394.064 262.3C394.783 259.966 395.273 255.075 395.761 252.288C396.352 248.934 396.769 245.2 397.172 241.824C397.561 238.579 398.293 234.632 398.327 231.268C398.339 230.006 398.717 227.421 398.828 225.832C398.948 224.088 399.322 222.269 399.323 220.391L399.981 220.06V213.958C399.981 210.254 400.495 207.129 400.476 203.403C400.459 200.149 400.829 196.32 400.966 192.842C401.233 185.971 401.799 178.427 401.797 171.409C401.796 167.818 402.448 127.554 402.457 127.541V88.1265H102.244V139.086ZM345.878 180.644L149.585 236.221C148.65 236.847 141.844 238.487 140.162 239.004C137 239.974 133.749 240.773 133.749 244.961V248.425C133.749 254.566 134.244 260.501 134.244 266.731C134.244 269.758 134.409 272.739 134.409 275.966C134.409 277.397 134.248 279.234 134.602 280.391C134.875 281.285 135.948 282.729 137.048 282.729C139.219 282.729 142.006 281.586 143.979 281.082C145.299 280.744 149.662 279.264 150.707 279.148L189.142 268.273L271.285 245.01L301.505 236.387C302.113 236.387 307.759 234.771 308.498 234.474C309.288 234.155 311.062 233.739 311.963 233.485C313.253 233.121 314.144 232.853 315.491 232.559C317.425 232.139 320.22 231.161 322.387 230.549C324.817 229.863 327.052 229.253 329.452 228.542C338.796 225.776 347.982 223.297 357.357 220.653C362.044 219.331 366.557 218.004 371.246 216.729C378.324 214.806 377.656 213.438 377.541 205.389C377.455 199.456 377.217 193.731 377.217 187.902C377.217 184.813 377.053 182.278 377.053 179.161C377.053 176.1 377.058 173.059 374.082 173.059H373.752C372.016 173.059 362.125 176.105 359.836 176.79C357.798 177.4 347.159 180.644 345.878 180.644ZM228.928 228.965V231.604C228.928 238.359 234.956 245.787 241.959 245.787H243.114C246.134 245.787 249.616 244.286 251.531 243.153C252.716 242.452 257.299 239.014 257.299 237.706C257.299 237.193 256.155 233.457 255.914 232.494C255.523 230.927 254.619 228.638 254.496 227.151C253.242 227.179 249.969 228.32 248.594 228.671C248.014 228.821 242.784 230.184 242.784 230.449C242.784 230.884 243.807 234.737 244.104 234.737C245.738 234.737 248.494 233.291 250.17 233.263L251.032 236.55C249.76 238.45 246.628 240.839 243.444 240.839H243.114C237.483 240.839 234.537 234.753 234.537 229.13V228.635C234.537 224.952 238.394 221.874 242.289 221.874H243.774C244.786 221.874 247.121 223.625 247.43 224.733L252.681 222.203C250.568 219.048 248.754 216.761 243.444 216.761H243.114C239.748 216.761 235.228 218.628 233.425 220.267C231.384 222.12 228.928 225.197 228.928 228.965ZM154.039 250.405V250.735C154.039 254.785 155.526 259.196 157.292 261.501C159.015 263.75 162.291 266.732 166.081 266.732H168.06C173.669 266.732 179.442 261.86 179.442 256.177V254.363H173.833C173.833 258.552 172.168 261.785 168.06 261.784H167.236C162.429 261.784 159.648 254.864 159.648 250.075V248.755C159.648 245.844 162.706 242.984 165.751 242.984H166.576C169.805 242.984 171.139 245.952 171.359 245.952C171.666 245.952 175.863 243.611 176.308 243.314C174.934 240.719 171.672 237.871 167.73 237.871H166.906C159.908 237.871 154.039 243.218 154.039 250.405ZM268.351 218.576V219.73C268.351 223.656 270.311 228.073 272.046 230.385C274.026 233.026 277.296 235.068 281.877 235.068C288.893 235.068 293.918 229.999 293.918 222.698H288.146V223.853C288.146 227.412 285.646 230.12 282.041 230.12H281.713C278.802 230.12 276.843 227.992 275.935 226.001C275.266 224.535 273.741 220.296 273.918 218.077L274.124 215.772C275.055 214.384 274.896 213.798 276.4 212.607C277.286 211.907 279.029 211.154 280.558 211.154H281.217C282.726 211.154 285.177 213.05 285.574 214.411L290.619 211.484C288.933 208.966 286.366 206.207 282.208 206.207H281.547C274.326 206.207 268.351 211.344 268.351 218.576ZM339.308 190.145C339.356 190.954 339.763 192.406 340.044 193.239C340.639 194.999 339.971 194.936 342.189 194.271C343.448 193.894 347.57 192.597 348.415 192.547L350.638 200.949L350.884 201.455L354.622 214.783C355.222 214.642 359.9 213.427 359.9 213.133C359.9 212.132 357.468 203.775 356.994 202.186C356.585 200.819 353.963 192.027 353.963 191.364L353.993 190.985L361.8 188.867L360.551 184.238L339.308 190.145ZM189.339 231.605C189.427 232.66 190.775 237.047 191.175 238.345C191.829 240.477 192.306 242.883 193.04 245.056C193.789 247.279 194.199 249.497 194.886 251.785C195.108 252.525 196.663 258.485 196.927 258.485C197.666 258.485 209.171 255.09 209.96 254.694C213.9 252.714 216.392 250.044 216.392 244.138C216.392 236.941 211.755 228.141 204.681 228.141H202.867C201.932 228.141 197.284 229.517 196.166 229.852C194.836 230.25 190.487 231.579 189.339 231.605ZM196.102 234.738L200.886 252.384C201.95 252.36 206.762 250.934 207.593 250.515C209.743 249.431 210.783 248.275 210.783 245.128C210.783 242.643 209.628 239.075 208.828 237.351C207.789 235.117 206.409 233.088 203.194 233.088C200.761 233.088 198.176 234.566 196.102 234.738ZM311.404 197.797L308.456 227.558L314.208 225.998L314.22 225.174L314.718 219.293L325.555 216.306L325.516 216.488L329.559 221.747L335.323 220.226C335.198 219.76 327.207 209.46 326.219 208.217C325.283 207.038 317.338 196.313 317.012 196.313C316.2 196.312 312.654 197.769 311.404 197.797ZM315.857 204.393L315.191 214.265L322.378 212.247L316.013 203.455L315.857 203.569V204.393ZM222.494 246.117C222.494 246.515 223.655 250.735 223.805 251.033L228.965 249.734L227.607 244.467C226.93 244.524 222.494 245.774 222.494 246.117ZM336.806 214.125C336.806 214.936 337.485 217.124 337.735 217.977C338.272 219.825 338.682 219.242 340.699 218.674C342.665 218.121 343.398 218.479 342.979 216.694C342.658 215.33 342.227 214.126 341.905 212.744L336.806 214.125ZM261.918 234.903L263.238 240.015C264.629 239.899 265.836 239.296 267.038 239.033C269.252 238.548 268.178 237.979 267.726 236.187C267.27 234.382 267.633 233.269 265.776 233.813C264.421 234.21 263.307 234.579 261.918 234.903ZM299.364 224.52L300.681 229.625C301.288 229.625 305.623 228.453 305.741 228.238C305.896 227.954 304.622 223.823 304.463 223.147L299.364 224.52ZM185.068 256.239L186.368 261.445L191.502 259.965L190.15 254.806L185.068 256.239ZM119.234 98.3513V111.875C119.234 112.548 119.951 113.689 120.554 113.689H386.786C387.907 113.689 388.436 112.849 388.436 111.71V98.0221C388.436 97.4673 387.697 96.7026 386.952 96.7026H120.883C120.054 96.7026 119.234 97.5221 119.234 98.3513ZM248.724 259.818L248.721 432.968C248.721 433.382 252.125 435.772 252.68 435.772C252.738 435.772 255.649 433.854 255.649 433.463L255.632 257.929L248.724 259.818ZM274.95 252.878L275.012 419.691L281.877 414.497V250.734C280.863 250.757 279.311 251.345 278.315 251.625C277.671 251.806 274.95 252.234 274.95 252.878ZM301.205 245.234L301.239 398.404L308.269 392.233L308.274 243.33L301.205 245.234ZM222.355 267.149L222.33 413.507C222.33 413.989 228.56 418.788 229.257 418.949L229.247 265.211L222.355 267.149ZM327.55 237.965L327.568 372.609C328.271 372.138 334.661 364.816 334.661 364.363L334.643 235.989L327.55 237.965ZM195.937 274.812L196.008 391.659L203.03 397.84V272.504C201.992 272.745 200.375 273.151 199.401 273.493C198.765 273.716 195.937 274.173 195.937 274.812ZM117.09 215.607C117.09 219.649 117.646 224.545 118.066 228.319C118.173 229.285 118.298 234.052 119.002 234.026C119.837 233.996 124.183 232.884 124.183 232.264V118.636H117.09V215.607ZM143.482 227.152L150.41 225.337V118.636H143.482V227.152ZM169.71 220.06L176.802 218.082V118.636H169.71V220.06ZM353.969 230.645L353.962 337.481C354.813 336.501 360.89 325.882 360.89 324.783L360.869 228.728L353.969 230.645ZM195.937 212.639L203.03 210.825V118.636H195.937V212.639ZM169.709 281.734L169.71 364.032C169.71 364.473 176.114 371.817 176.803 372.278L176.806 279.771L169.709 281.734ZM222.329 205.382C223.318 204.907 229.256 203.925 229.256 203.073V118.636H222.329V205.382ZM248.722 198.126C249.497 197.754 251.263 197.316 252.252 197.037C253.02 196.82 255.649 196.64 255.649 195.818V118.636H248.722V198.126ZM274.95 190.705L281.877 188.89V118.636H274.95V190.705ZM301.176 183.448L308.269 181.635V118.636H301.176V183.448ZM327.568 176.192C328.774 175.912 329.925 175.438 331.184 175.19C331.884 175.052 334.661 174.629 334.661 173.883V118.636H327.568V176.192ZM353.962 168.771C355.04 168.771 356.522 168.184 357.528 167.885C358.205 167.684 360.889 167.312 360.889 166.627V118.636H353.961V168.771H353.962ZM143.495 289.041L143.482 324.617C143.482 325.528 149.778 336.687 150.41 337.151L150.426 287.071L143.495 289.041ZM380.189 161.515L387.281 159.701V118.636H380.189V161.515ZM380.191 223.37L380.188 269.37C380.86 268.309 383.963 249.121 384.318 246.122C384.769 242.288 385.577 237.942 385.797 233.913C385.903 231.975 386.373 229.886 386.454 227.809C386.504 226.603 386.866 222.616 387.093 221.46L380.191 223.37Z" fill="white"/>
</svg>
