<svg width="500" height="500" viewBox="0 0 500 500" fill="none" xmlns="http://www.w3.org/2000/svg">
<path d="M396.751 154.208C396.751 154.985 396.751 155.764 396.751 156.543C396.261 182.91 390.051 203.515 381.062 221.392C376.017 231.426 370.039 240.533 363.098 248.697C362.268 249.673 361.981 250.843 361.541 252.169C351.571 282.3 341.296 312.449 331.303 342.647C330.896 343.875 330.251 345.229 330.225 346.6C330.194 348.129 330.092 349.793 330.283 351.57C330.906 357.324 331.879 363.256 332.679 369.294C334.039 379.559 335.47 389.877 336.93 400.252C337.137 401.717 337.24 403.252 337.529 404.682C337.608 405.072 337.697 405.227 338.008 405.461C339.192 406.344 340.385 407.056 341.482 407.976C344.479 410.49 347.758 414.102 347.53 419.831C347.392 423.261 345.699 426.046 343.877 428.095C341.954 430.255 339.721 431.719 337.29 433.425C337.29 435.1 337.29 436.777 337.29 438.454C339.57 439.008 342.141 438.768 343.517 440.131C344.129 440.736 344.133 442.178 344.176 443.424C344.373 449.128 344.096 455.15 343.877 460.789C343.836 461.817 343.932 462.738 343.458 463.304C341.374 465.788 338.377 468.078 335.494 470.129C326.893 476.25 316.479 480.925 305.254 484.202C289.898 488.685 272.284 491.086 253.099 491.088C233.529 491.089 216.118 488.785 201.065 484.081C185.997 479.375 172.909 472.596 163.4 462.705C163.292 459.647 163.341 455.821 163.341 452.047C163.341 448.508 163.148 444.956 163.341 442.046C163.443 440.492 165.127 439.967 166.394 439.651C167.787 439.305 169.065 439.149 170.646 439.113C170.785 437.734 170.667 436.099 170.706 434.622C165.631 431.359 160.486 428.524 158.789 422.226C156.967 415.462 161.169 410.691 164.777 407.736C165.175 407.411 166.237 406.695 166.394 406.239C166.608 405.618 166.58 404.758 166.693 403.964C169.122 386.854 171.686 369.422 173.999 352.348C174.192 350.921 174.488 349.373 174.479 347.677C174.469 346.074 174.595 344.415 174.119 343.065C163.939 314.201 153.47 285.016 143.28 256.121C143.045 255.452 142.841 254.798 142.502 254.325C142.171 253.863 141.738 253.495 141.304 253.008C133.256 243.929 126.306 233.878 120.407 222.709C110.945 204.792 104.712 183.897 104 157.201C104 155.982 104 154.765 104 153.548C104.058 152.131 104.11 150.512 104.18 149.057C105.2 127.457 110.161 109.944 117.293 94.4463C124.898 77.9222 134.871 63.9351 146.933 51.8729C158.95 39.8578 172.964 29.848 189.509 22.2333C206.057 14.6176 225.308 9.46869 248.549 9C249.767 9 250.984 9 252.202 9C275.61 9.43464 294.772 14.7172 311.362 22.2939C327.977 29.881 342.05 40.0485 354.056 52.0541C366.046 64.0416 376.132 78.2534 383.697 94.8678C391.268 111.498 396.361 130.735 396.751 154.208ZM388.427 154.807C388.428 141.854 386.503 130.068 383.816 119.836C383.813 119.801 383.807 119.765 383.756 119.777C375.995 131.395 368.323 143.106 360.524 154.686C364.406 160.552 368.298 166.555 372.26 172.471C376.05 178.13 379.791 184.069 383.697 189.596C383.762 189.687 383.825 190.039 384.056 189.956C386.78 179.701 388.426 167.723 388.427 154.807ZM380.283 202.231C380.503 201.622 380.904 200.76 380.882 200.494C380.863 200.26 380.397 199.736 380.105 199.296C371.849 186.916 363.763 174.532 355.553 162.35C354.307 164.047 352.903 166.207 351.601 168.16C348.43 172.914 345.248 177.735 342.081 182.53C341.442 183.498 340.555 184.484 340.166 185.405C339.79 186.287 339.618 187.361 339.326 188.338C330.363 218.468 320.579 249.173 311.722 279.055C327.997 271.048 341.835 260.132 353.578 247.08C364.742 234.674 374.01 219.567 380.283 202.231ZM380.583 109.358C380.592 109.106 380.245 108.418 380.044 107.861C379.849 107.319 379.596 106.762 379.445 106.364C367.612 75.2826 346.723 52.1089 320.044 36.1848C312.15 42.941 303.28 48.7211 293.099 53.1909C313.887 84.5609 334.69 115.909 355.553 147.201C363.372 135.457 371.201 123.586 379.085 111.813C379.518 111.168 380.567 109.871 380.583 109.358ZM336.512 423.665C338.096 422.192 340.112 419.987 338.788 417.377C337.594 415.03 335.076 413.393 332.74 411.987C326.648 408.322 318.629 405.804 310.943 403.964C307.188 414.759 303.641 425.763 299.986 436.657C307.998 435.27 315.534 433.452 322.619 430.969C327.592 429.228 332.931 426.992 336.512 423.665ZM350.524 154.807C345.944 147.789 341.332 140.805 336.632 133.909C331.765 141.098 326.736 148.125 321.901 155.345C326.778 162.205 331.544 169.176 336.452 176.004C341.118 168.914 345.817 161.855 350.524 154.807ZM322.441 343.127C331.216 316.612 340.206 289.996 348.907 263.607C337.274 274.19 323.917 283.047 308.429 289.774C303.027 307.564 297.605 325.338 292.202 343.127C302.281 343.127 312.36 343.127 322.441 343.127ZM331.961 184.027C326.904 177.128 321.896 169.662 316.811 162.591C309.173 173.634 301.482 184.945 293.818 195.764C293.818 190.933 293.818 186.103 293.818 181.272C299.767 172.593 305.817 164.01 311.722 155.285C306.126 147.273 300.524 139.374 294.896 131.334C294.515 130.79 293.818 129.948 293.818 129.537C293.818 124.927 293.818 120.187 293.818 115.345C301.537 126.188 309.115 137.173 316.811 148.04C321.755 140.828 326.711 133.628 331.722 126.483C316.235 103.071 300.721 79.6802 285.136 56.3649C281.145 57.8027 276.947 59.0358 272.501 60.0179C277.698 76.0167 283.116 92.1167 288.19 108.04C285.296 108.04 282.4 108.04 279.506 108.04C274.448 92.5393 269.315 77.1156 264.298 61.5737C255.632 62.8999 244.567 63.1047 235.555 61.9334C230.868 77.2651 226.324 92.7428 221.604 108.04C218.749 108.001 215.735 108.121 212.98 107.98C217.765 92.1863 222.495 76.3395 227.292 60.556C222.082 59.4791 217.219 58.0546 212.562 56.4251C197.48 78.8306 182.426 101.256 167.413 123.73C173.372 131.702 179.369 139.637 185.316 147.62C193.754 136.43 201.978 124.697 210.346 113.67C210.346 118.3 210.346 122.93 210.346 127.561C207.076 132.081 203.753 136.624 200.466 141.155C197.169 145.699 193.718 150.099 190.645 154.686C196.845 162.902 202.907 171.088 209.148 179.357C209.57 179.915 210.254 180.62 210.346 181.094C210.543 182.105 210.346 183.375 210.346 184.507C210.346 188.026 210.346 191.269 210.346 194.746C202.009 183.741 193.769 172.64 185.437 161.632C181.023 167.649 176.79 173.495 172.323 179.537C171.971 180.012 170.551 181.605 170.526 182.171C170.513 182.47 170.882 183.14 171.065 183.728C181.5 217.393 192.093 251.498 202.441 284.864C212.414 288.544 223.464 291.467 235.794 292.588C228.073 261.666 220.389 230.711 212.741 199.716C215.595 199.716 218.45 199.716 221.304 199.716C228.974 230.97 236.807 262.054 244.478 293.308C249.547 293.544 254.968 293.425 259.866 293.128C267.704 262.258 275.185 231.046 282.86 200.016C285.695 200.016 288.528 200.016 291.362 200.016C283.901 230.832 276.31 261.53 268.728 292.23C280.911 290.579 291.73 287.567 301.601 283.607C311.766 250.461 321.78 217.157 331.961 184.027ZM328.607 400.73C327.026 388.9 325.419 377.094 323.758 365.342C320.371 375.588 316.927 385.778 313.518 396C318.793 397.332 323.87 398.861 328.607 400.73ZM319.626 351.449C311.024 351.449 302.42 351.449 293.818 351.449C293.725 351.465 293.778 351.581 293.818 351.629C297.14 365.125 300.653 379.316 304.058 392.946C304.199 393.516 304.144 393.881 304.596 394.084C304.819 394.184 304.941 394.105 305.255 394.204C306.032 392.513 306.526 390.703 307.112 388.934C311.248 376.438 315.532 363.947 319.626 351.449ZM311.603 32.3534C311.806 32.1906 312.214 32.0291 312.08 31.874C299.915 25.7775 286.16 20.9491 270.225 18.8206C276.34 27.9151 282.308 37.1567 288.489 46.1857C297.019 42.5235 304.835 37.7319 311.603 32.3534ZM311.783 466.299C311.783 464.409 312.023 462.42 311.783 460.669C311.542 458.924 310.297 456.948 309.147 455.939C308.095 455.017 306.531 454.364 304.656 454.502C301.558 454.73 298.757 456.578 296.632 458.155C296.044 458.592 294.694 459.331 294.536 459.892C294.405 460.361 294.536 461.225 294.536 461.927C294.537 466.883 294.536 471.546 294.536 476.358C300.34 474.936 306.034 473.406 311.782 471.927C311.783 470.063 311.781 468.182 311.783 466.299ZM295.375 392.527C292.648 381.541 289.97 370.506 287.171 359.593C284.061 369.936 280.899 380.227 277.77 390.551C283.79 391.058 289.69 391.686 295.375 392.527ZM290.704 438.096C294.734 426.155 298.725 414.181 302.68 402.168C294.053 400.536 284.892 399.437 275.375 398.695C271.022 412.427 266.882 426.368 262.68 440.251C272.505 440.016 281.756 439.206 290.704 438.096ZM283.519 343.127C288.518 326.629 293.564 310.179 298.549 293.666C288.97 296.902 278.321 299.585 266.574 300.851C263.432 313.264 260.172 326.246 257.052 338.815C256.632 340.508 256.184 341.643 256.872 343.126C265.754 343.127 274.636 343.127 283.519 343.127ZM280.944 351.449C273.638 351.449 266.333 351.449 259.028 351.449C258.959 351.46 258.963 351.545 258.968 351.629C262.05 364.018 265.226 376.694 268.309 389.114C268.439 389.641 268.413 390.082 268.969 390.012C269.33 389.966 269.401 389.603 269.568 389.054C273.383 376.419 277.206 363.94 280.944 351.449ZM269.986 52.113C273.567 51.2637 277.059 50.3232 280.404 49.2387C273.96 39.4495 267.256 29.3032 260.705 19.48C260.348 18.9456 259.639 17.6639 259.267 17.5628C259.06 17.5062 258.813 17.6061 258.608 17.5628C258.507 17.5879 258.621 17.6404 258.608 17.7427C262.449 29.152 266.064 40.7849 269.986 52.113ZM263.16 468.933C263.16 467.781 263.409 465.595 263.16 464.561C263.007 463.928 261.946 462.962 261.363 462.346C259.512 460.394 256.455 458.264 252.98 458.515C249.347 458.776 246.563 460.593 244.357 462.586C243.736 463.147 242.474 464.05 242.322 464.741C242.055 465.952 242.322 467.715 242.322 469.053C242.322 473.468 242.322 477.628 242.322 481.986C249.149 482.127 256.234 482.007 263.16 482.047C263.16 477.638 263.16 473.309 263.16 468.933ZM261.603 53.5508C258.193 42.9581 254.649 32.2838 251.184 21.8145C250.685 20.3084 250.35 18.7405 249.627 17.3237C249.427 17.3237 249.227 17.3237 249.028 17.3237C248.944 17.3396 248.959 17.455 248.908 17.5039C245.312 29.6555 241.584 41.6754 238.011 53.8505C245.446 54.6814 254.475 54.5488 261.603 53.5508ZM259.866 389.653C257.255 379.271 254.736 368.795 252.082 358.456C249.46 368.886 246.83 379.312 244.179 389.713C249.386 389.591 254.598 389.582 259.866 389.653ZM253.879 440.43C258.212 426.401 262.456 412.281 266.752 398.215C258.78 397.858 250.181 397.824 242.083 398.096C238.555 411.953 235.007 425.79 231.544 439.712C238.766 440.173 246.175 440.449 253.879 440.43ZM252.202 324.085C254.002 316.524 255.97 309.13 257.77 301.569C254.149 301.747 250.189 301.747 246.574 301.75C248.509 309.134 250.231 316.735 252.202 324.085ZM247.411 343.127C248.044 341.543 247.649 340.424 247.231 338.755C244.108 326.248 240.98 313.482 237.89 301.211C225.987 300.221 215.451 297.863 205.615 294.805C205.598 294.581 205.467 294.981 205.615 294.924C210.57 311.028 215.578 327.075 220.586 343.127C229.527 343.127 238.469 343.127 247.411 343.127ZM245.255 351.449C237.911 351.449 230.566 351.449 223.22 351.449C223.127 351.465 223.178 351.581 223.22 351.629C227.062 364.031 230.991 376.677 234.837 388.995C234.941 389.327 234.924 389.919 235.376 390.072C235.712 389.838 235.709 389.336 235.795 388.995C238.921 376.48 242.192 363.976 245.255 351.449ZM240.107 18.1021C240.177 17.6478 240.151 17.7425 239.927 17.6831C239.547 17.582 238.983 17.905 238.43 17.8026C231.426 28.3234 224.326 38.7481 217.352 49.2988C221.295 50.5449 225.293 51.7372 229.687 52.533C232.867 42.1019 236.316 30.4661 239.567 19.7186C239.71 19.2461 240.036 18.5514 240.107 18.1021ZM233.28 398.994C233.413 398.272 233.31 398.557 232.92 398.575C224.476 398.97 216.099 400.12 208.19 401.27C205.044 412.573 201.97 423.951 198.849 435.28C206.511 436.94 214.65 438.123 223.101 438.994C226.106 427.16 229.167 415.333 232.143 403.424C232.434 402.257 233.049 400.255 233.28 398.994ZM227.292 19.5389C227.394 19.3485 227.531 19.2776 227.232 19.2394C226.852 19.191 226.269 19.4404 225.735 19.5389C210.991 22.2794 198.257 26.7819 186.934 32.712C193.33 38.0114 201.031 42.526 209.269 46.1857C210.899 44.0493 212.37 41.7645 213.879 39.4782C217.629 33.8017 221.461 28.1409 225.257 22.4734C225.785 21.6845 226.827 20.399 227.292 19.5389ZM226.633 390.67C223.856 381.832 221.22 372.85 218.311 364.144C215.792 373.662 213.12 383.024 210.586 392.527C215.766 391.739 221.17 391.175 226.633 390.67ZM213.28 465.759C213.28 464.463 213.472 463.049 213.28 461.927C213.133 461.065 212.371 459.894 211.903 459.172C210.318 456.723 207.916 454.348 203.939 454.622C200.816 454.836 198.368 456.348 196.155 457.855C195.498 458.303 194.274 458.933 194.119 459.472C193.916 460.175 194.119 461.555 194.119 462.346C194.119 465.39 194.119 468.175 194.119 471.149C200.564 473.066 206.845 475.149 213.28 477.076C213.28 473.355 213.28 469.467 213.28 465.759ZM213.221 351.449C204.138 351.449 195.057 351.449 185.976 351.449C190.649 364.893 195.833 379.216 200.646 392.887C200.786 393.282 200.998 394.099 201.304 394.084C201.617 394.069 201.772 393.21 201.843 392.946C205.586 379.052 209.477 365.159 213.221 351.449ZM183.101 343.127C192.683 343.127 202.263 343.127 211.843 343.127C206.515 325.78 201.097 308.524 195.736 291.212C180.656 285.153 167.504 276.849 156.035 267.379C160.509 279.994 165.094 292.656 169.568 305.342C173.74 317.174 177.995 329.088 182.143 340.851C182.414 341.619 182.647 342.441 183.101 343.127ZM190.766 433.305C193.518 423.242 196.401 412.993 199.029 403.006C189.992 405.027 180.911 407.527 173.7 411.688C171.36 413.039 168.827 414.658 167.472 416.779C166.951 417.594 166.51 418.634 166.754 419.892C167.169 422.027 169.377 423.804 171.005 424.982C176.539 428.985 183.662 431.221 190.766 433.305ZM191.663 280.374C191.896 280.481 192.166 280.674 192.442 280.612C185.153 256.801 177.305 232.446 170.047 208.458C167.604 200.381 165.115 192.321 162.563 184.387C162.37 183.787 161.743 183.158 161.365 182.591C155.83 174.289 150.149 165.801 144.658 157.74C143.544 159.111 142.358 161.041 141.246 162.71C133.702 174.024 125.957 185.304 118.551 196.601C124.949 216.38 134.634 233.212 147.173 247.021C153.43 253.909 160.15 260.386 167.712 266.002C175.023 271.43 183.046 276.351 191.663 280.374ZM204.658 53.1911C195.028 48.9302 186.648 43.4178 179.029 37.1437C152.573 53.4458 132.756 76.3751 120.886 107.262C128.748 119.143 136.712 130.918 144.658 142.71C164.618 112.828 184.696 83.0696 204.658 53.1911ZM192.861 395.94C189.038 384.814 184.921 373.462 180.946 362.287C179.112 375.363 177.256 388.419 175.436 401.508C180.837 399.245 186.633 397.376 192.861 395.94ZM165.796 174.267C170.708 167.822 175.442 161.199 180.227 154.627C174.262 146.799 168.431 138.838 162.443 131.034C158.212 137.462 153.884 143.792 149.628 150.195C155.045 158.192 160.428 166.223 165.796 174.267ZM139.629 150.136C132.235 139.286 125.009 128.27 117.593 117.441C116.236 122.222 114.955 127.625 114.06 133.31C111.435 149.981 111.826 170.479 115.677 185.765C123.642 174.108 131.668 161.996 139.629 150.136Z" fill="white"/>
<path d="M267.291 112.232C274.735 112.232 282.181 112.232 289.626 112.232C289.587 140.075 289.706 168.081 289.566 195.824C282.201 195.824 274.835 195.824 267.472 195.824C267.472 184.806 267.472 173.789 267.472 162.771C256.773 162.771 246.075 162.771 235.375 162.771C235.236 173.568 235.356 184.626 235.317 195.525C228.39 195.525 221.463 195.525 214.538 195.525C214.538 167.821 214.538 140.114 214.538 112.412C214.533 112.327 214.527 112.243 214.597 112.232C221.543 112.232 228.489 112.232 235.436 112.232C235.436 122.072 235.436 131.913 235.436 141.753C246.034 141.753 256.632 141.753 267.231 141.753C267.372 132.032 267.251 122.053 267.291 112.232Z" fill="white"/>
</svg>
