<svg xmlns="http://www.w3.org/2000/svg" width="500" height="500" fill="none"><path stroke="#fff" stroke-width="11" d="M16.131 311.926c-1.343-5.387-2.291-10.302-3.305-15.551a665.813 665.813 0 0 0-1.58-8.005c-.296-1.444-.557-4.458-.88-8.197a766.277 766.277 0 0 0-.404-4.548c-.25-2.697-.538-5.461-.895-7.773-.178-1.154-.388-2.29-.643-3.299-.11-.432-.26-.977-.473-1.556v-28.369c.119-.436.218-.903.302-1.344.172-.896.34-2.005.503-3.202.327-2.412.671-5.475.997-8.543.224-2.114.437-4.193.63-6.087.39-3.803.702-6.856.878-7.936 1.362-8.344 3.007-14.951 4.898-22.547l.32-1.285c3.69-14.836 9.203-29.477 15.517-42.089 13.47-26.904 28.995-46.202 49.304-66.54 35.693-35.745 91.207-69.1 161.886-69.1h15.643c70.029 0 126.036 34.073 161.446 69.538 20.616 20.645 35.144 39.489 48.87 66.968 11.037 22.099 23.179 59.921 23.179 92.116v23.499c0 67.915-34.678 126.018-69.004 160.393-19.671 19.699-40.26 35.389-66.437 48.501-13.775 6.9-25.662 11.021-41.96 15.935-1.082.326-4.506.993-9.561 1.861-4.87.835-10.834 1.79-16.658 2.703-3.428.538-6.774 1.056-9.816 1.527-2.144.332-4.137.641-5.904.917-2.119.331-3.903.614-5.181.826a89.152 89.152 0 0 0-1.777.311H235.85a52.82 52.82 0 0 0-.831-.119 319.58 319.58 0 0 0-2.814-.372c-2.296-.296-5.356-.681-8.468-1.072l-.731-.092c-6.088-.764-11.951-1.5-12.915-1.659l-.895 5.427.895-5.427c-8.769-1.446-15.324-2.669-23.451-4.703l-.001-.001c-14.708-3.68-28.851-9.277-41.228-15.476-26.672-13.361-46.335-27.809-66.282-47.785-19.39-19.418-34.743-40.431-47.718-66.383-5.956-11.914-11.73-27.219-15.28-41.462Z"/><path fill="#fff" fill-rule="evenodd" d="M29.392 252.852v-1.74c0-73.145 27.898-122.372 64.528-159.056 35.51-35.562 86.403-65.492 157.086-65.492h5.215c29.757 0 67.372 10.139 87.486 20.31 25.592 12.941 43.859 25.5 63.081 44.75 33.338 33.387 64.094 84.268 64.094 150.785v15.665c0 66.599-34.44 116.741-68.002 150.353-35.444 35.494-85.401 61.14-156.218 61.14-116.879 0-217.27-100.089-217.27-216.715Zm220.746 153.181c-85.819 0-157.303-69.643-157.303-154.921 0-50.789 19.01-87.598 44.538-112.928C161.729 114.017 198.734 90.1 246.662 90.1h2.607c87.028 0 159.041 69.419 159.041 155.791v5.222c0 45.682-21.951 84.209-44.976 107.268-22.626 22.659-59.932 47.652-104.505 47.652h-8.691ZM121.514 240.668v12.186c0 68.931 60.054 125.329 129.492 125.329 47.105 0 91.898-29.151 107.638-58.975l-14.647-8.912c-2.229 1.496-5.548 5.695-8.799 9.807-2.395 3.03-4.753 6.014-6.611 7.834-5.293 5.188-12.374 10.451-18.48 14.566-10.254 6.905-32.612 16.533-49.541 16.533h-20.858c-26.408 0-54.251-18.475-68.02-31.968-13.388-13.121-31.924-42.422-31.924-68.12V238.93c0-52.084 52.933-101.83 106.898-101.83h8.691c17.076 0 32.35 4.924 44.032 10.735 5.655 2.813 11.879 6.707 16.659 10.297 2.401 1.802 4.94 4.173 7.379 6.45 2.685 2.507 5.249 4.9 7.371 6.295l12.337-12.019c-1.843-6.907-28.043-23.598-35.927-27.558-13.299-6.678-31.6-12.478-50.981-12.478h-14.775c-60.109-.001-119.934 60.636-119.934 121.846Zm60.835-57.443v-.869c0-22.481 43.326-35.685 68.656-35.682 6.163 0 19.582 1.619 24.659 3.156 3.127.948 7.007 2.433 10.66 3.832 3.986 1.526 7.702 2.949 9.874 3.455l-12.801 15.011c-7.784-4.214-20.887-7.178-32.391-7.178-16.131 0-48.669 4.514-48.669 18.277v1.741c0 7.486 10.191 15.061 16.512 16.536v-22.629h13.036v28.721l9.534 1.86.026-30.581h39.978c23.187 0 39.977 14.699 39.977 37.424 0 4.457-2.009 11.734-3.475 14.796 1.996 2.986 3.989 4.771 6.037 6.606 3.193 2.86 6.522 5.841 10.209 13.679 2.69 5.718 6.349 21.862 6.349 30.196v.87c0 34.656-47.729 67.017-84.3 67.017h-13.036c-32.248 0-67.095-25.949-78.218-46.999l13.21-13.705.696.648c1.966 8.454 18.565 23.359 25.706 28.218 9.201 6.259 25.409 13.559 40.343 13.559h6.954c30.045 0 69.525-22.294 69.525-49.609v-5.223c0-6.412-2.122-13.78-4.684-17.937-1.525-2.478-8.599-11.654-10.958-11.654-1.04 0-2.545.763-4.178 1.59-1.483.751-3.071 1.555-4.513 1.892.586.876 1.19 1.749 1.799 2.627 4.215 6.083 8.629 12.454 8.629 22.613v28.721H294.46v-28.721c0-14.268-11.616-23.5-26.072-23.5h-13.906v52.221h-13.036v-75.72l-9.501-2.005-.059 77.725H219.72V221.52c-14.388-.32-37.371-21.739-37.371-38.295Zm98.554 34.467c-4.795-1.234-22.088-4.778-26.42-4.875V191.93h31.287c12.344 0 22.597 10.169 22.597 22.628v5.223c0 2.011-.972 5.221-2.608 5.221-.318 0-5.381-1.529-10.932-3.205h-.001c-5.603-1.692-11.704-3.534-13.923-4.105Zm6.604 22.106h-33.024v-7.833c6.91 0 31.571 3.81 33.024 7.833ZM147.67 429.351l15.299-30.068 7.43 3.792-5.968 22.792 14.86-18.255 7.452 3.802-15.299 30.069-4.606-2.35 12.043-23.67-16.936 21.172-4.796-2.447 7.191-26.145-12.043 23.67-4.627-2.362Zm32.748 15.093 20.198 5.8 1.566-5.468-14.85-4.265 2.527-8.829 13.35 3.834 1.564-5.462-13.35-3.833 2.059-7.19 14.368 4.125 1.572-5.491-19.715-5.661-9.289 32.44Zm29.014 8.058 4.106-33.496 5.389.663 8.48 23.745 2.742-22.366 5.155.634-4.106 33.494-5.568-.684-8.364-23.201-2.679 21.843-5.155-.632Zm31.874-30.326h10.176c2.574 0 4.519.29 5.83.865 1.31.572 2.518 1.547 3.618 2.914 1.106 1.36 1.968 3.136 2.604 5.312.629 2.184.941 4.887.941 8.124 0 2.923-.33 5.453-.989 7.614-.659 2.154-1.498 3.858-2.51 5.124-1.012 1.257-2.228 2.2-3.663 2.837-1.436.635-3.272.957-5.532.957h-10.474l-.001-33.747Zm5.555 5.713v22.345h4.19c1.788 0 3.091-.165 3.892-.502a4.66 4.66 0 0 0 1.977-1.533c.517-.684.941-1.76 1.279-3.237.336-1.469.501-3.411.501-5.822 0-2.499-.172-4.47-.519-5.916-.344-1.439-.878-2.577-1.608-3.402-.729-.834-1.607-1.376-2.651-1.634-.785-.205-2.291-.299-4.527-.299h-2.534Zm22.97 10.349c-.561-3.983-.437-7.34.382-10.082.813-2.74 2.082-4.879 3.8-6.406 1.719-1.527 3.929-2.481 6.632-2.862 3.917-.552 7.312.494 10.203 3.142 2.882 2.649 4.717 6.74 5.494 12.271.784 5.587.091 10.143-2.077 13.654-1.901 3.109-4.814 4.931-8.746 5.484-3.963.559-7.279-.38-9.957-2.803-3.051-2.777-4.963-6.912-5.731-12.398Zm5.654-1.026c.54 3.844 1.674 6.62 3.397 8.338 1.731 1.716 3.668 2.426 5.827 2.123 2.168-.305 3.829-1.515 4.99-3.622 1.162-2.108 1.459-5.133.904-9.085-.543-3.874-1.636-6.641-3.288-8.305-1.643-1.657-3.591-2.327-5.837-2.01-2.245.316-3.947 1.506-5.091 3.572-1.152 2.074-1.452 5.068-.902 8.989Zm29.019 12.453 21.359-6.949-1.755-5.41-14.955 4.865 7.363-26.329-1.634-5.037-19.237 6.259 1.764 5.433 12.258-3.99-7.057 25.314 1.894 5.844Zm50.77-20.526-5.45 2.662-5.529-5.832-9.917 4.843 1.313 7.892-5.332 2.603-5.104-35.052 5.31-2.595 24.709 25.479Zm-15.073-7.49-8.897-9.591 2.12 12.901 6.777-3.31ZM81.109 244.366l-33.677-1.178.194-5.567 33.678 1.178-.195 5.567Zm-.208-11.037-33.283-5.279.85-5.37 23.994-7.658-22.225-3.525.813-5.137 33.282 5.279-.877 5.549-23.446 7.562 21.705 3.443-.813 5.136Zm-27.207-35.845 2.463-9.889c.622-2.5 1.375-4.32 2.247-5.454.873-1.134 2.109-2.073 3.7-2.81 1.585-.746 3.514-1.155 5.776-1.246 2.269-.082 4.963.268 8.1 1.051 2.831.707 5.203 1.639 7.137 2.802 1.926 1.161 3.376 2.39 4.356 3.68.973 1.288 1.592 2.697 1.862 4.245.27 1.55.137 3.411-.41 5.607l-2.534 10.178-32.697-8.164Zm6.879-4.016 21.65 5.406 1.014-4.071c.433-1.739.587-3.044.454-3.904a4.679 4.679 0 0 0-1.006-2.292c-.537-.667-1.478-1.339-2.826-2.025-1.343-.684-3.183-1.313-5.52-1.896-2.42-.605-4.373-.915-5.857-.928-1.477-.013-2.71.23-3.686.74-.983.507-1.72 1.229-2.224 2.182-.388.712-.844 2.152-1.384 4.326l-.615 2.462Zm33.618-14.483 9.864-18.579-5.016-2.67-7.252 13.659-8.098-4.312 6.52-12.28-5.01-2.667-6.52 12.279-6.594-3.511 7.017-13.215-5.037-2.682-9.628 18.135 29.754 15.843Zm12.92-22.371-26.912-20.309 5.397-7.173c2.012-2.673 3.456-4.319 4.332-4.947 1.4-.999 3.102-1.406 5.098-1.239 2.002.173 4.07 1.066 6.214 2.683 1.949 1.471 3.299 3.07 4.063 4.797.763 1.727.99 3.344.692 4.852-.293 1.499-1.455 3.604-3.485 6.303l-2.2 2.924 10.151 7.66-3.35 4.449Zm-19.009-21.321 7.632 5.76 1.857-2.466c1.246-1.656 1.978-2.865 2.195-3.636.212-.765.16-1.572-.164-2.407-.32-.84-.918-1.587-1.802-2.253-.89-.671-1.795-1.05-2.694-1.119-.913-.068-1.683.108-2.33.525-.642.421-1.658 1.562-3.06 3.426l-1.634 2.17Zm34.672.783 14.595-15.136-4.086-3.952-10.732 11.129-6.597-6.38 9.646-10.005-4.08-3.946-9.648 10.004-5.373-5.196 10.382-10.767-4.102-3.968-14.248 14.775 24.243 23.442Zm18.51-18.122-20.746-26.593 4.278-3.347L147.578 98.8l-13.854-17.758 4.093-3.203 20.747 26.593-4.42 3.459-22.297-10.483 13.53 17.343-4.093 3.202Zm6.048-45.598 16.338 29.516 9.161-5.085c1.976-1.097 3.425-2.27 4.373-3.524.948-1.253 1.555-2.669 1.832-4.26.272-1.598.182-3.496-.284-5.7-.47-2.21-1.406-4.582-2.822-7.14-1.566-2.83-3.15-5.041-4.756-6.648-1.61-1.594-3.224-2.728-4.85-3.38-1.623-.662-3.151-.927-4.575-.793-1.424.135-3.266.825-5.517 2.075l-8.9 4.94Zm40.918 17.148-12.623-31.29 5.157-2.087 12.624 31.29-5.158 2.087Zm10.539-3.983 20.297-5.445-1.471-5.495-14.922 4.005-2.374-8.873 13.413-3.6-1.468-5.486-13.414 3.599L196.917 57l14.438-3.874-1.478-5.518-19.81 5.316 8.722 32.597Zm24.933-5.647-2.938-33.619 5.41-.474 13.223 21.462-1.96-22.449 5.174-.453 2.936 33.618-5.588.49-12.999-20.953 1.916 21.923-5.174.455Zm33.995-1.789 2.441-27.929-8.176-.715.497-5.691 21.87 1.916-.499 5.69-8.151-.714-2.438 27.928-5.544-.485Zm17.362 1.636 6.43-33.128 20.132 3.92-1.087 5.607-14.672-2.856-1.425 7.343 13.632 2.653-1.083 5.577-13.633-2.653-1.748 9.015 15.164 2.952-1.083 5.584-20.627-4.014Zm36.044 7.17 18.844-27.977 9.736 6.578c2.492 1.682 4.103 3.141 4.832 4.363.729 1.221 1.02 2.688.869 4.386-.149 1.711-.811 3.424-1.973 5.15-1.474 2.188-3.184 3.602-5.13 4.23-1.954.624-4.009.458-6.163-.503.507 1.383.803 2.713.877 3.995.081 1.284-.058 3.4-.412 6.345l-.901 7.334-5.502-3.717.745-8.358c.277-3.008.387-4.943.325-5.79-.058-.844-.265-1.534-.602-2.074-.34-.533-1.044-1.16-2.111-1.882l-.957-.646-7.866 11.68-4.611-3.113Zm15.489-13.032 3.434 2.319c2.094 1.415 3.49 2.225 4.185 2.429.695.204 1.406.145 2.141-.174.729-.322 1.416-.949 2.038-1.874.601-.892.901-1.731.914-2.51a3.271 3.271 0 0 0-.7-2.094c-.332-.432-1.543-1.346-3.611-2.742l-3.623-2.448-4.778 7.094Zm8.483 27.037 4.666 3.034 18.352-28.303-4.665-3.034-18.353 28.303Zm14.711 9.88 11.25-33.31 4.955 3.475-8.587 24.474 19.841-16.582 4.857 3.407-27.419 21.97-4.897-3.434Zm30.329 27.503 16.561-31.405-4.105-4.257-31.71 15.695 4.12 4.272 7.088-3.687 7.664 7.946-3.831 7.067 4.213 4.369Zm29.03-17.747 5.982 8.244c1.512 2.086 2.421 3.833 2.727 5.232.306 1.399.231 2.949-.228 4.644-.449 1.695-1.375 3.439-2.76 5.232-1.394 1.792-3.394 3.635-6.009 5.538-2.361 1.718-4.599 2.938-6.732 3.675-2.127.732-3.997 1.054-5.615.977a9.673 9.673 0 0 1-4.443-1.3c-1.359-.79-2.697-2.088-4.027-3.919l-6.156-8.486 27.261-19.837Zm.207 64.718-2.848-5.363 5.627-5.737-5.18-9.754-7.828 1.588-2.784-5.245 34.804-6.332 2.773 5.225-24.564 25.618Zm6.947-15.349 9.259-9.238-12.799 2.571 3.54 6.667Zm-5.223 22.441 1.749 5.725 35.113-.406-1.735-5.68-25.826.834 21.811-13.991-1.77-5.793-29.342 19.311Zm5.339 17.692 33.37-4.697.774 5.517-33.37 4.695-.774-5.515Zm3.837 35.874-.528-6.05 7.418-3.079-.962-11.006-7.827-1.602-.517-5.917 34.508 7.789.515 5.895-32.607 13.97Zm12.383-11.41 12.129-4.879L432 226.977l.655 7.521Zm-25.39-106.107 1.487 2.053c1.315 1.812 2.125 3.087 2.419 3.843.406.998.484 2.029.241 3.11-.239 1.075-.844 2.178-1.804 3.302-.965 1.131-2.457 2.43-4.475 3.898-1.949 1.417-3.614 2.425-4.999 3.016-1.392.595-2.51.884-3.366.866a4.645 4.645 0 0 1-2.401-.7c-.743-.451-1.641-1.409-2.693-2.858l-2.463-3.395 18.054-13.135Zm-17.206-19.307-6.358 11.434-5.237-5.431 11.595-6.003ZM154.785 74.657l10.817 19.545 3.664-2.035c1.566-.869 2.625-1.645 3.161-2.33a4.647 4.647 0 0 0 .987-2.298c.123-.85-.028-1.997-.447-3.454-.417-1.448-1.213-3.225-2.38-5.335-1.209-2.185-2.315-3.826-3.317-4.923-.999-1.09-2.018-1.827-3.053-2.195-1.042-.374-2.073-.422-3.112-.142-.784.202-2.147.852-4.103 1.937l-2.217 1.23Z" clip-rule="evenodd"/></svg>