<svg width="500" height="500" viewBox="0 0 500 500" fill="none" xmlns="http://www.w3.org/2000/svg">
<path fill-rule="evenodd" clip-rule="evenodd" d="M242.77 495.992L250.344 500L257.929 495.981C300.582 473.422 361.724 432.085 410.728 363.348C469.475 280.951 496.084 180.446 489.825 64.6365L488.993 49.3021H473.638C450.194 49.3021 428.909 37.4108 416.699 17.5132L405.959 0L391.427 14.5224C374.119 31.8198 351.107 41.3472 326.636 41.3472C302.154 41.3472 279.143 31.8198 261.825 14.5018L250.365 3.0422L238.905 14.5018C221.598 31.8095 198.576 41.3472 174.084 41.3472C149.613 41.3472 126.601 31.8198 109.293 14.5224L94.7606 0L84.0204 17.5132C71.8105 37.4211 50.5254 49.3021 27.082 49.3021H11.7271L10.8946 64.6365C4.63547 180.446 31.2444 280.951 89.9815 363.348C138.996 432.095 200.128 473.422 242.77 495.992ZM269.102 290.819L269.225 291.105C271.023 295.299 268.361 299.009 266.398 297.066L266.594 297.354C264.641 295.412 227.507 260.909 227.507 260.909C225.894 259.399 227.127 255.534 230.55 255.534C235.031 255.534 235.401 254.887 235.082 252.173L234.363 246.038L205.4 219.028C202.132 226.181 202.132 226.181 203.9 230.313C205.698 234.506 203.047 238.227 201.094 236.274C199.141 234.331 185.03 221.299 185.03 221.299C183.426 219.788 184.66 215.924 188.082 215.924H188.158C192.575 215.924 193.57 215.924 195.194 212.368C204.229 192.631 204.274 192.532 204.273 192.532C204.272 192.531 204.224 192.631 213.345 172.696C215.092 168.883 214.146 164.453 213.15 160.507L212.43 157.66L212.43 157.659L211.711 154.813C210.395 149.602 213.704 146.601 217.651 150.547L256.963 187.177C259.594 189.634 258.433 193.755 256.748 194.598C256.653 194.645 256.563 194.69 256.476 194.734C254.86 195.542 254.619 195.662 254.784 197.311L263.757 273.428C264.573 280.329 267.038 286.038 268.803 290.125L268.803 290.125C268.884 290.313 268.964 290.498 269.041 290.679L269.102 290.819ZM224.712 176.899L209.419 210.312L232.739 232.05L227.024 183.57C226.531 179.829 226.192 178.421 224.712 176.899ZM160.559 133.302C152.953 134.473 152.779 136.93 153.036 140.424C153.848 151.812 151.175 157.331 143.056 157.331C132.994 157.331 128.328 147.074 129.428 108.573C129.633 101.358 133.354 94.8733 140.517 94.8733C147.681 94.8733 150.929 103.743 152.44 112.808C153.025 116.261 154.423 118.759 162.029 119.93C169.603 121.092 170.878 118.142 170.785 114.956C166.366 87.7919 152.306 75.9828 133.261 75.9828C112.315 75.9828 95.3264 91.6769 95.3264 123.137C95.3264 154.597 112.315 170.291 133.261 170.291C150.107 170.291 162.09 163.127 169.336 139.818C169.984 136.251 169.295 131.955 160.559 133.302ZM348.211 280.55C346.248 281.124 343.964 281.791 343.964 284.672V346.965C343.964 352.731 346.904 358.969 349.278 363.728C351.673 368.527 348.034 373.553 344.088 369.607L310.726 338.403C307.602 335.279 308.959 331.528 310.983 330.921L311.114 330.882C311.211 330.854 311.308 330.826 311.407 330.797C313.368 330.229 315.68 329.559 315.68 326.666V264.383C315.68 258.618 312.741 252.379 310.367 247.62C307.972 242.81 311.61 237.795 315.557 241.742L348.918 272.934C352.043 276.059 350.686 279.81 348.661 280.417L348.571 280.444L348.46 280.477C348.384 280.499 348.306 280.522 348.229 280.544L348.217 280.548L348.211 280.55ZM91.9856 76.0958C91.9856 80.7928 88.1829 84.5955 83.486 84.5955C78.7994 84.5955 74.9863 80.7928 74.9863 76.0958C74.9863 71.3989 78.7994 67.5962 83.486 67.5962C88.1829 67.5962 91.9856 71.4092 91.9856 76.0958ZM181.905 176.201C186.602 176.201 190.405 172.398 190.405 167.701C190.405 163.004 186.602 159.201 181.905 159.201C177.219 159.201 173.406 163.004 173.406 167.701C173.406 172.398 177.209 176.201 181.905 176.201ZM296.975 267.148C296.975 271.845 293.172 275.648 288.475 275.648C283.778 275.648 279.975 271.835 279.975 267.148C279.975 262.451 283.778 258.648 288.475 258.648C293.172 258.648 296.975 262.451 296.975 267.148ZM371.776 353.337C376.462 353.337 380.275 349.534 380.275 344.837C380.275 340.151 376.473 336.338 371.776 336.338C367.089 336.338 363.276 340.14 363.276 344.837C363.276 349.534 367.079 353.337 371.776 353.337ZM473.638 65.51C443.669 65.51 417.419 49.6926 402.887 25.9923C360.758 68.0897 292.473 68.0795 250.366 25.9614C228.022 48.3052 198.319 58.7987 169.048 57.442L429.64 300.448C459.794 239.851 478.89 162.758 473.638 65.51ZM342.772 416.114C309.596 446.906 276.132 467.677 250.345 481.315C175.605 441.767 36.3734 339.74 26.7432 121.421L342.772 416.114Z" fill="white"/>
</svg>
