<svg width="500" height="500" viewBox="0 0 500 500" fill="none" xmlns="http://www.w3.org/2000/svg">
<path d="M250.344 500L242.77 495.992C200.128 473.422 138.996 432.095 89.9815 363.348C31.2444 280.951 4.63547 180.446 10.8946 64.6365L11.7271 49.3021H27.082C50.5254 49.3021 71.8105 37.4211 84.0204 17.5132L94.7606 0L109.293 14.5224C126.601 31.8198 149.613 41.3472 174.084 41.3472C198.576 41.3472 221.598 31.8095 238.905 14.5018L250.365 3.0422L261.825 14.5018C279.143 31.8198 302.154 41.3472 326.636 41.3472C351.107 41.3472 374.119 31.8198 391.427 14.5224L405.959 0L416.699 17.5132C428.909 37.4108 450.194 49.3021 473.638 49.3021H488.993L489.825 64.6365C496.084 180.446 469.475 280.951 410.728 363.348C361.724 432.085 300.582 473.422 257.929 495.981L250.344 500Z" fill="white"/>
<path d="M473.638 65.51C443.669 65.51 417.419 49.6927 402.887 25.9923C360.758 68.0897 292.473 68.0795 250.366 25.9614C228.022 48.3052 198.319 58.7987 169.048 57.442L429.64 300.448C459.794 239.851 478.89 162.758 473.638 65.51Z" fill="#ED1C24"/>
<path d="M250.345 481.315C276.132 467.677 309.596 446.906 342.772 416.114L26.7432 121.421C36.3734 339.74 175.605 441.767 250.345 481.315Z" fill="#ED1C24"/>
<path d="M269.224 291.105C267.457 286.974 264.641 280.9 263.757 273.428L254.784 197.311C254.61 195.574 254.887 195.533 256.747 194.598C258.433 193.755 259.594 189.634 256.963 187.177L217.651 150.548C213.704 146.601 210.395 149.602 211.71 154.813C213.149 160.507 211.71 154.813 213.149 160.507C214.146 164.453 215.092 168.883 213.345 172.696C195.194 212.368 213.355 172.696 195.194 212.368C193.56 215.945 192.563 215.924 188.082 215.924C184.66 215.924 183.426 219.788 185.03 221.299C185.03 221.299 199.141 234.331 201.094 236.274C203.046 238.227 205.698 234.506 203.899 230.313C202.132 226.181 202.132 226.181 205.4 219.028L234.362 246.038C234.362 246.038 234.362 246.038 235.082 252.173C235.401 254.887 235.031 255.534 230.549 255.534C227.127 255.534 225.894 259.399 227.507 260.909C227.507 260.909 264.641 295.412 266.593 297.354L266.398 297.066C268.361 299.009 271.023 295.299 269.224 291.105ZM209.419 210.312L224.712 176.9C226.192 178.421 226.531 179.829 227.024 183.57L232.739 232.05L209.419 210.312Z" fill="black"/>
<path d="M160.559 133.302C152.953 134.473 152.779 136.93 153.035 140.424C153.847 151.812 151.175 157.331 143.056 157.331C132.994 157.331 128.328 147.074 129.428 108.574C129.633 101.359 133.354 94.8733 140.517 94.8733C147.681 94.8733 150.929 103.743 152.439 112.808C153.025 116.261 154.423 118.759 162.028 119.93C169.603 121.092 170.878 118.142 170.785 114.956C166.366 87.792 152.306 75.9829 133.261 75.9829C112.315 75.9829 95.3262 91.677 95.3262 123.137C95.3262 154.597 112.315 170.291 133.261 170.291C150.106 170.291 162.09 163.128 169.336 139.818C169.983 136.251 169.295 131.955 160.559 133.302Z" fill="black"/>
<path d="M343.965 284.672C343.965 281.568 346.616 281.034 348.662 280.417C350.686 279.81 352.043 276.059 348.919 272.935L315.557 241.742C311.61 237.795 307.972 242.811 310.367 247.621C312.741 252.379 315.68 258.618 315.68 264.384V326.667C315.68 329.77 313.019 330.315 310.984 330.921C308.959 331.528 307.602 335.279 310.727 338.404L344.088 369.607C348.035 373.553 351.673 368.528 349.278 363.728C346.904 358.969 343.965 352.731 343.965 346.965V284.672Z" fill="black"/>
<path d="M91.9856 76.0958C91.9856 80.7928 88.1829 84.5955 83.486 84.5955C78.7994 84.5955 74.9863 80.7928 74.9863 76.0958C74.9863 71.3989 78.7994 67.5962 83.486 67.5962C88.1829 67.5962 91.9856 71.4092 91.9856 76.0958Z" fill="black"/>
<path d="M190.405 167.701C190.405 172.398 186.602 176.201 181.905 176.201C177.209 176.201 173.406 172.398 173.406 167.701C173.406 163.004 177.219 159.201 181.905 159.201C186.602 159.201 190.405 163.004 190.405 167.701Z" fill="black"/>
<path d="M296.975 267.148C296.975 271.845 293.172 275.648 288.475 275.648C283.778 275.648 279.976 271.835 279.976 267.148C279.976 262.451 283.778 258.648 288.475 258.648C293.172 258.648 296.975 262.451 296.975 267.148Z" fill="black"/>
<path d="M380.275 344.838C380.275 349.534 376.462 353.337 371.776 353.337C367.079 353.337 363.276 349.534 363.276 344.838C363.276 340.141 367.089 336.338 371.776 336.338C376.472 336.338 380.275 340.151 380.275 344.838Z" fill="black"/>
</svg>
