<svg width="500" height="500" viewBox="0 0 500 500" fill="none" xmlns="http://www.w3.org/2000/svg">
<path d="M363.982 109.791H334.669V133.954L385.367 102.59V31.054H372.553V101.243V109.791H363.982ZM446.799 64.5719L446.665 64.6614L461.702 55.3593V31.054H446.799V64.5719ZM461.702 65.2679L70.679 307.172L113.718 378.775L461.702 163.473V65.2679ZM461.702 173.351L446.799 182.571V269.335L461.702 244.764V173.351ZM385.367 220.583L334.669 251.955V454.177L385.367 370.603V220.583ZM273.221 289.97L220.366 322.675V468.94H273.221V289.97ZM158.94 360.68L118.044 385.982L158.94 454.029V360.68ZM108.232 274.049L158.94 242.677V109.791H131.754H123.18V101.243V31.054H108.232V274.049ZM220.366 109.791V204.676L273.221 171.968V109.791H220.366ZM46.8099 31.054H31.8973V242.638L46.8099 267.448V31.054ZM334.669 101.243H363.982V22.4941H385.367H446.799H470.316V50.0307V59.9434V158.146V168.025V247.152L330.537 477.516H273.221H220.366H163.062L23.3029 245.007V22.4941H46.8099H108.232H131.754V101.243H158.94H220.366H273.221H334.669ZM434.86 168.472C438.92 168.472 442.224 165.164 442.224 161.1C442.224 157.034 438.92 153.729 434.86 153.729C430.798 153.729 427.475 157.034 427.475 161.1C427.475 165.164 430.798 168.472 434.86 168.472ZM136.854 351.87L145.961 346.272L113.956 294.136L104.842 299.733L136.854 351.87ZM485.028 8.55288H350.742V81.4239V90.006H342.158H251.44H242.164H151.447H142.863V81.4239V8.55288H8.57983V243.326L157.693 491.424H246.432H247.152H335.887L485.028 243.326V8.55288ZM493.587 8.26749e-06V245.717L340.738 500H247.152H246.432H152.88L0 245.717V8.26749e-06H151.447V81.4239H242.164H251.44H342.158V8.26749e-06H493.587ZM189.896 259.866L195.762 287.149L211.699 277.364L190.096 259.754L189.896 259.866ZM191.699 318.191L179.675 253.757L189.398 247.816L241.52 287.609L231.732 293.626L218.359 282.822L197.541 295.597L201.132 312.408L191.699 318.191ZM158.74 338.342C162.808 338.342 166.117 335.019 166.117 330.965C166.117 326.882 162.808 323.564 158.74 323.564C154.681 323.564 151.368 326.882 151.368 330.965C151.368 335.019 154.681 338.342 158.74 338.342ZM247.913 284.031C252.005 284.031 255.293 280.732 255.293 276.657C255.293 272.577 252.005 269.285 247.913 269.285C243.874 269.285 240.59 272.577 240.59 276.657C240.59 280.732 243.874 284.031 247.913 284.031ZM310.055 247.237C322.698 239.463 326.225 225.402 319.287 212.491L310.395 217.96C314.327 226.01 313.607 234.793 305.489 239.766C294.314 246.652 283.576 239.637 277.452 229.639C271.313 219.635 269.919 206.898 281.091 200.044C288.701 195.379 295.268 197.375 300.447 202.415L309.598 196.821C301.588 186.242 288.32 185.456 276.515 192.593C260.886 202.182 259.167 220.344 268.345 235.249C277.467 250.148 294.43 256.824 310.055 247.237ZM403.433 189.884C416.046 182.159 419.587 168.077 412.664 155.142L403.733 160.611C407.68 168.686 406.94 177.487 398.837 182.445C387.665 189.323 376.952 182.304 370.794 172.309C364.655 162.311 363.276 149.573 374.445 142.731C382.044 138.058 388.582 140.056 393.809 145.114L402.935 139.493C394.921 128.923 381.668 128.129 369.85 135.264C354.243 144.859 352.52 163.03 361.659 177.915C370.822 192.834 387.788 199.506 403.433 189.884ZM333.636 219.272C333.636 215.19 336.924 211.899 340.997 211.899C345.055 211.899 348.373 215.19 348.373 219.272C348.373 223.322 345.055 226.622 340.997 226.622C336.924 226.622 333.636 223.322 333.636 219.272Z" fill="white"/>
</svg>
