<svg width="495" height="495" viewBox="0 0 495 495" fill="none" xmlns="http://www.w3.org/2000/svg">
<g clip-path="url(#clip0_1146_5193)">
<path fill-rule="evenodd" clip-rule="evenodd" d="M493.9 214.6C495.5 226.3 492 237 483.4 247.3C489.6 254.5 495.7 264.8 494 279.5C492.2 293.8 484.2 302.3 476 308C480.8 316.1 482.9 328.2 477.1 342.3C471.2 356.5 460.2 362.8 451.6 365.6C453.6 375.3 453.3 387.4 444.6 398.7C437.3 408 427.3 413.1 413.8 414.3C413.1 424.3 410.1 435.6 398.7 444.6C389.4 452 379.3 454.4 365.9 452C363.5 461.3 356.5 471.4 342.4 477.2C338.1 479 333.6 480 329.1 480.3C320.4 480.8 313 478.4 307.8 475.8C302.5 483.9 293.8 492.1 279.6 494C278.925 494.135 278.296 494.179 277.651 494.224C277.34 494.246 277.025 494.267 276.7 494.3C266.1 495 256.2 491.4 247.7 483.8C242.3 488.6 234 493.7 222.7 494.4C220 494.5 217.3 494.5 214.6 494.1C199.5 492.1 190.2 484.2 185.5 475.8C180.9 477.9 175.3 479.9 169.1 480.3C163.4 480.6 157.6 479.6 151.9 477.2C138.6 471.5 132.7 461.3 129.5 451.9C116.3 454.2 105 451.9 95.7001 444.8C86.3001 437.7 81.1001 427.3 80.4001 414.7C71.3001 414.1 59.0001 410.9 49.7001 398.8C40.4001 386.7 39.4001 374.5 41.9001 365.3C32.5001 361.8 22.6001 355.7 17.2001 342.4C11.7001 328.7 14.9001 317.1 19.0001 308.6C8.00011 300.9 1.90011 291.4 0.40011 279.7C-1.19989 268 2.30011 257.3 10.7001 247C4.50011 239.8 -1.59989 229.4 0.20011 214.8C1.90011 200.5 9.90011 192 18.1001 186.3C13.3001 178.1 11.1001 166 17.0001 151.9C22.9001 137.7 33.9001 131.4 42.5001 128.6C39.9001 116.3 42.3001 104.9 49.5001 95.6C56.7001 86.3 66.8001 81.2 80.3001 80C81.0001 70.1 84.0001 58.7 95.4001 49.7C104.8 42.4 114.9 39.9 128.3 42.3C130.7 33.1 137.7 23 151.8 17.2C156.1 15.4 160.5 14.4 165 14.1C173.7 13.6 181.1 16 186.3 18.6C193.1 8.2 202.7 2 214.5 0.4C226.4 -1.2 237.2 2.4 246.4 10.6C251.7 5.9 260.1 0.8 271.4 0.1C274 -0.1 276.8 0 279.5 0.4C294.6 2.3 303.9 10.2 308.6 18.6C313.2 16.5 318.8 14.5 325 14.1C330.7 13.7 336.5 14.8 342.2 17.2C355.6 22.8 361.4 33 364.6 42.5C378 40.2 389.2 42.5 398.5 49.6C407.9 56.8 413.2 67.1 413.8 79.7C422.9 80.3 435.2 83.5 444.5 95.6C453.8 107.7 454.9 120 452.3 129.1C461.7 132.5 471.6 138.6 477 151.9C482.5 165.6 479.4 177.2 475.2 185.7C486.2 193.4 492.3 202.9 493.9 214.6ZM488.3 278.8C488.496 277.219 488.587 275.696 488.583 274.229C488.569 267.134 486.366 261.359 483.229 256.499C481.047 253.091 478.413 250.117 475.75 247.449C482.874 240.136 488.593 231.348 488.609 220.061C488.613 218.552 488.513 216.999 488.3 215.4C488.512 217 488.612 218.553 488.609 220.061C488.582 231.29 482.841 240.083 475.7 247.4C475.717 247.416 475.733 247.433 475.75 247.449C475.733 247.466 475.717 247.483 475.7 247.5C478.38 250.144 481.034 253.097 483.229 256.499C486.362 261.391 488.563 267.177 488.583 274.229C488.586 275.695 488.495 277.218 488.3 278.8ZM287.315 8.00012C284.739 7.08407 281.902 6.39755 278.8 5.99984C271.15 4.99984 264.575 6.44997 259.163 9C264.575 6.45 271.15 5 278.8 6C281.902 6.39771 284.739 7.08407 287.315 8.00012ZM246.5 18.5998C240 11.3998 229.7 4.09984 215.3 5.99984C210.8 6.5936 206.925 7.94919 203.59 9.79785C206.925 7.94922 210.8 6.59375 215.3 6C229.7 4.1 240 11.4 246.5 18.6C246.5 18.5999 246.5 18.5999 246.5 18.5998ZM188.5 26.2998C181 21.2998 168.3 16.5998 154 22.4998C153.43 22.7342 152.872 22.9768 152.328 23.227C152.872 22.9768 153.43 22.7344 154 22.5C168.3 16.6 181 21.3 188.5 26.3C188.5 26.2999 188.5 26.2999 188.5 26.2998ZM133.1 49.2998C121.7 46.2998 110.1 45.5998 99.0002 54.2998C97.5501 55.4249 96.2579 56.5953 95.1068 57.8021C96.2579 56.5953 97.5501 55.425 99.0001 54.3C110.1 45.6 121.7 46.3 133.1 49.3C133.1 49.2999 133.1 49.2999 133.1 49.2998ZM86.0062 81.1972C85.9282 82.6536 85.9001 84.0917 85.9001 85.4998C75.1188 85.6873 63.986 88.0722 55.7152 97.2686C63.986 88.0723 75.1189 85.6875 85.9001 85.5C85.9001 85.4999 85.9001 85.4999 85.9001 85.4998C85.9001 85.4998 85.9002 85.4998 85.9002 85.4998C85.9002 84.0917 85.9282 82.6536 86.0062 81.1972ZM54.1003 99.1998C54.1002 99.1998 54.1002 99.1998 54.1002 99.1998C52.1533 101.716 50.6945 104.293 49.6358 106.883C50.6944 104.293 52.1532 101.716 54.1001 99.2C54.1002 99.1999 54.1002 99.1999 54.1003 99.1998ZM49.4151 107.438C45.9084 116.508 47.2267 125.68 49.6001 132.8C46.2626 133.437 42.4329 134.595 38.6384 136.548C42.4329 134.595 46.2626 133.438 49.6001 132.8C49.6001 132.8 49.6001 132.8 49.6001 132.8C49.6001 132.8 49.6001 132.8 49.6002 132.8C47.2268 125.68 45.9084 116.508 49.4151 107.438ZM21.0012 178.857C22.2774 182.436 24.2006 185.496 26.5001 187.9C26.5001 187.9 26.5001 187.9 26.5002 187.9C24.2007 185.496 22.2774 182.436 21.0012 178.857ZM8.04545 231.999C10.4795 237.994 14.5084 242.808 18.6001 246.9C18.6001 246.9 18.6001 246.9 18.6002 246.9C14.5085 242.808 10.4795 237.994 8.04545 231.999ZM246.4 56.6001C141.4 56.6001 55.8003 142.2 55.8003 247.2C55.8003 352.2 141.4 437.8 246.4 437.8C351.3 437.8 437 352.2 437 247.2C437 142.2 351.3 56.6001 246.4 56.6001ZM334.2 237.1H220.7V178.6H334.1C326.9 186.7 322.6 196.8 322.6 207.9C322.6 218.9 327 229.1 334.2 237.1ZM378.6 255.2V256C378.6 284.8 368.9 311.4 352.6 332.9H220.7V255.2H378.6ZM246.4 426.5C147.6 426.5 67.0003 345.9 67.0003 247.1C67.0003 163.4 124.8 92.8001 202.6 73.2001V115.1H162.6C116.3 142.3 85.3003 191.4 85.3003 247.2C85.3003 278.9 95.3003 308.4 112.4 333H97.9003C101.6 339.2 105.6 345.3 110 351H127.1C130.5 354.6 134.2 358.1 137.9 361.4V379.9C143.6 384.6 149.7 388.9 156 392.8V375.1C164.4 380.6 173.4 385.4 182.9 389.3L190.7 373.1C178.1 368 166.4 361.2 156 353V350.9H335.9C321.8 363.5 305.1 373.1 286.5 378.8L294.3 395.1C320.4 386.6 343.4 371.1 360.8 350.9H375.6C380.2 345.2 384.4 339.2 388.2 332.9H374.2C388.2 310.5 396.4 284.2 396.4 256C396.4 249.6 396 243.3 395.2 237.1H373.1C354.9 235.8 340.5 223.2 340.5 207.9C340.5 192.6 355 179.9 373.3 178.6H390.7C387.4 172.4 383.8 166.3 379.7 160.6H220.7V133.1H355.1C347.4 126.3 339.1 120.3 330.1 115.1H220.7V69.6001C229.1 68.4001 237.7 67.7001 246.4 67.7001C345.2 67.7001 425.8 148.3 425.8 247C425.8 345.9 345.2 426.5 246.4 426.5ZM156 237.1V178.6H202.7V237.1H156ZM202.7 255.2V332.9H156V255.2H202.7ZM135.7 160.6C144.8 150 155.5 140.7 167.5 133.1H202.7V160.6H135.7ZM137.9 178.6V332.9H135C115.2 309.4 103.2 279.6 103.2 247.1C103.2 222.2 110.3 198.8 122.5 178.6H137.9Z" fill="white"/>
</g>
<defs>
<clipPath id="clip0_1146_5193">
<rect width="494.3" height="494.3" fill="white"/>
</clipPath>
</defs>
</svg>
