<svg width="495" height="495" viewBox="0 0 495 495" fill="none" xmlns="http://www.w3.org/2000/svg">
<g clip-path="url(#clip0_1146_5194)">
<path fill-rule="evenodd" clip-rule="evenodd" d="M475.7 247.4C483 254.7 490.1 264.3 488.3 278.8C486.6 292.8 478 300.5 467.8 306.5C474.3 313.3 477.9 325.7 471.9 340.2C466 354.5 453.5 359.9 444.7 361.6C447.8 370.9 449 383.7 440.2 395.2C431.8 406 419.9 408.7 408.4 408.8C408.4 419.1 406.9 431 395.3 440.1C384.2 448.8 372.6 448 361.2 445.1C361 454.6 354.9 465.9 340.3 471.9C326 477.8 313.3 473.1 305.8 468C301.4 476.7 293.4 486.4 279 488.3C264.6 490.2 254.3 483 247.7 475.7C241.8 482.5 230.7 490.3 215.4 488.3C199.8 486.3 191 476.9 188.3 467.9C178 473.7 167.1 477.5 154.1 471.9C140.6 466.1 136 455.1 133.4 445.1C122.2 448 110 448.4 99.1002 440.1C87.5002 431.3 85.5002 418.6 86.0002 408.8C77.0002 409.4 63.6002 407.4 54.1002 395.2C44.5002 382.7 44.8002 369.9 49.3002 361.6C38.0002 358.5 27.7002 353.4 22.4002 340.2C16.9002 326.6 21.2002 315.5 26.4002 306.6C16.5002 300.8 7.70017 292.5 6.00017 279C4.20017 265.4 10.5002 255.2 18.6002 246.9C11.3002 239.6 4.20017 230 6.00017 215.5C7.70017 201.5 16.3002 193.8 26.5002 187.9C19.9002 181 16.4002 168.7 22.4002 154.2C28.3002 139.9 40.7002 134.5 49.6002 132.8C46.5002 123.5 45.2002 110.7 54.1002 99.1998C62.5002 88.3998 74.4002 85.6998 85.9002 85.4998C85.9002 75.1998 87.4002 63.2998 99.0002 54.2998C110.1 45.5998 121.7 46.2998 133.1 49.2998C133.3 39.7998 139.4 28.4998 154 22.4998C168.3 16.5998 181 21.2998 188.5 26.2998C192.9 17.5998 200.9 7.89984 215.3 5.99984C229.7 4.09984 240 11.3998 246.5 18.5998C252.5 11.7998 263.5 3.99984 278.8 5.99984C294.4 7.99984 303.3 17.2998 305.9 26.3998C316.1 20.5998 327.1 16.7998 340.1 22.3998C353.6 28.0998 358.2 39.1998 360.8 49.1998C372 46.3998 384.2 45.8998 395.1 54.0998C406.6 62.8998 408.7 75.5998 408.2 85.3998C417.2 84.7998 430.6 86.7998 440 99.0998C449.6 111.5 449.4 124.4 444.8 132.7C456.2 135.8 466.5 141 471.8 154.1C477.2 167.7 472.9 178.8 467.8 187.7C477.7 193.6 486.5 201.8 488.3 215.4C490.1 228.9 483.8 239.1 475.7 247.4Z" fill="#7A1D2D"/>
<path fill-rule="evenodd" clip-rule="evenodd" d="M246.4 56.6001C141.4 56.6001 55.8003 142.2 55.8003 247.2C55.8003 352.2 141.4 437.8 246.4 437.8C351.3 437.8 437 352.2 437 247.2C437 142.2 351.3 56.6001 246.4 56.6001ZM334.2 237.1H220.7V178.6H334.1C326.9 186.7 322.6 196.8 322.6 207.9C322.6 218.9 327 229.1 334.2 237.1ZM378.6 255.2C378.6 255.5 378.6 255.7 378.6 256C378.6 284.8 368.9 311.4 352.6 332.9H220.7V255.2H378.6ZM246.4 426.5C147.6 426.5 67.0003 345.9 67.0003 247.1C67.0003 163.4 124.8 92.8001 202.6 73.2001V115.1H162.6C116.3 142.3 85.3003 191.4 85.3003 247.2C85.3003 278.9 95.3003 308.4 112.4 333H97.9003C101.6 339.2 105.6 345.3 110 351H127.1C130.5 354.6 134.2 358.1 137.9 361.4V379.9C143.6 384.6 149.7 388.9 156 392.8V375.1C164.4 380.6 173.4 385.4 182.9 389.3L190.7 373.1C178.1 368 166.4 361.2 156 353V350.9H335.9C321.8 363.5 305.1 373.1 286.5 378.8L294.3 395.1C320.4 386.6 343.4 371.1 360.8 350.9H375.6C380.2 345.2 384.4 339.2 388.2 332.9H374.2C388.2 310.5 396.4 284.2 396.4 256C396.4 249.6 396 243.3 395.2 237.1H373.1C354.9 235.8 340.5 223.2 340.5 207.9C340.5 192.6 355 179.9 373.3 178.6H390.7C387.4 172.4 383.8 166.3 379.7 160.6H220.7V133.1H355.1C347.4 126.3 339.1 120.3 330.1 115.1H220.7V69.6001C229.1 68.4001 237.7 67.7001 246.4 67.7001C345.2 67.7001 425.8 148.3 425.8 247C425.8 345.9 345.2 426.5 246.4 426.5ZM156 237.1V178.6H202.7V237.1H156ZM202.7 255.2V332.9H156V255.2H202.7ZM135.7 160.6C144.8 150 155.5 140.7 167.5 133.1H202.7V160.6H135.7ZM137.9 178.6V332.9H135C115.2 309.4 103.2 279.6 103.2 247.1C103.2 222.2 110.3 198.8 122.5 178.6H137.9Z" fill="white"/>
<path d="M483.4 247.3C492 237 495.5 226.3 493.9 214.6C492.3 202.9 486.2 193.4 475.2 185.7C479.4 177.2 482.5 165.6 477 151.9C471.6 138.6 461.7 132.5 452.3 129.1C454.9 120 453.8 107.7 444.5 95.6C435.2 83.5 422.9 80.3 413.8 79.7C413.2 67.1 407.9 56.8 398.5 49.6C389.2 42.5 378 40.2 364.6 42.5C361.4 33 355.6 22.8 342.2 17.2C336.5 14.8 330.7 13.7 325 14.1C318.8 14.5 313.2 16.5 308.6 18.6C303.9 10.2 294.6 2.3 279.5 0.4C276.8 0 274 -0.1 271.4 0.1C260.1 0.8 251.7 5.9 246.4 10.6C237.2 2.4 226.4 -1.2 214.5 0.4C202.7 2 193.1 8.2 186.3 18.6C181.1 16 173.7 13.6 165 14.1C160.5 14.4 156.1 15.4 151.8 17.2C137.7 23 130.7 33.1 128.3 42.3C114.9 39.9 104.8 42.4 95.4001 49.7C84.0001 58.7 81.0001 70.1 80.3001 80C66.8001 81.2 56.7001 86.3 49.5001 95.6C42.3001 104.9 39.9001 116.3 42.5001 128.6C33.9001 131.4 22.9001 137.7 17.0001 151.9C11.1001 166 13.3001 178.1 18.1001 186.3C9.90011 192 1.90011 200.5 0.20011 214.8C-1.59989 229.4 4.50011 239.8 10.7001 247C2.30011 257.3 -1.19989 268 0.40011 279.7C1.90011 291.4 8.00011 300.9 19.0001 308.6C14.9001 317.1 11.7001 328.7 17.2001 342.4C22.6001 355.7 32.5001 361.8 41.9001 365.3C39.4001 374.5 40.4001 386.7 49.7001 398.8C59.0001 410.9 71.3001 414.1 80.4001 414.7C81.1001 427.3 86.3001 437.7 95.7001 444.8C105 451.9 116.3 454.2 129.5 451.9C132.7 461.3 138.6 471.5 151.9 477.2C157.6 479.6 163.4 480.6 169.1 480.3C175.3 479.9 180.9 477.9 185.5 475.8C190.2 484.2 199.5 492.1 214.6 494.1C217.3 494.5 220 494.5 222.7 494.4C234 493.7 242.3 488.6 247.7 483.8C256.2 491.4 266.1 495 276.7 494.3C277.7 494.2 278.6 494.2 279.6 494C293.8 492.1 302.5 483.9 307.8 475.8C313 478.4 320.4 480.8 329.1 480.3C333.6 480 338.1 479 342.4 477.2C356.5 471.4 363.5 461.3 365.9 452C379.3 454.4 389.4 452 398.7 444.6C410.1 435.6 413.1 424.3 413.8 414.3C427.3 413.1 437.3 408 444.6 398.7C453.3 387.4 453.6 375.3 451.6 365.6C460.2 362.8 471.2 356.5 477.1 342.3C482.9 328.2 480.8 316.1 476 308C484.2 302.3 492.2 293.8 494 279.5C495.7 264.8 489.6 254.5 483.4 247.3ZM488.3 278.8C486.6 292.8 478 300.5 467.8 306.5C474.3 313.3 477.9 325.7 471.9 340.2C466 354.5 453.5 359.9 444.7 361.6C447.8 370.9 449 383.7 440.2 395.2C431.8 406 419.9 408.7 408.4 408.8C408.4 419.1 406.9 431 395.3 440.1C384.2 448.8 372.6 448 361.2 445.1C361 454.6 354.9 465.9 340.3 471.9C326 477.8 313.3 473.1 305.8 468C301.4 476.7 293.4 486.4 279 488.3C264.6 490.2 254.3 483 247.7 475.7C241.8 482.5 230.7 490.3 215.4 488.3C199.8 486.3 191 476.9 188.3 467.9C178 473.7 167.1 477.5 154.1 471.9C140.6 466.1 136 455.1 133.4 445.1C122.2 448 110 448.4 99.1001 440.1C87.5001 431.3 85.5001 418.6 86.0001 408.8C77.0001 409.4 63.6001 407.4 54.1001 395.2C44.5001 382.7 44.8001 369.9 49.3001 361.6C38.0001 358.5 27.7001 353.4 22.4001 340.2C16.9001 326.6 21.2001 315.5 26.4001 306.6C16.5001 300.8 7.70011 292.5 6.00011 279C4.20011 265.4 10.5001 255.2 18.6001 246.9C11.3001 239.6 4.20011 230 6.00011 215.5C7.70011 201.5 16.3001 193.8 26.5001 187.9C19.9001 181 16.4001 168.7 22.4001 154.2C28.3001 139.9 40.7001 134.5 49.6001 132.8C46.5001 123.5 45.2001 110.7 54.1001 99.2C62.5001 88.4 74.4001 85.7 85.9001 85.5C85.9001 75.2 87.4001 63.3 99.0001 54.3C110.1 45.6 121.7 46.3 133.1 49.3C133.3 39.8 139.4 28.5 154 22.5C168.3 16.6 181 21.3 188.5 26.3C192.9 17.6 200.9 7.9 215.3 6C229.7 4.1 240 11.4 246.5 18.6C252.5 11.8 263.5 4 278.8 6C294.4 8 303.3 17.3 305.9 26.4C316.1 20.6 327.1 16.8 340.1 22.4C353.6 28.1 358.2 39.2 360.8 49.2C372 46.4 384.2 45.9 395.1 54.1C406.6 62.9 408.7 75.6 408.2 85.4C417.2 84.8 430.6 86.8 440 99.1C449.6 111.5 449.4 124.4 444.8 132.7C456.2 135.8 466.5 141 471.8 154.1C477.2 167.7 472.9 178.8 467.8 187.7C477.7 193.6 486.5 201.8 488.3 215.4C490.1 229 483.8 239.2 475.7 247.5C483 254.7 490.1 264.2 488.3 278.8Z" fill="white"/>
</g>
<defs>
<clipPath id="clip0_1146_5194">
<rect width="494.3" height="494.3" fill="white"/>
</clipPath>
</defs>
</svg>
