<svg width="500" height="500" viewBox="0 0 500 500" fill="none" xmlns="http://www.w3.org/2000/svg">
<path fill-rule="evenodd" clip-rule="evenodd" d="M121.374 47.6688H118.974C100.501 47.6688 85.9344 44.1458 70.9737 40.8251C63.5057 39.1682 56.8897 36.5544 49.867 34.5085C46.3155 33.4744 43.3035 32.0652 39.9395 30.724C37.2323 29.6436 32.2817 27.3153 29.8585 26.7504C20.11 82.8356 17.3488 147.772 26.9799 205.213C30.1957 224.396 35.4496 248.545 41.4344 264.824C44.85 274.116 47.8358 282.937 51.4521 291.838C55.0955 300.81 58.88 308.901 63.1006 317.22C66.862 324.633 71.7462 334.299 76.2678 341.084C81.2184 348.512 85.6543 356.483 90.9267 363.454C101.614 377.589 111.779 391.805 124.202 404.236C130.455 410.491 136.458 416.498 142.71 422.754C146.052 426.096 148.827 428.513 152.313 431.664C155.449 434.501 159.419 437.415 162.25 440.24C167.544 445.522 176.623 451.918 182.864 456.654C190.042 462.1 197.539 466.614 204.57 471.972C211.291 477.096 219.725 481.883 227.146 486.422C234.597 490.979 242.995 495.978 250.594 500C252.538 498.308 259.266 494.768 262.021 493.259C265.918 491.124 269.878 488.758 273.697 486.422C281.127 481.878 289.564 477.118 296.273 471.972C303.072 466.759 310.819 461.918 317.773 456.79C324.01 452.194 332.964 445.677 338.417 440.408C344.653 434.383 351.417 429.474 357.79 423.097C364.043 416.841 370.046 410.835 376.299 404.579C388.305 392.567 399.46 377.655 409.63 363.855C414.871 356.746 419.166 349.194 424.164 341.7C429.299 334 432.761 325.821 437.389 317.896C441.245 311.291 446.129 300.084 449.093 292.569C452.467 284.021 456.183 274.696 459.186 265.63C465.28 247.232 470.167 226.999 473.641 206.363C475.268 196.695 477.431 183.657 477.835 173.52C478.29 162.076 479.897 150.56 479.897 138.546V121.742C479.897 106.274 479.187 86.6116 477.082 72.7753C476.692 70.2186 476.106 63.8148 476.119 61.0497C476.134 58.1704 475.142 52.6688 474.719 49.419C473.883 43.0168 471.328 33.4266 471.328 26.7488C469.926 26.7805 453.549 33.6573 450.205 34.7663C443.978 36.8306 434.027 40.4006 427.714 41.4116C419.536 42.7212 412.389 45.0025 403.14 45.9756C394.312 46.904 385.413 47.668 375.355 47.668H371.928C348.787 47.668 318.436 40.0734 302.915 32.3554C292.928 27.3893 284.355 23.709 275.196 17.9064C270.868 15.1629 266.711 12.1462 262.583 9.2638C261.259 8.33928 250.874 0 250.593 0C249.967 0 239.704 8.28448 238.052 9.40117C233.484 12.4881 229.384 15.2686 224.746 18.3802C215.622 24.5023 205.892 28.5292 195.523 33.381C176.375 42.3392 149.419 47.6688 121.374 47.6688Z" fill="white"/>
<path fill-rule="evenodd" clip-rule="evenodd" d="M250.25 486.968C256.243 485.571 287.382 464.453 294.193 459.946C301.248 455.274 308.017 449.987 314.829 444.928C321.245 440.166 328.856 434.385 334.658 429.102C340.906 423.415 347.191 418.268 353.162 412.292C358.384 407.068 366.517 399.874 370.763 394.237C375.816 387.529 381.941 381.992 387.216 375.033C392.433 368.148 397.31 361.552 402.494 354.653C419.35 332.216 440.622 289.802 449.519 259.386C471.042 185.795 468.421 99.4074 462.417 42.1816C459.315 42.9047 456.88 44.4775 453.849 45.2685C450.598 46.1159 447.908 47.1978 444.723 48.1409C438.421 50.0085 432.346 51.6762 425.879 53.2922C413.654 56.349 398.593 58.6418 383.583 58.6418H368.843C345.16 58.6418 319.278 50.9963 302.052 44.1935C293.627 40.8658 282.236 35.3364 274.722 30.7269C270.39 28.0698 266.427 25.784 262.383 22.8391C260.558 21.5101 251.597 14.5144 250.249 14.4033V486.968H250.25Z" fill="black"/>
<path fill-rule="evenodd" clip-rule="evenodd" d="M250.249 486.968V14.4043C246.199 17.1185 242.466 19.9306 238.46 22.8408C234.205 25.93 230.591 27.8879 226.051 30.6592C218.288 35.3983 207.494 40.7719 198.789 44.1914C189.75 47.7437 178.298 52.0892 167.714 53.9097C162.297 54.842 156.847 56.0351 150.589 57.009C145.994 57.7236 136.935 58.9862 131.999 58.9862H124.802C107.589 58.9862 92.8674 56.8547 78.3976 53.9738C71.0631 52.5129 64.6184 50.5728 57.8982 48.7631C54.1854 47.7637 40.6169 42.5245 38.4275 42.5245C29.6638 97.3865 30.8361 155.061 40.14 215.708C40.8585 220.389 42.52 225.567 43.4908 230.187C44.6924 235.904 45.4117 239.526 46.9528 244.557C48.3373 249.079 49.9888 253.985 51.0337 258.305C52.2468 263.322 54.0473 267.091 55.6131 271.556C56.9605 275.399 58.8605 280.625 60.5969 284.403C62.5131 288.569 63.9995 292.889 65.8508 296.978C67.723 301.115 69.5135 305.005 71.5601 309.1C78.8645 323.71 88.5573 341.633 97.9747 354.002C103.23 360.906 107.857 367.62 113.211 374.423C118.616 381.29 123.883 387.15 129.693 393.597C135.6 400.155 140.973 405.565 147.168 411.779C153.179 417.809 159.888 422.861 165.843 428.76C170.776 433.645 179.785 440.319 185.613 444.645C192.556 449.799 199.294 454.505 206.239 459.675C212.9 464.633 220.604 469.332 227.835 473.733C231.622 476.039 235.279 478.267 238.952 480.442C242.484 482.534 246.95 484.757 250.249 486.968Z" fill="#ED1C24"/>
<path fill-rule="evenodd" clip-rule="evenodd" d="M306.369 348.171V261.458H330.16C339.943 261.458 346.774 261.781 350.677 262.408C354.555 263.035 357.891 264.127 360.701 265.662C363.895 267.441 366.342 269.826 368.017 272.798C369.696 275.788 370.524 279.225 370.524 283.146C370.524 288.078 369.271 291.999 366.764 294.909C364.257 297.801 360.255 300.005 354.757 301.52C360.902 301.984 365.734 304.148 369.19 307.988C372.667 311.85 374.406 316.983 374.406 323.431C374.406 328.04 373.434 332.103 371.474 335.62C369.533 339.136 366.724 341.865 363.104 343.786C360.156 345.363 356.495 346.495 352.17 347.161C347.823 347.828 340.731 348.171 330.866 348.171L306.369 348.171ZM112.558 193.172V106.459H135.359L174.653 159.964V106.459H197.331V193.172H174.653L135.359 139.71V193.172H112.558ZM296.777 226.663C296.777 232.91 295.624 238.752 293.34 244.187C291.056 249.646 287.721 254.518 283.336 258.822C278.91 263.087 273.856 266.363 268.175 268.685C262.496 270.99 256.592 272.142 250.489 272.142C244.283 272.142 238.34 270.99 232.68 268.685C227.021 266.362 222.049 263.087 217.744 258.822C213.275 254.517 209.9 249.626 207.575 244.127C205.272 238.649 204.119 232.828 204.119 226.662C204.119 220.458 205.272 214.636 207.575 209.159C209.901 203.7 213.275 198.809 217.744 194.504C222.049 190.239 227.021 186.964 232.68 184.639C238.34 182.336 244.283 181.184 250.489 181.184C256.634 181.184 262.576 182.336 268.275 184.639C273.975 186.964 278.989 190.239 283.336 194.504C287.681 198.769 290.996 203.641 293.32 209.137C295.624 214.616 296.777 220.458 296.777 226.663ZM250.448 252.131C256.997 252.131 262.414 249.726 266.7 244.916C270.984 240.084 273.128 234.001 273.128 226.662C273.128 219.406 270.964 213.342 266.619 208.471C262.272 203.619 256.876 201.195 250.448 201.195C243.899 201.195 238.483 203.62 234.198 208.451C229.913 213.283 227.769 219.366 227.769 226.663C227.769 234.082 229.871 240.187 234.096 244.957C238.321 249.746 243.777 252.131 250.448 252.131ZM328.319 296.142H333.049C338.891 296.142 342.893 295.496 345.076 294.223C347.24 292.93 348.331 290.706 348.331 287.552C348.331 284.278 347.32 281.994 345.278 280.659C343.258 279.346 339.297 278.679 333.413 278.679H328.319V296.142ZM328.319 330.464H336.606C342.206 330.464 346.167 329.758 348.493 328.363C350.816 326.947 351.969 324.603 351.969 321.329C351.969 317.691 350.897 315.165 348.773 313.708C346.652 312.273 342.711 311.546 336.971 311.546H328.318L328.319 330.464Z" fill="white"/>
</svg>
