<svg width="500" height="500" viewBox="0 0 500 500" fill="none" xmlns="http://www.w3.org/2000/svg">
<path d="M248.423 25.1982C248.423 25.1982 221.129 57.2604 164.628 74.3316C108.125 91.4029 71.6073 85.6067 71.6073 85.6067C71.6073 85.6067 51.3787 205.513 106.59 323.152C161.801 440.79 249.245 480.318 249.245 480.318C249.245 480.318 336.762 440.79 391.974 323.152C447.184 205.513 426.88 85.6067 426.88 85.6067C426.88 85.6067 390.362 91.4069 333.86 74.3316C277.358 57.2604 248.423 25.1982 248.423 25.1982Z" fill="white"/>
<path d="M248.237 11.7695L241.701 19.4573C241.701 19.4573 216.36 49.4466 162.04 65.859C107.078 82.4637 72.9701 76.853 72.9701 76.853L64.3504 75.4902L62.9174 84.1802C62.9174 84.1802 41.9978 206.411 98.5452 326.896C154.96 447.097 245.582 488.37 245.582 488.37L249.248 490.026L252.912 488.37C252.912 488.37 343.607 447.1 400.022 326.896C456.571 206.408 435.576 84.1069 435.576 84.1069L434.146 75.4902L425.524 76.8468C425.524 76.8468 391.414 82.4657 336.454 65.859C282.087 49.4336 254.999 19.2434 254.999 19.2434L248.237 11.7695ZM248.54 37.4851C259.451 47.2873 284.007 66.4924 321.662 79.6457L87.206 238.755C71.2381 167.892 77.4855 109.593 79.4479 95.0213C93.973 95.8223 125.328 95.423 167.225 82.8113C210.224 69.8201 237.061 48.2105 248.54 37.4851ZM419.064 193.141C414.789 230.57 404.903 274.758 383.941 319.422C333.444 427.015 259.057 465.513 249.258 470.262C241.428 466.468 192.917 441.277 147.975 377.098L419.064 193.141Z" fill="#633B1B"/>
<path d="M200.969 267.73L219.815 262.469C223.115 272.736 223.363 281.802 220.561 289.667C217.759 297.531 212.08 304.263 203.523 309.86C192.936 316.786 181.868 318.862 170.32 316.088C158.772 313.314 148.894 305.654 140.687 293.109C132.006 279.839 128.69 267.292 130.74 255.467C132.789 243.642 139.398 234.076 150.565 226.771C160.318 220.391 170.126 218.091 179.989 219.871C185.844 220.907 191.765 224.023 197.753 229.218L184.308 243.449C180.661 239.933 176.56 237.956 172.003 237.52C167.446 237.084 163.029 238.265 158.751 241.064C152.841 244.931 149.433 250.188 148.528 256.838C147.623 263.487 150.278 271.562 156.492 281.061C163.086 291.141 169.595 297.134 176.02 299.04C182.444 300.947 188.557 300.002 194.358 296.207C198.637 293.409 201.427 289.641 202.73 284.906C204.033 280.171 203.446 274.445 200.969 267.73Z" fill="white"/>
<path d="M319.146 232.994L301.634 244.451L282.825 230.894L250.955 251.743L256.222 274.159L239.145 285.33L218.041 185.285L235.064 174.149L319.146 232.994ZM268.871 220.841L238.53 198.442L247.116 235.072L268.871 220.841Z" fill="white"/>
<path d="M327.738 227.372L275.58 147.643L301.413 130.743C311.202 124.339 317.844 120.563 321.339 119.416C326.691 117.624 332.217 117.723 337.92 119.713C343.623 121.703 348.55 125.871 352.701 132.216C355.903 137.111 357.707 141.807 358.112 146.305C358.518 150.803 357.974 154.899 356.482 158.593C354.99 162.288 353.031 165.368 350.607 167.834C347.261 171.11 341.945 175.132 334.657 179.899L324.161 186.766L343.836 216.841L327.738 227.372ZM300.501 150.599L315.302 173.224L324.112 167.46C330.457 163.309 334.427 160.117 336.02 157.884C337.614 155.65 338.437 153.248 338.489 150.677C338.542 148.106 337.797 145.642 336.255 143.285C334.358 140.385 331.94 138.549 329.003 137.778C326.065 137.008 323.137 137.241 320.218 138.477C318.06 139.372 314.08 141.716 308.278 145.511L300.501 150.599Z" fill="white"/>
</svg>
