<svg width="500" height="500" viewBox="0 0 500 500" fill="none" xmlns="http://www.w3.org/2000/svg">
<path fill-rule="evenodd" clip-rule="evenodd" d="M241.701 19.4573L248.237 11.7695L254.999 19.2434C254.999 19.2434 282.087 49.4336 336.454 65.8591C391.414 82.4657 425.524 76.8468 425.524 76.8468L434.146 75.4902L435.576 84.1068C435.576 84.1068 456.571 206.408 400.022 326.896C343.607 447.1 252.912 488.37 252.912 488.37L249.248 490.026L245.582 488.37C245.582 488.37 154.96 447.097 98.5452 326.896C41.9978 206.411 62.9174 84.1802 62.9174 84.1802L64.3504 75.4902L72.9701 76.853C72.9701 76.853 107.078 82.4637 162.04 65.8591C216.36 49.4466 241.701 19.4573 241.701 19.4573ZM321.662 79.6457C284.007 66.4924 259.451 47.2873 248.54 37.4851C237.061 48.2105 210.223 69.8201 167.225 82.8113C125.328 95.423 93.973 95.8223 79.4479 95.0213C77.4855 109.593 71.2381 167.892 87.206 238.755L321.662 79.6457ZM383.941 319.422C404.903 274.758 414.789 230.57 419.064 193.141L147.975 377.098C192.917 441.277 241.428 466.468 249.258 470.262C259.057 465.513 333.444 427.016 383.941 319.422ZM219.815 262.469L200.969 267.73C203.446 274.445 204.033 280.171 202.73 284.906C201.427 289.641 198.637 293.409 194.358 296.207C188.557 300.002 182.444 300.947 176.02 299.04C169.595 297.134 163.086 291.141 156.492 281.061C150.278 271.562 147.623 263.487 148.528 256.838C149.433 250.188 152.841 244.931 158.751 241.064C163.029 238.265 167.446 237.084 172.003 237.52C176.56 237.956 180.661 239.933 184.308 243.449L197.753 229.218C191.765 224.023 185.844 220.907 179.989 219.871C170.126 218.091 160.318 220.391 150.565 226.771C139.398 234.076 132.789 243.642 130.74 255.467C128.69 267.292 132.006 279.839 140.687 293.109C148.894 305.654 158.772 313.314 170.32 316.088C181.868 318.862 192.936 316.786 203.523 309.86C212.08 304.263 217.759 297.531 220.561 289.667C223.363 281.802 223.115 272.736 219.815 262.469ZM319.146 232.994L301.634 244.451L282.825 230.894L250.955 251.743L256.222 274.159L239.145 285.33L218.041 185.285L235.064 174.149L319.146 232.994ZM268.871 220.841L238.53 198.442L247.116 235.072L268.871 220.841ZM275.58 147.643L327.738 227.372L343.836 216.841L324.161 186.766L334.657 179.899C341.945 175.132 347.261 171.11 350.607 167.834C353.031 165.368 354.99 162.288 356.482 158.593C357.974 154.899 358.518 150.803 358.112 146.305C357.707 141.807 355.903 137.111 352.701 132.216C348.55 125.871 343.623 121.703 337.92 119.713C332.217 117.723 326.691 117.624 321.339 119.416C317.844 120.563 311.202 124.339 301.413 130.743L275.58 147.643ZM315.302 173.224L300.501 150.599L308.278 145.511C314.08 141.716 318.06 139.372 320.218 138.477C323.137 137.241 326.065 137.008 329.003 137.778C331.94 138.549 334.358 140.385 336.255 143.285C337.797 145.642 338.542 148.106 338.489 150.677C338.437 153.248 337.614 155.65 336.02 157.884C334.427 160.117 330.457 163.309 324.112 167.46L315.302 173.224Z" fill="white"/>
</svg>
