<svg width="500" height="500" viewBox="0 0 500 500" fill="none" xmlns="http://www.w3.org/2000/svg">
<g clip-path="url(#clip0_1146_5289)">
<path d="M249.775 500L239.973 490.197C216.872 467.173 184.046 455.015 145.064 455.015H144.152C141.417 455.015 116.948 454.787 92.2523 447.492C50.3072 434.954 44 411.246 44 398.176V0H455.626V398.632C455.626 454.559 356.31 455.243 355.322 455.243H354.79C316.493 455.243 282.754 467.705 259.654 490.35L249.775 500.076V500Z" fill="white"/>
<path d="M57.9897 13.9785V398.249C57.9897 418.538 78.7343 428.948 96.1357 434.115C119.312 440.954 143.02 441.03 144.084 441.03H144.996C187.929 441.03 224.023 454.556 249.859 480.24C275.619 455.012 312.549 441.182 354.798 441.182H355.33C356.166 441.182 441.576 439.814 441.576 398.553V13.9785H57.9897Z" fill="#009DDB"/>
<path d="M112.389 124.087V424.619C129.182 427.886 143.468 427.962 144.228 427.962H145.14C152.739 427.962 160.109 428.342 167.328 429.178V124.087H112.312H112.389Z" fill="white"/>
<path d="M222.328 124.087V445.059C232.359 450.15 241.629 456.305 249.988 463.6C258.195 456.61 267.313 450.683 277.268 445.667V124.087H222.328Z" fill="white"/>
<path d="M332.3 124.087V429.406C339.671 428.494 347.269 428.038 354.944 428.038H355.477C363.987 427.962 375.613 426.974 387.239 424.695V124.087H332.3Z" fill="white"/>
<path d="M122.113 73.0237V73.1759L139.97 93.7683H125.152L111.474 75.6834H97.3407V93.7683H85.1064V42.9326H111.854C127.28 42.9326 135.106 48.8596 135.106 58.8138C135.106 65.6528 130.395 71.6562 122.113 72.9479V73.0237ZM111.398 52.127H97.3407V67.4005H110.942C118.921 67.4005 122.341 64.893 122.341 59.4978C122.341 54.635 119.301 52.2033 111.474 52.2033L111.398 52.127Z" fill="white"/>
<path d="M191.329 83.4339H160.022L155.007 93.6925H141.861L169.064 42.9326H182.666L210.098 93.6925H196.268L191.329 83.4339ZM173.472 56.0025L164.429 74.3154H186.922L178.107 56.0025L175.903 50.9875H175.752L173.472 56.0025Z" fill="white"/>
<path d="M257.917 54.4119C253.814 53.1202 248.494 52.0566 242.264 52.0566C227.598 52.0566 222.431 57.0716 222.431 68.2416C222.431 80.0198 227.75 84.8073 242.567 84.8073C248.343 84.8073 253.586 83.6673 257.917 81.9196L259.513 90.886C254.421 93.0897 247.583 94.7615 241.124 94.7615C219.999 94.7615 209.665 84.8832 209.665 68.2416C209.665 52.7406 219.543 41.9502 242.188 41.9502C248.419 41.9502 255.03 43.166 259.361 44.6857L257.993 54.4119H257.917Z" fill="white"/>
<path d="M268.916 42.9326H281.302V93.6925H268.916V42.9326Z" fill="white"/>
<path d="M342.233 93.6925L309.254 62.2333L305.379 58.3584H305.151L305.303 63.9052V93.6925H294.133V42.9326H304.391L335.318 73.0995L339.194 77.0514L339.345 76.8992L339.194 71.504V42.9326H350.288V93.6925H342.233Z" fill="white"/>
<path d="M413.764 91.5778C408.369 93.5534 400.39 94.8451 392.943 94.8451C369.615 94.8451 359.661 84.7387 359.661 68.5531C359.661 52.3676 369.691 42.0332 392.943 42.0332C399.858 42.0332 407.229 43.021 412.624 44.8451L411.408 54.7234C406.165 53.0516 399.934 51.9879 393.551 51.9879C378.202 51.9879 372.503 56.6991 372.503 68.4009C372.503 80.1034 377.67 84.8903 392.487 84.8903C396.514 84.8903 400.086 84.4349 403.125 83.5229V67.4131H413.764V91.6536V91.5778Z" fill="white"/>
</g>
<defs>
<clipPath id="clip0_1146_5289">
<rect width="500" height="500" fill="white"/>
</clipPath>
</defs>
</svg>
