<svg width="500" height="500" viewBox="0 0 500 500" fill="none" xmlns="http://www.w3.org/2000/svg">
<g clip-path="url(#clip0_1146_5288)">
<path fill-rule="evenodd" clip-rule="evenodd" d="M239.973 490.197L249.775 500V500.076L259.654 490.35C282.754 467.705 316.493 455.243 354.79 455.243H355.322C356.31 455.243 455.626 454.559 455.626 398.632V0H44V398.176C44 411.246 50.3072 434.954 92.2523 447.492C116.948 454.787 141.417 455.015 144.152 455.015H145.064C184.046 455.015 216.872 467.173 239.973 490.197ZM57.9897 13.9785V398.249C57.9897 418.538 78.7343 428.948 96.1357 434.115C119.312 440.954 143.02 441.03 144.084 441.03H144.996C187.929 441.03 224.023 454.556 249.859 480.24C275.619 455.012 312.549 441.182 354.798 441.182H355.33C356.166 441.182 441.576 439.814 441.576 398.553V13.9785H57.9897ZM112.389 124.087V424.619C129.182 427.886 143.468 427.962 144.228 427.962H145.14C152.739 427.962 160.109 428.342 167.328 429.178V124.087H112.389ZM222.328 445.059V124.087H277.268V445.667C267.313 450.683 258.195 456.61 249.988 463.6C241.629 456.305 232.359 450.15 222.328 445.059ZM332.3 124.087V429.406C339.671 428.494 347.269 428.038 354.944 428.038H355.477C363.987 427.962 375.613 426.974 387.239 424.695V124.087H332.3ZM122.113 73.1759V73.0237V72.9479C130.395 71.6562 135.106 65.6528 135.106 58.8138C135.106 48.8596 127.28 42.9326 111.854 42.9326H85.1064V93.7683H97.3407V75.6834H111.474L125.152 93.7683H139.97L122.113 73.1759ZM97.3407 52.127H111.398L111.474 52.2033C119.301 52.2033 122.341 54.635 122.341 59.4978C122.341 64.893 118.921 67.4005 110.942 67.4005H97.3407V52.127ZM191.329 83.4339H160.022L155.007 93.6925H141.861L169.064 42.9326H182.667L210.098 93.6925H196.268L191.329 83.4339ZM173.472 56.0025L164.429 74.3154H186.922L178.107 56.0025L175.903 50.9875H175.752L173.472 56.0025ZM242.264 52.0566C248.494 52.0566 253.814 53.1202 257.917 54.4119H257.993L259.361 44.6857C255.03 43.166 248.419 41.9502 242.188 41.9502C219.543 41.9502 209.665 52.7406 209.665 68.2416C209.665 84.8832 219.999 94.7615 241.124 94.7615C247.583 94.7615 254.421 93.0897 259.513 90.886L257.917 81.9196C253.586 83.6673 248.343 84.8073 242.567 84.8073C227.75 84.8073 222.431 80.0198 222.431 68.2416C222.431 57.0716 227.598 52.0566 242.264 52.0566ZM268.916 42.9326H281.302V93.6925H268.916V42.9326ZM309.254 62.2333L342.233 93.6925H350.288V42.9326H339.194V71.504L339.345 76.8992L339.194 77.0514L335.318 73.0995L304.391 42.9326H294.133V93.6925H305.303V63.9052L305.151 58.3584H305.379L309.254 62.2333ZM413.764 91.5778C408.369 93.5534 400.39 94.8451 392.943 94.8451C369.615 94.8451 359.661 84.7387 359.661 68.5531C359.661 52.3676 369.691 42.0332 392.943 42.0332C399.858 42.0332 407.229 43.021 412.624 44.8451L411.408 54.7234C406.165 53.0516 399.934 51.9879 393.551 51.9879C378.202 51.9879 372.503 56.6991 372.503 68.4009C372.503 80.1033 377.67 84.8903 392.487 84.8903C396.514 84.8903 400.086 84.4349 403.125 83.5229V67.4131H413.764V91.5778Z" fill="white"/>
</g>
<defs>
<clipPath id="clip0_1146_5288">
<rect width="500" height="500" fill="white"/>
</clipPath>
</defs>
</svg>
