<svg xmlns="http://www.w3.org/2000/svg" width="500" height="500" fill="none"><path stroke="#fff" stroke-width="10" d="m57.179 266.137.003-.009.003-.009c20.314-60.758 14.698-120.804-16.83-179.923l58.81-48.734c34.866.268 62.158-2.257 81.591-7.763 17.647-5.001 30.18-12.89 34.775-24.699h69.948c4.59 11.81 17.122 19.698 34.77 24.699 19.434 5.506 46.731 8.03 81.609 7.763l58.788 48.723c-31.528 59.134-37.053 119.169-16.753 179.944l.003.007.002.007c9.904 29.366 9.176 54.303-1.368 75.288-10.597 21.088-31.519 39.01-63.666 53.404-56.617 25.335-99.514 57.437-128.33 96.559-28.881-39.119-71.763-71.231-128.146-96.557l-.012-.005c-32.271-14.396-53.252-32.319-63.867-53.406-10.562-20.981-11.272-45.917-1.33-75.289Z"/><path stroke="#fff" stroke-width="10" d="m421.934 273.164.05-.009c7.211 22.749 6.235 42.014-2.207 58.243-8.498 16.341-24.963 30.376-50.257 41.75a7.643 7.643 0 0 0-2.024 1.051c-48.622 21.896-87.751 48.565-117.045 80.342-29.395-31.823-68.458-58.53-117.2-80.451a11.123 11.123 0 0 0-1.683-.862c-25.435-11.388-41.955-25.451-50.453-41.826-8.422-16.227-9.362-35.492-2.111-58.246l.05.008c20.62-61.061 17.197-121.394-9.903-180.99l38.224-31.769c32.217-.173 58.595-2.923 79.013-8.377 19.501-5.21 34.137-13.042 42.99-24.028h42.211c8.787 10.986 23.397 18.816 42.871 24.026 20.399 5.456 46.776 8.212 78.992 8.39l38.386 31.76c-27.256 59.607-30.509 119.95-9.904 180.988Z"/><path fill="#fff" fill-rule="evenodd" d="M404.917 170.652H95.837c-1.893 46.825-16.755 83.173-15.792 120.631H421c-2.195-34.889-10.517-80.256-16.106-120.631h.023Zm-96.411-54.858v-7.539h15.781V99h-26.41v43.236h10.64v-17.613h13.563v-8.84l-13.574.011ZM182.504 99h-11.671l-13.104 43.224h11.122l1.635-7.123h12.018l1.881 7.123h11.122L182.504 99Zm-2.117 26.531h-7.683l3.841-15.234 3.842 15.234Zm28.538 16.705v-12.038h-10.304v12.038h10.304Zm123.538 0v-12.038H322.08v12.038h10.383Zm14.47 208.998h-10.304v12.037h10.304v-12.037Zm-153.621-.337a14.69 14.69 0 0 0-1.635-6.798 8.784 8.784 0 0 0-5.399-3.68c1.557-.987 2.778-2.042 3.674-3.119a10.45 10.45 0 0 0 1.971-6.461 49.493 49.493 0 0 0-.414-3.602 11.266 11.266 0 0 0-2.453-4.016c-1.557-1.963-3.763-3.029-6.709-3.197-.246-.157-.56-.157-1.053 0h-19.869v43.247h18.312c.818 0 2.532-.168 4.816-.494 1.882-.415 3.282-.897 4.178-1.57a10.242 10.242 0 0 0 3.36-4.252c.807-1.874 1.131-3.927 1.221-6.058Zm-12.925-21.124c.493.572.661 1.391.739 2.457v.572c0 1.391-.246 2.378-.739 2.95-.739.819-2.038 1.234-3.674 1.391h-4.659v-8.357h4.906c1.545-.157 2.688.168 3.427.987Zm2.128 19.576c0 1.391-.246 2.445-.896 3.276-.739.729-2.128 1.234-4.01 1.391h-5.555v-8.852h5.555c1.882-.157 3.271.337 4.01 1.234.65.819.896 1.885.896 2.951Zm27.149 1.885H199.36v12.037h10.304v-12.037Zm110.456-31.367a17.278 17.278 0 0 0-5.23-.662c-2.05 0-3.764.168-5.399.662-3.102.897-5.555 2.614-7.605 5.071a3.024 3.024 0 0 0-.728 1.065c-2.621 3.927-4.021 9.009-3.853 15.639-.156 5.407.74 9.749 2.621 13.103 1.636 3.601 3.674 5.901 6.127 7.292 2.464 1.391 5.566 1.963 9.408 1.963a18.896 18.896 0 0 0 7.605-1.795c1.96-1.066 3.673-2.625 5.062-5.003 1.389-2.289 2.296-4.914 2.789-8.021l-9.24-3.523c-.493 2.625-1.232 4.745-2.218 6.305-1.052 1.391-2.609 2.041-4.569 2.041-2.375-.157-4.01-.976-5.152-2.613-1.064-1.885-1.636-5.239-1.636-10.075 0-3.847.404-6.63 1.557-8.346 0-.168 0-.247.079-.415 1.232-2.21 2.945-3.276 5.308-3.276a8.169 8.169 0 0 1 3.025.741c.817.65 1.388 1.391 2.206 2.535.414.404.739 1.391 1.064 2.782l9.408-2.535c-.829-2.625-1.568-4.757-2.621-6.473a18.797 18.797 0 0 0-3.102-3.848 11.453 11.453 0 0 0-4.906-2.614ZM129.669 218.929a13.781 13.781 0 0 0-4.928-4.351 15.299 15.299 0 0 0-7.797-1.84H101v42.458h15.932c1.891 0 4.017-.397 6.572-1.212 1.642-.397 3.375-1.52 4.928-3.129 1.395-1.85 2.621-3.944 3.375-6.433.81-2.578 1.137-6.037 1.306-10.466 0-2.886-.338-5.696-.822-8.351a25.996 25.996 0 0 0-2.633-6.676h.011Zm-17.98 3.526h2.959c2.622 0 4.681.727 5.908 2.423 1.068 1.686 1.732 4.66 1.732 9.408 0 3.217-.337 5.619-.832 7.161-.484 1.609-1.227 2.732-2.138 3.129-1.148.804-2.622 1.046-5.007 1.046h-2.622v-23.167Zm84.433-8.681c-1.732-.716-4.185-1.036-7.392-1.036h-18.149v42.458h11.004V237.9h.731c1.159 0 1.891.33 2.633 1.046.653.485 1.238 1.543 2.048 3.548l5.761 12.702h12.231l-5.176-12.306c-.236-.727-.9-1.443-1.643-2.412-.821-1.212-1.238-1.928-1.553-2.248a9.495 9.495 0 0 0-2.959-1.696 7.77 7.77 0 0 0 3.691-1.763c1.395-1.124 2.633-2.335 3.454-3.944a16.757 16.757 0 0 0 1.238-6.279c0-2.887-.495-5.145-1.575-6.83a10.164 10.164 0 0 0-4.344-3.944Zm-5.918 8.692c.821.716 1.148 1.762 1.148 3.128-.12.856-.339 1.694-.653 2.501a4.706 4.706 0 0 1-1.8 1.212c-1.395.397-2.386.716-2.802.716h-4.512v-8.604h4.602c1.879 0 3.286.243 4.017 1.047Zm-42.385 20.909h-10.251v11.821h10.262l-.011-11.821Zm90.272-14.718v-6.676h18.161v-9.254h-29.007v42.469h29.479v-9.574H238.08v-8.284h16.675v-8.681h-16.664Zm-18.396-15.919h-10.678v42.458h10.689l-.011-42.458Zm75.567 10.609h10.846v31.838h10.847v-31.838h10.835v-10.609h-32.517l-.011 10.609Zm-8.383-8.042c-2.295-2.247-5.66-3.305-10.183-3.305-3.533 0-6.481.573-8.54 1.785a9.963 9.963 0 0 0-4.602 4.737c-1.148 1.696-1.553 3.789-1.553 6.037a10.121 10.121 0 0 0 .551 4.417 10.293 10.293 0 0 0 2.397 3.779c1.969 2.17 5.424 3.779 10.194 5.145 2.791.815 4.67 1.542 5.413 2.578.832.804 1.237 1.685 1.237 2.732 0 1.212-.405 2.335-1.237 3.217a5.714 5.714 0 0 1-3.612 1.211 5.367 5.367 0 0 1-2.717-.577 5.248 5.248 0 0 1-2.043-1.846 10.456 10.456 0 0 1-1.395-4.737l-10.352.804c.495 4.263 1.722 7.711 3.86 10.609 2.295 2.743 6.323 4.109 12.399 4.109 3.376 0 6.166-.65 8.383-1.697a12.355 12.355 0 0 0 5.254-5.144c1.238-2.248 1.801-4.903 1.801-7.712 0-2.335-.405-4.428-1.306-6.279a11.458 11.458 0 0 0-4.523-4.506c-2.048-1.366-5.423-2.732-9.935-4.098-1.969-.331-3.207-.804-3.691-1.366a2.44 2.44 0 0 1-.832-1.851c-.079-1.047.168-1.763.99-2.424.416-.716 1.553-1.035 2.88-.881 1.463-.154 2.701.242 3.443 1.377.9.716 1.474 2.093 1.891 3.933l10.014-.804c-.405-4.253-1.801-7.227-4.186-9.243Zm75.657 2.413a9.805 9.805 0 0 0-4.197-3.944c-1.879-.716-4.343-1.036-7.64-1.036h-17.89v42.458h10.993V237.9h.742c.488-.015.973.071 1.424.251.452.18.86.451 1.198.795.664.485 1.238 1.543 2.059 3.548l5.671 12.702h12.152l-5.018-12.306a11.105 11.105 0 0 0-1.722-2.412c-.457-.77-.949-1.52-1.474-2.248a9.456 9.456 0 0 0-2.959-1.696 8.178 8.178 0 0 0 3.69-1.763 11.179 11.179 0 0 0 3.376-3.944c.821-1.851 1.305-3.944 1.305-6.279-.146-2.887-.641-5.145-1.71-6.83Zm-9.114 7.876a6.147 6.147 0 0 1-.495 2.501 4.901 4.901 0 0 1-1.89 1.212c-1.396.397-2.476.716-2.96.716h-4.275v-8.604h4.602c1.89 0 3.285.243 4.028 1.047.652.727.99 1.762.99 3.128Zm24.72 29.602 1.722-6.83h12.073l1.89 6.83H405l-13.052-42.469H380.19l-13.142 42.469h11.094Zm7.809-31.21 3.848 14.96h-7.798l3.95-14.96Z" clip-rule="evenodd"/></svg>