<svg xmlns="http://www.w3.org/2000/svg" width="500" height="500" fill="none"><path fill="#262526" fill-rule="evenodd" d="M289.166 0h-77.32c-5.089 22.367-43.299 33.186-114.465 32.445L34 84.968c32.629 59.145 38.705 118.962 18.443 179.566-20.498 60.558 2.134 105.528 67.896 134.864 58.541 26.296 101.997 59.807 130.2 100.602 28.125-40.795 71.581-74.295 130.369-100.602 65.515-29.336 88.147-74.306 67.728-134.853C428.385 203.919 434.371 144.113 467 84.957l-63.359-52.512C332.453 33.185 294.243 22.367 289.166 0Z" clip-rule="evenodd"/><path fill="#fff" fill-rule="evenodd" d="M218.701 9h63.62c10.23 22.12 49.454 32.939 117.819 32.434L455 86.998c-30.789 59.48-36.028 119.443-15.479 180.157 18.429 55.373-2.613 96.414-62.7 123.45-55.287 24.914-97.45 55.967-126.276 93.395-28.905-37.428-71.068-68.481-126.343-93.384-60.099-27.047-81.062-68.088-62.723-123.461C82.039 206.441 76.789 146.478 46 86.998l55.028-45.565C169.326 41.94 208.539 31.12 218.69 9h.011Z" clip-rule="evenodd"/><path fill="#262526" fill-rule="evenodd" d="M274.078 23H226.9c-15.33 21.466-55.698 32.255-121.341 32.412L63 90.785c28.05 59.609 31.917 119.779 11.317 180.779v-.168c-15.262 47.575 3.124 83.105 55.292 106.433.436.173.851.395 1.237.662 50.527 22.677 90.322 50.424 119.609 83.509 29.208-33.085 69.161-60.832 119.688-83.509a2.639 2.639 0 0 1 1.158-.662c52.089-23.328 70.554-58.858 55.371-106.433v.168C406.083 210.576 409.781 150.394 438 90.785l-42.739-35.362c-65.632-.168-106-10.968-121.172-32.412l-.011-.011Z" clip-rule="evenodd"/><path fill="#fff" fill-rule="evenodd" d="M231.635 32h37.797c17.425 21.17 58.158 32.086 122.043 32.491L426 93.306c-11.284 25.521-18.322 51.041-21.022 76.9-3.519 34.627.493 69.513 12.349 104.635 0 .168 0 .494.168.674 1.725 5.397 2.779 10.489 3.597 15.582 4.415 34.392-13.582 60.643-53.9 78.789h-.09c-.65.337-1.3.652-1.871.899-47.535 21.586-85.814 47.691-114.77 78.215-29.046-30.524-67.325-56.629-114.86-78.215a18.524 18.524 0 0 1-1.793-.899c-40.498-18.146-58.326-44.409-53.821-78.789.56-5.093 1.636-10.174 3.35-15.593.157-.169.157-.495.336-.663 11.688-35.122 15.689-70.008 12.103-104.635-2.544-25.859-9.492-51.379-20.776-76.9l34.435-28.804c63.874-.416 104.618-11.332 122.2-32.502Z" clip-rule="evenodd"/><path fill="#262526" fill-rule="evenodd" d="M404.917 170.652H95.837c-1.893 46.825-16.755 83.173-15.792 120.631H421c-2.195-34.889-10.517-80.256-16.106-120.631h.023Zm-96.411-54.858v-7.539h15.781V99h-26.41v43.236h10.64v-17.613h13.563v-8.84l-13.574.011ZM182.504 99h-11.671l-13.104 43.224h11.122l1.635-7.123h12.018l1.881 7.123h11.122L182.504 99Zm-2.117 26.531h-7.683l3.841-15.234 3.842 15.234Zm28.538 16.705v-12.038h-10.304v12.038h10.304Zm123.538 0v-12.038H322.08v12.038h10.383Zm14.47 208.998h-10.304v12.037h10.304v-12.037Zm-153.621-.337a14.69 14.69 0 0 0-1.635-6.798 8.784 8.784 0 0 0-5.399-3.68c1.557-.987 2.778-2.042 3.674-3.119a10.45 10.45 0 0 0 1.971-6.461 49.493 49.493 0 0 0-.414-3.602 11.266 11.266 0 0 0-2.453-4.016c-1.557-1.963-3.763-3.029-6.709-3.197-.246-.157-.56-.157-1.053 0h-19.869v43.247h18.312c.818 0 2.532-.168 4.816-.494 1.882-.415 3.282-.897 4.178-1.57a10.242 10.242 0 0 0 3.36-4.252c.807-1.874 1.131-3.927 1.221-6.058Zm-12.925-21.124c.493.572.661 1.391.739 2.457v.572c0 1.391-.246 2.378-.739 2.95-.739.819-2.038 1.234-3.674 1.391h-4.659v-8.357h4.906c1.545-.157 2.688.168 3.427.987Zm2.128 19.576c0 1.391-.246 2.445-.896 3.276-.739.729-2.128 1.234-4.01 1.391h-5.555v-8.852h5.555c1.882-.157 3.271.337 4.01 1.234.65.819.896 1.885.896 2.951Zm27.149 1.885H199.36v12.037h10.304v-12.037Zm110.456-31.367a17.278 17.278 0 0 0-5.23-.662c-2.05 0-3.764.168-5.399.662-3.102.897-5.555 2.614-7.605 5.071a3.024 3.024 0 0 0-.728 1.065c-2.621 3.927-4.021 9.009-3.853 15.639-.156 5.407.74 9.749 2.621 13.103 1.636 3.601 3.674 5.901 6.127 7.292 2.464 1.391 5.566 1.963 9.408 1.963a18.896 18.896 0 0 0 7.605-1.795c1.96-1.066 3.673-2.625 5.062-5.003 1.389-2.289 2.296-4.914 2.789-8.021l-9.24-3.523c-.493 2.625-1.232 4.745-2.218 6.305-1.052 1.391-2.609 2.041-4.569 2.041-2.375-.157-4.01-.976-5.152-2.613-1.064-1.885-1.636-5.239-1.636-10.075 0-3.847.404-6.63 1.557-8.346 0-.168 0-.247.079-.415 1.232-2.21 2.945-3.276 5.308-3.276a8.169 8.169 0 0 1 3.025.741c.817.65 1.388 1.391 2.206 2.535.414.404.739 1.391 1.064 2.782l9.408-2.535c-.829-2.625-1.568-4.757-2.621-6.473a18.797 18.797 0 0 0-3.102-3.848 11.453 11.453 0 0 0-4.906-2.614Z" clip-rule="evenodd"/><path fill="#fff" fill-rule="evenodd" d="M129.669 218.929a13.781 13.781 0 0 0-4.928-4.351 15.299 15.299 0 0 0-7.797-1.84H101v42.458h15.932c1.891 0 4.017-.397 6.572-1.212 1.642-.397 3.375-1.52 4.928-3.129 1.395-1.85 2.621-3.944 3.375-6.433.81-2.578 1.137-6.037 1.306-10.466 0-2.886-.338-5.696-.822-8.351a25.996 25.996 0 0 0-2.633-6.676h.011Zm-17.98 3.526h2.959c2.622 0 4.681.727 5.908 2.423 1.068 1.686 1.732 4.66 1.732 9.408 0 3.217-.337 5.619-.832 7.161-.484 1.609-1.227 2.732-2.138 3.129-1.148.804-2.622 1.046-5.007 1.046h-2.622v-23.167Zm84.433-8.681c-1.732-.716-4.185-1.036-7.392-1.036h-18.149v42.458h11.004V237.9h.731c1.159 0 1.891.33 2.633 1.046.653.485 1.238 1.543 2.048 3.548l5.761 12.702h12.231l-5.176-12.306c-.236-.727-.9-1.443-1.643-2.412-.821-1.212-1.238-1.928-1.553-2.248a9.495 9.495 0 0 0-2.959-1.696 7.77 7.77 0 0 0 3.691-1.763c1.395-1.124 2.633-2.335 3.454-3.944a16.757 16.757 0 0 0 1.238-6.279c0-2.887-.495-5.145-1.575-6.83a10.164 10.164 0 0 0-4.344-3.944Zm-5.918 8.692c.821.716 1.148 1.762 1.148 3.128-.12.856-.339 1.694-.653 2.501a4.706 4.706 0 0 1-1.8 1.212c-1.395.397-2.386.716-2.802.716h-4.512v-8.604h4.602c1.879 0 3.286.243 4.017 1.047Zm-42.385 20.909h-10.251v11.821h10.262l-.011-11.821Zm90.272-14.718v-6.676h18.161v-9.254h-29.007v42.469h29.479v-9.574H238.08v-8.284h16.675v-8.681h-16.664Zm-18.396-15.919h-10.678v42.458h10.689l-.011-42.458Zm75.567 10.609h10.846v31.838h10.847v-31.838h10.835v-10.609h-32.517l-.011 10.609Zm-8.383-8.042c-2.295-2.247-5.66-3.305-10.183-3.305-3.533 0-6.481.573-8.54 1.785a9.963 9.963 0 0 0-4.602 4.737c-1.148 1.696-1.553 3.789-1.553 6.037a10.121 10.121 0 0 0 .551 4.417 10.293 10.293 0 0 0 2.397 3.779c1.969 2.17 5.424 3.779 10.194 5.145 2.791.815 4.67 1.542 5.413 2.578.832.804 1.237 1.685 1.237 2.732 0 1.212-.405 2.335-1.237 3.217a5.714 5.714 0 0 1-3.612 1.211 5.367 5.367 0 0 1-2.717-.577 5.248 5.248 0 0 1-2.043-1.846 10.456 10.456 0 0 1-1.395-4.737l-10.352.804c.495 4.263 1.722 7.711 3.86 10.609 2.295 2.743 6.323 4.109 12.399 4.109 3.376 0 6.166-.65 8.383-1.697a12.355 12.355 0 0 0 5.254-5.144c1.238-2.248 1.801-4.903 1.801-7.712 0-2.335-.405-4.428-1.306-6.279a11.458 11.458 0 0 0-4.523-4.506c-2.048-1.366-5.423-2.732-9.935-4.098-1.969-.331-3.207-.804-3.691-1.366a2.44 2.44 0 0 1-.832-1.851c-.079-1.047.168-1.763.99-2.424.416-.716 1.553-1.035 2.88-.881 1.463-.154 2.701.242 3.443 1.377.9.716 1.474 2.093 1.891 3.933l10.014-.804c-.405-4.253-1.801-7.227-4.186-9.243Zm75.657 2.413a9.805 9.805 0 0 0-4.197-3.944c-1.879-.716-4.343-1.036-7.64-1.036h-17.89v42.458h10.993V237.9h.742c.488-.015.973.071 1.424.251.452.18.86.451 1.198.795.664.485 1.238 1.543 2.059 3.548l5.671 12.702h12.152l-5.018-12.306a11.105 11.105 0 0 0-1.722-2.412c-.457-.77-.949-1.52-1.474-2.248a9.456 9.456 0 0 0-2.959-1.696 8.178 8.178 0 0 0 3.69-1.763 11.179 11.179 0 0 0 3.376-3.944c.821-1.851 1.305-3.944 1.305-6.279-.146-2.887-.641-5.145-1.71-6.83Zm-9.114 7.876a6.147 6.147 0 0 1-.495 2.501 4.901 4.901 0 0 1-1.89 1.212c-1.396.397-2.476.716-2.96.716h-4.275v-8.604h4.602c1.89 0 3.285.243 4.028 1.047.652.727.99 1.762.99 3.128Zm24.72 29.602 1.722-6.83h12.073l1.89 6.83H405l-13.052-42.469H380.19l-13.142 42.469h11.094Zm7.809-31.21 3.848 14.96h-7.798l3.95-14.96Z" clip-rule="evenodd"/></svg>