<svg width="500" height="500" viewBox="0 0 500 500" fill="none" xmlns="http://www.w3.org/2000/svg">
<path d="M249.717 98.9911C303.545 98.9911 348.937 134.992 363.209 184.219L424.287 78.9521L369.462 25.1192L368.108 25.7603C354.134 32.3912 321.131 43.3688 255.933 44.0838L222.055 102.279C230.931 100.149 240.186 98.9911 249.717 98.9911Z" fill="white"/>
<path d="M249.717 335.36C195.786 335.36 150.325 299.223 136.146 249.85L114.371 287.254C126.02 345.456 149.541 394.175 183.829 430.207C192.024 438.818 200.164 445.987 207.857 451.972L277.432 332.06C268.537 334.198 259.265 335.36 249.717 335.36Z" fill="white"/>
<path d="M250.216 488.871L255.158 486.869C266.28 482.362 295.308 468.555 324.576 437.797C372.755 387.167 400.533 312.926 404.911 223.102C408.511 149.232 427.49 103.426 435.482 87.1596L439.672 78.6329L371.687 11.8783L363.389 15.816C349.838 22.2458 317.108 33.0464 250.216 33.1427C183.319 33.0464 150.592 22.2458 137.04 15.8177L128.742 11.88L60.7617 78.6329L64.952 87.1596C72.9425 103.424 91.9209 149.231 95.52 223.102C99.8994 312.928 127.678 387.167 175.854 437.797C205.128 468.557 234.154 482.362 245.276 486.869L250.216 488.871ZM240.988 496.463C229.263 491.71 198.683 477.185 168.053 444.995C118.185 392.592 89.4494 316.118 84.9497 223.843C81.4417 151.852 63.1181 107.558 55.4027 91.8552L48 76.7921L126.201 0.00171554L140.862 6.95751C151.163 11.8422 182.389 23.2135 249.731 23.3097C317.058 23.2135 348.273 11.8405 358.568 6.95577L373.229 -2.83264e-05L451.434 76.7921L444.033 91.8552C436.317 107.559 417.992 151.86 414.482 223.843C409.984 316.118 381.249 392.592 331.381 444.995C300.749 477.189 270.169 491.71 258.444 496.463L249.716 500L240.988 496.463Z" fill="white"/>
<path d="M321.442 249.304V170.341C330.297 183.804 335.479 199.881 335.479 217.175C335.479 243.254 321.442 249.304 321.442 249.304ZM321.442 140.442C316.12 135.468 310.29 131.044 304.027 127.249V151.019V283.333V307.105C310.29 303.31 316.12 298.886 321.442 293.912V273.117C321.442 273.117 354.889 259.341 354.889 217.175C354.889 186.906 341.984 159.64 321.442 140.442Z" fill="white"/>
<path d="M217.653 137.693C223.194 135.45 229.026 133.807 235.068 132.76V113.048C229.088 113.885 223.268 115.219 217.653 117.02C175.296 130.614 144.544 170.363 144.544 217.175C144.544 263.989 175.296 303.74 217.653 317.332C223.268 319.135 229.088 320.469 235.068 321.306V301.592C229.026 300.547 223.194 298.903 217.653 296.661C186.214 283.93 163.954 253.126 163.954 217.175C163.954 181.227 186.214 150.422 217.653 137.693Z" fill="white"/>
<path d="M217.653 208.47H195.452C197.822 193.726 206.012 180.915 217.653 172.531V208.47ZM217.653 149.642C192.4 161.682 174.863 187.388 174.863 217.177C174.863 242.365 187.427 264.597 206.567 278.155V251.098C200.883 243.909 196.937 235.301 195.404 225.884H217.653V261.823V284.712C223.138 287.326 228.951 289.351 235.068 290.569V270.176V225.884V208.47V164.178V143.785C228.951 145.003 223.138 147.028 217.653 149.642Z" fill="white"/>
<path d="M262.856 132.532C267.378 133.231 271.802 134.219 276.064 135.6V240.086C272.489 244.194 267.974 247.457 262.856 249.544V132.532ZM278.227 264.037C278.491 263.877 278.758 263.713 279.021 263.548C279.65 263.15 280.274 262.746 280.884 262.323C280.971 262.261 281.059 262.199 281.147 262.137C281.75 261.715 282.34 261.276 282.922 260.831C288.742 256.307 293.477 250.065 293.479 240.431V188.535V135.459C293.479 118.771 280.843 116.09 268.227 113.684C256.574 111.46 245.441 112.116 245.441 112.116V322.24C246.861 322.297 248.282 322.349 249.718 322.349C254.169 322.349 258.547 322.039 262.856 321.5V270.461L283.053 316.902C288.704 315.008 294.151 312.665 299.331 309.881L278.227 264.037Z" fill="white"/>
</svg>
