<svg width="500" height="500" viewBox="0 0 500 500" fill="none" xmlns="http://www.w3.org/2000/svg">
<path fill-rule="evenodd" clip-rule="evenodd" d="M420.188 70.6875C423.812 74.1875 428.25 78.75 431 82.875C435.438 89.5625 439.625 101.562 439.625 101.562C439.625 101.562 445.625 91.6875 448.438 87.25C452.062 81.5625 461.25 72.25 461.5 72.25C461.812 72.25 463.188 85.8125 463.562 90.9375C463.938 96.0625 464.125 106.25 462 117.063C459.75 128.688 453.312 139.062 450.25 143.875C447.188 148.688 426 168.938 426.312 169.25C426.625 169.5 431.25 175.688 434.188 180.438C437.125 185.188 439.5 195.125 439.5 194.813C439.5 194.5 445.562 185.062 448.875 180.188C453.625 173.312 461.938 164.438 461.938 164.688C461.938 165 464 185.812 464.062 189C464.125 192.125 465.188 203.188 460.312 218C454.938 234.438 440.75 248.625 438.75 250.375C436.812 252.125 425.938 262.5 425.938 262.5C425.938 262.5 430 266.688 433.812 274C437.625 281.312 439.438 291.25 439.688 289.25C439.938 287.25 445.938 278.375 449.062 274.625C454.062 268.625 462.438 259.938 462.438 259.938C462.438 259.938 464.625 272.375 464.75 277.5C464.812 282.062 464.438 291.688 461.25 306.75C458.125 321.812 444.25 337.687 441.75 341.125C439.25 344.5 425.312 355.625 425.625 355.875C425.938 356.125 430.5 362.312 433.188 366.812C435.812 371.25 438.812 382.312 438.812 382.312C438.812 382.312 444.062 372.5 448.25 366.812C452.875 360.5 461.562 351.812 461.562 351.812C461.562 351.812 464.188 366.937 464 376.75C463.75 388.875 463.188 396.125 458.875 407.5C453.875 420.688 448.5 427.375 438.75 437.562C433.562 442.937 423.938 449.188 423.938 449.188L423.25 440.687C423.25 440.687 422.188 441.125 420.875 441.875V458.125V459.062V460.25L420.75 461.625L420.562 463.187L420.25 465L419.75 467L418.938 469.437L417.688 472L415.812 474.75L413.188 477.625L409.938 480.062L406.062 481.875L402.062 482.938L397.125 483.375L390.5 482.125L384.812 478.812L381.25 475.312L379.125 472.375L377.75 469.812L376.938 467.875L376.312 466.375L376.188 465.938L376.062 465.625L375.938 465.312L375.812 465L375.625 464.562L375.5 464.125L375.312 463.688L375.125 463.062L374.812 462.562L374.625 461.937L374.312 461.312L374 460.687L373.688 460.062L373.375 459.437L373.062 458.812L372.625 458.187L372.312 457.562L372 456.937L371.562 456.437L371.25 455.938L370.938 455.438L370.625 455L370 454.375L369.812 454.062L369.5 453.875L369.188 453.688H368.875H368.438L368 453.812L367.562 453.937L366.938 454.062L366.188 454.25L365.375 454.562L364.562 455L363.5 455.5L362.438 456L361.25 456.75L360 457.375L358.75 458.25L357.375 459.125L356 460.062L354.625 461L353.062 461.937L351.562 463L350 464.188L348.312 465.25L346.625 466.312L344.812 467.5L343 468.688L341.125 469.75L339.25 470.812L337.25 471.875L334.625 473.125L332 474.375L329.5 475.625L326.875 476.812L324.25 478L321.75 479.188L319.125 480.375L316.5 481.562L313.75 482.625L311.125 483.688L308.5 484.75L305.75 485.687L303 486.625L300.25 487.562L297.375 488.438L294.562 489.312L291.75 490.187L288.938 490.938L286.125 491.688L283.188 492.438L280.25 493.062L277.312 493.562L274.25 494.062L271.188 494.562L268.125 495L264.938 495.438L261.688 495.75L258.5 495.938L255.25 496.125L252 496.312H248.625L245.062 496.437L232.875 496.125L220.75 495.187L209.062 493.688L197.562 491.437L186.5 488.812L175.688 485.5L165.25 481.562L155.25 477.25L145.562 472.25L136.188 466.875L127.375 460.938L118.75 454.5L110.562 447.625L102.875 440.438L95.625 432.687L88.6875 424.625L82.1875 416.25L76.0625 407.438L70.5 398.312L65.25 388.875L60.4375 379.125L56.125 369.188L52.125 358.937L48.5625 348.438L45.5 337.75L42.75 326.875L40.4375 315.75L38.5625 304.438L37.0625 293L36.125 281.438L35.5 269.688L35.3125 257.812L35.5 244.813L36.125 232L37.3125 219.375L38.875 207L40.875 194.813L43.3125 182.875L46.125 171.125L49.375 159.688L53.1875 148.438L57.375 137.5L61.875 126.875L66.9375 116.5L72.4375 106.562L78.3125 96.9375L84.5 87.75L91.25 78.75L98.4375 70.1875L106 62.125L113.875 54.5L122.312 47.375L131.062 40.625L140.25 34.5L149.75 28.75L159.625 23.6875L169.938 19L180.438 15L191.375 11.625L202.625 8.75L214.188 6.5L226 4.9375L238.188 4L250.5 3.6875L255.875 3.8125L260.938 4L266 4.4375L270.812 5.0625L275.562 5.8125L280.062 6.75L284.562 7.8125L289 8.875L293.312 10.125L297.5 11.5L301.5 13L305.5 14.5L309.375 16.0625L313.188 17.75L316.875 19.4375L320.562 21.125L324.125 22.8125L327.625 24.625L331.188 26.3125L334.562 28.125L338.062 29.8125L341.438 31.5L344.812 33.1875L348.188 34.875L351.562 36.4375L354.938 38L358.312 39.5L361.688 41L365.188 42.375L368.75 43.75L372.312 45L374 45.5L374.438 45.3125L374.875 45.125L375.188 44.9375L375.5 44.75L375.812 44.4375L375.938 44.125L376.062 43.8125L376.25 43.375L376.375 43.0625L376.5 42.75L376.625 42.3125L376.75 41.875L376.875 41.5625L377 41.125L377.125 40.8125L377.25 40.5L377.375 40.1875L377.5 39.875V39.4375L377.625 39.125L377.5 38.75L377.812 37.0625L378.562 34.625L379.938 31.4375L382.562 27.4375L387.375 23.125L394.438 20.25L402.562 20.0625L410.75 23.25L416.312 29.3125L418.625 34.3125L419.562 37.9375L419.875 40.5L420.062 42.5V43.75V44.0625L420.188 70.6875ZM372.812 331.75C370.312 329.062 363.313 320 359.375 299.938C356.312 284.375 360.312 259.25 360.312 259.25C360.312 259.25 364.875 263.625 372.062 273.25C378.312 281.625 384.062 291.375 384.062 291.375C384.062 291.375 385.062 281.813 387.562 276.313C390.25 270.25 397.625 262.687 397.625 262.687C397.625 262.687 373.25 246.562 364.125 222.125C356.375 201.5 361.25 165.75 361.25 165.75C361.25 165.75 367.25 171.062 373.312 178.937C380.25 187.875 382.687 193.625 382.687 193.625L386.562 187.687L382.438 184.75L379.188 180.75L377.313 177.125L376.25 174.188L375.75 172.062L375.625 171.188L374.562 164.813L373.375 158.875L372 153.062L370.5 147.312L368.812 141.812L366.937 136.438L364.813 131.25L362.625 126.25L360.187 121.375L357.687 116.687L354.938 112.125L352 107.812L348.937 103.687L345.687 99.6875L342.313 95.875L338.75 92.25L335.062 88.875L331.188 85.5625L327.062 82.625L322.75 79.75L318.312 77.125L313.687 74.5625L308.875 72.3125L303.937 70.3125L298.687 68.375L293.312 66.8125L287.625 65.4375L281.75 64.25L275.875 63.3125L269.562 62.6875L263.062 62.25L256.437 62.125L248.125 62.4375L240.312 63.3125L233.062 64.5625L226 66.5L219.375 68.8125L213.062 71.6875L206.938 74.875L201.125 78.5625L195.438 82.6875L190.187 87.25L185 92.25L180.063 97.625L175.438 103.375L171 109.5L166.812 115.937L162.812 122.812L159 129.937L155.5 137.437L152.25 145.063L149.312 153L146.562 161.125L144.062 169.5L141.875 178L139.875 186.688L138.062 195.5L136.562 204.312L135.312 213.188L134.25 222.062L133.438 230.938L132.937 239.75L132.625 248.563L132.5 257.25L132.625 265.938L133.062 274.5L133.813 283.062L134.875 291.563L136.125 300.063L137.688 308.563L139.5 316.938L141.625 325.062L144.062 333.187L146.687 341.125L149.5 348.875L152.688 356.375L156.062 363.812L159.625 370.938L163.438 377.687L167.563 384.25L171.75 390.625L176.25 396.562L180.875 402.187L185.688 407.375L190.75 412.375L195.938 416.937L201.313 421.062L206.812 424.75L212.5 428.125L218.312 431L224.312 433.562L230.5 435.687L236.812 437.25L243.312 438.437L250.063 439.187L257.125 439.5L261.938 439.375L266.875 439.062L271.812 438.562L276.625 437.812L281.25 436.875L285.875 435.812L290.375 434.437L294.875 432.937L299.312 431.25L303.625 429.25L307.812 427.25L312 424.938L316 422.375L320 419.75L323.875 416.875L327.562 413.688L331.25 410.375L334.813 407L338.312 403.312L341.688 399.375L344.938 395.375L348.125 391.062L351.063 386.625L354 381.875L356.75 377L359.25 371.937L361.75 366.563L364.062 361.063L366.188 355.313L368.187 349.375L370.062 343.25L371.437 338.063L371.562 336.875L371.875 335.375L372.188 333.563L372.812 331.75ZM155.505 147.426L167.582 147.203L171.103 135.616L175.069 147.069L187.146 146.847L177.475 154.111L181.397 165.564L171.504 158.612L161.833 165.92L165.398 154.333L155.505 147.426ZM433.375 153C433.375 153 434.312 134.875 439.25 118.813C445.187 99.75 457.375 86.5 457.375 86.5C457.375 86.5 461.5 104.063 453 125C445.687 143.063 433.375 153 433.375 153ZM433.125 247.125C433.125 247.125 434 229 439 212.938C444.938 193.875 457.125 180.625 457.125 180.625C457.125 180.625 461.25 198.188 452.75 219.125C445.438 237.25 433.125 247.125 433.125 247.125ZM432.5 341.312C432.5 341.312 433.375 323.187 438.375 307.125C444.313 288.062 457.75 274.938 457.75 274.938C457.75 274.938 460.625 292.375 452.125 313.312C444.813 331.437 432.5 341.312 432.5 341.312ZM432.312 434.437C432.312 434.437 433 417.375 438 401.375C443.937 382.312 456.937 367.125 456.937 367.125C456.937 367.125 460.25 386.625 451.75 407.562C444.437 425.625 432.312 434.437 432.312 434.437ZM366.562 182.812C366.562 182.812 376 199.25 381.125 213.25C385.812 226.063 392.125 246.437 392.125 246.437C392.125 246.437 379.562 238.875 372.687 223.312C369.187 215.5 368.312 212.188 366.75 202.25C365.5 194.813 366.562 182.812 366.562 182.812ZM354.813 179.062C353.188 184.812 352.25 190.875 352.25 197.437V350.563C352.25 360.75 349.313 369.063 343.563 375.438V375.313C336.813 382.063 328.062 386.688 317.187 388.938H317.313C315 389.313 312.625 389.812 310 390.687C303.937 392.687 296.875 396.125 288.875 400.875C279.438 406.313 268.687 413.688 256.875 422.75C230.375 402.5 210.187 391.25 196.562 388.875H196.688C185.688 386.563 176.937 382 170.187 375.25L170.312 375.375C164.437 369 161.5 360.687 161.5 350.5V197.375C161.5 190.875 160.562 184.75 158.938 179C186.438 174.812 210.687 165.812 231.75 152.437C240.812 146.687 249.125 140.188 256.875 132.688C282.812 157.625 315.438 173.125 354.813 179.062ZM321.688 186C325.375 186 328.563 187.312 331.25 190C332.188 190.938 332.938 191.937 333.563 193.062L339.437 187.938C338.687 186.813 337.75 185.687 336.625 184.562C332.562 180.437 327.562 178.438 321.75 178.438C315.875 178.438 310.938 180.437 306.688 184.562C302.625 188.75 300.562 193.687 300.562 199.625C300.562 205.5 302.625 210.438 306.688 214.5C310.75 218.563 315.625 220.563 321.375 220.75H322.375C328 220.625 332.75 218.438 336.625 214.5C337.75 213.438 338.687 212.312 339.437 211.187L333.563 206.063C332.938 207.063 332.188 208.125 331.25 209C331.125 209 331.125 209 331.125 209.125C328.562 211.813 325.375 213.125 321.688 213.125C318 213.125 314.813 211.813 312.125 209.125C309.437 206.438 308.188 203.25 308.188 199.562C308.188 195.812 309.438 192.688 312 190C312.125 190 312.125 190 312.125 189.875C314.813 187.312 318 186 321.688 186ZM271.437 156.563C268.875 154.25 266.375 151.938 263.75 149.812V220.562H271.437V207.938C273.5 207.813 275.5 207.563 277.563 206.938L282.812 220.562H291L284.5 203.5C299.375 193.188 298.25 180.312 280.875 164.875C277.687 162.187 274.625 159.438 271.437 156.563ZM271.437 166.812C272.875 168.062 274.437 169.375 275.938 170.625H275.75C282.563 176.625 286.375 181.937 287.125 186.75C287 189.937 285.188 193 281.625 195.938C281.125 196.313 280.625 196.875 280 197.25H280.125C278.5 198.375 276.75 199.187 274.875 199.625C273.75 199.875 272.562 200 271.437 200.125V166.812ZM249.937 149.625C244.187 154.187 238.062 158.375 231.812 162.375C229.437 163.75 226.813 165.313 224.125 166.688V220.75H231.812V210.562H242.25V220.75H249.937V149.625ZM231.812 171.187C235.437 169.125 238.812 166.938 242.25 164.688V202.938H231.812V171.187ZM201.188 190C202.125 190.938 202.875 191.937 203.5 193.062L209.375 187.938C208.625 186.813 207.688 185.687 206.563 184.562C202.5 180.437 197.5 178.438 191.688 178.438C185.813 178.438 180.875 180.437 176.625 184.562C172.563 188.75 170.5 193.687 170.5 199.625C170.5 205.5 172.563 210.438 176.625 214.5C180.688 218.563 185.563 220.563 191.313 220.75H192.313C197.938 220.625 202.688 218.438 206.563 214.5C207.688 213.438 208.625 212.312 209.375 211.187L203.5 206.063C202.875 207.063 202.125 208.125 201.188 209C201.063 209 201.063 209 201.063 209.125C198.5 211.813 195.313 213.125 191.625 213.125C187.938 213.125 184.75 211.813 182.062 209.125C179.375 206.438 178.063 203.25 178.063 199.562C178.063 195.812 179.375 192.688 181.875 190C182 190 182 190 182 189.875C184.625 187.312 187.875 186.063 191.563 186.063C195.25 186.063 198.563 187.312 201.188 190ZM342.566 366.964L343.625 229.25H322.438L322.562 378.958C324.5 378.359 326.375 377.999 328.25 377.639C339.151 373.996 338.128 369.363 342.566 366.964ZM409.875 254.937L410.875 168.562C410.875 168.562 391.375 177.875 391.375 205C391.375 242.312 409.875 254.937 409.875 254.937ZM278.312 16.0625L282.438 17L286.5 18.0625L290.5 19.25L294.5 20.625L298.312 21.875L302.125 23.375L305.812 24.875L309.5 26.4375L313.062 28.125L316.5 29.75L320.125 31.4375L323.562 33.125L326.937 34.9375L330.438 36.625L333.812 38.4375L337.188 40.125L340.625 41.8125L344.125 43.5L347.5 45.125L351.062 46.8125L354.5 48.375L358.125 49.875L361.812 51.375L365.5 52.75L369.25 54.125L372.75 55.25H372.938H373.063H373.25H373.5H373.812H374H374.313L374.625 55.1875H374.938L375.25 55.0625H375.688L376.125 54.9375L376.5 54.8125L376.938 54.625L377.5 54.4375L378 54.3125L378.438 54L379.062 53.8125L379.562 53.4375L380.125 53.125L380.75 52.75L381.375 52.3125L382 51.75L382.625 51.25H382.75L382.812 51.125L382.938 51L383.063 50.8125L383.25 50.625L383.375 50.3125L383.563 50L383.812 49.5625L384 49.125L384.188 48.6875L384.438 48.25L384.625 47.75L384.813 47.3125L385.062 46.8125L385.25 46.25L385.375 45.75L385.563 45.1875L385.812 44.6875L385.875 44.25L386 43.75L386.125 43.3125L386.188 42.875L386.312 42.4375L386.438 42L386.5 41.6875L386.625 41.5V41.1875V40.9375L386.75 40.875V40.75V40.4375L386.938 39.375L387.5 37.875L388.312 36L389.813 33.6875L392.438 31.3125L396.312 29.625H400.812L405.375 31.25L408.438 34.625L409.688 37.5L410.312 39.5625L410.5 41.375L410.625 42.6875V43.625V43.8125L410.938 167.125V167.562L410.812 168.625L410.75 170.187L410.188 172.188L409.188 174.75L407.188 177.687L403.688 180.25L399.562 181.188L395.5 181.125L391.875 179.812L388.938 177.687L387.062 175.375L385.875 173.125L385.25 171.437L384.938 170.187V169.688L383.875 163.062L382.625 156.812L381.25 150.688L379.562 144.688L377.812 138.812L375.812 133.125L373.563 127.5L371.25 122.125L368.625 116.938L365.875 111.812L362.938 106.938L359.812 102.312L356.438 97.75L352.938 93.375L349.188 89.25L345.25 85.375L341.25 81.625L336.937 78.0625L332.5 74.75L327.812 71.6875L322.938 68.6875L317.875 66.0625L312.625 63.625L307.25 61.3125L301.562 59.375L295.688 57.625L289.688 56.125L283.375 54.8125L276.938 53.875L270.188 53.125L263.375 52.75L256.188 52.625L247.375 52.9375L238.937 53.8125L230.938 55.375L223.25 57.375L215.875 59.9375L208.937 63.125L202.188 66.625L195.812 70.75L189.688 75.1875L183.812 80.1875L178.188 85.5625L172.938 91.375L168 97.5L163.188 104.125L158.75 111L154.5 118.188L150.625 125.688L146.938 133.562L143.562 141.562L140.438 149.875L137.562 158.312L135.062 167L132.625 175.812L130.625 184.688L128.812 193.688L127.25 202.812L125.875 211.938L124.812 221L124 230.25L123.5 239.375L123.125 248.375L123.062 257.375L123.125 266.25L123.562 275.188L124.312 284.062L125.375 292.875L126.75 301.625L128.438 310.438L130.312 319L132.438 327.562L134.938 336.063L137.688 344.313L140.625 352.375L143.875 360.312L147.5 367.938L151.25 375.375L155.25 382.562L159.562 389.562L164 396.125L168.75 402.5L173.688 408.375L178.937 414L184.312 419.313L189.875 424.188L195.688 428.75L201.688 432.75L207.875 436.5L214.312 439.625L220.938 442.375L227.687 444.75L234.75 446.562L241.875 447.938L249.25 448.625L256.938 449L262.312 448.875L267.688 448.438L272.938 447.938L278.188 447.188L283.25 446.125L288.312 444.938L293.25 443.438L298.188 441.75L302.938 439.938L307.688 437.875L312.312 435.5L316.812 433.063L321.25 430.312L325.562 427.375L329.812 424.313L333.875 420.875L337.875 417.313L341.688 413.625L345.5 409.562L349.062 405.438L352.5 401L355.875 396.438L359.188 391.562L362.188 386.562L365.188 381.312L367.875 375.875L370.5 370.25L372.938 364.438L375.25 358.312L377.375 352.062L379.375 345.563L380.938 339.562V339L381.063 338.063L381.25 337L381.562 335.75L381.875 334.25L382.5 332.75L382.75 332.188C379.183 328.059 377.247 325.81 373.688 320.312C369.402 313.762 368.415 309.011 366.849 301.478L366.75 301C364.937 292.312 365.5 278.188 365.5 278.188C365.5 278.188 371.5 288.188 374.812 294.812C378.25 301.688 379.875 305.75 382.75 312.938C384.474 317.327 386.322 322.626 387.46 325.967L387.562 325.875L389.875 324.5L392.5 323.438L394.08 323.231C393.953 322.704 393.766 322.022 393.5 321.25C392.062 316.875 391.625 314.25 390.938 309.688C390 303.062 389.5 299.125 390.438 292.438C391.625 284.062 393.5 279.062 397.875 272.125C403.375 263.375 410.125 261.062 410.125 261.062L410.865 336.452L411.063 337.438L411.188 338.625L411.25 339.562V340.375V341.125V341.562V458.188V458.375V458.938V459.75L411.188 460.625L411.063 461.562L410.812 462.75L410.5 464.125L410 465.5L409.25 467.062L408.125 468.688L406.625 470.25L404.75 471.625L402.5 472.688L400.188 473.312L397.375 473.563L393.563 472.938L390.312 471L388.188 468.875L386.813 467L385.875 465.375L385.375 464L384.938 463.063L384.813 462.75V462.625L384.75 462.5L384.625 462.188L384.5 461.875L384.438 461.5L384.188 461.063L384 460.5L383.812 459.875L383.563 459.375L383.25 458.625L382.938 457.875L382.625 457.25L382.188 456.375L381.875 455.625L381.5 454.875L381.063 454.062L380.625 453.312L380.188 452.438L379.688 451.75L379.25 451L378.75 450.25L378.312 449.5L377.812 448.875L377.25 448.25L376.813 447.688L376.312 447.188L375.875 446.75L375.5 446.438L375.188 446.125L374.813 445.875L374.5 445.688L373.563 445.188L372.625 444.75L371.688 444.5L370.812 444.313L370 444.125H369.062H368.188L367.25 444.188L366.312 444.313L365.25 444.5L364.125 444.813L362.938 445.25L361.812 445.688L360.5 446.312L359.25 446.938L357.875 447.625L356.5 448.438L355.188 449.188L353.688 450.125L352.312 451L350.812 452.062L349.25 453L347.812 454.062L346.188 455.125L344.625 456.188L343.062 457.25L341.5 458.312L339.875 459.375L338.187 460.312L336.5 461.375L334.75 462.313L333.062 463.188L330.438 464.438L327.875 465.688L325.375 466.875L322.812 468.063L320.312 469.188L317.812 470.375L315.25 471.438L312.75 472.562L310.188 473.563L307.688 474.625L305.062 475.563L302.438 476.5L299.875 477.438L297.25 478.312L294.5 479.188L291.875 480L289.188 480.75L286.5 481.5L283.812 482.25L280.938 482.875L278.312 483.5L275.5 484L272.5 484.562L269.688 485L266.75 485.438L263.812 485.75L260.75 486.063L257.688 486.25L254.625 486.438L251.5 486.688L248.312 486.813H245.062L233.25 486.438L221.688 485.625L210.438 484.125L199.5 482L188.812 479.5L178.625 476.312L168.75 472.688L159.188 468.438L150 463.812L141.188 458.625L132.625 453L124.5 446.938L116.812 440.5L109.5 433.625L102.5 426.312L96 418.563L89.8125 410.5L84 402.125L78.625 393.5L73.6875 384.438L69.0625 375.125L64.8125 365.5L61.0625 355.625L57.5625 345.563L54.625 335.312L52 324.75L49.8125 313.938L47.875 303L46.5 291.875L45.5 280.75L44.9375 269.312L44.75 257.812L44.9375 245.062L45.5625 232.687L46.625 220.375L48.1875 208.312L50.125 196.437L52.4375 184.938L55.25 173.562L58.4375 162.438L62.125 151.562L66.125 141.062L70.5 130.812L75.375 120.938L80.625 111.312L86.1875 102.062L92.1875 93.1875L98.75 84.6875L105.5 76.5625L112.75 68.9375L120.312 61.625L128.188 54.8125L136.5 48.5L145.25 42.5625L154.312 37.125L163.688 32.3125L173.5 27.9375L183.5 24L193.875 20.8125L204.625 18.0625L215.688 16L227.062 14.375L238.625 13.5625L250.5 13.1875L255.5 13.3125L260.312 13.5625L264.938 13.9375L269.562 14.5L274 15.25L278.312 16.0625ZM370.312 64.5C326.187 50.625 300.312 22.75 250.625 22.75C127.187 22.75 54.1875 125.625 54.1875 257.813C54.1875 378.062 121.688 477.25 245.125 477.25C277.875 477.25 302.312 467.812 328.812 454.687C344.812 446.75 361.562 427.25 379.25 437.438C388.187 442.5 393.875 459.812 393.875 459.812C393.875 459.812 395.125 464.062 397.875 464.062C402.312 464.062 401.75 458.562 401.75 458.562V341.375C401.75 341.375 402.25 332.687 397.125 332.687C390.5 331.937 390.375 340.5 390.312 341.25C371.812 416.75 319.25 458.5 256.938 458.5C167.25 458.5 113.562 355.562 113.562 257.375C113.562 159.687 153.25 43.125 256.188 43.125C337.563 43.125 384 95.875 394.313 168.188C394.313 168.188 394.75 172 398.625 171.688C401.687 171.5 401.437 167.25 401.437 167.25L401.188 43.75C401.188 43.75 401.375 39.4375 399.313 39.1875C396.563 38.75 396.125 42.375 396.125 42.375C396.125 42.375 394.125 54.125 388.875 58.5625C378.812 67 370.312 64.5 370.312 64.5ZM198.998 124.122L202.518 112.535L206.484 123.988L218.561 123.766L208.891 131.03L212.813 142.483L202.919 135.531L193.249 142.839L196.814 131.252L186.92 124.345L198.998 124.122ZM238.124 112.474L226.063 121.59L230.509 107.139L218.17 98.5237L233.233 98.2458L237.624 83.7949L242.57 98.0791L257.632 97.8012L245.572 106.861L250.463 121.145L238.124 112.474ZM305.505 124.899L309.025 113.312L312.992 124.766L325.069 124.543L315.398 131.807L319.32 143.26L309.427 136.308L299.756 143.617L303.321 132.03L293.428 125.122L305.505 124.899ZM326.793 166.336L330.358 154.749L320.465 147.842L332.542 147.619L336.063 136.032L340.029 147.485L352.106 147.263L342.435 154.527L346.357 165.98L336.464 159.028L326.793 166.336ZM274.483 98.2458L278.874 83.7949L283.82 98.0791L298.882 97.8012L286.822 106.861L291.713 121.145L279.374 112.474L267.313 121.59L271.759 107.139L259.42 98.5237L274.483 98.2458ZM172.205 366.964L171.188 229.25H191.546L191.426 378.958C189.564 378.359 187.762 377.999 185.961 377.639C175.486 373.996 176.469 369.363 172.205 366.964ZM209.176 382.535L208.688 229.25H229.046L228.529 392.332C226.667 391.69 224.733 390.643 222.931 390.257C212.457 386.356 213.44 385.104 209.176 382.535ZM306.949 382.535L307.437 229.25H287.079L287.596 392.332C289.458 391.69 291.392 390.643 293.194 390.257C303.668 386.356 302.685 385.104 306.949 382.535ZM247.926 401.951L247.438 229.25H267.796L268.073 402.433L257.46 409.857L247.926 401.951Z" fill="white"/>
</svg>
