<svg width="500" height="500" viewBox="0 0 500 500" fill="none" xmlns="http://www.w3.org/2000/svg">
<path d="M246.095 498.301C219.539 487.127 194.833 472.66 171.916 454.863C121.663 415.836 82.1707 362.698 57.658 301.126C35.986 246.689 26.8532 187.325 30.9568 127.565C32.7585 101.326 37.2665 74.8664 44.2166 49.7369C44.8273 47.5289 45.3663 45.5342 45.4144 45.3041C45.4626 45.0741 45.5533 44.9103 45.6161 44.9402C45.6789 44.97 47.1673 45.7051 48.9236 46.5737C81.1634 59.1437 106.339 64.7888 139.161 62.6099C168.606 60.4571 194.301 53.0062 214.891 40.6504C222.113 36.3165 227.98 31.8487 233.389 26.565C241.436 18.7046 246.654 10.8085 249.643 1.96704L250.308 0L250.72 1.32836C255.14 15.565 267.472 29.5505 285.078 40.294C303.749 51.6874 328.165 59.3508 354.096 61.9565C362.129 62.7636 364.633 62.875 374.744 62.875C384.603 62.875 387.283 62.7621 394.634 62.0366C416.038 59.9242 435.948 54.4645 452.531 46.1604C453.863 45.4935 454.988 45.0061 455.032 45.0774C455.211 45.3662 457.613 54.2751 458.872 59.3172C470.613 106.348 473.576 156.239 467.525 204.995C464.305 230.93 458.593 256.116 450.301 280.941C417.943 377.81 348.985 456.117 261.606 495.219C257.826 496.91 250.44 500.016 250.237 500C250.167 499.994 248.303 499.23 246.095 498.301Z" fill="black"/>
<path d="M246.004 484.615C186.502 457.425 135.782 412.764 99.249 355.393C82.1832 328.593 68.3996 298.937 58.76 268.282C48.6777 236.218 43.0113 203.325 41.6277 168.831C41.388 162.854 41.3885 145.539 41.6287 139.584C42.5808 115.971 45.4472 93.657 50.3768 71.4826C51.2405 67.5974 53.0399 60.0056 53.2029 59.5592C53.2553 59.4156 53.9582 59.6138 55.3451 60.1634C58.0796 61.2471 64.7615 63.5138 68.1756 64.5161C96.9936 72.9755 130.455 74.6616 162.062 69.2469C185.333 65.2605 207.013 57.1869 223.358 46.4202C229.447 42.4096 233.732 38.9432 238.533 34.1438C243.254 29.4238 246.387 25.4932 249.102 20.8808L250.284 18.873L251.663 21.1661C254.507 25.8955 257.343 29.4377 262.052 34.1424C266.923 39.0102 271.064 42.3612 277.213 46.4114C313.258 70.1549 370.316 78.6015 420.365 67.603C428.597 65.7939 438.52 62.826 445.239 60.1634C446.626 59.6138 447.329 59.4156 447.381 59.5592C447.544 60.0056 449.344 67.5974 450.208 71.4826C455.137 93.657 458.004 115.971 458.956 139.584C459.196 145.55 459.196 162.865 458.956 168.831C456.526 229.082 440.802 285.681 412.195 337.145C387.936 380.786 354.741 419.032 315.803 448.205C298.864 460.896 281.119 471.777 262.701 480.767C257.753 483.182 250.52 486.512 250.253 486.499C250.174 486.495 248.262 485.647 246.004 484.615Z" fill="#BF1B27"/>
<path d="M247.646 351.092C236.127 350.618 224.164 348.216 213.598 344.255C189.142 335.087 168.765 317.938 155.498 295.357C153.415 291.812 149.751 284.31 148.221 280.46C144.396 270.831 141.948 260.797 140.77 249.919C140.364 246.175 140.306 232.841 140.678 229.025C142.535 210.005 148.587 192.759 158.865 177.201C174.329 153.79 198.11 136.881 225.094 130.109C234.495 127.75 242.721 126.758 252.755 126.774C270.415 126.801 286.357 130.532 302.117 138.327C321.979 148.151 338.273 163.385 349.646 182.766C351.569 186.043 354.775 192.53 356.318 196.264C365.841 219.316 367.364 245.443 360.576 269.354C352.126 299.126 331.691 324.22 304.215 338.567C291.679 345.113 277.785 349.253 263.664 350.65C260.934 350.92 253.305 351.308 251.752 351.256C251.35 351.242 249.503 351.169 247.646 351.092Z" fill="white"/>
<path d="M243.358 469.928C225.642 460.929 210.582 451.579 194.794 439.778C180.847 429.354 170.543 420.389 157.491 407.325C148.592 398.418 143.498 392.874 136.502 384.479C99.8796 340.538 74.4081 288.39 61.9967 231.944C51.1857 182.777 50.7144 130.454 60.6399 81.3059C62.2683 73.2425 62.1218 73.8211 62.5294 73.8446C62.7243 73.8558 64.1976 74.2509 65.8034 74.7225C78.5546 78.4678 93.3106 81.0835 108.048 82.2109C120.895 83.1937 135.998 83.0268 148.924 81.7592C170.121 79.6805 189.849 74.8385 207.336 67.4222C211.789 65.5338 219.991 61.4128 223.768 59.166C231.865 54.3494 238.323 49.4548 243.914 43.8972C246.031 41.7927 248.894 38.6021 249.927 37.1964L250.292 36.6999L251.408 38.1088C255.042 42.6956 260.589 47.9316 266.457 52.3136C275.364 58.9654 287.333 65.3452 299.582 69.9708C315.362 75.9293 333.058 79.9349 351.661 81.7592C364.575 83.0257 379.993 83.1952 392.537 82.2087C407.769 81.0107 422.579 78.3646 435.396 74.551C436.939 74.092 438.242 73.7574 438.292 73.8075C438.429 73.9438 438.785 75.5368 439.785 80.4848C449.242 127.259 449.49 175.684 440.514 222.547C429.137 281.943 403.052 337.444 364.826 383.587C353.403 397.374 339.67 411.484 326.113 423.358C307.041 440.064 285.306 455.099 263.248 466.843C259.805 468.676 250.447 473.37 250.248 473.363C250.172 473.361 247.071 471.815 243.358 469.928ZM228.075 348.551C228.151 348.551 229.156 348.751 230.311 348.995C242.274 351.52 256.883 351.863 269.443 349.914C271.043 349.666 272.418 349.463 272.499 349.463C272.58 349.463 272.666 371.433 272.692 398.287L272.737 447.111L275.657 445.309C288.979 437.091 301.504 428.079 313.841 417.835L317.354 414.918V372.722V330.527L318.867 329.428C326.648 323.774 334.894 315.769 340.951 307.989C350.665 295.511 357.846 280.818 361.483 265.977C361.68 265.174 361.911 264.271 361.997 263.97C362.085 263.661 362.193 286.255 362.245 315.848L362.336 368.274L365.002 364.844C380.572 344.815 394.211 322.449 405.018 299.223L406.953 295.067V192.048V89.0293L406.268 89.139C403.077 89.6503 393.193 90.5376 386.515 90.9123C382.169 91.1561 366.114 91.2179 363.75 90.9999L362.245 90.8611V152.674C362.245 186.671 362.208 214.451 362.164 214.406C362.119 214.362 361.705 212.849 361.243 211.046C360.195 206.953 357.918 200.111 356.325 196.269C348.487 177.367 335.489 160.775 318.949 148.558L317.354 147.38V116.058V84.7357L314.663 84.0516C300.095 80.3489 285.028 74.6788 274.517 68.9436L272.646 67.923V98.223V128.523L272.054 128.405C270.399 128.074 264.865 127.357 261.88 127.087C257.772 126.716 248.27 126.662 244.27 126.987C239.276 127.392 230.78 128.636 228.349 129.317L227.938 129.432V98.6794V67.9264L225.885 69.0346C215.122 74.8447 200.441 80.3611 185.922 84.0516L183.23 84.7357V117.703V150.67L180.812 152.685C159.342 170.574 145.164 195.953 141.375 223.277C140.542 229.282 140.438 231.072 140.446 239.244C140.455 247.553 140.594 249.648 141.551 255.849C142.864 264.354 145.098 272.596 148.222 280.46C149.751 284.31 153.415 291.811 155.498 295.357C162.178 306.726 170.693 316.784 180.721 325.151L183.23 327.245V371.081V414.918L186.743 417.836C199.024 428.038 211.655 437.128 224.889 445.287L227.847 447.111L227.893 397.83C227.918 370.726 228 348.551 228.075 348.551ZM246.643 343.438C225.727 342.136 206.206 334.97 189.703 322.536C181.374 316.26 173.366 308.032 167.234 299.447C152.348 278.607 145.647 252.674 148.561 227.183C152.072 196.464 168.984 168.923 194.909 151.705C217.051 136.999 243.975 131.348 270.365 135.867C284.131 138.225 297.753 143.615 309.69 151.427C334.585 167.72 351.447 193.889 355.928 223.185C356.828 229.067 357.028 231.926 357.031 238.879C357.033 245.863 356.817 248.971 355.93 254.755C352.954 274.158 344.575 292.264 331.609 307.305C315.235 326.303 292.18 338.952 267.446 342.511C261.232 343.405 252.419 343.798 246.643 343.438ZM257.865 341.245C276.506 340.209 293.946 334.399 309.325 324.103C331.231 309.437 346.733 286.906 352.455 261.415C355.232 249.044 355.678 235.881 353.744 223.368C351.414 208.293 345.595 193.611 337.036 181.215C313.579 147.239 273.133 130.628 232.855 138.428C206.194 143.591 182.182 159.71 167.078 182.583C159.41 194.194 154.261 206.94 151.764 220.487C150.604 226.78 150.141 232.056 150.141 238.97C150.141 247.976 150.998 255.067 153.117 263.605C158.263 284.333 169.338 302.227 186.059 316.832C187.759 318.317 191.574 321.252 194.087 323.008C212.703 336.017 235.364 342.497 257.865 341.245ZM247.373 331.577C234.493 330.782 222.473 327.578 211.215 321.94C202.263 317.457 195.018 312.27 187.741 305.133C182.616 300.107 179.175 295.975 175.365 290.27C162.199 270.556 157.109 246.744 161.084 223.459C165.375 198.32 179.923 175.959 201.205 161.791C211.507 154.933 222.735 150.297 234.781 147.927C247.187 145.487 260.456 145.674 272.807 148.463C273.849 148.698 274.774 148.963 274.862 149.051C274.951 149.14 275.002 152.241 274.975 155.952C274.933 161.834 274.892 162.685 274.654 162.629C274.503 162.594 273.125 162.248 271.591 161.861C265.217 160.252 259.828 159.615 252.573 159.612C246.969 159.61 244.009 159.833 239.481 160.597C217.612 164.289 198.306 176.913 186.077 195.518C174.895 212.53 170.708 233.209 174.388 253.244C176.961 267.249 183.262 280.277 192.727 291.16C195.107 293.896 199.976 298.577 202.756 300.801C205.385 302.905 210.899 306.653 213.631 308.194C231.238 318.122 252.248 320.941 271.781 315.994C273.463 315.569 274.88 315.26 274.929 315.31C274.978 315.359 275.018 318.426 275.018 322.125V328.851L274.605 329.008C273.893 329.279 269.014 330.26 266.435 330.65C260.698 331.519 252.715 331.907 247.373 331.577ZM296.23 312.935L296.278 305.239L298.27 303.812C307.927 296.892 315.677 288.369 321.442 278.328C326.62 269.309 329.98 259.337 331.31 249.043C331.463 247.858 331.588 246.606 331.588 246.26V245.631H324.745H317.902V256.241V266.851L316.627 269.49C314.933 272.996 313.842 274.903 311.589 278.295C309.565 281.342 307.354 284.194 305.434 286.233L304.231 287.51L304.223 224.873C304.218 183.383 304.277 162.236 304.397 162.236C304.597 162.236 306.422 163.509 308.66 165.208C315.063 170.07 321.944 177.036 326.895 183.667C349.183 213.526 351.36 253.923 332.407 285.959C325.135 298.251 314.985 308.853 302.994 316.681C300.72 318.165 296.543 320.63 296.302 320.63C296.236 320.63 296.204 317.167 296.23 312.935ZM331.588 231.68C331.588 230.676 331.078 226.957 330.574 224.28C329.216 217.066 326.812 209.992 323.478 203.402C321.925 200.33 319.095 195.498 318.272 194.51C317.916 194.082 317.914 194.173 317.908 213.194L317.902 232.309H324.745H331.588L331.588 231.68ZM262.062 238.993V168.623H262.479C263.791 168.623 270.382 170.092 273.513 171.083L275.018 171.559V233.23C275.018 273.962 275.08 294.901 275.2 294.901C275.495 294.901 278.999 293.295 280.675 292.392C285.794 289.635 290.469 286.221 294.71 282.143C295.555 281.331 296.273 280.667 296.307 280.667C296.341 280.667 296.369 283.855 296.369 287.751V294.835L294.283 296.367C287.731 301.179 280.134 304.915 272.266 307.193C269.546 307.98 264.991 308.99 263.02 309.241L262.062 309.364V238.993ZM240.352 307.54C239.665 307.412 237.417 306.488 235.739 305.644C233.496 304.516 231.69 303.227 229.822 301.419C227.133 298.819 225.539 296.211 224.57 292.827L224.106 291.21V276.906V262.601H230.037H235.967V275.522V288.442L236.433 289.375C237.454 291.425 239.971 292.493 242.617 292C244.07 291.729 244.813 291.192 245.416 289.974L245.913 288.97L245.966 272.09C246.004 260.113 245.96 254.972 245.816 254.39C245.704 253.938 245.304 252.912 244.927 252.109C244.283 250.736 243.701 250.063 235.132 240.783C229.37 234.542 225.834 230.57 225.51 229.973C225.229 229.454 224.798 228.439 224.552 227.718L224.106 226.406V203.748C224.106 177.973 223.994 179.892 225.689 176.61C227.399 173.299 230.059 171.273 234.122 170.188C237.681 169.238 241.154 169.207 244.361 170.095C250.312 171.744 254.648 176.386 255.883 182.432C256.202 183.998 256.222 185.015 256.178 197.762L256.132 211.415H250.748H245.365L245.274 200.549C245.173 188.492 245.256 189.258 243.937 188.252C241.933 186.724 238.469 186.698 236.759 188.199C235.547 189.263 235.602 188.479 235.602 204.626V219.289L236.061 220.638C236.917 223.155 237.544 223.936 245.649 232.583C249.882 237.1 253.594 241.123 253.896 241.525C254.199 241.926 254.723 242.844 255.061 243.565C256.299 246.207 256.236 244.536 256.179 273.138C256.132 297.159 256.106 299.082 255.809 300.07C254.459 304.567 251.457 306.797 245.826 307.485C244.296 307.672 241.223 307.703 240.352 307.54ZM216.441 300.133C214.033 298.697 212.669 297.784 210.192 295.95L208.23 294.497V269.425V244.353H200.292C192.854 244.353 192.354 244.373 192.355 244.673C192.358 245.424 193.138 250.271 193.567 252.2C195.167 259.391 198.464 266.938 202.655 273.003C203.175 273.756 203.662 274.474 203.737 274.6C203.844 274.78 202.548 274.828 197.499 274.828H191.125L189.294 271.224C185.172 263.111 182.885 255.506 181.843 246.452C181.411 242.699 181.411 235.241 181.843 231.488C184.219 210.845 194.695 193.041 211.593 180.929C213.496 179.565 218.19 176.653 218.484 176.653C218.565 176.653 218.632 204.695 218.632 238.97C218.632 273.245 218.57 301.285 218.495 301.282C218.42 301.279 217.495 300.762 216.441 300.133ZM208.222 215.749L208.215 197.912L207.481 198.733C200.315 206.754 195.231 216.982 193.196 227.474C192.913 228.931 192.354 232.813 192.354 233.319C192.354 233.55 193.441 233.587 200.292 233.587H208.23L208.222 215.749ZM278.121 238.683V228.45L281.725 228.509C284.933 228.562 285.42 228.611 286.163 228.954C287.812 229.717 289.012 231.452 289.747 234.134C290.219 235.858 290.213 242.099 289.738 243.791C289.016 246.359 287.599 248.222 286.003 248.701C285.559 248.833 283.922 248.915 281.704 248.915H278.121L278.121 238.683ZM285.331 243.593C286.208 242.636 286.515 241.414 286.513 238.891C286.508 234.657 285.618 233.203 282.947 233.068L281.588 232.999V238.695V244.391L283.153 244.326C284.69 244.263 284.729 244.25 285.331 243.593ZM291.624 238.696V228.477H296.192H300.76L300.708 230.713L300.657 232.948L297.874 232.998L295.091 233.049V234.59V236.131L297.692 236.182L300.292 236.233L300.344 238.377L300.395 240.521H297.743H295.091V242.432V244.344L297.966 244.394L300.84 244.444L300.891 246.68L300.942 248.915H296.283H291.624V238.696ZM138.34 229.557V90.8551L136.926 90.9954C134.718 91.2144 118.434 91.1544 114.07 90.9112C107.135 90.5247 96.8153 89.5976 94.2249 89.1282L93.6318 89.0208V192.036V295.052L95.0372 298.124C96.7982 301.974 102.399 313.196 104.493 317.072C113.747 334.198 123.9 349.782 135.848 365.202C137.151 366.883 138.245 368.258 138.278 368.258C138.312 368.258 138.34 305.842 138.34 229.557ZM179.192 460.457C178.965 460.167 178.972 460.161 179.261 460.388C179.437 460.526 179.581 460.67 179.581 460.707C179.581 460.858 179.431 460.761 179.192 460.457ZM321.004 460.707C321.004 460.67 321.148 460.526 321.323 460.388C321.613 460.161 321.619 460.167 321.392 460.457C321.154 460.761 321.004 460.858 321.004 460.707ZM173.353 456.077C173.126 455.788 173.132 455.782 173.422 456.008C173.726 456.247 173.823 456.397 173.672 456.397C173.634 456.397 173.491 456.253 173.353 456.077ZM326.843 456.328C326.843 456.29 326.987 456.146 327.163 456.008C327.452 455.782 327.458 455.788 327.231 456.077C326.993 456.381 326.843 456.478 326.843 456.328ZM171.711 454.8C171.484 454.511 171.49 454.504 171.78 454.731C172.084 454.97 172.18 455.119 172.03 455.119C171.992 455.119 171.848 454.976 171.711 454.8ZM328.486 455.05C328.486 455.013 328.629 454.869 328.805 454.731C329.094 454.504 329.101 454.511 328.874 454.8C328.635 455.104 328.486 455.201 328.486 455.05ZM170.068 453.523C169.841 453.233 169.848 453.227 170.137 453.454C170.313 453.591 170.457 453.735 170.457 453.773C170.457 453.923 170.307 453.827 170.068 453.523ZM330.128 453.773C330.128 453.735 330.272 453.591 330.447 453.454C330.737 453.227 330.743 453.233 330.516 453.523C330.278 453.827 330.128 453.923 330.128 453.773ZM331.04 453.043C331.04 453.005 331.184 452.862 331.36 452.724C331.649 452.497 331.656 452.503 331.429 452.793C331.19 453.097 331.04 453.193 331.04 453.043ZM166.419 450.603C166.192 450.313 166.198 450.307 166.488 450.534C166.663 450.672 166.807 450.815 166.807 450.853C166.807 451.004 166.657 450.907 166.419 450.603ZM333.778 450.853C333.778 450.815 333.921 450.672 334.097 450.534C334.386 450.307 334.393 450.313 334.166 450.603C333.927 450.907 333.778 451.004 333.778 450.853ZM165.506 449.873C165.279 449.584 165.286 449.577 165.575 449.804C165.751 449.942 165.895 450.086 165.895 450.123C165.895 450.274 165.745 450.177 165.506 449.873ZM334.69 450.123C334.69 450.086 334.834 449.942 335.009 449.804C335.299 449.577 335.305 449.584 335.078 449.873C334.84 450.177 334.69 450.274 334.69 450.123ZM164.594 449.143C164.367 448.854 164.373 448.847 164.663 449.074C164.838 449.212 164.982 449.356 164.982 449.394C164.982 449.544 164.832 449.447 164.594 449.143ZM335.602 449.394C335.602 449.356 335.746 449.212 335.922 449.074C336.211 448.847 336.218 448.854 335.991 449.143C335.752 449.447 335.602 449.544 335.602 449.394ZM163.499 448.231C163.272 447.941 163.278 447.935 163.568 448.162C163.744 448.3 163.887 448.443 163.887 448.481C163.887 448.631 163.737 448.535 163.499 448.231ZM336.697 448.481C336.697 448.443 336.841 448.3 337.017 448.162C337.306 447.935 337.312 447.941 337.085 448.231C336.847 448.535 336.697 448.631 336.697 448.481ZM162.404 447.318C162.177 447.029 162.184 447.022 162.473 447.249C162.777 447.488 162.874 447.638 162.723 447.638C162.686 447.638 162.542 447.494 162.404 447.318ZM337.792 447.569C337.792 447.531 337.936 447.387 338.111 447.249C338.401 447.022 338.407 447.029 338.18 447.318C337.942 447.622 337.792 447.719 337.792 447.569ZM161.309 446.406C161.082 446.116 161.089 446.11 161.378 446.337C161.554 446.475 161.697 446.618 161.697 446.656C161.697 446.807 161.548 446.71 161.309 446.406ZM338.887 446.656C338.887 446.618 339.031 446.475 339.206 446.337C339.496 446.11 339.502 446.116 339.275 446.406C339.037 446.71 338.887 446.807 338.887 446.656ZM160.129 445.402L159.781 444.992L160.192 445.339C160.578 445.666 160.686 445.813 160.54 445.813C160.505 445.813 160.32 445.628 160.129 445.402ZM340.256 445.448C340.437 445.247 340.627 445.083 340.677 445.083C340.727 445.083 340.62 445.247 340.438 445.448C340.256 445.649 340.067 445.813 340.017 445.813C339.966 445.813 340.074 445.649 340.256 445.448ZM158.852 444.307L158.504 443.897L158.915 444.244C159.3 444.571 159.408 444.718 159.262 444.718C159.228 444.718 159.043 444.533 158.852 444.307ZM341.533 444.353C341.715 444.152 341.904 443.988 341.955 443.988C342.005 443.988 341.897 444.152 341.715 444.353C341.534 444.554 341.344 444.718 341.294 444.718C341.244 444.718 341.351 444.554 341.533 444.353ZM157.574 443.212L157.227 442.802L157.637 443.149C158.023 443.476 158.131 443.623 157.985 443.623C157.95 443.623 157.765 443.438 157.574 443.212ZM342.81 443.258C342.992 443.057 343.182 442.893 343.232 442.893C343.282 442.893 343.174 443.057 342.993 443.258C342.811 443.459 342.621 443.623 342.571 443.623C342.521 443.623 342.629 443.459 342.81 443.258ZM156.114 441.935L155.767 441.524L156.177 441.872C156.563 442.199 156.671 442.346 156.525 442.346C156.49 442.346 156.306 442.161 156.114 441.935ZM344.27 441.981C344.452 441.78 344.642 441.616 344.692 441.616C344.742 441.616 344.634 441.78 344.453 441.981C344.271 442.181 344.081 442.346 344.031 442.346C343.981 442.346 344.089 442.181 344.27 441.981ZM154.567 440.566L154.124 440.065L154.626 440.507C154.902 440.75 155.128 440.976 155.128 441.009C155.128 441.152 154.98 441.035 154.567 440.566ZM345.821 440.612C346.057 440.361 346.291 440.156 346.341 440.156C346.391 440.156 346.24 440.361 346.004 440.612C345.768 440.863 345.534 441.068 345.484 441.068C345.434 441.068 345.586 440.863 345.821 440.612ZM152.925 439.107L152.482 438.605L152.984 439.047C153.26 439.29 153.486 439.516 153.486 439.549C153.486 439.692 153.338 439.576 152.925 439.107ZM347.464 439.152C347.699 438.901 347.933 438.696 347.983 438.696C348.034 438.696 347.882 438.901 347.646 439.152C347.41 439.403 347.176 439.608 347.126 439.608C347.076 439.608 347.228 439.403 347.464 439.152ZM151.011 437.373L150.475 436.78L151.068 437.316C151.394 437.611 151.661 437.878 151.661 437.909C151.661 438.05 151.51 437.926 151.011 437.373ZM348.923 437.909C348.923 437.878 349.19 437.611 349.517 437.316L350.11 436.78L349.574 437.373C349.074 437.926 348.923 438.05 348.923 437.909ZM148.731 435.275L148.103 434.59L148.787 435.219C149.163 435.565 149.471 435.873 149.471 435.903C149.471 436.043 149.317 435.911 148.731 435.275ZM351.752 435.229C352.144 434.827 352.506 434.499 352.556 434.499C352.606 434.499 352.326 434.827 351.934 435.229C351.542 435.63 351.181 435.959 351.13 435.959C351.08 435.959 351.36 435.63 351.752 435.229ZM145.633 432.355L144.635 431.306L145.685 432.303C146.262 432.852 146.734 433.324 146.734 433.352C146.734 433.488 146.559 433.33 145.633 432.355ZM354.763 432.4C355.308 431.848 355.795 431.397 355.845 431.397C355.896 431.397 355.491 431.848 354.945 432.4C354.4 432.952 353.913 433.404 353.863 433.404C353.813 433.404 354.218 432.952 354.763 432.4ZM165.506 432.72C165.279 432.43 165.286 432.424 165.575 432.651C165.751 432.789 165.895 432.932 165.895 432.97C165.895 433.12 165.745 433.024 165.506 432.72ZM334.69 432.97C334.69 432.932 334.834 432.789 335.009 432.651C335.299 432.424 335.305 432.43 335.078 432.72C334.84 433.024 334.69 433.12 334.69 432.97ZM164.046 431.442C163.819 431.153 163.826 431.147 164.115 431.373C164.419 431.612 164.516 431.762 164.366 431.762C164.328 431.762 164.184 431.618 164.046 431.442ZM336.15 431.693C336.15 431.655 336.293 431.511 336.469 431.373C336.759 431.147 336.765 431.153 336.538 431.442C336.3 431.746 336.15 431.843 336.15 431.693ZM160.762 428.523C160.535 428.233 160.541 428.227 160.831 428.454C161.135 428.692 161.231 428.842 161.081 428.842C161.043 428.842 160.9 428.698 160.762 428.523ZM339.434 428.773C339.434 428.735 339.578 428.592 339.754 428.454C340.043 428.227 340.05 428.233 339.823 428.523C339.584 428.827 339.434 428.923 339.434 428.773ZM139.25 426.15L136.789 423.641L139.298 426.102C141.629 428.388 141.89 428.66 141.759 428.66C141.732 428.66 140.603 427.53 139.25 426.15ZM361.147 426.242C362.501 424.862 363.63 423.733 363.656 423.733C363.787 423.733 363.526 424.004 361.195 426.29L358.686 428.751L361.147 426.242ZM158.669 426.607L158.322 426.196L158.732 426.544C159.118 426.87 159.226 427.017 159.08 427.017C159.045 427.017 158.86 426.832 158.669 426.607ZM341.715 426.652C341.897 426.451 342.087 426.287 342.137 426.287C342.187 426.287 342.08 426.451 341.898 426.652C341.716 426.853 341.527 427.017 341.476 427.017C341.426 427.017 341.534 426.853 341.715 426.652ZM156.297 424.417L155.949 424.006L156.36 424.354C156.746 424.681 156.854 424.827 156.708 424.827C156.673 424.827 156.488 424.643 156.297 424.417ZM344.27 424.28C344.452 424.079 344.642 423.915 344.692 423.915C344.742 423.915 344.634 424.079 344.453 424.28C344.271 424.481 344.081 424.645 344.031 424.645C343.981 424.645 344.089 424.481 344.27 424.28ZM152.653 420.95L152.117 420.357L152.71 420.893C153.036 421.187 153.303 421.454 153.303 421.486C153.303 421.627 153.153 421.503 152.653 420.95ZM347.829 420.904C348.169 420.553 348.489 420.265 348.539 420.265C348.589 420.265 348.352 420.553 348.011 420.904C347.671 421.255 347.351 421.543 347.301 421.543C347.251 421.543 347.488 421.255 347.829 420.904ZM133.042 419.764L132.044 418.714L133.093 419.712C133.671 420.26 134.143 420.732 134.143 420.761C134.143 420.896 133.968 420.738 133.042 419.764ZM367.263 419.9C367.757 419.399 368.203 418.988 368.253 418.988C368.303 418.988 367.94 419.399 367.445 419.9C366.951 420.402 366.506 420.813 366.455 420.813C366.405 420.813 366.769 420.402 367.263 419.9ZM370.183 416.798C370.575 416.397 370.936 416.068 370.987 416.068C371.037 416.068 370.757 416.397 370.365 416.798C369.973 417.2 369.611 417.528 369.561 417.528C369.511 417.528 369.791 417.2 370.183 416.798ZM130.118 416.661L129.489 415.977L130.174 416.606C130.55 416.952 130.858 417.26 130.858 417.29C130.858 417.43 130.704 417.298 130.118 416.661ZM128.018 414.38L127.482 413.787L128.075 414.323C128.628 414.823 128.752 414.973 128.611 414.973C128.58 414.973 128.313 414.707 128.018 414.38ZM371.916 414.916C371.916 414.885 372.183 414.618 372.509 414.323L373.102 413.787L372.566 414.38C372.067 414.933 371.916 415.057 371.916 414.916ZM126.282 412.464L125.84 411.962L126.342 412.405C126.618 412.648 126.843 412.874 126.843 412.907C126.843 413.05 126.696 412.933 126.282 412.464ZM374.106 412.51C374.342 412.259 374.576 412.054 374.626 412.054C374.676 412.054 374.524 412.259 374.288 412.51C374.053 412.761 373.819 412.966 373.769 412.966C373.718 412.966 373.87 412.761 374.106 412.51ZM357.135 411.598C357.476 411.246 357.795 410.959 357.845 410.959C357.896 410.959 357.658 411.246 357.318 411.598C356.977 411.949 356.658 412.236 356.607 412.236C356.557 412.236 356.795 411.949 357.135 411.598ZM143.164 411.461L142.628 410.868L143.221 411.404C143.547 411.698 143.814 411.965 143.814 411.997C143.814 412.138 143.664 412.013 143.164 411.461ZM124.822 410.822L124.38 410.32L124.882 410.763C125.158 411.006 125.384 411.232 125.384 411.264C125.384 411.407 125.236 411.291 124.822 410.822ZM375.566 410.868C375.802 410.617 376.035 410.411 376.086 410.411C376.136 410.411 375.984 410.617 375.748 410.868C375.513 411.119 375.279 411.324 375.228 411.324C375.178 411.324 375.33 411.119 375.566 410.868ZM123.363 409.18L122.92 408.678L123.422 409.12C123.698 409.364 123.924 409.589 123.924 409.622C123.924 409.765 123.776 409.649 123.363 409.18ZM376.934 409.316C377.116 409.116 377.306 408.952 377.356 408.952C377.406 408.952 377.299 409.116 377.117 409.316C376.935 409.517 376.746 409.681 376.695 409.681C376.645 409.681 376.753 409.517 376.934 409.316ZM360.602 407.948C360.838 407.697 361.072 407.492 361.122 407.492C361.172 407.492 361.021 407.697 360.785 407.948C360.549 408.199 360.315 408.404 360.265 408.404C360.215 408.404 360.367 408.199 360.602 407.948ZM122.173 407.811L121.825 407.4L122.236 407.748C122.622 408.075 122.729 408.222 122.583 408.222C122.549 408.222 122.364 408.037 122.173 407.811ZM139.691 407.811L139.343 407.4L139.754 407.748C140.14 408.075 140.248 408.222 140.102 408.222C140.067 408.222 139.882 408.037 139.691 407.811ZM378.212 407.857C378.393 407.656 378.583 407.492 378.633 407.492C378.683 407.492 378.576 407.656 378.394 407.857C378.213 408.057 378.023 408.222 377.973 408.222C377.923 408.222 378.03 408.057 378.212 407.857ZM120.981 406.442C120.754 406.153 120.76 406.147 121.05 406.373C121.225 406.511 121.369 406.655 121.369 406.693C121.369 406.843 121.219 406.746 120.981 406.442ZM379.215 406.693C379.215 406.655 379.359 406.511 379.535 406.373C379.824 406.147 379.831 406.153 379.604 406.442C379.365 406.746 379.215 406.843 379.215 406.693ZM362.883 405.484C363.065 405.284 363.255 405.119 363.305 405.119C363.355 405.119 363.247 405.284 363.066 405.484C362.884 405.685 362.694 405.849 362.644 405.849C362.594 405.849 362.702 405.685 362.883 405.484ZM137.404 405.348C137.177 405.058 137.184 405.052 137.473 405.279C137.649 405.416 137.792 405.56 137.792 405.598C137.792 405.748 137.643 405.651 137.404 405.348ZM119.886 405.165C119.659 404.876 119.665 404.869 119.955 405.096C120.13 405.234 120.274 405.378 120.274 405.415C120.274 405.566 120.124 405.469 119.886 405.165ZM380.31 405.415C380.31 405.378 380.454 405.234 380.63 405.096C380.919 404.869 380.926 404.876 380.699 405.165C380.46 405.469 380.31 405.566 380.31 405.415ZM118.888 403.979L118.541 403.568L118.951 403.916C119.337 404.243 119.445 404.389 119.299 404.389C119.264 404.389 119.079 404.205 118.888 403.979ZM381.496 404.025C381.678 403.824 381.868 403.66 381.918 403.66C381.968 403.66 381.861 403.824 381.679 404.025C381.497 404.225 381.308 404.389 381.257 404.389C381.207 404.389 381.315 404.225 381.496 404.025ZM135.579 403.34C135.352 403.051 135.359 403.044 135.648 403.271C135.824 403.409 135.968 403.553 135.968 403.591C135.968 403.741 135.818 403.644 135.579 403.34ZM364.617 403.591C364.617 403.553 364.761 403.409 364.936 403.271C365.226 403.044 365.232 403.051 365.005 403.34C364.767 403.644 364.617 403.741 364.617 403.591ZM117.879 402.793C117.652 402.503 117.658 402.497 117.948 402.724C118.123 402.862 118.267 403.005 118.267 403.043C118.267 403.193 118.117 403.097 117.879 402.793ZM382.318 403.043C382.318 403.005 382.461 402.862 382.637 402.724C382.926 402.497 382.933 402.503 382.706 402.793C382.467 403.097 382.318 403.193 382.318 403.043ZM116.966 401.698C116.739 401.408 116.746 401.402 117.035 401.629C117.211 401.767 117.354 401.91 117.354 401.948C117.354 402.099 117.205 402.002 116.966 401.698ZM383.23 401.948C383.23 401.91 383.374 401.767 383.549 401.629C383.839 401.402 383.845 401.408 383.618 401.698C383.38 402.002 383.23 402.099 383.23 401.948ZM384.234 400.74C384.415 400.539 384.605 400.375 384.655 400.375C384.705 400.375 384.598 400.539 384.416 400.74C384.234 400.941 384.045 401.105 383.995 401.105C383.944 401.105 384.052 400.941 384.234 400.74ZM116.054 400.603C115.827 400.314 115.833 400.307 116.123 400.534C116.298 400.672 116.442 400.816 116.442 400.853C116.442 401.004 116.292 400.907 116.054 400.603ZM115.324 399.691C115.097 399.401 115.103 399.395 115.393 399.622C115.568 399.759 115.712 399.903 115.712 399.941C115.712 400.091 115.562 399.995 115.324 399.691ZM384.872 399.941C384.872 399.903 385.016 399.759 385.192 399.622C385.481 399.395 385.488 399.401 385.261 399.691C385.022 399.995 384.872 400.091 384.872 399.941ZM114.411 398.596C114.184 398.306 114.191 398.3 114.48 398.527C114.784 398.765 114.881 398.915 114.731 398.915C114.693 398.915 114.549 398.771 114.411 398.596ZM113.682 397.683C113.455 397.394 113.461 397.387 113.75 397.614C113.926 397.752 114.07 397.896 114.07 397.934C114.07 398.084 113.92 397.987 113.682 397.683ZM386.515 397.934C386.515 397.896 386.658 397.752 386.834 397.614C387.123 397.387 387.13 397.394 386.903 397.683C386.665 397.987 386.515 398.084 386.515 397.934ZM112.952 396.771C112.725 396.481 112.731 396.475 113.021 396.702C113.196 396.84 113.34 396.983 113.34 397.021C113.34 397.172 113.19 397.075 112.952 396.771ZM387.245 397.021C387.245 396.983 387.388 396.84 387.564 396.702C387.853 396.475 387.86 396.481 387.633 396.771C387.394 397.075 387.245 397.172 387.245 397.021ZM112.222 395.858C111.995 395.569 112.001 395.563 112.291 395.79C112.466 395.927 112.61 396.071 112.61 396.109C112.61 396.259 112.46 396.162 112.222 395.858ZM387.975 396.109C387.975 396.071 388.118 395.927 388.294 395.79C388.583 395.563 388.59 395.569 388.363 395.858C388.124 396.162 387.975 396.259 387.975 396.109ZM110.214 393.304C109.987 393.014 109.994 393.008 110.283 393.235C110.459 393.373 110.603 393.516 110.603 393.554C110.603 393.704 110.453 393.608 110.214 393.304ZM389.982 393.554C389.982 393.516 390.126 393.373 390.301 393.235C390.591 393.008 390.597 393.014 390.37 393.304C390.132 393.608 389.982 393.704 389.982 393.554ZM108.937 391.661C108.71 391.372 108.716 391.366 109.006 391.593C109.31 391.831 109.407 391.981 109.256 391.981C109.218 391.981 109.075 391.837 108.937 391.661ZM391.259 391.912C391.259 391.874 391.403 391.73 391.579 391.593C391.868 391.366 391.874 391.372 391.647 391.661C391.409 391.965 391.259 392.062 391.259 391.912ZM106.565 388.559C106.338 388.27 106.344 388.263 106.634 388.49C106.809 388.628 106.953 388.772 106.953 388.81C106.953 388.96 106.803 388.863 106.565 388.559ZM106.017 387.829C105.79 387.54 105.797 387.533 106.086 387.76C106.262 387.898 106.406 388.042 106.406 388.08C106.406 388.23 106.256 388.133 106.017 387.829ZM394.179 388.08C394.179 388.042 394.323 387.898 394.498 387.76C394.788 387.533 394.794 387.54 394.567 387.829C394.329 388.133 394.179 388.23 394.179 388.08ZM105.47 387.099C105.243 386.81 105.249 386.803 105.539 387.03C105.714 387.168 105.858 387.312 105.858 387.35C105.858 387.5 105.708 387.403 105.47 387.099ZM102.915 383.632C102.688 383.343 102.695 383.336 102.984 383.563C103.16 383.701 103.303 383.845 103.303 383.883C103.303 384.033 103.154 383.936 102.915 383.632ZM397.281 383.883C397.281 383.845 397.425 383.701 397.6 383.563C397.89 383.336 397.896 383.343 397.669 383.632C397.431 383.936 397.281 384.033 397.281 383.883ZM40.9091 248.809C40.9178 248.596 40.9611 248.553 41.0193 248.699C41.0721 248.83 41.0656 248.988 41.0049 249.048C40.9443 249.109 40.9012 249.001 40.9091 248.809ZM39.6317 243.334C39.6405 243.122 39.6837 243.078 39.742 243.224C39.7947 243.356 39.7882 243.513 39.7276 243.574C39.6669 243.634 39.6238 243.527 39.6317 243.334ZM460.799 243.334C460.808 243.122 460.851 243.078 460.909 243.224C460.962 243.356 460.956 243.513 460.895 243.574C460.834 243.634 460.791 243.527 460.799 243.334ZM39.2668 241.692C39.2755 241.479 39.3188 241.436 39.377 241.582C39.4297 241.713 39.4232 241.871 39.3626 241.932C39.302 241.992 39.2588 241.884 39.2668 241.692ZM461.164 241.692C461.173 241.479 461.216 241.436 461.274 241.582C461.327 241.713 461.321 241.871 461.26 241.932C461.199 241.992 461.156 241.884 461.164 241.692ZM38.9018 240.05C38.9105 239.837 38.9538 239.794 39.012 239.939C39.0648 240.071 39.0583 240.229 38.9976 240.289C38.937 240.35 38.8939 240.242 38.9018 240.05ZM461.529 240.05C461.538 239.837 461.581 239.794 461.639 239.939C461.692 240.071 461.685 240.229 461.625 240.289C461.564 240.35 461.521 240.242 461.529 240.05ZM38.3543 237.495C38.3631 237.282 38.4063 237.239 38.4646 237.385C38.5173 237.516 38.5108 237.674 38.4502 237.734C38.3896 237.795 38.3464 237.687 38.3543 237.495ZM462.076 237.495C462.085 237.282 462.128 237.239 462.187 237.385C462.239 237.516 462.233 237.674 462.172 237.734C462.112 237.795 462.069 237.687 462.076 237.495ZM38.1719 236.583C38.1806 236.37 38.2239 236.327 38.2821 236.472C38.3348 236.604 38.3283 236.761 38.2677 236.822C38.2071 236.883 38.1639 236.775 38.1719 236.583ZM462.259 236.583C462.268 236.37 462.311 236.327 462.369 236.472C462.422 236.604 462.415 236.761 462.355 236.822C462.294 236.883 462.251 236.775 462.259 236.583ZM37.077 231.108C37.0857 230.895 37.129 230.852 37.1872 230.998C37.2399 231.13 37.2335 231.287 37.1728 231.348C37.1122 231.408 37.0691 231.3 37.077 231.108ZM463.354 231.108C463.363 230.895 463.406 230.852 463.464 230.998C463.517 231.13 463.51 231.287 463.45 231.348C463.389 231.408 463.346 231.3 463.354 231.108ZM36.8945 230.196C36.9033 229.983 36.9465 229.94 37.0047 230.085C37.0575 230.217 37.051 230.375 36.9903 230.435C36.9297 230.496 36.8866 230.388 36.8945 230.196ZM463.536 230.196C463.545 229.983 463.588 229.94 463.647 230.085C463.699 230.217 463.693 230.375 463.632 230.435C463.572 230.496 463.528 230.388 463.536 230.196ZM36.712 229.283C36.7208 229.071 36.764 229.027 36.8223 229.173C36.875 229.305 36.8685 229.462 36.8079 229.523C36.7472 229.583 36.7041 229.476 36.712 229.283ZM463.719 229.283C463.728 229.071 463.771 229.027 463.829 229.173C463.882 229.305 463.875 229.462 463.815 229.523C463.754 229.583 463.711 229.476 463.719 229.283ZM463.901 228.188C463.91 227.976 463.953 227.933 464.012 228.078C464.064 228.21 464.058 228.367 463.997 228.428C463.937 228.489 463.893 228.381 463.901 228.188ZM36.3471 227.276C36.3558 227.063 36.399 227.02 36.4573 227.166C36.51 227.297 36.5035 227.455 36.4429 227.515C36.3823 227.576 36.3391 227.468 36.3471 227.276ZM464.084 227.276C464.093 227.063 464.136 227.02 464.194 227.166C464.247 227.297 464.24 227.455 464.18 227.515C464.119 227.576 464.076 227.468 464.084 227.276ZM35.9821 225.269C35.9908 225.056 36.0341 225.013 36.0923 225.158C36.1451 225.29 36.1386 225.448 36.0779 225.508C36.0173 225.569 35.9742 225.461 35.9821 225.269ZM464.449 225.269C464.457 225.056 464.501 225.013 464.559 225.158C464.612 225.29 464.605 225.448 464.545 225.508C464.484 225.569 464.441 225.461 464.449 225.269ZM35.7996 224.174C35.8084 223.961 35.8516 223.918 35.9099 224.064C35.9626 224.195 35.9561 224.353 35.8954 224.413C35.8348 224.474 35.7917 224.366 35.7996 224.174ZM464.631 224.174C464.64 223.961 464.683 223.918 464.741 224.064C464.794 224.195 464.788 224.353 464.727 224.413C464.666 224.474 464.623 224.366 464.631 224.174ZM35.6171 223.079C35.6259 222.866 35.6691 222.823 35.7274 222.969C35.7801 223.1 35.7736 223.258 35.713 223.318C35.6523 223.379 35.6092 223.271 35.6171 223.079ZM464.814 223.079C464.822 222.866 464.866 222.823 464.924 222.969C464.977 223.1 464.97 223.258 464.91 223.318C464.849 223.379 464.806 223.271 464.814 223.079ZM464.996 221.984C465.005 221.771 465.048 221.728 465.106 221.874C465.159 222.005 465.153 222.163 465.092 222.223C465.031 222.284 464.988 222.176 464.996 221.984ZM35.2522 221.072C35.2609 220.859 35.3042 220.816 35.3624 220.961C35.4151 221.093 35.4086 221.25 35.348 221.311C35.2874 221.372 35.2442 221.264 35.2522 221.072ZM465.179 220.889C465.187 220.677 465.231 220.633 465.289 220.779C465.342 220.911 465.335 221.068 465.275 221.129C465.214 221.189 465.171 221.081 465.179 220.889ZM35.0697 219.794C35.0784 219.582 35.1217 219.538 35.1799 219.684C35.2326 219.816 35.2262 219.973 35.1655 220.034C35.1049 220.094 35.0618 219.987 35.0697 219.794ZM465.361 219.794C465.37 219.582 465.413 219.538 465.471 219.684C465.524 219.816 465.518 219.973 465.457 220.034C465.396 220.094 465.353 219.987 465.361 219.794ZM34.8872 218.699C34.896 218.487 34.9392 218.443 34.9974 218.589C35.0502 218.721 35.0437 218.878 34.983 218.939C34.9224 218.999 34.8793 218.892 34.8872 218.699ZM465.544 218.699C465.552 218.487 465.596 218.443 465.654 218.589C465.707 218.721 465.7 218.878 465.639 218.939C465.579 218.999 465.536 218.892 465.544 218.699ZM34.7047 217.604C34.7135 217.392 34.7567 217.349 34.815 217.494C34.8677 217.626 34.8612 217.783 34.8006 217.844C34.7399 217.905 34.6968 217.797 34.7047 217.604ZM465.726 217.604C465.735 217.392 465.778 217.349 465.836 217.494C465.889 217.626 465.883 217.783 465.822 217.844C465.761 217.905 465.718 217.797 465.726 217.604ZM34.5366 216.433C34.5366 216.183 34.5781 216.08 34.6287 216.205C34.6793 216.331 34.6793 216.536 34.6287 216.662C34.5781 216.787 34.5366 216.684 34.5366 216.433ZM465.923 216.433C465.923 216.183 465.964 216.08 466.015 216.205C466.066 216.331 466.066 216.536 466.015 216.662C465.964 216.787 465.923 216.684 465.923 216.433ZM34.3398 215.232C34.3485 215.02 34.3918 214.976 34.45 215.122C34.5027 215.254 34.4962 215.411 34.4356 215.472C34.375 215.532 34.3318 215.425 34.3398 215.232ZM466.091 215.232C466.1 215.02 466.143 214.976 466.201 215.122C466.254 215.254 466.248 215.411 466.187 215.472C466.126 215.532 466.083 215.425 466.091 215.232ZM34.1573 213.955C34.166 213.742 34.2093 213.699 34.2675 213.845C34.3202 213.976 34.3138 214.134 34.2531 214.194C34.1925 214.255 34.1494 214.147 34.1573 213.955ZM466.274 213.955C466.282 213.742 466.326 213.699 466.384 213.845C466.436 213.976 466.43 214.134 466.369 214.194C466.309 214.255 466.266 214.147 466.274 213.955ZM33.9892 212.784C33.9892 212.533 34.0306 212.43 34.0812 212.556C34.1319 212.681 34.1319 212.887 34.0812 213.012C34.0306 213.137 33.9892 213.035 33.9892 212.784ZM466.47 212.784C466.47 212.533 466.512 212.43 466.562 212.556C466.613 212.681 466.613 212.887 466.562 213.012C466.512 213.137 466.47 213.035 466.47 212.784ZM33.8067 211.507C33.8067 211.256 33.8481 211.153 33.8988 211.278C33.9494 211.404 33.9494 211.609 33.8988 211.735C33.8481 211.86 33.8067 211.757 33.8067 211.507ZM466.653 211.507C466.653 211.256 466.694 211.153 466.745 211.278C466.796 211.404 466.796 211.609 466.745 211.735C466.694 211.86 466.653 211.757 466.653 211.507ZM33.6242 210.229C33.6242 209.978 33.6657 209.876 33.7163 210.001C33.7669 210.126 33.7669 210.332 33.7163 210.457C33.6657 210.583 33.6242 210.48 33.6242 210.229ZM466.835 210.229C466.835 209.978 466.877 209.876 466.927 210.001C466.978 210.126 466.978 210.332 466.927 210.457C466.877 210.583 466.835 210.48 466.835 210.229ZM33.4273 208.845C33.4361 208.633 33.4793 208.589 33.5376 208.735C33.5903 208.867 33.5838 209.024 33.5232 209.085C33.4626 209.145 33.4194 209.038 33.4273 208.845ZM467.003 208.845C467.012 208.633 467.055 208.589 467.114 208.735C467.166 208.867 467.16 209.024 467.099 209.085C467.039 209.145 466.996 209.038 467.003 208.845ZM33.2593 207.492C33.2593 207.241 33.3007 207.138 33.3513 207.264C33.4019 207.389 33.4019 207.595 33.3513 207.72C33.3007 207.845 33.2593 207.743 33.2593 207.492ZM467.2 207.492C467.2 207.241 467.242 207.138 467.292 207.264C467.343 207.389 467.343 207.595 467.292 207.72C467.242 207.845 467.2 207.743 467.2 207.492ZM33.0768 206.032C33.0768 205.781 33.1182 205.678 33.1688 205.804C33.2195 205.929 33.2195 206.135 33.1688 206.26C33.1182 206.386 33.0768 206.283 33.0768 206.032ZM467.383 206.032C467.383 205.781 467.424 205.678 467.475 205.804C467.525 205.929 467.525 206.135 467.475 206.26C467.424 206.386 467.383 206.283 467.383 206.032ZM32.8943 204.572C32.8943 204.321 32.9357 204.219 32.9864 204.344C33.037 204.47 33.037 204.675 32.9864 204.8C32.9357 204.926 32.8943 204.823 32.8943 204.572ZM467.565 204.572C467.565 204.321 467.607 204.219 467.657 204.344C467.708 204.47 467.708 204.675 467.657 204.8C467.607 204.926 467.565 204.823 467.565 204.572ZM32.7118 203.112C32.7118 202.861 32.7532 202.759 32.8039 202.884C32.8545 203.01 32.8545 203.215 32.8039 203.34C32.7532 203.466 32.7118 203.363 32.7118 203.112ZM467.748 203.112C467.748 202.861 467.789 202.759 467.84 202.884C467.89 203.01 467.89 203.215 467.84 203.34C467.789 203.466 467.748 203.363 467.748 203.112ZM32.5361 201.561C32.5398 201.26 32.5807 201.159 32.627 201.337C32.6733 201.514 32.6702 201.761 32.6202 201.884C32.5702 202.008 32.5324 201.862 32.5361 201.561ZM467.93 201.47C467.93 201.219 467.972 201.116 468.022 201.242C468.073 201.367 468.073 201.573 468.022 201.698C467.972 201.824 467.93 201.721 467.93 201.47ZM44.0113 200.269C44.02 200.056 44.0633 200.013 44.1215 200.158C44.1742 200.29 44.1678 200.448 44.1071 200.508C44.0465 200.569 44.0034 200.461 44.0113 200.269ZM32.3536 199.919C32.3573 199.618 32.3982 199.517 32.4445 199.694C32.4908 199.872 32.4877 200.118 32.4377 200.242C32.3878 200.365 32.3499 200.22 32.3536 199.919ZM468.119 199.919C468.123 199.618 468.164 199.517 468.21 199.694C468.257 199.872 468.254 200.118 468.204 200.242C468.154 200.365 468.116 200.22 468.119 199.919ZM32.1711 198.277C32.1749 197.975 32.2158 197.874 32.262 198.052C32.3083 198.23 32.3053 198.476 32.2553 198.599C32.2053 198.723 32.1674 198.578 32.1711 198.277ZM468.302 198.277C468.306 197.975 468.347 197.874 468.393 198.052C468.439 198.23 468.436 198.476 468.386 198.599C468.336 198.723 468.298 198.578 468.302 198.277ZM43.6463 197.167C43.6551 196.954 43.6983 196.911 43.7566 197.056C43.8093 197.188 43.8028 197.345 43.7422 197.406C43.6815 197.467 43.6384 197.359 43.6463 197.167ZM456.784 197.167C456.793 196.954 456.836 196.911 456.895 197.056C456.947 197.188 456.941 197.345 456.88 197.406C456.82 197.467 456.777 197.359 456.784 197.167ZM31.9887 196.452C31.9924 196.151 32.0333 196.05 32.0795 196.227C32.1258 196.405 32.1228 196.651 32.0728 196.775C32.0228 196.898 31.9849 196.753 31.9887 196.452ZM468.484 196.452C468.488 196.151 468.529 196.05 468.575 196.227C468.622 196.405 468.619 196.651 468.569 196.775C468.519 196.898 468.481 196.753 468.484 196.452ZM43.4638 195.524C43.4726 195.312 43.5158 195.268 43.5741 195.414C43.6268 195.546 43.6203 195.703 43.5597 195.764C43.499 195.824 43.4559 195.717 43.4638 195.524ZM456.967 195.524C456.976 195.312 457.019 195.268 457.077 195.414C457.13 195.546 457.123 195.703 457.063 195.764C457.002 195.824 456.959 195.717 456.967 195.524ZM31.8062 194.627C31.8099 194.326 31.8508 194.225 31.8971 194.402C31.9433 194.58 31.9403 194.826 31.8903 194.95C31.8403 195.073 31.8025 194.928 31.8062 194.627ZM468.667 194.627C468.671 194.326 468.712 194.225 468.758 194.402C468.804 194.58 468.801 194.826 468.751 194.95C468.701 195.073 468.663 194.928 468.667 194.627ZM31.6237 192.802C31.6274 192.501 31.6683 192.4 31.7146 192.578C31.7609 192.755 31.7578 193.001 31.7078 193.125C31.6578 193.249 31.62 193.103 31.6237 192.802ZM468.849 192.802C468.853 192.501 468.894 192.4 468.94 192.578C468.987 192.755 468.984 193.001 468.934 193.125C468.884 193.249 468.846 193.103 468.849 192.802ZM31.4412 190.795C31.4449 190.494 31.4858 190.393 31.5321 190.57C31.5784 190.748 31.5753 190.994 31.5253 191.118C31.4754 191.241 31.4375 191.096 31.4412 190.795ZM469.032 190.795C469.036 190.494 469.077 190.393 469.123 190.57C469.169 190.748 469.166 190.994 469.116 191.118C469.066 191.241 469.028 191.096 469.032 190.795ZM42.9164 190.05C42.9251 189.837 42.9684 189.794 43.0266 189.939C43.0794 190.071 43.0729 190.229 43.0122 190.289C42.9516 190.35 42.9085 190.242 42.9164 190.05ZM457.514 190.05C457.523 189.837 457.566 189.794 457.625 189.939C457.677 190.071 457.671 190.229 457.61 190.289C457.55 190.35 457.507 190.242 457.514 190.05ZM31.2655 188.696C31.2655 188.345 31.3031 188.201 31.349 188.377C31.3949 188.553 31.3949 188.84 31.349 189.016C31.3031 189.191 31.2655 189.048 31.2655 188.696ZM469.221 188.696C469.221 188.345 469.259 188.201 469.305 188.377C469.351 188.553 469.351 188.84 469.305 189.016C469.259 189.191 469.221 189.048 469.221 188.696ZM42.7339 188.042C42.7427 187.83 42.7859 187.787 42.8442 187.932C42.8969 188.064 42.8904 188.221 42.8297 188.282C42.7691 188.343 42.726 188.235 42.7339 188.042ZM457.697 188.042C457.706 187.83 457.749 187.787 457.807 187.932C457.86 188.064 457.853 188.221 457.793 188.282C457.732 188.343 457.689 188.235 457.697 188.042ZM31.083 186.324C31.083 185.973 31.1206 185.829 31.1665 186.005C31.2124 186.18 31.2124 186.468 31.1665 186.643C31.1206 186.819 31.083 186.675 31.083 186.324ZM469.404 186.324C469.404 185.973 469.441 185.829 469.487 186.005C469.533 186.18 469.533 186.468 469.487 186.643C469.441 186.819 469.404 186.675 469.404 186.324ZM42.5514 185.853C42.5602 185.64 42.6034 185.597 42.6617 185.742C42.7144 185.874 42.7079 186.032 42.6473 186.092C42.5866 186.153 42.5435 186.045 42.5514 185.853ZM457.879 185.853C457.888 185.64 457.931 185.597 457.99 185.742C458.042 185.874 458.036 186.032 457.975 186.092C457.915 186.153 457.871 186.045 457.879 185.853ZM30.9042 183.861C30.9062 183.459 30.9436 183.316 30.9873 183.543C31.0309 183.77 31.0293 184.099 30.9836 184.273C30.9379 184.448 30.9022 184.262 30.9042 183.861ZM469.59 183.861C469.592 183.459 469.629 183.316 469.673 183.543C469.717 183.77 469.715 184.099 469.669 184.273C469.624 184.448 469.588 184.262 469.59 183.861ZM42.3833 183.587C42.3833 183.336 42.4248 183.233 42.4754 183.359C42.526 183.484 42.526 183.689 42.4754 183.815C42.4248 183.94 42.3833 183.838 42.3833 183.587ZM458.076 183.587C458.076 183.336 458.118 183.233 458.168 183.359C458.219 183.484 458.219 183.689 458.168 183.815C458.118 183.94 458.076 183.838 458.076 183.587ZM30.7254 181.215C30.7254 180.763 30.761 180.578 30.8045 180.804C30.848 181.03 30.848 181.399 30.8045 181.625C30.761 181.851 30.7254 181.666 30.7254 181.215ZM469.776 181.215C469.776 180.763 469.812 180.578 469.855 180.804C469.899 181.03 469.899 181.399 469.855 181.625C469.812 181.851 469.776 181.666 469.776 181.215ZM42.2009 181.032C42.2009 180.781 42.2423 180.679 42.2929 180.804C42.3435 180.929 42.3435 181.135 42.2929 181.26C42.2423 181.386 42.2009 181.283 42.2009 181.032ZM458.244 181.108C458.253 180.896 458.296 180.852 458.355 180.998C458.407 181.13 458.401 181.287 458.34 181.348C458.28 181.408 458.236 181.3 458.244 181.108ZM30.5454 178.204C30.5468 177.702 30.5822 177.518 30.6242 177.796C30.6661 178.073 30.665 178.484 30.6217 178.708C30.5784 178.932 30.5441 178.705 30.5454 178.204ZM469.958 178.112C469.958 177.661 469.994 177.476 470.038 177.702C470.081 177.928 470.081 178.297 470.038 178.523C469.994 178.749 469.958 178.564 469.958 178.112ZM42.0184 178.295C42.0184 178.044 42.0598 177.941 42.1104 178.067C42.161 178.192 42.161 178.398 42.1104 178.523C42.0598 178.648 42.0184 178.546 42.0184 178.295ZM458.441 178.295C458.441 178.044 458.483 177.941 458.533 178.067C458.584 178.192 458.584 178.398 458.533 178.523C458.483 178.648 458.441 178.546 458.441 178.295ZM41.8427 175.284C41.8464 174.983 41.8873 174.882 41.9335 175.059C41.9798 175.237 41.9768 175.483 41.9268 175.607C41.8768 175.73 41.8389 175.585 41.8427 175.284ZM458.63 175.284C458.634 174.983 458.675 174.882 458.721 175.059C458.768 175.237 458.765 175.483 458.715 175.607C458.665 175.73 458.627 175.585 458.63 175.284ZM30.3654 174.645C30.3654 174.093 30.3996 173.867 30.4415 174.143C30.4833 174.419 30.4833 174.871 30.4415 175.147C30.3996 175.423 30.3654 175.197 30.3654 174.645ZM470.148 174.554C470.15 173.952 470.183 173.727 470.223 174.055C470.264 174.383 470.263 174.876 470.221 175.15C470.18 175.425 470.146 175.156 470.147 174.554H470.148ZM41.6669 171.543C41.6669 171.192 41.7045 171.048 41.7504 171.224C41.7963 171.399 41.7963 171.687 41.7504 171.862C41.7045 172.038 41.6669 171.894 41.6669 171.543ZM458.82 171.543C458.82 171.192 458.857 171.048 458.903 171.224C458.949 171.399 458.949 171.687 458.903 171.862C458.857 172.038 458.82 171.894 458.82 171.543ZM30.1896 170.266C30.1896 169.513 30.2218 169.205 30.2612 169.581C30.3006 169.958 30.3006 170.574 30.2612 170.95C30.2218 171.326 30.1896 171.018 30.1896 170.266ZM470.335 170.266C470.335 169.513 470.367 169.205 470.407 169.581C470.446 169.958 470.446 170.574 470.407 170.95C470.367 171.326 470.335 171.018 470.335 170.266ZM41.4918 166.799C41.4918 166.347 41.5274 166.162 41.5709 166.388C41.6144 166.614 41.6144 166.983 41.5709 167.209C41.5274 167.435 41.4918 167.25 41.4918 166.799ZM459.01 166.799C459.01 166.347 459.045 166.162 459.089 166.388C459.132 166.614 459.132 166.983 459.089 167.209C459.045 167.435 459.01 167.25 459.01 166.799ZM30.0161 163.696C30.0161 162.442 30.0453 161.929 30.0809 162.556C30.1165 163.183 30.1165 164.21 30.0809 164.837C30.0453 165.464 30.0161 164.951 30.0161 163.696ZM470.527 163.696C470.527 162.442 470.556 161.929 470.591 162.556C470.627 163.183 470.627 164.21 470.591 164.837C470.556 165.464 470.527 164.951 470.527 163.696ZM41.3412 154.207C41.3412 150.945 41.3659 149.611 41.3962 151.242C41.4264 152.873 41.4264 155.542 41.3962 157.173C41.3659 158.804 41.3412 157.469 41.3412 154.207ZM459.224 154.207C459.224 150.945 459.249 149.611 459.279 151.242C459.309 152.873 459.309 155.542 459.279 157.173C459.249 158.804 459.224 157.469 459.224 154.207ZM30.0161 147.091C30.0161 145.836 30.0453 145.323 30.0809 145.95C30.1165 146.577 30.1165 147.604 30.0809 148.231C30.0453 148.858 30.0161 148.345 30.0161 147.091ZM470.527 147.091C470.527 145.836 470.556 145.323 470.591 145.95C470.627 146.577 470.627 147.604 470.591 148.231C470.556 148.858 470.527 148.345 470.527 147.091ZM41.4918 141.616C41.4918 141.164 41.5274 140.98 41.5709 141.205C41.6144 141.431 41.6144 141.801 41.5709 142.027C41.5274 142.252 41.4918 142.068 41.4918 141.616ZM459.01 141.616C459.01 141.164 459.045 140.98 459.089 141.205C459.132 141.431 459.132 141.801 459.089 142.027C459.045 142.252 459.01 142.068 459.01 141.616ZM30.1896 140.521C30.1896 139.768 30.2218 139.461 30.2612 139.837C30.3006 140.213 30.3006 140.829 30.2612 141.205C30.2218 141.582 30.1896 141.274 30.1896 140.521ZM470.335 140.521C470.335 139.768 470.367 139.461 470.407 139.837C470.446 140.213 470.446 140.829 470.407 141.205C470.367 141.582 470.335 141.274 470.335 140.521ZM41.6669 136.872C41.6669 136.52 41.7045 136.377 41.7504 136.552C41.7963 136.728 41.7963 137.015 41.7504 137.191C41.7045 137.367 41.6669 137.223 41.6669 136.872ZM458.82 136.872C458.82 136.52 458.857 136.377 458.903 136.552C458.949 136.728 458.949 137.015 458.903 137.191C458.857 137.367 458.82 137.223 458.82 136.872ZM30.3673 136.233C30.3683 135.631 30.4024 135.406 30.443 135.734C30.4836 136.062 30.4828 136.555 30.4411 136.829C30.3995 137.103 30.3663 136.835 30.3673 136.233ZM470.148 136.233C470.15 135.631 470.183 135.406 470.223 135.734C470.264 136.062 470.263 136.555 470.221 136.829C470.18 137.103 470.146 136.835 470.147 136.233H470.148ZM41.8427 133.131C41.8464 132.83 41.8873 132.729 41.9335 132.906C41.9798 133.084 41.9768 133.33 41.9268 133.453C41.8768 133.577 41.8389 133.432 41.8427 133.131ZM458.63 133.131C458.634 132.83 458.675 132.729 458.721 132.906C458.768 133.084 458.765 133.33 458.715 133.453C458.665 133.577 458.627 133.432 458.63 133.131ZM469.961 132.766C469.963 132.264 469.998 132.08 470.04 132.358C470.082 132.635 470.081 133.046 470.037 133.27C469.994 133.494 469.96 133.268 469.961 132.766ZM30.5429 132.674C30.5429 132.223 30.5785 132.038 30.622 132.264C30.6655 132.49 30.6655 132.859 30.622 133.085C30.5785 133.311 30.5429 133.126 30.5429 132.674ZM42.0184 130.12C42.0184 129.869 42.0598 129.766 42.1104 129.892C42.161 130.017 42.161 130.222 42.1104 130.348C42.0598 130.473 42.0184 130.371 42.0184 130.12ZM458.441 130.12C458.441 129.869 458.483 129.766 458.533 129.892C458.584 130.017 458.584 130.222 458.533 130.348C458.483 130.473 458.441 130.371 458.441 130.12ZM30.7254 129.572C30.7254 129.121 30.761 128.936 30.8045 129.162C30.848 129.388 30.848 129.757 30.8045 129.983C30.761 130.209 30.7254 130.024 30.7254 129.572ZM469.772 129.664C469.775 129.262 469.812 129.119 469.855 129.346C469.899 129.573 469.897 129.902 469.852 130.076C469.806 130.251 469.77 130.065 469.772 129.664ZM30.9042 126.926C30.9062 126.525 30.9436 126.382 30.9873 126.609C31.0309 126.836 31.0293 127.165 30.9836 127.339C30.9379 127.513 30.9022 127.328 30.9042 126.926ZM42.1865 127.276C42.1952 127.063 42.2385 127.02 42.2967 127.166C42.3494 127.298 42.3429 127.455 42.2823 127.516C42.2217 127.576 42.1785 127.468 42.1865 127.276ZM458.244 127.276C458.253 127.063 458.296 127.02 458.355 127.166C458.407 127.298 458.401 127.455 458.34 127.516C458.28 127.576 458.236 127.468 458.244 127.276ZM469.59 126.926C469.592 126.525 469.629 126.382 469.673 126.609C469.717 126.836 469.715 127.165 469.669 127.339C469.624 127.513 469.588 127.328 469.59 126.926ZM42.3833 124.828C42.3833 124.577 42.4248 124.474 42.4754 124.6C42.526 124.725 42.526 124.93 42.4754 125.056C42.4248 125.181 42.3833 125.079 42.3833 124.828ZM458.076 124.828C458.076 124.577 458.118 124.474 458.168 124.6C458.219 124.725 458.219 124.93 458.168 125.056C458.118 125.181 458.076 125.079 458.076 124.828ZM31.083 124.463C31.083 124.112 31.1206 123.968 31.1665 124.143C31.2124 124.319 31.2124 124.607 31.1665 124.782C31.1206 124.958 31.083 124.814 31.083 124.463ZM469.404 124.463C469.404 124.112 469.441 123.968 469.487 124.143C469.533 124.319 469.533 124.607 469.487 124.782C469.441 124.958 469.404 124.814 469.404 124.463ZM42.5514 122.532C42.5602 122.319 42.6034 122.276 42.6617 122.421C42.7144 122.553 42.7079 122.71 42.6473 122.771C42.5866 122.832 42.5435 122.724 42.5514 122.532ZM457.879 122.532C457.888 122.319 457.931 122.276 457.99 122.421C458.042 122.553 458.036 122.71 457.975 122.771C457.915 122.832 457.871 122.724 457.879 122.532ZM31.2655 122.091C31.2655 121.739 31.3031 121.596 31.349 121.771C31.3949 121.947 31.3949 122.234 31.349 122.41C31.3031 122.586 31.2655 122.442 31.2655 122.091ZM469.221 122.091C469.221 121.739 469.259 121.596 469.305 121.771C469.351 121.947 469.351 122.234 469.305 122.41C469.259 122.586 469.221 122.442 469.221 122.091ZM31.448 120.083C31.448 119.732 31.4855 119.588 31.5314 119.764C31.5773 119.94 31.5773 120.227 31.5314 120.403C31.4855 120.578 31.448 120.435 31.448 120.083ZM42.7339 120.342C42.7427 120.129 42.7859 120.086 42.8442 120.232C42.8969 120.363 42.8904 120.521 42.8297 120.581C42.7691 120.642 42.726 120.534 42.7339 120.342ZM457.697 120.342C457.706 120.129 457.749 120.086 457.807 120.232C457.86 120.363 457.853 120.521 457.793 120.581C457.732 120.642 457.689 120.534 457.697 120.342ZM469.039 120.083C469.039 119.732 469.076 119.588 469.122 119.764C469.168 119.94 469.168 120.227 469.122 120.403C469.076 120.578 469.039 120.435 469.039 120.083ZM42.9164 118.334C42.9251 118.122 42.9684 118.079 43.0266 118.224C43.0794 118.356 43.0729 118.513 43.0122 118.574C42.9516 118.635 42.9085 118.527 42.9164 118.334ZM457.514 118.334C457.523 118.122 457.566 118.079 457.625 118.224C457.677 118.356 457.671 118.513 457.61 118.574C457.55 118.635 457.507 118.527 457.514 118.334ZM31.6237 117.985C31.6274 117.684 31.6683 117.583 31.7146 117.76C31.7609 117.938 31.7578 118.184 31.7078 118.308C31.6578 118.431 31.62 118.286 31.6237 117.985ZM468.849 117.985C468.853 117.684 468.894 117.583 468.94 117.76C468.987 117.938 468.984 118.184 468.934 118.308C468.884 118.431 468.846 118.286 468.849 117.985ZM31.8062 116.16C31.8099 115.859 31.8508 115.758 31.8971 115.935C31.9433 116.113 31.9403 116.359 31.8903 116.483C31.8403 116.606 31.8025 116.461 31.8062 116.16ZM468.667 116.16C468.671 115.859 468.712 115.758 468.758 115.935C468.804 116.113 468.801 116.359 468.751 116.483C468.701 116.606 468.663 116.461 468.667 116.16ZM31.9887 114.335C31.9924 114.034 32.0333 113.933 32.0795 114.11C32.1258 114.288 32.1228 114.534 32.0728 114.658C32.0228 114.781 31.9849 114.636 31.9887 114.335ZM468.484 114.335C468.488 114.034 468.529 113.933 468.575 114.11C468.622 114.288 468.619 114.534 468.569 114.658C468.519 114.781 468.481 114.636 468.484 114.335ZM43.4638 112.86C43.4726 112.647 43.5158 112.604 43.5741 112.75C43.6268 112.882 43.6203 113.039 43.5597 113.1C43.499 113.16 43.4559 113.052 43.4638 112.86ZM456.967 112.86C456.976 112.647 457.019 112.604 457.077 112.75C457.13 112.882 457.123 113.039 457.063 113.1C457.002 113.16 456.959 113.052 456.967 112.86ZM32.1711 112.51C32.1749 112.209 32.2158 112.108 32.262 112.286C32.3083 112.463 32.3053 112.71 32.2553 112.833C32.2053 112.957 32.1674 112.811 32.1711 112.51ZM468.302 112.51C468.306 112.209 468.347 112.108 468.393 112.286C468.439 112.463 468.436 112.71 468.386 112.833C468.336 112.957 468.298 112.811 468.302 112.51ZM43.6463 111.218C43.6551 111.005 43.6983 110.962 43.7566 111.107C43.8093 111.239 43.8028 111.397 43.7422 111.457C43.6815 111.518 43.6384 111.41 43.6463 111.218ZM456.784 111.218C456.793 111.005 456.836 110.962 456.895 111.107C456.947 111.239 456.941 111.397 456.88 111.457C456.82 111.518 456.777 111.41 456.784 111.218ZM32.3536 110.868C32.3573 110.567 32.3982 110.466 32.4445 110.643C32.4908 110.821 32.4877 111.067 32.4377 111.191C32.3878 111.314 32.3499 111.169 32.3536 110.868ZM468.119 110.868C468.123 110.567 468.164 110.466 468.21 110.643C468.257 110.821 468.254 111.067 468.204 111.191C468.154 111.314 468.116 111.169 468.119 110.868ZM32.5293 109.317C32.5293 109.066 32.5708 108.963 32.6214 109.089C32.672 109.214 32.672 109.419 32.6214 109.545C32.5708 109.67 32.5293 109.568 32.5293 109.317ZM467.93 109.317C467.93 109.066 467.972 108.963 468.022 109.089C468.073 109.214 468.073 109.419 468.022 109.545C467.972 109.67 467.93 109.568 467.93 109.317ZM44.0113 108.116C44.02 107.903 44.0633 107.86 44.1215 108.005C44.1742 108.137 44.1678 108.294 44.1071 108.355C44.0465 108.416 44.0034 108.308 44.0113 108.116ZM456.42 108.116C456.428 107.903 456.472 107.86 456.53 108.005C456.582 108.137 456.576 108.294 456.515 108.355C456.455 108.416 456.412 108.308 456.42 108.116ZM32.7118 107.675C32.7118 107.424 32.7532 107.321 32.8039 107.446C32.8545 107.572 32.8545 107.777 32.8039 107.903C32.7532 108.028 32.7118 107.925 32.7118 107.675ZM467.748 107.675C467.748 107.424 467.789 107.321 467.84 107.446C467.89 107.572 467.89 107.777 467.84 107.903C467.789 108.028 467.748 107.925 467.748 107.675ZM32.8943 106.215C32.8943 105.964 32.9357 105.861 32.9864 105.987C33.037 106.112 33.037 106.317 32.9864 106.443C32.9357 106.568 32.8943 106.466 32.8943 106.215ZM467.565 106.215C467.565 105.964 467.607 105.861 467.657 105.987C467.708 106.112 467.708 106.317 467.657 106.443C467.607 106.568 467.565 106.466 467.565 106.215ZM33.0768 104.755C33.0768 104.504 33.1182 104.401 33.1688 104.527C33.2195 104.652 33.2195 104.857 33.1688 104.983C33.1182 105.108 33.0768 105.006 33.0768 104.755ZM467.383 104.755C467.383 104.504 467.424 104.401 467.475 104.527C467.525 104.652 467.525 104.857 467.475 104.983C467.424 105.108 467.383 105.006 467.383 104.755ZM33.2593 103.295C33.2593 103.044 33.3007 102.941 33.3513 103.067C33.4019 103.192 33.4019 103.398 33.3513 103.523C33.3007 103.649 33.2593 103.546 33.2593 103.295ZM467.2 103.295C467.2 103.044 467.242 102.941 467.292 103.067C467.343 103.192 467.343 103.398 467.292 103.523C467.242 103.649 467.2 103.546 467.2 103.295ZM33.4418 102.018C33.4418 101.767 33.4832 101.664 33.5338 101.789C33.5844 101.915 33.5844 102.12 33.5338 102.246C33.4832 102.371 33.4418 102.268 33.4418 102.018ZM467.018 102.018C467.018 101.767 467.059 101.664 467.11 101.789C467.161 101.915 467.161 102.12 467.11 102.246C467.059 102.371 467.018 102.268 467.018 102.018ZM33.6098 100.634C33.6186 100.421 33.6618 100.378 33.7201 100.524C33.7728 100.655 33.7663 100.813 33.7057 100.873C33.645 100.934 33.6019 100.826 33.6098 100.634ZM466.821 100.634C466.83 100.421 466.873 100.378 466.931 100.524C466.984 100.655 466.977 100.813 466.917 100.873C466.856 100.934 466.813 100.826 466.821 100.634ZM33.8067 99.2804C33.8067 99.0294 33.8481 98.9268 33.8988 99.0523C33.9494 99.1777 33.9494 99.383 33.8988 99.5085C33.8481 99.6339 33.8067 99.5313 33.8067 99.2804ZM466.653 99.2804C466.653 99.0294 466.694 98.9268 466.745 99.0523C466.796 99.1777 466.796 99.383 466.745 99.5085C466.694 99.6339 466.653 99.5313 466.653 99.2804ZM33.9892 98.003C33.9892 97.7521 34.0306 97.6494 34.0812 97.7749C34.1319 97.9003 34.1319 98.1056 34.0812 98.2311C34.0306 98.3565 33.9892 98.2539 33.9892 98.003ZM466.456 98.079C466.465 97.8664 466.508 97.8232 466.566 97.9688C466.619 98.1005 466.612 98.2579 466.552 98.3185C466.491 98.3792 466.448 98.2714 466.456 98.079ZM34.1573 96.8016C34.166 96.5891 34.2093 96.5458 34.2675 96.6914C34.3202 96.8231 34.3138 96.9805 34.2531 97.0412C34.1925 97.1018 34.1494 96.994 34.1573 96.8016ZM466.274 96.8016C466.282 96.5891 466.326 96.5458 466.384 96.6914C466.436 96.8231 466.43 96.9805 466.369 97.0412C466.309 97.1018 466.266 96.994 466.274 96.8016ZM34.3398 95.5243C34.3485 95.3117 34.3918 95.2684 34.45 95.414C34.5027 95.5457 34.4962 95.7031 34.4356 95.7638C34.375 95.8244 34.3318 95.7166 34.3398 95.5243ZM466.091 95.5243C466.1 95.3117 466.143 95.2684 466.201 95.414C466.254 95.5457 466.248 95.7031 466.187 95.7638C466.126 95.8244 466.083 95.7166 466.091 95.5243ZM34.5222 94.4294C34.531 94.2168 34.5742 94.1736 34.6325 94.3191C34.6852 94.4509 34.6787 94.6083 34.6181 94.6689C34.5574 94.7295 34.5143 94.6217 34.5222 94.4294ZM465.909 94.4294C465.917 94.2168 465.961 94.1736 466.019 94.3191C466.072 94.4509 466.065 94.6083 466.004 94.6689C465.944 94.7295 465.901 94.6217 465.909 94.4294ZM34.7047 93.152C34.7135 92.9394 34.7567 92.8962 34.815 93.0418C34.8677 93.1735 34.8612 93.3309 34.8006 93.3915C34.7399 93.4522 34.6968 93.3444 34.7047 93.152ZM465.726 93.152C465.735 92.9394 465.778 92.8962 465.836 93.0418C465.889 93.1735 465.883 93.3309 465.822 93.3915C465.761 93.4522 465.718 93.3444 465.726 93.152ZM34.8872 92.0571C34.896 91.8445 34.9392 91.8013 34.9974 91.9469C35.0502 92.0786 35.0437 92.236 34.983 92.2966C34.9224 92.3573 34.8793 92.2495 34.8872 92.0571ZM465.544 92.0571C465.552 91.8445 465.596 91.8013 465.654 91.9469C465.707 92.0786 465.7 92.236 465.639 92.2966C465.579 92.3573 465.536 92.2495 465.544 92.0571ZM35.0697 90.9622C35.0784 90.7497 35.1217 90.7064 35.1799 90.852C35.2326 90.9837 35.2262 91.1411 35.1655 91.2017C35.1049 91.2624 35.0618 91.1546 35.0697 90.9622ZM465.361 90.9622C465.37 90.7497 465.413 90.7064 465.471 90.852C465.524 90.9837 465.518 91.1411 465.457 91.2017C465.396 91.2624 465.353 91.1546 465.361 90.9622ZM35.2522 89.8673C35.2609 89.6548 35.3042 89.6115 35.3624 89.7571C35.4151 89.8888 35.4086 90.0462 35.348 90.1069C35.2874 90.1675 35.2442 90.0597 35.2522 89.8673ZM465.179 89.8673C465.187 89.6548 465.231 89.6115 465.289 89.7571C465.342 89.8888 465.335 90.0462 465.275 90.1069C465.214 90.1675 465.171 90.0597 465.179 89.8673ZM35.4346 88.7725C35.4434 88.5599 35.4866 88.5166 35.5449 88.6622C35.5976 88.7939 35.5911 88.9513 35.5305 89.012C35.4698 89.0726 35.4267 88.9648 35.4346 88.7725ZM464.996 88.7725C465.005 88.5599 465.048 88.5166 465.106 88.6622C465.159 88.7939 465.153 88.9513 465.092 89.012C465.031 89.0726 464.988 88.9648 464.996 88.7725ZM35.6171 87.6776C35.6259 87.465 35.6691 87.4217 35.7274 87.5673C35.7801 87.699 35.7736 87.8564 35.713 87.9171C35.6523 87.9777 35.6092 87.8699 35.6171 87.6776ZM464.814 87.6776C464.822 87.465 464.866 87.4217 464.924 87.5673C464.977 87.699 464.97 87.8564 464.91 87.9171C464.849 87.9777 464.806 87.8699 464.814 87.6776ZM35.7996 86.5827C35.8084 86.3701 35.8516 86.3269 35.9099 86.4724C35.9626 86.6042 35.9561 86.7615 35.8954 86.8222C35.8348 86.8828 35.7917 86.775 35.7996 86.5827ZM464.631 86.5827C464.64 86.3701 464.683 86.3269 464.741 86.4724C464.794 86.6042 464.788 86.7615 464.727 86.8222C464.666 86.8828 464.623 86.775 464.631 86.5827ZM35.9821 85.4878C35.9908 85.2752 36.0341 85.232 36.0923 85.3775C36.1451 85.5093 36.1386 85.6667 36.0779 85.7273C36.0173 85.7879 35.9742 85.6802 35.9821 85.4878ZM464.449 85.4878C464.457 85.2752 464.501 85.232 464.559 85.3775C464.612 85.5093 464.605 85.6667 464.545 85.7273C464.484 85.7879 464.441 85.6802 464.449 85.4878ZM36.1646 84.5754C36.1733 84.3628 36.2166 84.3196 36.2748 84.4651C36.3275 84.5969 36.3211 84.7543 36.2604 84.8149C36.1998 84.8755 36.1566 84.7677 36.1646 84.5754ZM464.266 84.5754C464.275 84.3628 464.318 84.3196 464.376 84.4651C464.429 84.5969 464.423 84.7543 464.362 84.8149C464.301 84.8755 464.258 84.7677 464.266 84.5754ZM36.3471 83.4805C36.3558 83.2679 36.399 83.2247 36.4573 83.3702C36.51 83.502 36.5035 83.6594 36.4429 83.72C36.3823 83.7806 36.3391 83.6729 36.3471 83.4805ZM464.084 83.4805C464.093 83.2679 464.136 83.2247 464.194 83.3702C464.247 83.502 464.24 83.6594 464.18 83.72C464.119 83.7806 464.076 83.6729 464.084 83.4805ZM36.5295 82.5681C36.5383 82.3555 36.5815 82.3123 36.6398 82.4578C36.6925 82.5896 36.686 82.747 36.6254 82.8076C36.5647 82.8682 36.5216 82.7604 36.5295 82.5681ZM463.901 82.5681C463.91 82.3555 463.953 82.3123 464.012 82.4578C464.064 82.5896 464.058 82.747 463.997 82.8076C463.937 82.8682 463.893 82.7604 463.901 82.5681ZM36.8945 80.5608C36.9033 80.3482 36.9465 80.305 37.0047 80.4505C37.0575 80.5823 37.051 80.7397 36.9903 80.8003C36.9297 80.8609 36.8866 80.7532 36.8945 80.5608ZM463.536 80.5608C463.545 80.3482 463.588 80.305 463.647 80.4505C463.699 80.5823 463.693 80.7397 463.632 80.8003C463.572 80.8609 463.528 80.7532 463.536 80.5608ZM37.077 79.6484C37.0857 79.4358 37.129 79.3926 37.1872 79.5381C37.2399 79.6699 37.2335 79.8272 37.1728 79.8879C37.1122 79.9485 37.0691 79.8407 37.077 79.6484ZM463.354 79.6484C463.363 79.4358 463.406 79.3926 463.464 79.5381C463.517 79.6699 463.51 79.8272 463.45 79.8879C463.389 79.9485 463.346 79.8407 463.354 79.6484ZM37.2595 78.736C37.2682 78.5234 37.3115 78.4802 37.3697 78.6257C37.4224 78.7575 37.4159 78.9148 37.3553 78.9755C37.2947 79.0361 37.2515 78.9283 37.2595 78.736ZM463.171 78.736C463.18 78.5234 463.223 78.4802 463.282 78.6257C463.334 78.7575 463.328 78.9148 463.267 78.9755C463.207 79.0361 463.163 78.9283 463.171 78.736ZM462.989 77.8236C462.998 77.611 463.041 77.5677 463.099 77.7133C463.152 77.845 463.145 78.0024 463.085 78.0631C463.024 78.1237 462.981 78.0159 462.989 77.8236ZM462.806 76.9112C462.815 76.6986 462.858 76.6553 462.917 76.8009C462.969 76.9326 462.963 77.09 462.902 77.1507C462.842 77.2113 462.798 77.1035 462.806 76.9112ZM462.624 75.9988C462.633 75.7862 462.676 75.7429 462.734 75.8885C462.787 76.0202 462.78 76.1776 462.72 76.2383C462.659 76.2989 462.616 76.1911 462.624 75.9988ZM37.9894 75.0863C37.9981 74.8738 38.0414 74.8305 38.0996 74.9761C38.1523 75.1078 38.1459 75.2652 38.0852 75.3259C38.0246 75.3865 37.9815 75.2787 37.9894 75.0863ZM462.441 75.0863C462.45 74.8738 462.493 74.8305 462.552 74.9761C462.604 75.1078 462.598 75.2652 462.537 75.3259C462.477 75.3865 462.434 75.2787 462.441 75.0863ZM38.1719 74.1739C38.1806 73.9614 38.2239 73.9181 38.2821 74.0637C38.3348 74.1954 38.3283 74.3528 38.2677 74.4134C38.2071 74.4741 38.1639 74.3663 38.1719 74.1739ZM462.259 74.1739C462.268 73.9614 462.311 73.9181 462.369 74.0637C462.422 74.1954 462.415 74.3528 462.355 74.4134C462.294 74.4741 462.251 74.3663 462.259 74.1739ZM123.787 72.3199C124.565 72.2857 125.838 72.2857 126.615 72.3199C127.393 72.3541 126.757 72.3821 125.201 72.3821C123.645 72.3821 123.009 72.3541 123.787 72.3199ZM373.969 72.3199C374.747 72.2857 376.02 72.2857 376.798 72.3199C377.575 72.3541 376.939 72.3821 375.383 72.3821C373.828 72.3821 373.191 72.3541 373.969 72.3199ZM116.123 72.1473C116.298 72.1014 116.586 72.1014 116.761 72.1473C116.937 72.1932 116.793 72.2307 116.442 72.2307C116.091 72.2307 115.947 72.1932 116.123 72.1473ZM133.734 72.144C133.961 72.1004 134.29 72.102 134.464 72.1477C134.639 72.1934 134.453 72.2291 134.052 72.2271C133.65 72.2251 133.507 72.1877 133.734 72.144ZM366.216 72.144C366.443 72.1004 366.771 72.102 366.946 72.1477C367.12 72.1934 366.934 72.2291 366.533 72.2271C366.132 72.2251 365.989 72.1877 366.216 72.144ZM383.823 72.1473C383.999 72.1014 384.286 72.1014 384.462 72.1473C384.637 72.1932 384.494 72.2307 384.142 72.2307C383.791 72.2307 383.647 72.1932 383.823 72.1473ZM112.382 71.9697C112.507 71.9191 112.713 71.9191 112.838 71.9697C112.963 72.0204 112.861 72.0618 112.61 72.0618C112.359 72.0618 112.256 72.0204 112.382 71.9697ZM137.564 71.9697C137.69 71.9191 137.895 71.9191 138.02 71.9697C138.146 72.0204 138.043 72.0618 137.792 72.0618C137.541 72.0618 137.439 72.0204 137.564 71.9697ZM362.564 71.9697C362.689 71.9191 362.895 71.9191 363.02 71.9697C363.146 72.0204 363.043 72.0618 362.792 72.0618C362.541 72.0618 362.439 72.0204 362.564 71.9697ZM387.746 71.9697C387.872 71.9191 388.077 71.9191 388.203 71.9697C388.328 72.0204 388.225 72.0618 387.975 72.0618C387.724 72.0618 387.621 72.0204 387.746 71.9697ZM109.656 71.7835C109.788 71.7308 109.945 71.7372 110.006 71.7979C110.066 71.8585 109.959 71.9016 109.766 71.8937C109.554 71.8849 109.51 71.8417 109.656 71.7835ZM140.484 71.7873C140.609 71.7366 140.815 71.7366 140.94 71.7873C141.066 71.8379 140.963 71.8793 140.712 71.8793C140.461 71.8793 140.359 71.8379 140.484 71.7873ZM359.644 71.7873C359.77 71.7366 359.975 71.7366 360.1 71.7873C360.226 71.8379 360.123 71.8793 359.872 71.8793C359.621 71.8793 359.519 71.8379 359.644 71.7873ZM390.678 71.7835C390.809 71.7308 390.967 71.7372 391.027 71.7979C391.088 71.8585 390.98 71.9016 390.788 71.8937C390.575 71.8849 390.532 71.8417 390.678 71.7835ZM461.711 71.6192C461.72 71.4066 461.763 71.3634 461.822 71.5089C461.874 71.6407 461.868 71.7981 461.807 71.8587C461.747 71.9193 461.704 71.8116 461.711 71.6192ZM107.284 71.601C107.415 71.5483 107.573 71.5548 107.634 71.6154C107.694 71.676 107.586 71.7191 107.394 71.7112C107.181 71.7025 107.138 71.6592 107.284 71.601ZM142.856 71.6048C142.982 71.5542 143.187 71.5542 143.312 71.6048C143.438 71.6554 143.335 71.6968 143.084 71.6968C142.833 71.6968 142.731 71.6554 142.856 71.6048ZM357.272 71.6048C357.398 71.5542 357.603 71.5542 357.728 71.6048C357.854 71.6554 357.751 71.6968 357.5 71.6968C357.249 71.6968 357.147 71.6554 357.272 71.6048ZM393.05 71.601C393.182 71.5483 393.339 71.5548 393.4 71.6154C393.46 71.676 393.352 71.7191 393.16 71.7112C392.947 71.7025 392.904 71.6592 393.05 71.601ZM105.094 71.4185C105.226 71.3658 105.383 71.3723 105.444 71.4329C105.504 71.4935 105.397 71.5367 105.204 71.5287C104.992 71.52 104.948 71.4768 105.094 71.4185ZM145.057 71.4185C145.189 71.3658 145.347 71.3723 145.407 71.4329C145.468 71.4935 145.36 71.5367 145.168 71.5287C144.955 71.52 144.912 71.4768 145.057 71.4185ZM355.276 71.4185C355.408 71.3658 355.565 71.3723 355.626 71.4329C355.687 71.4935 355.579 71.5367 355.386 71.5287C355.174 71.52 355.131 71.4768 355.276 71.4185ZM395.24 71.4185C395.371 71.3658 395.529 71.3723 395.589 71.4329C395.65 71.4935 395.542 71.5367 395.35 71.5287C395.137 71.52 395.094 71.4768 395.24 71.4185ZM103.269 71.236C103.401 71.1833 103.558 71.1898 103.619 71.2504C103.68 71.311 103.572 71.3542 103.379 71.3463C103.167 71.3375 103.124 71.2943 103.269 71.236ZM397.064 71.236C397.196 71.1833 397.354 71.1898 397.414 71.2504C397.475 71.311 397.367 71.3542 397.175 71.3463C396.962 71.3375 396.919 71.2943 397.064 71.236ZM148.707 71.0535C148.839 71.0008 148.996 71.0073 149.057 71.0679C149.117 71.1286 149.01 71.1717 148.817 71.1638C148.605 71.155 148.561 71.1118 148.707 71.0535ZM351.627 71.0535C351.758 71.0008 351.916 71.0073 351.976 71.0679C352.037 71.1286 351.929 71.1717 351.737 71.1638C351.524 71.155 351.481 71.1118 351.627 71.0535ZM150.349 70.8711C150.481 70.8183 150.639 70.8248 150.699 70.8854C150.76 70.9461 150.652 70.9892 150.46 70.9813C150.247 70.9725 150.204 70.9293 150.349 70.8711ZM349.984 70.8711C350.116 70.8183 350.273 70.8248 350.334 70.8854C350.395 70.9461 350.287 70.9892 350.094 70.9813C349.882 70.9725 349.839 70.9293 349.984 70.8711ZM39.2668 69.0644C39.2755 68.8519 39.3188 68.8086 39.377 68.9542C39.4297 69.0859 39.4232 69.2433 39.3626 69.304C39.302 69.3646 39.2588 69.2568 39.2668 69.0644ZM119.048 62.8322C119.528 62.7945 120.267 62.7949 120.69 62.8333C121.114 62.8716 120.721 62.9024 119.818 62.9019C118.915 62.9014 118.568 62.8699 119.048 62.8322ZM131.092 62.8322C131.571 62.7945 132.31 62.7949 132.734 62.8333C133.158 62.8716 132.765 62.9024 131.862 62.9019C130.958 62.9014 130.612 62.8699 131.092 62.8322ZM367.953 62.8322C368.432 62.7945 369.172 62.7949 369.595 62.8333C370.019 62.8716 369.626 62.9024 368.723 62.9019C367.819 62.9014 367.473 62.8699 367.953 62.8322ZM379.996 62.8322C380.476 62.7945 381.215 62.7949 381.639 62.8333C382.062 62.8716 381.67 62.9024 380.767 62.9019C379.863 62.9014 379.517 62.8699 379.996 62.8322ZM114.663 62.6533C114.939 62.6115 115.39 62.6115 115.666 62.6533C115.942 62.6952 115.717 62.7294 115.165 62.7294C114.613 62.7294 114.387 62.6952 114.663 62.6533ZM136.013 62.6533C136.289 62.6115 136.741 62.6115 137.017 62.6533C137.293 62.6952 137.067 62.7294 136.515 62.7294C135.963 62.7294 135.737 62.6952 136.013 62.6533ZM363.568 62.6533C363.844 62.6115 364.295 62.6115 364.571 62.6533C364.847 62.6952 364.621 62.7294 364.069 62.7294C363.517 62.7294 363.292 62.6952 363.568 62.6533ZM384.918 62.6533C385.194 62.6115 385.646 62.6115 385.922 62.6533C386.198 62.6952 385.972 62.7294 385.42 62.7294C384.868 62.7294 384.642 62.6952 384.918 62.6533ZM111.652 62.4728C111.878 62.4293 112.247 62.4293 112.473 62.4728C112.699 62.5163 112.514 62.5519 112.062 62.5519C111.611 62.5519 111.426 62.5163 111.652 62.4728ZM139.207 62.4728C139.432 62.4293 139.802 62.4293 140.028 62.4728C140.254 62.5163 140.069 62.5519 139.617 62.5519C139.166 62.5519 138.981 62.5163 139.207 62.4728ZM360.557 62.4728C360.783 62.4293 361.152 62.4293 361.378 62.4728C361.604 62.5163 361.419 62.5519 360.967 62.5519C360.516 62.5519 360.331 62.5163 360.557 62.4728ZM388.111 62.4728C388.337 62.4293 388.707 62.4293 388.933 62.4728C389.158 62.5163 388.974 62.5519 388.522 62.5519C388.07 62.5519 387.886 62.5163 388.111 62.4728ZM109.188 62.2933C109.364 62.2474 109.651 62.2474 109.827 62.2933C110.003 62.3392 109.859 62.3767 109.508 62.3767C109.156 62.3767 109.013 62.3392 109.188 62.2933ZM141.763 62.29C141.99 62.2464 142.319 62.248 142.493 62.2937C142.668 62.3394 142.482 62.3751 142.081 62.3731C141.679 62.3711 141.536 62.3337 141.763 62.29ZM358.187 62.29C358.414 62.2464 358.742 62.248 358.916 62.2937C359.091 62.3394 358.905 62.3751 358.504 62.3731C358.102 62.3711 357.96 62.3337 358.187 62.29ZM390.757 62.2933C390.933 62.2474 391.22 62.2474 391.396 62.2933C391.572 62.3392 391.428 62.3767 391.077 62.3767C390.725 62.3767 390.582 62.3392 390.757 62.2933ZM107.185 62.1101C107.362 62.0639 107.608 62.0669 107.732 62.1169C107.856 62.1669 107.71 62.2048 107.409 62.201C107.108 62.1973 107.007 62.1564 107.185 62.1101ZM144.046 62.1101C144.223 62.0639 144.47 62.0669 144.593 62.1169C144.717 62.1669 144.572 62.2048 144.27 62.201C143.969 62.1973 143.868 62.1564 144.046 62.1101ZM356.089 62.1101C356.267 62.0639 356.513 62.0669 356.637 62.1169C356.76 62.1669 356.615 62.2048 356.314 62.201C356.013 62.1973 355.912 62.1564 356.089 62.1101ZM392.951 62.1101C393.128 62.0639 393.375 62.0669 393.498 62.1169C393.622 62.1669 393.476 62.2048 393.175 62.201C392.874 62.1973 392.773 62.1564 392.951 62.1101ZM105.36 61.9277C105.537 61.8814 105.784 61.8844 105.907 61.9344C106.031 61.9844 105.885 62.0223 105.584 62.0186C105.283 62.0148 105.182 61.9739 105.36 61.9277ZM145.871 61.9277C146.048 61.8814 146.295 61.8844 146.418 61.9344C146.542 61.9844 146.396 62.0223 146.095 62.0186C145.794 62.0148 145.693 61.9739 145.871 61.9277ZM354.265 61.9277C354.442 61.8814 354.688 61.8844 354.812 61.9344C354.936 61.9844 354.79 62.0223 354.489 62.0186C354.188 62.0148 354.087 61.9739 354.265 61.9277ZM394.775 61.9277C394.953 61.8814 395.199 61.8844 395.323 61.9344C395.446 61.9844 395.301 62.0223 395 62.0186C394.699 62.0148 394.598 61.9739 394.775 61.9277ZM103.535 61.7452C103.712 61.6989 103.959 61.702 104.082 61.752C104.206 61.8019 104.061 61.8398 103.76 61.8361C103.458 61.8324 103.357 61.7914 103.535 61.7452ZM147.695 61.7452C147.873 61.6989 148.119 61.702 148.243 61.752C148.366 61.8019 148.221 61.8398 147.92 61.8361C147.619 61.8324 147.518 61.7914 147.695 61.7452ZM352.44 61.7452C352.617 61.6989 352.864 61.702 352.987 61.752C353.111 61.8019 352.965 61.8398 352.664 61.8361C352.363 61.8324 352.262 61.7914 352.44 61.7452ZM396.6 61.7452C396.778 61.6989 397.024 61.702 397.148 61.752C397.271 61.8019 397.126 61.8398 396.825 61.8361C396.524 61.8324 396.423 61.7914 396.6 61.7452ZM101.98 61.5683C102.106 61.5177 102.311 61.5177 102.437 61.5683C102.562 61.6189 102.459 61.6603 102.208 61.6603C101.958 61.6603 101.855 61.6189 101.98 61.5683ZM149.338 61.5627C149.515 61.5164 149.762 61.5195 149.885 61.5695C150.009 61.6195 149.864 61.6573 149.562 61.6536C149.261 61.6499 149.16 61.609 149.338 61.5627ZM350.797 61.5627C350.975 61.5164 351.221 61.5195 351.345 61.5695C351.468 61.6195 351.323 61.6573 351.022 61.6536C350.721 61.6499 350.62 61.609 350.797 61.5627ZM398.148 61.5683C398.273 61.5177 398.479 61.5177 398.604 61.5683C398.73 61.6189 398.627 61.6603 398.376 61.6603C398.125 61.6603 398.022 61.6189 398.148 61.5683ZM100.338 61.3858C100.463 61.3352 100.669 61.3352 100.794 61.3858C100.92 61.4364 100.817 61.4779 100.566 61.4779C100.315 61.4779 100.213 61.4364 100.338 61.3858ZM150.885 61.3858C151.011 61.3352 151.216 61.3352 151.342 61.3858C151.467 61.4364 151.364 61.4779 151.114 61.4779C150.863 61.4779 150.76 61.4364 150.885 61.3858ZM349.243 61.3858C349.368 61.3352 349.574 61.3352 349.699 61.3858C349.824 61.4364 349.722 61.4779 349.471 61.4779C349.22 61.4779 349.117 61.4364 349.243 61.3858ZM399.802 61.382C399.933 61.3293 400.091 61.3358 400.151 61.3964C400.212 61.4571 400.104 61.5002 399.912 61.4923C399.699 61.4835 399.656 61.4403 399.802 61.382ZM99.0607 61.2033C99.1861 61.1527 99.3914 61.1527 99.5169 61.2033C99.6423 61.254 99.5397 61.2954 99.2888 61.2954C99.0379 61.2954 98.9352 61.254 99.0607 61.2033ZM152.357 61.1995C152.488 61.1468 152.646 61.1533 152.706 61.2139C152.767 61.2746 152.659 61.3177 152.467 61.3098C152.254 61.301 152.211 61.2578 152.357 61.1995ZM347.977 61.1995C348.109 61.1468 348.266 61.1533 348.327 61.2139C348.387 61.2746 348.279 61.3177 348.087 61.3098C347.875 61.301 347.831 61.2578 347.977 61.1995ZM401.068 61.2033C401.193 61.1527 401.398 61.1527 401.524 61.2033C401.649 61.254 401.547 61.2954 401.296 61.2954C401.045 61.2954 400.942 61.254 401.068 61.2033ZM97.7947 61.0171C97.9264 60.9643 98.0838 60.9708 98.1445 61.0314C98.2051 61.0921 98.0973 61.1352 97.905 61.1273C97.6924 61.1185 97.6491 61.0753 97.7947 61.0171ZM153.623 61.0208C153.748 60.9702 153.953 60.9702 154.079 61.0208C154.204 61.0715 154.102 61.1129 153.851 61.1129C153.6 61.1129 153.497 61.0715 153.623 61.0208ZM346.506 61.0208C346.631 60.9702 346.836 60.9702 346.962 61.0208C347.087 61.0715 346.985 61.1129 346.734 61.1129C346.483 61.1129 346.38 61.0715 346.506 61.0208ZM402.539 61.0171C402.671 60.9643 402.828 60.9708 402.889 61.0314C402.949 61.0921 402.841 61.1352 402.649 61.1273C402.437 61.1185 402.393 61.0753 402.539 61.0171ZM96.5173 60.8346C96.6491 60.7819 96.8065 60.7883 96.8671 60.849C96.9277 60.9096 96.8199 60.9527 96.6276 60.9448C96.415 60.936 96.3718 60.8928 96.5173 60.8346ZM154.9 60.8384C155.025 60.7877 155.231 60.7877 155.356 60.8384C155.482 60.889 155.379 60.9304 155.128 60.9304C154.877 60.9304 154.775 60.889 154.9 60.8384ZM345.228 60.8384C345.354 60.7877 345.559 60.7877 345.684 60.8384C345.81 60.889 345.707 60.9304 345.456 60.9304C345.205 60.9304 345.103 60.889 345.228 60.8384ZM403.816 60.8346C403.948 60.7819 404.105 60.7883 404.166 60.849C404.227 60.9096 404.119 60.9527 403.926 60.9448C403.714 60.936 403.671 60.8928 403.816 60.8346ZM41.2741 60.4878C41.2828 60.2752 41.326 60.232 41.3843 60.3776C41.437 60.5093 41.4305 60.6667 41.3699 60.7273C41.3093 60.788 41.2661 60.6802 41.2741 60.4878ZM95.24 60.6521C95.3717 60.5994 95.5291 60.6059 95.5897 60.6665C95.6504 60.7271 95.5426 60.7702 95.3502 60.7623C95.1376 60.7536 95.0944 60.7103 95.24 60.6521ZM156.189 60.6521C156.321 60.5994 156.478 60.6059 156.539 60.6665C156.599 60.7271 156.491 60.7702 156.299 60.7623C156.086 60.7536 156.043 60.7103 156.189 60.6521ZM344.145 60.6521C344.277 60.5994 344.434 60.6059 344.495 60.6665C344.555 60.7271 344.447 60.7702 344.255 60.7623C344.042 60.7536 343.999 60.7103 344.145 60.6521ZM405.094 60.6521C405.225 60.5994 405.383 60.6059 405.443 60.6665C405.504 60.7271 405.396 60.7702 405.204 60.7623C404.991 60.7536 404.948 60.7103 405.094 60.6521ZM94.1451 60.4696C94.2768 60.4169 94.4342 60.4234 94.4948 60.484C94.5555 60.5446 94.4477 60.5878 94.2553 60.5798C94.0427 60.5711 93.9995 60.5279 94.1451 60.4696ZM157.466 60.4696C157.598 60.4169 157.755 60.4234 157.816 60.484C157.877 60.5446 157.769 60.5878 157.576 60.5798C157.364 60.5711 157.321 60.5279 157.466 60.4696ZM342.867 60.4696C342.999 60.4169 343.157 60.4234 343.217 60.484C343.278 60.5446 343.17 60.5878 342.978 60.5798C342.765 60.5711 342.722 60.5279 342.867 60.4696ZM406.188 60.4696C406.32 60.4169 406.478 60.4234 406.538 60.484C406.599 60.5446 406.491 60.5878 406.299 60.5798C406.086 60.5711 406.043 60.5279 406.188 60.4696ZM93.0502 60.2871C93.1819 60.2344 93.3393 60.2409 93.3999 60.3015C93.4606 60.3622 93.3528 60.4053 93.1604 60.3974C92.9479 60.3886 92.9046 60.3454 93.0502 60.2871ZM158.561 60.2871C158.693 60.2344 158.85 60.2409 158.911 60.3015C158.971 60.3622 158.864 60.4053 158.671 60.3974C158.459 60.3886 158.415 60.3454 158.561 60.2871ZM341.773 60.2871C341.904 60.2344 342.062 60.2409 342.122 60.3015C342.183 60.3622 342.075 60.4053 341.883 60.3974C341.67 60.3886 341.627 60.3454 341.773 60.2871ZM407.283 60.2871C407.415 60.2344 407.572 60.2409 407.633 60.3015C407.694 60.3622 407.586 60.4053 407.394 60.3974C407.181 60.3886 407.138 60.3454 407.283 60.2871ZM91.9553 60.1046C92.087 60.0519 92.2444 60.0584 92.3051 60.119C92.3657 60.1797 92.2579 60.2228 92.0655 60.2149C91.853 60.2061 91.8097 60.1629 91.9553 60.1046ZM159.656 60.1046C159.788 60.0519 159.945 60.0584 160.006 60.119C160.066 60.1797 159.959 60.2228 159.766 60.2149C159.554 60.2061 159.51 60.1629 159.656 60.1046ZM340.678 60.1046C340.809 60.0519 340.967 60.0584 341.027 60.119C341.088 60.1797 340.98 60.2228 340.788 60.2149C340.575 60.2061 340.532 60.1629 340.678 60.1046ZM408.378 60.1046C408.51 60.0519 408.667 60.0584 408.728 60.119C408.789 60.1797 408.681 60.2228 408.489 60.2149C408.276 60.2061 408.233 60.1629 408.378 60.1046ZM90.8604 59.9222C90.9921 59.8694 91.1495 59.8759 91.2102 59.9366C91.2708 59.9972 91.163 60.0403 90.9707 60.0324C90.7581 60.0236 90.7148 59.9804 90.8604 59.9222ZM409.473 59.9222C409.605 59.8694 409.762 59.8759 409.823 59.9366C409.884 59.9972 409.776 60.0403 409.583 60.0324C409.371 60.0236 409.328 59.9804 409.473 59.9222ZM458.974 59.7579C458.983 59.5453 459.026 59.5021 459.085 59.6476C459.137 59.7794 459.131 59.9368 459.07 59.9974C459.01 60.058 458.966 59.9503 458.974 59.7579ZM89.948 59.7397C90.0797 59.687 90.2371 59.6935 90.2978 59.7541C90.3584 59.8147 90.2506 59.8578 90.0583 59.8499C89.8457 59.8412 89.8024 59.7979 89.948 59.7397ZM161.663 59.7397C161.795 59.687 161.952 59.6935 162.013 59.7541C162.074 59.8147 161.966 59.8578 161.773 59.8499C161.561 59.8412 161.518 59.7979 161.663 59.7397ZM338.67 59.7397C338.802 59.687 338.959 59.6935 339.02 59.7541C339.081 59.8147 338.973 59.8578 338.781 59.8499C338.568 59.8412 338.525 59.7979 338.67 59.7397ZM410.386 59.7397C410.517 59.687 410.675 59.6935 410.735 59.7541C410.796 59.8147 410.688 59.8578 410.496 59.8499C410.283 59.8412 410.24 59.7979 410.386 59.7397ZM87.9407 59.3747C88.0724 59.322 88.2298 59.3285 88.2905 59.3891C88.3511 59.4497 88.2433 59.4929 88.051 59.485C87.8384 59.4762 87.7951 59.433 87.9407 59.3747ZM163.671 59.3747C163.802 59.322 163.96 59.3285 164.02 59.3891C164.081 59.4497 163.973 59.4929 163.781 59.485C163.568 59.4762 163.525 59.433 163.671 59.3747ZM336.663 59.3747C336.795 59.322 336.952 59.3285 337.013 59.3891C337.073 59.4497 336.966 59.4929 336.773 59.485C336.561 59.4762 336.517 59.433 336.663 59.3747ZM412.393 59.3747C412.525 59.322 412.682 59.3285 412.743 59.3891C412.803 59.4497 412.695 59.4929 412.503 59.485C412.291 59.4762 412.247 59.433 412.393 59.3747ZM87.0283 59.1922C87.16 59.1395 87.3174 59.146 87.378 59.2066C87.4387 59.2673 87.3309 59.3104 87.1385 59.3025C86.926 59.2937 86.8827 59.2505 87.0283 59.1922ZM164.583 59.1922C164.715 59.1395 164.872 59.146 164.933 59.2066C164.993 59.2673 164.886 59.3104 164.693 59.3025C164.481 59.2937 164.437 59.2505 164.583 59.1922ZM335.751 59.1922C335.882 59.1395 336.04 59.146 336.1 59.2066C336.161 59.2673 336.053 59.3104 335.861 59.3025C335.648 59.2937 335.605 59.2505 335.751 59.1922ZM413.305 59.1922C413.437 59.1395 413.594 59.146 413.655 59.2066C413.716 59.2673 413.608 59.3104 413.416 59.3025C413.203 59.2937 413.16 59.2505 413.305 59.1922ZM86.1159 59.0098C86.2476 58.957 86.405 58.9635 86.4656 59.0241C86.5263 59.0848 86.4185 59.1279 86.2261 59.12C86.0136 59.1112 85.9703 59.068 86.1159 59.0098ZM165.495 59.0098C165.627 58.957 165.784 58.9635 165.845 59.0241C165.906 59.0848 165.798 59.1279 165.606 59.12C165.393 59.1112 165.35 59.068 165.495 59.0098ZM334.838 59.0098C334.97 58.957 335.127 58.9635 335.188 59.0241C335.249 59.0848 335.141 59.1279 334.948 59.12C334.736 59.1112 334.693 59.068 334.838 59.0098ZM414.218 59.0098C414.349 58.957 414.507 58.9635 414.567 59.0241C414.628 59.0848 414.52 59.1279 414.328 59.12C414.115 59.1112 414.072 59.068 414.218 59.0098ZM166.408 58.8273C166.539 58.7746 166.697 58.781 166.758 58.8417C166.818 58.9023 166.71 58.9454 166.518 58.9375C166.305 58.9287 166.262 58.8855 166.408 58.8273ZM333.926 58.8273C334.058 58.7746 334.215 58.781 334.276 58.8417C334.336 58.9023 334.228 58.9454 334.036 58.9375C333.823 58.9287 333.78 58.8855 333.926 58.8273ZM83.5611 58.4623C83.6929 58.4096 83.8503 58.4161 83.9109 58.4767C83.9715 58.5373 83.8638 58.5805 83.6714 58.5725C83.4588 58.5638 83.4156 58.5206 83.5611 58.4623ZM416.772 58.4623C416.904 58.4096 417.062 58.4161 417.122 58.4767C417.183 58.5373 417.075 58.5805 416.883 58.5725C416.67 58.5638 416.627 58.5206 416.772 58.4623ZM236.059 36.5067C236.24 36.306 236.43 36.1417 236.48 36.1417C236.53 36.1417 236.423 36.306 236.241 36.5067C236.059 36.7074 235.87 36.8717 235.82 36.8717C235.769 36.8717 235.877 36.7074 236.059 36.5067ZM264.326 36.4611L263.978 36.0505L264.389 36.3981C264.775 36.7248 264.883 36.8717 264.737 36.8717C264.702 36.8717 264.517 36.6869 264.326 36.4611ZM273.9 32.5377C273.673 32.2483 273.68 32.2418 273.969 32.4688C274.273 32.7072 274.37 32.8571 274.22 32.8571C274.182 32.8571 274.038 32.7134 273.9 32.5377ZM272.988 31.8078C272.761 31.5184 272.767 31.5119 273.057 31.7389C273.361 31.9773 273.457 32.1271 273.307 32.1271C273.269 32.1271 273.126 31.9834 272.988 31.8078ZM227.391 31.8758C227.391 31.8379 227.535 31.6942 227.71 31.5564C228 31.3294 228.006 31.3359 227.779 31.6253C227.541 31.9293 227.391 32.026 227.391 31.8758ZM240.712 31.8758C240.712 31.8379 240.856 31.6942 241.031 31.5564C241.321 31.3294 241.327 31.3359 241.1 31.6253C240.862 31.9293 240.712 32.026 240.712 31.8758ZM259.484 31.6253C259.257 31.3359 259.264 31.3294 259.553 31.5564C259.729 31.6942 259.873 31.8379 259.873 31.8758C259.873 32.026 259.723 31.9293 259.484 31.6253ZM228.577 30.8498C228.759 30.649 228.948 30.4848 228.998 30.4848C229.049 30.4848 228.941 30.649 228.759 30.8498C228.578 31.0505 228.388 31.2147 228.338 31.2147C228.288 31.2147 228.395 31.0505 228.577 30.8498ZM271.893 30.8954C271.666 30.606 271.672 30.5995 271.962 30.8265C272.266 31.0649 272.363 31.2147 272.212 31.2147C272.174 31.2147 272.031 31.071 271.893 30.8954ZM242.172 30.2334C242.172 30.1955 242.316 30.0518 242.491 29.9141C242.781 29.6871 242.787 29.6936 242.56 29.983C242.322 30.287 242.172 30.3836 242.172 30.2334ZM258.024 29.983C257.797 29.6936 257.804 29.6871 258.093 29.9141C258.397 30.1525 258.494 30.3023 258.344 30.3023C258.306 30.3023 258.162 30.1586 258.024 29.983ZM229.854 29.7549C230.036 29.5542 230.226 29.3899 230.276 29.3899C230.326 29.3899 230.218 29.5542 230.037 29.7549C229.855 29.9556 229.665 30.1198 229.615 30.1198C229.565 30.1198 229.673 29.9556 229.854 29.7549ZM270.53 29.7093L270.183 29.2987L270.593 29.6463C270.979 29.973 271.087 30.1198 270.941 30.1198C270.906 30.1198 270.722 29.9351 270.53 29.7093ZM231.588 28.2038C231.928 27.8525 232.248 27.5651 232.298 27.5651C232.348 27.5651 232.111 27.8525 231.77 28.2038C231.43 28.5551 231.11 28.8425 231.06 28.8425C231.01 28.8425 231.247 28.5551 231.588 28.2038ZM268.804 28.1582L268.175 27.4739L268.86 28.1027C269.497 28.6881 269.628 28.8425 269.489 28.8425C269.458 28.8425 269.15 28.5345 268.804 28.1582ZM235.967 23.8584C235.967 23.827 236.234 23.5601 236.561 23.2653L237.154 22.7293L236.618 23.3224C236.118 23.8752 235.967 23.9994 235.967 23.8584ZM263.967 23.3224L263.431 22.7293L264.024 23.2653C264.577 23.7649 264.701 23.9155 264.56 23.9155C264.529 23.9155 264.262 23.6486 263.967 23.3224ZM237.883 21.7257C238.065 21.525 238.255 21.3607 238.305 21.3607C238.355 21.3607 238.248 21.525 238.066 21.7257C237.884 21.9264 237.695 22.0907 237.644 22.0907C237.594 22.0907 237.702 21.9264 237.883 21.7257ZM262.501 21.6801L262.154 21.2695L262.564 21.6171C262.95 21.9438 263.058 22.0907 262.912 22.0907C262.877 22.0907 262.692 21.9059 262.501 21.6801ZM238.705 20.7444C238.705 20.7065 238.848 20.5628 239.024 20.425C239.313 20.1981 239.32 20.2045 239.093 20.4939C238.855 20.7979 238.705 20.8946 238.705 20.7444ZM261.492 20.4939C261.265 20.2045 261.271 20.1981 261.56 20.425C261.736 20.5628 261.88 20.7065 261.88 20.7444C261.88 20.8946 261.73 20.7979 261.492 20.4939ZM239.617 19.6495C239.617 19.6116 239.761 19.4679 239.936 19.3302C240.226 19.1032 240.232 19.1096 240.005 19.3991C239.767 19.703 239.617 19.7997 239.617 19.6495ZM260.579 19.3991C260.352 19.1096 260.359 19.1032 260.648 19.3302C260.824 19.4679 260.967 19.6116 260.967 19.6495C260.967 19.7997 260.818 19.703 260.579 19.3991Z" fill="#263D54"/>
</svg>
