<svg width="500" height="500" viewBox="0 0 500 500" fill="none" xmlns="http://www.w3.org/2000/svg">
<path fill-rule="evenodd" clip-rule="evenodd" d="M9.89307 61.298V85.6665C10.2985 86.8575 10.5453 102.364 10.6793 105.138C13.6515 166.606 26.4634 233.875 51.4138 289.38C55.6912 298.896 59.8241 308.142 64.641 317.033C79.5162 344.491 93.7222 366.928 113.65 390.697L125.419 404.222C131.188 410.038 136.88 416.835 143.114 422.553L167.186 444.224C182.927 458.504 217.823 481.977 236.646 492.565C238.749 493.747 240.975 494.953 243.089 496.179C244.811 497.177 248.462 498.831 249.703 500H250.271C251.61 498.792 254.85 497.387 256.693 496.309C269.208 488.979 276.104 485.106 288.647 476.981C301 468.979 312.745 460.303 324.253 451.249C329.302 447.276 348.713 430.839 351.57 427.636C353.477 425.498 354.96 424.319 356.885 422.553C360.381 419.346 363.729 415.713 367.007 412.232C387.201 390.789 405.159 368.582 420.542 343.111C454.941 286.15 474.621 228.219 484.017 161.262C486.649 142.502 488.404 124.104 489.321 105.137C489.454 102.359 489.701 86.8617 490.107 85.6658V61.4398C484.877 62.3034 479.134 63.9897 473.808 65.0932C455.626 68.8587 437.894 70.7263 419.08 70.411C360.293 69.4267 305.161 44.9072 261.135 8.96197L250.304 0H249.939C248.99 1.18463 245.731 3.36974 244.407 4.45488C232.964 13.8345 215.507 25.7076 202.984 33.0214C165.485 54.9212 125.787 69.4267 80.289 70.5154C61.8493 70.9564 43.6776 69.0542 25.845 65.096C20.7023 63.9551 14.9074 62.1228 9.89307 61.298Z" fill="black"/>
<path fill-rule="evenodd" clip-rule="evenodd" d="M216.881 209.004L216.894 461.192C218.69 462.965 248.514 481.371 250.001 481.371C251.496 481.37 281.269 462.982 283.064 461.192L283.109 196.257L216.881 209.004Z" fill="#007638"/>
<path fill-rule="evenodd" clip-rule="evenodd" d="M349.57 183.18L349.497 406.937C350.233 405.523 352.749 403.874 354.149 402.499C355.746 400.93 357.068 399.249 358.571 397.553C359.363 396.661 360.07 396.24 360.854 395.347C361.655 394.437 362.226 393.53 363.065 392.693L372.011 382.586C375.505 377.907 380.928 372.141 384.677 366.843C389.982 359.344 395.026 352.925 400.364 344.769C405.348 337.15 409.917 329.45 414.83 321.13C416.618 318.104 415.727 307.528 415.727 303.187V170.361L349.57 183.18Z" fill="#007638"/>
<path fill-rule="evenodd" clip-rule="evenodd" d="M84.2879 234.783L84.2647 316.705C84.2372 320.241 84.6215 320.037 86.0642 322.656C89.5822 329.043 93.5085 335.284 97.3396 341.171C103.542 350.701 108.989 358.424 115.76 367.453L130.669 385.811C131.448 386.693 131.744 386.879 132.463 387.821L141.43 397.555C142.997 399.318 145.08 401.954 146.791 403.295C147.788 404.076 149.99 406.056 150.358 406.938L150.504 221.955L84.2879 234.783Z" fill="#007638"/>
<path fill-rule="evenodd" clip-rule="evenodd" d="M60.4073 144.253L63.2011 143.71C63.8463 146.912 64.3117 148.778 64.6079 149.295C64.9047 149.814 65.6656 150.413 66.9038 151.105C68.1421 151.796 69.6589 152.261 71.4648 152.497C73.2594 152.735 75.0533 152.673 76.8373 152.326C79.8977 151.731 82.1781 150.446 83.7012 148.459C85.2159 146.485 85.7412 144.275 85.2716 141.858C84.8372 139.618 83.8952 138.028 82.4567 137.077C80.9942 136.118 78.4909 135.73 74.9475 135.901C69.6955 136.163 66.0922 136.035 64.1375 135.506C62.185 134.988 60.525 133.963 59.1585 132.434C57.7891 130.893 56.8766 128.918 56.4041 126.489C55.613 122.42 56.3717 118.682 58.6811 115.297C61.0024 111.91 65.2954 109.614 71.5917 108.388C74.0534 107.911 76.2732 107.674 78.261 107.667C80.239 107.663 82.2747 107.9 84.3676 108.367L84.8401 109.081C84.7519 110.525 84.7484 111.804 84.8189 112.941C84.8887 114.067 85.1264 116 85.5431 118.739L82.7486 119.283C81.9898 115.967 81.4709 114.122 81.1698 113.755C80.6211 113.125 79.433 112.574 77.6059 112.111C75.7789 111.649 73.784 111.623 71.634 112.041C68.6745 112.617 66.5202 113.784 65.1706 115.543C63.8209 117.302 63.3605 119.314 63.8019 121.586C64.072 122.973 64.6389 124.117 65.5154 125.017C66.3799 125.909 67.4694 126.491 68.7619 126.745C70.0643 126.998 72.7552 127.052 76.8352 126.913C80.5415 126.745 83.0722 126.805 84.4593 127.076C86.7179 127.511 88.564 128.488 89.975 130.009C91.4001 131.538 92.3683 133.618 92.8809 136.257C93.7708 140.837 92.761 144.994 89.8509 148.725C86.9273 152.447 82.4341 154.898 76.3599 156.08C73.655 156.607 71.1446 156.83 68.8381 156.738C66.5308 156.645 64.0811 156.235 61.4869 155.497C61.5821 153.914 61.5694 152.488 61.4636 151.231C61.2979 149.49 60.9495 147.165 60.4073 144.253ZM100.6 147.636C102.608 147.131 103.821 146.687 104.237 146.284C104.518 146.01 104.869 145.091 105.289 143.524C106.061 140.451 106.985 136.207 108.064 130.807L114.064 100.405L118.853 99.4735L140.287 131.526C143.049 135.558 144.691 137.737 145.217 138.072C145.743 138.406 147.161 138.429 149.485 138.129L150.054 141.055C146.491 141.611 143.142 142.193 140.005 142.802C136.259 143.531 132.703 144.293 129.347 145.083L128.778 142.155C131.339 141.542 132.8 141.119 133.161 140.852C133.526 140.598 133.662 140.237 133.572 139.772C133.493 139.361 132.771 138.074 131.405 135.899L128.209 130.87C125.517 131.347 122.531 131.905 119.229 132.547C116.358 133.106 113.746 133.636 111.404 134.138L110.685 138.076C110.491 139.149 110.303 140.729 110.133 142.81C110.085 143.279 110.097 143.692 110.168 144.058C110.263 144.546 110.541 144.849 111 144.966C111.46 145.084 113.019 145 115.677 144.702L116.245 147.63C114.102 147.909 111.451 148.355 108.292 148.97C105.288 149.553 102.917 150.084 101.17 150.561L100.6 147.636ZM115.742 112.003L112.141 130.061C114.152 129.76 116.345 129.381 118.751 128.913C121.255 128.426 123.642 127.915 125.919 127.381L115.742 112.003ZM153.034 140.476C157.11 139.546 159.768 138.959 161.02 138.716C162.517 138.424 165.024 138.006 168.53 137.463L168.013 134.801C165.281 135.125 163.689 135.216 163.23 135.052C162.974 134.976 162.783 134.817 162.648 134.601C162.298 134.105 161.754 132.07 160.993 128.511C159.963 123.682 159.113 119.542 158.445 116.105L155.991 103.473C159.065 106.212 163.04 109.56 167.937 113.511C177.617 121.296 185.841 127.742 192.602 132.826C193.719 132.771 195.631 132.721 198.361 132.685L198.694 132.148C197.877 128.658 197.128 125.156 196.444 121.629L193.961 108.495L191.529 95.4434C191.001 92.6113 190.767 90.9306 190.81 90.3817C190.839 90.0536 190.924 89.7841 191.051 89.552C191.189 89.3185 191.383 89.1301 191.65 88.9636C192.099 88.6693 193.519 88.2199 195.905 87.5955L195.388 84.9334C192.82 85.5712 189.951 86.1985 186.758 86.8194C184.421 87.2745 182.068 87.6625 179.693 87.9864L180.21 90.6477C182.932 90.326 184.477 90.175 184.854 90.2166C185.219 90.2604 185.488 90.4043 185.671 90.6336C186.03 91.0591 186.448 92.3241 186.946 94.414C187.724 97.9453 188.59 102.162 189.542 107.065L192.051 119.985C188.37 117.317 183.957 113.906 178.785 109.72C171.028 103.483 164.028 97.6511 157.79 92.2451C155.533 92.8222 153.507 93.2851 151.711 93.635C150.093 93.9497 147.574 94.3702 144.179 94.8923L144.696 97.5544C147.57 97.2489 149.246 97.1762 149.73 97.3576C150.035 97.4486 150.294 97.6511 150.478 97.9488C150.831 98.4667 151.351 100.552 152.061 104.202L154.808 117.986C155.323 120.637 156.032 124.585 156.923 129.821C157.481 132.982 157.682 134.853 157.552 135.42C157.472 135.839 157.304 136.158 157.039 136.395C156.629 136.716 155.123 137.193 152.518 137.814L153.034 140.476ZM72.3765 219.364L71.8589 216.702L73.7734 216.192C75.3304 215.796 76.2513 215.329 76.5602 214.786C76.8704 214.254 76.7999 212.645 76.3472 209.959C75.4425 204.588 74.3813 198.773 73.1705 192.541C72.5267 189.224 71.7821 185.455 70.9394 181.235C70.4218 178.688 69.9734 177.152 69.6095 176.636C69.4212 176.385 69.1434 176.197 68.7577 176.1C68.379 175.99 66.8037 176.112 64.0388 176.442L63.5212 173.781C66.1465 173.316 68.7104 172.841 71.2158 172.353C74.1316 171.786 76.9318 171.219 79.6276 170.648C81.3256 173.172 83.0638 175.666 84.8422 178.128C86.1016 179.874 91.6138 187.286 101.364 200.353C105.881 184.108 108.939 172.199 110.531 164.638C113.161 164.265 115.646 163.85 117.985 163.395C120.734 162.861 123.37 162.279 125.905 161.649L126.421 164.311C123.585 165.046 122.016 165.616 121.702 166.01C121.402 166.415 121.353 167.471 121.572 169.19C121.969 171.943 122.91 177.147 124.395 184.789C125.142 188.637 125.969 192.712 126.866 196.98C127.768 201.258 128.382 203.661 128.717 204.194C128.937 204.497 129.197 204.711 129.52 204.833C129.843 204.953 131.413 204.867 134.242 204.569L134.759 207.231C131.231 207.779 128.081 208.323 125.333 208.857C122.561 209.397 118.816 210.194 114.076 211.253L113.559 208.592L115.442 208.157C116.925 207.799 117.826 207.405 118.123 206.979C118.429 206.541 118.49 205.55 118.301 203.987C118.101 202.425 117.457 198.811 116.354 193.133L112.543 173.512C110.498 180.874 107.939 190.499 104.852 202.378C103.594 207.273 102.638 211.234 101.991 214.296L99.8845 214.706C97.5286 211.284 94.4407 206.993 90.6153 201.81L74.8981 180.835L75.7556 185.249C78.1298 197.47 79.8102 205.881 80.7946 210.477C81.2255 212.338 81.6958 213.455 82.212 213.804C82.7303 214.162 84.4022 214.126 87.2214 213.715L87.7382 216.377C85.5177 216.671 83.2993 217.034 81.1049 217.461C77.8238 218.097 74.9221 218.73 72.3765 219.364ZM138.314 203.501C140.321 202.996 141.535 202.552 141.951 202.148C142.232 201.875 142.583 200.955 143.002 199.389C143.774 196.315 144.698 192.072 145.778 186.671L151.778 156.27L156.567 155.339L178 187.391C180.762 191.423 182.405 193.602 182.93 193.936C183.456 194.272 184.875 194.295 187.198 193.993L187.767 196.921C184.205 197.476 180.856 198.058 177.718 198.668C173.973 199.397 170.417 200.158 167.061 200.948L166.492 198.021C169.053 197.408 170.513 196.985 170.875 196.719C171.239 196.464 171.376 196.103 171.286 195.638C171.206 195.227 170.485 193.94 169.119 191.766L165.922 186.737C163.231 187.213 160.245 187.771 156.942 188.413C154.071 188.972 151.459 189.502 149.117 190.005L148.399 193.942C148.205 195.016 148.017 196.594 147.847 198.677C147.799 199.146 147.811 199.558 147.882 199.924C147.976 200.412 148.254 200.715 148.713 200.832C149.173 200.95 150.733 200.867 153.391 200.568L153.959 203.496C151.816 203.774 149.165 204.221 146.006 204.835C143.002 205.42 140.632 205.95 138.884 206.427L138.314 203.501ZM153.455 167.868L149.854 185.925C151.866 185.625 154.058 185.246 156.464 184.778C158.969 184.291 161.355 183.78 163.633 183.246L153.455 167.868ZM190.813 196.328C194.457 195.481 197.868 194.749 201.072 194.125C204.066 193.543 207.525 192.939 211.43 192.318L210.913 189.656C208.426 190.002 206.928 190.098 206.421 189.921C206.043 189.81 205.766 189.634 205.577 189.372C205.336 189.016 204.817 187.228 204.01 184.025C202.963 179.763 202.167 176.257 201.631 173.496L199.527 161.244L197.858 151.589C199.518 151.128 200.835 150.803 201.822 150.611C204.915 150.01 207.384 150.288 209.218 151.44C211.052 152.591 212.223 154.469 212.733 157.098C213.319 160.115 212.794 162.624 211.148 164.634C209.515 166.645 207.688 167.84 205.671 168.233C205.249 168.315 204.597 168.394 203.716 168.475C203.661 168.899 203.578 169.307 203.451 169.712L212.122 178.58C216.99 183.572 220.654 187.394 223.125 190.044C224.696 189.658 228.209 188.917 233.701 187.814L235.601 187.41L235.123 184.949C233.989 185.146 233.14 185.163 232.586 184.981C232.035 184.812 231.117 184.162 229.831 183.054L222.897 176.081L213.968 166.953C217.4 164.719 219.68 162.48 220.795 160.227C221.923 157.981 222.235 155.56 221.731 152.965C221.338 150.935 220.528 149.262 219.293 147.938C218.06 146.624 216.56 145.776 214.823 145.412C213.073 145.05 210.435 145.206 206.91 145.892L190.665 149.258C189.367 149.511 186.462 150.008 181.958 150.745L182.475 153.406C184.974 153.185 186.418 153.157 186.804 153.313C187.088 153.406 187.308 153.595 187.451 153.854C187.956 154.735 188.648 157.235 189.542 161.367C190.713 166.918 191.647 171.489 192.35 175.105C192.869 177.778 193.524 181.448 194.315 186.117C194.823 189.138 195.008 190.921 194.888 191.484C194.844 191.793 194.705 192.026 194.498 192.205C194.16 192.478 192.769 192.955 190.296 193.666L190.813 196.328ZM247.755 185.254L247.238 182.592C248.457 182.354 249.71 181.995 250.988 181.529C251.588 181.298 251.985 181.036 252.201 180.73C252.409 180.435 252.509 179.945 252.511 179.242C252.474 178.283 251.943 174.841 250.895 168.91C250.144 164.694 249.346 160.406 248.498 156.037C246.828 147.441 245.957 143.075 245.868 142.921C245.78 142.764 245.001 142.836 243.516 143.124C240.502 143.711 237.925 144.304 235.776 144.906C234.542 145.25 233.854 145.499 233.709 145.642C233.566 145.785 233.479 145.998 233.446 146.292C233.41 146.586 233.606 148.54 234.009 152.155L231.216 152.699C230.443 148.487 229.63 144.893 228.777 141.917L229.079 141.583C235.969 140.565 242.637 139.428 249.089 138.174C255.518 136.924 262.693 135.367 270.602 133.506L271.06 133.97C271.233 137.055 271.63 140.638 272.25 144.717L269.523 145.248C268.609 141.605 268.03 139.634 267.773 139.373C267.581 139.157 267.205 139.058 266.645 139.075C264.86 139.123 261.396 139.646 256.24 140.65C255.81 140.733 255.568 140.85 255.504 141C255.443 141.161 255.521 141.745 255.716 142.743L259.761 164.63C260.991 170.963 261.801 174.835 262.191 176.255C262.571 177.678 263.007 178.501 263.475 178.722C263.803 178.865 265.544 178.769 268.72 178.415L269.236 181.077C266.04 181.561 262.658 182.149 259.1 182.841C254.422 183.749 250.644 184.554 247.755 185.254ZM283.269 178.347L282.753 175.685C285.648 174.961 287.253 174.395 287.56 173.968C287.869 173.55 287.938 172.651 287.759 171.258C287.38 168.363 286.429 163 284.908 155.169C284.327 152.174 283.439 147.836 282.242 142.152C281.455 138.278 280.951 136.153 280.744 135.802C280.55 135.45 280.273 135.215 279.918 135.1C279.394 134.95 277.736 135.065 274.931 135.426L274.414 132.764C278.862 132.037 282.256 131.446 284.595 130.991C288.629 130.207 292.264 129.43 295.496 128.664L296.013 131.326C293.133 132.07 291.537 132.622 291.217 132.984C290.897 133.356 290.796 134.078 290.892 135.164C291.119 137.284 291.852 141.526 293.089 147.892C294.735 156.366 295.916 162.271 296.631 165.597C297.335 168.924 297.918 170.859 298.363 171.43C298.54 171.694 298.861 171.862 299.301 171.936C299.755 172.021 301.261 171.901 303.834 171.585L304.351 174.246L300.531 174.897C298.121 175.284 295.966 175.669 294.082 176.036L283.269 178.347ZM309.02 173.338C313.094 172.408 315.753 171.821 317.005 171.578C318.501 171.286 321.009 170.869 324.514 170.325L323.998 167.663C321.265 167.987 319.673 168.078 319.215 167.914C318.959 167.837 318.768 167.679 318.633 167.462C318.284 166.966 317.738 164.932 316.978 161.373C315.948 156.545 315.099 152.405 314.43 148.967L311.976 136.334C315.051 139.074 319.026 142.421 323.923 146.373C333.603 154.158 341.826 160.604 348.588 165.688C349.704 165.632 351.616 165.583 354.347 165.547L354.68 165.009C353.864 161.519 353.115 158.017 352.43 154.49L349.947 141.357L347.516 128.305C346.989 125.473 346.754 123.792 346.797 123.242C346.825 122.915 346.91 122.646 347.039 122.414C347.176 122.179 347.371 121.992 347.638 121.825C348.086 121.531 349.506 121.081 351.892 120.457L351.375 117.795C348.806 118.433 345.938 119.06 342.746 119.681C340.407 120.136 338.056 120.524 335.68 120.847L336.197 123.509C338.918 123.187 340.464 123.036 340.841 123.077C341.206 123.122 341.475 123.265 341.658 123.495C342.016 123.92 342.435 125.185 342.933 127.275C343.711 130.807 344.576 135.024 345.529 139.926L348.039 152.847C344.358 150.179 339.945 146.766 334.772 142.582C327.015 136.345 320.015 130.512 313.778 125.108C311.521 125.684 309.493 126.148 307.698 126.497C306.08 126.812 303.562 127.233 300.166 127.755L300.683 130.417C303.557 130.111 305.234 130.038 305.718 130.22C306.023 130.311 306.282 130.514 306.466 130.811C306.82 131.329 307.339 133.416 308.048 137.064L310.795 150.849C311.309 153.499 312.019 157.447 312.91 162.684C313.467 165.844 313.669 167.715 313.538 168.283C313.458 168.701 313.29 169.021 313.025 169.257C312.615 169.578 311.109 170.055 308.504 170.677L309.02 173.338Z" fill="white"/>
</svg>
