<svg width="500" height="500" viewBox="0 0 500 500" fill="none" xmlns="http://www.w3.org/2000/svg">
<path fill-rule="evenodd" clip-rule="evenodd" d="M454.561 44.9353C433.227 56.2741 405.174 63.0774 374.349 63.0774C312.532 63.0774 260.121 35.6123 249.958 0C239.795 35.6123 187.385 63.0774 125.567 63.0774C94.7421 63.0774 66.6891 56.1902 45.3553 44.9353C35.1923 79.8757 29.7329 117 29.7329 155.468C29.7329 313.371 121.703 448.513 249.958 500C378.297 448.513 470.183 313.371 470.183 155.468C470.183 117 464.724 79.7917 454.561 44.9353ZM249.958 486.393C127.667 432.891 41.1557 304.048 41.1557 154.292C41.1557 121.535 45.2713 89.7027 53.0825 59.5498C73.4084 67.781 98.1858 72.5685 124.979 72.5685C183.185 72.5685 233.328 49.8908 250.042 19.066C266.672 49.8908 316.815 72.5685 375.105 72.5685C401.898 72.5685 426.676 67.781 447.002 59.5498C454.729 89.7867 458.928 121.535 458.928 154.292C458.844 304.048 372.249 432.891 249.958 486.393Z" fill="white"/>
<path fill-rule="evenodd" clip-rule="evenodd" d="M374.265 82.3954C397.615 82.3954 419.536 78.9518 438.351 72.9884C444.146 98.8577 447.254 125.819 447.254 153.452C447.254 295.649 366.118 418.697 249.958 474.047C133.798 418.697 52.6626 295.649 52.6626 153.452C52.6626 125.819 55.7703 98.8577 61.5657 72.9884C80.3797 78.9518 102.301 82.3954 125.651 82.3954C181.169 82.3954 229.632 63.0774 249.958 35.7803C270.368 62.9934 318.747 82.3954 374.265 82.3954ZM93.3984 295.061C105.325 321.435 120.36 346.128 138.166 368.386V91.0465C134.218 91.2145 130.271 91.2985 126.239 91.2985C114.9 91.2985 103.897 90.6266 93.3984 89.1987V295.061ZM182.849 414.749C196.876 426.76 211.826 437.595 227.616 447.086V348.527C235.54 350.31 243.776 351.252 252.226 351.252C259.105 351.252 265.842 350.628 272.384 349.434V447.17C288.174 437.595 303.125 426.844 317.151 414.833V330.481C339.472 314.577 355.763 290.721 361.834 263.104V368.386C379.641 346.128 394.759 321.519 406.602 295.061V89.1987C396.103 90.5426 385.1 91.2985 373.761 91.2985C369.73 91.2985 365.782 91.2145 361.834 91.0465V214.975C355.763 187.358 339.472 163.502 317.151 147.598V84.9152C300.269 80.8836 285.066 75.1722 272.384 68.1169V128.645C265.842 127.451 259.105 126.827 252.226 126.827C243.776 126.827 235.54 127.769 227.616 129.552V68.0329C214.85 75.0882 199.731 80.7996 182.849 84.8312V150.938C156.787 171.515 140.014 203.376 140.014 239.039C140.014 274.703 156.787 306.564 182.849 327.141V414.749Z" fill="white"/>
<path fill-rule="evenodd" clip-rule="evenodd" d="M303.964 162.271C304.048 162.271 304.048 162.355 304.132 162.355V162.271H303.964Z" fill="white"/>
<path fill-rule="evenodd" clip-rule="evenodd" d="M146.481 239.039C146.481 180.665 193.936 133.21 252.226 133.21C310.516 133.21 357.971 180.749 358.055 239.039C358.055 297.329 310.516 344.784 252.226 344.784C193.936 344.784 146.481 297.329 146.481 239.039ZM151.016 239.039C151.016 294.809 196.456 340.164 252.226 340.164C307.996 340.164 353.435 294.893 353.435 239.039C353.435 183.185 307.996 137.829 252.226 137.829C196.372 137.829 151.016 183.269 151.016 239.039ZM252.142 159.499C208.382 159.499 172.686 195.195 172.686 238.955C172.686 282.714 208.382 318.411 252.142 318.411C259.953 318.411 267.428 317.319 274.568 315.219V328.91C267.428 330.673 259.953 331.681 252.142 331.513C201.159 331.513 159.5 289.938 159.5 238.871C159.5 187.888 201.075 146.229 252.142 146.229C259.869 146.229 267.428 147.236 274.568 149V162.691C267.428 160.591 259.953 159.499 252.142 159.499ZM274.567 171.678V295.145C282.715 291.869 290.022 286.914 295.901 280.615V294.809C286.158 302.452 274.483 307.576 261.633 309.34V168.654H261.717C266.168 169.242 270.452 170.25 274.567 171.678ZM218.294 301.277L218.378 184.193V176.718C196.372 188.813 181.337 212.246 181.337 239.039C181.337 252.058 184.865 264.321 191.08 274.82H203.679C197.212 266.085 193.096 255.586 192.088 244.247H208.131V294.474C211.322 296.993 214.682 299.345 218.294 301.277ZM208.047 233.748H192.004C193.18 219.889 199.06 207.375 208.047 197.8V233.748ZM223.921 262.641H237.192V279.859V280.363C237.192 282.882 238.787 284.898 240.803 284.898C242.819 284.898 244.415 282.882 244.415 280.363V280.027V254.913C244.331 254.241 244.079 253.485 243.743 252.73C243.407 251.974 243.071 251.218 242.651 250.546L225.937 231.144C225.433 230.388 224.929 229.464 224.593 228.54C224.173 227.448 223.921 226.44 223.837 225.684V181.757C224.425 176.969 227.197 173.022 230.976 171.258C232.992 170.586 235.092 170.082 237.192 169.578C246.851 168.654 254.746 174.87 255.754 183.941V211.49H242.147V202.167C242.147 200.487 240.887 199.059 239.459 199.059C237.947 199.059 236.772 200.487 236.772 202.251V202.587V219.217C236.856 219.889 237.108 220.645 237.444 221.485C237.947 222.661 238.535 223.753 239.207 224.592L253.318 241.223C253.99 242.063 254.578 243.155 255.082 244.33C255.502 245.338 255.754 246.346 255.838 247.102V298.085C255.082 304.384 250.63 309.34 245.087 309.676C243.323 309.508 241.559 309.256 239.879 308.92C231.648 306.232 225.181 298.925 223.921 290.61V262.641ZM304.133 162.354V287.501C309.76 281.538 314.379 274.483 317.655 266.756V245.674H331.43C329.33 270.535 315.723 292.205 295.985 305.308V320.678C325.046 304.972 344.868 274.231 344.868 239.039C344.868 207.206 328.658 179.153 304.133 162.354ZM317.571 232.403V193.935C325.214 205.022 330.17 218.209 331.346 232.403H317.571ZM288.342 246.43C289.35 244.75 289.854 242.231 289.854 238.955C289.854 235.595 289.35 232.992 288.258 231.228C287.166 229.464 285.654 228.54 283.639 228.54H277.843V248.95H283.975C285.906 248.95 287.334 248.11 288.342 246.43ZM281.203 244.498V233.076H282.883C284.059 233.076 284.899 233.58 285.486 234.503C286.074 235.427 286.326 236.939 286.326 238.871C286.326 240.887 286.074 242.315 285.486 243.155C284.983 244.078 284.059 244.498 282.883 244.498H281.203ZM294.725 244.498H300.605V248.95H291.282V228.624H300.353V232.992H294.725V236.267H299.933V240.551H294.725V244.498Z" fill="white"/>
</svg>
