<svg width="500" height="500" viewBox="0 0 500 500" fill="none" xmlns="http://www.w3.org/2000/svg">
<path d="M250.305 0L261.136 8.96196C305.162 44.9071 360.293 69.4267 419.08 70.411C437.894 70.7264 455.627 68.859 473.808 65.0935C479.134 63.99 484.877 62.3037 490.107 61.4401V85.6662C489.701 86.8662 489.455 102.36 489.322 105.137C488.405 124.104 486.649 142.502 484.017 161.262C474.621 228.219 454.941 286.15 420.542 343.111C405.159 368.581 387.202 390.789 367.008 412.232C363.73 415.713 360.381 419.346 356.885 422.553C354.96 424.319 353.477 425.498 351.57 427.636C348.712 430.839 329.303 447.275 324.254 451.249C312.746 460.302 301 468.979 288.647 476.981C276.104 485.106 269.208 488.979 256.693 496.308C254.851 497.387 251.611 498.792 250.272 500H249.704C248.462 498.831 244.811 497.177 243.089 496.179C240.976 494.953 238.75 493.748 236.647 492.565C217.824 481.977 182.928 458.504 167.187 444.223L143.114 422.553C136.88 416.835 131.188 410.038 125.419 404.221L113.651 390.697C93.7224 366.928 79.5162 344.491 64.641 317.033C59.8242 308.142 55.6921 298.896 51.4147 289.38C26.4644 233.875 13.6517 166.606 10.6795 105.138C10.5455 102.365 10.299 86.8572 9.89355 85.6662V61.298C14.9078 62.1228 20.7026 63.9555 25.8453 65.0964C43.6778 69.0546 61.85 70.9563 80.2897 70.5153C125.788 69.4266 165.486 54.9208 202.984 33.0212C215.507 25.7074 232.964 13.8348 244.407 4.45515C245.731 3.37 248.991 1.18463 249.94 0H250.305ZM250.129 7.77863C249.274 8.4128 248.696 8.83209 248.276 9.17657C236.916 18.4885 219.924 30.0904 207.273 37.5806L206.063 38.293C168.529 60.2136 128.502 75.0295 82.6245 76.5552L80.4357 76.6178C61.4764 77.0712 42.8111 75.1151 24.5228 71.0558C21.8135 70.4548 18.904 69.6647 16.2911 68.9882C16.1931 68.9629 16.0954 68.9378 15.998 68.9127V85.0959C16.0071 85.1587 16.0136 85.2074 16.0179 85.239C16.0608 85.5589 16.0943 85.8988 16.1212 86.2186C16.1758 86.8662 16.2229 87.6619 16.2653 88.5197C16.3507 90.2475 16.425 92.4343 16.4898 94.6282C16.6231 99.1406 16.7134 103.527 16.777 104.843L16.922 107.703C20.1228 167.848 32.8091 233.102 56.9816 286.877L60.172 293.952C63.3413 300.932 66.4926 307.633 70.0092 314.125L71.3893 316.662C85.6222 342.703 99.3304 364.108 118.288 386.726L129.903 400.074C132.829 403.032 135.756 406.25 138.561 409.265C141.465 412.385 144.307 415.363 147.234 418.048L171.27 439.687L171.288 439.702C186.571 453.567 221.041 476.783 239.638 487.244C241.612 488.354 244.004 489.652 246.152 490.897L246.764 491.236C247.426 491.589 248.258 492.003 249.45 492.639C249.618 492.728 249.805 492.831 250.008 492.942C250.163 492.858 250.31 492.778 250.446 492.706C251.56 492.118 252.346 491.73 252.996 491.382L253.608 491.04C266.173 483.682 272.929 479.89 285.329 471.857L287.6 470.374C298.924 462.917 309.778 454.87 320.479 446.451C322.895 444.549 328.926 439.52 334.761 434.519C340.785 429.355 345.932 424.785 347.014 423.572L347.421 423.124C349.432 420.935 351.212 419.473 352.759 418.054L353.374 417.483C355.625 415.374 357.825 413.081 360.079 410.689L362.564 408.046C382.55 386.824 400.216 364.959 415.317 339.955L416.897 337.321C449.862 281.965 468.827 225.583 477.972 160.413L478.451 156.934C480.794 139.554 482.373 122.445 483.224 104.842C483.288 103.519 483.377 99.1366 483.51 94.6282C483.575 92.4347 483.65 90.2486 483.735 88.5207C483.777 87.6627 483.824 86.8666 483.879 86.2186C483.906 85.8987 483.939 85.559 483.982 85.239C483.987 85.2078 483.994 85.1605 484.002 85.0999V68.9723C483.813 69.0179 483.622 69.0631 483.431 69.1094C481.091 69.6763 478.565 70.31 476.099 70.8472L475.046 71.0707C457.047 74.7986 439.42 76.7163 420.785 76.5383L418.977 76.5145C358.55 75.5026 302.134 50.3162 257.275 13.6903L257.26 13.6784L257.244 13.6655L250.129 7.77863Z" fill="white"/>
<path fill-rule="evenodd" clip-rule="evenodd" d="M216.881 209.004L216.895 461.191C218.691 462.964 248.515 481.37 250.002 481.37C251.496 481.37 281.27 462.982 283.065 461.191L283.109 196.257L216.881 209.004Z" fill="white"/>
<path fill-rule="evenodd" clip-rule="evenodd" d="M349.57 183.18L349.498 406.937C350.233 405.523 352.749 403.874 354.15 402.498C355.746 400.93 357.068 399.249 358.572 397.552C359.363 396.661 360.07 396.24 360.854 395.347C361.655 394.437 362.226 393.53 363.066 392.693L372.011 382.585C375.505 377.907 380.928 372.141 384.677 366.843C389.983 359.344 395.027 352.925 400.364 344.768C405.349 337.15 409.917 329.449 414.831 321.13C416.618 318.104 415.728 307.528 415.728 303.187V170.361L349.57 183.18Z" fill="white"/>
<path fill-rule="evenodd" clip-rule="evenodd" d="M84.2884 234.783L84.2651 316.705C84.2376 320.241 84.6219 320.037 86.0647 322.656C89.5827 329.043 93.5089 335.284 97.34 341.171C103.543 350.701 108.989 358.424 115.761 367.453L130.67 385.811C131.449 386.693 131.744 386.879 132.464 387.821L141.43 397.554C142.997 399.318 145.081 401.954 146.792 403.295C147.789 404.076 149.991 406.056 150.358 406.938L150.505 221.955L84.2884 234.783Z" fill="white"/>
<path fill-rule="evenodd" clip-rule="evenodd" d="M60.4077 144.253L63.2016 143.71C63.8468 146.912 64.3122 148.778 64.6083 149.295C64.9052 149.813 65.6661 150.413 66.9043 151.105C68.1426 151.796 69.6593 152.261 71.4652 152.497C73.2598 152.734 75.0537 152.673 76.8378 152.326C79.8981 151.731 82.1786 150.446 83.7017 148.459C85.2164 146.485 85.7417 144.275 85.2721 141.858C84.8377 139.618 83.8956 138.028 82.4571 137.077C80.9946 136.118 78.4913 135.73 74.948 135.901C69.696 136.163 66.0927 136.035 64.138 135.505C62.1854 134.988 60.5255 133.963 59.1589 132.434C57.7895 130.893 56.8771 128.918 56.4046 126.489C55.6134 122.42 56.3722 118.682 58.6815 115.297C61.0029 111.91 65.2959 109.614 71.5921 108.388C74.0538 107.911 76.2736 107.674 78.2615 107.667C80.2394 107.663 82.2752 107.9 84.3681 108.367L84.8405 109.081C84.7524 110.525 84.7489 111.804 84.8194 112.941C84.8892 114.067 85.1268 116 85.5436 118.739L82.749 119.283C81.9903 115.967 81.4713 114.122 81.1702 113.755C80.6216 113.125 79.4334 112.574 77.6064 112.111C75.7793 111.649 73.7845 111.623 71.6345 112.041C68.6749 112.617 66.5207 113.784 65.171 115.542C63.8214 117.302 63.3609 119.314 63.8023 121.586C64.0724 122.973 64.6394 124.117 65.5159 125.017C66.3804 125.909 67.4698 126.491 68.7624 126.745C70.0648 126.998 72.7557 127.052 76.8357 126.913C80.5419 126.745 83.0727 126.805 84.4597 127.076C86.7183 127.511 88.5644 128.488 89.9754 130.009C91.4005 131.538 92.3687 133.618 92.8814 136.257C93.7713 140.837 92.7615 144.994 89.8513 148.725C86.9278 152.447 82.4346 154.898 76.3604 156.08C73.6554 156.607 71.1451 156.83 68.8385 156.738C66.5313 156.645 64.0816 156.235 61.4873 155.497C61.5825 153.913 61.5698 152.488 61.4641 151.231C61.2984 149.49 60.95 147.165 60.4077 144.253ZM100.601 147.636C102.608 147.131 103.822 146.687 104.238 146.284C104.518 146.01 104.87 145.09 105.289 143.524C106.061 140.451 106.985 136.207 108.065 130.806L114.065 100.405L118.853 99.4735L140.287 131.526C143.049 135.558 144.692 137.736 145.217 138.072C145.743 138.406 147.162 138.429 149.485 138.129L150.054 141.055C146.492 141.611 143.142 142.193 140.005 142.802C136.259 143.531 132.703 144.292 129.348 145.083L128.778 142.155C131.34 141.542 132.8 141.119 133.162 140.852C133.526 140.598 133.662 140.237 133.573 139.772C133.493 139.361 132.772 138.074 131.406 135.899L128.209 130.87C125.518 131.347 122.532 131.905 119.229 132.547C116.358 133.106 113.746 133.636 111.404 134.138L110.686 138.076C110.492 139.149 110.304 140.729 110.134 142.81C110.086 143.279 110.098 143.692 110.169 144.058C110.263 144.546 110.541 144.848 111 144.966C111.46 145.084 113.02 145 115.677 144.702L116.246 147.63C114.102 147.909 111.452 148.355 108.292 148.97C105.288 149.553 102.918 150.084 101.17 150.561L100.601 147.636ZM115.742 112.003L112.141 130.061C114.153 129.76 116.345 129.381 118.751 128.913C121.256 128.426 123.642 127.915 125.919 127.381L115.742 112.003ZM153.034 140.476C157.11 139.546 159.768 138.959 161.021 138.716C162.517 138.424 165.024 138.006 168.53 137.463L168.013 134.801C165.281 135.125 163.689 135.216 163.23 135.052C162.974 134.976 162.783 134.817 162.648 134.601C162.299 134.105 161.754 132.07 160.993 128.511C159.964 123.682 159.113 119.542 158.446 116.105L155.992 103.473C159.065 106.212 163.04 109.56 167.938 113.511C177.617 121.296 185.841 127.742 192.602 132.826C193.719 132.771 195.631 132.721 198.361 132.685L198.694 132.148C197.878 128.658 197.129 125.156 196.444 121.629L193.961 108.495L191.529 95.4433C191.002 92.6112 190.768 90.9306 190.811 90.3817C190.84 90.0536 190.924 89.7841 191.052 89.552C191.189 89.3184 191.384 89.13 191.65 88.9635C192.1 88.6693 193.519 88.2199 195.905 87.5954L195.388 84.9334C192.82 85.5712 189.951 86.1984 186.759 86.8193C184.421 87.2744 182.068 87.6625 179.693 87.9863L180.21 90.6477C182.932 90.3259 184.478 90.175 184.855 90.2166C185.219 90.2603 185.488 90.4043 185.671 90.6336C186.03 91.059 186.449 92.3241 186.946 94.4139C187.725 97.9452 188.59 102.162 189.542 107.065L192.052 119.985C188.371 117.317 183.957 113.906 178.786 109.72C171.028 103.483 164.028 97.651 157.791 92.2451C155.533 92.8222 153.507 93.285 151.711 93.635C150.094 93.9497 147.574 94.3702 144.18 94.8923L144.697 97.5544C147.57 97.2489 149.247 97.1762 149.731 97.3575C150.035 97.4485 150.294 97.651 150.478 97.9488C150.831 98.4666 151.352 100.552 152.061 104.202L154.808 117.986C155.324 120.637 156.033 124.585 156.924 129.821C157.481 132.982 157.683 134.853 157.552 135.42C157.472 135.839 157.304 136.158 157.04 136.394C156.629 136.716 155.124 137.192 152.519 137.814L153.034 140.476ZM72.377 219.364L71.8594 216.702L73.7739 216.191C75.3309 215.796 76.2518 215.329 76.5606 214.786C76.8709 214.254 76.8004 212.645 76.3477 209.959C75.443 204.588 74.3817 198.773 73.171 192.54C72.5272 189.224 71.7825 185.455 70.9399 181.235C70.4223 178.688 69.9738 177.152 69.61 176.636C69.4217 176.385 69.1439 176.197 68.7581 176.1C68.3795 175.99 66.8042 176.112 64.0393 176.442L63.5217 173.78C66.147 173.316 68.7109 172.841 71.2163 172.353C74.1321 171.786 76.9323 171.219 79.628 170.648C81.3261 173.172 83.0642 175.666 84.8426 178.128C86.102 179.874 91.6142 187.286 101.364 200.352C105.882 184.108 108.94 172.199 110.531 164.638C113.162 164.265 115.646 163.85 117.985 163.395C120.734 162.861 123.37 162.279 125.905 161.648L126.422 164.311C123.586 165.046 122.017 165.616 121.702 166.01C121.403 166.414 121.353 167.471 121.573 169.19C121.97 171.943 122.911 177.147 124.395 184.789C125.143 188.637 125.969 192.712 126.867 196.98C127.768 201.258 128.383 203.661 128.717 204.193C128.938 204.497 129.197 204.711 129.52 204.833C129.843 204.953 131.414 204.867 134.243 204.569L134.76 207.231C131.232 207.779 128.081 208.323 125.333 208.857C122.561 209.397 118.817 210.194 114.077 211.253L113.56 208.592L115.443 208.157C116.926 207.799 117.827 207.405 118.124 206.979C118.43 206.541 118.49 205.55 118.301 203.987C118.102 202.425 117.457 198.811 116.354 193.132L112.543 173.512C110.499 180.874 107.94 190.499 104.852 202.378C103.595 207.273 102.639 211.233 101.991 214.296L99.8849 214.706C97.529 211.284 94.4412 206.993 90.6157 201.81L74.8986 180.835L75.7561 185.249C78.1303 197.47 79.8107 205.88 80.7951 210.476C81.2259 212.338 81.6963 213.455 82.2124 213.804C82.7307 214.162 84.4026 214.126 87.2218 213.715L87.7387 216.377C85.5182 216.671 83.2998 217.034 81.1053 217.461C77.8243 218.096 74.9226 218.73 72.377 219.364ZM138.314 203.501C140.322 202.995 141.535 202.552 141.951 202.148C142.232 201.875 142.583 200.955 143.003 199.389C143.775 196.315 144.699 192.072 145.778 186.671L151.778 156.27L156.567 155.339L178.001 187.391C180.763 191.423 182.406 193.602 182.931 193.936C183.457 194.272 184.875 194.295 187.199 193.993L187.768 196.921C184.205 197.476 180.856 198.058 177.719 198.668C173.973 199.397 170.417 200.158 167.061 200.948L166.492 198.021C169.053 197.407 170.514 196.985 170.875 196.719C171.24 196.464 171.376 196.103 171.286 195.638C171.207 195.227 170.485 193.94 169.119 191.766L165.922 186.737C163.231 187.213 160.245 187.771 156.943 188.413C154.072 188.972 151.46 189.502 149.118 190.005L148.399 193.942C148.205 195.016 148.017 196.594 147.847 198.677C147.799 199.146 147.811 199.558 147.882 199.924C147.977 200.412 148.255 200.715 148.714 200.832C149.174 200.95 150.733 200.867 153.391 200.568L153.959 203.496C151.816 203.774 149.165 204.221 146.006 204.835C143.002 205.42 140.632 205.95 138.884 206.427L138.314 203.501ZM153.455 167.868L149.855 185.925C151.867 185.625 154.059 185.246 156.465 184.778C158.97 184.29 161.356 183.78 163.633 183.246L153.455 167.868ZM190.813 196.328C194.457 195.481 197.868 194.749 201.073 194.125C204.066 193.543 207.526 192.939 211.431 192.318L210.914 189.656C208.427 190.002 206.928 190.098 206.421 189.921C206.043 189.81 205.767 189.634 205.578 189.372C205.336 189.016 204.817 187.228 204.01 184.025C202.963 179.763 202.168 176.257 201.631 173.496L199.527 161.244L197.859 151.589C199.519 151.128 200.835 150.803 201.822 150.611C204.915 150.01 207.384 150.288 209.219 151.44C211.053 152.591 212.223 154.469 212.734 157.098C213.32 160.115 212.794 162.624 211.149 164.634C209.515 166.645 207.688 167.84 205.671 168.233C205.249 168.315 204.598 168.394 203.716 168.475C203.661 168.899 203.579 169.307 203.451 169.712L212.122 178.58C216.991 183.571 220.655 187.394 223.126 190.044C224.696 189.658 228.21 188.917 233.701 187.814L235.601 187.41L235.124 184.949C233.989 185.146 233.14 185.163 232.587 184.981C232.036 184.812 231.117 184.162 229.832 183.054L222.898 176.081L213.968 166.953C217.4 164.719 219.681 162.48 220.795 160.227C221.923 157.981 222.235 155.56 221.731 152.965C221.338 150.935 220.528 149.262 219.293 147.938C218.06 146.624 216.561 145.776 214.823 145.412C213.074 145.05 210.435 145.205 206.91 145.892L190.665 149.258C189.368 149.511 186.463 150.007 181.958 150.745L182.475 153.406C184.975 153.185 186.419 153.157 186.805 153.313C187.088 153.406 187.309 153.595 187.451 153.854C187.956 154.735 188.649 157.235 189.543 161.367C190.713 166.918 191.648 171.489 192.35 175.105C192.869 177.777 193.524 181.448 194.316 186.116C194.824 189.138 195.008 190.921 194.889 191.484C194.844 191.793 194.706 192.026 194.499 192.205C194.161 192.478 192.77 192.955 190.297 193.666L190.813 196.328ZM247.756 185.254L247.238 182.592C248.457 182.354 249.71 181.995 250.988 181.529C251.588 181.297 251.985 181.036 252.202 180.729C252.41 180.435 252.51 179.945 252.511 179.242C252.474 178.283 251.944 174.841 250.895 168.91C250.145 164.694 249.347 160.406 248.498 156.036C246.829 147.441 245.957 143.075 245.869 142.921C245.781 142.764 245.001 142.836 243.516 143.124C240.503 143.711 237.925 144.304 235.776 144.906C234.543 145.25 233.854 145.499 233.71 145.642C233.566 145.785 233.479 145.998 233.446 146.292C233.411 146.586 233.606 148.54 234.01 152.155L231.216 152.698C230.444 148.487 229.631 144.893 228.777 141.917L229.08 141.582C235.969 140.565 242.638 139.428 249.089 138.174C255.518 136.924 262.693 135.366 270.603 133.506L271.06 133.97C271.234 137.055 271.631 140.638 272.251 144.717L269.524 145.248C268.609 141.605 268.03 139.634 267.773 139.373C267.582 139.157 267.205 139.058 266.645 139.075C264.861 139.123 261.396 139.646 256.241 140.65C255.81 140.733 255.568 140.85 255.505 141C255.443 141.161 255.522 141.745 255.716 142.743L259.761 164.63C260.991 170.963 261.802 174.835 262.192 176.255C262.572 177.678 263.007 178.501 263.476 178.721C263.803 178.865 265.545 178.769 268.72 178.415L269.237 181.077C266.04 181.561 262.658 182.149 259.1 182.841C254.422 183.749 250.645 184.554 247.756 185.254ZM283.269 178.347L282.753 175.685C285.648 174.961 287.253 174.395 287.561 173.967C287.87 173.55 287.938 172.651 287.76 171.258C287.38 168.363 286.43 163 284.909 155.169C284.327 152.174 283.439 147.836 282.243 142.152C281.456 138.278 280.951 136.153 280.744 135.802C280.55 135.45 280.274 135.215 279.918 135.1C279.395 134.95 277.737 135.065 274.932 135.426L274.415 132.764C278.863 132.037 282.256 131.446 284.596 130.991C288.63 130.207 292.264 129.43 295.496 128.664L296.013 131.326C293.133 132.07 291.538 132.622 291.217 132.984C290.898 133.356 290.797 134.078 290.893 135.164C291.12 137.283 291.852 141.526 293.089 147.892C294.735 156.366 295.916 162.271 296.631 165.597C297.336 168.923 297.919 170.859 298.363 171.43C298.541 171.693 298.861 171.862 299.301 171.936C299.755 172.021 301.261 171.901 303.834 171.585L304.351 174.246L300.531 174.897C298.122 175.284 295.966 175.669 294.082 176.036L283.269 178.347ZM309.02 173.338C313.094 172.408 315.753 171.821 317.005 171.578C318.501 171.286 321.009 170.869 324.514 170.325L323.998 167.663C321.265 167.986 319.673 168.077 319.215 167.914C318.959 167.837 318.768 167.679 318.633 167.462C318.284 166.966 317.738 164.932 316.978 161.373C315.949 156.544 315.099 152.405 314.431 148.967L311.977 136.334C315.051 139.073 319.026 142.421 323.923 146.372C333.603 154.158 341.826 160.604 348.588 165.688C349.704 165.632 351.616 165.583 354.347 165.547L354.681 165.009C353.865 161.519 353.115 158.017 352.43 154.49L349.948 141.357L347.516 128.305C346.989 125.472 346.755 123.792 346.798 123.242C346.825 122.915 346.911 122.646 347.039 122.414C347.176 122.179 347.372 121.992 347.638 121.825C348.086 121.531 349.506 121.081 351.892 120.457L351.375 117.795C348.807 118.432 345.938 119.06 342.747 119.681C340.408 120.136 338.056 120.524 335.68 120.847L336.197 123.509C338.918 123.187 340.465 123.036 340.841 123.077C341.206 123.122 341.475 123.265 341.659 123.495C342.016 123.92 342.435 125.185 342.934 127.274C343.711 130.806 344.577 135.024 345.529 139.926L348.04 152.847C344.358 150.179 339.945 146.766 334.772 142.582C327.015 136.345 320.015 130.512 313.778 125.108C311.521 125.684 309.494 126.148 307.699 126.497C306.08 126.812 303.562 127.233 300.167 127.755L300.684 130.417C303.557 130.111 305.234 130.038 305.718 130.22C306.023 130.31 306.282 130.514 306.466 130.811C306.82 131.329 307.34 133.416 308.048 137.064L310.796 150.849C311.31 153.499 312.019 157.447 312.91 162.684C313.467 165.844 313.669 167.715 313.538 168.283C313.458 168.7 313.29 169.021 313.025 169.256C312.616 169.577 311.109 170.054 308.505 170.677L309.02 173.338Z" fill="white"/>
</svg>
