<svg width="500" height="500" viewBox="0 0 500 500" fill="none" xmlns="http://www.w3.org/2000/svg">
<path fill-rule="evenodd" clip-rule="evenodd" d="M208.199 478.551C220.144 484.245 232.827 489.423 245.985 493.98C248.156 494.732 249.938 495.353 249.945 495.36C249.969 495.389 254.822 493.725 257.703 492.7C294.29 479.688 328.72 460.785 359.342 436.899C371.913 427.093 381.83 418.317 393.313 406.837C400.385 399.767 403.266 396.683 411.294 387.594C412.548 386.173 417.135 380.679 419.193 378.132C435.853 357.508 449.95 335.597 461.765 311.96C483.184 269.109 495.777 223.011 499.134 175.167C499.74 166.52 499.897 162.336 499.98 152.545C500.087 139.943 499.776 131.007 498.823 119.271C497.644 104.748 495.472 89.5155 492.623 75.7833C492.272 74.0946 491.953 72.5155 491.912 72.2742C491.774 71.4474 491.753 71.4351 490.28 71.3419C477.921 70.5593 465.293 67.8436 453.722 63.4799C426.033 53.0378 402.614 33.114 387.973 7.5435C387.262 6.30278 386.664 5.26489 386.642 5.23709C386.621 5.20929 386.166 5.45999 385.631 5.7942C371.04 14.9067 355.519 22.5767 339.603 28.5387C337.21 29.4351 332.078 31.2493 330.632 31.7102C323.327 34.0376 320.531 34.8671 315.603 36.1696C298.765 40.6202 282.202 43.2133 263.844 44.2729C259.177 44.5422 246.492 44.6505 241.473 44.4638C203.578 43.0545 168.381 34.0165 135.009 17.1258C128.19 13.6742 119.68 8.86372 114.537 5.55245C114.029 5.22606 113.596 4.97814 113.572 5.00153C113.549 5.02491 113.197 5.63462 112.79 6.35644C109.527 12.1471 106.059 17.3648 102.131 22.3946C90.2524 37.6046 75.1433 49.937 57.9965 58.4183C43.3537 65.661 27.5123 70.0039 11.2797 71.2257L8.36422 71.4451L8.24769 71.891C8.1836 72.1362 7.76547 74.1416 7.3185 76.3473C-5.96511 141.901 -1.09622 209.894 21.3584 272.412C24.1362 280.146 27.5176 288.623 30.7226 295.886C41.6741 320.705 55.0752 343.79 71.2646 365.724C73.3097 368.495 73.3523 368.551 76.1035 372.116C83.8637 382.17 92.6707 392.366 101.599 401.632C103.294 403.39 104.962 405.128 105.307 405.494C106.216 406.457 114.775 414.713 116.837 416.616C144.463 442.107 174.587 462.528 208.199 478.551ZM165.276 427.968C190.722 446.148 217.619 460.333 247.427 471.294C248.736 471.775 249.871 472.174 249.949 472.179C250.483 472.215 262.31 467.67 268.607 465.008C303.198 450.388 334.662 430.527 363.04 405.399C371.681 397.748 382.315 387.185 390.239 378.382C419.108 346.313 441.615 309.246 456.637 269.031C466.747 241.966 473.309 213.963 476.328 185.004C477.343 175.267 477.858 166.82 478.107 155.843C478.527 137.271 477.224 117.06 474.383 98.0911C473.941 95.1401 473.333 91.4109 473.288 91.3719C473.274 91.3605 472.164 91.1424 470.82 90.8875C454.038 87.7037 438.185 81.7886 423.443 73.2093C407.165 63.7366 392.528 50.9558 380.786 35.9608C380.179 35.1854 379.645 34.5509 379.6 34.5509C379.555 34.5509 378.362 35.1506 376.95 35.8834C373.634 37.6039 367.957 40.3394 363.949 42.1481C337.831 53.9339 310.045 61.5389 281.363 64.7516C247.939 68.4953 213.858 66.1436 181.505 57.8612C162.086 52.8897 144.243 46.2084 126.083 37.1085L120.541 34.3311L120.199 34.7856C116.601 39.5699 111.519 45.3067 106.417 50.3433C102.023 54.6814 98.8961 57.4707 94.4665 61.005C76.8559 75.0564 55.8982 85.0705 33.9342 89.929C32.4327 90.2611 28.5209 91.0379 27.2677 91.2528C26.9866 91.301 26.7798 91.4166 26.7412 91.5472C26.5358 92.2412 25.0152 102.571 24.4774 106.927C22.5857 122.245 21.8006 136.339 21.9431 152.42C22.0141 160.436 22.0937 163 22.4722 169.464C26.1923 233.006 47.1656 293.309 83.7361 345.609C102.229 372.057 125.15 396.484 150.487 416.748C155.278 420.579 160.833 424.794 165.276 427.968ZM278.946 436.159C269.469 440.894 261.099 444.606 251.283 448.427C250.647 448.675 250.055 448.874 249.967 448.869C249.806 448.861 245.57 447.189 242.476 445.912C208.712 431.978 177.78 412.539 150.487 388.104C138.407 377.288 126.139 364.443 115.835 351.819C113.27 348.677 107.825 341.671 106.56 339.887C106.354 339.595 105.615 338.578 104.92 337.626C79.6732 303.099 61.3126 262.732 51.7472 220.722C43.7125 185.435 41.7241 148.936 45.8449 112.378C46.102 110.097 46.1284 109.574 46.3893 109.397C46.4987 109.323 46.6493 109.31 46.8754 109.254C49.5725 108.583 57.3604 106.069 61.1926 104.633C84.6673 95.834 105.168 82.603 122.933 64.7858C124.737 62.9764 126.228 61.496 126.247 61.496C126.266 61.496 127.371 61.9802 128.703 62.5721C161.977 77.3605 196.941 85.8155 233.327 87.8721C239.956 88.2468 244.926 88.3489 253.066 88.2777C260.884 88.2093 263.157 88.1353 269.359 87.7473C304.847 85.5267 340.359 76.7772 372.311 62.3817L374 61.6208L377.512 65.1159C384.081 71.6537 389.132 76.0472 396.063 81.2508C412.176 93.3491 431.174 102.874 450.141 108.363C451.623 108.792 453.061 109.212 453.337 109.298L453.838 109.453L454.055 111.121C454.673 115.877 455.49 125.407 455.839 131.929C456.419 142.784 456.442 154.64 455.904 165.454C454.265 198.446 447.574 230.848 436.042 261.641C429.502 279.104 421.476 295.905 412.004 311.959C380.574 365.235 334.132 408.585 278.946 436.159ZM194.728 386.653V388.251H194.727V389.849H215.409H236.092L236.057 388.251L236.021 386.653L235.458 386.621C234.26 386.551 230.186 386.069 228.753 385.828C225.798 385.33 224.444 384.886 223.223 384.015C221.619 382.871 220.562 381.383 220.018 379.506C219.768 378.642 219.73 378.236 219.736 376.502C219.743 374.166 219.967 372.915 220.872 370.144C221.598 367.918 221.687 367.706 224.898 360.491L227.617 354.381L249.424 354.413L271.231 354.445L273.208 358.956C274.296 361.438 275.829 364.935 276.615 366.727C278.719 371.521 280.192 375.149 280.736 376.878C281.434 379.098 281.445 381.311 280.765 382.798C280.394 383.61 279.437 384.585 278.589 385.015C276.437 386.105 274.068 386.533 269.415 386.673L266.664 386.756V388.303V389.849H296.742H326.82V388.291C326.82 387.328 326.849 386.933 326.665 386.75C326.513 386.598 326.214 386.593 325.629 386.53C323.074 386.256 320.47 385.265 318.653 383.877C316.646 382.343 314.365 379.011 311.459 373.369C309.766 370.081 308.751 367.855 303.594 356.123C297.3 341.804 284.587 312.915 281.65 306.257C280.814 304.361 276.184 293.829 271.36 282.851L262.591 262.892L261.672 262.924L260.753 262.957L254.741 276.367C251.434 283.742 248.313 290.707 247.806 291.845C246.745 294.221 245.561 296.862 238.092 313.526C235.111 320.178 230.587 330.273 228.039 335.959C225.49 341.646 223.075 347.032 222.672 347.928C222.269 348.824 220.577 352.603 218.914 356.325C214.643 365.879 214.406 366.393 212.802 369.609C209.512 376.202 206.956 380.06 204.401 382.288C202.041 384.346 199.004 385.823 195.883 386.429L194.728 386.653ZM250.468 306.974C257.242 322.394 268.082 347.191 268.137 347.395C268.194 347.603 267.247 347.615 249.516 347.615C239.242 347.615 230.811 347.572 230.782 347.521C230.752 347.469 231.54 345.622 232.533 343.416C233.525 341.21 234.755 338.475 235.265 337.338L240.855 324.868C243.42 319.147 246.433 312.42 247.551 309.92C248.669 307.42 249.612 305.346 249.647 305.311C249.681 305.276 250.051 306.025 250.468 306.974ZM152.555 246.722C153.52 246.796 154.535 246.878 154.811 246.903C155.087 246.928 157.85 246.934 160.952 246.916C167.697 246.876 169.957 246.675 175.194 245.651C184.93 243.748 193.213 239.687 201.569 232.719C203.13 231.416 206.225 228.563 207.602 227.158L208.382 226.36L208.388 221.223C208.39 218.397 208.392 215.978 208.39 215.848C208.388 215.673 208.249 215.77 207.855 216.221C200.298 224.875 192.985 230.922 186.248 234.086C179.452 237.279 171.792 238.741 163.99 238.335C153.738 237.802 146.361 234.832 140.33 228.809C137.359 225.841 135.216 222.824 133.16 218.717C130.419 213.238 128.141 205.213 126.935 196.784C126.166 191.406 125.93 188.262 125.839 182.122C125.764 177.141 125.863 174.374 126.248 170.592C127.428 159.008 131.131 147.815 135.99 141.14C139.87 135.813 144.963 131.524 150.8 128.668C154.58 126.819 157.968 125.797 162.268 125.208C164.218 124.941 169.446 124.901 171.479 125.137C176.091 125.674 180.301 126.949 184.478 129.072C193.543 133.68 200.304 141.359 204.304 151.589C205.257 154.028 206.564 158.15 206.825 159.54L206.912 160.002H208.715H210.518V138.446V116.89H208.725H206.933L206.77 117.861C205.947 122.78 203.068 125.804 199.192 125.818C197.541 125.825 195.039 125.094 189.526 122.994C184.621 121.127 182.286 120.342 178.811 119.394C175.057 118.371 170.789 117.571 166.654 117.115C164.682 116.899 156.595 116.9 154.372 117.119C145.715 117.968 138.101 120.149 130.247 124.03C117.95 130.105 108.634 138.909 101.665 151.041C97.1854 158.839 94.3487 167.205 93.2267 175.927C92.4977 181.593 92.5678 188.339 93.4143 193.965C94.787 203.089 98.3447 212.251 103.56 220.096C110.071 229.888 119.312 237.195 131.058 241.84C137.636 244.442 145.17 246.152 152.555 246.722ZM308.147 199.096V222.598L308.147 246.101H309.712H311.277L311.734 245.192C312.676 243.322 313.792 241.887 315.137 240.817C316.176 239.992 318.006 239.048 319.108 238.77C321.23 238.234 323.94 238.772 328.575 240.649C337.923 244.436 342.476 245.601 349.473 245.998C353.364 246.218 358.124 245.938 361.786 245.273C368.883 243.984 375.021 241.294 380.485 237.079C382.236 235.728 386.247 231.801 387.527 230.184C391.561 225.087 394.017 219.534 394.928 213.442C395.237 211.367 395.373 208.144 395.241 205.94C394.934 200.813 393.952 197.014 391.806 192.649C388.268 185.455 382.941 180.229 372.558 173.766C368.263 171.092 364.934 169.283 357.141 165.388C348.248 160.944 343.304 158.31 340.002 156.261C334.665 152.947 330.25 148.401 328.875 144.802C327.36 140.837 327.535 136.747 329.381 132.994C330.236 131.255 331.312 129.831 332.985 128.223C335.306 125.991 337.824 124.577 341.002 123.719C345.329 122.551 350.733 122.551 355.4 123.719C361.835 125.328 368.047 129.212 373.343 134.937C378.676 140.701 381.97 147.649 383.784 156.963L383.864 157.37H385.734H387.604V156.712C387.604 156.35 387.546 153.77 387.476 150.979C387.242 141.729 386.726 118.425 386.726 117.146V115.887H385.299H383.871L383.529 117.297C382.809 120.258 381.933 122.314 381.051 123.11C380.185 123.893 379.326 124.205 377.882 124.262C376.804 124.304 376.44 124.262 375.376 123.973C373.842 123.556 371.835 122.771 369.368 121.622C362.803 118.566 359.443 117.393 354.956 116.592C350.387 115.776 344.596 115.679 339.917 116.339C331.308 117.553 323.972 121.255 318.03 127.384C311.104 134.528 307.899 142.804 308.187 152.796C308.264 155.47 308.447 157.003 308.97 159.351C311.002 168.473 317.422 176.958 327.259 183.526C332.308 186.897 337.182 189.622 346.935 194.528C355.339 198.756 357.568 199.958 361.186 202.214C364.567 204.323 367.649 206.893 369.599 209.231C374.113 214.644 375.427 221.023 373.233 226.863C371.64 231.102 367.987 235.013 363.587 237.192C358.11 239.903 350.588 240.446 343.489 238.642C335.155 236.524 326.433 230.305 320.88 222.522C316.732 216.709 313.558 209.185 311.66 200.67L311.325 199.166L309.736 199.131L308.147 199.096Z" fill="white"/>
</svg>
