<svg width="500" height="500" viewBox="0 0 500 500" fill="none" xmlns="http://www.w3.org/2000/svg">
<path d="M245.985 493.98C232.827 489.423 220.144 484.245 208.199 478.551C174.587 462.528 144.463 442.107 116.837 416.616C114.775 414.713 106.216 406.457 105.307 405.494C104.962 405.128 103.294 403.39 101.599 401.632C92.6707 392.366 83.8637 382.17 76.1035 372.116C73.3523 368.551 73.3097 368.495 71.2646 365.724C55.0752 343.79 41.6741 320.705 30.7226 295.886C27.5176 288.623 24.1362 280.146 21.3584 272.412C-1.09622 209.894 -5.96511 141.901 7.3185 76.3473C7.76547 74.1416 8.1836 72.1362 8.24769 71.891L8.36422 71.4451L11.2797 71.2257C27.5123 70.0039 43.3537 65.661 57.9965 58.4183C75.1433 49.937 90.2524 37.6046 102.131 22.3946C106.059 17.3648 109.527 12.1471 112.79 6.35644C113.197 5.63462 113.549 5.02491 113.572 5.00153C113.596 4.97814 114.029 5.22606 114.537 5.55245C119.68 8.86372 128.19 13.6742 135.009 17.1258C168.381 34.0165 203.578 43.0545 241.473 44.4638C246.492 44.6505 259.177 44.5422 263.844 44.2729C282.202 43.2133 298.765 40.6202 315.603 36.1696C320.531 34.8671 323.327 34.0376 330.632 31.7102C332.078 31.2493 337.21 29.4351 339.603 28.5387C355.519 22.5767 371.04 14.9067 385.631 5.7942C386.166 5.45999 386.621 5.20929 386.642 5.23709C386.664 5.26489 387.262 6.30278 387.973 7.5435C402.614 33.114 426.033 53.0378 453.722 63.4799C465.293 67.8436 477.921 70.5593 490.28 71.3419C491.753 71.4351 491.774 71.4474 491.912 72.2742C491.953 72.5155 492.272 74.0946 492.623 75.7833C495.472 89.5155 497.644 104.748 498.823 119.271C499.776 131.007 500.087 139.943 499.98 152.545C499.897 162.336 499.74 166.52 499.134 175.167C495.777 223.011 483.184 269.109 461.765 311.96C449.95 335.597 435.853 357.508 419.193 378.132C417.135 380.679 412.548 386.173 411.294 387.594C403.266 396.683 400.385 399.767 393.313 406.837C381.83 418.317 371.913 427.093 359.342 436.899C328.72 460.785 294.29 479.688 257.703 492.7C254.822 493.725 249.969 495.389 249.945 495.36C249.938 495.353 248.156 494.732 245.985 493.98Z" fill="#008349"/>
<path d="M247.427 471.294C217.619 460.333 190.722 446.148 165.276 427.968C160.833 424.794 155.278 420.579 150.487 416.748C125.15 396.484 102.229 372.057 83.7362 345.609C47.1656 293.309 26.1923 233.006 22.4722 169.464C22.0937 163 22.0141 160.436 21.9431 152.42C21.8006 136.339 22.5857 122.245 24.4774 106.927C25.0152 102.571 26.5358 92.2412 26.7412 91.5472C26.7798 91.4166 26.9866 91.301 27.2677 91.2528C28.5209 91.0379 32.4327 90.2611 33.9342 89.929C55.8982 85.0705 76.8559 75.0564 94.4665 61.005C98.8961 57.4707 102.023 54.6814 106.417 50.3433C111.519 45.3067 116.601 39.5699 120.199 34.7856L120.541 34.3311L126.083 37.1085C144.243 46.2084 162.086 52.8897 181.505 57.8612C213.858 66.1436 247.939 68.4953 281.363 64.7516C310.045 61.5389 337.831 53.9339 363.949 42.1481C367.957 40.3394 373.634 37.6039 376.95 35.8834C378.362 35.1506 379.555 34.5509 379.6 34.5509C379.645 34.5509 380.179 35.1854 380.786 35.9608C392.528 50.9558 407.165 63.7366 423.443 73.2093C438.185 81.7886 454.038 87.7037 470.82 90.8875C472.164 91.1425 473.274 91.3605 473.288 91.3719C473.333 91.4109 473.941 95.1401 474.383 98.0911C477.224 117.06 478.527 137.271 478.107 155.843C477.858 166.82 477.343 175.267 476.328 185.004C473.309 213.963 466.747 241.966 456.637 269.031C441.615 309.246 419.108 346.313 390.239 378.382C382.315 387.185 371.681 397.748 363.04 405.399C334.662 430.527 303.198 450.388 268.607 465.008C262.31 467.67 250.483 472.215 249.949 472.179C249.871 472.174 248.736 471.775 247.427 471.294ZM251.283 448.427C261.099 444.606 269.469 440.894 278.946 436.159C334.132 408.585 380.574 365.235 412.004 311.959C421.476 295.905 429.502 279.104 436.042 261.641C447.574 230.848 454.265 198.446 455.904 165.454C456.442 154.64 456.419 142.784 455.839 131.929C455.49 125.407 454.673 115.877 454.055 111.121L453.838 109.453L453.337 109.298C453.061 109.212 451.623 108.792 450.141 108.363C431.174 102.874 412.176 93.3491 396.063 81.2508C389.132 76.0472 384.081 71.6537 377.512 65.1159L374 61.6208L372.311 62.3817C340.359 76.7772 304.847 85.5267 269.359 87.7473C263.157 88.1353 260.884 88.2093 253.066 88.2777C244.926 88.3489 239.956 88.2468 233.327 87.8721C196.941 85.8155 161.977 77.3605 128.703 62.5721C127.371 61.9802 126.266 61.496 126.247 61.496C126.228 61.496 124.737 62.9764 122.933 64.7858C105.168 82.603 84.6673 95.834 61.1926 104.633C57.3604 106.069 49.5725 108.583 46.8754 109.254C46.1099 109.444 46.2098 109.141 45.8449 112.378C41.7241 148.936 43.7125 185.435 51.7472 220.722C61.3126 262.732 79.6732 303.099 104.92 337.626C105.615 338.578 106.354 339.595 106.56 339.887C107.825 341.671 113.27 348.677 115.835 351.819C126.139 364.443 138.407 377.288 150.487 388.104C177.78 412.539 208.712 431.978 242.476 445.912C245.57 447.189 249.806 448.861 249.967 448.869C250.055 448.874 250.647 448.675 251.283 448.427ZM194.728 388.251V386.654L195.883 386.429C199.004 385.823 202.041 384.346 204.401 382.288C206.956 380.06 209.512 376.202 212.802 369.609C214.406 366.393 214.643 365.879 218.914 356.325C220.577 352.603 222.269 348.824 222.672 347.928C223.075 347.032 225.49 341.646 228.039 335.959C230.587 330.273 235.111 320.178 238.092 313.526C245.561 296.862 246.745 294.221 247.806 291.845C248.313 290.707 251.434 283.742 254.741 276.367L260.753 262.957L261.672 262.924L262.591 262.892L271.36 282.851C276.184 293.829 280.814 304.362 281.65 306.257C284.587 312.915 297.3 341.804 303.594 356.123C308.751 367.855 309.766 370.081 311.459 373.369C314.365 379.011 316.646 382.343 318.653 383.877C320.47 385.265 323.074 386.256 325.629 386.531C326.916 386.669 326.82 386.527 326.82 388.291V389.849H296.742H266.664V388.303V386.756L269.415 386.673C274.068 386.533 276.437 386.105 278.589 385.015C279.437 384.585 280.394 383.61 280.765 382.798C281.445 381.311 281.434 379.098 280.736 376.878C280.192 375.149 278.719 371.521 276.615 366.727C275.829 364.935 274.296 361.438 273.208 358.957L271.231 354.445L249.424 354.413L227.617 354.381L224.898 360.491C221.687 367.706 221.598 367.918 220.872 370.144C219.967 372.915 219.743 374.166 219.736 376.502C219.73 378.236 219.768 378.642 220.018 379.506C220.562 381.384 221.619 382.871 223.223 384.015C224.444 384.886 225.798 385.33 228.753 385.828C230.186 386.069 234.26 386.551 235.458 386.621L236.021 386.653L236.057 388.251L236.092 389.849H215.409H194.727V388.251H194.728ZM268.137 347.395C268.082 347.191 257.242 322.394 250.468 306.974C250.051 306.025 249.681 305.276 249.647 305.311C249.612 305.346 248.669 307.42 247.551 309.92C246.433 312.42 243.42 319.147 240.855 324.868C238.29 330.589 235.775 336.201 235.265 337.338C234.755 338.475 233.525 341.21 232.533 343.416C231.54 345.622 230.752 347.469 230.782 347.521C230.811 347.572 239.242 347.615 249.516 347.615C267.247 347.615 268.194 347.603 268.137 347.395ZM154.811 246.903C154.535 246.878 153.52 246.796 152.555 246.722C145.17 246.152 137.636 244.442 131.058 241.84C119.312 237.195 110.071 229.888 103.56 220.096C98.3447 212.251 94.787 203.089 93.4143 193.965C92.5678 188.339 92.4977 181.593 93.2267 175.927C94.3487 167.205 97.1854 158.839 101.665 151.041C108.634 138.909 117.95 130.105 130.247 124.03C138.101 120.149 145.715 117.968 154.372 117.119C156.595 116.901 164.682 116.899 166.654 117.115C170.789 117.571 175.057 118.371 178.811 119.394C182.286 120.342 184.621 121.127 189.526 122.994C195.039 125.094 197.541 125.825 199.192 125.818C203.068 125.804 205.947 122.78 206.77 117.861L206.933 116.89H208.725H210.518V138.446V160.002H208.715H206.912L206.825 159.54C206.564 158.15 205.257 154.028 204.304 151.589C200.304 141.359 193.543 133.68 184.478 129.072C180.301 126.949 176.091 125.674 171.479 125.137C169.446 124.901 164.218 124.941 162.268 125.208C157.968 125.797 154.58 126.819 150.8 128.668C144.963 131.524 139.87 135.813 135.99 141.14C131.131 147.815 127.428 159.008 126.248 170.592C125.863 174.374 125.764 177.141 125.839 182.122C125.93 188.262 126.166 191.406 126.935 196.784C128.141 205.213 130.419 213.238 133.16 218.717C135.216 222.824 137.359 225.841 140.33 228.809C146.361 234.832 153.738 237.802 163.99 238.335C171.792 238.741 179.452 237.279 186.248 234.086C192.985 230.922 200.298 224.875 207.855 216.221C208.249 215.77 208.388 215.673 208.39 215.848C208.392 215.978 208.39 218.397 208.388 221.223L208.382 226.36L207.601 227.158C206.225 228.563 203.13 231.416 201.569 232.719C193.213 239.687 184.93 243.748 175.194 245.651C169.957 246.675 167.697 246.876 160.952 246.916C157.85 246.934 155.087 246.928 154.811 246.903ZM308.147 222.598V199.096L309.736 199.131L311.325 199.166L311.66 200.67C313.558 209.185 316.732 216.709 320.88 222.522C326.433 230.305 335.155 236.524 343.489 238.642C350.588 240.446 358.11 239.903 363.587 237.192C367.987 235.013 371.64 231.102 373.233 226.863C375.427 221.023 374.113 214.644 369.599 209.231C367.649 206.893 364.567 204.323 361.186 202.214C357.568 199.958 355.339 198.756 346.935 194.528C337.182 189.622 332.308 186.897 327.259 183.526C317.422 176.958 311.002 168.473 308.97 159.351C308.447 157.003 308.264 155.47 308.187 152.796C307.899 142.804 311.104 134.528 318.03 127.384C323.972 121.255 331.308 117.553 339.917 116.339C344.596 115.679 350.387 115.776 354.956 116.592C359.443 117.393 362.803 118.566 369.368 121.622C371.835 122.771 373.842 123.556 375.376 123.973C376.44 124.262 376.804 124.304 377.882 124.262C379.326 124.205 380.185 123.893 381.051 123.11C381.933 122.314 382.809 120.258 383.529 117.297L383.871 115.887H385.299H386.726V117.146C386.726 118.425 387.242 141.729 387.476 150.979C387.546 153.77 387.604 156.35 387.604 156.712V157.37H385.734H383.864L383.784 156.963C381.97 147.649 378.676 140.701 373.343 134.937C368.047 129.212 361.835 125.328 355.4 123.719C350.733 122.551 345.329 122.551 341.002 123.719C337.824 124.577 335.306 125.991 332.985 128.223C331.312 129.831 330.236 131.255 329.381 132.994C327.535 136.747 327.36 140.837 328.875 144.802C330.25 148.401 334.665 152.947 340.002 156.261C343.304 158.31 348.248 160.944 357.141 165.388C364.934 169.283 368.263 171.092 372.558 173.766C382.941 180.229 388.268 185.455 391.806 192.649C393.952 197.014 394.934 200.813 395.241 205.94C395.373 208.144 395.237 211.367 394.928 213.442C394.017 219.534 391.561 225.087 387.527 230.184C386.247 231.801 382.236 235.728 380.485 237.079C375.021 241.294 368.883 243.984 361.786 245.273C358.124 245.938 353.364 246.218 349.473 245.998C342.476 245.601 337.923 244.436 328.575 240.649C323.94 238.772 321.23 238.234 319.108 238.77C318.006 239.048 316.176 239.992 315.137 240.817C313.792 241.887 312.676 243.322 311.734 245.192L311.277 246.101H309.712H308.147L308.147 222.598Z" fill="white"/>
</svg>
