<svg width="500" height="500" viewBox="0 0 500 500" fill="none" xmlns="http://www.w3.org/2000/svg">
<path fill-rule="evenodd" clip-rule="evenodd" d="M249.958 26.0371H432.471L493.617 111.204C471.275 127.247 423.988 151.52 438.938 204.015C445.238 239.375 490.593 258.105 490.257 322.526C490.593 479.422 306.064 413.405 253.318 471.695C200.487 413.321 9.323 479.338 9.57498 322.526C9.323 258.189 54.6783 239.375 61.0616 204.015C75.9281 151.52 28.725 127.247 6.29932 111.204L67.445 26.0371H249.958Z" fill="#00184C"/>
<path d="M253.318 478.414L249.958 474.803C231.816 454.729 194.944 450.109 155.888 445.238C120.275 440.786 83.3193 436.083 54.5943 419.705C21.1658 400.555 5.03948 368.722 5.12347 322.527C4.95548 281.875 22.0057 259.113 37.0401 239.039C46.1952 226.693 54.2584 216.026 56.5261 203.259L56.6101 202.839C69.0408 159.248 35.9483 136.822 11.7588 120.528C8.81908 118.596 6.04737 116.664 3.61162 114.9L0 112.213L65.2612 21.5859H434.823L500 112.213L496.22 114.816C493.785 116.58 491.013 118.512 488.157 120.444C463.968 136.738 430.875 159.164 443.306 202.755L443.39 203.175C445.658 216.026 453.637 226.609 462.876 238.955C477.994 259.029 494.961 281.791 494.793 322.527C494.877 368.806 479.254 400.555 446.918 419.621C418.948 435.999 383.168 440.702 348.48 445.154C310.516 450.025 274.567 454.729 256.509 474.719L253.318 478.414ZM65.4292 204.939C62.6575 219.805 53.7544 231.732 44.2634 244.415C30.0689 263.313 13.9425 284.899 14.1105 322.527C13.9425 418.193 86.595 427.348 156.896 436.251C195.616 441.038 232.152 445.742 253.234 465.312C274.147 445.742 309.844 441.122 347.388 436.251C415.589 427.432 485.973 418.277 485.805 322.527C485.973 284.899 469.847 263.397 455.653 244.415C446.162 231.732 437.259 219.805 434.487 204.939C420.46 155.132 459.684 128.675 483.034 112.884C484.462 111.961 485.889 111.037 487.233 110.029L430.119 30.573H69.7967L12.6827 110.029C14.0265 110.953 15.3704 111.961 16.8822 112.884C40.3158 128.759 79.4557 155.216 65.4292 204.939Z" fill="white"/>
<path fill-rule="evenodd" clip-rule="evenodd" d="M82.8994 120.443H129.011V421.132C103.561 415.757 89.4507 412.565 82.8994 407.777V120.443Z" fill="white"/>
<path d="M129.179 421.216H128.927C103.897 416.009 89.3668 412.817 82.7314 407.861V120.359H129.095V421.216H129.179ZM83.0674 407.693C89.6187 412.481 104.065 415.673 128.927 420.88V120.611H83.0674V407.693Z" fill="white"/>
<path fill-rule="evenodd" clip-rule="evenodd" d="M417.352 120.443H371.241V421.132C396.775 415.757 410.885 412.565 417.352 407.777V120.443Z" fill="white"/>
<path d="M371.157 421.216V120.359H417.52V407.861H417.436C410.885 412.733 396.355 415.925 371.241 421.216H371.157ZM371.409 120.611V420.88C396.271 415.673 410.717 412.397 417.268 407.693V120.611H371.409Z" fill="white"/>
<path fill-rule="evenodd" clip-rule="evenodd" d="M177.39 120.443H223.501V435.831C208.214 431.883 190.324 427.683 177.39 425.668V120.443Z" fill="white"/>
<path d="M223.585 435.999L223.417 435.915C210.062 432.471 191.164 427.851 177.306 425.752H177.138V120.359H223.501V435.999H223.585ZM177.474 425.5C191.332 427.599 209.978 432.219 223.333 435.663V120.611H177.474V425.5Z" fill="white"/>
<path fill-rule="evenodd" clip-rule="evenodd" d="M324.542 120.443H278.431V435.831C293.634 431.883 311.608 427.683 324.542 425.668V120.443Z" fill="white"/>
<path d="M278.263 435.999V120.359H324.626V425.836H324.542C310.6 428.019 291.786 432.555 278.431 435.999H278.263ZM278.515 120.611V435.663C291.87 432.219 310.516 427.683 324.374 425.5V120.611H278.515Z" fill="white"/>
<path d="M174.786 59.1305H148.748V85.4198H174.786V76.4327L184.445 78.4485V83.32C184.445 87.0996 183.773 89.7033 182.345 91.0472C180.917 92.391 178.145 93.147 174.198 93.147H149.42C145.305 93.147 142.617 92.475 141.189 91.0472C139.845 89.6193 139.089 87.0996 139.089 83.32V61.4822C139.089 57.7026 139.845 55.0989 141.189 53.755C142.617 52.3272 145.305 51.7393 149.42 51.7393H174.198C178.145 51.7393 180.917 52.4112 182.345 53.755C183.773 55.1829 184.445 57.7026 184.445 61.4822V65.4298L174.786 66.9417V59.1305Z" fill="white"/>
<path d="M209.894 80.7998H211.322C211.994 80.7998 212.498 80.9678 212.75 81.3878C213.086 81.8077 213.169 82.5636 213.169 83.7395V90.2908C213.169 91.5507 213.002 92.3906 212.666 92.7266C212.33 93.0625 211.322 93.2305 209.81 93.2305H202.587C201.831 93.2305 201.411 93.0625 201.075 92.5586C200.739 92.1386 200.655 91.2987 200.655 90.2068V83.6555C200.655 82.4796 200.739 81.6397 201.075 81.3038C201.327 80.9678 202.335 80.7158 204.014 80.7158H209.894V80.7998Z" fill="white"/>
<path d="M222.997 93.2309L246.43 51.7393H255.669L279.523 93.2309H268.772L263.816 84.2439H237.527L232.656 93.2309H222.997ZM241.559 76.6847H259.701L250.798 59.8024L241.559 76.6847Z" fill="white"/>
<path d="M298.505 80.7998H299.933C300.688 80.7998 301.108 80.9678 301.36 81.3878C301.612 81.8077 301.78 82.5636 301.78 83.7395V90.2908C301.78 91.5507 301.696 92.3906 301.36 92.7266C301.024 93.0625 300.1 93.2305 298.421 93.2305H291.281C290.609 93.2305 290.106 93.0625 289.77 92.5586C289.518 92.1386 289.35 91.2987 289.35 90.2068V83.6555C289.35 82.4796 289.518 81.6397 289.854 81.3038C290.19 80.9678 291.113 80.7158 292.793 80.7158H298.505V80.7998Z" fill="white"/>
<path d="M338.821 59.1305V93.2309H329.246V59.1305H310.18V51.7393H357.971V59.1305H338.821Z" fill="white"/>
</svg>
