<svg width="500" height="500" viewBox="0 0 500 500" fill="none" xmlns="http://www.w3.org/2000/svg">
<path fill-rule="evenodd" clip-rule="evenodd" d="M241.391 73.4086H259.869L250.798 56.2744L241.391 73.4086Z" fill="white"/>
<path fill-rule="evenodd" clip-rule="evenodd" d="M498.236 108.601L435.915 21.8379H249.958H64.0012L1.67969 108.601C24.5253 124.979 72.6523 149.673 57.4499 203.175C50.9826 239.207 4.78736 258.357 5.03934 323.954C4.78736 483.706 199.563 416.429 253.402 475.895C307.156 416.513 495.128 483.79 494.792 323.954C495.128 258.357 448.933 239.207 442.466 203.175C427.263 149.673 475.474 124.979 498.236 108.601ZM290.106 80.5478C290.106 79.3719 290.274 78.532 290.61 78.112C290.946 77.6921 291.87 77.5241 293.633 77.5241H299.429V77.6081H300.857C301.613 77.6081 302.032 77.7761 302.284 78.196C302.536 78.616 302.704 79.3719 302.704 80.6318V87.2671C302.704 88.527 302.62 89.3669 302.284 89.7868C301.948 90.2068 301.025 90.2908 299.261 90.2908H291.954C291.282 90.2908 290.778 90.1228 290.442 89.6188C290.19 89.1989 290.022 88.359 290.022 87.1831V80.5478H290.106ZM199.731 80.5478C199.731 79.3719 199.815 78.532 200.151 78.112C200.403 77.7761 201.411 77.5241 203.175 77.5241H209.138V77.6081H210.566C211.238 77.6081 211.742 77.7761 211.994 78.196C212.33 78.616 212.414 79.3719 212.414 80.6318V87.2671C212.414 88.527 212.246 89.3669 211.91 89.7868C211.574 90.2068 210.566 90.2908 208.97 90.2908H201.579C200.823 90.2908 200.403 90.1228 200.067 89.6188C199.731 89.1989 199.647 88.359 199.647 87.1831V80.5478H199.731ZM126.743 424.408C100.789 418.949 86.4269 415.673 79.7916 410.801V118.008H126.743V424.408ZM147.489 90.2068C143.289 90.2068 140.517 89.5349 139.089 88.107C137.746 86.6791 136.99 84.0754 136.99 80.2118V57.9541C136.99 54.0905 137.746 51.4868 139.089 50.059C140.517 48.6311 143.289 48.0432 147.489 48.0432H172.77C176.801 48.0432 179.657 48.7151 181.085 50.059C182.513 51.4868 183.185 54.0905 183.185 57.9541V61.9857L173.358 63.4976V55.5184H146.817V82.3116H173.358V73.1566L183.185 75.1723V80.1278C183.185 83.9914 182.513 86.5952 181.085 88.023C179.657 89.3669 176.801 90.1228 172.77 90.1228H147.489V90.2068ZM222.997 439.358C207.458 435.327 189.232 431.043 176.046 429.028V118.008H222.997V439.358ZM264.068 81.1357H237.275L232.32 90.2908H222.493L246.346 48.0432H255.753L280.027 90.2908H269.108L264.068 81.1357ZM325.97 429.028C312.783 431.043 294.473 435.327 279.019 439.358V118.008H325.97V429.028ZM359.986 55.5184H340.5V90.2908H330.757V55.5184H311.355V47.9592H360.07V55.5184H359.986ZM420.544 410.801C413.993 415.673 399.546 418.949 373.593 424.408V118.008H420.544V410.801Z" fill="white"/>
</svg>
