<svg width="500" height="500" viewBox="0 0 500 500" fill="none" xmlns="http://www.w3.org/2000/svg">
<g clip-path="url(#clip0_1149_6000)">
<path d="M295.263 226.812V468.675H365.388C403.138 468.675 403.575 433.05 403.575 433.05V226.8H295.263V226.812Z" fill="white"/>
<path d="M96.1377 229.212V433.05C96.1377 433.05 96.5752 468.675 134.325 468.675H205.575V226.812H96.1377V229.212Z" fill="white"/>
<path d="M91 130.475V433.112C91.175 447.187 100.45 473.75 134.325 473.75H219.925C220.775 473.75 240.713 474.012 244.763 495.1C244.748 496.437 245.265 497.726 246.2 498.683C247.135 499.639 248.412 500.185 249.75 500.2C251.088 500.215 252.377 499.697 253.333 498.762C254.289 497.827 254.835 496.55 254.85 495.212C258.988 474.562 278.963 473.75 279.75 473.75H365.338C399.213 473.75 408.488 447.137 408.663 433.012V130.475H91ZM403.575 135.812V433.05C403.575 433.05 403.137 468.675 365.387 468.675H279.75C279.75 468.675 256.863 468.675 250.613 491.05C250.313 492.112 250.037 493.212 249.825 494.375C246.212 475 231.075 470.225 223.788 469.05C222.503 468.828 221.203 468.698 219.9 468.662H134.313C96.5625 468.662 96.125 433.037 96.125 433.037V135.537H403.625V135.762L403.575 135.812Z" fill="white"/>
<g style="mix-blend-mode:multiply" opacity="0.25">
<mask id="mask0_1149_6000" style="mask-type:luminance" maskUnits="userSpaceOnUse" x="295" y="226" width="109" height="243">
<path d="M403.575 226.812H295.263V468.675H403.575V226.812Z" fill="white"/>
</mask>
<g mask="url(#mask0_1149_6000)">
<path d="M295.263 468.675H297.725V229.212H403.575V226.812H295.263V468.675Z" fill="white"/>
</g>
</g>
<g style="mix-blend-mode:multiply" opacity="0.25">
<mask id="mask1_1149_6000" style="mask-type:luminance" maskUnits="userSpaceOnUse" x="96" y="226" width="110" height="243">
<path d="M205.6 226.812H96.125V468.675H205.6V226.812Z" fill="white"/>
</mask>
<g mask="url(#mask1_1149_6000)">
<path d="M96.1377 226.812V229.212H203.013V468.675H205.6V226.812H96.1377Z" fill="white"/>
</g>
</g>
<path fill-rule="evenodd" clip-rule="evenodd" d="M250.138 0L262.788 39.2875H304.425L270.525 63.7125L283.7 102.85L249.788 79.05L216.563 102.85L229.388 63.9375L195.288 39.2875L237.363 39.1875L250.138 0Z" fill="white"/>
<path d="M133.175 210.8H147.6V166.038H159.612V152.15H121.125V166.038H133.175V210.8Z" fill="white"/>
<path d="M190.525 152.15H176.087V210.813H190.525V152.15Z" fill="white"/>
<path d="M236.287 211.775C240.248 211.86 244.178 211.073 247.801 209.471C251.423 207.868 254.649 205.488 257.25 202.5C259.607 199.884 261.395 196.807 262.5 193.463C263.571 189.776 264.089 185.951 264.037 182.113V177.113H235.9V191.013H247.95C247.205 192.454 246.176 193.73 244.925 194.763C242.612 196.8 239.632 197.916 236.55 197.9C232.604 197.833 228.834 196.259 226.012 193.5C224.314 192.019 222.966 190.178 222.067 188.111C221.167 186.044 220.739 183.803 220.812 181.55C220.739 179.369 221.118 177.197 221.927 175.17C222.736 173.143 223.957 171.306 225.512 169.775C227.012 168.221 228.819 166.997 230.818 166.181C232.818 165.365 234.966 164.976 237.125 165.038C242.262 165.038 246.55 167.413 250.225 172.288L252.437 175.213L262.975 165.213L260.912 162.875C257.839 159.215 254.076 156.195 249.837 153.988C245.812 152.12 241.425 151.164 236.987 151.188C232.962 151.112 228.964 151.854 225.234 153.369C221.504 154.884 218.12 157.14 215.287 160C209.597 165.676 206.385 173.374 206.354 181.411C206.324 189.448 209.477 197.17 215.125 202.888C217.856 205.735 221.142 207.992 224.78 209.519C228.417 211.045 232.33 211.809 236.275 211.763" fill="white"/>
<path d="M298.387 194.5L312.012 210.75H333.262L312.487 186.875C315.075 185.806 317.412 184.209 319.35 182.188C321.04 180.426 322.324 178.315 323.109 176.003C323.895 173.692 324.164 171.236 323.897 168.809C323.63 166.382 322.834 164.043 321.564 161.957C320.295 159.872 318.583 158.09 316.55 156.738C312.112 153.613 305.437 152.088 296.15 152.088H281.175V210.75H298.387V194.5ZM298.387 166.038C306.987 166.15 306.987 169.163 306.987 170.788C306.987 172.413 306.987 175.863 298.387 176.075V166.075V166.038Z" fill="white"/>
<path d="M378.575 196.9H357.575V185.975H377.975V172.075H357.575V166.038H378.575V152.15H343.15V210.8H378.575V196.9Z" fill="white"/>
</g>
<defs>
<clipPath id="clip0_1149_6000">
<rect width="500" height="500" fill="white"/>
</clipPath>
</defs>
</svg>
