<svg width="500" height="500" viewBox="0 0 500 500" fill="none" xmlns="http://www.w3.org/2000/svg">
<path fill-rule="evenodd" clip-rule="evenodd" d="M36 157.57V171.288C36.4111 172.405 36.5639 184.742 36.6945 187.187C36.9707 192.334 37.3655 197.594 37.9279 202.586C39.0707 212.724 40.3919 222.212 42.0749 232.104C47.7966 265.732 60.6902 302.335 75.9151 332.797C82.3455 345.662 96.0792 368.288 104.745 379.443L123.103 402.947C124.782 405.103 130.046 410.493 131.098 411.876L139.053 420.624C141.906 423.403 144.662 426.208 147.513 429.09L158.283 439.137C163.352 443.101 168.794 448.199 174.403 452.522C194.939 468.353 219.61 482.923 243.834 492.42C245.174 492.945 249.001 494.204 249.904 494.889H250.813C251.808 494.09 272.143 485.33 273.966 484.499C281.931 480.867 288.999 477.081 295.986 472.894C303.233 468.552 309.761 464.238 316.313 459.593L346.306 434.918C347.266 433.954 347.567 433.649 348.568 432.842C349.272 432.275 349.965 431.485 350.643 430.796C351.441 429.985 352.106 429.573 352.942 428.748L368.383 412.852L392.35 383.979C400.262 372.797 405.323 365.487 412.493 353.574C440.242 307.47 456.791 255.207 462.131 201.159C462.648 195.924 463.002 190.847 463.358 185.457C463.423 184.45 463.686 170.127 464.11 169.216V154.543C463.565 153.43 463.625 141.755 463.477 139.374C462.509 123.879 461.096 110.822 459.374 95.4283C458.577 88.3062 454.272 54.9415 450.268 48.6781C449.506 47.4854 447.872 44.9008 446.957 43.99L434.476 48.6374C421.692 53.3747 409.046 58.5839 395.594 61.4318C375.699 65.6438 352.821 65.8337 332.428 62.4454C318.066 60.06 300.382 54.7466 288.653 46.0778L277.342 35.8972C276.642 35.1999 276.081 34.4233 275.259 33.6353C268.363 27.0257 260.008 18.4468 254.614 11.0507C253.408 9.39829 252.046 7.69165 250.952 6H250.761L246.908 10.8572C245.592 12.399 243.532 15.2684 242.087 16.7902L215.553 42.8587C215.043 43.3019 214.819 43.4047 214.298 43.8929C213.521 44.6238 212.743 45.197 211.895 45.8308C200.261 54.5168 181.389 60.0785 167.194 62.6395C145.657 66.5239 124.389 65.4582 103.772 60.8108C94.5717 58.7373 85.6267 55.5318 76.9729 52.6296C72.7295 51.207 68.3969 49.5475 63.9329 48.0607C61.7473 47.3326 52.0164 44.0357 50.4418 43.995C49.7295 48.4711 48.6103 52.9536 47.7823 57.379C45.1877 71.2441 42.8508 84.464 40.9072 98.5575C38.7516 114.188 37.621 126.665 36.6196 142.268C36.4725 144.53 36.394 156.664 36 157.57Z" fill="#EDEDED"/>
<path fill-rule="evenodd" clip-rule="evenodd" d="M141.197 71.8546C111.366 71.8796 91.9408 65.4156 65.5268 55.856C63.2963 55.0487 57.873 52.9474 55.691 52.6583C55.2734 56.4278 54.0215 61.2714 53.3091 65.1537C52.5211 69.4535 51.7552 73.6612 51.0236 77.9781C46.6724 103.63 42.8994 133.9 42.8994 159.736C42.8994 186.684 44.1171 202.461 48.5668 229.306C52.5811 253.523 61.6953 283.049 71.0329 305.653C74.2998 313.564 77.6839 320.855 81.3534 328.271C84.9943 335.625 89.045 342.78 93.0857 349.48C99.0001 359.286 106.006 370.281 113.038 378.933C119.466 386.843 125.336 395.464 132.286 402.911C132.678 403.331 132.839 403.622 133.206 404.058L137.134 408.361C137.781 409.181 138.441 409.668 139.101 410.51C143.231 415.777 162.008 433.845 168.487 438.764L177.501 446.214C197.69 461.832 221.547 476.129 245.191 485.559C246.247 485.981 247.11 486.301 248.144 486.724C249.565 487.305 249.817 487.698 251.177 487.101C254.981 485.428 258.681 483.662 262.531 481.97C275.267 476.373 283.183 472.897 295.25 465.294C298.63 463.163 302.102 461.102 305.283 458.857C312.671 453.64 317.085 450.546 324.232 444.867C328.952 441.117 331.177 439.017 335.336 435.391L339.807 431.621C340.614 430.724 341.081 430.337 341.928 429.628L368.321 402.499L381.45 386.808C386.299 381.024 390.876 374.303 395.435 367.625C412.312 342.899 428.094 312.462 438.873 279.314C450.067 244.893 457.212 204.581 457.212 165.685C457.212 141.483 455.918 126.831 453.301 102.797C452.343 93.9931 451.233 85.1644 449.882 76.4977C448.983 70.7275 446.607 56.5848 444.458 52.2686C441.832 52.9974 429.422 57.8532 426.003 59.1715C403.533 67.8382 386.068 71.6133 360.969 71.6462C337.374 71.6762 311.537 66.9303 293.302 56.9995C287.753 53.9774 282.223 50.3778 278.402 46.2764C277.458 45.2622 276.773 44.911 275.658 43.7618C273.96 42.0088 272.955 41.3393 270.473 38.649C268.78 36.8146 267.139 35.2215 265.391 33.437L260.218 28.32C257.986 25.9567 252.32 19.7061 250.698 17.2979L230.772 38.1858C229.876 39.0766 229.148 39.8068 228.229 40.6747C222.363 46.2165 214.85 52.9317 207.88 56.4684C189.102 65.9945 165.363 71.8339 141.197 71.8546Z" fill="#DA251D"/>
<path fill-rule="evenodd" clip-rule="evenodd" d="M227.988 61.2614L227.935 460.841C230.9 462.812 234.957 464.674 238.483 466.179C239.972 466.815 249.114 470.758 249.888 470.819C250.753 470.886 270.254 462.047 272.26 461.007L272.162 61.2714C271.505 60.5861 271.378 60.4748 270.713 59.9316C268.693 58.2806 262.15 51.8203 260.937 50.4948L252.998 42.0886C252.117 41.2278 251.524 39.9145 250.278 39.3135L242.316 47.8916C237.764 52.6297 234.192 55.6375 229.53 59.8452C228.89 60.422 228.559 60.4719 227.988 61.2614Z" fill="#DA251D"/>
<path fill-rule="evenodd" clip-rule="evenodd" d="M272.26 461.007L283.934 454.472C292.634 449.531 308.633 438.404 316.559 431.616L316.523 81.5941C312.892 80.4164 308.685 79.522 304.121 78.0002C294.411 74.7626 282.422 69.4406 274.479 63.0167C273.857 62.5127 272.742 61.5677 272.162 61.2715L272.26 461.007Z" fill="white"/>
<path fill-rule="evenodd" clip-rule="evenodd" d="M183.634 81.5805L183.651 431.613C185.858 434.107 202.423 445.643 204.744 447.13L221.916 457.568C223.298 458.385 226.516 460.355 227.934 460.84L227.987 61.2607L223.44 64.5812C221.924 65.6719 220.171 66.7782 218.478 67.7932C211.656 71.8846 203.8 75.2786 196.106 77.8931C192.008 79.2864 187.713 80.2336 183.634 81.5805Z" fill="white"/>
<path fill-rule="evenodd" clip-rule="evenodd" d="M316.559 431.616C316.969 431.164 317.398 430.936 317.987 430.433L325.474 424.01C329.47 420.727 336.459 414.096 339.986 410.684C340.882 409.819 341.814 408.592 342.645 407.82C343.161 407.338 343.582 407.103 344.074 406.6C344.6 406.063 344.939 405.655 345.455 405.109C346.413 404.097 347.178 403.281 348.106 402.234C349.413 400.756 351.725 398.643 353.441 396.521C354.859 394.767 356.382 393.341 358.516 390.556C358.807 390.176 360.748 387.695 361.112 387.6C360.715 386.914 360.825 386.038 360.834 385.242C360.843 384.433 360.837 383.621 360.837 382.812V105.56C360.837 99.6561 360.487 92.6054 360.874 86.8438C352.859 86.4227 345.652 86.3028 337.655 85.3256C334.02 84.8817 330.422 84.3649 326.897 83.7361C323.403 83.1129 319.931 82.1836 316.524 81.5947L316.559 431.616Z" fill="#DA251D"/>
<path fill-rule="evenodd" clip-rule="evenodd" d="M139.344 86.9915L139.366 388.018C139.908 389.002 141.057 390.071 141.828 390.986C142.653 391.965 143.446 392.994 144.405 393.938L149.62 399.761C152.279 402.889 166.049 416.602 168.728 418.875L183.652 431.614L183.635 81.5811C180.251 82.1885 176.825 83.1913 173.351 83.8423C169.773 84.5125 166.314 85.075 162.659 85.5354C154.663 86.5439 147.401 86.6424 139.344 86.9915Z" fill="#DA251D"/>
<path fill-rule="evenodd" clip-rule="evenodd" d="M95.0298 321.537C95.6879 323.615 103.642 337.603 104.759 339.479C111.717 351.177 118.817 362.003 126.991 372.698C129.064 375.412 131.012 377.881 133.1 380.501C134.477 382.229 138.015 386.737 139.367 388.017L139.345 86.9911C131.187 86.6563 124.062 86.5528 115.986 85.4615C109.05 84.5236 101.541 83.1103 95.0762 81.2852L95.0298 321.537Z" fill="white"/>
<path fill-rule="evenodd" clip-rule="evenodd" d="M360.873 86.8431C360.486 92.6047 360.836 99.6561 360.836 105.559V382.812C360.836 383.621 360.842 384.433 360.833 385.242C360.824 386.038 360.714 386.915 361.111 387.6C363.984 383.931 367.377 380.322 370.471 376.229C371.51 374.856 372.418 373.744 373.458 372.371C380.661 362.864 389.503 349.671 395.465 339.147C397.101 336.261 398.788 333.459 400.413 330.408C401.372 328.606 404.713 322.874 405.141 321.228L405.125 81.8574C401.854 82.3935 398.385 83.3321 394.994 83.9723C391.534 84.6262 387.846 85.1565 384.246 85.5691C376.273 86.482 368.933 86.6983 360.873 86.8431Z" fill="white"/>
<path fill-rule="evenodd" clip-rule="evenodd" d="M405.124 81.8568L405.14 321.227C406.335 319.498 410.052 311.344 411.168 308.91C413.116 304.659 414.893 300.556 416.725 296.132C427.672 269.698 435.567 237.429 439.204 208.583C442.118 185.46 442.69 162.188 441.39 138.671C440.537 123.236 436.836 87.2329 433.884 72.5605L412.651 79.7675C410.375 80.4799 407.224 81.0638 405.124 81.8568Z" fill="#DA251D"/>
<path fill-rule="evenodd" clip-rule="evenodd" d="M95.03 321.538L95.0764 81.2858C85.5461 78.996 76.7167 75.5527 67.6995 72.7676C66.9651 74.3279 65.3683 85.6648 64.9379 88.2772C58.1578 129.395 55.5125 166.04 60.651 208.197C63.1685 228.853 67.7809 250.057 73.8145 268.818C78.6025 283.703 82.7281 295.134 88.8951 309.182C89.853 311.365 93.9736 320.307 95.03 321.538Z" fill="#DA251D"/>
<path fill-rule="evenodd" clip-rule="evenodd" d="M205.273 275.119L229.37 275.147C229.802 275.025 231.036 271.099 231.278 270.443C231.894 268.772 232.463 267.229 233.041 265.619C233.624 263.996 234.184 262.439 234.798 260.784C235.39 259.192 236.092 257.461 236.587 255.88H266.405C267.154 257.417 270.994 268.042 271.922 270.379C272.125 270.893 273.511 275.029 273.914 275.147L298.394 275.146C298.09 274.164 297.676 273.361 297.314 272.404L290.537 255.452C290.138 254.503 289.792 253.644 289.398 252.645L286.003 244.174C284.271 239.601 282.104 234.537 280.363 230.056C280.024 229.182 279.593 228.089 279.233 227.242C277.889 224.084 276.007 218.743 274.704 215.953C274.309 215.107 273.897 214.01 273.566 213.127L262.245 184.925C260.394 184.716 245.455 184.91 241.756 184.892C239.597 184.88 240.537 184.545 238.753 188.828L236.159 195.459C234.463 199.928 232.691 204.336 231.006 208.759C229.296 213.244 227.508 217.571 225.844 222.047L210.409 261.811C209.52 264.104 208.655 266.21 207.831 268.458C207.379 269.688 206.999 270.611 206.519 271.775L205.273 275.119ZM243.952 235.892C243.937 235.331 247.037 227.276 247.512 225.907C248.604 222.75 250.151 218.953 251.174 215.877L258.681 235.923L243.952 235.892Z" fill="#DA251D"/>
<path fill-rule="evenodd" clip-rule="evenodd" d="M334.388 379.734H340.849L342.909 379.556C343.591 379.471 344.278 379.445 344.946 379.375C346.291 379.236 347.648 379.025 348.863 378.778C370.456 372.802 373.283 360.742 373.283 343.323V287.989H350.46C350.493 302.143 350.461 316.3 350.461 330.454C350.461 335.991 350.465 346.208 349.779 350.997C349.343 354.046 347.711 356.205 345.655 357.515C341.521 360.153 331.186 360.248 326.933 355.979C326.378 355.421 326.228 355.214 325.74 354.536C325.004 353.512 324.372 352.372 324.026 350.962C323.368 348.278 323.283 344.204 323.281 340.996L323.282 287.992L300.346 287.99L300.505 343.323C300.346 349.802 300.668 356.909 303.923 363.168C306.597 368.308 309.013 370.82 313.029 373.696C315.184 375.24 315.907 375.508 318.074 376.564C321.682 378.321 328.53 379.544 332.686 379.624C332.995 379.63 333.32 379.609 333.626 379.611C334.091 379.615 334.092 379.559 334.388 379.734Z" fill="#DA251D"/>
<path fill-rule="evenodd" clip-rule="evenodd" d="M122.359 148.179V152.219C122.455 152.373 122.636 156.147 122.689 156.677C123.12 161.017 123.787 164.824 125.173 168.852C125.845 170.805 127.134 173.897 128.143 175.633C131.613 181.606 136.387 187.177 142.495 190.545C143.028 190.839 143.418 191.145 144 191.411C145.939 192.301 146.653 192.859 149.123 193.683C151.642 194.525 154.207 195.252 157.061 195.626C170.559 197.395 182.409 194.197 190.746 186.424C192.411 184.872 192.882 184.101 194.108 182.538C194.493 182.047 194.827 181.589 195.18 181.107C196.278 179.612 197.968 176.449 198.693 174.852L200.112 171.414C200.632 169.891 202.123 165.322 202.387 163.729C201.563 163.567 200.49 163.194 199.644 162.925L191.366 160.391C189.497 159.862 187.755 159.201 185.831 158.675C184.851 158.408 180.858 157.024 180.234 157.075C179.015 161.874 178.208 166.739 174.703 170.775C171.719 174.212 167.09 176.402 160.712 175.488C157.27 174.995 155.543 173.895 153.206 172.195C147.475 168.023 145.903 158.918 145.748 151.911C145.504 140.914 146.438 129.276 156.971 124.593C162.67 122.059 170.874 123.124 175.222 127.779L176.239 129.131C179.447 133.843 178.688 136.022 179.684 137.967C180.369 137.966 181.784 137.528 182.528 137.362C187.171 136.335 191.943 135.021 196.592 134.017L202.175 132.653C202.158 131.822 200.747 127.615 200.374 126.467C199.14 122.668 198.159 121.244 196.454 118.277C195.963 117.423 195.337 116.65 194.741 115.907L193.404 114.215C193.247 114.015 193.069 113.856 192.886 113.675C190.936 111.747 188.367 109.807 186.096 108.343L183.459 106.884C182.681 106.475 181.509 105.983 180.62 105.643C177.595 104.483 174.178 103.602 170.854 103.256C170.44 103.212 167.292 102.946 167.209 102.895H162.367C162.322 102.924 158.149 103.326 157.673 103.383C153.499 103.887 148.852 105.342 145.274 107.104C142.455 108.492 139.492 110.353 137.274 112.41C136.956 112.705 136.981 112.704 136.547 112.993L133.866 115.59C129.986 120.323 127.562 123.852 125.467 129.976C124.5 132.804 123.849 135.419 123.3 138.498C123.053 139.885 122.796 141.715 122.699 143.211C122.673 143.683 122.397 148.117 122.359 148.179Z" fill="#DA251D"/>
<path fill-rule="evenodd" clip-rule="evenodd" d="M209.441 272.256L227.583 272.279L234.559 253.047L268.409 253.048L275.71 272.249L294.108 272.279L260.321 187.794L242.285 187.792L209.441 272.256ZM239.767 238.728L251.108 207.656C251.539 208.181 253.681 214.286 254.118 215.445C254.836 217.352 262.658 237.851 262.826 238.751L239.767 238.728Z" fill="white"/>
<path fill-rule="evenodd" clip-rule="evenodd" d="M320.399 342.519V290.897H303.325V343.324C303.325 348.811 303.305 345.256 303.887 350.821C304.696 358.546 305.857 362.316 310.595 367.83C312.248 369.756 314.683 371.512 317.402 373.023C322.985 376.127 329.998 376.815 337.304 376.859C344.591 376.903 351.666 375.901 357.137 372.82C369.207 366.02 370.285 360.491 370.455 343.324V290.897H353.213L353.24 343.323C353.239 347.856 353.324 348.044 352.46 352.34C351.627 356.486 348.719 359.41 345.438 360.86C341.862 362.439 335.831 362.567 331.802 361.646C325.345 360.17 321.47 355.361 320.797 349.322C320.6 347.535 320.186 344.204 320.399 342.519Z" fill="white"/>
<path fill-rule="evenodd" clip-rule="evenodd" d="M198.826 165.746L182.347 160.884C182.098 161.454 182.226 161.35 181.859 162.649C180.557 167.248 178.645 171.312 175.15 174.387C171.272 177.801 165.416 179.584 158.696 178.026C153.028 176.712 148.953 172.967 146.689 168.959C141.826 160.349 141.767 142.272 145.27 133.046C147.172 128.038 150.792 124.18 155.421 122.121C162.94 118.778 173.422 120.219 178.495 127.275C179.231 128.298 179.836 129.288 180.447 130.591C180.727 131.188 180.978 131.834 181.193 132.493C181.372 133.036 181.557 133.928 181.794 134.495C183.655 134.479 195.397 131.074 198.604 130.605C198.281 127.429 194.919 121.016 192.983 118.325C187.782 111.097 178.741 106.903 169.463 105.993C154.113 104.489 140.391 110.014 132.432 122.192C122.741 137.018 122.559 164.219 133.377 178.447C137.993 184.52 144.665 190.25 155.287 192.407C165.897 194.561 177.23 192.542 184.729 187.524C190.128 183.911 194.038 178.565 196.574 172.486C197.161 171.081 198.689 167.26 198.826 165.746Z" fill="white"/>
</svg>
