<svg width="500" height="500" viewBox="0 0 500 500" fill="none" xmlns="http://www.w3.org/2000/svg">
<g clip-path="url(#clip0_1149_6054)">
<path d="M250.21 500H249.79C249.37 500 248.95 499.916 248.614 499.664C149.252 439.862 88.9466 377.709 58.8777 304.048C31.8325 237.779 32.0005 168.654 32.1685 95.5821C32.1685 89.3667 32.1685 83.1514 32.1685 76.936C32.1685 76.2641 32.5045 75.5921 33.0084 75.1722C33.5123 74.7522 34.2683 74.5842 34.9402 74.7522C48.1268 77.7759 61.7334 79.3717 75.34 79.3717C125.903 79.3717 170.166 58.038 198.387 40.1478C229.128 20.7458 248.026 1.00789 248.278 0.755917C249.034 -4.17288e-06 250.21 -0.167987 251.134 0.419952C251.302 0.503943 251.386 0.587935 251.554 0.755917C252.058 1.25986 270.956 20.6619 301.78 39.8119C330.253 57.534 375.021 78.6158 426.759 78.6158C439.61 78.6158 452.461 77.356 464.975 74.7522C465.647 74.5842 466.319 74.7522 466.823 75.1722C467.327 75.5921 467.663 76.2641 467.663 76.936C467.663 83.2353 467.663 89.4507 467.663 95.5821C467.831 168.738 467.999 237.779 440.954 304.048C410.885 377.709 350.579 439.862 251.218 499.664C251.05 499.832 250.63 500 250.21 500ZM36.788 79.7077C36.788 84.9992 36.788 90.2906 36.788 95.5821C36.452 240.719 36.1161 366.118 250.042 495.297C463.968 366.202 463.632 240.803 463.296 95.5821C463.296 90.2906 463.296 84.9992 463.296 79.6237C451.285 81.8915 439.106 83.0674 426.843 83.0674C374.013 83.0674 328.322 61.5656 299.261 43.5075C282.882 33.2605 269.948 23.0976 261.969 16.2943C257.433 12.4307 253.989 9.32303 251.974 7.30724C251.218 6.55131 250.546 5.96338 250.042 5.45943C244.75 10.6669 227.028 27.2972 201.075 43.7594C172.266 61.9856 127.163 83.7393 75.508 83.7393C62.4053 83.7393 49.3867 82.3954 36.788 79.7077Z" fill="white"/>
<path d="M153.116 217.705C141.273 217.705 131.11 213.254 123.803 204.771C117 196.96 113.304 186.125 113.304 174.366C113.304 162.607 117 151.856 123.803 143.961C131.11 135.478 141.189 131.026 153.116 131.026C173.022 131.11 186.881 142.449 188.644 159.835L188.896 162.271H170.922L170.502 160.591C168.151 151.352 162.271 146.733 153.116 146.733C137.242 146.733 131.53 161.011 131.53 174.366C131.53 187.72 137.158 201.999 153.116 201.999C163.111 201.999 169.746 195.112 170.838 183.521L171.006 181.505H188.812L188.644 183.857C187.552 204.099 173.19 217.705 153.116 217.705ZM153.116 135.562C132.37 135.562 117.84 151.52 117.84 174.366C117.84 197.211 132.37 213.17 153.116 213.17C169.914 213.17 182.093 202.335 184.025 185.957H175.038C173.106 198.639 164.791 206.451 153.116 206.451C133.882 206.451 127.079 189.148 127.079 174.366C127.079 159.583 133.882 142.281 153.116 142.281C163.867 142.281 171.174 147.657 174.366 157.904H183.773C181.253 144.297 169.494 135.646 153.116 135.562Z" fill="white"/>
<path d="M291.198 277.843H271.628L264.236 257.097H236.099L228.708 277.843H209.726L241.559 194.943H259.281L291.198 277.843ZM274.819 273.391H284.646L256.173 199.479H244.666L216.277 273.307H225.6L232.992 252.561H267.428L274.819 273.391ZM265.412 246.682H235.175L248.614 208.466H252.142L265.412 246.682ZM241.475 242.23H259.029L250.294 217.117L241.475 242.23Z" fill="white"/>
<path d="M348.732 349.907C327.146 349.907 314.295 337.813 314.295 317.571V265.16H332.522V313.035C332.522 324.626 333.697 333.529 348.732 333.529C363.766 333.529 364.942 324.626 364.942 313.035V265.16H383.168V317.571C383.084 337.813 370.234 349.907 348.732 349.907ZM318.831 269.696V317.571C318.831 335.545 329.414 345.372 348.732 345.372C368.05 345.372 378.633 335.461 378.633 317.571V269.696H369.394V313.119C369.394 322.442 369.394 338.065 348.732 338.065C328.07 338.065 328.07 322.442 328.07 313.119V269.696H318.831Z" fill="white"/>
<path d="M172.686 160.003C170.418 151.1 164.539 144.465 153.116 144.465C136.317 144.465 129.262 159.247 129.262 174.282C129.262 189.316 136.317 204.099 153.116 204.099C165.294 204.099 172.014 195.028 173.106 183.605H178.985V160.003H172.686Z" fill="white"/>
<path d="M455.988 98.5215V90.7942C455.988 90.1223 455.736 89.5344 455.233 89.1144C454.729 88.6945 454.057 88.5265 453.385 88.6105C442.886 90.3743 432.219 91.2982 421.552 91.2982C323.786 91.2982 252.31 17.2179 251.638 16.462C251.218 15.958 250.63 15.7061 249.958 15.7061C249.286 15.7061 248.698 15.958 248.278 16.462C247.606 17.2179 176.13 91.2982 78.3637 91.2982C67.6968 91.2982 57.0299 90.3743 46.531 88.6105C45.8591 88.5265 45.1871 88.6945 44.6832 89.1144C44.1792 89.5344 43.9272 90.2063 43.9272 90.7942V98.5215C43.9272 168.318 43.8433 234.167 69.4606 297.917C98.1016 369.141 154.964 428.271 248.614 484.125C248.95 484.293 249.37 484.461 249.79 484.461H250.21C250.63 484.461 251.05 484.377 251.386 484.125C344.952 428.355 401.898 369.141 430.539 297.917C456.072 234.167 456.072 168.234 455.988 98.5215ZM419.536 311.943C408.953 334.285 394.843 356.375 376.029 378.296V335.545C370.569 343.608 360.994 347.64 348.732 347.64C336.133 347.64 326.39 343.44 321.014 334.957V430.791C307.912 441.29 293.381 451.873 277.507 462.372V275.659H273.223L265.832 254.913H234.587L227.196 275.659H222.493V462.288C206.534 451.789 192.088 441.29 178.985 430.707V203.763C173.106 210.986 164.035 215.353 153.116 215.353C140.349 215.353 130.438 209.894 123.971 201.243V378.296C105.157 356.375 91.0464 334.285 80.4635 311.943V95.6657C95.6659 95.4978 110.196 93.65 123.971 90.5423V147.32C130.438 138.753 140.349 133.21 153.116 133.21C163.699 133.294 172.938 136.821 178.985 143.289V70.8043C196.203 62.2372 210.902 52.7462 222.493 44.1791V250.966L243.155 197.295H257.769L277.507 248.614V44.1791C289.098 52.7462 303.796 62.2372 321.014 70.8043V267.428H330.254V313.119C330.254 323.618 330.925 335.881 348.732 335.881C366.538 335.881 367.21 323.702 367.21 313.119V267.428H376.029V90.5423C389.803 93.65 404.334 95.4978 419.536 95.6657V311.943Z" fill="white"/>
<path d="M250.126 210.817L238.283 244.498H262.221L250.462 210.817H250.126Z" fill="white"/>
</g>
<defs>
<clipPath id="clip0_1149_6054">
<rect width="500" height="500" fill="white"/>
</clipPath>
</defs>
</svg>
