<svg width="500" height="500" viewBox="0 0 500 500" fill="none" xmlns="http://www.w3.org/2000/svg">
<path d="M431.61 97.7078C396.605 112.372 355.924 102.438 331.326 73.1099C330.38 72.1639 328.961 72.1639 328.488 72.6369C328.488 72.6369 328.488 72.6369 328.015 73.1099C324.23 77.3673 319.973 81.6246 315.716 85.4089C272.669 121.36 208.809 116.156 172.858 73.1099C171.912 72.1639 170.493 72.1639 170.02 72.6369C170.02 72.6369 170.02 72.6369 169.547 73.1099C144.949 102.438 104.268 112.372 69.2633 97.7078C68.3173 97.2348 66.8981 97.7078 66.4251 98.6539V99.127C46.0845 254.283 117.513 406.601 249.49 489.855C249.963 490.328 250.91 490.328 251.856 489.855C383.36 406.601 454.788 254.283 434.448 99.6C434.448 98.1809 433.029 97.7078 431.61 97.7078Z" stroke="white" stroke-width="3" stroke-miterlimit="10"/>
<path d="M249.49 58.4457L229.623 71.6907C229.15 72.1638 228.677 72.1638 228.204 71.6907C227.257 71.2177 226.784 70.2716 227.257 69.7986L233.88 50.4041C233.88 49.931 233.88 48.985 233.407 48.5119L219.689 35.2669C219.689 35.2669 219.216 34.7939 219.216 34.3208C219.216 33.3747 219.689 32.4287 220.635 32.4287L237.664 29.1174C238.137 29.1174 238.61 28.6444 238.61 28.1713L249.017 10.669L249.49 10.1959C250.436 9.7229 251.382 10.1959 251.855 10.669L262.735 29.1174L280.238 32.9017C280.711 32.9017 280.711 32.9017 281.184 33.3747C281.657 33.8478 281.657 35.2669 281.184 35.7399L267.466 49.458C266.993 49.931 266.993 49.931 266.993 50.8771L273.615 70.2716C273.615 70.7447 273.615 71.2177 273.615 71.6907C273.142 72.6368 272.196 72.6368 271.25 72.1638L251.382 58.9187C250.909 57.9727 249.963 57.9727 249.49 58.4457Z" fill="#F7A64F"/>
<path d="M79.67 161.568L249.017 342.741C249.963 343.687 251.382 343.687 251.855 342.741L421.203 161.568C421.676 161.095 422.149 161.095 422.622 161.095C424.041 161.095 424.987 162.041 424.514 163.46C420.73 289.288 355.924 405.182 250.909 474.718C249.963 475.191 249.017 475.191 248.544 474.718C144.476 404.709 79.67 289.288 75.8857 162.987C75.8857 162.514 75.8857 161.568 76.3588 161.568C77.3049 160.622 78.724 160.622 79.67 161.568Z" fill="white"/>
<path d="M94.8076 116.629C122.717 118.994 150.626 109.061 171.44 89.666C215.432 132.239 285.914 132.239 329.907 89.666C350.248 109.061 378.157 118.521 406.539 116.629C407.012 116.629 407.958 116.629 407.958 117.102C408.904 118.048 408.904 119.467 407.958 119.94L251.856 287.395C250.91 288.342 249.491 288.342 249.018 287.395L92.9154 120.413C92.4424 119.467 92.4424 118.994 92.4424 118.994C92.4424 117.102 93.3885 116.629 94.8076 116.629Z" fill="white"/>
<path d="M223.473 417.48C224.419 418.426 225.838 418.426 226.311 417.48C226.784 417.007 226.784 416.534 226.784 416.061V344.16C226.784 343.687 227.257 343.214 227.257 342.74C228.204 341.794 229.623 341.794 230.096 342.74L242.868 356.459C243.341 356.932 243.341 357.405 243.341 357.878V452.012C243.341 452.485 243.341 452.958 242.868 453.431C242.395 454.377 240.976 454.377 240.029 453.904C181.373 410.858 136.907 351.728 111.363 283.611C110.89 282.665 111.363 281.246 112.783 280.773L124.608 276.515C125.555 276.042 126.974 276.515 127.447 277.934C148.26 330.915 180.9 378.218 223.473 417.48Z" fill="#0161A8"/>
<path d="M79.6701 161.568L249.017 342.741C249.963 343.687 251.383 343.687 251.856 342.741L421.203 161.568C421.676 161.095 422.149 161.095 422.622 161.095C424.041 161.095 424.987 162.041 424.514 163.46C420.73 289.288 355.924 404.709 250.91 474.718C249.963 475.191 249.017 475.191 248.544 474.718C144.476 404.709 79.6701 289.288 75.8858 162.987C75.8858 162.514 75.8858 161.568 76.3589 161.568C77.305 160.622 78.7241 160.622 79.6701 161.568ZM431.61 97.7078C396.605 112.372 355.924 102.438 331.326 73.1099C330.38 72.1639 328.961 72.1639 328.488 72.6369C328.488 72.6369 328.488 72.6369 328.015 73.1099C324.23 77.3673 319.973 81.6246 315.716 85.4089C272.669 121.36 208.809 116.156 172.858 73.1099C171.912 72.1639 170.493 72.1639 170.02 72.6369C170.02 72.6369 170.02 72.6369 169.547 73.1099C144.949 102.438 104.268 112.372 69.2633 97.7078C68.3173 97.2348 66.8981 97.7078 66.4251 98.6539V99.127C46.0845 254.283 117.513 406.601 249.49 489.855C249.963 490.328 250.91 490.328 251.856 489.855C383.36 406.601 454.788 254.283 434.448 99.6C434.448 98.1809 433.029 97.7078 431.61 97.7078ZM94.8073 116.629C122.717 118.995 150.626 109.061 171.439 89.6662C215.432 132.24 285.914 132.24 329.907 89.6662C350.247 109.061 378.156 118.521 406.539 116.629C407.012 116.629 407.958 116.629 407.958 117.102C408.904 118.048 408.904 119.468 407.958 119.941L251.856 287.396C250.91 288.342 249.49 288.342 249.017 287.396L92.9152 120.414C92.4421 119.468 92.4421 118.995 92.4421 118.995C92.4421 117.102 93.3882 116.629 94.8073 116.629Z" fill="#0161A8"/>
<path d="M292.537 200.357L302.944 189.477C303.89 188.531 303.89 187.112 302.944 186.639C302.471 186.166 301.997 186.166 301.524 186.166H275.98C274.561 186.166 273.615 187.112 273.615 188.531V245.295C273.615 245.768 273.615 246.241 273.142 246.714L260.37 260.432C259.897 260.905 259.424 260.905 258.951 260.905C257.532 260.905 256.586 259.959 256.586 258.54V136.97C256.586 135.551 257.532 134.604 258.951 134.604H372.007C372.48 134.604 372.953 134.604 373.426 135.078C374.372 136.024 374.372 137.443 373.426 137.916L305.309 211.236C304.363 212.183 302.944 212.183 302.471 211.236L293.01 202.722C292.064 201.776 292.064 200.83 292.537 200.357ZM273.615 166.298C273.615 167.717 274.561 168.663 275.98 168.663H321.392C321.865 168.663 322.338 168.19 322.811 168.19L334.637 155.418C335.583 154.472 335.583 153.053 334.637 152.58C334.164 152.107 333.691 152.107 333.218 152.107H275.98C274.561 152.107 273.615 153.053 273.615 154.472V166.298Z" fill="#0161A8"/>
<path d="M343.625 293.072C344.098 294.018 343.625 295.437 342.679 295.91C316.188 310.102 294.429 331.861 279.292 357.405C277.872 359.77 278.346 362.609 280.711 364.028C282.603 364.974 284.968 364.974 286.387 363.555C301.524 349.837 315.715 335.646 329.434 320.508C336.056 314.359 345.99 313.413 353.085 318.616C361.6 324.293 363.965 336.119 358.289 345.106C332.745 387.207 299.632 423.63 259.897 452.486C259.424 452.959 258.951 452.959 258.478 452.959C257.059 452.959 256.113 452.013 256.113 450.594V436.402C256.113 435.456 256.586 434.983 257.059 434.51C291.591 410.385 320.446 379.165 342.206 343.214C343.625 340.376 342.679 337.065 340.313 335.646C337.948 333.753 334.637 334.226 333.218 336.592C320.446 353.621 305.309 369.231 288.279 382.476C288.279 382.476 288.279 382.476 287.806 382.476C279.765 388.153 268.885 386.261 263.208 378.219C258.005 369.704 258.005 359.297 262.735 350.783C279.292 321.454 303.89 296.857 333.218 279.354C334.164 278.881 335.583 278.881 336.056 280.3L343.625 293.072Z" fill="#0161A8"/>
<path d="M244.287 257.594V239.146C244.287 238.673 244.287 238.2 243.814 237.727L166.236 155.418C165.763 154.945 165.763 154.472 165.763 153.999C165.763 152.58 166.709 151.634 168.128 151.634H242.395C243.814 151.634 244.76 150.688 244.76 149.269V136.97C244.76 135.551 243.814 134.604 242.395 134.604H128.866C127.447 134.604 126.501 135.551 126.501 136.97C126.501 137.443 126.501 137.916 126.974 138.389L240.503 259.486C241.449 260.432 242.868 260.432 243.341 259.486C243.814 258.54 244.287 258.54 244.287 257.594Z" fill="#0161A8"/>
</svg>
