<svg width="500" height="500" viewBox="0 0 500 500" fill="none" xmlns="http://www.w3.org/2000/svg">
<path d="M423 16H78V75H423V16Z" fill="white"/>
<path d="M250.294 467.925C249.833 467.923 215.58 448.536 174.178 424.842L98.9008 381.761L98.7958 255.106L98.6909 128.451H250.289H401.888L401.783 255.11L401.678 381.769L326.405 424.849C285.005 448.542 250.755 467.927 250.294 467.925ZM238.403 429.444C238.956 429.352 239.043 421.911 239.147 365.954L239.265 302.569L272.595 283.599C290.927 273.166 306.122 264.565 306.363 264.485C306.666 264.384 306.799 285.536 306.799 333.617C306.799 394.358 306.875 402.924 307.416 403.131C307.768 403.267 313.176 400.509 320.032 396.697L332.031 390.026L332.141 319.815L332.251 249.603L347.989 240.622L363.726 231.641L363.836 215.306L363.945 198.971L362.376 199.625C361.513 199.984 354.475 203.917 346.735 208.363C338.995 212.81 332.567 216.448 332.451 216.448C332.334 216.448 332.239 208.66 332.239 199.141V181.833H354.134H376.029V169.113V156.393H341.414H306.799V193.838V231.283L296.894 236.946L286.99 242.609L286.883 199.501L286.777 156.393H234.017H181.257L182.353 158.129C182.956 159.083 187.381 164.807 192.188 170.849L200.928 181.833H207.363H213.798V233.1V284.367L181.998 302.5L150.198 320.633L150.092 238.513L149.987 156.393H137.268H124.549V261.698V367.003L125.696 367.002C126.443 367.002 141.986 358.437 170.216 342.469L213.589 317.936L213.798 366.922L214.006 415.908L225.892 422.728C232.429 426.479 238.059 429.502 238.403 429.444ZM241.427 268.595L239.238 269.847V225.632V181.416H250.498H261.758L261.749 219.263L261.739 257.11L252.678 262.227C247.694 265.041 242.631 267.907 241.427 268.595Z" fill="#F5D77F"/>
<path d="M250.289 87.9972H72.0012V43.9986V0H250.289H428.578V43.9986V87.9972H250.289ZM200.12 66.2959C200.51 66.304 201.322 66.0865 201.923 65.8124C202.525 65.5384 203.284 64.797 203.611 64.165C204.051 63.3148 204.206 61.3278 204.206 56.5307V50.0458H211.295H218.385V57.1356C218.385 63.6389 218.453 64.2936 219.209 65.0489C219.662 65.5018 220.51 65.9923 221.093 66.1388C221.677 66.2853 222.723 66.1698 223.418 65.8821C224.112 65.5945 224.962 64.8146 225.306 64.1491C225.835 63.1265 225.912 60.6656 225.808 48.2557L225.684 33.5724L224.506 31.0241C223.851 29.607 222.462 27.6259 221.378 26.5614C220.305 25.5086 218.302 24.127 216.926 23.4914C214.847 22.5315 213.858 22.3362 211.087 22.3393C208.314 22.3422 207.312 22.5432 205.15 23.5285C203.553 24.257 201.839 25.4739 200.706 26.6859C199.691 27.7705 198.492 29.3883 198.04 30.281C197.588 31.1738 197.008 32.8987 196.75 34.1142C196.457 35.4971 196.287 41.3503 196.296 49.7535C196.308 60.0984 196.438 63.4117 196.864 64.1795C197.167 64.7277 197.865 65.4248 198.413 65.7287C198.961 66.0325 199.729 66.2878 200.12 66.2959ZM211.295 42.1219H204.206V37.938C204.206 35.3675 204.423 33.2341 204.769 32.4056C205.079 31.6639 206.013 30.4593 206.845 29.7287C207.677 28.9982 209.019 28.2764 209.827 28.1249C210.634 27.9734 211.956 27.9734 212.764 28.1249C213.572 28.2764 214.913 28.9982 215.745 29.7287C216.577 30.4593 217.512 31.6639 217.822 32.4056C218.168 33.2341 218.385 35.3675 218.385 37.938V42.1219H211.295ZM241.448 66.2959C241.861 66.304 242.716 66.0432 243.348 65.7164C243.98 65.3895 244.721 64.63 244.995 64.0286C245.313 63.3315 245.493 60.5987 245.493 56.4904V50.0458H252.772C257.527 50.0458 260.43 49.873 261.144 49.5476C261.746 49.2735 262.505 48.5321 262.832 47.9001C263.159 47.268 263.426 46.4688 263.426 46.1242C263.426 45.7795 263.202 45.0054 262.928 44.404C262.654 43.8026 261.913 43.043 261.281 42.7162C260.414 42.268 258.331 42.1219 252.812 42.1219H245.493V38.4727C245.493 35.5894 245.666 34.5433 246.309 33.4884C246.757 32.754 247.685 31.8626 248.372 31.5074C249.358 30.9982 251.131 30.8616 256.754 30.8616C262.11 30.8616 264.171 30.7137 265.034 30.2673C265.666 29.9404 266.408 29.1809 266.682 28.5795C266.956 27.978 267.18 27.1283 267.18 26.6911C267.18 26.2539 266.956 25.4042 266.682 24.8027C266.408 24.2013 265.666 23.4418 265.034 23.1149C264.175 22.6706 262.139 22.5206 256.966 22.5206C251.068 22.5206 249.645 22.6503 247.327 23.3993C245.831 23.8825 243.823 24.8762 242.864 25.6073C241.906 26.3385 240.595 27.7204 239.952 28.6781C239.303 29.6444 238.516 31.6781 238.183 33.2471C237.731 35.3784 237.586 39.4122 237.591 49.6287C237.597 60.0882 237.725 63.4104 238.151 64.1795C238.455 64.7277 239.152 65.4248 239.701 65.7287C240.249 66.0325 241.035 66.2878 241.448 66.2959ZM278.108 66.2959C278.498 66.304 279.31 66.0865 279.911 65.8124C280.513 65.5384 281.272 64.797 281.599 64.165C282.039 63.3148 282.194 61.3278 282.194 56.5307V50.0458H289.283H296.373V57.1356C296.373 63.6389 296.441 64.2936 297.197 65.0489C297.65 65.5018 298.498 65.9923 299.082 66.1388C299.665 66.2853 300.711 66.1698 301.406 65.8821C302.1 65.5945 302.95 64.8146 303.294 64.1491C303.823 63.1265 303.9 60.6656 303.796 48.2557L303.672 33.5724L302.494 31.0241C301.839 29.607 300.45 27.6259 299.366 26.5614C298.293 25.5086 296.29 24.127 294.914 23.4914C292.835 22.5315 291.846 22.3362 289.075 22.3393C286.302 22.3422 285.3 22.5432 283.138 23.5285C281.541 24.257 279.828 25.4739 278.694 26.6859C277.679 27.7705 276.48 29.3883 276.028 30.281C275.576 31.1738 274.996 32.8987 274.738 34.1142C274.445 35.4971 274.275 41.3503 274.284 49.7535C274.296 60.0984 274.426 63.4117 274.852 64.1795C275.156 64.7277 275.853 65.4248 276.401 65.7287C276.949 66.0325 277.717 66.2878 278.108 66.2959ZM289.283 42.1219H282.194V37.938C282.194 35.3675 282.411 33.2341 282.757 32.4056C283.067 31.6639 284.001 30.4593 284.833 29.7287C285.665 28.9982 287.007 28.2764 287.815 28.1249C288.623 27.9734 289.944 27.9734 290.752 28.1249C291.56 28.2764 292.901 28.9982 293.733 29.7287C294.566 30.4593 295.5 31.6639 295.81 32.4056C296.156 33.2341 296.373 35.3675 296.373 37.938V42.1219H289.283ZM133.099 56.7186H185.021V44.6242V32.5298H133.099H81.1763V44.6242V56.7186H133.099ZM367.48 56.7186H419.402V44.6242V32.5298H367.48H315.557V44.6242V56.7186H367.48Z" fill="#0AB9D8"/>
<path d="M250.709 500C250.249 499.977 209.898 476.931 161.041 448.785L72.2097 397.61L72.1048 249.685L72 101.76H249.872H427.745L427.64 250.316L427.535 398.872L339.54 449.456C291.143 477.278 251.169 500.022 250.709 500ZM250.294 467.925C250.755 467.925 285.005 448.542 326.405 424.849L401.678 381.769L401.783 255.11L401.888 128.451H250.289H98.6909L98.7958 255.106L98.9008 381.761L174.178 424.842C215.58 448.536 249.833 467.923 250.294 467.925Z" fill="#DAA813"/>
<path d="M238.403 429.444C238.059 429.502 232.429 426.479 225.892 422.728L214.006 415.908L213.798 366.922L213.589 317.935L170.216 342.469C141.986 358.437 126.443 367.002 125.696 367.002L124.549 367.002V261.698V156.393H137.268H149.987L150.092 238.513L150.198 320.632L181.998 302.5L213.798 284.367V233.1V181.833H207.363H200.928L192.188 170.849C187.381 164.807 182.956 159.083 182.353 158.129L181.257 156.393H234.017H286.777L286.883 199.501L286.99 242.609L296.895 236.946L306.799 231.283V193.838V156.393H341.414H376.029V169.113V181.833H354.134H332.239V199.141C332.239 208.66 332.335 216.448 332.451 216.448C332.567 216.448 338.995 212.81 346.735 208.363C354.475 203.917 361.513 199.984 362.376 199.625L363.945 198.971L363.836 215.306L363.727 231.641L347.989 240.622L332.251 249.603L332.141 319.815L332.031 390.026L320.032 396.697C313.176 400.508 307.768 403.266 307.416 403.131C306.875 402.924 306.799 394.358 306.799 333.617C306.799 285.536 306.666 264.384 306.363 264.485C306.122 264.565 290.927 273.166 272.595 283.599L239.265 302.568L239.147 365.954C239.043 421.911 238.956 429.352 238.403 429.444ZM241.427 268.595C242.631 267.906 247.694 265.041 252.678 262.227L261.739 257.11L261.749 219.263L261.758 181.416H250.498H239.238V225.632V269.847L241.427 268.595Z" fill="#004A79"/>
</svg>
