<svg
    width="500"
    height="500"
    fill="none"
    xmlns="http://www.w3.org/2000/svg">
    <g clip-path="url(#a)" fill="#0598D1">
    <path d="M469.558 339.766c8.005-10.148 30.406-10.148 30.406-10.148-11.667-12.382-23.909-15.859-25.955-16.392-2.549.639-5.923 1.242-10.231 1.739-10.734 1.242-25.56 1.88-42.792 1.064a48.29 48.29 0 0 1-2.656 7.097c-16.98 36.225-41.284 64.397-88.383 58.684-43.294-5.215-78.116-59.181-58.551-111.87-23.047-11.637-114.266-59.82-162.694-115.666 0 0-1.041-1.313-2.01-3.123-84.004 81.357-70.65 160.195-70.65 160.195C7.683 313.262 0 329.618 0 329.618c22.33-.212 29.042 11.141 29.042 11.141-18.99 9.261-17.052 42.967-17.052 42.967 18.99-17.563 33.853-8.763 33.853-8.763-10.088 27.284 1.436 43.179 1.436 43.179 18.236-42.718 45.376-6.563 45.376-6.563 56.361 39.88 128.087 45.557 193.711 42.08 65.623-3.478 116.886-39.561 116.886-39.561s-.61-.071 15.365-13.589c20.606-17.457 31.699 17.385 31.699 17.385 13.785-20.259 1.615-44.918 1.615-44.918 22.401-3.797 34.894 11.708 34.894 11.708-.646-30.052-17.267-44.918-17.267-44.918Zm-308.551 35.09c-42.828 0-77.542-27.958-77.542-62.41s34.75-62.41 77.542-62.41c42.791 0 77.577 27.958 77.577 62.41 0 10.609-3.267 20.543-9.082 29.307a53.542 53.542 0 0 0 4.451-21.43c0-30.833-26.062-55.847-58.228-55.847-32.165 0-58.228 25.014-58.228 55.847 0 26.681 19.529 48.998 45.628 54.498-.718 0-1.436.035-2.118.035Zm22.436-17.669c-19.708 0-35.719-15.221-35.719-34.026 0-18.805 16.011-34.026 35.719-34.026 4.739 0 9.262.923 13.391 2.484l-3.267 13.553-4.846 19.94 14.431-13.127 9.37-8.516c4.164 5.571 6.605 12.348 6.605 19.692 0 18.769-15.975 34.026-35.719 34.026h.035Zm92.476 30.371c-2.908 2.448-18.991 19.373-21.683 22.211v.426s-.072-.071-.179-.213l-.216.213v-.426c-2.692-2.874-18.739-19.763-21.683-22.211-3.195-2.696-10.123-10.431 3.77-21.82 12.851-10.574 16.154-13.802 17.949-14.689v-.178s.144.071.215.071c.072 0 .108-.035.18-.071v.178c1.795.922 5.098 4.115 17.949 14.689 13.857 11.389 6.965 19.124 3.734 21.82h-.036Z"/>
    <path d="M139.108 164.137c20.786 20.543 87.306 74.154 139.252 91.15 2.154-3.052 10.662-11.993 33.889-5.642.466.142.933.249 1.364.391 28.827 8.408 80.054 24.268 80.054 24.268s25.991 7.912 28.504 29.094l46.094-3.193s1.795.603 4.057 1.561C451.644 150.3 340.25 122.235 318.711 116.025c-31.699-8.87 0-43.038 0-43.038-28.504 0-46.741 26.256-46.741 26.256-13.426-3.158-4.487-53.788-4.487-53.788-33.602 4.754-38.125 54.107-38.125 54.107h-1.938c-21.181-29.768-38.699-29.768-38.699-29.768 21.467 38.922-20.965 48.431-20.965 48.431-21.109 3.548-39.776 15.612-50.474 23.879 3.949 3.051 9.513 9.863 21.826 22.033Z"/>
    </g>
    <defs>
        <clipPath id="a">
            <path fill="#fff" transform="translate(0 45.455)" d="M0 0h500v409.091H0z"/>
        </clipPath>
    </defs>
    
    <style>
        path { fill: #000; }
        @media (prefers-color-scheme: dark) {
            path { fill: #0598D1; }
        }
    </style>
</svg>